<?xml version="1.0" encoding="utf-8"?>
<!-- Generator: Adobe Illustrator 25.3.1, SVG Export Plug-In . SVG Version: 6.00 Build 0)  -->
<svg version="1.1" xmlns="http://www.w3.org/2000/svg" xmlns:xlink="http://www.w3.org/1999/xlink" x="0px" y="0px"
	 viewBox="0 0 47.5 39.9" style="enable-background:new 0 0 47.5 39.9;" xml:space="preserve">
<style type="text/css">
	.st0{fill:#D61918;}
	.st1{fill:none;stroke:#FFFFFF;stroke-width:9.300000e-02;}
	.st2{fill:#FFFFFF;}
</style>
<g id="圖層_2">
</g>
<g id="圖層_1">
	<g id="surface1">
		<path class="st0" d="M45.4,6.7c2.2,3.4,2,8.5-0.3,11.7c-4.4,8.1-12.3,16.1-21.1,21h-0.3C14.4,34.1,6.3,25.7,1.6,17.1
			c-1.7-3.5-1.5-8.2,0.9-11.3c3.1-4.2,8.4-6,13.8-5.2c2.8,0.5,5.1,1.6,7.3,3.6c0.6-0.3,1.2-0.9,1.8-1.4c4-2.8,10.8-3.2,15.2-0.8
			C42.7,3.1,44.4,4.9,45.4,6.7"/>
		<path class="st1" d="M45.4,6.7c2.2,3.4,2,8.5-0.3,11.7c-4.4,8.1-12.3,16.1-21.1,21h-0.3C14.4,34.1,6.3,25.7,1.6,17.1
			c-1.7-3.5-1.5-8.2,0.9-11.3c3.1-4.2,8.4-6,13.8-5.2c2.8,0.5,5.1,1.6,7.3,3.6c0.6-0.3,1.2-0.9,1.8-1.4c4-2.8,10.8-3.2,15.2-0.8
			C42.7,3.1,44.4,4.9,45.4,6.7z"/>
		<path class="st2" d="M45.3,7c2.7,4.5,0.7,10.1-2.1,13.9c-4.4,7-11.3,13.7-19.1,18.2h-0.3C14.6,33.9,6.1,25.3,1.8,16.8
			c-2.2-4.2-0.9-9.3,2.6-12.5c3.4-3.3,8.6-4.1,13.3-3c2.2,0.6,4.2,1.7,5.8,3.4c0.1,0.1,0.2,0,0.3,0c3.6-3.9,9.7-4.8,14.7-3.2
			C41.4,2.3,43.9,4.6,45.3,7"/>
		<path class="st1" d="M45.3,7c2.7,4.5,0.7,10.1-2.1,13.9c-4.4,7-11.3,13.7-19.1,18.2h-0.3C14.6,33.9,6.1,25.3,1.8,16.8
			c-2.2-4.2-0.9-9.3,2.6-12.5c3.4-3.3,8.6-4.1,13.3-3c2.2,0.6,4.2,1.7,5.8,3.4c0.1,0.1,0.2,0,0.3,0c3.6-3.9,9.7-4.8,14.7-3.2
			C41.4,2.3,43.9,4.6,45.3,7z"/>
		<path class="st0" d="M14.3,14.1c-0.3-0.4-0.9-0.6-1.4-0.5c-0.5,0.1-0.9,0.5-1,0.9l0,2.6l0,0.1l-1.2,0l0-1.4
			c-0.1-0.7,0.2-1.7-0.8-2c-0.4-0.2-0.8-0.2-1.2,0c-0.9,0.4-0.6,1.4-0.7,2.2v4.9c0,0.6,0,1.2,0.6,1.5c0.4,0.2,0.9,0.2,1.3,0.1
			c0.4-0.2,0.7-0.5,0.8-0.9v-2.1l1.2,0l0,0l0,1.9c0,0.3,0.1,0.7,0.5,0.9c0.3,0.3,0.8,0.3,1.3,0.2c0.4-0.2,0.8-0.6,0.9-1v-6.1
			C14.5,15,14.6,14.5,14.3,14.1 M19.4,10c-0.2-0.4-0.7-0.7-1.1-0.7c-0.6-0.1-1.2,0.2-1.6,0.6c-0.2-0.2-0.4-0.4-0.7-0.5
			c-0.6-0.2-1.3-0.2-1.8,0.2c-0.5,0.4-0.7,1-0.5,1.5c0.4,1.4,1.6,2.8,3,3.6c0.7-0.5,1.4-1.2,1.9-1.8C19.1,12.1,20,11.1,19.4,10
			 M17.9,16c-0.1-0.2-0.3-0.5-0.6-0.6c-0.3-0.2-0.9-0.2-1.2,0c-0.4,0.2-0.7,0.6-0.7,1v4.6c0,0.5,0,0.9,0.4,1.1
			c0.3,0.3,0.8,0.4,1.3,0.3c0.5-0.1,1-0.5,1-1v-3.7C17.9,17.2,18.1,16.7,17.9,16 M21,19.3l-1.4,0c-0.2,0-0.4,0-0.6,0
			c-0.8,0.3-0.4,1.1-0.4,1.7c0.4,0.8,1.3,0.4,2.1,0.4c0.3,0,0.6-0.1,0.8-0.3c0.2-0.4,0.1-0.9,0.1-1.3C21.4,19.6,21.2,19.4,21,19.3
			 M24.3,14c-0.3-0.4-1.1-0.6-1.6-0.3c-0.4,0.2-0.8,0.6-0.7,1l0,6.1l0.1,0.9c0,0.4,0.5,0.8,0.9,0.8c0.8,0.1,1.7,0.1,2.5,0
			c0.4-0.1,0.7-0.3,0.9-0.6c0.2-0.4,0.1-1-0.2-1.4c-0.4-0.4-1-0.3-1.5-0.3c-0.1-1.8,0-3.6-0.1-5.5C24.5,14.4,24.4,14.2,24.3,14
			 M29.6,12.6c-0.2-0.3-0.6-0.6-1-0.7c-0.6-0.2-1.2,0-1.6,0.4c-0.4,0.4-0.6,1.1-0.3,1.6c0.2,0.5,0.8,0.9,1.4,0.9
			c0.6,0,1.1-0.3,1.4-0.7C29.8,13.7,29.8,13.1,29.6,12.6 M36,17.6l2.1,0c-0.1-0.2-0.4-0.4-0.6-0.5c-0.4-0.1-0.8,0-1.1,0.2
			C36.2,17.4,36,17.5,36,17.6 M40.6,17.1c-0.4-1.2-1.7-2.2-3.1-2.3c-1.6-0.1-3.1,0.6-3.8,1.8c-0.2,0.3-0.3,0.7-0.4,1
			c-0.2,0-0.3,0-0.4,0v-3.1l0.1-0.1h1.1c0.5-0.1,0.9-0.2,1.1-0.6c0.2-0.4,0.2-0.9-0.1-1.2c-0.5-0.7-1.5-0.4-2.3-0.5
			c-0.6,0.1-1.3-0.1-1.9,0.2c-0.4,0.2-0.7,0.6-0.7,1v4.3c-0.2,0.1-0.5,0-0.8,0.1c-0.1-0.7,0.2-1.5-0.3-2c-0.4-0.4-0.8-0.5-1.3-0.4
			c-0.4,0.1-0.8,0.5-0.9,0.9c0,1.7,0,3.5,0,5.2c0,0.4,0.2,0.8,0.6,1c0.4,0.2,0.9,0.2,1.3,0c0.9-0.4,0.6-1.4,0.7-2.3l0,0h0.8v0.2
			l0,5.7c0,0.4,0,0.8,0.4,1c0.3,0.3,0.8,0.4,1.2,0.3c0.5-0.1,0.9-0.5,1-1v-5.6l0-0.7h0.4c0.1,0.1,0.1,0.4,0.2,0.5
			c0.4,1.2,1.9,2.1,3.2,2.2c1-0.1,2.2,0.3,2.9-0.4c0.3-0.3,0.4-0.8,0.2-1.2c-0.2-0.4-0.6-0.7-1.1-0.7h-2.2c-0.2-0.1-0.4-0.3-0.4-0.4
			h1.8c0.9-0.1,1.9,0.3,2.5-0.4C40.7,18.8,40.9,17.9,40.6,17.1 M44.5,7.8c2.2,3.7,0.8,8.5-1.6,11.7c-4.2,7-11.3,13.8-18.9,18.4
			l-0.4-0.1C14.7,32.5,7.1,24.6,2.8,16.3C0.9,12.5,2,7.7,5.4,4.7c3.3-3,8.8-4,13.2-2.2c2,0.7,3.7,2.1,5.1,3.7l0.1-0.1
			c3.1-3.9,8.3-5.3,13.3-4.2C40.2,2.7,43.2,5.1,44.5,7.8"/>
		<path class="st1" d="M14.3,14.1c-0.3-0.4-0.9-0.6-1.4-0.5c-0.5,0.1-0.9,0.5-1,0.9l0,2.6l0,0.1l-1.2,0l0-1.4
			c-0.1-0.7,0.2-1.7-0.8-2c-0.4-0.2-0.8-0.2-1.2,0c-0.9,0.4-0.6,1.4-0.7,2.2v4.9c0,0.6,0,1.2,0.6,1.5c0.4,0.2,0.9,0.2,1.3,0.1
			c0.4-0.2,0.7-0.5,0.8-0.9v-2.1l1.2,0l0,0l0,1.9c0,0.3,0.1,0.7,0.5,0.9c0.3,0.3,0.8,0.3,1.3,0.2c0.4-0.2,0.8-0.6,0.9-1v-6.1
			C14.5,15,14.6,14.5,14.3,14.1z M19.4,10c-0.2-0.4-0.7-0.7-1.1-0.7c-0.6-0.1-1.2,0.2-1.6,0.6c-0.2-0.2-0.4-0.4-0.7-0.5
			c-0.6-0.2-1.3-0.2-1.8,0.2c-0.5,0.4-0.7,1-0.5,1.5c0.4,1.4,1.6,2.8,3,3.6c0.7-0.5,1.4-1.2,1.9-1.8C19.1,12.1,20,11.1,19.4,10z
			 M17.9,16c-0.1-0.2-0.3-0.5-0.6-0.6c-0.3-0.2-0.9-0.2-1.2,0c-0.4,0.2-0.7,0.6-0.7,1v4.6c0,0.5,0,0.9,0.4,1.1
			c0.3,0.3,0.8,0.4,1.3,0.3c0.5-0.1,1-0.5,1-1v-3.7C17.9,17.2,18.1,16.7,17.9,16z M21,19.3l-1.4,0c-0.2,0-0.4,0-0.6,0
			c-0.8,0.3-0.4,1.1-0.4,1.7c0.4,0.8,1.3,0.4,2.1,0.4c0.3,0,0.6-0.1,0.8-0.3c0.2-0.4,0.1-0.9,0.1-1.3C21.4,19.6,21.2,19.4,21,19.3z
			 M24.3,14c-0.3-0.4-1.1-0.6-1.6-0.3c-0.4,0.2-0.8,0.6-0.7,1l0,6.1l0.1,0.9c0,0.4,0.5,0.8,0.9,0.8c0.8,0.1,1.7,0.1,2.5,0
			c0.4-0.1,0.7-0.3,0.9-0.6c0.2-0.4,0.1-1-0.2-1.4c-0.4-0.4-1-0.3-1.5-0.3c-0.1-1.8,0-3.6-0.1-5.5C24.5,14.4,24.4,14.2,24.3,14z
			 M29.6,12.6c-0.2-0.3-0.6-0.6-1-0.7c-0.6-0.2-1.2,0-1.6,0.4c-0.4,0.4-0.6,1.1-0.3,1.6c0.2,0.5,0.8,0.9,1.4,0.9
			c0.6,0,1.1-0.3,1.4-0.7C29.8,13.7,29.8,13.1,29.6,12.6z M36,17.6l2.1,0c-0.1-0.2-0.4-0.4-0.6-0.5c-0.4-0.1-0.8,0-1.1,0.2
			C36.2,17.4,36,17.5,36,17.6z M40.6,17.1c-0.4-1.2-1.7-2.2-3.1-2.3c-1.6-0.1-3.1,0.6-3.8,1.8c-0.2,0.3-0.3,0.7-0.4,1
			c-0.2,0-0.3,0-0.4,0v-3.1l0.1-0.1h1.1c0.5-0.1,0.9-0.2,1.1-0.6c0.2-0.4,0.2-0.9-0.1-1.2c-0.5-0.7-1.5-0.4-2.3-0.5
			c-0.6,0.1-1.3-0.1-1.9,0.2c-0.4,0.2-0.7,0.6-0.7,1v4.3c-0.2,0.1-0.5,0-0.8,0.1c-0.1-0.7,0.2-1.5-0.3-2c-0.4-0.4-0.8-0.5-1.3-0.4
			c-0.4,0.1-0.8,0.5-0.9,0.9c0,1.7,0,3.5,0,5.2c0,0.4,0.2,0.8,0.6,1c0.4,0.2,0.9,0.2,1.3,0c0.9-0.4,0.6-1.4,0.7-2.3l0,0h0.8v0.2
			l0,5.7c0,0.4,0,0.8,0.4,1c0.3,0.3,0.8,0.4,1.2,0.3c0.5-0.1,0.9-0.5,1-1v-5.6l0-0.7h0.4c0.1,0.1,0.1,0.4,0.2,0.5
			c0.4,1.2,1.9,2.1,3.2,2.2c1-0.1,2.2,0.3,2.9-0.4c0.3-0.3,0.4-0.8,0.2-1.2c-0.2-0.4-0.6-0.7-1.1-0.7h-2.2c-0.2-0.1-0.4-0.3-0.4-0.4
			h1.8c0.9-0.1,1.9,0.3,2.5-0.4C40.7,18.8,40.9,17.9,40.6,17.1z M44.5,7.8c2.2,3.7,0.8,8.5-1.6,11.7c-4.2,7-11.3,13.8-18.9,18.4
			l-0.4-0.1C14.7,32.5,7.1,24.6,2.8,16.3C0.9,12.5,2,7.7,5.4,4.7c3.3-3,8.8-4,13.2-2.2c2,0.7,3.7,2.1,5.1,3.7l0.1-0.1
			c3.1-3.9,8.3-5.3,13.3-4.2C40.2,2.7,43.2,5.1,44.5,7.8z"/>
		<path class="st0" d="M45.4,6.7c2.2,3.4,2,8.5-0.3,11.7c-4.4,8.1-12.3,16.1-21.1,21h-0.3C14.4,34.1,6.3,25.7,1.6,17.1
			c-1.7-3.5-1.5-8.2,0.9-11.3c3.1-4.2,8.4-6,13.8-5.2c2.8,0.5,5.1,1.6,7.3,3.6c0.6-0.3,1.2-0.9,1.8-1.4c4-2.8,10.8-3.2,15.2-0.8
			C42.7,3.1,44.4,4.9,45.4,6.7"/>
		<path class="st2" d="M45.3,7c2.7,4.5,0.7,10.1-2.1,13.9c-4.4,7-11.3,13.7-19.1,18.2h-0.3C14.6,33.9,6.1,25.3,1.8,16.8
			c-2.2-4.2-0.9-9.3,2.6-12.5c3.4-3.3,8.6-4.1,13.3-3c2.2,0.6,4.2,1.7,5.8,3.4c0.1,0.1,0.2,0,0.3,0c3.6-3.9,9.7-4.8,14.7-3.2
			C41.4,2.3,43.9,4.6,45.3,7"/>
		<path class="st0" d="M14.3,14.1c-0.3-0.4-0.9-0.6-1.4-0.5c-0.5,0.1-0.9,0.5-1,0.9l0,2.6l0,0.1l-1.2,0l0-1.4
			c-0.1-0.7,0.2-1.7-0.8-2c-0.4-0.2-0.8-0.2-1.2,0c-0.9,0.4-0.6,1.4-0.7,2.2v4.9c0,0.6,0,1.2,0.6,1.5c0.4,0.2,0.9,0.2,1.3,0.1
			c0.4-0.2,0.7-0.5,0.8-0.9v-2.1l1.2,0l0,0l0,1.9c0,0.3,0.1,0.7,0.5,0.9c0.3,0.3,0.8,0.3,1.3,0.2c0.4-0.2,0.8-0.6,0.9-1v-6.1
			C14.5,15,14.6,14.5,14.3,14.1 M19.4,10c-0.2-0.4-0.7-0.7-1.1-0.7c-0.6-0.1-1.2,0.2-1.6,0.6c-0.2-0.2-0.4-0.4-0.7-0.5
			c-0.6-0.2-1.3-0.2-1.8,0.2c-0.5,0.4-0.7,1-0.5,1.5c0.4,1.4,1.6,2.8,3,3.6c0.7-0.5,1.4-1.2,1.9-1.8C19.1,12.1,20,11.1,19.4,10
			 M17.9,16c-0.1-0.2-0.3-0.5-0.6-0.6c-0.3-0.2-0.9-0.2-1.2,0c-0.4,0.2-0.7,0.6-0.7,1v4.6c0,0.5,0,0.9,0.4,1.1
			c0.3,0.3,0.8,0.4,1.3,0.3c0.5-0.1,1-0.5,1-1v-3.7C17.9,17.2,18.1,16.7,17.9,16 M21,19.3l-1.4,0c-0.2,0-0.4,0-0.6,0
			c-0.8,0.3-0.4,1.1-0.4,1.7c0.4,0.8,1.3,0.4,2.1,0.4c0.3,0,0.6-0.1,0.8-0.3c0.2-0.4,0.1-0.9,0.1-1.3C21.4,19.6,21.2,19.4,21,19.3
			 M24.3,14c-0.3-0.4-1.1-0.6-1.6-0.3c-0.4,0.2-0.8,0.6-0.7,1l0,6.1l0.1,0.9c0,0.4,0.5,0.8,0.9,0.8c0.8,0.1,1.7,0.1,2.5,0
			c0.4-0.1,0.7-0.3,0.9-0.6c0.2-0.4,0.1-1-0.2-1.4c-0.4-0.4-1-0.3-1.5-0.3c-0.1-1.8,0-3.6-0.1-5.5C24.5,14.4,24.4,14.2,24.3,14
			 M29.6,12.6c-0.2-0.3-0.6-0.6-1-0.7c-0.6-0.2-1.2,0-1.6,0.4c-0.4,0.4-0.6,1.1-0.3,1.6c0.2,0.5,0.8,0.9,1.4,0.9
			c0.6,0,1.1-0.3,1.4-0.7C29.8,13.7,29.8,13.1,29.6,12.6 M36,17.6l2.1,0c-0.1-0.2-0.4-0.4-0.6-0.5c-0.4-0.1-0.8,0-1.1,0.2
			C36.2,17.4,36,17.5,36,17.6 M40.6,17.1c-0.4-1.2-1.7-2.2-3.1-2.3c-1.6-0.1-3.1,0.6-3.8,1.8c-0.2,0.3-0.3,0.7-0.4,1
			c-0.2,0-0.3,0-0.4,0v-3.1l0.1-0.1h1.1c0.5-0.1,0.9-0.2,1.1-0.6c0.2-0.4,0.2-0.9-0.1-1.2c-0.5-0.7-1.5-0.4-2.3-0.5
			c-0.6,0.1-1.3-0.1-1.9,0.2c-0.4,0.2-0.7,0.6-0.7,1v4.3c-0.2,0.1-0.5,0-0.8,0.1c-0.1-0.7,0.2-1.5-0.3-2c-0.4-0.4-0.8-0.5-1.3-0.4
			c-0.4,0.1-0.8,0.5-0.9,0.9c0,1.7,0,3.5,0,5.2c0,0.4,0.2,0.8,0.6,1c0.4,0.2,0.9,0.2,1.3,0c0.9-0.4,0.6-1.4,0.7-2.3l0,0h0.8v0.2
			l0,5.7c0,0.4,0,0.8,0.4,1c0.3,0.3,0.8,0.4,1.2,0.3c0.5-0.1,0.9-0.5,1-1v-5.6l0-0.7h0.4c0.1,0.1,0.1,0.4,0.2,0.5
			c0.4,1.2,1.9,2.1,3.2,2.2c1-0.1,2.2,0.3,2.9-0.4c0.3-0.3,0.4-0.8,0.2-1.2c-0.2-0.4-0.6-0.7-1.1-0.7h-2.2c-0.2-0.1-0.4-0.3-0.4-0.4
			h1.8c0.9-0.1,1.9,0.3,2.5-0.4C40.7,18.8,40.9,17.9,40.6,17.1 M44.5,7.8c2.2,3.7,0.8,8.5-1.6,11.7c-4.2,7-11.3,13.8-18.9,18.4
			l-0.4-0.1C14.7,32.5,7.1,24.6,2.8,16.3C0.9,12.5,2,7.7,5.4,4.7c3.3-3,8.8-4,13.2-2.2c2,0.7,3.7,2.1,5.1,3.7l0.1-0.1
			c3.1-3.9,8.3-5.3,13.3-4.2C40.2,2.7,43.2,5.1,44.5,7.8"/>
	</g>
</g>
</svg>
