<?xml version="1.0" encoding="utf-8"?>
<!-- Generator: Adobe Illustrator 25.3.1, SVG Export Plug-In . SVG Version: 6.00 Build 0)  -->
<svg version="1.1"
	 id="svg2" xmlns:cc="http://creativecommons.org/ns#" xmlns:dc="http://purl.org/dc/elements/1.1/" xmlns:inkscape="http://www.inkscape.org/namespaces/inkscape" xmlns:rdf="http://www.w3.org/1999/02/22-rdf-syntax-ns#" xmlns:sodipodi="http://sodipodi.sourceforge.net/DTD/sodipodi-0.dtd" xmlns:svg="http://www.w3.org/2000/svg"
	 xmlns="http://www.w3.org/2000/svg" xmlns:xlink="http://www.w3.org/1999/xlink" x="0px" y="0px" viewBox="0 0 40 38.9"
	 style="enable-background:new 0 0 40 38.9;" xml:space="preserve">
<style type="text/css">
	.st0{fill:#FFFFFF;}
	.st1{fill:#009944;}
	.st2{fill:#F5821F;}
	.st3{fill:#ED1B2D;}
</style>
<g id="g2862" transform="translate(-14.3907,-17.5756)">
	<polygon id="polygon10" class="st0" points="15.1,18.4 53.7,18.4 53.7,55.8 15.1,55.8 	"/>
	<polygon id="polygon12" class="st1" points="14.9,18.1 53.9,18.1 53.9,56 14.9,56 	"/>
	<path id="path14" inkscape:connector-curvature="0" class="st0" d="M39,53.5V55h-9.4v-1.5h-7.1c-0.7,0-1.3-0.7-1.3-1.6l-3-30
		c0-0.9,0.7-1.6,1.5-1.6h28.6c0.8,0,1.5,0.7,1.5,1.6l-2.9,30c0,0.9-0.6,1.6-1.3,1.6L39,53.5L39,53.5z"/>
	<path id="path16" inkscape:connector-curvature="0" class="st2" d="M23.5,24.7h19.1c-1.9,0.7-7.6,4.6-9.1,7.2H23.5L23.5,24.7
		L23.5,24.7z"/>
	<path id="path18" inkscape:connector-curvature="0" class="st3" d="M38.8,45.3c-0.3,2.6-0.3,5.8-0.3,9.1h-8.3
		c0-3.3,0.1-6.5,0.4-9.1H38.8L38.8,45.3z"/>
	<polygon id="polygon20" class="st1" points="25.9,41.6 25.9,42.6 24.6,42.6 24.6,43.6 25.9,43.6 25.9,44.7 22.9,44.7 22.9,39.3 
		25.9,39.3 25.9,40.5 24.6,40.5 24.6,41.6 	"/>
	<polygon id="polygon22" class="st1" points="33,41.6 33,42.6 31.7,42.6 31.7,43.6 33,43.6 33,44.7 30,44.7 30,39.3 33,39.3 
		33,40.5 31.7,40.5 31.7,41.6 	"/>
	<polygon id="polygon24" class="st1" points="40.8,41.6 40.8,42.6 39.4,42.6 39.4,43.6 40.8,43.6 40.8,44.7 37.7,44.7 37.7,39.3 
		40.8,39.3 40.8,40.5 39.4,40.5 39.4,41.6 	"/>
	<polygon id="polygon26" class="st1" points="28.2,39.3 28.2,43.6 29.5,43.6 29.5,44.7 26.5,44.7 26.5,39.3 	"/>
	<polygon id="polygon28" class="st1" points="35.4,43 34.8,39.3 33.3,39.3 34.1,44.7 36.3,44.7 37.4,39.3 36.1,39.3 	"/>
	<polygon id="polygon30" class="st1" points="41.5,39.3 43.1,39.3 43.1,44.7 41.5,44.7 	"/>
	<path id="path32" inkscape:connector-curvature="0" class="st1" d="M43.1,40.9c0.1-0.6,0.9-0.4,0.9-0.1v3.9h1.6v-4.6
		c0-1-1.4-1.4-2.6-0.5L43.1,40.9L43.1,40.9z"/>
	<path id="path34" inkscape:connector-curvature="0" class="st3" d="M39.5,38.6c0.2-2.1,3-5.4,5.7-6.3v-8
		c-7.5,3.4-12.4,8.5-13.5,14.3L39.5,38.6L39.5,38.6z"/>
</g>
</svg>
