<?xml version="1.0" encoding="utf-8"?>
<!-- Generator: Adobe Illustrator 25.3.1, SVG Export Plug-In . SVG Version: 6.00 Build 0)  -->
<svg version="1.1" xmlns="http://www.w3.org/2000/svg" xmlns:xlink="http://www.w3.org/1999/xlink" x="0px" y="0px"
	 viewBox="0 0 40 40.3" style="enable-background:new 0 0 40 40.3;" xml:space="preserve">
<style type="text/css">
	.st0{fill:#FFFFFF;}
	.st1{fill:#FF0000;}
</style>
<g id="圖層_2">
</g>
<g id="圖層_3">
	<path class="st0" d="M33.2,39.6H6.8c-3.5,0-6.3-2.8-6.3-6.3V6.9c0-3.5,2.8-6.3,6.3-6.3h28.8c2.2,0,3.9,1.8,3.9,3.9v28.8
		C39.5,36.8,36.7,39.6,33.2,39.6z"/>
</g>
<g id="svg2" inkscape:output_extension="org.inkscape.output.svg.inkscape" xmlns:cc="http://web.resource.org/cc/" xmlns:dc="http://purl.org/dc/elements/1.1/" xmlns:inkscape="http://www.inkscape.org/namespaces/inkscape" xmlns:rdf="http://www.w3.org/1999/02/22-rdf-syntax-ns#" xmlns:sodipodi="http://sodipodi.sourceforge.net/DTD/sodipodi-0.dtd" xmlns:svg="http://www.w3.org/2000/svg">
	<g>
		
			<sodipodi:namedview  bordercolor="#666666" borderopacity="1.0" gridtolerance="10.0" guidetolerance="10.0" height="271px" id="base" inkscape:current-layer="svg2" inkscape:cx="215.25686" inkscape:cy="140.49798" inkscape:pageopacity="0.0" inkscape:pageshadow="2" inkscape:window-height="808" inkscape:window-width="1152" inkscape:window-x="-4" inkscape:window-y="-4" inkscape:zoom="1.5738997" objecttolerance="10.0" pagecolor="#ffffff" width="269px">
			</sodipodi:namedview>
		<g id="g4" transform="translate(-0.899414,64.72458)">
			<path id="path6" class="st1" d="M16.5-52.9c-2.3-1.5-4.7-1.9-7.4-1.2c-2.6,0.6-4.7,2.1-6.1,4.3c-1.4,2.3-1.9,4.8-1.2,7.4
				c0.6,2.6,2.1,4.7,4.3,6.1c2.3,1.4,4.8,1.8,7.4,1.2c2.6-0.6,4.6-2,6.1-4.4c1.4-2.3,1.8-4.7,1.2-7.4C20.3-49.4,18.9-51.5,16.5-52.9
				z M10.3-49.2c1.2-0.3,2.4-0.1,3.5,0.6C15-48,15.7-47,16-45.7c0.3,1.3,0.1,2.5-0.6,3.6c-0.7,1.1-1.6,1.8-2.9,2.1
				c-1.3,0.3-2.5,0.1-3.6-0.6c-1.1-0.8-1.8-1.7-2.1-2.9c-0.3-1.3-0.1-2.4,0.6-3.6C8.1-48.3,9.1-48.9,10.3-49.2z"/>
		</g>
		<g id="g8" transform="translate(128.89807,31.68748)">
			<path id="path10" class="st1" d="M-105-23.9c-0.8-0.4-1.5-0.5-2.2-0.3c-0.8,0.2-1.4,0.6-1.8,1.3c-0.5,0.7-0.6,1.5-0.3,2.3l3,13.1
				c0.2,0.9,0.7,1.6,1.5,2.1c0.7,0.4,1.4,0.5,2.2,0.3c0.9-0.2,1.5-0.7,1.9-1.4c0.4-0.7,0.5-1.5,0.3-2.3l-0.9-3.8l0.8-0.9l6,5.2
				c0.8,0.7,1.7,1,2.7,0.7c0.7-0.2,1.3-0.6,1.8-1.2c0.6-0.8,0.7-1.6,0.5-2.5c-0.1-0.6-0.4-1.2-1-1.7l-6-5.2l2.6-3.1
				c0.7-0.8,0.9-1.7,0.7-2.7c-0.2-0.8-0.6-1.5-1.4-2c-0.8-0.5-1.5-0.6-2.2-0.4c-0.6,0.1-1.1,0.4-1.6,1l-4.4,5.3l-0.4-1.8
				C-103.8-22.8-104.3-23.5-105-23.9z"/>
		</g>
		<g id="g12">
			<path id="path14" class="st1" d="M39.5,4.4c0-1-0.4-1.9-1.2-2.7c-0.8-0.8-1.8-1.2-2.8-1.2H4.5c-1.1,0-2.1,0.4-2.8,1.1
				C0.9,2.4,0.5,3.3,0.5,4.4v6.2c0,0.4,0.2,0.6,0.7,0.6c0.4,0,1-0.3,1.8-0.9c3.7-2.6,8.2-4.6,13.8-5.9c7.8-1.8,14.6-1.7,20.4,0.3
				l1.2,0.6c0.3,0.1,0.5,0.1,0.6,0C39.4,5.3,39.5,4.9,39.5,4.4z"/>
		</g>
		<g id="g16" transform="translate(0,167.03368)">
			<path id="path18" class="st1" d="M1.2-136.8c-0.5,0-0.7,0.2-0.7,0.7v5c0,1.1,0.4,2,1.2,2.7c0.8,0.8,1.7,1.2,2.8,1.2h30.9
				c1.1,0,2.1-0.4,2.9-1.2c0.8-0.8,1.2-1.7,1.2-2.7v-10.4c0-0.5-0.2-0.7-0.7-0.7l-0.6,0.3l-0.7,0.5c-3.9,2.7-8.5,4.7-13.7,5.9
				c-4.1,1-8.1,1.4-11.9,1.2c-3.6-0.1-6.7-0.8-9.2-1.9C1.7-136.5,1.2-136.8,1.2-136.8z"/>
		</g>
	</g>
</g>
</svg>
