<?xml version="1.0" encoding="utf-8"?>
<!-- Generator: Adobe Illustrator 25.4.1, SVG Export Plug-In . SVG Version: 6.00 Build 0)  -->
<svg version="1.1" id="圖層_1" xmlns="http://www.w3.org/2000/svg" xmlns:xlink="http://www.w3.org/1999/xlink" x="0px" y="0px"
	 viewBox="0 0 40 40" style="enable-background:new 0 0 40 40;" xml:space="preserve">
<style type="text/css">
	.st0{fill:#089E9E;}
	.st1{fill:#2D2D2D;}
	.st2{fill:#EFBB14;}
	.st3{fill:#FFFFFF;}
	.st4{fill:#606060;}
	.st5{fill:none;}
	.st6{fill:#FFFFFF;stroke:#FFFFFF;stroke-width:0.75;stroke-miterlimit:2.1558;}
</style>
<path class="st0" d="M34.5,39.5h-29c-2.8,0-5-2.2-5-5v-29c0-2.8,2.2-5,5-5h29c2.8,0,5,2.2,5,5v29C39.5,37.3,37.3,39.5,34.5,39.5z"/>
<g>
	<ellipse class="st1" cx="30.7" cy="33.6" rx="2.8" ry="3.3"/>
	<ellipse class="st1" cx="6.5" cy="33.6" rx="2.8" ry="3.3"/>
	<path class="st2" d="M2,29.8c0,0.6,0,1.2,0.1,1.9c0,0.3,0,0.6,0,1c0,0.2-0.1,0.4,0.1,0.5c0.1,0,0.2,0.1,0.3,0l0.3,0
		c0.1,0,0.2,0,0.3,0c0.2-0.1,0.3-0.7,0.4-1c0.1-0.2,0.2-0.3,0.3-0.4c-0.5,1.4-0.5,2.7,0.2,3.9c0.5,0.9,1.3,1.4,2.1,1.5
		c0.9,0.2,1.7-0.2,2.3-0.9c0.7-0.7,1-1.6,1.1-2.7c0.1,0.2,0.2,0.3,0.2,0.5c0,0.1,0.1,0.3,0.2,0.3h14.8c0.7,0,1.5,0,2.2,0.1
		c0.1,0,0.3,0,0.4,0c0.1-0.1,0.1-0.3,0.1-0.4c0,0,0.1,0,0.1-0.1c0.4,2.2,1.5,3.5,3.4,3.3c1.6-0.2,2.5-1.5,2.7-3.5
		c1.1,0.3,2.3,0.1,3.4,0.1c0.2,0,0.3,0,0.5,0c0.1,0,0.1-0.1,0.1-0.1c0.1-0.1,0.1-0.2,0.1-0.3c0.2-1,0.2-1.9,0.2-2.9
		c0-1.3,0-2.6,0-3.9c0-0.5-0.1-0.9-0.1-1.4c0-0.1,0-0.2,0-0.3c0-0.1-0.1-0.1-0.1-0.1c-0.2-0.2-0.4-0.1-0.6-0.1c-0.3,0-0.6,0-0.8,0
		h-1.7c-2.1,0-4.2,0-6.3,0h-3.1h-1.6c-0.5,0-1-0.1-1.5,0c-0.1,0-0.1,0-0.2,0.1c0,0.1,0,0.2,0,0.3l0,1.7c-0.1,0-0.1-0.1-0.2-0.1
		c-0.1-0.1-0.1-0.1-0.1-0.2c0-0.2,0-0.4,0-0.6c0-0.2,0-0.4,0-0.6c0-0.4,0-0.8,0-1.2c0-1.2,0-2.5-0.1-3.7c-0.1-1-0.6-1.8-1.7-1.9
		c-1.3,0-2.7,0.1-4,0.5c-0.9,0.3-1.5,0.9-1.8,2c-0.2,0.8-0.5,1.6-0.7,2.4c-0.1,0.4-0.3,0.5-0.6,0.5h-0.4c-2,0-4.1,0-6.1,0
		c-0.8,0-1.6-0.1-2.4,0.3c-0.3,0.2-0.5,0.4-0.6,0.9c0,0.5-0.1,1-0.2,1.5c0,0.3,0,0.3,0.3,0.3c0.7-0.2,1.4-0.3,2-0.4
		c0.8-0.1,1.7-0.1,2.5,0c1.3,0.1,2.5,0.3,3.7,0.9c0.7,0.3,1.2,0.8,1.4,1.6c0,0.1,0,0.1,0,0.2c0,0,0,0.1,0,0.1c0-0.1-0.1-0.1-0.1-0.2
		c-0.5-1.3-1.5-1.6-2.5-1.8c-0.6-0.2-1.2-0.3-1.7-0.4c-0.8-0.1-1.7-0.1-2.5-0.1c-0.5,0-1.1,0.1-1.6,0.1C4,26.9,3.5,27,3.1,27.1
		c-0.4,0.1-0.8,0.2-0.9,0.7C2,28.5,2,29.1,2,29.8z M19,23.6c-0.5,0.1-1,0.1-1.4,0.1c-0.8,0-1.5,0-2.3,0c-0.5,0-0.8-0.3-0.9-0.9
		c0-0.2,0.1-0.5,0.1-0.7c0.2-0.6,0.2-1.3,0.8-1.6c0.4-0.2,0.8-0.3,1.2-0.3c0.7-0.1,1.4-0.1,2.1-0.2c0.6,0,1,0.3,1,1c0,0.5,0,1,0,1.4
		C19.6,23.2,19.5,23.5,19,23.6z M27.9,33.6c0-1.7,1.3-3.2,2.6-3.2c1.6,0,2.8,1.5,2.8,3.3c0,1.8-1.2,3.3-2.8,3.3
		C29.1,36.8,27.9,35.4,27.9,33.6z M27.8,32.1c-0.1-0.7,0.2-1.2,0.6-1.7c1-1.1,2.1-1.1,3.3-0.6c0.4,0.2,0.8,0.5,1,1
		C31.9,30.1,31,29.8,30,30C29,30.2,28.3,31,27.8,32.1L27.8,32.1z M29,27.3c-1.1,0.5-1.9,1.3-2.3,2.5c-0.2,0.7-0.4,1.5-0.5,2.2
		c-0.1,0.5-0.2,1.1,0.3,1.6l0.4,0.4l0,0.1c-0.1,0-0.2,0-0.3-0.1c-0.4-0.2-0.6-0.7-0.6-1.2c0-0.5,0.1-1,0.1-1.5
		c0.1-0.9,0.3-1.8,0.7-2.5c0.8-1.4,2-2.1,3.4-2.2s2.6,0.3,3.8,1.1c0.6,0.4,1.1,0.9,1.6,1.6c-0.1,0-0.1,0-0.2-0.1
		c-0.6-0.4-1.1-0.9-1.7-1.3C32.2,26.9,30.7,26.6,29,27.3L29,27.3z M9.2,31.9c-1.1-2.1-2.7-2.4-4.5-1.5c0.6-0.8,1.4-1,2.2-0.8
		C8,29.9,8.9,30.5,9.2,31.9z M3.8,33.6c0-1.8,1.2-3.2,2.7-3.2c1.5,0,2.7,1.5,2.7,3.3c0,1.8-1.2,3.2-2.7,3.3
		C4.9,36.9,3.8,35.4,3.8,33.6z"/>
	<path class="st3" d="M8.1,33.6c0-1.3-0.7-2-1.7-2c-1,0-1.7,0.8-1.7,2c0,1.2,0.7,2.2,1.7,2.1C7.4,35.7,8.2,34.7,8.1,33.6z"/>
	<path class="st3" d="M28.4,30.5c1-1.1,2.1-1.1,3.3-0.6c0.4,0.2,0.8,0.5,1,1C31.9,30.1,31,29.8,30,30c-1,0.2-1.7,1-2.2,2.1
		C27.7,31.4,28,30.9,28.4,30.5z"/>
	<path class="st4" d="M4.7,33.5c0-1.2,0.7-2,1.7-2c1,0,1.7,0.8,1.7,2c0,1.2-0.8,2.1-1.7,2.1C5.4,35.7,4.7,34.7,4.7,33.5z M5.3,33.6
		C5.2,34.3,5.9,35,6.4,35c0.6,0,1.2-0.6,1.2-1.4c0-0.7-0.5-1.3-1.1-1.3C5.8,32.2,5.3,32.8,5.3,33.6L5.3,33.6z"/>
	<path class="st4" d="M28.9,33.7c0-1.2,0.7-2.2,1.8-2.2c1,0.1,1.6,0.8,1.7,2c0,1.2-0.7,2.1-1.7,2.1C29.6,35.7,28.9,34.6,28.9,33.7z
		 M30.2,32.3c-0.4,0.2-0.7,0.7-0.7,1.3c0,0.7,0.6,1.4,1.1,1.4c0.8,0,1.1-0.7,1.2-1.4c0-0.4-0.2-0.7-0.4-0.9
		c-0.2-0.3-0.5-0.4-0.8-0.4C30.5,32.2,30.3,32.3,30.2,32.3z"/>
	<path class="st1" d="M6.4,32.2c0.6,0,1.1,0.6,1.1,1.3C7.6,34.3,7,35,6.4,35c-0.5,0-1.2-0.7-1.1-1.4C5.3,32.8,5.8,32.2,6.4,32.2z
		 M6.4,34.6c0.5,0,0.9-0.4,0.9-1c0-0.6-0.4-1-0.9-1c0,0,0,0,0,0c-0.5,0-0.8,0.5-0.8,1C5.6,34.2,5.9,34.6,6.4,34.6L6.4,34.6z"/>
	<path class="st1" d="M5.6,33.6C5.6,33.6,5.6,33.5,5.6,33.6c0-0.6,0.4-1,0.9-1c0.5,0,0.9,0.4,0.9,1c0,0.6-0.4,1-0.9,1
		C5.9,34.6,5.6,34.2,5.6,33.6z"/>
	<path class="st4" d="M30.6,32.5c0.5,0,1,0.5,1,1c0,0.5-0.5,1.1-0.9,1.1c-0.4,0-0.8-0.5-0.9-1.1C29.8,33,30.1,32.5,30.6,32.5z
		 M30,33.6c0,0.4,0.3,0.9,0.7,0.9c0.3,0,0.7-0.4,0.7-0.8c0-0.7-0.3-0.9-0.7-0.9C30.2,32.8,30,33.1,30,33.6L30,33.6z"/>
	<path class="st5" d="M22.7,17.4L22.7,17.4"/>
	<ellipse class="st3" cx="29.9" cy="25.5" rx="7.6" ry="0.2"/>
	<ellipse class="st3" cx="17.6" cy="25.5" rx="3.5" ry="0.2"/>
	<ellipse class="st3" cx="15.1" cy="27.3" rx="0.1" ry="0.7"/>
	<path class="st3" d="M4.3,24.3c0.3,0.1,0.1,1.4,0.1,1.4l-0.8,0c0,0-0.1,0-0.1,0c0,0,0-0.1,0-0.1c0-0.3,0-0.6,0.2-0.9
		C3.8,24.4,4.1,24.2,4.3,24.3z"/>
	<ellipse class="st3" cx="17.7" cy="32.9" rx="7.6" ry="0.2"/>
	<path class="st3" d="M21.9,27.2v5.3c0,0,0,0,0,0h-0.2c0,0,0,0,0,0v-5.3c0,0,0,0,0,0L21.9,27.2C21.9,27.1,21.9,27.1,21.9,27.2z"/>
	<path class="st3" d="M14,27v5.3c0,0,0,0,0,0h-0.2c0,0,0,0,0,0V27c0,0,0,0,0,0L14,27C14,27,14,27,14,27z"/>
	<path class="st4" d="M6.4,32.5c0.5,0,1,0.5,1,1c0,0.5-0.5,1.1-0.9,1.1c-0.4,0-0.8-0.5-0.9-1.1C5.5,33,5.9,32.5,6.4,32.5z M5.7,33.6
		c0,0.4,0.3,0.9,0.7,0.9c0.3,0,0.7-0.4,0.7-0.8c0-0.7-0.3-0.9-0.7-0.9C6,32.8,5.7,33.1,5.7,33.6L5.7,33.6z"/>
</g>
<g>
	<path class="st6" d="M17.2,20.4h-1.5v-0.8H7.3v0.8H5.9V8.2h3.8c0.3-0.5,0.6-1.1,0.8-1.8l1.5,0.3c-0.2,0.6-0.4,1.1-0.7,1.5h5.8V20.4
		z M15.7,11.5V9.6H7.3v1.9H15.7z M15.7,14.8v-2H7.3v2H15.7z M15.7,18.3v-2.1H7.3v2.1H15.7z"/>
	<path class="st6" d="M34.5,19.6l-1,1c-1.2-1-2.1-1.9-2.7-2.8c-0.7,0.9-1.6,1.8-2.8,2.8l-1-1c1.3-1,2.3-2,3-3
		c-1.1-1.8-1.8-4.3-2.1-7.3h-0.3v-1h-0.8v12.2h-1.4v-2.6c-1.5,0.5-3,0.9-4.6,1.2l-0.5-1.4c0.4,0,0.8-0.1,1.2-0.2V8.3h-1V6.9h7.3v1h6
		c-0.2,3.9-0.9,6.8-2.2,8.7C32.3,17.6,33.3,18.5,34.5,19.6z M25.4,10.2V8.3H23v1.9H25.4z M25.4,13.5v-1.9H23v1.9H25.4z M25.4,16.4
		v-1.6H23v2.3C23.9,16.9,24.7,16.6,25.4,16.4z M32.4,9.3h-3c0.2,2.4,0.8,4.4,1.6,5.9C31.7,13.7,32.1,11.7,32.4,9.3z"/>
</g>
</svg>
