<?xml version="1.0" encoding="utf-8"?>
<!-- Generator: Adobe Illustrator 25.2.1, SVG Export Plug-In . SVG Version: 6.00 Build 0)  -->
<svg version="1.1" id="圖層1" xmlns="http://www.w3.org/2000/svg" xmlns:xlink="http://www.w3.org/1999/xlink" x="0px" y="0px"
	 viewBox="0 0 1326 834" style="enable-background:new 0 0 1326 834;" xml:space="preserve">
<style type="text/css">
	.st0{fill:#C07AB8;}
	.st1{fill:#FFFFFF;}
	.st2{font-family:'Roboto-Bold';}
	.st3{font-size:23.1px;}
	.st4{font-size:26.73px;}
	.st5{font-size:22px;}
</style>
<g id="_x31_6">
	<circle class="st0" cx="575.9" cy="624.3" r="15.2"/>
	<text id="_x31_6_1_" transform="matrix(0.9091 0 0 1 563.7695 633.2803)" class="st1 st2 st3">16</text>
</g>
<g>
	<circle class="st0" cx="109.3" cy="411.7" r="15.2"/>
	<text transform="matrix(0.9091 0 0 1 102.2998 422.0508)" class="st1 st2 st4">1</text>
</g>
<g id="_x32_1_1_">
	<circle class="st0" cx="1052.4" cy="443.8" r="15.2"/>
	<text id="_x32_1" transform="matrix(0.9091 0 0 1 1040.2002 452.7402)" class="st1 st2 st3">21</text>
</g>
<g id="_x31_0">
	<circle class="st0" cx="309.2" cy="404" r="15.2"/>
	<text id="_x31_0_1_" transform="matrix(0.9091 0 0 1 296.7803 413)" class="st1 st2 st3">10</text>
</g>
<g id="_x31_1">
	
		<ellipse transform="matrix(0.1602 -0.9871 0.9871 0.1602 -340.2639 715.1786)" class="st0" cx="250.2" cy="557.6" rx="15.2" ry="15.2"/>
	<text id="_x31_1_1_" transform="matrix(0.9091 0 0 1 238.3799 566.1006)" class="st1 st2 st5">11</text>
</g>
<g id="_x31_2">
	<circle class="st0" cx="340.6" cy="557.5" r="15.2"/>
	<text id="_x31_2_1_" transform="matrix(0.9091 0 0 1 328.1602 566.5303)" class="st1 st2 st3">12</text>
</g>
<g id="_x31_3">
	<circle class="st0" cx="285.3" cy="726.8" r="15.2"/>
	<text id="_x31_3_1_" transform="matrix(0.9091 0 0 1 272.8901 735.75)" class="st1 st2 st3">13</text>
</g>
<g id="_x31_4">
	<circle class="st0" cx="473.7" cy="624.3" r="15.2"/>
	<text id="_x31_4_1_" transform="matrix(0.9091 0 0 1 461.2598 633.2803)" class="st1 st2 st3">14</text>
</g>
<g id="_x31_5">
	<circle class="st0" cx="523" cy="624.3" r="15.2"/>
	<text id="_x31_5_1_" transform="matrix(0.9091 0 0 1 510.5898 633.2803)" class="st1 st2 st3">15</text>
</g>
<g id="_x32_0">
	<circle class="st0" cx="965.1" cy="444.9" r="15.2"/>
	<text id="_x32_0_1_" transform="matrix(0.9091 0 0 1 952.9697 453.7402)" class="st1 st2 st3">20</text>
</g>
<g id="_x32_3">
	<circle class="st0" cx="1163.8" cy="434.3" r="15.2"/>
	<text id="_x32_3_1_" transform="matrix(0.9091 0 0 1 1151.6299 443.0605)" class="st1 st2 st3">23</text>
</g>
<g id="_x32_2">
	<circle class="st0" cx="1091.7" cy="434.3" r="15.2"/>
	<text id="_x32_2_1_" transform="matrix(0.9091 0 0 1 1079.4902 443.0605)" class="st1 st2 st3">22</text>
</g>
<g id="_x32_4">
	<circle class="st0" cx="1196.2" cy="265.5" r="15.2"/>
	<text id="_x32_4_1_" transform="matrix(0.9091 0 0 1 1184.0098 274.2803)" class="st1 st2 st3">24</text>
</g>
<g id="_x32_6">
	<circle class="st0" cx="735.5" cy="230.2" r="15.2"/>
	<text id="_x32_6_1_" transform="matrix(0.9091 0 0 1 723.3896 238.9902)" class="st1 st2 st3">26</text>
</g>
<g id="_x32_5">
	<circle class="st0" cx="754.7" cy="370.3" r="15.2"/>
	<text id="_x32_5_1_" transform="matrix(0.9091 0 0 1 742.5801 379.0605)" class="st1 st2 st3">25</text>
</g>
<g id="_x38_">
	<circle class="st0" cx="177" cy="628.2" r="15.2"/>
	<text id="_x38__1_" transform="matrix(0.9091 0 0 1 169.7998 638.4199)" class="st1 st2 st4">8</text>
</g>
<g id="_x37_">
	<circle class="st0" cx="177" cy="544.4" r="15.2"/>
	<text id="_x37__1_" transform="matrix(0.9091 0 0 1 169.7998 554.5801)" class="st1 st2 st4">7</text>
</g>
<g id="_x36_">
	<circle class="st0" cx="177" cy="458.9" r="15.2"/>
	<text id="_x36__1_" transform="matrix(0.9091 0 0 1 169.7998 469.3398)" class="st1 st2 st4">6</text>
</g>
<g id="_x35_">
	<circle class="st0" cx="109.3" cy="720.8" r="15.2"/>
	<text id="_x35__1_" transform="matrix(0.9091 0 0 1 102.0498 731.1904)" class="st1 st2 st4">5</text>
</g>
<g id="_x34_">
	<circle class="st0" cx="109.3" cy="637.6" r="15.2"/>
	<text id="_x34__1_" transform="matrix(0.9091 0 0 1 102.0498 648.0303)" class="st1 st2 st4">4</text>
</g>
<g id="_x33_">
	<circle class="st0" cx="109.3" cy="551.1" r="15.2"/>
	<text id="_x33__1_" transform="matrix(0.9091 0 0 1 102.0498 561.4609)" class="st1 st2 st4">3</text>
</g>
<g id="_x32_">
	<circle class="st0" cx="109.3" cy="481.4" r="15.2"/>
	<text id="_x32__1_" transform="matrix(0.9091 0 0 1 102.0498 491.75)" class="st1 st2 st4">2</text>
</g>
<g id="_x39_">
	<circle class="st0" cx="176.8" cy="711.8" r="15.2"/>
	<text id="_x39__1_" transform="matrix(0.9091 0 0 1 169.54 721.9805)" class="st1 st2 st4">9</text>
</g>
<g id="_x31_9">
	<circle class="st0" cx="738.5" cy="624.3" r="15.2"/>
	<text id="_x31_9_1_" transform="matrix(0.9091 0 0 1 726.1299 633.2803)" class="st1 st2 st3">19</text>
</g>
<g id="_x31_8">
	<circle class="st0" cx="683" cy="624.3" r="15.2"/>
	<text id="_x31_8_1_" transform="matrix(0.9091 0 0 1 670.5801 633.2803)" class="st1 st2 st3">18</text>
</g>
<g id="_x31_7">
	<circle class="st0" cx="628.3" cy="624.3" r="15.2"/>
	<text id="_x31_7_1_" transform="matrix(0.9091 0 0 1 615.8896 633.2803)" class="st1 st2 st3">17</text>
</g>
</svg>
