<svg xmlns="http://www.w3.org/2000/svg" viewBox="0 0 49.53 55"><defs><style>.cls-1{opacity:0.8;}.cls-2{fill:#f5f9f2;}.cls-3{fill:#98d3d2;}.cls-4{fill:#4d3729;}.cls-5{fill:#faaf1e;}.cls-6{fill:#f395a0;}.cls-7{fill:#ffc947;}.cls-8{fill:#221e1f;}</style></defs><g id="圖層_15" data-name="圖層 15"><g class="cls-1"><path class="cls-2" d="M25.25,23.84c-4.81-1.48-9.42-10.18-7.49-15.24s7.12-7.27,12.06-5.14c6.38,2.53,3,13.49.85,18Z" transform="translate(-5.31 -2.65)"/></g></g><g id="圖層_14" data-name="圖層 14"><path class="cls-3" d="M28.63,24.06s-.08-.18-.2-.5-.3-.77-.49-1.33l-.3-.89c-.09-.32-.17-.67-.25-1-.17-.72-.33-1.49-.49-2.26-.23-1.54-.45-3.09-.52-4.26-.05-.58-.06-1.07-.08-1.41s0-.54,0-.54.06.19.14.52.19.81.3,1.38.25,1.25.39,2,.26,1.48.39,2.25.29,1.52.4,2.23c.06.36.12.71.17,1s.14.63.2.92c.13.57.21,1.05.27,1.39S28.63,24.06,28.63,24.06Z" transform="translate(-5.31 -2.65)"/></g><g id="圖層_13" data-name="圖層 13"><g class="cls-1"><path class="cls-2" d="M23.9,27.7C22,29,15.66,27.16,14.11,26,10.72,23.43,9.93,16.41,12,12.85c2.71-4.44,8-5.35,11-1.43,1.63,2.12,3.26,4.14,4,6.76.63,2.22,1.77,5.24.65,7.46Z" transform="translate(-5.31 -2.65)"/></g></g><g id="圖層_12" data-name="圖層 12"><path class="cls-3" d="M16.5,19.93l.53.21c.32.14.8.33,1.36.58,1.12.5,2.59,1.21,4,2s2.86,1.57,3.91,2.21c.53.32,1,.6,1.26.8l.47.31-.52-.21c-.33-.14-.81-.33-1.36-.59-1.12-.5-2.59-1.22-4-2s-2.87-1.57-3.92-2.2c-.53-.32-.95-.6-1.26-.79Z" transform="translate(-5.31 -2.65)"/></g><g id="圖層_11" data-name="圖層 11"><path class="cls-4" d="M16.3,45c-3.46,3.7-6.45,7.81-11,12.63h0c1.71-1.7,11.2-8.34,13.76-10Z" transform="translate(-5.31 -2.65)"/></g><g id="圖層_10" data-name="圖層 10"><path class="cls-4" d="M14.26,35.24l-.1.24a16.27,16.27,0,0,0-.53,8.13A9.69,9.69,0,0,0,15,47.12c2.33,3.74,6.28,5.07,10.32,4.56C18.91,48.59,14.41,42.15,14.26,35.24Z" transform="translate(-5.31 -2.65)"/><path class="cls-5" d="M17.48,29.85a21.58,21.58,0,0,0-3.22,5.39c.15,6.91,4.65,13.35,11,16.44a14.83,14.83,0,0,0,2.51-.55,28.35,28.35,0,0,0,2.69-1C22.49,47.68,17.39,38.33,17.48,29.85Z" transform="translate(-5.31 -2.65)"/><path class="cls-4" d="M30.59,34.24c-2.52-7.44-1.59-10.7-.47-14.68q-1.92,1.26-3.79,2.58c-.12,1.66-.3,3.81-.39,6.25-.31,8.38,5.13,15,12.22,17.85a53.69,53.69,0,0,0,5.69-3.58C38,42.23,32.48,39.82,30.59,34.24Z" transform="translate(-5.31 -2.65)"/><path class="cls-4" d="M24,40a31.76,31.76,0,0,1-3.4-13.42,29.63,29.63,0,0,0-3.13,3.31c-.09,8.48,5,17.83,13,20.27C31.76,49.57,33,49,34.26,48.3A17.66,17.66,0,0,1,24,40Z" transform="translate(-5.31 -2.65)"/><path class="cls-5" d="M25.94,28.39c.09-2.44.27-4.59.39-6.25l-1.68,1.18a41.62,41.62,0,0,0-4,3.22A31.76,31.76,0,0,0,24,40,17.66,17.66,0,0,0,34.26,48.3l2.63-1.38,1.27-.68C31.07,43.43,25.63,36.77,25.94,28.39Z" transform="translate(-5.31 -2.65)"/></g><g id="圖層_9" data-name="圖層 9"><path class="cls-6" d="M54.82,24.6a3.27,3.27,0,0,0-3.34,2.22,5.54,5.54,0,0,0,1.44,5.81,21,21,0,0,0,1-2.32A14.3,14.3,0,0,0,54.82,24.6Z" transform="translate(-5.31 -2.65)"/><path class="cls-7" d="M51.48,26.82a3.27,3.27,0,0,1,3.34-2.22,11.61,11.61,0,0,0-4.51-8.91,12,12,0,0,0-10.53-1.36c-3.33,1.05-6.19,3-9.1,4.85l-.56.38c-1.12,4-2.05,7.24.47,14.68,1.89,5.58,7.45,8,13.26,8.42a29.05,29.05,0,0,0,9.07-10A5.54,5.54,0,0,1,51.48,26.82Z" transform="translate(-5.31 -2.65)"/></g><g id="圖層_8" data-name="圖層 8"><path class="cls-6" d="M32.85,23.28c1.67-1,4.74,1.33,4.84,3.09a3.88,3.88,0,0,1-.82,2.19,3.64,3.64,0,0,1-4.25.74A3.15,3.15,0,0,1,31.13,27,3.69,3.69,0,0,1,32.85,23.28Z" transform="translate(-5.31 -2.65)"/></g><g id="圖層_7" data-name="圖層 7"><path class="cls-4" d="M40.29,29.59l.14.53c.06.16.15.35.24.56s.26.44.4.68a7.18,7.18,0,0,0,.58.74,7.06,7.06,0,0,0,.73.71l.44.3c.15.09.31.14.47.22a4,4,0,0,0,1.08.27,6,6,0,0,0,1.12.06,5.41,5.41,0,0,0,1.08-.14,3.89,3.89,0,0,0,.94-.35,1.84,1.84,0,0,0,.39-.24,1.59,1.59,0,0,0,.34-.28,4.25,4.25,0,0,0,.5-.59c.11-.21.22-.38.29-.54.11-.32.19-.51.19-.51s0,.19-.08.54a6.1,6.1,0,0,1-.2.61,3.63,3.63,0,0,1-.44.73,2.79,2.79,0,0,1-.34.35,2.59,2.59,0,0,1-.42.32,3.58,3.58,0,0,1-1,.47,5.2,5.2,0,0,1-1.19.21,7.23,7.23,0,0,1-1.23,0,5.39,5.39,0,0,1-1.21-.32,4.24,4.24,0,0,1-.56-.3L42,33.21a5.65,5.65,0,0,1-.74-.83,6.11,6.11,0,0,1-.53-.84,7.19,7.19,0,0,1-.3-.78,6,6,0,0,1-.15-.62C40.29,29.79,40.29,29.59,40.29,29.59Z" transform="translate(-5.31 -2.65)"/></g><g id="圖層_6" data-name="圖層 6"><path class="cls-8" d="M42.87,13.19a1.78,1.78,0,0,0-1.35.15,3.08,3.08,0,0,0-1.17,1.28c-.46,1,.12,1,.89.62A4.53,4.53,0,0,0,43,14C43.25,13.54,43.14,13.3,42.87,13.19Z" transform="translate(-5.31 -2.65)"/></g><g id="圖層_5" data-name="圖層 5"><path class="cls-8" d="M49.4,14c-.57-.08-.49.57-.4.93.13.55,1.41,2.59,2.13,1.82s-.81-2.47-1.53-2.7A.53.53,0,0,0,49.4,14Z" transform="translate(-5.31 -2.65)"/></g><g id="圖層_4" data-name="圖層 4"><path class="cls-8" d="M43.22,22a1,1,0,0,0-.3,0c-1,.14-.84,1.8-.76,2.49s.7,1.37,1.34.52C43.75,24.69,44.46,22.18,43.22,22Z" transform="translate(-5.31 -2.65)"/></g><g id="圖層_3" data-name="圖層 3"><path class="cls-8" d="M48.94,22.45a.52.52,0,0,1,.3,0c.56.2.58,1.9.39,2.57s-.89,1.25-1.4.32C48,25,48,22.58,48.94,22.45Z" transform="translate(-5.31 -2.65)"/></g></svg>