<?xml version="1.0" encoding="utf-8"?>
<!-- Generator: Adobe Illustrator 25.2.3, SVG Export Plug-In . SVG Version: 6.00 Build 0)  -->
<svg version="1.1" id="圖層_1" xmlns="http://www.w3.org/2000/svg" xmlns:xlink="http://www.w3.org/1999/xlink" x="0px" y="0px"
	 viewBox="0 0 286.2 346.5" style="enable-background:new 0 0 286.2 346.5;" xml:space="preserve">
<style type="text/css">
	.st0{opacity:0.84;fill:#A2FFF8;enable-background:new    ;}
	.st1{opacity:0.8362;fill:#9AFAF4;enable-background:new    ;}
	.st2{opacity:0.8324;fill:#93F5F0;enable-background:new    ;}
	.st3{opacity:0.8286;fill:#8BF0EC;enable-background:new    ;}
	.st4{opacity:0.8248;fill:#83ECE7;enable-background:new    ;}
	.st5{opacity:0.821;fill:#7BE7E3;enable-background:new    ;}
	.st6{opacity:0.8171;fill:#74E2DF;enable-background:new    ;}
	.st7{opacity:0.8133;fill:#6CDDDB;enable-background:new    ;}
	.st8{opacity:0.8095;fill:#64D8D7;enable-background:new    ;}
	.st9{opacity:0.8057;fill:#5DD3D3;enable-background:new    ;}
	.st10{opacity:0.8019;fill:#55CECF;enable-background:new    ;}
	.st11{opacity:0.7981;fill:#4DCACA;enable-background:new    ;}
	.st12{opacity:0.7943;fill:#45C5C6;enable-background:new    ;}
	.st13{opacity:0.7905;fill:#3EC0C2;enable-background:new    ;}
	.st14{opacity:0.7867;fill:#36BBBE;enable-background:new    ;}
	.st15{opacity:0.7829;fill:#2EB6BA;enable-background:new    ;}
	.st16{opacity:0.779;fill:#27B1B6;enable-background:new    ;}
	.st17{opacity:0.7752;fill:#1FACB2;enable-background:new    ;}
	.st18{opacity:0.7714;fill:#17A8AD;enable-background:new    ;}
	.st19{opacity:0.7676;fill:#0FA3A9;enable-background:new    ;}
	.st20{opacity:0.7638;fill:#089EA5;enable-background:new    ;}
	.st21{opacity:0.76;fill:#0099A1;enable-background:new    ;}
	.st22{fill:#CEF9E8;}
	.st23{fill:#98D3D2;}
	.st24{fill:#D0F9F2;}
	.st25{fill:#4D3729;}
	.st26{fill:#FAAF1E;}
	.st27{fill:#F395A0;}
	.st28{fill:#FFC947;}
	.st29{fill:#221E1F;}
</style>
<g id="圖層_41">
	<circle class="st0" cx="8.3" cy="340" r="3.9"/>
</g>
<g id="圖層_40">
	<circle class="st1" cx="36.4" cy="332" r="4"/>
</g>
<g id="圖層_39">
	<circle class="st2" cx="59.4" cy="319.7" r="4.2"/>
</g>
<g id="圖層_38">
	<circle class="st3" cx="76.7" cy="303.5" r="4.4"/>
</g>
<g id="圖層_37">
	<circle class="st4" cx="87.5" cy="283.9" r="4.6"/>
</g>
<g id="圖層_36">
	<circle class="st5" cx="90.7" cy="258.6" r="4.8"/>
</g>
<g id="圖層_35">
	<circle class="st6" cx="76.7" cy="238.7" r="4.9"/>
</g>
<g id="圖層_34">
	<circle class="st7" cx="56.7" cy="233.3" r="5.1"/>
</g>
<g id="圖層_33">
	<circle class="st8" cx="33.2" cy="243.9" r="5.3"/>
</g>
<g id="圖層_32">
	<circle class="st9" cx="29.7" cy="268.1" r="5.5"/>
</g>
<g id="圖層_31">
	<circle class="st10" cx="42.4" cy="285.1" r="5.7"/>
</g>
<g id="圖層_30">
	<circle class="st11" cx="59.7" cy="291.7" r="5.8"/>
</g>
<g id="圖層_29">
	<circle class="st12" cx="85.2" cy="295.9" r="6"/>
</g>
<g id="圖層_28">
	<circle class="st13" cx="113.1" cy="293.5" r="6.2"/>
</g>
<g id="圖層_27">
	<circle class="st14" cx="137.6" cy="280.2" r="6.4"/>
</g>
<g id="圖層_26">
	<circle class="st15" cx="150.3" cy="258.7" r="6.6"/>
</g>
<g id="圖層_25">
	<circle class="st16" cx="152" cy="236.4" r="6.7"/>
</g>
<g id="圖層_24">
	<circle class="st17" cx="149" cy="212" r="6.9"/>
</g>
<g id="圖層_23">
	<circle class="st18" cx="145.8" cy="186.5" r="7.1"/>
</g>
<g id="圖層_22">
	<circle class="st19" cx="147" cy="160.6" r="7.3"/>
</g>
<g id="圖層_21">
	<circle class="st20" cx="157.2" cy="135.3" r="7.4"/>
</g>
<g id="圖層_20">
	<circle class="st21" cx="174.6" cy="116.6" r="7.6"/>
</g>
<g id="圖層_19">
	<path class="st22" d="M215.4,46.8c-10.2-3.1-20-21.5-15.9-32.3C203.8,3.8,214.6-0.9,225,3.6c13.5,5.4,6.4,28.6,1.8,38.1L215.4,46.8
		z"/>
</g>
<g id="圖層_18">
	<path class="st23" d="M222.6,47.3c0,0-0.2-0.4-0.4-1.1c-0.2-0.7-0.6-1.6-1-2.8c-0.2-0.6-0.4-1.2-0.6-1.9c-0.2-0.7-0.4-1.4-0.5-2.2
		c-0.4-1.5-0.7-3.1-1-4.8c-0.5-3.3-1-6.5-1.1-9c-0.1-1.2-0.1-2.3-0.2-3c0-0.7,0-1.1,0-1.1s0.1,0.4,0.3,1.1s0.4,1.7,0.7,2.9
		c0.2,1.2,0.5,2.6,0.8,4.1s0.6,3.1,0.8,4.8c0.3,1.6,0.6,3.2,0.9,4.7c0.1,0.8,0.2,1.5,0.4,2.2s0.3,1.3,0.4,2c0.3,1.2,0.4,2.2,0.6,2.9
		C222.5,46.9,222.6,47.3,222.6,47.3z"/>
</g>
<g id="圖層_17">
	<path class="st24" d="M212.6,55c-3.9,2.6-17.4-1.1-20.7-3.6c-7.2-5.4-8.9-20.3-4.5-27.9c5.7-9.4,17-11.3,23.4-3
		c3.5,4.5,6.9,8.8,8.5,14.3c1.3,4.7,3.7,11.1,1.4,15.8L212.6,55z"/>
</g>
<g id="圖層_16">
	<path class="st23" d="M196.9,38.6c0,0,0.4,0.2,1.1,0.4c0.7,0.3,1.7,0.7,2.9,1.2c2.4,1.1,5.5,2.6,8.5,4.2c3.1,1.6,6.1,3.3,8.3,4.7
		c1.1,0.7,2,1.3,2.7,1.7c0.6,0.4,1,0.7,1,0.7s-0.4-0.2-1.1-0.4c-0.7-0.3-1.7-0.7-2.9-1.2c-2.4-1.1-5.5-2.6-8.5-4.2
		c-3.1-1.6-6.1-3.3-8.3-4.7c-1.1-0.7-2-1.3-2.7-1.7C197.3,38.8,196.9,38.6,196.9,38.6z"/>
</g>
<g id="圖層_15">
	<path class="st25" d="M196.5,91.7c-7.3,7.8-13.7,16.5-23.3,26.7l0,0c3.6-3.6,23.7-17.7,29.1-21.2L196.5,91.7z"/>
</g>
<g id="圖層_14">
	<path class="st25" d="M192.2,71c-0.1,0.2-0.2,0.3-0.2,0.5c-2,5.1-2,11.9-1.1,17.2c0.4,2.6,1.4,5.1,2.8,7.4
		c4.9,7.9,13.3,10.7,21.8,9.6C202,99.3,192.5,85.6,192.2,71z"/>
</g>
<g id="圖層_13">
	<path class="st26" d="M199,59.6c-2.8,3.5-5.1,7.2-6.8,11.4c0.3,14.7,9.9,28.3,23.3,34.8c1.8-0.2,3.5-0.6,5.3-1.1
		c1.9-0.6,3.8-1.3,5.7-2.1C209.6,97.3,198.8,77.5,199,59.6z"/>
</g>
<g id="圖層_12">
	<path class="st25" d="M226.8,68.9c-5.3-15.8-3.4-22.7-1-31.1c-2.7,1.8-5.4,3.6-8,5.5c-0.3,3.5-0.6,8.1-0.8,13.2
		c-0.7,17.7,10.9,31.8,25.9,37.8c4.1-2.3,8.2-4.8,12.1-7.6C242.5,85.8,230.8,80.7,226.8,68.9z"/>
</g>
<g id="圖層_11">
	<path class="st25" d="M212.8,81c-3.7-7.2-7.4-19-7.2-28.4c-2.4,2.2-4.6,4.5-6.6,7c-0.2,18,10.6,37.8,27.5,42.9
		c2.7-1.2,5.4-2.5,8-3.8C224.9,95.3,217.3,89.5,212.8,81z"/>
</g>
<g id="圖層_10">
	<path class="st26" d="M216.9,56.5c0.2-5.2,0.6-9.7,0.8-13.2c-1.2,0.8-2.4,1.7-3.6,2.5c-3,2.1-5.9,4.4-8.6,6.8
		c-0.2,9.4,3.5,21.2,7.2,28.4c4.5,8.5,12.1,14.3,21.7,17.7c1.9-1,3.7-2,5.6-2.9c0.9-0.5,1.8-1,2.7-1.4
		C227.8,88.3,216.2,74.2,216.9,56.5z"/>
</g>
<g id="圖層_9">
	<path class="st27" d="M278.1,48.5c-3-0.2-5.7,1.3-7.1,4.7c-1.8,4.1-0.1,9.1,3.1,12.3c0.8-1.6,1.6-3.2,2.2-4.9
		C277.7,56.7,278.3,52.6,278.1,48.5z"/>
</g>
<g id="圖層_8">
	<path class="st28" d="M271,53.2c1.4-3.4,4.1-5,7.1-4.7c-0.4-7.3-3.5-14.4-9.5-18.9c-6.3-4.6-14.9-5.2-22.3-2.9
		C239.2,28.9,233.2,33,227,37c-0.4,0.3-0.8,0.5-1.2,0.8c-2.4,8.4-4.3,15.3,1,31.1c4,11.8,15.8,16.9,28.1,17.8
		c7.9-5.7,14.8-12.6,19.2-21.2C270.9,62.3,269.2,57.3,271,53.2z"/>
</g>
<g id="圖層_7">
	<path class="st27" d="M231.5,45.7c3.5-2.1,10,2.8,10.2,6.5c0.1,1.4-0.9,3.6-1.7,4.7c-1.9,2.3-6.4,3.2-9,1.6c-2-1.3-2.6-2.7-3.2-4.9
		C227.2,50.5,229,47.2,231.5,45.7z"/>
</g>
<g id="圖層_6">
	<path class="st25" d="M247.3,59c0,0,0.1,0.4,0.3,1.1c0.1,0.4,0.3,0.7,0.5,1.2c0.2,0.4,0.5,0.9,0.8,1.4c0.4,0.5,0.7,1.1,1.2,1.5
		c0.4,0.5,1,1,1.6,1.5c0.3,0.2,0.6,0.4,0.9,0.6c0.3,0.2,0.7,0.3,1,0.5c0.7,0.3,1.5,0.5,2.3,0.6s1.6,0.2,2.4,0.1
		c0.8,0,1.6-0.1,2.3-0.3c0.7-0.2,1.4-0.4,2-0.7c0.3-0.1,0.6-0.3,0.8-0.5c0.3-0.2,0.5-0.4,0.7-0.6c0.5-0.4,0.7-0.9,1.1-1.3
		c0.2-0.4,0.5-0.8,0.6-1.1c0.2-0.7,0.4-1.1,0.4-1.1s-0.1,0.4-0.2,1.2c-0.1,0.4-0.3,0.8-0.4,1.3c-0.3,0.5-0.5,1-0.9,1.5
		c-0.2,0.3-0.4,0.5-0.7,0.8c-0.3,0.3-0.6,0.5-0.9,0.7c-0.6,0.4-1.4,0.8-2.2,1c-0.8,0.2-1.6,0.4-2.5,0.4c-0.9,0.1-1.7,0-2.6-0.1
		s-1.8-0.3-2.6-0.7c-0.4-0.2-0.8-0.4-1.2-0.6c-0.3-0.3-0.7-0.5-1-0.8c-0.6-0.6-1.1-1.1-1.6-1.8c-0.5-0.6-0.8-1.2-1.1-1.8
		s-0.5-1.1-0.7-1.6c-0.1-0.5-0.3-1-0.3-1.3C247.3,59.4,247.3,59,247.3,59z"/>
</g>
<g id="圖層_5">
	<path class="st29" d="M252.8,24.3c-0.8-0.3-2.1-0.1-2.9,0.3c-1,0.6-2,1.6-2.5,2.7c-1,2.1,0.3,2.1,1.9,1.3c1.2-0.6,2.9-1.6,3.7-2.7
		C253.6,25,253.3,24.5,252.8,24.3z"/>
</g>
<g id="圖層_4">
	<path class="st29" d="M266.6,26c-1.2-0.2-1,1.2-0.8,2c0.3,1.2,3,5.5,4.5,3.9c1.7-1.6-1.7-5.2-3.2-5.7C266.8,26,266.7,26,266.6,26z"
		/>
</g>
<g id="圖層_3">
	<path class="st29" d="M253.5,43c-0.2,0-0.4-0.1-0.6,0c-2.1,0.3-1.8,3.8-1.6,5.3c0.2,1.7,1.5,2.9,2.8,1.1
		C254.6,48.6,256.1,43.3,253.5,43z"/>
</g>
<g id="圖層_2">
	<path class="st29" d="M265.6,43.9c0.2,0,0.4,0,0.6,0.1c1.2,0.4,1.2,4,0.8,5.4c-0.5,1.6-1.9,2.7-3,0.7
		C263.7,49.3,263.7,44.2,265.6,43.9z"/>
</g>
</svg>
