<?xml version="1.0" encoding="utf-8"?>
<!-- Generator: Adobe Illustrator 25.2.3, SVG Export Plug-In . SVG Version: 6.00 Build 0)  -->
<svg version="1.1" id="圖層_1" xmlns="http://www.w3.org/2000/svg" xmlns:xlink="http://www.w3.org/1999/xlink" x="0px" y="0px"
	 viewBox="0 0 271.7 340" style="enable-background:new 0 0 271.7 340;" xml:space="preserve">
<style type="text/css">
	.st0{fill:#009EB5;}
	.st1{fill:#08A2B9;}
	.st2{fill:#10A6BC;}
	.st3{fill:#18AAC0;}
	.st4{fill:#20AEC3;}
	.st5{fill:#28B2C7;}
	.st6{fill:#2FB6CA;}
	.st7{fill:#37BACE;}
	.st8{fill:#3FBED1;}
	.st9{fill:#47C2D5;}
	.st10{fill:#4FC6D8;}
	.st11{fill:#57CADC;}
	.st12{fill:#5FCEDF;}
	.st13{fill:#67D2E3;}
	.st14{fill:#6FD6E6;}
	.st15{fill:#77DAEA;}
	.st16{fill:#7EDEED;}
	.st17{fill:#86E2F1;}
	.st18{fill:#8EE6F4;}
	.st19{fill:#96EAF8;}
	.st20{fill:#9EEEFB;}
	.st21{fill:#A6F2FF;}
	.st22{fill:#CEF9E8;}
	.st23{fill:#98D3D2;}
	.st24{fill:#D0F9F2;}
	.st25{fill:#4D3729;}
	.st26{fill:#FAAF1E;}
	.st27{fill:#F395A0;}
	.st28{fill:#FFC947;}
	.st29{fill:#221E1F;}
</style>
<ellipse class="st0" cx="168.2" cy="114.7" rx="7.1" ry="7.5"/>
<ellipse class="st1" cx="150.9" cy="133.3" rx="6.9" ry="7.2"/>
<ellipse class="st2" cx="140.6" cy="158.7" rx="6.6" ry="6.9"/>
<ellipse class="st3" cx="139.4" cy="184.5" rx="6.4" ry="6.7"/>
<ellipse class="st4" cx="142.6" cy="210" rx="6.1" ry="6.4"/>
<ellipse class="st5" cx="145.6" cy="234.4" rx="5.9" ry="6.1"/>
<ellipse class="st6" cx="144" cy="256.7" rx="5.6" ry="5.9"/>
<ellipse class="st7" cx="131.2" cy="278.2" rx="5.4" ry="5.6"/>
<ellipse class="st8" cx="106.7" cy="291.6" rx="5.1" ry="5.4"/>
<ellipse class="st9" cx="78.8" cy="294" rx="4.9" ry="5.1"/>
<ellipse class="st10" cx="53.3" cy="289.7" rx="4.6" ry="4.8"/>
<ellipse class="st11" cx="36" cy="283.1" rx="4.4" ry="4.6"/>
<ellipse class="st12" cx="23.4" cy="266.1" rx="4.1" ry="4.3"/>
<ellipse class="st13" cx="26.8" cy="242" rx="3.9" ry="4.1"/>
<ellipse class="st14" cx="50.3" cy="231.3" rx="3.6" ry="3.8"/>
<ellipse class="st15" cx="70.3" cy="236.7" rx="3.4" ry="3.5"/>
<ellipse class="st16" cx="84.3" cy="256.7" rx="3.1" ry="3.3"/>
<ellipse class="st17" cx="81.1" cy="281.9" rx="2.9" ry="3"/>
<ellipse class="st18" cx="70.3" cy="301.5" rx="2.6" ry="2.7"/>
<ellipse class="st19" cx="53" cy="317.7" rx="2.4" ry="2.5"/>
<ellipse class="st20" cx="30" cy="330.1" rx="2.1" ry="2.2"/>
<ellipse class="st21" cx="1.9" cy="338" rx="1.9" ry="2"/>
<path class="st22" d="M209.1,44.9l11.5-5c4.6-9.5,11.7-32.7-1.8-38.1c-10.4-4.5-21.2,0.2-25.5,10.9
	C189.1,23.3,198.9,41.7,209.1,44.9z"/>
<path class="st23" d="M216.2,45.3c0,0-0.2-0.4-0.4-1s-0.6-1.6-1-2.8c-0.2-0.6-0.4-1.2-0.6-1.9s-0.4-1.4-0.5-2.2
	c-0.4-1.5-0.7-3.2-1-4.8c-0.5-3.3-0.9-6.5-1.1-9c-0.1-1.2-0.1-2.3-0.2-3s0-1.1,0-1.1s0.1,0.4,0.3,1.1s0.4,1.7,0.6,2.9
	s0.5,2.6,0.8,4.1s0.6,3.1,0.8,4.8c0.3,1.6,0.6,3.2,0.9,4.7c0.1,0.8,0.2,1.5,0.4,2.2s0.3,1.3,0.4,2c0.3,1.2,0.4,2.2,0.6,3
	S216.2,45.3,216.2,45.3z"/>
<path class="st24" d="M206.2,53c-4,2.6-17.4-1.2-20.7-3.6c-7.2-5.4-8.9-20.3-4.5-27.8c5.7-9.4,17-11.3,23.4-3
	c3.4,4.5,6.9,8.8,8.5,14.3c1.3,4.7,3.7,11.1,1.4,15.8L206.2,53z"/>
<path class="st23" d="M190.5,36.6c0,0,0.4,0.2,1.1,0.4s1.7,0.7,2.9,1.2c2.4,1.1,5.5,2.6,8.5,4.2s6.1,3.3,8.3,4.7
	c1.1,0.7,2,1.3,2.7,1.7l1,0.7c0,0-0.4-0.2-1.1-0.4s-1.7-0.7-2.9-1.2c-2.4-1.1-5.5-2.6-8.5-4.2s-6.1-3.3-8.3-4.7
	c-1.1-0.7-2-1.3-2.7-1.7S190.5,36.6,190.5,36.6z"/>
<path class="st25" d="M190.1,89.7c-7.3,7.8-13.7,16.5-23.3,26.7l0,0c3.6-3.6,23.7-17.7,29.1-21.2L190.1,89.7z"/>
<path class="st25" d="M185.8,69c-0.1,0.2-0.1,0.3-0.2,0.5c-2,5.2-2,11.9-1.1,17.2c0.5,2.6,1.4,5.2,2.8,7.4
	c4.9,7.9,13.3,10.7,21.8,9.7C195.6,97.3,186.1,83.7,185.8,69z"/>
<path class="st26" d="M192.6,57.6c-2.8,3.5-5.1,7.3-6.8,11.4c0.3,14.7,9.9,28.3,23.3,34.8c1.8-0.2,3.6-0.6,5.3-1.2
	c1.9-0.6,3.8-1.3,5.7-2.1C203.2,95.4,192.4,75.6,192.6,57.6z"/>
<path class="st25" d="M220.4,66.9c-5.3-15.8-3.4-22.7-1-31.1c-2.7,1.8-5.4,3.6-8,5.5c-0.2,3.5-0.6,8-0.8,13.2
	c-0.7,17.7,10.9,31.8,25.9,37.8c4.2-2.3,8.2-4.8,12.1-7.6C236.1,83.8,224.4,78.7,220.4,66.9z"/>
<path class="st25" d="M206.4,79c-3.7-7.2-7.4-19-7.2-28.4c-2.4,2.2-4.6,4.5-6.6,7c-0.2,18,10.6,37.8,27.5,42.9
	c2.7-1.2,5.4-2.5,8-3.8C218.5,93.3,210.9,87.5,206.4,79z"/>
<path class="st26" d="M210.5,54.5c0.2-5.2,0.6-9.7,0.8-13.2l-3.6,2.5c-3,2.1-5.9,4.4-8.6,6.8c-0.2,9.5,3.5,21.2,7.2,28.4
	c4.5,8.5,12.1,14.3,21.7,17.7l5.6-2.9c0.9-0.5,1.8-1,2.7-1.4C221.4,86.4,209.9,72.2,210.5,54.5z"/>
<path class="st27" d="M271.7,46.5c-3-0.2-5.7,1.3-7.1,4.7c-1.8,4.1,0,9.1,3.1,12.3c0.8-1.6,1.6-3.2,2.2-4.9
	C271.3,54.7,271.9,50.6,271.7,46.5z"/>
<path class="st28" d="M264.6,51.2c1.4-3.4,4.1-5,7.1-4.7c-0.4-7.3-3.5-14.4-9.5-18.9c-6.3-4.6-14.9-5.2-22.3-2.9
	c-7,2.2-13.1,6.3-19.3,10.3c-0.4,0.2-0.8,0.5-1.2,0.8c-2.4,8.4-4.3,15.4,1,31.1c4,11.8,15.8,16.9,28.1,17.8
	c7.8-5.7,14.8-12.6,19.2-21.3C264.5,60.3,262.8,55.3,264.6,51.2z"/>
<path class="st27" d="M225.1,43.7c3.5-2.1,10,2.8,10.2,6.5c-0.1,1.7-0.7,3.3-1.7,4.7c-1.9,2.3-6.4,3.2-9,1.6c-2-1.3-2.6-2.7-3.1-4.9
	C220.8,48.6,222.6,45.2,225.1,43.7z"/>
<path class="st25" d="M240.9,57c0,0,0.1,0.4,0.3,1.1c0.1,0.3,0.3,0.7,0.5,1.2s0.5,0.9,0.8,1.5c0.4,0.5,0.8,1,1.2,1.5
	c0.5,0.5,1,1,1.6,1.5l0.9,0.6c0.3,0.2,0.7,0.3,1,0.5c0.7,0.3,1.5,0.5,2.3,0.6c0.8,0.1,1.6,0.2,2.4,0.1c0.8,0,1.5-0.1,2.3-0.3
	c0.7-0.2,1.4-0.4,2-0.7c0.3-0.1,0.6-0.3,0.8-0.5c0.3-0.2,0.5-0.4,0.7-0.6c0.4-0.4,0.8-0.8,1.1-1.2c0.2-0.4,0.5-0.8,0.6-1.2
	c0.2-0.7,0.4-1.1,0.4-1.1s0,0.4-0.2,1.2c-0.1,0.4-0.2,0.8-0.4,1.3c-0.2,0.6-0.6,1.1-1,1.5c-0.2,0.3-0.4,0.5-0.7,0.8
	c-0.3,0.3-0.6,0.5-0.9,0.7c-0.7,0.4-1.4,0.8-2.2,1c-0.8,0.2-1.7,0.4-2.5,0.4c-0.9,0-1.8,0-2.6-0.1c-0.9-0.1-1.7-0.3-2.6-0.7
	c-0.4-0.2-0.8-0.4-1.2-0.6l-1-0.8c-0.6-0.5-1.1-1.1-1.6-1.8c-0.4-0.6-0.8-1.2-1.1-1.8c-0.3-0.5-0.5-1.1-0.6-1.6
	c-0.1-0.5-0.3-1-0.3-1.3C240.9,57.5,240.9,57,240.9,57z"/>
<path class="st29" d="M246.4,22.3c-1-0.3-2-0.1-2.9,0.3c-1.1,0.7-1.9,1.6-2.5,2.7c-1,2.1,0.2,2.1,1.9,1.3c1.4-0.6,2.7-1.5,3.7-2.7
	C247.2,23,246.9,22.6,246.4,22.3z"/>
<path class="st29" d="M260.2,24c-1.2-0.2-1,1.2-0.9,2c0.3,1.2,3,5.5,4.5,3.9s-1.7-5.2-3.2-5.7C260.5,24.1,260.3,24.1,260.2,24z"/>
<path class="st29" d="M247.1,41c-0.2,0-0.4,0-0.6,0c-2.1,0.3-1.8,3.8-1.6,5.3c0.2,1.7,1.5,2.9,2.8,1.1
	C248.2,46.7,249.7,41.3,247.1,41z"/>
<path class="st29" d="M259.2,41.9c0.2-0.1,0.4-0.1,0.6,0c1.2,0.4,1.2,4,0.8,5.5c-0.5,1.6-1.9,2.7-3,0.7
	C257.3,47.3,257.3,42.2,259.2,41.9z"/>
</svg>
