<?xml version="1.0" encoding="utf-8"?>
<!-- Generator: Adobe Illustrator 25.2.3, SVG Export Plug-In . SVG Version: 6.00 Build 0)  -->
<svg version="1.1" id="圖層_1" xmlns="http://www.w3.org/2000/svg" xmlns:xlink="http://www.w3.org/1999/xlink" x="0px" y="0px"
	 viewBox="0 0 372.3 410" style="enable-background:new 0 0 372.3 410;" xml:space="preserve">
<style type="text/css">
	.st0{opacity:0.84;fill:#A2FFF8;enable-background:new    ;}
	.st1{opacity:0.8362;fill:#9AFAF4;enable-background:new    ;}
	.st2{opacity:0.8324;fill:#93F5F0;enable-background:new    ;}
	.st3{opacity:0.8286;fill:#8BF0EC;enable-background:new    ;}
	.st4{opacity:0.8248;fill:#83ECE7;enable-background:new    ;}
	.st5{opacity:0.821;fill:#7BE7E3;enable-background:new    ;}
	.st6{opacity:0.8171;fill:#74E2DF;enable-background:new    ;}
	.st7{opacity:0.8133;fill:#6CDDDB;enable-background:new    ;}
	.st8{opacity:0.8095;fill:#64D8D7;enable-background:new    ;}
	.st9{opacity:0.8057;fill:#5DD3D3;enable-background:new    ;}
	.st10{opacity:0.8019;fill:#55CECF;enable-background:new    ;}
	.st11{opacity:0.7981;fill:#4DCACA;enable-background:new    ;}
	.st12{opacity:0.7943;fill:#45C5C6;enable-background:new    ;}
	.st13{opacity:0.7905;fill:#3EC0C2;enable-background:new    ;}
	.st14{opacity:0.7867;fill:#36BBBE;enable-background:new    ;}
	.st15{opacity:0.7829;fill:#2EB6BA;enable-background:new    ;}
	.st16{opacity:0.779;fill:#27B1B6;enable-background:new    ;}
	.st17{opacity:0.7752;fill:#1FACB2;enable-background:new    ;}
	.st18{opacity:0.7714;fill:#17A8AD;enable-background:new    ;}
	.st19{opacity:0.7676;fill:#0FA3A9;enable-background:new    ;}
	.st20{opacity:0.7638;fill:#089EA5;enable-background:new    ;}
	.st21{opacity:0.76;fill:#0099A1;enable-background:new    ;}
	.st22{fill:#CEF9E8;}
	.st23{fill:#98D3D2;}
	.st24{fill:#D0F9F2;}
	.st25{fill:#4D3729;}
	.st26{fill:#FAAF1E;}
	.st27{fill:#F395A0;}
	.st28{fill:#FFC947;}
	.st29{fill:#221E1F;}
	.st30{fill:#8CB945;}
	.st31{fill:#918F36;}
	.st32{fill:#78953B;}
	.st33{fill:#9065C9;}
	.st34{fill:#AC6DD6;}
	.st35{fill:#275926;}
	.st36{fill:#583582;}
	.st37{fill:#CEAAF7;}
	.st38{fill:#878413;}
	.st39{fill:#587145;}
</style>
<g id="圖層_41">
	<circle class="st0" cx="8.3" cy="339.9" r="3.9"/>
</g>
<g id="圖層_40">
	<circle class="st1" cx="36.4" cy="331.9" r="4"/>
</g>
<g id="圖層_39">
	<circle class="st2" cx="59.4" cy="319.6" r="4.2"/>
</g>
<g id="圖層_38">
	<circle class="st3" cx="76.7" cy="303.4" r="4.4"/>
</g>
<g id="圖層_37">
	<circle class="st4" cx="87.5" cy="283.8" r="4.6"/>
</g>
<g id="圖層_36">
	<circle class="st5" cx="90.7" cy="258.5" r="4.8"/>
</g>
<g id="圖層_35">
	<circle class="st6" cx="76.7" cy="238.6" r="4.9"/>
</g>
<g id="圖層_34">
	<circle class="st7" cx="56.7" cy="233.2" r="5.1"/>
</g>
<g id="圖層_33">
	<circle class="st8" cx="33.2" cy="243.8" r="5.3"/>
</g>
<g id="圖層_32">
	<circle class="st9" cx="29.7" cy="268" r="5.5"/>
</g>
<g id="圖層_31">
	<circle class="st10" cx="42.4" cy="285" r="5.7"/>
</g>
<g id="圖層_30">
	<circle class="st11" cx="59.7" cy="291.6" r="5.8"/>
</g>
<g id="圖層_29">
	<circle class="st12" cx="85.2" cy="295.8" r="6"/>
</g>
<g id="圖層_28">
	<circle class="st13" cx="113.1" cy="293.4" r="6.2"/>
</g>
<g id="圖層_27">
	<circle class="st14" cx="137.6" cy="280.1" r="6.4"/>
</g>
<g id="圖層_26">
	<circle class="st15" cx="150.3" cy="258.6" r="6.6"/>
</g>
<g id="圖層_25">
	<circle class="st16" cx="152" cy="236.3" r="6.7"/>
</g>
<g id="圖層_24">
	<circle class="st17" cx="149" cy="211.9" r="6.9"/>
</g>
<g id="圖層_23">
	<circle class="st18" cx="145.8" cy="186.4" r="7.1"/>
</g>
<g id="圖層_22">
	<circle class="st19" cx="147" cy="160.5" r="7.3"/>
</g>
<g id="圖層_21">
	<circle class="st20" cx="157.2" cy="135.2" r="7.4"/>
</g>
<g id="圖層_20">
	<circle class="st21" cx="174.6" cy="116.5" r="7.6"/>
</g>
<g id="圖層_19">
	<path class="st22" d="M215.4,46.7c-10.2-3.1-20-21.5-15.9-32.3C203.8,3.7,214.6-1,225,3.5c13.5,5.4,6.4,28.6,1.8,38.1L215.4,46.7z"
		/>
</g>
<g id="圖層_18">
	<path class="st23" d="M222.6,47.2c0,0-0.2-0.4-0.4-1.1c-0.2-0.7-0.6-1.6-1-2.8c-0.2-0.6-0.4-1.2-0.6-1.9c-0.2-0.7-0.4-1.4-0.5-2.2
		c-0.4-1.5-0.7-3.1-1-4.8c-0.5-3.3-1-6.5-1.1-9c-0.1-1.2-0.1-2.3-0.2-3c0-0.7,0-1.1,0-1.1s0.1,0.4,0.3,1.1s0.4,1.7,0.7,2.9
		c0.2,1.2,0.5,2.6,0.8,4.1s0.6,3.1,0.8,4.8c0.3,1.6,0.6,3.2,0.9,4.7c0.1,0.8,0.2,1.5,0.4,2.2s0.3,1.3,0.4,2c0.3,1.2,0.4,2.2,0.6,2.9
		C222.5,46.8,222.6,47.2,222.6,47.2z"/>
</g>
<g id="圖層_17">
	<path class="st24" d="M212.6,54.9c-3.9,2.6-17.4-1.1-20.7-3.6c-7.2-5.4-8.9-20.3-4.5-27.9c5.7-9.4,17-11.3,23.4-3
		c3.5,4.5,6.9,8.8,8.5,14.3c1.3,4.7,3.7,11.1,1.4,15.8L212.6,54.9z"/>
</g>
<g id="圖層_16">
	<path class="st23" d="M196.9,38.5c0,0,0.4,0.2,1.1,0.4c0.7,0.3,1.7,0.7,2.9,1.2c2.4,1.1,5.5,2.6,8.5,4.2c3.1,1.6,6.1,3.3,8.3,4.7
		c1.1,0.7,2,1.3,2.7,1.7c0.6,0.4,1,0.7,1,0.7s-0.4-0.2-1.1-0.4c-0.7-0.3-1.7-0.7-2.9-1.2c-2.4-1.1-5.5-2.6-8.5-4.2
		c-3.1-1.6-6.1-3.3-8.3-4.7c-1.1-0.7-2-1.3-2.7-1.7C197.3,38.7,196.9,38.5,196.9,38.5z"/>
</g>
<g id="圖層_15">
	<path class="st25" d="M196.5,91.6c-7.3,7.8-13.7,16.5-23.3,26.7l0,0c3.6-3.6,23.7-17.7,29.1-21.2L196.5,91.6z"/>
</g>
<g id="圖層_14">
	<path class="st25" d="M192.2,70.9c-0.1,0.2-0.2,0.3-0.2,0.5c-2,5.1-2,11.9-1.1,17.2c0.4,2.6,1.4,5.1,2.8,7.4
		c4.9,7.9,13.3,10.7,21.8,9.6C202,99.2,192.5,85.5,192.2,70.9z"/>
</g>
<g id="圖層_13">
	<path class="st26" d="M199,59.5c-2.8,3.5-5.1,7.2-6.8,11.4c0.3,14.7,9.9,28.3,23.3,34.8c1.8-0.2,3.5-0.6,5.3-1.1
		c1.9-0.6,3.8-1.3,5.7-2.1C209.6,97.2,198.8,77.4,199,59.5z"/>
</g>
<g id="圖層_12">
	<path class="st25" d="M226.8,68.8c-5.3-15.8-3.4-22.7-1-31.1c-2.7,1.8-5.4,3.6-8,5.5c-0.3,3.5-0.6,8.1-0.8,13.2
		c-0.7,17.7,10.9,31.8,25.9,37.8c4.1-2.3,8.2-4.8,12.1-7.6C242.5,85.7,230.8,80.6,226.8,68.8z"/>
</g>
<g id="圖層_11">
	<path class="st25" d="M212.8,80.9c-3.7-7.2-7.4-19-7.2-28.4c-2.4,2.2-4.6,4.5-6.6,7c-0.2,18,10.6,37.8,27.5,42.9
		c2.7-1.2,5.4-2.5,8-3.8C224.9,95.2,217.3,89.4,212.8,80.9z"/>
</g>
<g id="圖層_10">
	<path class="st26" d="M216.9,56.4c0.2-5.2,0.6-9.7,0.8-13.2c-1.2,0.8-2.4,1.7-3.6,2.5c-3,2.1-5.9,4.4-8.6,6.8
		c-0.2,9.4,3.5,21.2,7.2,28.4c4.5,8.5,12.1,14.3,21.7,17.7c1.9-1,3.7-2,5.6-2.9c0.9-0.5,1.8-1,2.7-1.4
		C227.8,88.2,216.2,74.1,216.9,56.4z"/>
</g>
<g id="圖層_9">
	<path class="st27" d="M278.1,48.4c-3-0.2-5.7,1.3-7.1,4.7c-1.8,4.1-0.1,9.1,3.1,12.3c0.8-1.6,1.6-3.2,2.2-4.9
		C277.7,56.6,278.3,52.5,278.1,48.4z"/>
</g>
<g id="圖層_8">
	<path class="st28" d="M271,53.1c1.4-3.4,4.1-5,7.1-4.7c-0.4-7.3-3.5-14.4-9.5-18.9c-6.3-4.6-14.9-5.2-22.3-2.9
		c-7.1,2.2-13.1,6.3-19.3,10.3c-0.4,0.3-0.8,0.5-1.2,0.8c-2.4,8.4-4.3,15.3,1,31.1c4,11.8,15.8,16.9,28.1,17.8
		c7.9-5.7,14.8-12.6,19.2-21.2C270.9,62.2,269.2,57.2,271,53.1z"/>
</g>
<g id="圖層_7">
	<path class="st27" d="M231.5,45.6c3.5-2.1,10,2.8,10.2,6.5c0.1,1.4-0.9,3.6-1.7,4.7c-1.9,2.3-6.4,3.2-9,1.6c-2-1.3-2.6-2.7-3.2-4.9
		C227.2,50.4,229,47.1,231.5,45.6z"/>
</g>
<g id="圖層_6">
	<path class="st25" d="M247.3,58.9c0,0,0.1,0.4,0.3,1.1c0.1,0.4,0.3,0.7,0.5,1.2c0.2,0.4,0.5,0.9,0.8,1.4c0.4,0.5,0.7,1.1,1.2,1.5
		c0.4,0.5,1,1,1.6,1.5c0.3,0.2,0.6,0.4,0.9,0.6c0.3,0.2,0.7,0.3,1,0.5c0.7,0.3,1.5,0.5,2.3,0.6s1.6,0.2,2.4,0.1
		c0.8,0,1.6-0.1,2.3-0.3c0.7-0.2,1.4-0.4,2-0.7c0.3-0.1,0.6-0.3,0.8-0.5c0.3-0.2,0.5-0.4,0.7-0.6c0.5-0.4,0.7-0.9,1.1-1.3
		c0.2-0.4,0.5-0.8,0.6-1.1c0.2-0.7,0.4-1.1,0.4-1.1s-0.1,0.4-0.2,1.2c-0.1,0.4-0.3,0.8-0.4,1.3c-0.3,0.5-0.5,1-0.9,1.5
		c-0.2,0.3-0.4,0.5-0.7,0.8c-0.3,0.3-0.6,0.5-0.9,0.7c-0.6,0.4-1.4,0.8-2.2,1c-0.8,0.2-1.6,0.4-2.5,0.4c-0.9,0.1-1.7,0-2.6-0.1
		s-1.8-0.3-2.6-0.7c-0.4-0.2-0.8-0.4-1.2-0.6c-0.3-0.3-0.7-0.5-1-0.8c-0.6-0.6-1.1-1.1-1.6-1.8c-0.5-0.6-0.8-1.2-1.1-1.8
		s-0.5-1.1-0.7-1.6c-0.1-0.5-0.3-1-0.3-1.3C247.3,59.3,247.3,58.9,247.3,58.9z"/>
</g>
<g id="圖層_5">
	<path class="st29" d="M252.8,24.2c-0.8-0.3-2.1-0.1-2.9,0.3c-1,0.6-2,1.6-2.5,2.7c-1,2.1,0.3,2.1,1.9,1.3c1.2-0.6,2.9-1.6,3.7-2.7
		C253.6,24.9,253.3,24.4,252.8,24.2z"/>
</g>
<g id="圖層_4">
	<path class="st29" d="M266.6,25.9c-1.2-0.2-1,1.2-0.8,2c0.3,1.2,3,5.5,4.5,3.9c1.7-1.6-1.7-5.2-3.2-5.7
		C266.8,25.9,266.7,25.9,266.6,25.9z"/>
</g>
<g id="圖層_3">
	<path class="st29" d="M253.5,42.9c-0.2,0-0.4-0.1-0.6,0c-2.1,0.3-1.8,3.8-1.6,5.3c0.2,1.7,1.5,2.9,2.8,1.1
		C254.6,48.5,256.1,43.2,253.5,42.9z"/>
</g>
<g id="圖層_2_1_">
	<path class="st29" d="M265.6,43.8c0.2,0,0.4,0,0.6,0.1c1.2,0.4,1.2,4,0.8,5.4c-0.5,1.6-1.9,2.7-3,0.7
		C263.7,49.2,263.7,44.1,265.6,43.8z"/>
</g>
<g>
	<path class="st30" d="M261.8,413.8c-4.2-8.2-11.9-13.9-18.3-20.5c-5-5.2-10.9-9.6-16.3-14.5c1.3,2.3,2.4,4.8,3.7,7
		c3.8,6.6,8,13.1,12.5,19.3c4.8,6.6,10.8,12.1,16.5,17.9c3.3,3.3,7,6.7,10,10.4c-0.5-1.1-1.1-2.2-1.6-3.3
		C265.9,424.8,263.8,419.3,261.8,413.8z"/>
	<path class="st30" d="M276.5,395.3c-3.4-7-8-13.3-11.5-20.3c3.3,16.7,8,33.3,14.9,48.9c5.7,13,12.4,25.2,17.4,38.3
		c-0.1-0.4-0.2-0.9-0.2-1.3c-3.1-13.2-5.8-26.4-9.9-39.4C284.3,412.6,280.7,403.8,276.5,395.3z"/>
	<path class="st30" d="M300.6,432.3c-0.8,6.3-0.9,12.6-0.6,18.9c0.1,4.1,0.5,8.4,0.6,12.6c0.6,3.3,1.2,6.7,1.9,10
		c0.3,1.8,0.6,3.6,0.9,5.4c0-1,0.1-2,0.1-3c0.4-8.5,1.4-16.9,3.2-25.2c-3-9.7,0.7-21.4,2.8-30.8c3.1-13.9,6.3-27.3,6.8-41.5
		c-0.6,3.7-1.4,7.3-2.7,10.6c-2,5-4.8,9.6-7.6,14.2c0.2,4.4-0.9,8.7-2,13C302.5,421.7,301.2,426.9,300.6,432.3z"/>
	<path class="st30" d="M323.5,417c0.6-2.7,0.3-5.5,0.4-8.2c0.1-1.9,0.5-4,1.8-5.3v-0.1c0.1-0.2,0.2-0.3,0.4-0.4
		c-0.1,0-0.2,0-0.3-0.1c-7.8,2.9-6.3,14.2-8.2,21.1C319.3,421.4,321.2,419.1,323.5,417z"/>
	<path class="st30" d="M315.2,362.6L315.2,362.6c1.8-5.4,0.3-11.1,0.9-16.5c-0.6,1.3-1.3,2.6-1.9,3.9c-1.8,3.6-2.5,7.8-3.6,11.7
		c-1.1,3.9-1.1,8.2-2.1,12.2c1.9-3.8,4-7.6,6.4-11.1C315.1,362.8,315.1,362.7,315.2,362.6z"/>
	<path class="st31" d="M266.5,236c2.1-0.1,4.2,0.3,6.4,0.2c0.5,0,0.9-0.1,1.4-0.2c-2.8-0.1-5.7-0.4-8.1-1.4
		c-0.1-0.1-0.1-0.3,0.1-0.3c1.6,0.1,3.3,0.5,4.9,0.8c1.7,0.3,3.4,0.5,5.1,0.6c-1.5-0.4-3-0.9-4.4-1.3c-3-0.9-6.3-1-9.4-1.4
		c-4.2-0.6-7.5-2.1-10.7-4.2c2,2.1,4.1,3.9,6.6,5.5c0.3,0.2,0.3,0.9-0.2,0.9c-1-0.1-2-0.1-2.9-0.1c0.2,0.1,0.4,0.2,0.6,0.4
		c2.3,1.5,4.9,1.1,7.4,1c0.5,0,0.7,0.7,0.2,0.9c-1.2,0.4-6.8,1.7-2,1.8c1.8,0,3.6-0.6,5.3-1c0.3-0.1,0.7-0.2,1.1-0.3
		c-0.6,0-1.2-0.2-1.7-0.5c-0.2-0.1-0.1-0.4,0.1-0.4c2,0.2,3.5,0.1,5.4-0.4c-1.7,0.1-3.5-0.1-5.1-0.4
		C266.4,236.3,266.4,236,266.5,236z"/>
	<path class="st32" d="M304.4,481.8c0,1.3,0,2.7,0,4.1c1.3,8,2.3,16.1,3.2,24.2c1.5-21.2,3.9-42.1,10.4-62.4
		c3-9.4,6.1-18.8,10.5-27.7c1.1-2.2,2.2-4.4,3.4-6.5c0.4-0.8,1-2.5,1.8-2.9c-1.2,0.5-2.2,1.2-3.3,1.8c-3.2,2-6.1,4.5-8.6,7.3
		c-9.9,10.9-13.7,26.2-15.8,40.4C305.1,467.3,304.6,474.6,304.4,481.8z"/>
	<path class="st31" d="M286.4,384.4c-1.5-11.5-36.7-62.4-40.7-67.8c-3.6-4.9-7.4-9.7-10.3-15.1c0.4,1.1,0.8,2.2,1.1,3.3
		c1.2,3.5,2.4,6.9,3.7,10.4c2.7,7.4,5.7,14.7,8.9,21.9c6,13.2,15.4,23.3,24.8,34.2c3.6,4.2,7.1,8.5,10.3,13c0.8,1.1,1.7,2.4,2.5,3.7
		C286.4,384.4,286.6,388,286.4,384.4z"/>
	<path class="st31" d="M305.5,356.5c7.2-12.3,5.4-28.9,14.4-40.4c-5,5.1-9.9,9.7-13.4,16.2c-3.9,7.3-6.4,15.6-8.9,23.4
		c-2.4,7.4-4,15-5.1,22.6c-0.3,2-0.6,3.9-0.8,5.9c0.6-1.9,1.2-3.7,1.8-5.4C296.3,370.5,301.1,363.9,305.5,356.5z"/>
	<path class="st32" d="M298.7,469.9c-4.9-15.9-13.1-30.3-19.8-45.6c-4.9-11-8.6-22.6-11.6-34.4l0,0c-9.4-10.4-13.9-23.6-19-36.4
		c0.9,12.4,4.7,24.6,7.6,36.6c3.4,14.1,8.1,27.8,14.1,41c5.9,12.9,14,23.9,21.8,35.6c3.7,5.4,7,11.1,9.3,17.1
		c-0.4-2.2-0.8-4.4-1.2-6.6C299.6,474.7,299.2,472.3,298.7,469.9z"/>
	<path class="st31" d="M293.2,287.5c1.6-0.6,3.2-1.4,4.9-1.5c0.2,0,0.2,0.2,0.1,0.3c-1.5,0.7-3.2,1.1-4.8,1.7
		c-1.5,0.6-3.1,1.3-4.7,1.6c-0.2,0.2-0.4,0.4-0.6,0.5c0.1,0,0.2,0,0.3,0l0,0c0.5-0.2,1-0.3,1.5-0.4c1.1-0.5,2.3-0.7,3.5-0.9
		c1.2-0.2,2.5-0.6,3.7-0.4c0.1,0,0.1,0.1,0,0.2c-1,0.3-2.1,0.4-3.2,0.6c-0.9,0.1-1.8,0.4-2.6,0.5c0.8,0,1.7,0.2,2.5,0.3
		c1.8,0.3,4.2,0.8,5.6,1.9c0.1,0.1,0,0.2-0.1,0.2c-1.7-0.2-3.4-1.1-5-1.5c-1.9-0.5-3.7-0.5-5.6-0.4c3.3,0,6.4,0.9,9.5,2.2
		c1.9,0.8,3.6,1.9,5.2,3.2c0.1,0-1.5-2.7-1.5-2.9c-1-1.6-2.5-2.7-4-3.6c-0.2-0.1-0.3-0.6,0-0.7c1.5-0.3,3.1-0.5,4.6,0.1
		c1.1,0.4,2,0.9,3,1.6c-1.5-1-3.4-2.2-5.1-2.9c-0.4-0.1-0.2-0.6,0.1-0.7c5.4-1,11-0.2,15.8,2.5c-3.3-3.8-7.8-5.6-13-5.7
		c-5.6-0.1-10.1,2.5-14.1,6C290.4,288.6,291.8,288.1,293.2,287.5z"/>
	<path class="st31" d="M286.5,233.5c2.1-0.9,4.1-1.7,6.3-1.6l0,0c-1.5,0.3-2.9,0.8-4.3,1.4c1.5-0.4,3.1-0.6,4.5,0.1c0,0,0,0.1,0,0
		c-2.2-0.4-4.1,0.1-6.2,0.8c-0.4,0.1-0.7,0.3-1.1,0.4c-0.1,0-0.1,0-0.2,0.1c0.9-0.1,1.8-0.1,2.7-0.2c1.5-0.1,3.2-0.5,4.7-0.1v0.1
		c-2.4-0.1-4.7,0.4-7.1,0.8c6-0.7,12.4-0.2,17.8,2.3c-1.4-1.8-3.1-3-5.2-4.1c-0.3-0.2-0.4-0.8,0.1-0.9c1.7-0.4,3.2-0.4,5-0.3
		c-0.5,0-3.5-0.6-4.8-0.8c-0.3-0.1-0.5-0.6-0.2-0.7c2.4-1.2,4.9-1.9,7.4-2.8c3.4-1.3-3.4-1-2.9-1c-2.1,0-4.2,0.6-6.2,1.2
		c-3.4,1.1-6.6,2.9-9.6,4.7C286.8,233.1,286.7,233.3,286.5,233.5z"/>
	<path class="st31" d="M279.8,235.6c-0.1,0.1-0.1,0.1-0.2,0.1v0.1c2.4-1.2,4.7-2.5,7-3.8c2.6-2.2,5.4-4.1,8.4-5.6
		c2-1,4.1-1.7,6.3-2.3c0.9-0.2,1.7-0.3,2.6-0.4c-1.7,0.2-3-0.1-4.8,0.4c-0.4,0.1-0.7-0.4-0.3-0.7c1-0.7,2-1.3,3-1.9
		c2.2-1.2-0.2-1.2-1.3-1.1c-0.5,0.1-1,0.2-1.5,0.3C292.8,226,285.7,229.8,279.8,235.6z"/>
	<path class="st31" d="M287.4,290.7v0.1c2.5,2.3,3.6,5.5,4.4,8.7c0-0.7-0.1-1.4-0.3-2.1c-0.1-0.3,0.2-0.6,0.5-0.4
		c1.7,0.8,3,1.9,4.3,3.2c0.4,0.4,0.7,0.8,1,1.2c-0.1-0.4-0.3-0.7-0.4-1.1c-1.7-4.4-4.8-8.3-9.3-9.8
		C287.5,290.7,287.4,290.7,287.4,290.7z"/>
	<path class="st31" d="M285.1,290.2c0.1,0,0.2,0,0.3,0c-0.2-0.2-0.4-0.4-0.5-0.6c-2.4-1-5-0.8-7.6-0.3c-2.1,0.4-4.5,1.4-6.6,1.1
		c-0.2,0-0.2-0.3,0-0.3c2.4-1,5.5-1.3,8.1-1.5c1.6-0.2,3.5-0.2,5.1,0.3c-4.3-2.4-9.9-1.6-14.6-0.5c-2.3,0.5-4.5,1.3-6.6,2.2
		c-1.3,0.5-2.5,1.2-3.8,1.9c-0.7,0.4-4.3,2.3-1,1.4c0.6-0.2,0.9,0.7,0.3,0.9c-3.5,1.5-6.6,3.8-7.7,7.5c0.1-0.3,3.1-1.4,3.7-1.6
		c2-0.9,4-1,5.9-2.2c0.6-0.3,1.1,0.5,0.6,0.8c-1.6,1-2.5,2.3-3,3.9c1.5-0.7,2.9-1.6,4.4-2.3c2.6-1.3,5.3-2,8-2.9
		c0.5-0.2,0.9,0.4,0.6,0.8c-1.3,1.7-1.9,3.4-2.4,5.3c2.9-2.4,5.2-5.9,8-8.4c2.4-2,5.1-3.8,8.1-4.8c0.4-0.2,0.8-0.4,1.1-0.6
		c-0.1,0-0.2,0-0.3,0c-1.5,0.4-2.9,0.9-4.4,1.5c-1.7,0.7-3.2,1.7-4.9,2.3c-0.2,0-0.3-0.2-0.2-0.3c2-1.6,5.3-3,8.1-3.5
		c-1.5,0-2.9,0-4.5,0.3c-2.1,0.4-3.8,1.4-5.7,2.3c-0.2,0.1-0.3-0.1-0.2-0.3C275.7,289.8,281.6,289.4,285.1,290.2z"/>
	<path class="st31" d="M279.1,299.7c0.9-1,1.9-1.9,2.8-2.9c0.3-0.3,0.7-0.1,0.7,0.3c0,0.2,0,0.3,0,0.4c0.5-2.3,1.1-4.7,2.7-6.4
		c-0.5,0.2-1.1,0.5-1.6,0.8C281.3,294,279.5,296.7,279.1,299.7z"/>
	<path class="st33" d="M250.3,170.3c-0.2-0.8-0.1-1.4-0.9-1.9c-2.6-1.5-5-3.4-8.1-2.6c-5.1,1.2-4.1,7.1-2.3,10.3
		c2.5,4.5,7.6,7.2,12.1,9.1c5.7,2.3,11.3,3.8,16.4,6.4C260.2,185.4,251.8,180,250.3,170.3z"/>
	<path class="st33" d="M253.6,124.4c-0.4,1.7,0.1,3.8,0.5,5.5c0.7,3.1,2.3,5.7,4.2,8.1c4.2,5.3,10.1,9.5,15.1,14
		c-4.2-5.7-10-10-13.2-16.5c-1.4-3-2.6-10.2,1.1-12.4c0,0-0.1,0-0.1-0.1C259,119.5,254.6,120.7,253.6,124.4z"/>
	<path class="st33" d="M297.6,138.1c-4,6.7-10,11.4-13.4,18.5c0.3-0.3,0.5-0.6,0.8-0.9c0.6-1.2,1.6-2.3,2.4-3.3c1-1.2,2.3-1.9,3-3.4
		h0.1c-0.1,1.3-1.3,2.2-2.2,3.1c-0.3,0.3-0.6,0.7-0.9,1.1c7.8-7.3,17.5-12.7,22.3-22.7c2.3-4.8,4-15-3.8-15.3
		c-4.4-0.1-8.7,3.1-10.6,7c0.8,0.2,1.5,0.6,2.2,1.1C302.4,126.9,300,134.1,297.6,138.1z"/>
	<path class="st33" d="M296,280.9c4.1-2.7,9-4.2,13.1-7.1c2.9-2.1,5.6-4.9,7.3-8.1c3.3-6-3.2-11.1-8.4-6.4c-0.1,0.1-0.3,0.2-0.5,0.2
		c-0.2,1.9-0.6,3.7-1.1,5.2C304.3,270.6,300.4,276,296,280.9z"/>
	<path class="st33" d="M289.5,280.2c0.2-0.7,0.3-1.3,0.5-2h0.1c0.2,1.9-0.4,4.2-1.3,6.1c-0.1,0.3-0.1,0.6-0.2,1
		c0.5-0.9,1-1.9,1.4-2.8c0.9-2.2,1.4-4.5,2.1-6.8c0,0,0,0,0.1,0c-0.2,2.1-0.6,4.7-1.4,7.1c0.9-1.3,1.8-2.6,2.7-4h0.1
		c-0.8,1.8-1.8,3.5-2.8,5.2c-0.6,0.9-1,2-1.6,3.1c4.5-5.4,9.5-10.5,13.3-16.5c3.9-6.1,7.3-17.6-0.3-22.4c-4.2-2.7-8.4,2.4-10.1,5.7
		c-1.1,2.2-1.6,4.7-1.8,7.2c-0.1,4.1-0.3,8.1-0.2,12.2C289.9,275.6,289.8,277.9,289.5,280.2z"/>
	<path class="st33" d="M291.6,214.5c-2.1,2.4-4.4,4.6-6.4,7.1c-2.1,2.7-3.6,6-4.5,9.3c0.2-0.4,0.5-0.8,0.7-1.2
		c0.6-1.2,1.2-2.4,1.9-3.6l0,0c-0.4,1.2-0.9,2.3-1.4,3.4c-0.1,0.2-0.2,0.5-0.3,0.7c0.4-0.6,0.7-1.2,1.2-1.7c0.7-0.9,1.5-2.8,2.7-3.1
		l0,0c-0.9,0.8-1.4,1.8-2,2.8c0.4-0.3,0.8-0.6,1.3-0.8l0,0c-1.3,1-2.2,2.4-3,3.7c-0.2,0.4-0.5,0.9-0.8,1.3
		c6.6-6,14.6-10.1,20.9-16.4c3.4-3.4,6.1-7.7,7.3-12.3c0.8-3.1,1-7.1-2.9-8.4c-3.8-1.3-7.3,2.7-8.6,5.8
		C298.7,206.2,294.8,211,291.6,214.5z"/>
	<path class="st33" d="M269.8,276.2c4.3,2.4,8.3,4.9,11.8,8.1c-0.1-0.1-0.2-0.3-0.3-0.4c-1.4-1.8-3-3.2-4.6-4.7l0,0
		c1.5,0.8,3,2.1,4.4,3.6c-1.5-2.1-3.1-4.2-4.9-6.1c0,0,0-0.1,0,0c2.9,2.4,5.5,5.5,7.6,8.8c-0.6-1.5-1.2-3-1.9-4.4
		c-3.6-6.1-6.5-12.6-10.3-18.6c-2.2-3.5-4.9-6.7-8.4-9c-5.3-3.5-11.8-1.5-11.1,5.6C252.8,267.3,263.3,272.6,269.8,276.2z"/>
	<path class="st33" d="M276.6,282.3c-5.1-3.5-10.6-6.3-15.9-9.8c-3.4-2.3-7.3-6-9.2-10.2c-5.6,0.9-11.6,6.8-6.2,11.9
		c3,2.8,7.9,3.6,11.8,4.3c4.7,0.9,9.4,1.7,14.1,2.7C272.8,281.6,274.8,281.9,276.6,282.3z"/>
	<path class="st33" d="M278.1,238.5c-7.8,4.3-4.4,18-2.4,24.6c2.2,7.3,6.1,14,9.1,21c-0.9-3.2-1.8-6.4-2.9-9.6c0,0,0-0.1,0,0
		c1.2,2.9,2.6,5.9,3.4,9c-0.5-4.1-0.9-8.1-1.9-12.1l0,0c1.3,3.5,2.1,7.3,2.6,11.1c0-2.6,0.1-5.2,0.5-7.7c0-0.1,0.1-0.1,0.1,0
		c-0.2,3,0.4,6.2,0.2,9.3c0.7-4.4,1.3-8.9,1.5-13.4c0.1-3.3,0.1-6.6,0.4-9.9c0-0.6,0-1.2,0-1.9c0.1-4.5,0-9.2-1.6-13.5
		C286,241.8,282.6,236,278.1,238.5z"/>
	<path class="st33" d="M291.9,182.6c-2.1,2.4-4.3,4.6-6.2,7.1c-0.7,0.9-1.3,1.9-1.9,2.9c0.6-0.5,1.2-1,1.7-1.4
		c0.9-0.9,2-1.7,3.3-1.9l0,0c-1.1,0.7-2.1,1.5-3,2.4c0.6-0.3,1.2-0.6,1.7-0.8l0,0c-0.6,0.6-1.3,1-2,1.4c-0.5,0.4-1,0.8-1.5,1.2
		c-0.1,0.1-0.2,0.3-0.3,0.4c4.5-3.1,9.8-4.3,14.8-7c3.9-2,7.2-5.1,9.6-8.8c1.6-2.5,2.2-5.6-0.1-8.1c-2.3-2.5-6.2-1.9-9-0.9
		C299,174.3,295.1,179,291.9,182.6z"/>
	<path class="st33" d="M272.7,229.6c-1.2-1.1-2.6-1.9-3.9-3v-0.1c1.1,0.2,2.1,0.9,3,1.6c-3.9-5.1-7.9-10.1-10.9-15.8
		c-0.9-1.6-1.8-4-2.4-6.5c-2.2-2-5.1-2.7-8-2.7c-4.8,0-5.7,5.5-4.8,9.1c1.3,5.2,5.9,8.7,10.3,11.2c5.7,3.2,12.7,4.4,18.2,7.9
		c-0.2-0.3-0.4-0.5-0.6-0.8C273.3,230.1,273,229.8,272.7,229.6z"/>
	<path class="st34" d="M282.2,117.9c0.6-1.8,1.1-4.1,2.4-5.5c0.1-0.2,0.4,0,0.4,0.2c-0.6,1.9-1.5,3.7-2.2,5.6
		c-0.5,1.4-1.1,2.9-1.9,4.1c-0.1,0.2-0.1,0.3-0.1,0.5c0.3-0.3,0.7-0.5,1-0.7c0.9-1.1,1.6-2.3,2.3-3.7c0.8-1.7,1.2-4,2.4-5.4
		c0.1-0.2,0.3,0,0.3,0.2c-0.2,2-1.5,4.2-2.4,6c-0.3,0.6-0.7,1.3-1.1,1.9c0.6-0.5,1.3-1,1.9-1.7c1.3-1.4,1.8-3.1,2.9-4.5
		c0.1-0.1,0.3-0.1,0.3,0.1c0,1.8-1.7,3.6-2.8,4.8c-1,1.1-2.3,2.2-3.7,2.9c-0.3,0.3-0.7,0.6-1,0.9c0,0,0,0,0,0.1
		c12.8-7,16.3-27.5,16.9-33.1c0.4-2.5-0.5-9.1-3.7-8.3c-6.1,1.5-9.4,13.6-9.2,17.5c0.2,3.2-1.7,13.9-3.3,20.2
		C281.7,119.2,282,118.6,282.2,117.9z"/>
	<path class="st34" d="M278.7,123.8c-1.6-1.2-3.1-2.5-4.8-3.7c-1.6-1.1-3.6-2.1-4.8-3.7c-0.1-0.1,0.1-0.3,0.2-0.2
		c0.7,0.3,1.3,0.8,1.9,1.2c-1.3-1.2-2.5-2.6-3.5-4c-0.1-0.2,0.1-0.3,0.2-0.2c1.9,1.5,3.5,3.6,5.3,5.4c0.6,0.6,1.1,1.1,1.7,1.6
		c0.3,0.2,0.6,0.4,0.9,0.7c-3-2.9-6-6.2-7.4-9.9c-0.1-0.2,0.2-0.3,0.3-0.2c2.9,4.5,6.1,8.3,9.7,12.2c0,0,0-0.1-0.1-0.1
		c-1.4-1.8-2.5-3.7-3.6-5.7s-2.5-3.8-3.4-5.8c-0.1-0.1,0.1-0.2,0.2-0.2c1.6,1.6,2.6,3.8,3.6,5.7c0.9,1.6,1.8,3.2,2.8,4.8
		c-1.5-4-3.5-7.7-5.4-11.6c-1.5-3.3-5.4-17.9-9.1-20.8c-4.4-2.8-7.4-0.7-7.4,5.2c0,3.8,2,7.6,3.8,10.8
		C264.1,113.1,271.3,119.2,278.7,123.8L278.7,123.8z"/>
	<path class="st34" d="M274.5,110c-0.1-0.4-0.2-0.7-0.2-1.1c0-0.2,0.3-0.2,0.3-0.1c0.9,2.4,1.7,4.7,2.8,7.1c0.5,1,1,2,1.4,3
		c-1.1-4.5-2.3-9-2.6-13.5c0-0.2,0.2-0.2,0.3,0c1.1,5.4,2.8,10.9,3.3,16.4c0,0,0,0,0,0.1c0-0.6,0-1.1,0.1-1.7
		c-0.2-5.2-0.4-10.4-0.5-15.6c0-0.1,0.2-0.2,0.2,0c0.9,3.9,0,7.9,0.4,11.9c0,0.2,0,0.4,0.1,0.6c0.4-3.8,1-7.5,1.4-11.3
		c0-0.2,0.4-0.2,0.4,0c0.4,4.5-0.7,9.1-1.5,13.7c0,0.3,0.1,0.6,0.1,1c0.3-1.3,0.7-2.6,1-3.9c4-17.5,1-41.6-6.9-40.8
		c-3.6,0.3-4.7,6.6-4.8,7.3c-0.9,4.6-0.4,9.1,0.3,13.7C270.9,101.5,272.6,105.8,274.5,110z"/>
	<path class="st34" d="M260.9,132.6c0.7,2.8,2.4,5.2,4.1,7.5c3,4.1,6.9,7.3,9.8,11.5c-0.1-0.2-0.1-0.4-0.2-0.6
		c-0.5-1.3-0.8-2.6-1.3-3.9c0,0,0-0.1,0.1,0c0.7,0.9,1,1.9,1.4,3c0.4,1.2,1,2.1,1.5,3.2c0.1,0,0.2,0.1,0.3,0.1c-1-1.8-1.4-4.3-1.5-6
		c0-0.1,0.2-0.1,0.2,0c0.5,1.1,0.7,2.3,1,3.5c0.3,1.1,0.8,2,1.3,3c0.2,0.1,0.4,0.2,0.7,0.3c-1.1-2.2-1.4-5.1-1.6-7.3
		c0,0,0.1-0.1,0.1,0c0.4,1.3,0.6,2.7,1,4c0.3,1.3,0.9,2.4,1.3,3.6l0,0c-0.3-0.8-0.4-1.8-0.5-2.6c-0.3-1.6-0.7-3.2-1.2-4.7l0,0
		c0.9,0.9,1.2,2.3,1.4,3.6c0.3,1.3,0.7,2.7,0.9,4.1c0.2,0.1,0.4,0.2,0.5,0.3c-0.8-4-3.1-14.2-3.1-14.4c-1.9-6.5-4.8-12.7-10.4-16.1
		c-2.4-1.5-5-0.9-6.1,2.5C260.1,128.7,260.5,130.9,260.9,132.6z"/>
	<path class="st34" d="M271.7,153.9c0.1,0.1,0.2,0.2,0.3,0.4c0.5-0.2,1-0.4,1.5-0.6c-5.2-3.5-10.2-8.3-14.6-12.8
		c-3.2-3.3-5.5-7.2-6.3-11.7c-0.4-2.6-0.8-7,2.1-8.5c1.2-0.6,2.4-0.8,3.5-0.6c-0.8-2-1.6-3.8-3.1-5.3c-3.2-3.3-8.4-0.9-10.5,2.3
		c-3.3,5,0.8,11.7,3.9,15.7c3.1,4.1,7.3,7.4,11.4,10.5c2.3,1.8,4.5,3.6,6.7,5.5c1.1,1,2.1,2,3.2,3.1c0.3,0.3,1.8,1.8,1.8,2
		C271.5,153.9,271.6,153.9,271.7,153.9z"/>
	<path class="st34" d="M267.6,186.6c2.1,2.6,4.3,5.1,6.1,7.8c-0.3-0.7-0.6-1.3-1-2c-0.9-1.6-2-3.1-2.9-4.7c0,0,0-0.1,0,0
		c1,1.2,2.1,2.5,3.1,3.9c-2.8-5.9-5.9-11.7-7.2-18.2c-0.3-1.2-0.4-2.5-0.5-3.9c-1-1.9-2.2-3.6-3.8-5.1c-4.1-4-9.7-2.9-9.8,3.2
		c0,5.7,4.3,10.9,8.1,14.8c3.3,3.3,7.1,6.1,10.6,9.3c0.8,0.8,1.7,1.5,2.6,2.3c-0.4-0.6-0.8-1.3-1.2-1.9
		C270.4,190.2,268.8,188.5,267.6,186.6C267.4,186.6,267.5,186.5,267.6,186.6z"/>
	<path class="st34" d="M280.2,227.8c0.9-2.6,2.2-5,3.8-7.2c3-4,6.9-7.1,9.9-11.1c3.5-4.7,4.1-15.4-4.3-15.1
		c-5.4,0.2-9.6,6.4-10.7,11.2C281.7,212.8,281,220.2,280.2,227.8z"/>
	<path class="st34" d="M278.5,233.8c0.1-0.5,0.2-1,0.3-1.5c0.2-6.6,1.5-13.2,0.7-19.8c-0.6-5-2.7-9.8-6.3-13.3
		c-3.1-3-8.5-6-12.1-2.2c-5.1,5.3,1.2,15.1,4.2,19.7c3.7,5.7,8.3,10.9,12.1,16.6c-0.7-1.1-1.1-2.4-1.7-3.6c-0.6-1.3-1.5-2.6-2.1-3.9
		c0,0,0-0.1,0.1,0c1,1,2,2.4,2.8,4c-0.7-2.2-1.3-4.4-2.2-6.6c0-0.1,0.2-0.2,0.2-0.1c1.2,2.5,2.3,5.1,3.1,7.7
		c-0.2-2.1-0.3-4.3-0.3-6.3l0,0C278,227.4,278.5,230.7,278.5,233.8z"/>
	<path class="st34" d="M282.8,191.2c0.1-0.1,0.1-0.2,0.2-0.3c0.9-1.9,1.5-3.8,2.3-5.8l0,0c-0.1,1.1-0.4,2.3-0.8,3.4
		c2.6-3.7,6.1-6.8,9-10.3s6.1-9.4,3.2-13.8c-3.1-4.8-8.8,1.2-9.8,4.7c0,0.1,0,0.2,0,0.3c0.7,9.5-4.1,17.8-6.6,26.5
		C281.1,194.4,281.9,192.8,282.8,191.2z"/>
	<path class="st34" d="M285.5,147.7c0,1.3-0.6,2.5-1,3.7c-0.3,0.8-0.5,1.5-0.7,2.3c1.7-3.4,4-6.3,6.6-9.2c4-4.4,8.9-9.4,8.5-15.8
		c-0.3-4.6-4.7-6.3-8.6-5c-2.9,1-4.9,3.8-6.4,6.3c-1.8,3-5.5,9.6-3.7,21.5c0.1-1.8,0.5-3.6,0.5-5.4h0.1c0.2,1.5-0.1,2.9-0.1,4.4
		c-0.1,1.7,0.3,3.3,0.3,5c0,0.1,0,0.1,0,0.2c0.2,0.2,0.4,0.5,0.6,0.7c-0.8-2.6-0.5-6.2,0.5-8.5h0.1c0,1.4-0.3,2.8-0.3,4.2
		c-0.1,1.6,0.3,3.2,0.4,4.7c0-3,0.2-6.1,1.5-8.8l0,0c-0.5,2.8-1,5.4-1,8.3c0-0.1,0-0.1,0.1-0.2C283,153.2,284.3,150.1,285.5,147.7
		C285.5,147.6,285.5,147.6,285.5,147.7z"/>
	<path class="st34" d="M275.9,154.8c-5.6-1.2-8.6,5.9-9.3,10.2c-0.7,4.5,0.5,9.2,1.9,13.4c1.9,5.8,4.9,10.9,7.4,16.4
		c-0.7-2.7-1.2-5.5-1.6-8.1c0,0,0,0,0.1,0c1,2.7,2,5.6,2.8,8.6c-0.4-3.5-0.7-7-0.8-10.5c0-0.2,0.3-0.2,0.3,0
		c0.3,2.8,0.4,5.7,0.7,8.5c0.1,0.6,0.1,1.2,0.2,1.9c0-0.2,0-0.4,0-0.5c0-2.2,1-4.3,1.3-6.4h0.1c0.1,2.2-0.7,4.2-0.8,6.4
		c0,0.5,0,0.9,0.1,1.4c0.3-2.1,1-4.2,1.4-5.8c0-0.1,0.2-0.1,0.1,0c0.1,1.6-0.3,3.2-0.5,4.7c-0.1,0.6-0.1,1.3-0.2,1.9
		c1.3-5.7,4.1-11.3,5.5-16.8C286.7,171.7,286.7,157,275.9,154.8z"/>
	<path class="st35" d="M334.4,409.3c-4,1.9-7.4,4.3-10.4,7.1c0.7-1.3,0.5-3.5,0.4-4.8c-0.1-2.9,0.1-6.3,2.3-8.7
		c0.1-0.1,0-0.3-0.1-0.4c-0.3-0.1-0.7-0.1-0.9,0.1c-7.7,0.9-8.1,18.3-10.1,24.1c-4.7,7.2-7,14.5-8.9,22.9c0,0.2,0,0.3-0.1,0.5
		c-2.1-11.7,2-24.4,4.7-35.6c3.1-13,5.6-25.7,5.6-39.1c0-0.1,2.5-14.3,7.7-19.2c0.1-0.1-0.1-0.5-0.1-0.5c-3.7-0.3-6,2.3-8.1,5.2
		c1.1-3.7,0-13.7,1.1-18.9c0.1-0.2-0.3-0.3-0.4-0.1c-0.3,0.8-3,6.8-3.9,9.1c-1.7,4.2-3.1,9-3.9,13.5c-0.8,4.3-1,10.2-2.8,13.7
		c-6.3,12.2-11.2,26.5-13.4,40.8c-0.3-2.1-0.5-4.2-0.9-6.3c-3.4-21.8,0.9-28.6,3.8-35.8c1.6-3.8,3.3-7.7,5.5-11.2
		c2-3.2,4.3-6.3,5.8-9.7c6.1-13.5,4.4-31,15.3-42.3c0.2-0.2-0.1-0.5-0.3-0.3c-0.3,0.3-0.6,0.6-0.9,0.9c-5.9,5.4-11.8,10.5-15.5,17.7
		c-3.7,7-6.3,14.6-8.8,22.2c-2.8,8.2-4.8,16.7-6,25.3c-0.4,2.9-1,6-1.4,9.1c-2.9-32-3.7-64.5-2.3-96.5c2.5,3.1,3.3,6.7,4.3,10.5
		c0.1,0.4,0.8,0.3,0.8-0.1c0.1-1.5,0.2-2.9-0.1-4.3c2.3,1.3,4.1,3.2,5.5,5.4c0.2,0.3,0.7,0,0.6-0.3c-1.5-5.4-4.8-11-10.3-12.7
		c5.6,0.5,11.2,2.4,15.3,6.3c0.3,0.3,0.7-0.1,0.6-0.4c-0.6-2.2-1.5-4.4-3.3-5.9c-0.7-0.6-4-2.7,0.2-1.7c1.8,0.4,3.3,1.2,4.7,2.4
		c0.3,0.3,0.8-0.2,0.5-0.5c-1.1-1.2-2.1-2.3-3.4-3.3c-1.8-1.3-0.8-0.7,1.1-0.7c4.9,0,9.6,1.2,13.6,4.1c0.4,0.3,0.9-0.1,0.6-0.6
		c-3.2-5.1-9-8-15.1-7.9c-4.7,0.1-8.5,1.5-12.1,3.8c1-1,1.9-1.9,2.8-2.9c8-5.4,19.2-7.4,23.7-17c3.5-7.4-3.6-13.2-9.9-8.3
		c0.1-4.4-1.2-9-5.1-10.9c-5.8-2.7-10.6,2.7-12.5,8c-0.1-1.2-0.1-2.5-0.3-3.7c-0.5-4.7-3.1-14.3-9.1-14.6c0.2-0.1,0.3-0.2,0.5-0.3
		c8-0.7,16.4-1.4,23.6,2.9c0.4,0.3,0.8-0.3,0.6-0.7c-0.9-1.7-2-3.2-3.7-4.2c-0.9-0.6-3.2-1.2-0.5-1.2c1.2,0,2.4,0,3.6-0.1
		c0.4,0,0.4-0.6,0.1-0.8c-1.1-0.7-2.1-1.2-3.3-1.6c-0.4-0.1-2,0.3-0.4-0.3c2.5-0.9,5-1.5,7.3-2.9c0.3-0.2,0.2-0.7-0.2-0.7
		c-5.9-1.4-11.2,0.1-16.3,2.4c4-2.7,8.5-4.5,13.5-4.8c0.4,0,0.5-0.6,0.2-0.8c-1.4-0.8-2.8-1.2-4.4-0.9c0.1,0,0.2-0.1,0.2-0.1
		c1-0.6,2.1-1.2,3.1-1.8c0.2-0.1,0.2-0.5,0-0.6c-1.3-0.6-2.8-0.6-4.2-0.4c0.1-0.1,0.1-0.1,0.2-0.2c4.4-3.9,8.8-8.9,10.2-14.8
		c0.7-3.2,1.3-8.9-2.8-10.2c-4.4-1.4-8.4,1.6-10,5.5c0-0.2-0.1-0.3-0.1-0.5c-1.7-5-5.8-7.9-10.9-5.7c-3.1,1.4-5.8,4.4-7.1,7.8
		c0.5-1.3,1.2-3.1,1.6-4h0.1c4.5-5.2,11.2-6.3,17.1-9.1c4.1-2,8.3-5.1,10.6-9.1c1.6-2.6,3.4-7.1,0.7-9.7c-3-2.9-6.9-3-10.5-1.3
		c0-0.3,0-0.7-0.1-1c-1.1-8.2-10.4-6.3-12.3,0.1c-0.4-2.6-1.4-5.8-2.9-8.5c0.1,0,0.2-0.1,0.3-0.2c5.5-7.7,14.3-11.9,20.6-18.9
		c4.7-5.2,9.3-12.4,8.1-19.8c-1.7-10.2-15.1-5.7-17.7,1.8c-3.5-0.9-7.4,1-9.8,3.9c-2.9,3.7-4.6,8.2-5.9,12.8
		c-0.3-4.8,0.2-10.1,1.2-14.7c14.2-4.9,22.9-38.7,15-43c-5.8-3.2-10.4,9.5-11.1,12.1c-0.5-5.8-3.3-19.9-9.5-19
		c-2.1,0.3-5.4,2.6-6.3,7.5c-0.7,4.1-0.9,8.1-0.4,12.3c0,0.1,0,0.2,0,0.3c-0.7-1.1-1.9-4.8-4.1-6.4c-5.9-4.3-14.8,1-4.1,20.1
		c3.9,7.1,11.3,12.6,18.5,16.3c-0.8,2.4-1,5-1.3,7.4c-0.2,1.7-0.4,3.4-0.4,5c-0.5-1.4-1.1-2.7-1.8-4c-2.3-4.3-6.4-11.2-12.3-10.2
		c-0.4,0.1-0.7,0.2-1.1,0.4v-0.1c-0.6-1.4-1.7-2.2-2.9-2.6l0,0c-1.4-4.4-4.6-9.3-10-7.5c-5,1.6-7.6,6.6-6.2,11.7
		c2,7.4,7.6,13,13.4,17.7c3.6,2.9,7.3,5.6,10.6,8.8c0.8,0.8,2.6,3.4,4,4.1c-4.1,2.7-5.6,8.2-5.6,13.3c-2-3.7-5.5-8.2-9.9-7.6
		c-3.8,0.5-5,3.5-5.1,6.7c0-0.1,0-0.1-0.1-0.2c-3.8-2.4-10.2-4.7-12.9,0.6c-2.1,4-0.1,8.6,2.8,11.7c4.1,4.3,9.3,6.6,14.9,8.4
		c6.7,2.2,12.8,4.3,18.2,8.9c0.3,0.3,0.6,0.7,0.9,1c-3.3-3.2-7.7-5.2-11.8-3.4c-4.1,1.9-4.5,6.3-3.6,10.6c-2.6-2.6-8.1-4.3-11.2-2.1
		c-4.2,3-3.8,8.4-1.7,12.6c2.5,5.1,7.8,8.4,12.8,10.6c6.4,2.8,14,4,18.8,9.4c-4.4-1.3-8.5-2.6-13.2-3.3c-6.1-0.9-10.4-3.1-15.2-6.8
		c-0.4-0.3-1.1,0.2-0.7,0.6c2.6,3,5.1,5.8,8.4,8.1c-1.2-0.1-2.4-0.2-3.6-0.6c-0.6-0.2-1,0.6-0.4,0.9c1.6,0.9,3.4,2.6,5.3,2.9
		c0.9,0.1,1.8,0.1,2.7,0.1c-0.8,0.4-1.6,0.8-2.3,1.3c-0.3,0.2-0.3,0.7,0.1,0.8c3,1.1,5.9,0.3,8.9-0.5c3.6-0.9,7.8-1,11.3-2.2
		c0,0,0,0.1,0,0.2c-7.4,2.3-6.7,15-5.6,20.5c0.7,3.4,1.7,6.6,3,9.7c-2.2-4.1-4.7-8.1-7.8-11.3c-3.5-3.7-12.1-9.4-16.1-3
		c-1.7,2.7-1.7,5.6-0.8,8.3c-4.5,0.6-8.6,3.2-9.2,8.1c-0.4,3.5,2.5,6.3,5.4,7.7c4.2,2,8.8,2.6,13.3,3.3c3,0.4,5.9,1,8.9,1.6
		c3.1,3.3,7.8,3.1,11.7,4.7c-8.5-2.3-20.1,2.5-26,7.2c-0.3,0.3-0.2,0.7,0.2,0.9c0.2,0.1,0.3,0.1,0.5,0.1c-3.3,1.8-6,4.4-6.6,8.3
		c-0.1,0.3,0.3,0.7,0.6,0.5c1.9-0.8,3.7-2,5.7-2.5c0.7-0.2,1.4-0.4,2-0.6c-0.7,1-1.2,2.1-1.5,3.5c-0.1,0.4,0.3,0.7,0.7,0.6
		c2.3-0.8,4.2-2.3,6.4-3.3c1.8-0.8,3.7-1.4,5.6-1.9c-1.2,1.9-1.8,3.8-2.2,6c-0.1,0.5,0.5,0.8,0.9,0.6c2.9-1.9,4.7-5.2,7.2-7.6
		c2.2-2.2,4.5-3.9,7-5.4c-2.1,2.2-3.4,5.1-3.5,8c0,0.3,0.5,0.4,0.6,0.2c0.8-1.2,1.8-2.1,2.9-3.1c-0.1,1-0.2,2-0.1,3.1
		c0,0.3,0.6,0.5,0.7,0.1c1-2.9,1.1-6.6,3-9.1c-1.4,19.7-1.6,62.4,1.1,87.6c-12.8-30.9-47.5-70.8-52.9-84.1c-0.1-0.4-0.7-0.2-0.6,0.2
		c3.4,10.5,6.8,21,11,31.2c3.8,9.3,7.7,18.5,13.8,26.5c5.9,7.8,12.8,14.7,18.8,22.4c2,2.6,4.2,5.2,6.1,7.8c1.5,2.1,3.9,5,4.4,7.9
		c0,0.4,1.6,14.9,2.4,21c1.4,10.9,3.1,21.8,4.9,32.6c-1.9-8.6-4-17.2-6.8-25.6c-3-9-6.5-17.9-10.8-26.4c-3.9-7.8-9.2-14.7-12.6-22.7
		c-0.2-0.5-1.1-0.4-1,0.2c1,5.7,2.3,11.3,3.6,17c-9.3-10.8-13.7-24.6-18.8-37.7c-0.2-0.5-1-0.4-1,0.2c0.2,13,4.4,25.9,7.4,38.5
		c1.9,7.9,4.1,15.7,6.8,23.3c-4.3-7.9-12.3-14-18.4-20.3c-4.5-4.6-9.7-8.5-14.4-12.8c-0.7-0.6-1.5-1.3-2.2-2
		c-1.2-1.9-2.6-3.5-4.4-4.7c-0.3-0.2-0.7,0.1-0.5,0.4c1.2,1.3,2.4,2.6,3.7,3.8c0.8,1.2,1.5,2.4,2.2,3.7c5.6,10.7,12,21.7,20,30.8
		c4.2,4.7,8.7,9,13,13.6c3.5,3.8,7.5,8,11.2,11.9c5,9.6,10.9,18.4,17.2,27.3c5.3,7.6,10.2,15.4,13.2,24c0.9,5.9,2.4,18.2,2.4,18.4
		c-5.5-15-14.1-29.2-24-41.5c-11.6-14.5-24.1-27.8-32-44.9c-0.3-0.5-1.1-0.2-0.9,0.3c8.4,17.7,14.2,36.9,25.4,53.1
		c5.6,8.1,12,15.5,18.3,23.1c5.2,6.2,11.1,12.7,14.3,20.3c0.7,6.8,2.4,22.9,2.5,23.7c0.4,1.8,3.1,1.7,2.9-0.2
		c-0.1-1.1-0.2-2.3-0.4-3.4c2.4-7.2,3.7-14.8,4.9-22.3c1.4-9.5,3-18.9,4.5-28.4c2.8-17.7,5.6-35.8,4.5-53.8
		c3-7.6,6.4-15.1,10.5-22.4C335.1,409.6,334.8,409.2,334.4,409.3z M292.5,378.3c1.2-7.7,2.8-15.3,5.1-22.6c2.5-7.9,5-16.1,8.9-23.4
		c3.5-6.5,8.4-11.1,13.4-16.2c-9,11.5-7.2,28.1-14.4,40.4c-4.3,7.4-9.2,14-12,22.3c-0.6,1.7-1.2,3.6-1.8,5.4
		C291.9,382.2,292.2,380.3,292.5,378.3z M293.9,82.1c3.2-0.8,4.1,5.8,3.7,8.3c-0.6,5.6-4.2,26.2-16.9,33.1c0,0,0,0,0-0.1
		c0.4-0.3,0.7-0.6,1-0.9c1.4-0.7,2.7-1.8,3.7-2.9c1.1-1.2,2.8-3,2.8-4.8c0-0.1-0.2-0.2-0.3-0.1c-1.1,1.4-1.7,3.1-2.9,4.5
		c-0.6,0.6-1.2,1.2-1.9,1.7c0.4-0.6,0.8-1.3,1.1-1.9c0.9-1.7,2.2-4,2.4-6c0-0.2-0.2-0.3-0.3-0.2c-1.2,1.4-1.6,3.7-2.4,5.4
		c-0.6,1.4-1.3,2.6-2.3,3.7c-0.3,0.2-0.7,0.5-1,0.7c0-0.2,0.1-0.3,0.1-0.5c0.9-1.2,1.4-2.8,1.9-4.1c0.7-1.9,1.6-3.7,2.2-5.6
		c0.1-0.2-0.2-0.3-0.4-0.2c-1.3,1.4-1.8,3.7-2.4,5.5c-0.2,0.7-0.5,1.3-0.8,2c1.6-6.3,3.5-17,3.3-20.2
		C284.5,95.8,287.8,83.7,293.9,82.1z M269.8,83.1c0.1-0.7,1.3-7,4.8-7.3c7.9-0.8,10.9,23.3,6.9,40.8c-0.3,1.3-0.7,2.6-1,3.9
		c0-0.3,0-0.6-0.1-1c0.8-4.5,1.8-9.2,1.5-13.7c0-0.2-0.3-0.2-0.4,0c-0.4,3.7-1.1,7.5-1.4,11.3c0-0.2-0.1-0.4-0.1-0.6
		c-0.4-3.9,0.5-8-0.4-11.9c0-0.1-0.2-0.1-0.2,0c0,5.2,0.3,10.4,0.5,15.6c0,0.6,0,1.1-0.1,1.7c0,0,0,0,0-0.1
		c-0.5-5.5-2.2-11.1-3.3-16.4c0-0.2-0.3-0.2-0.3,0c0.3,4.5,1.5,9,2.6,13.5c-0.4-1-0.9-2-1.4-3c-1.1-2.3-1.9-4.6-2.8-7.1
		c-0.1-0.2-0.3-0.1-0.3,0.1c0,0.4,0.1,0.7,0.2,1.1c-1.9-4.2-3.7-8.5-4.4-13.3C269.4,92.2,268.9,87.7,269.8,83.1z M260,105.3
		c-1.7-3.3-3.8-7.1-3.8-10.8c0-5.9,3-8,7.4-5.2c3.7,2.9,7.6,17.5,9.1,20.8c1.8,3.9,3.9,7.6,5.4,11.6c-1-1.6-1.9-3.2-2.8-4.8
		c-1.1-2-2-4.1-3.6-5.7c-0.1-0.1-0.3,0-0.2,0.2c0.9,2,2.3,3.9,3.4,5.8c1.1,2,2.2,3.9,3.6,5.7c0,0,0,0.1,0.1,0.1
		c-3.6-3.9-6.8-7.7-9.7-12.2c-0.1-0.2-0.4,0-0.3,0.2c1.4,3.7,4.4,7,7.4,9.9c-0.3-0.2-0.6-0.5-0.9-0.7c-0.6-0.5-1.2-1-1.7-1.6
		c-1.7-1.7-3.3-3.8-5.3-5.4c-0.1-0.1-0.3,0.1-0.2,0.2c0.9,1.4,2.2,2.8,3.5,4c-0.6-0.5-1.3-0.9-1.9-1.2c-0.1-0.1-0.3,0.1-0.2,0.2
		c1.2,1.6,3.2,2.6,4.8,3.7c1.6,1.2,3.2,2.5,4.8,3.7l0,0C271.3,119.2,264.1,113.1,260,105.3z M266.2,237.1c-0.2,0-0.3,0.2-0.1,0.4
		c0.6,0.3,1.1,0.5,1.7,0.5c-0.4,0.1-0.7,0.2-1.1,0.3c-1.7,0.5-3.5,1.1-5.3,1c-4.8-0.1,0.8-1.4,2-1.8c0.5-0.2,0.3-0.9-0.2-0.9
		c-2.5,0.1-5.1,0.4-7.4-1c-0.2-0.1-0.4-0.3-0.6-0.4c0.9,0.1,1.9,0.1,2.9,0.1c0.5,0,0.5-0.7,0.2-0.9c-2.5-1.5-4.6-3.4-6.6-5.5
		c3.2,2.1,6.5,3.7,10.7,4.2c3.1,0.4,6.3,0.5,9.4,1.4c1.5,0.4,2.9,0.9,4.4,1.3c-1.7-0.2-3.4-0.3-5.1-0.6c-1.6-0.2-3.2-0.7-4.9-0.8
		c-0.1,0-0.2,0.2-0.1,0.3c2.4,1,5.3,1.3,8.1,1.4c-0.5,0.1-0.9,0.1-1.4,0.2c-2.1,0.1-4.2-0.3-6.4-0.2c-0.2,0-0.2,0.3,0,0.3
		c1.6,0.4,3.4,0.5,5.1,0.4C269.8,237.2,268.2,237.3,266.2,237.1z M271.8,237.3c1.7-0.5,3.3-1.1,4.8-1.1
		C275.1,236.8,273.4,237.1,271.8,237.3z M296.8,300.4c0.1,0.4,0.3,0.8,0.4,1.1c-0.3-0.4-0.6-0.8-1-1.2c-1.3-1.4-2.6-2.5-4.3-3.2
		c-0.3-0.2-0.6,0.1-0.5,0.4c0.2,0.7,0.3,1.4,0.3,2.1c-0.8-3.2-1.9-6.4-4.4-8.7v-0.1c0,0,0.1-0.1,0.2-0.1
		C292,292.1,295.2,296,296.8,300.4z M303.2,283.3c5.1,0.1,9.7,1.9,13,5.7c-4.8-2.7-10.4-3.5-15.8-2.5c-0.3,0.1-0.5,0.6-0.1,0.7
		c1.8,0.7,3.6,1.9,5.1,2.9c-1-0.7-1.9-1.1-3-1.6c-1.5-0.6-3.1-0.4-4.6-0.1c-0.3,0.1-0.3,0.5,0,0.7c1.5,1,3,2.1,4,3.6
		c0,0.1,1.6,2.9,1.5,2.9c-1.6-1.3-3.3-2.4-5.2-3.2c-3-1.3-6.2-2.2-9.5-2.2c1.9-0.1,3.7-0.1,5.6,0.4c1.7,0.4,3.3,1.3,5,1.5
		c0.1,0,0.2-0.1,0.1-0.2c-1.4-1.1-3.9-1.6-5.6-1.9c-0.8-0.1-1.6-0.3-2.5-0.3c0.9-0.2,1.8-0.4,2.6-0.5c1.1-0.2,2.2-0.2,3.2-0.6
		c0.1,0,0.1-0.2,0-0.2c-1.2-0.2-2.5,0.2-3.7,0.4c-1.1,0.2-2.4,0.4-3.5,0.9c-0.5,0.1-1,0.2-1.5,0.4l0,0c-0.1,0-0.2,0-0.3,0
		c0.2-0.2,0.4-0.4,0.6-0.5c1.6-0.3,3.2-1,4.7-1.6c1.6-0.6,3.3-1,4.8-1.7c0.1-0.1,0.1-0.3-0.1-0.3c-1.7,0.2-3.3,0.9-4.9,1.5
		c-1.4,0.6-2.8,1-4.2,1.7C293,285.7,297.6,283.1,303.2,283.3z M308,259.3c5.1-4.7,11.6,0.4,8.4,6.4c-1.7,3.2-4.4,6-7.3,8.1
		c-4.1,2.9-8.9,4.4-13.1,7.1c4.4-4.9,8.3-10.3,10.5-16.2c0.5-1.5,0.9-3.3,1.1-5.2C307.7,259.5,307.9,259.4,308,259.3z M291.9,253.9
		c1.7-3.3,5.9-8.4,10.1-5.7c7.6,4.8,4.2,16.3,0.3,22.4c-3.8,6-8.8,11.1-13.3,16.5c0.5-1,1-2.1,1.6-3.1c1-1.7,2.1-3.4,2.8-5.2
		c0-0.1,0-0.1-0.1,0c-0.8,1.4-1.8,2.7-2.7,4c0.8-2.4,1.2-5,1.4-7.1c0,0,0,0-0.1,0c-0.7,2.3-1.2,4.6-2.1,6.8c-0.4,1-0.9,1.9-1.4,2.8
		c0.1-0.3,0.1-0.6,0.2-1c0.9-1.9,1.5-4.3,1.3-6.1h-0.1c-0.2,0.7-0.4,1.3-0.5,2c0.3-2.3,0.4-4.6,0.4-7c-0.1-4,0.2-8.1,0.2-12.2
		C290.3,258.6,290.8,256.1,291.9,253.9z M296.7,228.3c2-0.6,4.1-1.2,6.2-1.2c-0.5,0,6.3-0.3,2.9,1c-2.5,0.9-5,1.6-7.4,2.8
		c-0.3,0.2-0.2,0.7,0.2,0.7c1.3,0.2,4.4,0.8,4.8,0.8c-1.7,0-3.3,0-5,0.3c-0.4,0.1-0.4,0.7-0.1,0.9c2.1,1.2,3.8,2.4,5.2,4.1
		c-5.4-2.6-11.7-3-17.8-2.3c2.3-0.4,4.7-0.9,7.1-0.8c0,0,0,0,0-0.1c-1.5-0.4-3.1-0.1-4.7,0.1c-0.9,0.1-1.8,0.1-2.7,0.2
		c0.1,0,0.1,0,0.2-0.1c0.4-0.1,0.8-0.2,1.1-0.4c2.1-0.7,4-1.2,6.2-0.8l0,0c-1.4-0.7-3-0.5-4.5-0.1c1.4-0.6,2.8-1.1,4.3-1.4v-0.1
		c-2.2-0.1-4.2,0.7-6.3,1.6c0.2-0.2,0.4-0.3,0.5-0.5C290.1,231.1,293.2,229.3,296.7,228.3z M300.6,220.5c1.1-0.1,3.5-0.2,1.3,1.1
		c-1,0.6-2.1,1.2-3,1.9c-0.4,0.3-0.1,0.8,0.3,0.7c1.8-0.5,3-0.2,4.8-0.4c-0.9,0.1-1.8,0.2-2.6,0.4c-2.2,0.5-4.3,1.2-6.3,2.3
		c-3,1.5-5.8,3.4-8.4,5.6c-2.3,1.3-4.7,2.6-7,3.8c0-0.1,0-0.1,0-0.1c0.1,0,0.1-0.1,0.2-0.1c5.9-5.8,13-9.6,19.3-14.8
		C299.6,220.6,300.1,220.5,300.6,220.5z M297.8,201.2c1.4-3.1,4.8-7,8.6-5.8c3.9,1.3,3.7,5.3,2.9,8.4c-1.2,4.7-3.9,8.9-7.3,12.3
		c-6.4,6.3-14.3,10.5-20.9,16.4c0.3-0.4,0.6-0.9,0.8-1.3c0.9-1.4,1.7-2.7,3-3.7l0,0c-0.5,0.2-0.9,0.5-1.3,0.8c0.6-1,1.1-2,2-2.8l0,0
		c-1.3,0.3-2,2.2-2.7,3.1c-0.4,0.5-0.8,1.1-1.2,1.7c0.1-0.2,0.2-0.5,0.3-0.7c0.5-1.1,0.9-2.3,1.4-3.4l0,0c-0.7,1.2-1.3,2.4-1.9,3.6
		c-0.2,0.4-0.5,0.8-0.7,1.2c0.9-3.4,2.4-6.7,4.5-9.3c2-2.5,4.3-4.7,6.4-7.1C294.8,211,298.7,206.2,297.8,201.2z M289.6,194.3
		c8.4-0.3,7.8,10.4,4.3,15.1c-3,4-6.9,7.2-9.9,11.1c-1.6,2.2-2.9,4.6-3.8,7.2c0.9-7.5,1.5-15-1.3-22.3
		C280,200.7,284.1,194.4,289.6,194.3z M308.1,170.1c2.3,2.5,1.6,5.6,0.1,8.1c-2.3,3.7-5.7,6.8-9.6,8.8c-5.1,2.6-10.4,3.9-14.8,7
		c0.1-0.1,0.2-0.2,0.3-0.4c0.5-0.4,0.9-0.9,1.5-1.2c0.7-0.5,1.4-0.9,2-1.4l0,0c-0.5,0.2-1.1,0.4-1.7,0.8c0.9-0.9,1.9-1.7,3-2.4l0,0
		c-1.3,0.2-2.3,1.1-3.3,1.9c-0.5,0.4-1.1,0.9-1.7,1.4c0.6-1,1.2-2,1.9-2.9c1.9-2.5,4.1-4.8,6.2-7.1c3.2-3.6,7.1-8.2,7.2-13.4
		C301.8,168.2,305.8,167.6,308.1,170.1z M286.8,169.1c1.1-3.4,6.7-9.4,9.8-4.7c2.9,4.4-0.3,10.3-3.2,13.8c-2.9,3.5-6.4,6.6-9,10.3
		c0.4-1.1,0.7-2.2,0.8-3.4l0,0c-0.8,1.9-1.5,3.9-2.3,5.8c-0.1,0.1-0.1,0.2-0.2,0.3c-0.9,1.5-1.7,3.1-2.5,4.8
		c2.5-8.8,7.3-17.1,6.6-26.5C286.9,169.4,286.9,169.3,286.8,169.1z M306,115.3c7.8,0.2,6.1,10.5,3.8,15.3
		c-4.8,10-14.5,15.4-22.3,22.7c0.3-0.4,0.5-0.8,0.9-1.1c0.9-0.9,2-1.8,2.2-3.1c0,0,0-0.1-0.1,0c-0.7,1.5-2,2.2-3,3.4
		c-0.8,0.9-1.8,2.1-2.4,3.3c-0.3,0.3-0.6,0.6-0.8,0.9c3.4-7.1,9.3-11.8,13.4-18.5c2.4-4,4.8-11.2,0-14.7c-0.7-0.5-1.4-0.8-2.2-1.1
		C297.3,118.4,301.6,115.2,306,115.3z M283.9,130c1.5-2.5,3.5-5.4,6.4-6.3c4-1.3,8.3,0.3,8.6,5c0.4,6.4-4.5,11.4-8.5,15.8
		c-2.6,2.9-4.9,5.8-6.6,9.2c0.2-0.8,0.4-1.5,0.7-2.3c0.4-1.2,0.9-2.4,1-3.7c0,0-0.1-0.1-0.1,0c-1.1,2.4-2.4,5.5-2.7,8.3
		c0,0.1,0,0.1-0.1,0.2c0-2.8,0.5-5.5,1-8.3l0,0c-1.3,2.7-1.6,5.8-1.5,8.8c-0.1-1.6-0.4-3.1-0.4-4.7c0.1-1.4,0.3-2.8,0.3-4.2
		c0,0-0.1-0.1-0.1,0c-1,2.3-1.3,6-0.5,8.5c-0.2-0.2-0.4-0.5-0.6-0.7c0,0,0-0.1,0-0.2c0-1.6-0.4-3.3-0.3-5c0.1-1.5,0.3-2.9,0.1-4.4
		c0,0,0,0-0.1,0c0,1.9-0.4,3.6-0.5,5.4C278.4,139.6,282.1,133,283.9,130z M282.1,156.9L282.1,156.9L282.1,156.9L282.1,156.9z
		 M266.7,124.5c5.6,3.4,8.5,9.6,10.4,16.1c0,0.2,2.3,10.3,3.1,14.4c-0.1-0.1-0.3-0.2-0.5-0.3c-0.1-1.3-0.6-2.7-0.9-4.1
		c-0.3-1.2-0.5-2.6-1.4-3.6l0,0c0.5,1.6,0.9,3.1,1.2,4.7c0.1,0.8,0.2,1.8,0.5,2.6l0,0c-0.5-1.2-1-2.4-1.3-3.6c-0.4-1.3-0.6-2.7-1-4
		h-0.1c0.1,2.2,0.5,5.1,1.6,7.3c-0.2-0.1-0.5-0.2-0.7-0.3c-0.5-1-1-1.9-1.3-3c-0.3-1.2-0.6-2.4-1-3.5c0-0.1-0.2-0.1-0.2,0
		c0.1,1.7,0.5,4.3,1.5,6c-0.1-0.1-0.2-0.1-0.3-0.1c-0.5-1.1-1.2-2.1-1.5-3.2c-0.4-1.1-0.7-2.1-1.4-3h-0.1c0.5,1.3,0.8,2.6,1.3,3.9
		c0.1,0.2,0.2,0.4,0.2,0.6c-2.9-4.2-6.8-7.4-9.8-11.5c-1.7-2.2-3.3-4.7-4.1-7.5c-0.4-1.7-0.9-3.9-0.3-5.6
		C261.7,123.5,264.3,123,266.7,124.5z M261.2,123.1C261.2,123.1,261.3,123.1,261.2,123.1c-3.6,2.2-2.4,9.5-1,12.4
		c3.2,6.5,9,10.8,13.2,16.5c-5.1-4.5-10.9-8.7-15.1-14c-1.9-2.5-3.5-5.1-4.2-8.1c-0.4-1.6-0.9-3.8-0.5-5.5
		C254.6,120.7,259,119.5,261.2,123.1z M269.7,151.9c-1.1-1-2.1-2.1-3.2-3.1c-2.2-1.9-4.4-3.7-6.7-5.5c-4-3.1-8.2-6.4-11.4-10.5
		c-3.1-4-7.2-10.7-3.9-15.7c2.1-3.2,7.2-5.6,10.5-2.3c1.5,1.5,2.3,3.3,3.1,5.3c-1.1-0.2-2.4,0-3.5,0.6c-3,1.5-2.6,5.8-2.1,8.5
		c0.8,4.5,3.1,8.5,6.3,11.7c4.4,4.5,9.4,9.3,14.6,12.8c-0.5,0.1-1,0.3-1.5,0.6c-0.1-0.2-0.1-0.3-0.3-0.4c-0.1,0-0.1-0.1-0.2-0.1
		C271.5,153.7,270,152.1,269.7,151.9z M266.6,165c0.7-4.3,3.7-11.4,9.3-10.2c10.8,2.3,10.8,16.9,8.7,25.2
		c-1.4,5.5-4.2,11.1-5.5,16.8c0.1-0.6,0.1-1.3,0.2-1.9c0.3-1.6,0.6-3.1,0.5-4.7c0-0.1-0.1-0.1-0.1,0c-0.5,1.6-1.1,3.7-1.4,5.8
		c0-0.5,0-0.9-0.1-1.4c0.1-2.2,0.8-4.2,0.8-6.4h-0.1c-0.3,2.2-1.3,4.2-1.3,6.4c0,0.2,0,0.4,0,0.5c-0.1-0.6-0.2-1.2-0.2-1.9
		c-0.3-2.8-0.4-5.7-0.7-8.5c0-0.2-0.3-0.2-0.3,0c0.2,3.6,0.4,7.1,0.8,10.5c-0.8-2.9-1.8-5.8-2.8-8.6h-0.1c0.4,2.6,0.9,5.4,1.6,8.1
		c-2.5-5.5-5.5-10.6-7.4-16.4C267.1,174.2,265.9,169.5,266.6,165z M251,185.1c-4.6-1.9-9.6-4.6-12.1-9.1c-1.8-3.3-2.8-9.1,2.3-10.3
		c3.2-0.8,5.5,1.1,8.1,2.6c0.9,0.5,0.8,1,0.9,1.9c1.5,9.8,9.9,15.1,17.2,21.3C262.3,188.9,256.7,187.5,251,185.1z M271.7,192.2
		c0.4,0.6,0.8,1.3,1.2,1.9c-0.8-0.8-1.7-1.6-2.6-2.3c-3.5-3.1-7.3-5.9-10.6-9.3c-3.8-3.8-8.1-9-8.1-14.8c0-6.1,5.7-7.2,9.8-3.2
		c1.6,1.5,2.8,3.2,3.8,5.1c0.1,1.4,0.2,2.7,0.5,3.9c1.3,6.5,4.4,12.3,7.2,18.2c-1-1.4-2.1-2.8-3.1-3.9c0,0-0.1,0,0,0
		c0.9,1.6,2,3.1,2.9,4.7c0.4,0.7,0.7,1.3,1,2c-1.8-2.8-4-5.2-6.1-7.8c-0.1-0.1-0.2,0-0.1,0.1C268.8,188.6,270.4,190.3,271.7,192.2z
		 M256,223.3c-4.4-2.5-9-6-10.3-11.2c-0.9-3.5,0-9,4.8-9.1c2.9,0,5.8,0.8,8,2.7c0.6,2.5,1.5,4.8,2.4,6.5c3,5.8,7,10.8,10.9,15.8
		c-0.9-0.7-1.9-1.3-3-1.6c-0.1,0-0.1,0,0,0.1c1.3,1,2.7,1.8,3.9,3c0.3,0.3,0.6,0.6,0.9,0.9c0.2,0.3,0.4,0.5,0.6,0.8
		C268.7,227.7,261.7,226.5,256,223.3z M277.3,224.4L277.3,224.4c0,2,0.1,4.2,0.3,6.3c-0.8-2.7-1.9-5.3-3.1-7.7
		c-0.1-0.1-0.3-0.1-0.2,0.1c0.9,2.2,1.6,4.4,2.2,6.6c-0.8-1.5-1.8-3-2.8-4h-0.1c0.6,1.3,1.5,2.6,2.1,3.9c0.6,1.2,1,2.5,1.7,3.6
		c-3.8-5.7-8.4-10.8-12.1-16.6c-3-4.6-9.3-14.4-4.2-19.7c3.6-3.8,9-0.8,12.1,2.2c3.6,3.5,5.6,8.4,6.3,13.3
		c0.8,6.7-0.6,13.2-0.7,19.8c-0.1,0.5-0.2,1-0.3,1.5C278.5,230.7,278,227.4,277.3,224.4z M278.1,238.5c4.5-2.5,7.9,3.3,9.2,6.8
		c1.6,4.3,1.7,9,1.6,13.5c0,0.6,0,1.2,0,1.9c-0.3,3.3-0.3,6.6-0.4,9.9c-0.2,4.5-0.8,9-1.5,13.4c0.2-3.1-0.4-6.3-0.2-9.3
		c0-0.1-0.1-0.1-0.1,0c-0.4,2.5-0.5,5.1-0.5,7.7c-0.5-3.8-1.3-7.6-2.6-11.1l0,0c0.9,4,1.3,8.1,1.9,12.1c-0.8-3.1-2.2-6.2-3.4-9l0,0
		c1.1,3.2,2,6.4,2.9,9.6c-3-7-6.9-13.6-9.1-21C273.7,256.5,270.3,242.8,278.1,238.5z M263.1,253.2c3.5,2.3,6.2,5.5,8.4,9
		c3.8,6,6.7,12.5,10.3,18.6c0.7,1.5,1.3,2.9,1.9,4.4c-2-3.3-4.6-6.4-7.6-8.8c0,0-0.1,0,0,0c1.9,1.9,3.4,4,4.9,6.1
		c-1.4-1.5-2.9-2.8-4.4-3.6l0,0c1.6,1.5,3.3,3,4.6,4.7c0.1,0.1,0.2,0.2,0.3,0.4c-3.5-3.1-7.5-5.7-11.8-8.1
		c-6.6-3.6-17.1-8.9-17.9-17.4C251.3,251.7,257.7,249.7,263.1,253.2z M279.7,284.7c-1.6-0.6-3.3-1.1-4.9-1.8
		c1.2,0.2,2.5,0.4,3.7,0.8C278.9,284.1,279.3,284.4,279.7,284.7z M257.1,278.5c-3.9-0.7-8.8-1.5-11.8-4.3
		c-5.4-5.1,0.5-10.9,6.2-11.9c1.9,4.2,5.8,7.9,9.2,10.2c5.3,3.6,10.9,6.3,15.9,9.8c-1.8-0.5-3.8-0.7-5.3-1.1
		C266.6,280.2,261.9,279.4,257.1,278.5z M270.8,282.2c0.4,0.1,0.8,0.2,1.3,0.3c2.7,1.7,6,2.2,8.9,3.3c0.3,0.2,0.5,0.5,0.8,0.7
		C278.5,284.5,273.9,284.8,270.8,282.2z M282.6,297.6c0-0.1,0-0.3,0-0.4c0.1-0.4-0.4-0.6-0.7-0.3c-1,1-2,1.8-2.8,2.9
		c0.4-3,2.2-5.7,4.6-7.7c0.5-0.2,1-0.5,1.6-0.8C283.7,293,283.1,295.3,282.6,297.6z M284.2,291.1c-3,1-5.7,2.8-8.1,4.8
		c-2.9,2.4-5.1,6-8,8.4c0.4-1.9,1.1-3.6,2.4-5.3c0.3-0.4-0.1-1-0.6-0.8c-2.8,0.8-5.4,1.6-8,2.9c-1.5,0.8-2.8,1.7-4.4,2.3
		c0.5-1.6,1.4-2.9,3-3.9c0.5-0.4,0-1.2-0.6-0.8c-1.9,1.2-3.9,1.3-5.9,2.2c-0.6,0.2-3.6,1.3-3.7,1.6c1.2-3.8,4.3-6,7.7-7.5
		c0.6-0.2,0.3-1.1-0.3-0.9c-3.2,0.8,0.4-1,1-1.4c1.2-0.7,2.5-1.4,3.8-1.9c2.1-0.9,4.3-1.7,6.6-2.2c4.7-1.1,10.3-1.8,14.6,0.5
		c-1.6-0.5-3.5-0.5-5.1-0.3c-2.6,0.3-5.7,0.5-8.1,1.5c-0.1,0-0.2,0.3,0,0.3c2.1,0.3,4.5-0.7,6.6-1.1c2.6-0.4,5.1-0.7,7.6,0.3
		c0.2,0.2,0.4,0.4,0.5,0.6c-0.1,0-0.2,0-0.3,0c-3.5-0.8-9.4-0.5-11.7,2.5c-0.1,0.1,0,0.3,0.2,0.3c1.9-0.9,3.6-1.9,5.7-2.3
		c1.5-0.2,3-0.3,4.5-0.3c-2.9,0.5-6.1,1.9-8.1,3.5c-0.1,0.1,0,0.3,0.2,0.3c1.7-0.6,3.3-1.6,4.9-2.3c1.4-0.6,2.9-1,4.4-1.5
		c0.1,0,0.2,0,0.3,0C285,290.7,284.6,290.8,284.2,291.1z M284.2,384.2c-3.2-4.5-6.8-8.8-10.3-13c-9.3-10.9-18.8-21-24.8-34.2
		c-3.2-7.2-6.2-14.5-8.9-21.9c-1.2-3.5-2.5-6.9-3.7-10.4c-0.4-1.1-0.8-2.2-1.1-3.3c2.9,5.4,6.7,10.2,10.3,15.1
		c4,5.5,39.2,56.3,40.7,67.8c0.3,3.6,0,0,0.3,3.5C286,386.6,285,385.3,284.2,384.2z M325.8,402.9c0.1,0,0.2,0,0.3,0.1
		c-0.1,0.1-0.3,0.2-0.4,0.4v0.1c-1.3,1.4-1.7,3.5-1.8,5.3c-0.1,2.7,0.2,5.4-0.4,8.2c-2.2,2.1-4.2,4.5-5.9,7
		C319.5,417,318,405.8,325.8,402.9z M310.6,361.7c1.1-3.8,1.8-8.1,3.6-11.7c0.6-1.3,1.3-2.6,1.9-3.9c-0.6,5.4,0.9,11.1-0.9,16.4v0.1
		c-0.1,0.1-0.1,0.2-0.2,0.3c-2.4,3.5-4.5,7.3-6.4,11.1C309.5,370,309.5,365.6,310.6,361.7z M265.1,375c3.4,6.9,8,13.3,11.5,20.3
		c4.2,8.5,7.8,17.3,10.7,26.3c4.1,12.9,6.8,26.2,9.9,39.4c0.1,0.4,0.1,0.9,0.2,1.3c-5-13.1-11.7-25.4-17.4-38.3
		C273.1,408.3,268.3,391.7,265.1,375z M259.9,423c-5.7-5.8-11.7-11.3-16.5-17.9c-4.5-6.1-8.7-12.7-12.5-19.3c-1.3-2.2-2.4-4.7-3.7-7
		c5.3,4.9,11.2,9.2,16.3,14.5c6.3,6.6,14,12.3,18.3,20.5c2,5.5,4.1,11,6.5,16.3c0.5,1.1,1.1,2.2,1.6,3.3
		C266.9,429.7,263.2,426.3,259.9,423z M291.9,466.7c-7.9-11.7-16-22.8-21.8-35.6c-6-13.2-10.7-26.9-14.1-41
		c-2.9-12-6.7-24.2-7.6-36.6c5.1,12.8,9.6,26.1,19,36.4l0,0c2.9,11.8,6.7,23.3,11.6,34.4c6.8,15.2,14.9,29.7,19.8,45.6
		c0.4,2.4,0.9,4.8,1.3,7.2c0.4,2.2,0.8,4.4,1.2,6.6C298.9,477.7,295.6,472.1,291.9,466.7z M298.7,451.3c0,1,0,2,0.1,3
		c-1.5-8.6-3-17.3-4.3-26c1.7-7.2,4.4-13.4,8.3-19.8c0.9-1.4,1.7-2.9,2.6-4.3c-0.8,10.4-5.2,20.3-6.2,30.8
		C298.7,440.5,298.5,445.9,298.7,451.3z M293.3,496.7c-6-7.2-12.2-14.2-17.7-21.7c-9.7-13.4-15.6-28.8-22.1-43.8
		c7.3,11.8,16.5,22,25.4,32.9c10.9,13.4,19.5,28.2,25.8,44.2c0.2,1.5,0.3,3,0.5,4.6C302,506.9,297.4,501.7,293.3,496.7z
		 M303.4,476.2c0,1-0.1,2-0.1,3c-0.3-1.8-0.6-3.6-0.9-5.4c-0.6-3.3-1.3-6.7-1.9-10c0-4.2-0.4-8.5-0.6-12.6
		c-0.2-6.3-0.2-12.6,0.6-18.9c0.7-5.4,1.9-10.6,3.3-15.9c1.1-4.3,2.2-8.6,2-13c2.8-4.6,5.6-9.2,7.6-14.2c1.3-3.3,2.1-6.9,2.7-10.6
		c-0.5,14.2-3.7,27.6-6.8,41.5c-2.1,9.5-5.8,21.2-2.8,30.8C304.8,459.3,303.8,467.7,303.4,476.2z M322.7,459.8
		c-0.9,8.8-2.4,17.4-3.9,26.1c-1.5,8.9-3,17.8-4.4,26.7c-1.1,7.1-2.1,14.2-4.2,21.1c-0.8-7.5-1.6-15.1-2.5-22.6
		c2.9-17.8,3.2-35.9,8.2-53.3c2.4-8.5,5.1-16.8,8.3-24.9C323.7,441.8,323.7,450.8,322.7,459.8z"/>
	<path class="st36" d="M290.4,281.7c3.4-4.2,6-9.1,9-13.6c-1.2,1.8-3.1,3.8-4.5,5.6c0.7-1.7,1.3-3.5,1.8-5.3
		c-1.1,3.9-4.2,8.3-6.4,11.8c1.4-5.3,3.3-10.5,4.8-15.7c-1.1,3.7-3.4,7.1-4.4,11c-0.1,0.3-1.7,8-2,7.8
		C288.8,283.3,290.3,281.7,290.4,281.7z"/>
	<path class="st36" d="M289.3,279.6c0.1-1.2,1.5-4.6,1.8-6.5c0.6-3.2,1.1-6.4,1.7-9.6C291.9,268.7,289.9,274.1,289.3,279.6
		C289.3,279.7,289.9,274.2,289.3,279.6z"/>
	<path class="st36" d="M285.9,259.1c-0.1,5.1-0.4,10.2-0.5,15.3c-1.1-4.5-2.4-9.5-2.9-13.9c0.2,2,0.5,4.1,0.7,6.1
		c-0.6-2-1.2-4-1.7-6c0.5,1.7,3.7,20.1,4.2,20.2c0.2-0.1,0.3-0.4,0.2-0.7c0,0,0.6,2.5,0.8,2.4c0.2,0-0.5-3.1-0.5-3.1
		c-0.5-1.4,0.1-5.8,0.1-8C286.4,267.5,285.8,262.9,285.9,259.1C285.8,264.2,285.9,259,285.9,259.1z"/>
	<path class="st36" d="M278.7,262c0.5,1.6,5.5,18.5,6.7,18.1C285.6,280,279.1,263.4,278.7,262C280.5,268.1,278.7,262,278.7,262z"/>
	<path class="st36" d="M277,262.2c0.5,1.7,6.3,18.9,7.6,18.4C284.4,280.7,277.5,263.5,277,262.2C279,268.4,277,262.1,277,262.2z"/>
	<path class="st36" d="M295.8,279.1c0.4-0.3,3.6-1.7,4.6-2.3c2.3-1.4,4.5-3,6.6-4.5C303.6,274.8,299.3,276.4,295.8,279.1
		C295.7,279.2,299.2,276.5,295.8,279.1z"/>
	<path class="st36" d="M304.8,270.8c-0.1,0.1,2.1-2,1.9-2.1c-0.3-0.2-10.2,8.5-11.1,9.3c1.2-2.2,2.3-4.4,3.4-6.7
		c-0.5,1.1-8.8,13.4-8.5,13.7c0.6,0.4,3.2-3.8,3.4-4.3c1.4-2.1,1.9-2.4,3.9-3.8c3.6-2.5,6.5-5.9,10.3-8.2
		C307.3,269.3,305.9,270,304.8,270.8C305.5,270.2,305.9,270,304.8,270.8z"/>
	<path class="st36" d="M274.2,277.4c-1.1-0.9-2.1-2-3.1-3c2.1,1.3,4.6,2,6.5,3.6c0.5,0.4,3.4,3.2,3.9,2.9c0.1-0.5-0.1-1-0.7-1.4
		c0.4,0.4,0.9,0.5,1.2,0.2c0,0-4.7-5.2-5-5.7c-2.1-2.8-4.6-5.6-6.7-8.3c2.8,3.8,5.4,7.7,8.2,11.5c-3.6-1.7-7-6.9-9.5-10
		c2.4,3,4.8,6.1,7.2,9.1c-3.4-1.2-6.9-5.3-8.8-8.1c1.8,2.6,3.9,5,6.3,7.1c-2.4-1-4.9-2.9-6.3-4.7c2.1,2.7,4.2,5.5,6.8,7.8
		c0.6,0.5,7.5,5.4,8,3.9C282.2,282.4,274.8,278,274.2,277.4C273.1,276.5,276.6,279.6,274.2,277.4z M280.5,279.7
		c-0.7-0.3-1.3-0.6-1.9-1.2C279.5,278.6,280.1,279,280.5,279.7C279.9,279.5,280.4,279.5,280.5,279.7z"/>
	<path class="st36" d="M266.1,277.8c-0.5-0.3-3.7-2.3-1-0.4c-0.8-0.3-2.4-0.7-3.1-1.1c0.9,0.4,10,4.9,10,4.7
		c-0.1-0.4-0.5-0.7-1.1-0.7c0.3,0.1,3.6,1.3,3.7,1C274.7,280.8,266.6,278,266.1,277.8C265.4,277.5,268.9,278.9,266.1,277.8z"/>
	<path class="st36" d="M282.1,222.2c2.1-3.2,3.5-6.9,4.9-10.3c-0.9,2.2-2.1,4.3-3.3,6.4c1-2.6,1.8-5.4,3-7.8
		c-1.5,3.3-3.1,6.7-4.5,10c0.4-3.1,0.3-6.8,1.8-9.5c-1.3,2.3-1.5,4.9-1.9,7.4c-0.5,3.1-1.5,4.8-3.3,7.4c-1.2-4.3-1.7-10.2-1.9-14.5
		c0.2,3.6,0.3,7.2,0.6,10.8c-1.1-2.4-3.5-5.3-3.5-8c0,2.4,1.5,4.4,2.4,6.4c1,2.2,1.3,4.2,1.6,6.5c-2.2-4.9-3.4-10-5.3-15.1
		c1.1,2.8,1.7,6.2,2.5,9.3c-1.1-2.1-2.3-4.1-3.4-6.2c1.8,3.3,3.7,7.6,4.6,11.5c-1.4-3.4-3.5-6.7-6.7-8.8c1.2,0.8,8.2,12.5,7.7,12.6
		c0.2-0.1-0.7-4.7-0.7-4.9c0.1,0.3,2,3.9,1.8,3.9c0.3,0,0.1-2.7,0.1-2.7c0.5,0.2,0.2,2.8,0.9,2.6C280.3,229.2,281.7,223,282.1,222.2
		C284.2,219,281.9,222.6,282.1,222.2z M278.9,226.4c0.6-0.7,1.2-1.4,1.7-2.1c-0.5,1.4-0.7,2.7-1.3,4.2
		C279.2,227.8,279.1,227.1,278.9,226.4C279.5,225.7,279.1,227.1,278.9,226.4z"/>
	<path class="st36" d="M280.6,229.2c4.2-4.4,8.8-9.1,13.6-12.8c-3.9,3-7.7,6.1-11.2,9.7c2.3-3.3,4.6-7,7.1-10
		c-1.9,2.3-3.8,4.5-5.7,6.9c1.5-2.3,3.2-4.6,5.1-6.7c-1.8,2-3.8,4.2-5.4,6.7C283.1,224.6,281.5,228.2,280.6,229.2z"/>
	<path class="st36" d="M280.6,229.9c1.7-1.3,4.6-2.4,6.6-4.1c2.4-2,4.5-4.3,6.4-6.8C290.3,223.2,285,226.6,280.6,229.9
		C280.5,230,285.2,226.4,280.6,229.9z"/>
	<path class="st36" d="M294.8,219.3c-0.9,1.2-14.1,11.9-14.2,11.7C281.6,233.1,294.1,220.3,294.8,219.3
		C294.9,219.3,291.2,224.1,294.8,219.3z"/>
	<path class="st36" d="M267.8,222.4c-2.1-1.7-4.5-3.4-6.4-5.2c2.8,2.5,5.7,5,8.6,7.4c1.2,1,2.2,1.6,3.6,2.3
		c-0.3-0.2,3.2,0.4,2.2,1.1c0.5-0.4-6.4-9.9-7-10.8c2,2.9,3.8,6.5,6,9.6C271.9,226.4,269.9,224.1,267.8,222.4
		C265.7,220.7,269.8,224,267.8,222.4z"/>
	<path class="st36" d="M260,218.9C260,218.9,259.9,218.8,260,218.9C259.9,218.8,260,218.9,260,218.9z"/>
	<path class="st36" d="M273.8,229.2c-0.2,0-2.4-1.3-2.6-1.4c0.5,0.5,1,0.6,1.5,0.3c0,0-5.5-3.3-6.3-4c-2.1-1.8-4-3.7-6.3-5.2
		c2.5,1.6,4.4,4,6.5,6.1c-3.1-1.5-6.2-3-9.1-4.8c2.6,1.7,5.1,3.5,7.9,5C267.9,226.6,270.8,228.8,273.8,229.2z"/>
	<path class="st36" d="M259,218.3c0.3,0.2,0.6,0.4,0.9,0.6C259.4,218.1,259.1,217.9,259,218.3z"/>
	<path class="st36" d="M257.7,221.8c1.3,0.5,13.9,10.4,14.2,9.6c0-0.1-6.4-4.5-7-5C262.5,224.6,260.3,222.9,257.7,221.8
		C262.9,224.1,257.6,221.8,257.7,221.8z"/>
	<path class="st36" d="M276.4,192.8c-1.6-6.1-4-11.9-6.9-17.5C272.2,180.5,275,187.4,276.4,192.8
		C274.9,186.7,276.5,192.9,276.4,192.8z"/>
	<path class="st36" d="M277.2,195.1c0-0.3,0.9-1.9,0.7-1.5c0,0.3,0.1,0.6,0.2,0.2c0,0.2-0.2,0.9-0.1,1c0.1,0,0.2-0.1,0.2-0.2
		c-0.1,0.3,0,0.5,0.3,0.6c0.2,0,2-7.3,2.2-8.2c0.6-2.9,0.8-6.1,1.1-8.8c-0.3,2.5-0.7,5-1.3,7.5c0.7-3.1,0.9-6.3,1.3-9.3
		c-0.5,3.6-1.3,7.2-2.3,10.8c0.7-4,0.9-8.4,1.4-12.2c-0.8,5.4-1.2,11.7-2.8,16.9c-1-4.9,0.5-11.9,1.1-16.8c-0.6,4.5-1.3,9-1.8,13.6
		c-0.9-3.9,0-9,0-13c0,3.5-0.4,7.1-0.6,10.6c-0.9-4-1.9-7.9-2.8-11.8C275.7,180.6,277.7,189.1,277.2,195.1z M279.9,188.4
		c-0.4,1.6-0.9,3.3-1.4,4.9C278.2,191.9,279.5,189.7,279.9,188.4C279.4,190,279.5,189.7,279.9,188.4z M280.5,186.2
		c-0.1,0.2-0.1,0.4-0.2,0.7C280.3,186.6,280.4,186.4,280.5,186.2z M277.9,192.5c-0.2,0.7-0.4,1.3-0.6,2c0.1-1.1,0.2-2.1,0.3-3.2
		C277.7,191.7,277.8,192.1,277.9,192.5C277.7,193.2,277.8,192.1,277.9,192.5z"/>
	<path class="st36" d="M288.3,177.4c-0.9,1.3-6.8,14.1-7.4,13.8c0.5,0.3,3.5-4.5,3.8-5c-0.1,0.3-2.8,5.4-3.2,4.8
		c0.3,0.2,0.6,0.1,1-0.3c-0.2,0.3-2.2,3.5-2,3.7c0.4,0.3,2-2.7,2.2-3c1.1-1.3,2.2-1.8,3.7-2.7c2.7-1.7,4.6-3.9,6.9-5.9
		c-3,2.6-6.2,4.9-9.7,6.8c2.3-4.7,4.2-9.8,6.3-14.5c-1,2.2-2.2,4.4-3.4,6.5C287,180.3,287.5,178.6,288.3,177.4
		C287.1,179.1,288.3,177.4,288.3,177.4z"/>
	<path class="st36" d="M296.5,183.7c-2.5,1.5-5,2.9-7.5,4.4c-1.9,1.2-4.2,3.4-5.9,4.2C287.8,189.9,292.1,186.3,296.5,183.7
		C291.9,186.3,296.5,183.6,296.5,183.7z"/>
	<path class="st36" d="M295.9,186c-0.9,0.7-10.3,6.5-10,7.1C286.5,194.3,295.3,186.4,295.9,186C292.7,188.5,296,185.9,295.9,186z"/>
	<path class="st36" d="M270.7,190c0.2,0.3,2.8,3.3,3,3.1s-1.1-1.6-1.1-1.6c-0.1-0.1,1.7,2.1,1.9,1.9c0.2-0.2-1.5-2.2-1.8-2.6
		c0.2,0.2,0.3,0.2,0.5,0.1c0,0-4.9-6.6-5.3-7.4c-1.6-2.8-3.3-5.8-4.3-8.7c1.7,5.1,4,10,7.2,14.4c-3-3.6-6.5-7.3-9.2-10.9
		c2.4,3.2,4.7,6.4,7.2,9.5c-1.4-1.2-2.9-2.3-4.1-3.6c-0.4-0.4-3.3-3.8-1.1-1c-1.1-1.1-2.4-2.3-3.3-3.4
		C263.4,183.4,266.8,187,270.7,190C271.6,191,266.8,187.1,270.7,190z"/>
	<path class="st36" d="M252.4,182.8c2.2,2,4.7,3.7,7.4,4.9c0.4,0.2,7.2,3,7.2,2.2c0-0.1-3-0.9-3.6-1.2c0.3,0.1,3.8,0.7,3.8,0.2
		c0,0.3-7-2.3-7.6-2.7c-2.8-1.9-5.3-4.3-7.7-6.6c2.4,2.3,4.9,4.9,7.7,7c-2.8-1.2-5.8-3-7.7-5.3c1.4,1.8,3.2,3.4,5.1,4.7
		C255.5,185.1,253.7,183.9,252.4,182.8z"/>
	<path class="st36" d="M283.9,152.1c2.8-4.1,5-8.3,8.2-12.2c-1.7,2.1-3.8,3.8-5.4,6.1C285.6,147.7,284.6,151.1,283.9,152.1
		C285.3,150.2,283.8,152.3,283.9,152.1z"/>
	<path class="st36" d="M273.6,149.2c0.2,0.6,0.9,2.3,0.5,0.6c0-0.1,1.8,2.3,2,2.1c0.1-0.4-0.1-0.7-0.6-1c1.5,1.1,2.1,0.7,2.5,2.7
		c-0.2-1,0-2.1-0.3-3.7c0,0,1.6,2.4,1.1,2.4c-0.1,0,0.6-0.2,0.5-0.1c0,0,0.5-4.1,0.5-4.5c0.4,0.4,1.1,1,1.1,1.6s-1.7,2.4-1.1,2.8
		c0.6,0,0.9-0.4,1-1.2c0,1.2,0.6-1,0.7-1.2c0.1,0.2,0.2,0.3,0.4,0.2c-0.1,0.1,1.1-2.7,1.2-3c-0.1,0.6-2.3,5.7-1.8,5.8
		c0.3,0.1,1.1-1.7,1.1-1.8c0,0.3-0.2,1.7,0.1,1.8c0,0,3.4-6.7,3.7-7.1c1.6-2.6,3.4-5,5.4-7.4c-2.7,3.2-5.9,6.2-7.9,10.1
		c0.4-3.5,4.9-8,7.2-10.4c-2.2,2.3-4.7,4.6-6.5,7.4c0.8-3,3.5-7,6.4-8.4c-2.4,1.1-4,3.1-5.4,5.2c0.6-1.9,1.4-3.8,2.3-5.6
		c-1,1.9-2.4,4.1-3.3,6.4c0.3-2.2,0.6-4.3,1-6.5c-0.4,1.9-0.8,4.2-1.3,6.2c-0.5,2.1-1.5,3.5-2.6,5.4c0.4-2.6,0.8-5.2,1.3-7.8
		c0.2-1.2,0.4-2.4,0.8-3.5c0.1-0.3,2.2-3,0-0.1c0.9-3.4-1.6,2.5-1.9,3c-1.1,2.1-1.9,4.4-2.4,6.7c-2.6-3.6-5.3-7.7-6.9-11.8
		c0.2,0.6,0.4,1.1,0.7,1.7c-0.3-0.6-0.7-1.2-1-1.8c2.7,4.5,4.3,10,5.8,15.1c-1.4-2.4-2-5.1-3.5-7.5c-1.2-2.1-2.8-4-4.4-5.8
		c2.1,2.3,3.7,5,5,7.8c-1.6-2.7-3.6-5.1-5.2-7.9c0.6,1,1.2,2.4,1.8,3.6c-0.6-0.6-1.1-1.1-1.7-1.7c3.4,3,6.4,9.1,7.6,13.6
		c-4.5-3-5.4-8-8.1-12.5c1.3,2.2,2.5,5.3,3.4,7.8c-2.2-3-4-6.7-5.4-10C269.3,141.3,270.8,145.5,273.6,149.2
		C273.8,149.7,273.6,149.2,273.6,149.2z M283.4,137.1c-1.2,3.7-2.1,7.5-2.4,11.4C278.8,145.7,281.6,139.8,283.4,137.1
		C282.3,140.8,281.4,140.1,283.4,137.1z M276.1,142.1c0.8,1.4,2.2,2.8,2.8,4.2c0.5,1.4,0,3-0.1,4.6
		C277.4,148.6,277.2,144.7,276.1,142.1C277,143.7,277.2,144.8,276.1,142.1z M273.7,142.5c0.3,0.4,0.5,0.9,0.8,1.3
		C274.2,143.4,274,142.9,273.7,142.5z"/>
	<path class="st36" d="M284.6,151.6c0.7-1.1,4.2-3.7,5.6-5c2.6-2.3,5.2-4.5,8.2-6.4C293.3,143.4,288.1,146.5,284.6,151.6
		C284.5,151.8,287.9,146.8,284.6,151.6z"/>
	<path class="st36" d="M294.1,144c-2.2,1.4-4.3,3-6.1,4.9c1.2-1.2,3.5-2.9,5.1-4c-0.7,0.6-7.2,6.8-6.6,7.4
		c0.1,0.1,10.5-10.6,12.1-11.8C297.1,141.6,295.6,142.8,294.1,144C291.9,145.4,295.6,142.8,294.1,144z"/>
	<path class="st36" d="M279.8,117.4c1-7.6,0-15.2-0.5-22.6c0.3,4.3,0.3,8.6,0.3,12.9C279.6,110.5,280.1,115.2,279.8,117.4
		C280.8,109.9,279.8,117.5,279.8,117.4z"/>
	<path class="st36" d="M281.4,116.9c1-6.2,0.4-12.6-0.3-18.9c0.4,3.1,0,6.9-0.1,10.2C281,110.6,281.6,115.4,281.4,116.9
		C282.4,110.8,281.4,117.1,281.4,116.9z"/>
	<path class="st36" d="M282,116.3c-0.1,0.2-1.3,5.3-1.3,5.3c0.3,0.1,1-1.6,1.3-1.8c0.1-0.1-0.1,0.9-0.1,0.9c0.5,0.6,5.5-5.7,5.9-6.3
		c0.8-1.2,1.4-2.5,2.1-3.8c0.2-0.3,1.8-2.9,0.5-1.1c0.6-1.5,1.2-3.2,1.4-4.8c-0.6,3.8-3.6,7.5-5.8,10.6c2.5-3.9,4.1-8.3,5-12.8
		c-0.7,3.3-2.6,6.9-4.3,9.9c1.4-3.6,1.9-8.1,3.4-11.4c-2.8,6.2-3.6,12-7.8,17.6c2.6-5.8,2.6-12.7,5.4-18.3c-0.7,1.4-1.2,2.9-1.6,4.3
		c0.3-2,0.4-4,0.5-5.9C286.5,104.2,284,111.2,282,116.3z"/>
	<path class="st36" d="M276.6,118.1c0.8,0.4,0.6-1.1,0.6-1.4c0.4,0.2,2.3,1.1,2.2,1.2c0.8-0.6,0-6.6-0.1-7.3
		c-0.3-5.3-1.2-10.5-2.7-15.6c1.6,5.5,1.6,12.5,2.1,18.3c-2.2-5.7-3.5-11.8-4.5-17.8c0.5,3.3,0.9,6.6,1.2,9.9
		c-1.1-2.7-2.7-5.9-3.3-8.7c0.6,3.2,0.8,6.3,1.2,9.5c0.3,1.8,0.6,3.5,1.3,5.2c0.5,1.3,1.6,2.7,1.8,4c-3.9-3.4-7.2-9.1-9.2-13.7
		c1.4,3.2,3,6.4,4.8,9.5c1.3,2.1,4.4,4.3,4.7,6.5c-1.6-2.1-4.1-3.8-5.8-5.9c-2-2.5-3.6-5.2-4.7-8.2
		C268.4,109.4,270.9,115,276.6,118.1C276.7,118.1,271.4,115.3,276.6,118.1z M278.8,114.9c0.1,0.8,0.1,1.5,0.2,2.3
		c-1.6-1.9-1.8-3-2-5.4C277.5,112.8,278.1,113.9,278.8,114.9C278.9,115.6,278.1,113.9,278.8,114.9z M273.1,101c1,4.1,2.6,7.8,3.1,12
		C274.4,109.2,273.6,105.1,273.1,101C273.8,103.7,273.6,105.3,273.1,101z M277.2,116C277.3,116.2,277.2,116,277.2,116L277.2,116z"/>
	<path class="st36" d="M275.8,117.9c-1.3-0.1-4.7-3-5.9-4.4c-2.1-2.5-3.6-5.4-5.1-8.3C267.3,109.9,269.4,117.4,275.8,117.9
		C276,118,270.1,117.4,275.8,117.9z"/>
	<path class="st36" d="M274,118.9c-0.8-0.1-3.9-4-4.8-5c-1.7-2.1-3.6-4.5-5-6.6C266.3,110.3,269.8,118.3,274,118.9
		C274.1,118.9,272.1,118.6,274,118.9z"/>
	<path class="st36" d="M273.8,119.8c-4-0.2-6.4-8.6-9.1-11.1C268,111.7,268,119.6,273.8,119.8C274,119.8,268.4,119.6,273.8,119.8z"
		/>
	<path class="st37" d="M308.5,256.1c-0.3-5.4-2.7-8.1-7.1-10.4c-6-3.1-7.6,2.6-10.4,6.8c0.6-6.2-2.1-15.3-9.3-16.5
		c-4.8-0.8-9.4,4.7-10.3,9.2c-1,4.9,0.2,10.2,1.7,14.9c0.7,2.3,1.6,4.6,2.6,6.9c0.6,1.4,2.3,3.9,2.5,5.3c-1.1-8.7-5.4-17.6-2.1-26.3
		c0.4,3.9,0.3,9,2.5,12.4c-0.4-0.6,0-4.5,0-5.4c0.1-2.3,0.2-4.5,0.4-6.8c0.3,1.1,2.3,12.4,2.3,12.4c1,0.2,1.8-6,1.8-6.9
		c0.1-2.7-0.4-5.3-0.9-7.9c1.9,3.1,4.7,9.9,4,13.4c0.9-4.3,1.3-9,0.1-13.3c2.7,4.4,3,10,2.3,15c-0.3,2.3-0.5,4.6-0.3,7
		s1.4,5.5,1.2,7.7c0.7-6.7-0.6-14.6,4.8-19.7c-1.6,3.5-2.3,7.9-0.9,11.7c-0.2-0.5,1.4-4.7,1.8-5.5c0.8-2,2-3.8,3.6-5.3
		c-0.1,1.3-2.8,12.6-2.7,12.7c0.9,0.6,5.2-9,5.5-10.1c0.3,2.6,0.1,5.1-0.4,7.6c-0.3,1.4-0.8,5.5-1.6,6.3c3.9-3.9,6.1-9.9,6-15.4
		c1,4.8,0.2,9.7-2.2,14c1.5-2.8,3.7-4.8,4.6-8.2c0.1,1.6,0,5.4-0.9,6.4c1.7-1.8,2.9-4.2,3.2-6.7c0.2,2.5-0.6,7.3-2.5,9
		c0.8-0.7,1.5-1.5,2.1-2.3c-0.6,1-2.5,4.6-3.5,4.9c5.1-1.7,8.4-6.7,10.1-11.5c0.5,4-3.2,7.1-5.8,9.5c-4.1,3.7-8.7,6.7-13.3,9.5
		c1.4-0.8,3.7-1.2,5.4-1.8c2.4-0.9,4.7-2.1,6.8-3.5c3.4-2.3,7.1-5.4,9-9.1c1.6-3.1,1.6-6.5-1.2-8.9C315,255.2,311,254.3,308.5,256.1
		C308.5,256.1,312.3,253.3,308.5,256.1z"/>
	<path class="st37" d="M252,250.8c-2.4,2.2-2.3,7.1-1.5,10c-8.7-0.8-11.2,11.5-5.2,16.2c3,2.3,7.7,2.6,11.3,3.3
		c2.1,0.4,4.3,0.6,6.5,0.7c1.2,0,4.1-0.5,5.1-0.1c-2.9-1-5.8-1.8-8.7-2.6c-2.6-0.8-6.3-1.3-8.1-3.4c1.7,0.9,3.5,1.4,5.4,1.8
		c1.4,0.3,3.5,0.1,4.7,0.6c-4.1-1.7-9.2-3.6-11.4-7.8c0.5,0.4,5.6,3,5.8,2.9c0.4-0.4-4.1-4.4-4.5-5.2c0.1,0.1,2,1.5,2.4,1
		c0.1-0.2-1.9-3.4-2-3.9c3.3,6,10,9.2,15.8,12.3c-2.8-1.5-6.2-5.6-8.5-7.9c-2.8-2.9-6.2-6.7-6-11c0.6,3.2,2.5,5.9,4.7,8.3
		c0.6,0.6,6.4,6,6.9,5.6c-0.5,0.5-7.4-10.4-7.7-11.6c0.5,0.6,5.8,7.5,6.2,6.9c-0.1,0.2-2.8-3.3-3-3.7c0.4,0.4,5.1,4.3,5.4,3.7
		c-0.1,0.2-5-7.2-5.4-8c1.3,1,2.7,1.9,4.1,2.6c-1.5-0.7-3.9-4.4-4.8-5.9c3.7,1.9,6.5,5.4,9.3,8.4c-0.4-0.4-1-3-1.3-3.8
		c-0.8-1.7-1.8-3.3-3-4.7c5.3,4.1,8.8,9.9,12.1,15.6c-3-5.3-3.8-11.2-8.2-15.9C264.6,251,257.1,246.1,252,250.8
		C251.7,251.1,256.4,246.7,252,250.8z M247.2,264.9C247.2,265.3,246.7,265.4,247.2,264.9C247.2,265,247.1,265,247.2,264.9z"/>
	<path class="st37" d="M308,203.5c-0.7,3-1.9,5.9-3.4,8.6c-0.9,1.7-2.6,5.6-4.1,6.6c5.5-3.9,12.1-11.7,11.6-19
		c-0.6-8.4-10.6-7.2-13.9-1.2c-0.3-1.2-0.8-2.7-1.8-3.5c-0.5-0.4-1-0.7-1.6-0.8c-0.8,0.3-1.3,0-1.4-0.8c-3.3-1.5-5.3-0.6-8.2,1.3
		c-3.2,2.1-7,4.8-5.9,9.7c0.1,0.3,1.1-1.7,1-1.6c-0.2,0.6-0.4,1.3-0.6,1.9c0.8-2.9,5.4-7.1,8.3-7.9c-0.6,0.5-5.2,6.2-4.9,6.3
		c0.6-0.1,1-0.5,1.2-1.3c-1.1,2.2-1.9,4.6-2.4,7c0.1-0.8,3.1-3.9,3.7-4.8c1.3-1.6,2.7-3.1,4.3-4.4c-0.7,3.2-2.9,7.5-5.1,9.8
		c2.7-2.8,5.4-5.8,7.2-9.3c-0.1,3.4-1.6,6.9-3.3,9.8c1-1.6,2.9-3.1,3.9-4.8c1.1-1.8,2-3.8,2.7-5.8c1,3-0.5,6.5-1.8,9.1
		c-0.4,0.9-5,7-4.8,7.2c0.8,0.9,6.6-6.3,7-7c1.8-2.8,1.8-7.2,4.2-9.3c-0.9,2.2-1.5,4.6-2.3,6.9c-0.3,1-0.8,4-1.6,4.6
		c4-3,4.2-8.5,7.6-12c-0.8,2.1-1.2,4.9-2.5,6.6c1.1-1.4,2.2-3.1,2.8-4.7c0.4-1,0.1-2.6,1.2-2.9c-2.1,5.5-3.5,10.3-7.2,15.1
		c2.5-3.2,5.4-6,7.7-9.6c-0.7,2.5-1.7,5.7-2.8,7.9c1.7-3.3,4.2-6.6,5.3-10.1C308.4,201.9,308.2,202.7,308,203.5
		C306.6,209,308.3,202.3,308,203.5z"/>
	<path class="st37" d="M278.2,210.3c-0.3-1.1,0.3-2.8,0-4.2c-0.4-2-1.5-3.8-2.6-5.5c-2-2.9-4.2-5.3-7.6-6.4
		c-1.5-0.5-2.8-0.4-4.3-0.3c-0.6,0-2-0.2-2.6,0c-2.6,0.9-3.6,6.3-3.4,8.6c-3.6-2.7-8.3-1.9-11.7,0c-2.8,1.6-2.7,5.4-2.5,8.3
		c0.6,9.1,8.6,15.2,17.3,16.1c-6.2-0.6-13.3-8.6-14.4-14.5c0.7,2.6,1.9,4.9,3.7,6.8c0.6,0.7,5.5,4.9,6,4.2c-0.5,0.7-5.4-7.4-5.7-8.4
		c0.3,0.6,3.5,5.1,4,4.6c0.3-0.3-2.6-6.2-2.9-6.8c1.6,2.6,3.1,5.3,5.2,7.5c-0.3-0.3-0.7-2.7-0.9-3.2c-0.7-2.2-1.5-4.5-2.3-6.7
		c1.1,1.3,1.9,2.7,2.7,4.1c0.3,0.5,2.6,3.2,2.6,3.4c-0.5-3.8-2-7.6-4.3-10.7c1.7,0.9,3,2.1,4.1,3.7c0.5,0.8,2.7,4.3,2.6,4.6
		c0.2-1,0.3-1.9,0.2-2.9c1.8,3,4,5.7,6.4,8.2c-3.5-3.7-5.9-11.4-6.6-16.4c1.6,3.5,4.7,6.7,6.2,9.8c-1.4-3.1-2.6-6.3-3.7-9.5
		c0.1,0.2,1.7,3.1,2.3,2.3c0.1-0.1-0.6-1.7-0.6-1.7c1.2,2.1,3,3.7,4.3,5.4c-1.3-1.6-2.2-3.6-2.9-5.5c0.1,0.1,1.3,1.3,1.6,1.1
		c0.2-0.2-2.9-5.3-3.2-5.9c1.8,1.3,3.3,3.2,4.5,5.1c0.2,0.4,2,4.4,2.7,3.8c0.4-0.3-1.8-6.1-2.1-6.6c2.1,2.2,3.8,5.1,4.5,8.1
		c-0.9-4.1-1.5-7.8-4.3-11.5C274,202.1,277.3,205.9,278.2,210.3C278.2,210.3,277.6,207.5,278.2,210.3z"/>
	<path class="st37" d="M259,188.9c-6.6-2.2-16.8-6.4-19.2-13.6c1.2,2.1,4.7,3.9,5.4,5.8c-0.8-2-2.4-3.6-3.4-5.5
		c2.3,3.4,5.1,6.9,9.3,7.9c-4-1-7-8.4-8.2-11.9c1.9,2,6.7,5.5,7.4,8c-1.1-3.8-4-7-5.9-10.3c0.4,0.2,3.3,2,3.4,2.2
		c-0.3-0.9-0.7-1.7-1.3-2.4c0.4,0.6,0.9,0.8,1.5,0.5c0.3-0.7-2.8-2.5-1.9-1c-0.5-0.5-1-1-1.6-1.3c1.1,0,2.9,0.4,3.9,1
		c1.3,0.9,1,0.9,1.6,2.4c0.9,2.2,1.5,4.3,2.8,6.4c0.6,0.9,7.6,9.6,8.7,8.4c-0.5,0.6-7.1-11.1-7.5-12.2c1,1.8,2.6,3.6,3.4,5.3
		c-1.3-2.9-3.1-6-3.5-9.3c0.3,0.7,5.4,8.9,5.9,7.8c0,0-2.5-4.1-2.6-4.4c-0.8-1.9-1.7-3.8-1.8-5.9c2.9,3.3,4.8,7.2,6.8,11
		c-0.5-1-0.9-4.1-1.3-5.4c-0.7-2.2-1.7-4.4-2.7-6.5c1.9,1.5,4.1,5.3,4.3,7.6c-0.3-3.2-0.8-6.6-2.9-9.3c3.1,2,4.8,5.3,5.7,8.6
		c0.6,2,1,4,1.8,5.9c0.4,1,2.1,3.2,2.2,4c-1-6.7-3.3-13.2-0.4-19.8c-0.6,3.4-0.1,7,0.5,10.4c-0.2-1.3,0.6-4.9,0.9-6.5
		c0.4,3.7,2,7.2,2.6,10.6c-0.9-4.9-1.3-10.2,0.5-14.9c0.1,0.8,0.7,6.4,1.4,6.4c0.6,0,0.1-5.3,0.1-5.9c1.7,2.2,3.2,6.6,2.5,9.4
		c0.9-3.9,0.5-8.5-1.8-11.9c3.9,3.4,4.9,8.4,5.6,13.3c-0.3-1.9,0.2-4.8-0.1-7c0.1,0.3,1.1,3.6,1.2,3.6c1.5-0.3-3.3-10.1-3.8-11
		c3,2.6,5.1,6,5.9,10c0.7,3.3,1.2,9.1,0,12.2c0.4-1.1,0.8-2.3,1.2-3.4c0,0.1,0,2.5-0.1,2.6c2.4-3.4,2.2-8,3.9-11.7
		c-0.1,0.4-0.5,4.9,0,4.9c0.8,0.1,2.5-5.4,2.7-6c0,0.4-0.3,4.5-0.2,4.5c1.5,0.5,1.9-7.3,2.2-7.4c-0.6,4,1.2,8.7-1.7,12.3
		c2.3-2.8,4.1-6.1,4.7-9.7c0.8,5-3.9,13.5-7.8,16.3c2.4-1.7,4.5-3.9,6.3-6.1c1.9-2.3,3.4-6,6.3-7.2c-2.1,1.9-3.7,4.2-5.3,6.5
		c-0.9,1.2-2.6,5.2-3.8,5.7c4.5-2,6.8-7.2,10.8-9.9c-0.3,0.5-4,4.7-3.3,5.2c-0.1-0.1,2.8-2.7,3.1-3c-0.5,1-6.5,7.7-6.5,7.8
		c0.3,0.5,5.7-3.1,6.1-3.5c-1.6,2.3-3.6,4.3-5.6,6.3c0.7-0.7,3.2-1.3,4.2-1.9c1.7-1,3.2-2.3,4.5-3.8c-1.2,2.2-2.9,3.8-4.8,5.3
		c-1.2,0.9-4.6,3.8-5.8,4.1c7.1-1.5,14.5-6.2,15.8-13.8c1-6-5-11.3-10.6-7.7c0.2-3.4-2.5-6.3-5.7-6.7c-4.4-0.5-7.4,3.8-8.4,7.5
		c-0.5-6.1-4.1-13.8-10.6-15.1c-6.6-1.4-10.7,6.9-11.2,12.4c-2.1-3.7-5.7-6.8-10.1-6c-0.5,0.1-0.7,0.5-1.1,0.6
		c-0.8,0.2-1.4-0.2-2.1,0.3c-1.6,1-2.1,4.4-2.1,6c-3.3-3.5-8.2-4-11.5-0.7c-3,3-3.1,6.3-1.4,10.2C240.4,185.4,250.9,186.2,259,188.9
		C259,188.9,252.4,186.7,259,188.9z"/>
	<path class="st37" d="M303.6,113.9c-3,0.6-5.9,2.4-7.6,4.9c-0.3,0.5-0.7,2.2-1.1,2.4c-0.2,0.1-1.6-0.4-2-0.3
		c-1.7,0.2-3.1,0.7-4.7,1.6c-6.9,3.9-8.9,11-9.3,18.4c0.2-4.5,4.2-11,8.1-13.3c-0.2,0.3-4.2,5.5-3.5,5.9c0.2,0.1,4.2-3.6,4.6-3.9
		c-0.1,0.4-1.7,3.9-1.1,4.2c0.5,0.3,1.8-2.6,1.9-2.9c1-2,1.1-2.4,3.1-3.3c-1.1,2.4-2.3,5.9-3.8,8c1.8-2.5,3.9-4.7,5.2-7.6
		c0,0.7-1.9,8.3-2.1,8.1c0.4,0.3,2.4-3.1,2.6-3.5c-0.1,1.8-0.5,6.2-1.1,7.6c1.2-2.7,2.7-5.2,3.4-8.1c-0.2,2.4-1,4.9-2.1,7.1
		c-0.8,1.5-2.8,5.6-4,6.4c4.5-2.9,8-6.9,9.5-12.1c1-3.6,1.6-9.7-2.7-11.5c1.2-1.3,2.5-2.4,4.2-3.1c-0.3,0.4-2.4,4-1.4,4.2
		c0.5,0.1,2.5-4.2,4-4.1c-0.2,0.3-2,4.2-0.9,4.3c0,0,2.1-3.3,2.4-3.6c-1.2,1.8,0.2,6.3-0.3,8.6c-0.5,2.5-1.8,6-3.2,8
		c2.7-3.6,7.6-9.8,5.8-14.6c1.7,1.7,1,6.6-0.3,8.6c1-1.5,1.8-3.2,2.1-5c0.2,4.3-3.7,9.2-6.1,12.5c-1.4,1.9-2.9,3.7-4.4,5.5
		c-0.9,1.2-2.8,4.4-3.8,5c7.2-4.6,15-11.8,17.5-20.2c0.8-2.7,1.4-8.2-0.1-10.8C310.8,114.6,306.4,113.3,303.6,113.9
		C299.9,114.6,307,113.2,303.6,113.9z"/>
	<path class="st37" d="M261.5,146.1c-1-0.6-2.2-2.8-3.1-3.8c-1.6-1.7-3.3-3.3-4.9-5c-3-3.1-6-6.4-7.7-10.5c1.6,2,3.4,3.9,5.3,5.6
		c-2.4-2.1-4.1-6.4-5.2-9.4c0.8,1.4,1.9,2.6,3.2,3.6c-0.2-0.1-1.5-4.5-1.7-5.1c-0.4-1.5-1-3.4-0.3-4.8c0.1,0.5,2.3,5.5,3,4.6
		c0,0-1-4-0.9-4.5c0.3,1,1.1,2,2.2,2.4c0.1,0-0.4-3.2,0-3.7c2.5,0.6,4,2,5.8,3.7c-1.8-0.2-3.4,1.9-4.2,3.3c-1.1,2-0.9,5-0.4,7.2
		c0.8,3.1,1.3,6,3.2,8.7c1.8,2.5,4.9,4,6.7,6.1c-1.3-1.5-2.5-3.1-3.7-4.7c1.2,1.3,3.8,3.1,4.5,4.6c-2.3-4.6-5.7-8.5-7.6-13.4
		c0.7,1,1.5,1.9,2.3,2.8c-1.1-1.1-2.6-4.8-2.7-6.5c0.4,0.9,1,1.6,1.7,2.2c-0.9-0.8-0.6-4.9-0.5-6c0,0.1,0.7,2.1,1.3,1.8
		c0.3-0.1,0-2.2,0-2.4c0,0.8,0.3,1.3,1,1.4c0.4-0.4,0.5-0.9,0.3-1.6c1.9,1.3,0.6,1.3,0.1,3c-0.4,1.3-0.1,2.4-0.1,3.8
		c0,2.3-0.1,3.9,0.9,6.1c1.8,4,5.2,6.4,7.9,9.5c-1.1-1.3-2.1-2.6-3-4c1.8,2.3,3.8,4.4,6,6.3c-1.5-1.4-2.8-4.5-3.8-6.4
		c-1.2-2.2-2.4-4.4-3.4-6.7c0.4,0.7,1.8,2.4,1.9,2.9c-0.6-3.2-2.4-5.7-3.3-8.7c0.6,0.3,6.1,5.9,6.1,5.9c0.8-0.4-3.1-6.5-3.5-7.1
		c1.7,0.6,5.4,2.6,6.1,4.3c-1-2.6-2.8-4.8-5.1-6.4c6.2,0.1,11.2,11.1,13,15.9c-1.5-4.2-2.6-8.7-4.9-12.5c-2.6-4.3-5.6-6.1-10.4-6.9
		c-0.7,0.7-1.2,0.6-1.4-0.1c-0.3-0.5-0.6-0.9-1.1-1.3s-1.6-0.7-1.9-1.1c-1-1.4-1-3.6-2.3-5.1c-3-3.3-6.8-3.6-10.4-1.3
		c-6.6,4.1-5.1,12.7-1.2,18.5C249.1,137.6,255.3,142.3,261.5,146.1C261.5,146.1,253.7,141.4,261.5,146.1z M254.7,126.7
		C254.7,125.9,254.8,126.6,254.7,126.7C254.7,126.6,254.7,126.7,254.7,126.7z"/>
	<path class="st37" d="M267.6,116.1c-1.7-0.8-4.4-6.5-5.4-8.4c-1.9-3.6-3.3-7.5-3.7-11.5c1.1,3.3,2.8,6.3,4.4,9.3c-2-3.7-3-9.6-3-14
		c1.5,2.5,2.6,5.1,3.5,7.9c-0.5-1.5-0.4-3.9-0.9-5.7c1.4,1.6,4.5,5.3,4.7,7.2c-0.3-3.8-1.8-8.2-4.1-11.3c2.5,1.5,3.9,4.5,5.1,7.1
		c1,2,3.1,5.3,3.5,7.2c-0.2-1-0.4-2-0.6-3.1c1.1,2.1,0.3,0.1,0.3-0.6c-0.1-1.7-0.8-3.5-1.1-5.2c-0.5-3.2-0.7-6.5-0.1-9.7
		c-0.2,4.6,1.2,8.9,1.5,13.3c-0.4-5.1,0.2-10.1,1-15.1c0.2,0.6,1.8,6.4,2,6.4c1,0.1,0.1-7.5,0.1-7.9c0.3,0.6,2.4,8.9,2.5,8.9
		c0.4,0,0-4.3-0.1-4.7c1.2,2.1,3.7,5.7,3.4,8.2c0.3-3.5-0.6-6.8-1.4-10.2c1.7,3.3,2.8,6.9,3.4,10.5c0.4,2.6,1.6,7.5,0.8,10
		c0.7-2.1,1.1-4.3,1.3-6.5c0.4,1.9,1.1-1.4,1.2-1.8c0.4-1.2,0.6-2.5,1-3.7c0.8-2.3,2-4.5,3.8-6.2c-1.3,2.6-2.6,5.7-3.3,8.6
		c0-0.2,2.1-2.2,2.5-2.7c0.9-1.2,1.7-2.5,2.6-3.7c0,0.9-1.9,9.1-2.2,8.9c0.5,0.3,2.7-4.1,2.9-4.5c0,2.7,0.3,8-0.9,10.3
		c0.5-0.9,0.9-1.8,1.3-2.8c-0.2,2.1-0.8,4.2-1.2,6.3c-0.2,1-0.4,4.3-0.9,4.9c0.7-0.7,1.2-1.6,1.7-2.4c-0.3,0.9-0.7,1.9-1.1,2.8
		c1.6-3.8,4.2-7.4,5.5-11.5c1.2-4,2.1-8.4,1.5-12.6c-0.5-3.4-2-9-6.5-7.5c-3.8,1.2-6.8,7-7.9,10.5c-0.4-4.4-1.9-8.1-3.6-12.1
		c-1.5-3.6-2.7-5.7-6.6-4.9c-6.4,1.3-8,9.5-7.4,15.4c-2-3-6.6-6-9.7-3.2c-2.8,2.5-3.1,6.8-2.7,10.3C255.7,104,260.6,113,267.6,116.1
		C267.7,116.2,259,112.2,267.6,116.1z M296.4,91.7c-0.5-0.6-0.6-1.3-0.3-2.2C296.3,90.2,296.4,91,296.4,91.7
		C296.3,91.5,296.4,91,296.4,91.7z M294.2,84.3c0.6,0.9,0.9,1.7,1.3,2.7C295.1,86.5,293.9,84.6,294.2,84.3
		C294.5,84.7,294.1,84.4,294.2,84.3z M260.1,88.5C260,88.6,259.8,88.4,260.1,88.5L260.1,88.5z"/>
	<path class="st38" d="M308.3,282.7c-1.3-0.3-2.6-0.5-3.8-0.1c-4.4,0.3-9,1.9-12.9,3.6c-0.1,0,0,0.2,0.1,0.2
		c3.4-1.1,7.3-2.2,11.1-2.5c0,0.2,0.1,0.4,0.3,0.4c0.4,0.2,0.8,0.3,1.1,0.5c-2.6-0.2-5.1-0.1-7.4,0.7c-0.4,0.1-0.4,0.8,0.1,0.9
		c3.1,0.6,6.2,0.3,9.3,0.7c3.6,0.5,7.1,1.5,10.5,2.8c0,0,0,0,0.1,0c0.5,0.6,1,1.3,1.4,2c0.1,0.3,0.6,0.3,0.7-0.1
		c0.2-2-0.7-3.5-2-4.7C314.5,284.4,311.5,283,308.3,282.7z"/>
	<path class="st38" d="M296,286.7c-0.1,0-0.1,0.1,0,0.1c1.1,0.1,2.2,0.3,3.2,0.6c-1.5-0.3-3.2-0.4-4.5,0.2c-0.2,0.1-0.3,0.3-0.2,0.5
		c-0.3-0.1-0.6-0.1-0.9-0.1c0,0-0.1,0,0,0.1c1.9,1,4.1,2.2,6,3.8c-0.3-0.1-0.6-0.2-0.9-0.3c-2.7-1-5.4-2-8.3-2.2
		c0.5-0.7,1-1.6,1.3-2.4c0-0.1-0.1-0.2-0.2-0.1c-0.5,0.9-1.2,1.6-1.8,2.4c-0.3,0-0.5,0-0.8,0c-0.5,0-0.4,0.7,0,0.8
		c0.1,0,0.1,0,0.2,0.1c-0.1,0.1-0.1,0.2-0.2,0.2c-0.1,0.1,0.1,0.3,0.2,0.2c0.1-0.1,0.3-0.2,0.4-0.4c4.7,1.5,11.3,3.2,14.4,7
		c0.9,1.1,2.4,0,1.7-1.2c-1.5-2.8-5.1-5.6-8.6-7.1c1,0.1,2,0.2,2.9,0.4c2.2,0.5,4.3,1.3,6.3,2.2c0.8,0.4,1.5-0.7,0.8-1.3
		C304,287.6,300.2,286.4,296,286.7z"/>
	<path class="st38" d="M297.3,300.7c-0.3-2.2-1.4-4-2.9-5.5c-0.7-1.3-1.7-2.5-3.1-2.7c-1.1-1-2.3-1.8-3.6-2.5
		c-0.1-0.1-0.2,0.1-0.1,0.2s0.2,0.2,0.3,0.3c-0.3-0.1-0.6-0.2-1-0.3c0.7-0.5,1.4-1.3,2-1.9c0.8-0.9,1.5-1.8,2.1-2.7
		c0.1-0.1-0.1-0.2-0.1-0.1c-0.7,0.9-1.4,1.7-2.2,2.5c-0.2,0.2-0.4,0.4-0.6,0.6c0.2-0.3,0.4-0.7,0.6-1c0.5-0.8,1-1.6,1.5-2.5
		c0-0.1-0.1-0.1-0.1-0.1c-0.6,0.7-1.1,1.5-1.7,2.2c0.5-1.1,0.8-2.3,1-3.4c0,0-0.1-0.1-0.1,0c-0.3,0.8-0.7,1.6-1,2.4
		c0.2-1.1,0.3-2.3,0.2-3.4h-0.1c0,0.7-0.1,1.3-0.2,1.9c0.1-0.9,0.1-1.8,0.1-2.7c0-0.1-0.1-0.1-0.1,0c-0.1,1.5-0.4,2.9-0.7,4.3
		c0-1.1-0.1-2.2-0.1-3.2l0,0c-0.2,1.6-0.4,3.4-0.4,5c-0.2,0.5-0.3,1-0.5,1.5c0,0.1,0,0.1,0.1,0.2l-0.1,0.1c0,0,0,0-0.1,0
		s-0.2,0-0.3,0.1c0,0,0,0,0-0.1c0-2.4-0.9-4.8-1.8-6.9h-0.1c0.8,2.1,1.1,4.2,1.5,6.3c-0.9-2.1-2-4.1-2.7-6.2h-0.1
		c0.5,1.6,1.1,3.4,1.8,5c-0.9-1.5-2-3-3-4.4h-0.1c1.1,1.8,2.1,3.9,3.4,5.5c0.1,0.1,0.1,0,0.2,0c0.2,0.4,0.4,0.8,0.7,1.2
		c0.1,0.1,0.2,0,0.2-0.1l0,0c0.7,1.3,1.7,2.3,2.8,3.2c0.2,0.6,0.4,1.1,0.6,1.7c-0.9-1.4-1.8-2.7-2.9-4c-0.1-0.1-0.3,0-0.2,0.1
		c1.9,3.2,3.5,6.5,4.5,10.1c0.3,1,1.6,0.5,1.6-0.3c0-1.2-0.1-2.6-0.3-3.9c0.3,0.3,0.6,0.6,0.8,0.9c0.7,0.8,1.3,1.6,2,2.4
		c0.1,0.2,0.1,0.3,0.2,0.4c0.1,0.3,0.4,0.5,0.6,0.6c0.7,1,1.5,2,2.1,3c0.1,0.2,0.4,0,0.3-0.2c-0.3-1.1-0.7-2.2-1.1-3.2
		C297.3,301.3,297.4,301,297.3,300.7z M286.9,289.5L286.9,289.5c0,0.1-0.1,0.1-0.1,0.2c0,0,0,0-0.1,0
		C286.9,289.7,286.9,289.6,286.9,289.5z M286,290.3C286.1,290.3,286.1,290.3,286,290.3c0,0,0,0.1,0.1,0.1L286,290.3z"/>
	<path class="st38" d="M286,291.2c-0.2,0.1-0.5,0.2-0.7,0.4c0,0-0.1-0.1-0.2-0.1s-0.2,0-0.4,0c0-0.1-0.1-0.1-0.1-0.2
		c-0.4-0.1-0.9-0.1-1.2,0.1c0-0.1-0.1-0.3-0.3-0.2c-0.1,0-0.2,0.1-0.3,0.1c0.4-0.2,0.7-0.5,1-0.8c0.1-0.1,0-0.4-0.2-0.3
		c-0.2,0-0.3,0.1-0.5,0.1c0.2-0.1,0.4-0.3,0.5-0.4c0.2-0.2,0-0.5-0.2-0.5s-0.4,0-0.7,0.1l0,0c-3.7-1.1-8.8,2-11.4,4.5
		c-0.2,0.2,0.1,0.5,0.4,0.4c1.8-1.1,3.6-2,5.6-2.7c0.5-0.2,1-0.3,1.5-0.4c-0.1,0.1-0.2,0.1-0.3,0.2c-1.3,0.7-2.8,1.4-3.8,2.5
		c-0.1,0.1,0,0.2,0.1,0.2c1.1-0.2,2.1-0.7,3.1-1.2c-0.5,0.3-1,0.7-1.5,1c-0.1,0-0.2,0.1-0.3,0.1c-0.1,0-0.1,0.1-0.1,0.2
		c-0.3,0.2-0.6,0.4-0.9,0.6v0.1c-0.1,0.1-0.2,0.2-0.4,0.3c-0.1,0.1,0,0.2,0,0.2c-0.6,0.5-1.3,1.1-2,1.7c0.1-0.2,0.2-0.4,0.2-0.6
		c0.1-0.4-0.3-0.6-0.6-0.5c-0.8,0.2-1.5,0.7-2.1,1.2c-3.4,0.7-6.8,1.9-10,3.4c0.9-1.1,2-2.2,2.7-3.5c0.1-0.2,0-0.4-0.2-0.4
		c-1.8-0.2-3.2,0.8-4.3,2.2c-2,0.5-3.9,1.2-5.7,1.9c1.1-1.2,2.3-2.4,3.7-3.3c2.2-1.5,5-1.9,7-3.5c0.3-0.2,0.2-0.7-0.2-0.8
		c-0.2,0-0.4-0.1-0.6-0.1c0.5-0.2,0.9-0.4,1.4-0.6c0.4-0.2,0.2-0.8-0.2-0.9c-0.8-0.1-1.5-0.1-2.2-0.1c4.3-2.2,8.9-3,13.7-3.7
		c-2.1,0.3-4.2,1.2-5.8,2.4v0.1c0.8-0.2,1.7-0.5,2.5-0.7c-0.9,0.4-1.8,0.9-2.5,1.4c-0.2,0.1,0,0.4,0.2,0.4c1.9-0.6,3.7-1.3,5.6-1.7
		c1.5-0.3,3.1-0.2,4.5-0.7c0.3-0.1,0.2-0.5,0-0.6c-0.1,0-0.2,0-0.3-0.1c0-0.1,0-0.3-0.2-0.4c-1.2-0.3-2.4-0.4-3.7-0.2
		c1.2-0.2,2.5-0.4,3.8-0.6c0.1,0,0.1-0.2,0-0.2c-8.1-0.5-16.8,0.4-23.4,5.5c-0.8,0.6-0.4,2.3,0.7,2c0.2,0,0.5-0.1,0.7-0.1
		c-0.8,0.4-1.6,0.9-2.3,1.4c-2.6,1.7-4.8,4-6.4,6.7c-0.5,0.9,0.6,1.6,1.4,1.2c2.3-1.2,4.8-2.3,7.2-3.4c-0.5,0.9-0.9,1.9-1.1,2.7
		c-0.3,1,1,1.6,1.7,1.1c3.5-2.1,7.1-3.9,10.9-5.6c-1.3,1.9-2,4.3-1.8,6.4c0.1,0.7,1,1.3,1.6,0.8c4.4-3.6,7.6-8.3,12.1-11.7l0,0
		c-0.5,0.8-0.9,1.6-1.1,2.4c-0.6,1-1.3,2.1-1.8,3.2c-0.3,0.6,0.3,1.3,1,1.1c1.1-0.4,2.2-1.1,2.9-2c0.1,0.7,0.2,1.3,0.3,1.9
		c0.1,0.6,1,0.6,1-0.1c0-0.2,0-0.4,0-0.6c0-0.5,0-1-0.1-1.6c0-1.4,0.2-2.7,0.7-4.1c0-0.1,0-0.2-0.1-0.2c0.1-0.2,0.1-0.4,0.2-0.5
		c0.8-0.5,1.9-1.3,2.3-2.1C286.4,291.3,286.2,291.1,286,291.2z M278.6,294c0.4-0.1,0.7-0.1,1.1-0.2c-1.3,0.8-2.6,1.8-3.8,2.9
		C276.7,295.7,277.5,294.8,278.6,294C278.6,294,278.6,294,278.6,294z M270.8,301.5c-0.4,0.3-0.7,0.7-1.1,1c0.2-0.5,0.4-0.9,0.6-1.3
		C270.4,301.4,270.6,301.5,270.8,301.5z M281,297.5c0.3-0.6,0.5-1.2,0.9-1.7c0.7-1.3,1.5-3.1,2.9-3.8c-0.5,0.5-1,1.1-1.3,1.6
		c0,0,0,0.1,0.1,0.1c-0.1,0.2-0.2,0.4-0.3,0.7c-0.5,0.5-0.9,1.1-1,1.7C281.8,296.6,281.4,297,281,297.5z"/>
	<path class="st38" d="M253,233.2c-0.5,0.1-0.6,0.8-0.3,1.1c1.4,1.5,3.7,2.7,6.2,3.2c-0.1,0-0.1,0-0.2,0c-1.1,0.2-1.3,1.8-0.1,2
		c4,0.8,8,0.5,12-0.4c2.7-0.6,6.2-0.9,8.4-2.6c0.6,0,1.3,0,1.8-0.1c1.1-0.2,2-0.6,2.9-1.2c3.3,0.8,6.9,0.8,10.2,1.3
		c3.5,0.6,7,1.2,10.5,2.1c1,0.2,1.5-1.1,0.8-1.7c-2.3-1.9-4.9-3.3-7.7-3.8c2.2,0,4.4,0,6.6,0c1.2,0,1.2-1.8,0.1-2
		c-0.9-0.2-1.8-0.4-2.8-0.5c2.1-0.7,4.1-1.6,6.1-2.3c0.5-0.2,0.8-0.9,0.5-1.4c-2.1-2.5-7.4-0.7-10.1-0.1c-3.2,0.7-6.2,1.9-8.9,3.5
		c1.6-1.1,3.3-2.1,5.1-2.8c3.6-1.3,7.3-1.8,11-2.2c0.8-0.1,1.3-1.5,0.3-1.8s-2-0.6-2.9-0.7c0.9-0.4,1.8-0.8,2.6-1.2
		c0.7-0.3,0.9-1.7-0.1-1.8c-4.8-0.4-8.8,1.9-12.7,4.6c-3,2.1-6.3,4.8-7.2,8.4c-0.5,0.3-1,0.7-1.4,1.1c-0.3,0.1-0.6,0.2-1,0.3
		c-0.1,0-0.1,0.1-0.1,0.1c0-0.1,0.1-0.1,0.1-0.2c0.1-0.2,0.1-0.4-0.1-0.5c0.1,0,0.3-0.1,0.4-0.1c0.2-0.1,0.1-0.3-0.1-0.3
		c-0.7,0.1-1.3,0.2-2,0.4c-0.2,0-0.2,0.2-0.1,0.3c-0.6,0.2-1.2,0.4-1.8,0.5c-0.2,0-0.5-0.1-0.7-0.1l0,0c-0.6,0-1.2,0-1.8,0h0.1
		c0.1,0,0.2,0,0.3,0c0.1,0,0.1-0.1,0.1-0.1v-0.1c0,0,0,0,0-0.1c0.2,0.1,0.4,0.2,0.5,0.3c0.1,0,0.2-0.1,0.1-0.2
		c-0.1-0.1-0.2-0.2-0.3-0.3c0.2,0.1,0.4,0.2,0.7,0.3c0.1,0,0.2-0.2,0.1-0.2c-0.8-0.6-1.6-1-2.4-1.7s-1.5-1.5-2-2.4h-0.1
		c0.5,1,1.2,2,2.1,2.9c-0.2-0.1-0.4-0.2-0.6-0.4c-1-0.6-1.9-1.2-2.9-1.9c0,0-0.1,0,0,0.1c0.9,0.7,1.8,1.4,2.7,2.1
		c0.6,0.4,1.1,0.9,1.7,1.3c-0.1,0-0.2,0-0.2,0.1c-0.1,0-0.1,0-0.2,0c-0.6-0.2-1.3-0.4-1.9-0.6c-1-0.8-1.8-2.1-3-2.3
		c0,0-0.1,0.1,0,0.1c0.9,0.3,1.5,1,2,1.7c-0.7-0.5-1.4-1-2-1.6c-0.1-0.1-0.2,0-0.1,0.1c0.6,0.8,1.5,1.7,2.5,2.4c-0.1,0-0.3,0-0.4,0
		c-0.6-0.4-1.2-0.9-1.7-1.4c0-0.1-0.1,0-0.1,0.1c0.3,0.5,0.7,0.9,1.2,1.3l0,0c-0.1,0-0.1,0.1,0,0.1s0.2,0.1,0.4,0.1
		c0.4,0.3,0.8,0.6,1.3,0.8c-0.5-0.1-1-0.2-1.5-0.3c-0.1,0-0.1,0.1,0,0.2c0.6,0.2,1.2,0.4,1.9,0.5c-0.7,0-1.3,0-2,0
		c-0.3,0-0.6-0.1-0.9-0.1c-5.5-2.2-11.1-4-16.7-5.9c-1.8-1.1-3.5-2.2-5.4-3.1c-0.7-0.3-1.3,0.4-1.2,1.1
		C249.3,228.9,250.9,231.3,253,233.2z M282.6,234.9L282.6,234.9L282.6,234.9C282.5,234.9,282.6,234.9,282.6,234.9z M271.6,234.9
		c0.4,0.1,0.9,0.3,1.5,0.4c-0.5,0-1.1,0-1.6,0h-0.1c0.1-0.2,0.1-0.3,0-0.5h0.1C271.5,234.9,271.5,234.9,271.6,234.9z M266.7,234.4
		c-0.2,0-0.4,0-0.6,0c-0.3,0-0.4,0.2-0.4,0.4c-1.2-0.2-2.5,0.1-3.8,0.3c0-0.1-0.1-0.2-0.2-0.3c-0.4-0.3-0.9-0.6-1.3-0.9
		c0.9,0,1.7-0.1,2.5-0.3C264.1,233.9,265.4,234.1,266.7,234.4L266.7,234.4z M254.4,231.1c-0.9-0.5-1.8-1.2-2.5-2.1l0.1,0.1
		C252.9,229.7,253.6,230.4,254.4,231.1z M251.5,228.6c-0.2-0.2-0.3-0.5-0.5-0.8c0.2,0.1,0.3,0.2,0.5,0.3
		C251.5,228.3,251.5,228.4,251.5,228.6z M267.2,235.6c0.2,0,0.3,0.1,0.5,0.1c-0.2,0-0.4,0.1-0.6,0.1
		C267.1,235.8,267.2,235.7,267.2,235.6z M304.4,227.4c-2.7,0.8-5.4,1.6-7.8,3.1c-2.5,0.2-4.9,0.9-7.1,2.5v0.1
		c0.8-0.3,1.5-0.5,2.3-0.7c0,0.2,0,0.3,0.2,0.4c0.5,0.2,1,0.4,1.6,0.5c-0.5,0.1-1.1,0.1-1.6,0.3v0.1c3,0.2,5.7,0.9,8.2,2.2
		c-2.5-0.5-5-1-7.5-1.4c-2.1-0.3-4.3-0.8-6.5-0.8c0.4-0.5,0.7-0.9,1.1-1.4c1.9-1,3.9-1.8,6-2.4C294.5,229.2,300.9,227.2,304.4,227.4
		z M297.5,223c-0.5,0.6-0.3,1.8,0.7,1.6c0.1,0,0.3,0,0.4,0c-1.5,0.4-3,0.8-4.5,1.4c-1.2,0.5-2.3,1.2-3.3,1.9
		C292.9,226,295.1,224.2,297.5,223z M285,233.4c0,0.1,0,0.1,0,0.2c-0.1,0-0.3,0-0.4,0.1C284.7,233.5,284.8,233.4,285,233.4z
		 M282.5,234.7c-0.1,0.1-0.2,0.2-0.4,0.3c-0.3,0.1-0.6,0.1-0.8,0.2c0.4-0.2,0.8-0.5,1.2-0.9C282.4,234.4,282.4,234.6,282.5,234.7z
		 M274.8,233.7C274.8,233.7,274.9,233.7,274.8,233.7c0,0-0.1,0-0.2,0C274.7,233.7,274.7,233.7,274.8,233.7z M264.3,232.8
		L264.3,232.8c1.6,0.4,3.3,0.8,4.9,1.1C267.6,233.6,265.9,233.3,264.3,232.8z"/>
	<path class="st38" d="M278.2,202.2L278.2,202.2c0.1-0.5,0.1-0.9,0.2-1.3c0,0.2,0.1,0.5,0.2,0.7l0,0c0-0.4-0.1-0.8-0.1-1.3
		c0.2-0.7,0.5-1.4,0.8-2.1c0.5-0.9,1.1-1.8,1.4-2.7c0-0.1-0.1-0.2-0.2-0.1c-0.8,0.7-1.3,1.7-1.7,2.7c0.1-0.4,0.3-0.8,0.4-1.2
		c0.5-0.9,1.2-1.7,1.7-2.6c0.1-0.2-0.1-0.3-0.2-0.2c-1.1,0.6-1.7,1.7-2.1,2.9c0-0.7,0.1-1.3,0.1-2c0-0.2-0.3-0.2-0.3,0
		c-0.5,1.5-0.4,3.3-0.1,4.9c0,0.1,0,0.1,0,0.2l0,0c0,0.2,0,0.3-0.1,0.5c-0.2-2.1-0.3-4.3-1-6.2c-0.1-0.2-0.4-0.1-0.4,0.1
		c0,2.1,0.9,4.4,1.4,6.5C278.1,201.4,278.1,201.8,278.2,202.2z"/>
	<path class="st38" d="M277.3,201.2c-0.6-1.3-1.3-2.5-2-3.8c-0.8-1.2-1.5-2.6-2.7-3.4c-0.1-0.1-0.4,0-0.3,0.2
		c0.6,1.2,1.6,2.2,2.4,3.3C275.6,198.7,276.4,200,277.3,201.2L277.3,201.2z"/>
	<path class="st38" d="M275.9,193c0,0.5,0,1,0.1,1.6c-0.1-0.2-0.2-0.4-0.3-0.6c-0.1-0.2-0.3-0.1-0.3,0.1c0.1,1,0.5,2,0.9,3
		c-0.6-1.2-1.3-2.3-2.2-3.3c-0.1-0.1-0.2,0-0.2,0.1c1,2.5,2.9,4.8,4.1,7.2l0,0c-0.2-0.6-0.5-1.2-0.7-1.8v-0.1c0.2,0.5,0.5,1,0.7,1.4
		h0.1c-0.3-1-0.6-2-0.9-3c-0.1-1.6-0.3-3.3-0.9-4.6C276.1,192.9,275.9,192.9,275.9,193z"/>
	<path class="st38" d="M280.8,196.8c0.4-0.8,1-1.6,1.2-2.4c0-0.1-0.1-0.2-0.2-0.1c-0.6,0.6-1,1.5-1.4,2.3c-0.5,0.9-0.9,1.8-1.3,2.8
		c0,0,0,0.1,0.1,0C279.7,198.5,280.3,197.7,280.8,196.8z"/>
	<path class="st38" d="M272.7,195.3c-0.1-0.1-0.3,0-0.3,0.2c0.2,0.7,0.9,1.4,1.4,2c0.6,0.7,1.2,1.4,1.7,2.1h0.1
		c-0.5-0.8-0.9-1.6-1.4-2.3C273.8,196.6,273.4,195.8,272.7,195.3z"/>
	<path class="st38" d="M272.4,124.6c1-0.1,2-0.1,3,0.1c0.2,0,0.3,0.1,0.5,0.1c-0.1,0-0.2,0.1-0.2,0.1c-1,0.7-1.7,1.6-1.7,2.8
		c0,0.1,0.1,0.1,0.1,0c0.4-1.8,2.2-2.1,3.7-2.4l0,0c0,0,0,0,0.1,0c0,0.1-0.1,0.2-0.1,0.2c-0.4,1-0.6,2-0.5,3.1c0,0.4,0.6,0.4,0.7,0
		c0.4-1.1,1-2,1.8-2.9c0-0.1,0.1-0.1,0.2-0.2c0.1,0,0.2,0.1,0.3,0.1c0.2,0.1,0.4,0.3,0.6,0.5c0.1,0.1,0.4,0.2,0.5,0.3
		c0.1,0.2,0.4,0.1,0.5-0.1c0-0.1,0.2-0.5,0.2-0.8c0-0.4-0.3-0.9-0.5-1.2c0-0.1-0.1-0.1-0.2-0.2c0.1,0,0.1,0,0.2,0
		c0.9,0,1.7-0.1,2.6-0.4c0.5-0.2,0.4-0.8-0.1-0.9c-0.8-0.3-1.7-0.3-2.6-0.3c-0.7,0-1.4,0-1.8,0.6l0,0c-1.6-1.1-6.2,0.5-7.2,0.9
		C272,124.3,272.1,124.6,272.4,124.6z"/>
	<path class="st38" d="M283.8,158c0.4-0.8,0.9-1.5,1.2-2.3c0-0.1-0.1-0.2-0.2-0.1C284.4,156.4,284.1,157.2,283.8,158
		C283.7,158.1,283.8,158.1,283.8,158z"/>
	<path class="st38" d="M283.6,153.8c0.1,1.1,0,2-0.5,3l0,0c0.6-0.9,1-2,0.6-3.1C283.8,153.6,283.6,153.7,283.6,153.8z"/>
	<path class="st38" d="M271.2,153.7c0.1,0.1,0.3-0.1,0.1-0.2c-0.6-0.4-1.1-0.8-1.6-1.3c-0.5-0.4-0.8-1-1.4-1.3
		c-0.1-0.1-0.3,0.1-0.2,0.2C268.6,152.4,270.1,153.3,271.2,153.7z"/>
	<path class="st38" d="M272.9,152.6C272.9,152.7,272.9,152.6,272.9,152.6c-0.1-0.5-0.3-0.8-0.6-1.2c-0.3-0.4-0.4-0.8-0.8-1.1
		c-0.1-0.1-0.3,0-0.3,0.2C271.2,151.4,272.1,152.4,272.9,152.6z"/>
	<path class="st38" d="M275.5,152.6c0.2,0.1,0.4-0.1,0.2-0.3c-0.7-0.8-1.3-1.8-2-2.6c-0.1-0.1-0.3-0.1-0.3,0.1
		C273.7,151,274.6,152,275.5,152.6z"/>
	<path class="st38" d="M281,154.6c0,0.1,0.1,0,0.2,0c0.1-0.5-0.1-0.9-0.1-1.4c0-0.6,0.1-1.1,0.1-1.6c0-0.1-0.2-0.1-0.2,0
		C280.6,152.3,280.5,153.7,281,154.6z"/>
	<path class="st38" d="M284.6,157.8c0.7-0.6,1.5-1.4,1.8-2.3c0-0.1-0.1-0.1-0.2-0.1C285.6,156.2,285.2,157.1,284.6,157.8
		C284.5,157.8,284.6,157.9,284.6,157.8z"/>
	<path class="st38" d="M284.1,159c-0.1,0.1,0.1,0.3,0.2,0.2c0.5-0.4,1-0.9,1.6-1.1c0.5-0.3,1.1-0.4,1.7-0.6c0.2-0.1,0.1-0.3,0-0.3
		C286.1,156.8,284.7,157.8,284.1,159z"/>
	<path class="st38" d="M282,287.2c-0.9-0.6-1.7-1.2-2.6-1.8c-0.1,0-0.1,0-0.1,0.1c0.8,0.7,1.6,1.3,2.4,2c0.7,0.6,1.4,1.4,2.3,1.8
		c0.1,0,0.1,0,0.1,0c0.1,0.3,0.2,0.5,0.4,0.8c0,0.1,0.2,0.1,0.2,0c-0.3-2.2-2-4-3.8-5.1c0,0-0.1,0,0,0.1c1.5,1,2.3,2.2,3.1,3.7
		C283.4,288.1,282.6,287.7,282,287.2z"/>
	<path class="st38" d="M286.4,289.7c0.4-2.2-0.3-4.5-1.2-6.4l0,0c0.9,2.1,1,4.2,1.1,6.4C286.2,289.8,286.4,289.8,286.4,289.7z"/>
	<path class="st38" d="M285.5,229.2L285.5,229.2c-1.1,1.3-2.3,2.2-3.6,3.2c-0.1,0-0.1,0.1,0,0.2c-0.1,0-0.1,0-0.2,0
		c-0.2,0-0.3-0.1-0.5-0.1c0.5-0.5,1-1.1,1.5-1.6c0.7-0.7,1.4-1.3,2.2-1.9l0,0c-1.3,0.7-2.8,1.7-3.7,2.9c0.3-0.4,0.6-0.9,0.9-1.3
		c0.5-0.7,1-1.5,1.5-2.2l0,0c-0.6,0.7-1.2,1.5-1.8,2.2c-0.2,0.2-0.3,0.4-0.5,0.6c0.1-0.3,0.2-0.5,0.3-0.8c0.3-0.8,0.6-1.7,0.9-2.5
		c0-0.1-0.1-0.1-0.1,0c-0.4,0.9-0.7,1.8-1.1,2.6c-0.2,0.5-0.4,1-0.6,1.5c-0.1,0.1-0.1,0.2-0.1,0.2c0.1-0.8,0.1-1.6,0.2-2.5
		c0.2-0.9,0.3-1.9,0.6-2.8l0,0c-0.7,1.6-1.4,3.7-1.1,5.5h-0.1c-0.1-0.6-0.2-1.3-0.2-1.9c0-1.1,0.2-2.2,0.6-3.2c0-0.1-0.1-0.1-0.1,0
		c-0.7,1.5-1.3,3.5-0.7,5.2c-0.2,0-0.3,0-0.5,0c-0.3-0.6-0.6-1.1-0.8-1.7c-0.4-0.8-0.7-1.7-0.9-2.6c0-0.1-0.2,0-0.1,0
		c0.3,1.2,0.6,2.7,1.2,3.9c-1.2-1.1-2.3-2.3-3.1-3.8c0-0.1-0.1,0-0.1,0c0.8,1.8,2,3.7,3.7,4.7c0.1,0.1,0.2,0.3,0.3,0.4
		c0.1,0.1,0.2,0,0.2-0.1c-0.1-0.2-0.1-0.4-0.2-0.6c0.2,0,0.3,0,0.5,0c0.1,0.1,0.1,0.3,0.2,0.4c0.1,0.1,0.2,0,0.2-0.1s0-0.2,0-0.3
		c0.1,0,0.2,0,0.2,0s0,0,0,0.1s0.1,0.1,0.2,0.1c0,0,0-0.1,0.1-0.1l0,0c1.1,0.1,2.3,0.2,3.3-0.2c0.1,0,0.1-0.2,0-0.2
		c-0.6,0-1.3,0.1-1.9,0.1C283.5,231.9,284.7,230.6,285.5,229.2z M281.2,232c-0.1,0.2-0.2,0.3-0.3,0.5c0-0.1,0.1-0.1,0.1-0.2
		C281,232.2,281.1,232.1,281.2,232z"/>
	<path class="st38" d="M277.6,232.8c0.5,0.5,0.9,0.8,1.5,1.1c0.1,0,0.2-0.1,0.1-0.2c-0.2-0.2-0.4-0.4-0.5-0.5c-0.3-0.4-0.7-0.7-1-1
		c-0.2-0.2-0.4-0.4-0.6-0.6c-0.8-0.8-1.4-1.8-2-2.7c0-0.1-0.1,0-0.1,0c0.1,0.2,0.2,0.3,0.2,0.5l0,0
		C275.8,230.5,276.6,232,277.6,232.8z"/>
	<path class="st39" d="M282.1,291H282c0.1-0.1,0.1-0.4-0.1-0.4s-0.5-0.1-0.7-0.1c-6.9-2.6-15.2,0.3-21.9,2.4l0,0
		c3.6-0.8,7.2-1.6,10.9-2c1.1-0.1,2.2-0.2,3.3-0.1c-6.9,1.3-13.7,5.1-19.6,8.4l0,0c9-4.8,17.3-7.2,27.4-8c-0.6,0.1-1.3,0.3-1.9,0.6
		c-5.6-0.1-11.4,3.2-15.8,6.3l0,0c2.7-1.6,5.6-2.9,8.6-3.8c1.5-0.5,3.1-0.8,4.7-1.1c-2.6,1.9-4.9,4.6-6.3,6.9c0,0,0,0.1,0.1,0
		c1.6-1.9,3.4-3.7,5.4-5.2c1.9-1.3,4.1-2,6-3.3C282.5,291.4,282.4,290.9,282.1,291z"/>
	<path class="st39" d="M284.9,291.4c-2.1,1.4-3.2,4.4-3.9,6.7c0,0,0,0.1,0.1,0c0.6-1.3,1.3-2.5,2.1-3.6c0.7-1,1.5-1.8,2-2.9
		C285.2,291.5,285,291.3,284.9,291.4z"/>
	<path class="st39" d="M286.1,288.4c-0.4,0.2,0,0.7,0.3,0.6c0.4-0.1,0.7-0.2,1.1-0.3c-0.3,0.2-0.6,0.3-0.9,0.5
		c-0.2,0.1-0.1,0.4,0.1,0.4c0.3,0,0.5-0.1,0.8-0.1c-0.5,0.1-0.9,0.3-1.4,0.5c-0.1,0-0.1,0.1-0.1,0.1c-0.1,0-0.3-0.1-0.4-0.1
		c-0.2,0-0.4,0.2-0.2,0.4c0.7,1,1.9,1.6,2.8,2.4c1.2,1.1,3.4,2.8,3.1,4.7l0,0c0.7-1.5-0.5-3-1.5-4.1c-0.9-1-2-2.3-3.2-3
		c1.9-0.1,3.6-0.4,5.5-0.2c2,0.2,3.9,0.8,5.7,1.7c0,0,0.1,0,0-0.1c-2.5-1.7-6.1-3-9.3-2.6c1.4-0.3,2.9-0.7,4.3-0.9
		c2.5-0.3,4.9-0.1,7.3,0.2c0,0,0.1-0.1,0-0.1c-2.4-0.9-5.5-1.4-8.4-1.1c1.8-0.6,3.7-1.1,5.7-1.4c3.9-0.6,7.8-0.5,11.8-0.1
		c0,0,0.1-0.1,0-0.1C302.2,284.1,292.6,284.1,286.1,288.4z"/>
	<path class="st39" d="M285.2,289.6c-5.2-3.3-13.7-1.5-19.3,0l0,0c3.6-0.5,7.2-0.7,10.8-0.2c2.4,0.3,4.7,1,7.1,1
		c-1.4,0.6-2.3,2.3-2.4,3.8c0,0.2,0.2,0.2,0.2,0c0.2-1.7,1.2-2.7,2.4-3.6c0.1,0,0.1-0.1,0-0.2c0.3,0,0.6,0,0.9,0
		C285.5,290.4,285.5,289.9,285.2,289.6z"/>
	<path class="st39" d="M258.1,234.2C258.1,234.2,258,234.3,258.1,234.2c3.1,1.4,7.8,2.8,12.3,3c-2.3,0.4-4.6,0.7-7.1,1.1l0,0
		c5.1-0.3,13.4,0.6,17.2-3.7l0,0c0.3,0.1,0.5,0.1,0.8,0.2c1.4,0.7,3.2,0.7,5,0.4c2.9,0.5,5.9,0.5,8.8,0.3c0.2,0,0.1-0.2,0-0.2
		c-2.1-0.1-4.3-0.4-6.4-0.7c1.6-0.5,3.1-1,4.3-1.3c0.1,0,0.1-0.2,0-0.2c-2.1,0.3-4.3,0.9-6.5,1.2c-0.4,0-0.8-0.1-1.2-0.1
		c0.2-0.1,0.4-0.1,0.6-0.2c3.2-1.3,6.4-2.8,9.6-4.4v-0.1c-3.7,1.2-7.6,3.4-11.6,4.2c0.8-0.4,1.5-0.9,2.3-1.3c3.2-2,6.3-4.1,9.5-6.3
		V226c-4.4,2.5-8.9,6-13.8,7.6c5.1-4.2,11.1-9.3,17.6-10.2c0.1,0,0.1-0.1,0-0.1c-6.6,0.7-13.9,5.8-18.6,10.3l0,0c0,0,0,0,0-0.1
		c0.2-0.2-0.1-0.5-0.4-0.4c-0.1,0.1-0.2,0.1-0.3,0.1c-0.1,0-0.2-0.1-0.2-0.1c-0.1-0.1-0.2,0-0.3,0.1c0,0,0,0-0.1,0
		c-9.3,1.3-18.1,1-26.3-4.3l0,0c4.7,3.3,13.1,7.1,20.1,6.7C268.5,236.7,263,235.9,258.1,234.2z"/>
	<path class="st30" d="M283.8,357.9c-1.9-9.1-7.7-16.6-12.1-24.7c-3.4-6.4-8-12.2-11.8-18.3c0.6,2.6,1,5.3,1.7,7.7
		c1.9,7.4,4.2,14.8,6.9,21.9c2.8,7.6,7.2,14.6,11.1,21.7c2.3,4.1,5,8.3,6.8,12.8c-0.2-1.2-0.5-2.4-0.6-3.6
		C284.8,369.5,284.2,363.7,283.8,357.9z"/>
	<path class="st35" d="M302.5,323c0-8.3-0.5-16.4,0.4-24.6c-2.6,9.4-5.5,18.6-6,28.4c-0.3,5.5,0,11.1,0.1,16.6
		c0.1,3.9,0.3,8-0.5,11.8c0.5-0.8,1-1.5,1.4-2.3C301.1,343.2,302.6,333.2,302.5,323z"/>
</g>
</svg>
