<?xml version="1.0" encoding="utf-8"?>
<!-- Generator: Adobe Illustrator 25.3.1, SVG Export Plug-In . SVG Version: 6.00 Build 0)  -->
<svg version="1.1" id="圖層_1" xmlns="http://www.w3.org/2000/svg" xmlns:xlink="http://www.w3.org/1999/xlink" x="0px" y="0px"
	 viewBox="0 0 111 122" style="enable-background:new 0 0 111 122;" xml:space="preserve">
<style type="text/css">
	.st0{fill:#C6F7E2;}
	.st1{fill:#98D3D2;}
	.st2{fill:#D0F9F2;}
	.st3{fill:#4D3729;}
	.st4{fill:#FAAF1E;}
	.st5{fill:#FFC947;}
	.st6{fill:#F395A0;}
	.st7{fill:#221E1F;}
</style>
<g id="圖層_18">
	<path class="st0" d="M47.2,45.7c-10.2-3.1-20-21.5-15.9-32.3C35.6,2.7,46.4-2,56.8,2.5c13.5,5.4,6.4,28.6,1.8,38.1L47.2,45.7z"/>
	<path class="st1" d="M54.4,46.2c0,0-0.2-0.4-0.4-1.1c-0.2-0.7-0.6-1.6-1-2.8c-0.2-0.6-0.4-1.2-0.6-1.9c-0.2-0.7-0.4-1.4-0.5-2.2
		c-0.4-1.5-0.7-3.1-1-4.8c-0.5-3.3-1-6.5-1.1-9c-0.1-1.2-0.1-2.3-0.2-3c0-0.7,0-1.1,0-1.1s0.1,0.4,0.3,1.1s0.4,1.7,0.7,2.9
		c0.2,1.2,0.5,2.6,0.8,4.1s0.6,3.1,0.8,4.8c0.3,1.6,0.6,3.2,0.9,4.7c0.1,0.8,0.2,1.5,0.4,2.2s0.3,1.3,0.4,2c0.3,1.2,0.4,2.2,0.6,2.9
		C54.3,45.8,54.4,46.2,54.4,46.2z"/>
</g>
<g id="圖層_16">
	<path class="st2" d="M44.4,53.9c-3.9,2.6-17.4-1.1-20.7-3.6c-7.2-5.4-8.9-20.3-4.5-27.9c5.7-9.4,17-11.3,23.4-3
		c3.5,4.5,6.9,8.8,8.5,14.3c1.3,4.7,3.7,11.1,1.4,15.8L44.4,53.9z"/>
	<path class="st1" d="M28.7,37.5c0,0,0.4,0.2,1.1,0.4c0.7,0.3,1.7,0.7,2.9,1.2c2.4,1.1,5.5,2.6,8.5,4.2c3.1,1.6,6.1,3.3,8.3,4.7
		c1.1,0.7,2,1.3,2.7,1.7c0.6,0.4,1,0.7,1,0.7s-0.4-0.2-1.1-0.4c-0.7-0.3-1.7-0.7-2.9-1.2c-2.4-1.1-5.5-2.6-8.5-4.2
		c-3.1-1.6-6.1-3.3-8.3-4.7c-1.1-0.7-2-1.3-2.7-1.7C29.1,37.7,28.7,37.5,28.7,37.5z"/>
</g>
<g id="圖層_8">
	<path class="st3" d="M44.6,79.9c-3.7-7.2-7.4-19-7.2-28.4c-2.4,2.2-4.6,4.5-6.6,7c-0.2,18,10.6,37.8,27.5,42.9
		c2.7-1.2,5.4-2.5,8-3.8C56.7,94.2,49.1,88.4,44.6,79.9z"/>
	<path class="st3" d="M24,69.9c-0.1,0.2-0.2,0.3-0.2,0.5c-2,5.1-2,11.9-1.1,17.2c0.4,2.6,1.4,5.1,2.8,7.4
		c4.9,7.9,13.3,10.7,21.8,9.6C33.8,98.2,24.3,84.5,24,69.9z"/>
	<path class="st3" d="M28.3,90.6C21,98.4,14.6,107.1,5,117.3l0,0c3.6-3.6,23.7-17.7,29.1-21.2L28.3,90.6z"/>
	<path class="st4" d="M48.7,55.4c0.2-5.2,0.6-9.7,0.8-13.2c-1.2,0.8-2.4,1.7-3.6,2.5c-3,2.1-5.9,4.4-8.6,6.8
		c-0.2,9.4,3.5,21.2,7.2,28.4c4.5,8.5,12.1,14.3,21.7,17.7c1.9-1,3.7-2,5.6-2.9c0.9-0.5,1.8-1,2.7-1.4C59.6,87.2,48,73.1,48.7,55.4z
		"/>
	<path class="st3" d="M58.6,67.8c-5.3-15.8-3.4-22.7-1-31.1c-2.7,1.8-5.4,3.6-8,5.5c-0.3,3.5-0.6,8.1-0.8,13.2
		c-0.7,17.7,10.9,31.8,25.9,37.8c4.1-2.3,8.2-4.8,12.1-7.6C74.3,84.7,62.6,79.6,58.6,67.8z"/>
	<path class="st4" d="M30.8,58.5C28,62,25.7,65.7,24,69.9c0.3,14.7,9.9,28.3,23.3,34.8c1.8-0.2,3.5-0.6,5.3-1.1
		c1.9-0.6,3.8-1.3,5.7-2.1C41.4,96.2,30.6,76.4,30.8,58.5z"/>
	<path class="st5" d="M102.8,52.1c1.4-3.4,4.1-5,7.1-4.7c-0.4-7.3-3.5-14.4-9.5-18.9c-6.3-4.6-14.9-5.2-22.3-2.9
		C71,27.8,65,31.9,58.8,35.9c-0.4,0.3-0.8,0.5-1.2,0.8c-2.4,8.4-4.3,15.3,1,31.1c4,11.8,15.8,16.9,28.1,17.8
		c7.9-5.7,14.8-12.6,19.2-21.2C102.7,61.2,101,56.2,102.8,52.1z"/>
</g>
<g id="圖層_7">
	<path class="st6" d="M63.3,44.6c3.5-2.1,10,2.8,10.2,6.5c0.1,1.4-0.9,3.6-1.7,4.7c-1.9,2.3-6.4,3.2-9,1.6c-2-1.3-2.6-2.7-3.2-4.9
		C59,49.4,60.8,46.1,63.3,44.6z"/>
	<path class="st6" d="M109.9,47.4c-3-0.2-5.7,1.3-7.1,4.7c-1.8,4.1-0.1,9.1,3.1,12.3c0.8-1.6,1.6-3.2,2.2-4.9
		C109.5,55.6,110.1,51.5,109.9,47.4z"/>
</g>
<g id="圖層_6">
	<path class="st3" d="M79.1,57.9c0,0,0.1,0.4,0.3,1.1c0.1,0.4,0.3,0.7,0.5,1.2c0.2,0.4,0.5,0.9,0.8,1.4c0.4,0.5,0.7,1.1,1.2,1.5
		c0.4,0.5,1,1,1.6,1.5c0.3,0.2,0.6,0.4,0.9,0.6s0.7,0.3,1,0.5c0.7,0.3,1.5,0.5,2.3,0.6s1.6,0.2,2.4,0.1c0.8,0,1.6-0.1,2.3-0.3
		c0.7-0.2,1.4-0.4,2-0.7c0.3-0.1,0.6-0.3,0.8-0.5c0.3-0.2,0.5-0.4,0.7-0.6c0.5-0.4,0.7-0.9,1.1-1.3c0.2-0.4,0.5-0.8,0.6-1.1
		c0.2-0.7,0.4-1.1,0.4-1.1s-0.1,0.4-0.2,1.2c-0.1,0.4-0.3,0.8-0.4,1.3c-0.3,0.5-0.5,1-0.9,1.5c-0.2,0.3-0.4,0.5-0.7,0.8
		c-0.3,0.3-0.6,0.5-0.9,0.7c-0.6,0.4-1.4,0.8-2.2,1c-0.8,0.2-1.6,0.4-2.5,0.4c-0.9,0.1-1.7,0-2.6-0.1s-1.8-0.3-2.6-0.7
		c-0.4-0.2-0.8-0.4-1.2-0.6c-0.3-0.3-0.7-0.5-1-0.8c-0.6-0.6-1.1-1.1-1.6-1.8c-0.5-0.6-0.8-1.2-1.1-1.8s-0.5-1.1-0.7-1.6
		c-0.1-0.5-0.3-1-0.3-1.3C79.1,58.3,79.1,57.9,79.1,57.9z"/>
</g>
<g id="圖層_5">
	<path class="st7" d="M84.6,23.2c-0.8-0.3-2.1-0.1-2.9,0.3c-1,0.6-2,1.6-2.5,2.7c-1,2.1,0.3,2.1,1.9,1.3c1.2-0.6,2.9-1.6,3.7-2.7
		C85.4,23.9,85.1,23.4,84.6,23.2z"/>
</g>
<g id="圖層_4">
	<path class="st7" d="M98.4,24.9c-1.2-0.2-1,1.2-0.8,2c0.3,1.2,3,5.5,4.5,3.9c1.7-1.6-1.7-5.2-3.2-5.7
		C98.6,24.9,98.5,24.9,98.4,24.9z"/>
</g>
<g id="圖層_3">
	<path class="st7" d="M85.3,41.9c-0.2,0-0.4-0.1-0.6,0c-2.1,0.3-1.8,3.8-1.6,5.3c0.2,1.7,1.5,2.9,2.8,1.1
		C86.4,47.5,87.9,42.2,85.3,41.9z"/>
</g>
<g id="圖層_2_1_">
	<path class="st7" d="M97.4,42.8c0.2,0,0.4,0,0.6,0.1c1.2,0.4,1.2,4,0.8,5.4c-0.5,1.6-1.9,2.7-3,0.7C95.5,48.2,95.5,43.1,97.4,42.8z
		"/>
</g>
</svg>
