<?xml version="1.0" encoding="utf-8"?>
<!-- Generator: Adobe Illustrator 25.3.1, SVG Export Plug-In . SVG Version: 6.00 Build 0)  -->
<svg version="1.1" id="圖層_1" xmlns="http://www.w3.org/2000/svg" xmlns:xlink="http://www.w3.org/1999/xlink" x="0px" y="0px"
	 viewBox="0 0 1000 700" style="enable-background:new 0 0 1000 700;" xml:space="preserve">
<style type="text/css">
	.st0{opacity:0.76;fill:#94FFFF;enable-background:new    ;}
	.st1{opacity:0.76;fill:#93FEFE;enable-background:new    ;}
	.st2{opacity:0.76;fill:#92FDFE;enable-background:new    ;}
	.st3{opacity:0.76;fill:#90FDFD;enable-background:new    ;}
	.st4{opacity:0.76;fill:#8FFCFC;enable-background:new    ;}
	.st5{opacity:0.76;fill:#8EFBFB;enable-background:new    ;}
	.st6{opacity:0.76;fill:#8DFAFB;enable-background:new    ;}
	.st7{opacity:0.76;fill:#8CF9FA;enable-background:new    ;}
	.st8{opacity:0.76;fill:#8BF9F9;enable-background:new    ;}
	.st9{opacity:0.76;fill:#89F8F8;enable-background:new    ;}
	.st10{opacity:0.76;fill:#88F7F8;enable-background:new    ;}
	.st11{opacity:0.76;fill:#87F6F7;enable-background:new    ;}
	.st12{opacity:0.76;fill:#86F5F6;enable-background:new    ;}
	.st13{opacity:0.76;fill:#85F4F5;enable-background:new    ;}
	.st14{opacity:0.76;fill:#84F4F5;enable-background:new    ;}
	.st15{opacity:0.76;fill:#82F3F4;enable-background:new    ;}
	.st16{opacity:0.76;fill:#81F2F3;enable-background:new    ;}
	.st17{opacity:0.76;fill:#80F1F2;enable-background:new    ;}
	.st18{opacity:0.76;fill:#7FF0F2;enable-background:new    ;}
	.st19{opacity:0.76;fill:#7EF0F1;enable-background:new    ;}
	.st20{opacity:0.76;fill:#7DEFF0;enable-background:new    ;}
	.st21{opacity:0.76;fill:#7BEEEF;enable-background:new    ;}
	.st22{opacity:0.76;fill:#7AEDEF;enable-background:new    ;}
	.st23{opacity:0.76;fill:#79ECEE;enable-background:new    ;}
	.st24{opacity:0.76;fill:#78ECED;enable-background:new    ;}
	.st25{opacity:0.76;fill:#77EBEC;enable-background:new    ;}
	.st26{opacity:0.76;fill:#75EAEC;enable-background:new    ;}
	.st27{opacity:0.76;fill:#74E9EB;enable-background:new    ;}
	.st28{opacity:0.76;fill:#73E8EA;enable-background:new    ;}
	.st29{opacity:0.76;fill:#72E8E9;enable-background:new    ;}
	.st30{opacity:0.76;fill:#71E7E9;enable-background:new    ;}
	.st31{opacity:0.76;fill:#70E6E8;enable-background:new    ;}
	.st32{opacity:0.76;fill:#6EE5E7;enable-background:new    ;}
	.st33{opacity:0.76;fill:#6DE4E6;enable-background:new    ;}
	.st34{opacity:0.76;fill:#6CE3E6;enable-background:new    ;}
	.st35{opacity:0.76;fill:#6BE3E5;enable-background:new    ;}
	.st36{opacity:0.76;fill:#6AE2E4;enable-background:new    ;}
	.st37{opacity:0.76;fill:#69E1E3;enable-background:new    ;}
	.st38{opacity:0.76;fill:#67E0E3;enable-background:new    ;}
	.st39{opacity:0.76;fill:#66DFE2;enable-background:new    ;}
	.st40{opacity:0.76;fill:#65DFE1;enable-background:new    ;}
	.st41{opacity:0.76;fill:#64DEE0;enable-background:new    ;}
	.st42{opacity:0.76;fill:#63DDE0;enable-background:new    ;}
	.st43{opacity:0.76;fill:#61DCDF;enable-background:new    ;}
	.st44{opacity:0.76;fill:#60DBDE;enable-background:new    ;}
	.st45{opacity:0.76;fill:#5FDBDD;enable-background:new    ;}
	.st46{opacity:0.76;fill:#5EDADD;enable-background:new    ;}
	.st47{opacity:0.76;fill:#5DD9DC;enable-background:new    ;}
	.st48{opacity:0.76;fill:#5CD8DB;enable-background:new    ;}
	.st49{opacity:0.76;fill:#5AD7DA;enable-background:new    ;}
	.st50{opacity:0.76;fill:#59D7DA;enable-background:new    ;}
	.st51{opacity:0.76;fill:#58D6D9;enable-background:new    ;}
	.st52{opacity:0.76;fill:#57D5D8;enable-background:new    ;}
	.st53{opacity:0.76;fill:#56D4D7;enable-background:new    ;}
	.st54{opacity:0.76;fill:#55D3D7;enable-background:new    ;}
	.st55{opacity:0.76;fill:#53D2D6;enable-background:new    ;}
	.st56{opacity:0.76;fill:#52D2D5;enable-background:new    ;}
	.st57{opacity:0.76;fill:#51D1D4;enable-background:new    ;}
	.st58{opacity:0.76;fill:#50D0D4;enable-background:new    ;}
	.st59{opacity:0.76;fill:#4FCFD3;enable-background:new    ;}
	.st60{opacity:0.76;fill:#4ECED2;enable-background:new    ;}
	.st61{opacity:0.76;fill:#4CCED1;enable-background:new    ;}
	.st62{opacity:0.76;fill:#4BCDD1;enable-background:new    ;}
	.st63{opacity:0.76;fill:#4ACCD0;enable-background:new    ;}
	.st64{opacity:0.76;fill:#49CBCF;enable-background:new    ;}
	.st65{opacity:0.76;fill:#48CACF;enable-background:new    ;}
	.st66{opacity:0.76;fill:#46CACE;enable-background:new    ;}
	.st67{opacity:0.76;fill:#45C9CD;enable-background:new    ;}
	.st68{opacity:0.76;fill:#44C8CC;enable-background:new    ;}
	.st69{opacity:0.76;fill:#43C7CC;enable-background:new    ;}
	.st70{opacity:0.76;fill:#42C6CB;enable-background:new    ;}
	.st71{opacity:0.76;fill:#41C6CA;enable-background:new    ;}
	.st72{opacity:0.76;fill:#3FC5C9;enable-background:new    ;}
	.st73{opacity:0.76;fill:#3EC4C9;enable-background:new    ;}
	.st74{opacity:0.76;fill:#3DC3C8;enable-background:new    ;}
	.st75{opacity:0.76;fill:#3CC2C7;enable-background:new    ;}
	.st76{opacity:0.76;fill:#3BC1C6;enable-background:new    ;}
	.st77{opacity:0.76;fill:#3AC1C6;enable-background:new    ;}
	.st78{opacity:0.76;fill:#38C0C5;enable-background:new    ;}
	.st79{opacity:0.76;fill:#37BFC4;enable-background:new    ;}
	.st80{opacity:0.76;fill:#36BEC3;enable-background:new    ;}
	.st81{opacity:0.76;fill:#35BDC3;enable-background:new    ;}
	.st82{opacity:0.76;fill:#34BDC2;enable-background:new    ;}
	.st83{opacity:0.76;fill:#33BCC1;enable-background:new    ;}
	.st84{opacity:0.76;fill:#31BBC0;enable-background:new    ;}
	.st85{opacity:0.76;fill:#30BAC0;enable-background:new    ;}
	.st86{opacity:0.76;fill:#2FB9BF;enable-background:new    ;}
	.st87{opacity:0.76;fill:#2EB9BE;enable-background:new    ;}
	.st88{opacity:0.76;fill:#2DB8BD;enable-background:new    ;}
	.st89{opacity:0.76;fill:#2BB7BD;enable-background:new    ;}
	.st90{opacity:0.76;fill:#2AB6BC;enable-background:new    ;}
	.st91{opacity:0.76;fill:#29B5BB;enable-background:new    ;}
	.st92{opacity:0.76;fill:#28B5BA;enable-background:new    ;}
	.st93{opacity:0.76;fill:#27B4BA;enable-background:new    ;}
	.st94{opacity:0.76;fill:#26B3B9;enable-background:new    ;}
	.st95{opacity:0.76;fill:#24B2B8;enable-background:new    ;}
	.st96{opacity:0.76;fill:#23B1B7;enable-background:new    ;}
	.st97{opacity:0.76;fill:#22B0B7;enable-background:new    ;}
	.st98{opacity:0.76;fill:#21B0B6;enable-background:new    ;}
	.st99{opacity:0.76;fill:#20AFB5;enable-background:new    ;}
	.st100{opacity:0.76;fill:#1FAEB4;enable-background:new    ;}
	.st101{opacity:0.76;fill:#1DADB4;enable-background:new    ;}
	.st102{opacity:0.76;fill:#1CACB3;enable-background:new    ;}
	.st103{opacity:0.76;fill:#1BACB2;enable-background:new    ;}
	.st104{opacity:0.76;fill:#1AABB1;enable-background:new    ;}
	.st105{opacity:0.76;fill:#19AAB1;enable-background:new    ;}
	.st106{opacity:0.76;fill:#17A9B0;enable-background:new    ;}
	.st107{opacity:0.76;fill:#16A8AF;enable-background:new    ;}
	.st108{opacity:0.76;fill:#15A8AE;enable-background:new    ;}
	.st109{opacity:0.76;fill:#14A7AE;enable-background:new    ;}
	.st110{opacity:0.76;fill:#13A6AD;enable-background:new    ;}
	.st111{opacity:0.76;fill:#12A5AC;enable-background:new    ;}
	.st112{opacity:0.76;fill:#10A4AB;enable-background:new    ;}
	.st113{opacity:0.76;fill:#0FA4AB;enable-background:new    ;}
	.st114{opacity:0.76;fill:#0EA3AA;enable-background:new    ;}
	.st115{opacity:0.76;fill:#0DA2A9;enable-background:new    ;}
	.st116{opacity:0.76;fill:#0CA1A8;enable-background:new    ;}
	.st117{opacity:0.76;fill:#0BA0A8;enable-background:new    ;}
	.st118{opacity:0.76;fill:#099FA7;enable-background:new    ;}
	.st119{opacity:0.76;fill:#089FA6;enable-background:new    ;}
	.st120{opacity:0.76;fill:#079EA5;enable-background:new    ;}
	.st121{opacity:0.76;fill:#069DA5;enable-background:new    ;}
	.st122{opacity:0.76;fill:#059CA4;enable-background:new    ;}
	.st123{opacity:0.76;fill:#049BA3;enable-background:new    ;}
	.st124{opacity:0.76;fill:#029BA2;enable-background:new    ;}
	.st125{opacity:0.76;fill:#019AA2;enable-background:new    ;}
	.st126{opacity:0.76;fill:#0099A1;enable-background:new    ;}
	.st127{fill:none;stroke:#F503FC;stroke-miterlimit:10;}
</style>
<g id="圖層_1_1_">
	<g id="圖層_3">
		<circle class="st0" cx="46.8" cy="214.8" r="2.5"/>
	</g>
	<g id="圖層_4">
		<circle class="st1" cx="29.6" cy="241.8" r="2.5"/>
	</g>
	<g id="圖層_5">
		<circle class="st2" cx="17.8" cy="274.3" r="2.6"/>
	</g>
	<g id="圖層_6">
		<circle class="st3" cx="11.2" cy="310.9" r="2.6"/>
	</g>
	<g id="圖層_7">
		<circle class="st4" cx="9.4" cy="350.2" r="2.7"/>
	</g>
	<g id="圖層_8">
		<circle class="st5" cx="11.9" cy="390.8" r="2.7"/>
	</g>
	<g id="圖層_9">
		
			<ellipse transform="matrix(0.9999 -1.020251e-02 1.020251e-02 0.9999 -4.3994 0.2102)" class="st6" cx="18.4" cy="431.3" rx="2.7" ry="2.7"/>
	</g>
	<g id="圖層_10">
		<circle class="st7" cx="28.6" cy="470.3" r="2.8"/>
	</g>
	<g id="圖層_11">
		<circle class="st8" cx="42" cy="506.4" r="2.8"/>
	</g>
	<g id="圖層_12">
		<circle class="st9" cx="58.4" cy="538.2" r="2.9"/>
	</g>
	<g id="圖層_13">
		<circle class="st10" cx="77.3" cy="564.4" r="2.9"/>
	</g>
	<g id="圖層_14">
		<circle class="st11" cx="102.9" cy="588.2" r="2.9"/>
	</g>
	<g id="圖層_15">
		<circle class="st12" cx="135.1" cy="609.7" r="3"/>
	</g>
	<g id="圖層_16">
		<circle class="st13" cx="171.4" cy="628" r="3"/>
	</g>
	<g id="圖層_17">
		<circle class="st14" cx="210.1" cy="642.9" r="3.1"/>
	</g>
	<g id="圖層_18">
		<circle class="st15" cx="249.4" cy="654.5" r="3.1"/>
	</g>
	<g id="圖層_19">
		<circle class="st16" cx="287.9" cy="662.7" r="3.1"/>
	</g>
	<g id="圖層_20">
		<circle class="st17" cx="323.8" cy="667.6" r="3.2"/>
	</g>
	<g id="圖層_21">
		<circle class="st18" cx="355.5" cy="669.2" r="3.2"/>
	</g>
	<g id="圖層_22">
		<circle class="st19" cx="381.6" cy="667.3" r="3.3"/>
	</g>
	<g id="圖層_23">
		<circle class="st20" cx="410" cy="661.2" r="3.3"/>
	</g>
	<g id="圖層_24">
		<circle class="st21" cx="441.8" cy="650.3" r="3.3"/>
	</g>
	<g id="圖層_25">
		<circle class="st22" cx="473.8" cy="634" r="3.4"/>
	</g>
	<g id="圖層_26">
		<circle class="st23" cx="503.4" cy="611.6" r="3.4"/>
	</g>
	<g id="圖層_27">
		<circle class="st24" cx="527.5" cy="582.3" r="3.5"/>
	</g>
	<g id="圖層_28">
		<circle class="st25" cx="543.3" cy="545.5" r="3.5"/>
	</g>
	<g id="圖層_29">
		<circle class="st26" cx="547.9" cy="500.6" r="3.6"/>
	</g>
	<g id="圖層_30">
		<circle class="st27" cx="539.2" cy="453.4" r="3.6"/>
	</g>
	<g id="圖層_31">
		<circle class="st28" cx="519.1" cy="419.8" r="3.6"/>
	</g>
	<g id="圖層_32">
		<circle class="st29" cx="490.7" cy="398.8" r="3.7"/>
	</g>
	<g id="圖層_33">
		<circle class="st30" cx="456.8" cy="388.9" r="3.7"/>
	</g>
	<g id="圖層_34">
		<circle class="st31" cx="420.3" cy="388.8" r="3.8"/>
	</g>
	<g id="圖層_35">
		<circle class="st32" cx="384.1" cy="397.3" r="3.8"/>
	</g>
	<g id="圖層_36">
		<circle class="st33" cx="351" cy="412.9" r="3.8"/>
	</g>
	<g id="圖層_37">
		<circle class="st34" cx="323.9" cy="434.4" r="3.9"/>
	</g>
	<g id="圖層_38">
		<circle class="st35" cx="305.8" cy="460.4" r="3.9"/>
	</g>
	<g id="圖層_39">
		<circle class="st36" cx="299" cy="490" r="4"/>
	</g>
	<g id="圖層_40">
		<circle class="st37" cx="303.9" cy="519.9" r="4"/>
	</g>
	<g id="圖層_41">
		<circle class="st38" cx="319" cy="549" r="4"/>
	</g>
	<g id="圖層_42">
		<circle class="st39" cx="342.4" cy="576.4" r="4.1"/>
	</g>
	<g id="圖層_43">
		<circle class="st40" cx="372.4" cy="601.3" r="4.1"/>
	</g>
	<g id="圖層_44">
		<circle class="st41" cx="407.1" cy="623" r="4.2"/>
	</g>
	<g id="圖層_45">
		<circle class="st42" cx="444.8" cy="640.5" r="4.2"/>
	</g>
	<g id="圖層_46">
		<circle class="st43" cx="483.6" cy="653.2" r="4.2"/>
	</g>
	<g id="圖層_47">
		<circle class="st44" cx="521.9" cy="660.1" r="4.3"/>
	</g>
	<g id="圖層_48">
		<circle class="st45" cx="561.9" cy="661.2" r="4.3"/>
	</g>
	<g id="圖層_49">
		<circle class="st46" cx="603.9" cy="657.6" r="4.4"/>
	</g>
	<g id="圖層_50">
		<circle class="st47" cx="646.3" cy="649.7" r="4.4"/>
	</g>
	<g id="圖層_51">
		<circle class="st48" cx="688.4" cy="638.3" r="4.4"/>
	</g>
	<g id="圖層_52">
		<circle class="st49" cx="729.8" cy="623.6" r="4.5"/>
	</g>
	<g id="圖層_53">
		<circle class="st50" cx="770" cy="606.2" r="4.5"/>
	</g>
	<g id="圖層_54">
		<circle class="st51" cx="808.4" cy="586.7" r="4.6"/>
	</g>
	<g id="圖層_55">
		<circle class="st52" cx="844.5" cy="565.5" r="4.6"/>
	</g>
	<g id="圖層_56">
		<circle class="st53" cx="877.8" cy="543" r="4.6"/>
	</g>
	<g id="圖層_57">
		<circle class="st54" cx="907.8" cy="519.9" r="4.7"/>
	</g>
	<g id="圖層_58">
		<circle class="st55" cx="933.9" cy="496.6" r="4.7"/>
	</g>
	<g id="圖層_59">
		<circle class="st56" cx="955.7" cy="473.6" r="4.8"/>
	</g>
	<g id="圖層_60">
		<circle class="st57" cx="972.6" cy="451.3" r="4.8"/>
	</g>
	<g id="圖層_61">
		<circle class="st58" cx="984.2" cy="430.4" r="4.8"/>
	</g>
	<g id="圖層_62">
		<circle class="st59" cx="989.8" cy="411.3" r="4.9"/>
	</g>
	<g id="圖層_63">
		<circle class="st60" cx="989.1" cy="373.3" r="4.9"/>
	</g>
	<g id="圖層_64">
		<circle class="st61" cx="978.6" cy="334.7" r="5"/>
	</g>
	<g id="圖層_65">
		<circle class="st62" cx="959.4" cy="300.1" r="5"/>
	</g>
	<g id="圖層_66">
		<circle class="st63" cx="933.3" cy="269.8" r="5.1"/>
	</g>
	<g id="圖層_67">
		<circle class="st64" cx="902" cy="244.3" r="5.1"/>
	</g>
	<g id="圖層_68">
		<circle class="st65" cx="867.3" cy="224" r="5.1"/>
	</g>
	<g id="圖層_69">
		<circle class="st66" cx="830.9" cy="209.4" r="5.2"/>
	</g>
	<g id="圖層_70">
		<circle class="st67" cx="794.5" cy="201" r="5.2"/>
	</g>
	<g id="圖層_71">
		<circle class="st68" cx="759.8" cy="199.2" r="5.3"/>
	</g>
	<g id="圖層_72">
		<circle class="st69" cx="728.6" cy="204.3" r="5.3"/>
	</g>
	<g id="圖層_73">
		<circle class="st70" cx="702.5" cy="217" r="5.3"/>
	</g>
	<g id="圖層_74">
		<circle class="st71" cx="679.2" cy="243" r="5.4"/>
	</g>
	<g id="圖層_75">
		<circle class="st72" cx="657.6" cy="285.6" r="5.4"/>
	</g>
	<g id="圖層_76">
		<circle class="st73" cx="651.2" cy="324.2" r="5.5"/>
	</g>
	<g id="圖層_77">
		<circle class="st74" cx="657.8" cy="358" r="5.5"/>
	</g>
	<g id="圖層_78">
		<circle class="st75" cx="674.8" cy="386.5" r="5.5"/>
	</g>
	<g id="圖層_79">
		<circle class="st76" cx="699.9" cy="408.8" r="5.6"/>
	</g>
	<g id="圖層_80">
		<circle class="st77" cx="730.7" cy="424.4" r="5.6"/>
	</g>
	<g id="圖層_81">
		<circle class="st78" cx="764.7" cy="432.4" r="5.7"/>
	</g>
	<g id="圖層_82">
		<circle class="st79" cx="799.6" cy="432.3" r="5.7"/>
	</g>
	<g id="圖層_83">
		<circle class="st80" cx="832.7" cy="423.4" r="5.7"/>
	</g>
	<g id="圖層_84">
		<circle class="st81" cx="858.7" cy="406.7" r="5.8"/>
	</g>
	<g id="圖層_85">
		<circle class="st82" cx="878.1" cy="382.8" r="5.8"/>
	</g>
	<g id="圖層_86">
		<circle class="st83" cx="891" cy="353.3" r="5.9"/>
	</g>
	<g id="圖層_87">
		<circle class="st84" cx="897.5" cy="319.5" r="5.9"/>
	</g>
	<g id="圖層_88">
		<circle class="st85" cx="897.8" cy="282.9" r="5.9"/>
	</g>
	<g id="圖層_89">
		<circle class="st86" cx="891.8" cy="244.9" r="6"/>
	</g>
	<g id="圖層_90">
		<circle class="st87" cx="879.7" cy="207" r="6"/>
	</g>
	<g id="圖層_91">
		<circle class="st88" cx="861.7" cy="170.4" r="6.1"/>
	</g>
	<g id="圖層_92">
		<circle class="st89" cx="837.8" cy="136.8" r="6.1"/>
	</g>
	<g id="圖層_93">
		<circle class="st90" cx="808.2" cy="107.5" r="6.1"/>
	</g>
	<g id="圖層_94">
		<circle class="st91" cx="777.5" cy="86.5" r="6.2"/>
	</g>
	<g id="圖層_95">
		<circle class="st92" cx="748.9" cy="73" r="6.2"/>
	</g>
	<g id="圖層_96">
		<circle class="st93" cx="715.6" cy="61.4" r="6.3"/>
	</g>
	<g id="圖層_97">
		<circle class="st94" cx="678.4" cy="51.8" r="6.3"/>
	</g>
	<g id="圖層_98">
		<circle class="st95" cx="638.3" cy="43.9" r="6.3"/>
	</g>
	<g id="圖層_99">
		<circle class="st96" cx="595.9" cy="38" r="6.4"/>
	</g>
	<g id="圖層_100">
		<circle class="st97" cx="552.2" cy="33.8" r="6.4"/>
	</g>
	<g id="圖層_101">
		<circle class="st98" cx="508" cy="31.4" r="6.5"/>
	</g>
	<g id="圖層_102">
		<circle class="st99" cx="464" cy="30.8" r="6.5"/>
	</g>
	<g id="圖層_103">
		<circle class="st100" cx="421.2" cy="32" r="6.5"/>
	</g>
	<g id="圖層_104">
		<circle class="st101" cx="380.2" cy="34.8" r="6.6"/>
	</g>
	<g id="圖層_105">
		<circle class="st102" cx="342.1" cy="39.4" r="6.6"/>
	</g>
	<g id="圖層_106">
		<circle class="st103" cx="307.6" cy="45.6" r="6.7"/>
	</g>
	<g id="圖層_107">
		<circle class="st104" cx="277.4" cy="53.5" r="6.7"/>
	</g>
	<g id="圖層_108">
		
			<ellipse transform="matrix(0.1735 -0.9848 0.9848 0.1735 146.646 300.7397)" class="st105" cx="252.5" cy="63" rx="6.8" ry="6.8"/>
	</g>
	<g id="圖層_109">
		<circle class="st106" cx="233.7" cy="74.1" r="6.8"/>
	</g>
	<g id="圖層_110">
		<circle class="st107" cx="211.5" cy="90.9" r="6.8"/>
	</g>
	<g id="圖層_111">
		<circle class="st108" cx="186.5" cy="113.4" r="6.9"/>
	</g>
	<g id="圖層_112">
		<circle class="st109" cx="164.3" cy="143.2" r="6.9"/>
	</g>
	<g id="圖層_113">
		<circle class="st110" cx="150.6" cy="181.9" r="7"/>
	</g>
	<g id="圖層_114">
		<circle class="st111" cx="151.2" cy="229.4" r="7"/>
	</g>
	<g id="圖層_115">
		<circle class="st112" cx="172.4" cy="267.7" r="7"/>
	</g>
	<g id="圖層_116">
		<circle class="st113" cx="200.1" cy="291.4" r="7.1"/>
	</g>
	<g id="圖層_117">
		<circle class="st114" cx="230.6" cy="305.4" r="7.1"/>
	</g>
	<g id="圖層_118">
		<circle class="st115" cx="276.5" cy="315.8" r="7.2"/>
	</g>
	<g id="圖層_119">
		<circle class="st116" cx="317.1" cy="315.8" r="7.2"/>
	</g>
	<g id="圖層_120">
		<circle class="st117" cx="352.1" cy="308.2" r="7.2"/>
	</g>
	<g id="圖層_121">
		<circle class="st118" cx="380.6" cy="296.1" r="7.3"/>
	</g>
	<g id="圖層_122">
		<circle class="st119" cx="402.2" cy="282.2" r="7.3"/>
	</g>
	<g id="圖層_123">
		<circle class="st120" cx="428.2" cy="256.4" r="7.4"/>
	</g>
	<g id="圖層_124">
		<circle class="st121" cx="446" cy="225.1" r="7.4"/>
	</g>
	<g id="圖層_125">
		<circle class="st122" cx="453.6" cy="191.7" r="7.4"/>
	</g>
	<g id="圖層_126">
		<circle class="st123" cx="450.3" cy="158.4" r="7.5"/>
	</g>
	<g id="圖層_127">
		<circle class="st124" cx="435.2" cy="127.8" r="7.5"/>
	</g>
	<g id="圖層_128">
		<circle class="st125" cx="407.7" cy="102.2" r="7.6"/>
	</g>
	<g id="圖層_136">
		<circle class="st126" cx="366.8" cy="84" r="7.6"/>
	</g>
	<g id="圖層_135">
		<circle class="st121" cx="321.4" cy="78.5" r="7.4"/>
	</g>
	<g id="圖層_134">
		<circle class="st122" cx="270.7" cy="84" r="7.4"/>
	</g>
	<g id="圖層_133">
		<circle class="st123" cx="226.9" cy="97.7" r="7.5"/>
	</g>
	<g id="圖層_132">
		<circle class="st124" cx="165.4" cy="120.2" r="7.5"/>
	</g>
	<g id="圖層_131">
		<circle class="st125" cx="124.6" cy="144.4" r="7.6"/>
	</g>
	<g id="圖層_130">
		<circle class="st126" cx="87.8" cy="175" r="7.6"/>
	</g>
</g>
<g id="圖層_2_1_">
	<path class="st127" d="M46.8,214.8c-68.7,81.4-34.7,283.4,35.7,355.3c72.3,73.9,230.7,106.9,297,97.5
		c60.3-8.6,174.7-51.4,168.3-169.6c-9-166-216-117.9-245-30c-29.8,90.3,120.8,187.9,231,193c203,9.4,449-165,456.3-252.6
		c13.9-166.5-235.7-263.9-302.5-177C581.8,369,730.8,463,829.1,424.9c108-41.8,86.7-250.9-42.1-332.8
		C664.7,14.3,313.4,13.1,233.8,74c-29.8,22.8-91.5,61.1-84.6,143.3c3.9,46.2,50.6,75.4,62.6,80.7c91,40,160.6,7.8,192-17
		c71-56,73-165.4-37-197C279.8,59,127.8,118.8,46.8,214.8z"/>
</g>
</svg>
