<svg id="OBJECTS" xmlns="http://www.w3.org/2000/svg" xmlns:xlink="http://www.w3.org/1999/xlink" viewBox="0 0 368.64 280.12"><defs><style>.cls-1,.cls-11,.cls-12,.cls-14,.cls-15,.cls-3{fill:none;}.cls-2{fill:#1bbcbc;}.cls-3{stroke:#b2a59a;}.cls-10,.cls-11,.cls-3{stroke-miterlimit:10;}.cls-11,.cls-3{stroke-width:1.17px;}.cls-10,.cls-4{fill:#e4f471;}.cls-5{fill:#dbe6f0;}.cls-6{fill:#424143;}.cls-7{fill:#a7a8ac;}.cls-8{fill:#d1d2d3;}.cls-9{fill:#6e6e71;}.cls-10{stroke:#fbed21;stroke-width:2px;}.cls-11{stroke:#c9716f;}.cls-12,.cls-14{stroke:#a5a5aa;}.cls-12,.cls-14,.cls-15{stroke-linecap:round;stroke-linejoin:round;}.cls-12{stroke-width:3.5px;}.cls-13{fill:#838384;}.cls-14{stroke-width:2.9px;}.cls-15{stroke:#6e6e71;stroke-width:2.29px;}.cls-16{opacity:0.5;}.cls-17{clip-path:url(#clip-path);}.cls-18{fill:#fff;}.cls-19{clip-path:url(#clip-path-2);}.cls-20{clip-path:url(#clip-path-3);}.cls-21{clip-path:url(#clip-path-4);}.cls-22{fill:#3c4142;opacity:0.65;isolation:isolate;}</style><clipPath id="clip-path" transform="translate(-51.28 10.81)"><path class="cls-1" d="M135.85,107.07V68.81a7.24,7.24,0,0,0-7.23-7.24H96C89.76,72.26,83.71,88.79,79.6,114.31h49A7.24,7.24,0,0,0,135.85,107.07Z"/></clipPath><clipPath id="clip-path-2" transform="translate(-51.28 10.81)"><path class="cls-1" d="M150.73,61.57h40.46a7.24,7.24,0,0,1,7.24,7.24v38.27a7.24,7.24,0,0,1-7.24,7.24H150.73a7.24,7.24,0,0,1-7.24-7.24V68.81A7.23,7.23,0,0,1,150.73,61.57Z"/></clipPath><clipPath id="clip-path-3" transform="translate(-51.28 10.81)"><path class="cls-1" d="M211.89,61.57h40.46a7.24,7.24,0,0,1,7.24,7.24v38.27a7.24,7.24,0,0,1-7.24,7.24H211.89a7.24,7.24,0,0,1-7.24-7.24V68.81A7.23,7.23,0,0,1,211.89,61.57Z"/></clipPath><clipPath id="clip-path-4" transform="translate(-51.28 10.81)"><path class="cls-1" d="M273.35,61.57h40.46A7.24,7.24,0,0,1,321,68.81v38.26a7.24,7.24,0,0,1-7.24,7.24H273.35a7.24,7.24,0,0,1-7.24-7.24V68.81A7.23,7.23,0,0,1,273.35,61.57Z"/></clipPath></defs><rect x="342.38" y="211.87" width="12.5" height="13.5"/><path class="cls-2" d="M141,212.37a32.82,32.82,0,0,1,27.56,15H317.41a32.85,32.85,0,0,1,55.12,0h27.39L398.73,123.9H78.2C74.45,150.61,72,184.45,72,227.34h41.4A32.84,32.84,0,0,1,141,212.37Z" transform="translate(-51.28 10.81)"/><line class="cls-3" x1="88.44" y1="134.71" x2="88.44" y2="223.18"/><path class="cls-4" d="M398.73,123.9l-.85-56.3c-.28-24.43-22.8-25.52-22.8-25.52H121s-12.83-1.46-25,19.49h32.64a7.24,7.24,0,0,1,7.23,7.24v38.26a7.24,7.24,0,0,1-7.23,7.24h-49c-.49,3.07-1,6.25-1.4,9.59Z" transform="translate(-51.28 10.81)"/><path class="cls-5" d="M135.85,107.07V68.81a7.24,7.24,0,0,0-7.23-7.24H96C89.76,72.26,83.71,88.79,79.6,114.31h49A7.24,7.24,0,0,0,135.85,107.07Z" transform="translate(-51.28 10.81)"/><path class="cls-5" d="M99.45,72.38h40.46a7.24,7.24,0,0,1,7.24,7.24v38.27a7.24,7.24,0,0,1-7.24,7.24H99.45a7.24,7.24,0,0,1-7.24-7.24V79.61A7.23,7.23,0,0,1,99.45,72.38Z"/><path class="cls-5" d="M160.61,72.38h40.46a7.24,7.24,0,0,1,7.24,7.24v38.27a7.24,7.24,0,0,1-7.24,7.24H160.61a7.24,7.24,0,0,1-7.24-7.24V79.61A7.23,7.23,0,0,1,160.61,72.38Z"/><path class="cls-5" d="M222.06,72.38h40.46a7.24,7.24,0,0,1,7.24,7.24v38.26a7.24,7.24,0,0,1-7.24,7.24H222.07a7.24,7.24,0,0,1-7.24-7.24V79.61A7.23,7.23,0,0,1,222.06,72.38Z"/><circle class="cls-6" cx="89.72" cy="246.04" r="27.42"/><path class="cls-7" d="M125,235.23a16,16,0,1,1,16,16A16,16,0,0,1,125,235.23Z" transform="translate(-51.28 10.81)"/><path class="cls-8" d="M127.39,235.23A13.62,13.62,0,1,1,141,248.84,13.62,13.62,0,0,1,127.39,235.23Z" transform="translate(-51.28 10.81)"/><circle class="cls-6" cx="293.68" cy="246.04" r="27.42"/><path class="cls-7" d="M329,235.23a16,16,0,1,1,16,16A16,16,0,0,1,329,235.23Z" transform="translate(-51.28 10.81)"/><path class="cls-8" d="M331.36,235.23A13.61,13.61,0,1,1,345,248.84,13.61,13.61,0,0,1,331.36,235.23Z" transform="translate(-51.28 10.81)"/><path class="cls-9" d="M106.13,231.62a7.62,7.62,0,0,1-7.62,7.62H73.16a7.62,7.62,0,0,1-7.62-7.62h0A7.62,7.62,0,0,1,73.16,224H98.51a7.62,7.62,0,0,1,7.62,7.62Z" transform="translate(-51.28 10.81)"/><path class="cls-9" d="M404.44,231.62c0,4.21-3,7.62-6.73,7.62H384.6c-3.71,0-6.73-3.41-6.73-7.62h0c0-4.21,3-7.62,6.73-7.62h13.11c3.72,0,6.73,3.41,6.73,7.62Z" transform="translate(-51.28 10.81)"/><line class="cls-10" x1="277.68" y1="145.4" x2="321.11" y2="145.4"/><line class="cls-10" x1="277.68" y1="151.57" x2="321.11" y2="151.57"/><line class="cls-10" x1="277.68" y1="157.73" x2="321.11" y2="157.73"/><line class="cls-10" x1="277.68" y1="163.9" x2="321.11" y2="163.9"/><line class="cls-10" x1="277.68" y1="170.06" x2="321.11" y2="170.06"/><line class="cls-10" x1="277.68" y1="176.23" x2="321.11" y2="176.23"/><line class="cls-11" x1="88.44" y1="66.67" x2="88.44" y2="134.71"/><line class="cls-12" x1="48.42" y1="66.67" x2="344.39" y2="66.67"/><path class="cls-13" d="M132.24,133.12a1.47,1.47,0,0,1-1.48,1.47H120.09a1.47,1.47,0,0,1-1.47-1.47h0a1.47,1.47,0,0,1,1.47-1.47h10.67a1.47,1.47,0,0,1,1.48,1.47Z" transform="translate(-51.28 10.81)"/><polyline class="cls-3" points="88.44 213.64 62.3 213.64 53.73 238.15"/><path class="cls-14" d="M399.92,123.3c0,.76-.87,1.37-1.94,1.37H76.91c-1.06,0-1.93-.61-1.93-1.37h0c0-.75.87-1.36,1.93-1.36H398c1.07,0,1.94.61,1.94,1.36Z" transform="translate(-51.28 10.81)"/><polyline class="cls-15" points="16.4 128.73 16.4 142.46 30.84 142.46"/><path class="cls-4" d="M72,118.57a4.27,4.27,0,0,1-4.35,4.19h0a4.27,4.27,0,0,1-4.35-4.19v-22a4.28,4.28,0,0,1,4.35-4.19h0A4.28,4.28,0,0,1,72,96.58Z" transform="translate(-51.28 10.81)"/><g class="cls-16"><g class="cls-17"><path class="cls-9" d="M94.42,116.8a2.08,2.08,0,0,1-2.08,2.08h0a2.08,2.08,0,0,1-2.08-2.08V90a2.08,2.08,0,0,1,2.08-2.08h0A2.08,2.08,0,0,1,94.42,90Z" transform="translate(-51.28 10.81)"/><rect class="cls-18" x="180.85" y="-12.33" width="6.87" height="212.62" transform="translate(-48.63 203.8) rotate(-55.62)"/><rect class="cls-18" x="258.14" y="-54.25" width="6.87" height="212.62" transform="translate(19.6 249.34) rotate(-55.62)"/><rect class="cls-18" x="150.04" y="4.37" width="3.43" height="212.62" transform="translate(-76.57 184.22) rotate(-55.62)"/><rect class="cls-18" x="215.81" y="-58.14" width="3.43" height="230.49" transform="matrix(0.56, -0.83, 0.83, 0.56, -3.73, 215.19)"/><rect class="cls-18" x="140.74" y="20.42" width="1.72" height="212.62" transform="translate(-94.24 182.82) rotate(-55.62)"/><rect class="cls-18" x="187.12" y="-17.73" width="1.72" height="212.62" transform="translate(-42.57 204.5) rotate(-55.62)"/><rect class="cls-18" x="198.32" y="-34.09" width="1.72" height="212.62" transform="translate(-24.19 206.62) rotate(-55.62)"/><rect class="cls-18" x="246.75" y="-44.74" width="1.72" height="212.62" transform="translate(5.67 241.95) rotate(-55.62)"/><rect class="cls-18" x="138.65" y="27.11" width="1.72" height="212.62" transform="translate(-100.67 184.01) rotate(-55.62)"/></g><g class="cls-19"><rect class="cls-18" x="180.85" y="-12.33" width="6.87" height="212.62" transform="translate(-48.63 203.8) rotate(-55.62)"/><rect class="cls-18" x="258.14" y="-54.25" width="6.87" height="212.62" transform="translate(19.6 249.34) rotate(-55.62)"/><rect class="cls-18" x="150.04" y="4.37" width="3.43" height="212.62" transform="translate(-76.57 184.22) rotate(-55.62)"/><rect class="cls-18" x="215.81" y="-58.14" width="3.43" height="230.49" transform="matrix(0.56, -0.83, 0.83, 0.56, -3.73, 215.19)"/><rect class="cls-18" x="140.74" y="20.42" width="1.72" height="212.62" transform="translate(-94.24 182.82) rotate(-55.62)"/><rect class="cls-18" x="187.12" y="-17.73" width="1.72" height="212.62" transform="translate(-42.57 204.5) rotate(-55.62)"/><rect class="cls-18" x="198.32" y="-34.09" width="1.72" height="212.62" transform="translate(-24.19 206.62) rotate(-55.62)"/><rect class="cls-18" x="246.75" y="-44.74" width="1.72" height="212.62" transform="translate(5.67 241.95) rotate(-55.62)"/><rect class="cls-18" x="138.65" y="27.11" width="1.72" height="212.62" transform="translate(-100.67 184.01) rotate(-55.62)"/></g><g class="cls-20"><rect class="cls-18" x="180.85" y="-12.33" width="6.87" height="212.62" transform="translate(-48.63 203.8) rotate(-55.62)"/><rect class="cls-18" x="258.14" y="-54.25" width="6.87" height="212.62" transform="translate(19.6 249.34) rotate(-55.62)"/><rect class="cls-18" x="150.04" y="4.37" width="3.43" height="212.62" transform="translate(-76.57 184.22) rotate(-55.62)"/><rect class="cls-18" x="215.81" y="-58.14" width="3.43" height="230.49" transform="matrix(0.56, -0.83, 0.83, 0.56, -3.73, 215.19)"/><rect class="cls-18" x="140.74" y="20.42" width="1.72" height="212.62" transform="translate(-94.24 182.82) rotate(-55.62)"/><rect class="cls-18" x="187.12" y="-17.73" width="1.72" height="212.62" transform="translate(-42.57 204.5) rotate(-55.62)"/><rect class="cls-18" x="198.32" y="-34.09" width="1.72" height="212.62" transform="translate(-24.19 206.62) rotate(-55.62)"/><rect class="cls-18" x="246.75" y="-44.74" width="1.72" height="212.62" transform="translate(5.67 241.95) rotate(-55.62)"/><rect class="cls-18" x="138.65" y="27.11" width="1.72" height="212.62" transform="translate(-100.67 184.01) rotate(-55.62)"/></g><g class="cls-21"><rect class="cls-18" x="180.85" y="-12.33" width="6.87" height="212.62" transform="translate(-48.63 203.8) rotate(-55.62)"/><rect class="cls-18" x="258.14" y="-54.25" width="6.87" height="212.62" transform="translate(19.6 249.34) rotate(-55.62)"/><rect class="cls-18" x="150.04" y="4.37" width="3.43" height="212.62" transform="translate(-76.57 184.22) rotate(-55.62)"/><rect class="cls-18" x="215.81" y="-58.14" width="3.43" height="230.49" transform="matrix(0.56, -0.83, 0.83, 0.56, -3.73, 215.19)"/><rect class="cls-18" x="140.74" y="20.42" width="1.72" height="212.62" transform="translate(-94.24 182.82) rotate(-55.62)"/><rect class="cls-18" x="187.12" y="-17.73" width="1.72" height="212.62" transform="translate(-42.57 204.5) rotate(-55.62)"/><rect class="cls-18" x="198.32" y="-34.09" width="1.72" height="212.62" transform="translate(-24.19 206.62) rotate(-55.62)"/><rect class="cls-18" x="246.75" y="-44.74" width="1.72" height="212.62" transform="translate(5.67 241.95) rotate(-55.62)"/><rect class="cls-18" x="138.65" y="27.11" width="1.72" height="212.62" transform="translate(-100.67 184.01) rotate(-55.62)"/></g></g><ellipse class="cls-22" cx="184.69" cy="275.99" rx="183.95" ry="4.13"/></svg>