<svg xmlns="http://www.w3.org/2000/svg" viewBox="0 0 112.01 49.39"><defs><style>.cls-1{opacity:0.8;}.cls-2{fill:#d7f1f9;}</style></defs><g id="圖層_3" data-name="圖層 3"><g class="cls-1"><path class="cls-2" d="M107.85,44.43c.37-6.46-6.78-7.8-11.58-7.9h0c.59-5.26,1.63-9.55-.17-14.86-2.26-7-7.87-13.58-15-15.64C74.91,4,67.23,4.79,61.89,8.51c-6.81,4.89-6.22,11.13-8.53,18-.14-4.56-7.08-5.18-10.46-3.57C38.06,25,36.55,28.8,36,33.34c-3.53-2.71-6.94-.14-7.5,3.92-3.53-3-9.75-3.56-14.09-2C10.52,36.62,6.55,43,4.15,43.67Z"/></g></g></svg>