<svg xmlns="http://www.w3.org/2000/svg" viewBox="0 0 177 82.26"><defs><style>.cls-1{opacity:0.8;}.cls-2{fill:#d2ebf9;}</style></defs><g id="圖層_4" data-name="圖層 4"><g class="cls-1"><path class="cls-2" d="M6.38,72.4C5.79,62.18,17.13,60.05,24.71,59.89h0c-.93-8.33-2.59-15.12.27-23.53C28.55,25.29,37.44,14.84,48.75,11.6c9.8-3.24,22-2,30.43,3.93C90,23.27,89,33.15,92.66,44.08c.23-7.22,11.21-8.2,16.58-5.66,7.65,3.26,10,9.28,11,16.47,5.6-4.29,11-.23,11.88,6.2,5.6-4.66,15.44-5.63,22.32-3.11,6.12,2.15,12.39,12.26,16.21,13.32Z"/></g></g></svg>