<?xml version="1.0" encoding="utf-8"?>
<!-- Generator: Adobe Illustrator 25.2.1, SVG Export Plug-In . SVG Version: 6.00 Build 0)  -->
<svg version="1.1" id="圖層_1" xmlns="http://www.w3.org/2000/svg" xmlns:xlink="http://www.w3.org/1999/xlink" x="0px" y="0px"
	 viewBox="0 0 840.7 413.2" style="enable-background:new 0 0 840.7 413.2;" xml:space="preserve">
<style type="text/css">
	.st0{opacity:0.89;}
	.st1{clip-path:url(#SVGID_2_);}
	.st2{fill:#88AD4D;}
	.st3{fill:#709449;}
	.st4{opacity:0.7;}
	.st5{fill:#CDDC7A;}
	.st6{fill:#B8C943;}
	.st7{opacity:0.4;fill:#FFFFFF;enable-background:new    ;}
	.st8{fill:#98B54E;}
	.st9{fill:#757F80;}
	.st10{fill:#F5E178;}
	.st11{fill:#9FBA4A;}
	.st12{fill:#FFFFFF;}
	.st13{fill:#F0CA3C;}
	.st14{fill:#F2CB3B;}
	.st15{opacity:0.4;fill:#C1C1C1;enable-background:new    ;}
	.st16{fill:#435968;}
	.st17{fill:#ADC0B7;}
	.st18{fill:#D3DED9;}
	.st19{fill:#587C9B;}
	.st20{fill:#636466;}
	.st21{fill:#4889D8;}
</style>
<g id="圖層_1_1_">
	<g>
		<g id="BACKGROUND">
			<g class="st0">
				<g>
					<g>
						<defs>
							<rect id="SVGID_1_" x="340.7" y="-23" width="500" height="500"/>
						</defs>
						<clipPath id="SVGID_2_">
							<use xlink:href="#SVGID_1_"  style="overflow:visible;"/>
						</clipPath>
						<g class="st1">
							<path class="st2" d="M348.6,188.3c-0.1-2.7-0.6-5.3-1.4-7.9c-0.8-2.6-0.9-5.4-0.2-8c0.2-0.7,3.5-7.4,4.1-6.8
								c-2.7-2.6-2.7-6-2.4-9.5c0.4-2.3,1.3-4.6,2.6-6.6c0.9-1,3.4-2.1,3.6-3.1c0.7-1.8-1.5-6.6-1.4-9c0.4-4,2.8-7.2,5.6-9.9
								c-4.8-5.7-0.1-13.4,4.8-17.7c-1.9-3.4-0.1-9.6,0.6-13c1-3.8,3.4-14.3,7.1-16.3c5.6-3,7.8,10.2,8.3,13.6
								c0.5,3.1,0.5,6.3,1,9.2c0.4,3.3,1.6,4.4,3.5,6.7c2.9,3.6,3.1,7.9,1.6,12.1c-0.3,1.2-1.4,2.8-1.2,4c0.3,1.6,3.3,3.8,4,5.5
								c2.8,5.2,1.9,11.3-2.8,15.1c4.2,1.4,7.6,4.6,9.1,8.8c2,5.4-0.5,9.1-3.9,12.8c0.8-0.8,4.1,6.8,4.2,7.6c0.3,3-0.6,5.9-2.5,8.2
								c-1.4,2-1.7,1.5-1.4,3.8c0.2,1.5,1.4,3.1,1.9,4.6c1.2,3.6,1.2,7-1,10.3c7-1.1,7.7,10.8,5.8,14.9c-4.2,9-15,15.5-25.1,13.8
								c-4.2-0.7-8.6-3.2-12.5-5s-9.1-5-8.2-9.9c0.6-3.2,2.4-2.3-1.2-4.4c-6.7-4-7.4-7.4-4.6-14.6
								C347.9,194.8,348.6,191.5,348.6,188.3z"/>
							<path class="st3" d="M360,171.2c-0.1-0.5-0.2-1-0.2-1.5s0-1,0.1-1.5s0.3-1,0.6-1.5s0.7-0.9,1.2-1.2s1-0.5,1.6-0.6
								s1.1-0.1,1.7,0c0.5,0.1,1.1,0.2,1.6,0.4s1,0.4,1.4,0.7l-1.4,0.8c0-0.7,0-1.3,0.1-2s0.3-1.3,0.5-1.9c0.5-1.3,1.3-2.4,2.4-3.2
								c0.6-0.4,1.2-0.7,1.8-0.9c0.3-0.1,0.7-0.2,1-0.2s0.7,0,1,0s0.6,0.1,1,0.1c0.3,0.1,0.6,0.1,0.9,0.3c0.6,0.2,1.1,0.5,1.6,0.9
								c-0.6-0.2-1.2-0.3-1.8-0.4c-0.6-0.1-1.1-0.1-1.7,0c-0.3,0-0.5,0.1-0.8,0.2c-0.3,0.1-0.5,0.2-0.8,0.3
								c-0.5,0.2-0.9,0.5-1.3,0.9c-0.4,0.4-0.7,0.8-1,1.2c-0.1,0.2-0.3,0.4-0.4,0.7c-0.1,0.2-0.2,0.5-0.3,0.7
								c-0.2,0.5-0.3,1-0.4,1.6c-0.1,0.5-0.1,1.1-0.1,1.6l0,0c0,0.5-0.4,0.9-0.9,0.9l0,0c-0.2,0-0.3,0-0.5-0.1
								c-0.4-0.2-0.8-0.4-1.2-0.6c-0.4-0.2-0.8-0.3-1.2-0.4c-0.4-0.1-0.8-0.1-1.2-0.1s-0.8,0.1-1.1,0.3c-0.4,0.2-0.7,0.4-0.9,0.7
								c-0.3,0.3-0.5,0.7-0.7,1.1c-0.2,0.4-0.3,0.9-0.4,1.3C360.2,170.3,360.1,170.7,360,171.2z"/>
							<path class="st2" d="M425.4,227.5c-10,2.3-21.6,3-27.2-5.9c-2.7-4.2-2.6-12.9,2.5-15.2c-2.2-3.8-4.5-6.9-4.2-11.5
								c0.1-1.1,3.9-12.2,5.1-11.1c-3-2.8-3.2-6.6-2.8-10.4c0.4-2.6,1.3-5.1,2.7-7.3c0.9-1.1,3.6-2.4,3.9-3.5c0.7-2-1.8-7.2-1.7-9.9
								c0.4-4.5,2.9-8,6-11c-5.4-6.2-0.4-14.8,4.9-19.6c-2.1-3.6-0.3-10.5,0.5-14.3c1-4.2,3.4-15.8,7.5-18.1
								c6.1-3.4,8.8,11,9.4,14.9c0.6,3.4,0.7,7,1.3,10.1c0.6,3.6,1.9,4.8,4,7.3c3.3,3.9,3.5,8.6,2.1,13.3c-0.3,1.3-1.4,3.1-1.3,4.4
								c0.4,1.8,3.7,4.1,4.5,6c3.2,5.7,2.3,12.4-2.8,16.7c4.7,1.4,8.5,4.9,10.2,9.5c2.3,5.9-0.3,10.1-4,14.2c0.9-1,3.1,4.8,3.3,5.3
								c1,2.7,1.5,5.6,1.5,8.5c0.2,4.7,1.8,12.3-1.2,16.3c-3.2,4.3-9.6,7.4-14.7,8.9C432,225.7,428.8,226.6,425.4,227.5z"/>
							<path class="st3" d="M411.3,189.7c-0.1-0.5-0.2-1.1-0.3-1.6c0-0.6,0-1.1,0.1-1.7c0.1-0.6,0.3-1.1,0.6-1.7
								c0.3-0.6,0.7-1,1.3-1.4c0.5-0.4,1.1-0.6,1.8-0.7c0.6-0.1,1.3-0.1,1.9,0c0.6,0.1,1.2,0.2,1.7,0.5c0.5,0.2,1.1,0.5,1.6,0.8
								l-1.5,0.9c-0.1-0.7-0.1-1.5,0-2.2s0.3-1.4,0.5-2.1c0.5-1.4,1.4-2.6,2.6-3.5c0.6-0.4,1.3-0.8,2-1c0.4-0.1,0.7-0.2,1.1-0.2
								c0.4,0,0.7,0,1.1,0c0.3,0,0.7,0.1,1,0.1c0.3,0.1,0.7,0.2,1,0.3c0.6,0.2,1.2,0.6,1.8,0.9c-0.6-0.2-1.3-0.3-1.9-0.4
								c-0.6-0.1-1.2-0.1-1.9,0c-0.3,0-0.6,0.1-0.9,0.2c-0.3,0.1-0.6,0.2-0.8,0.3c-0.5,0.3-1,0.6-1.4,1s-0.7,0.8-1,1.3
								c-0.2,0.2-0.3,0.5-0.4,0.8c-0.1,0.3-0.2,0.5-0.3,0.8c-0.2,0.6-0.3,1.1-0.4,1.7c-0.1,0.6-0.1,1.2,0,1.8l0,0c0,0.5-0.4,1-1,1
								c-0.2,0-0.4,0-0.5-0.1c-0.4-0.3-0.8-0.5-1.3-0.7c-0.4-0.2-0.9-0.3-1.3-0.4c-0.4-0.1-0.9-0.1-1.3-0.1c-0.4,0-0.8,0.1-1.2,0.3
								s-0.7,0.5-1,0.8c-0.3,0.4-0.6,0.8-0.7,1.2c-0.2,0.5-0.3,1-0.4,1.5C411.5,188.6,411.4,189.2,411.3,189.7z"/>
							<g class="st4">
								<path class="st2" d="M438.9,206.8c2.2-8,13.5-13.4,20.8-8.2c0.8-5.4,5.9-6.8,10.1-2.3c-0.1-4.1,1.3-6.1,4.9-5.5
									c1.8-6.7,9.2-8,13.1-2.2c-0.1-1.4,0-2.8,0.5-4.2l2.7,1.9c1.4-12.5,16.6-15.6,19.5-2.1c2.6-8.6,12.3-3.3,15,2.1
									c3.4-4.1,8.8-3.2,10.2,1.8c4-7.1,8.3,0.9,9.2,6c2.8-7.5,10.1-2.3,11.7,3.3c-24.1,9.3-53.9,9.1-79.5,13.4L438.9,206.8z"/>
							</g>
						</g>
					</g>
				</g>
			</g>
			<path class="st5" d="M173.5,413.2c30-9,657.4-2.9,657.4-2.9S720.4,269.1,673.5,237c-71-48.7-160.4-38.9-242.2-35.3
				c-73.5,3-146.1,17.2-215.3,41.9c-16.7,6-21.2,6.6-42.5,16V413.2z"/>
			<path class="st6" d="M173.5,202.9C8.7,177.5,0,413.2,0,413.2h830.9L673.5,291.9c-60.7,0-181-16.3-189-17.8
				c-89.7-16.5-125-25.3-214.1-48.2c-25-6.4-36.7-8.2-61.8-14.4C201.3,209.6,186,204.9,173.5,202.9z"/>
			<polygon class="st7" points="555.5,280.2 529.1,478.4 542.3,478.4 566.5,280.2 			"/>
			<rect x="173.5" y="269.5" class="st8" width="500" height="21.4"/>
			<rect x="173.5" y="274.4" class="st9" width="500" height="16.5"/>
			<path class="st10" d="M316.7,39.3c0,17.6-14.3,31.9-31.9,31.9c-17.6,0-31.9-14.3-31.9-31.9s14.3-31.9,31.9-31.9
				C302.4,7.4,316.7,21.7,316.7,39.3L316.7,39.3z"/>
			<path class="st11" d="M479.3,259.6c-0.2-0.2-0.4-0.4-0.5-0.7c-0.2-0.2-0.2-0.5-0.3-0.8c0-0.3,0.1-0.6,0.3-0.8
				c0.3-0.2,0.6-0.4,1-0.4c0.7-0.1,1.4,0.1,2,0.4s1,0.8,1.3,1.3l-0.6,0.1c0-0.2,0-0.4,0-0.6c0-0.1,0-0.2,0.1-0.3l0.1-0.3l0.2-0.3
				c0.1-0.1,0.1-0.2,0.2-0.3c0.1-0.1,0.2-0.2,0.3-0.3s0.3-0.1,0.5-0.2c0.2,0,0.4,0,0.5,0c0.2,0,0.3,0.1,0.4,0.2
				c0.1,0.1,0.2,0.2,0.3,0.3s0.1,0.2,0.2,0.3l0.1,0.3v0.3c0,0.2,0,0.4,0,0.6l0,0c0,0.1-0.1,0.2-0.3,0.2c-0.1,0-0.3-0.1-0.3-0.2l0,0
				c0-0.2,0-0.4,0-0.6c0-0.1,0-0.2,0.1-0.3c0-0.1,0.1-0.2,0.2-0.3c0.1-0.1,0.2-0.2,0.3-0.3s0.2-0.2,0.4-0.2c0.1-0.1,0.3-0.1,0.4-0.1
				c0.1,0,0.3,0,0.4,0c0.1,0,0.3,0.1,0.4,0.1c0.1,0,0.2,0.1,0.3,0.2c0.1,0.1,0.2,0.1,0.3,0.2s0.2,0.2,0.2,0.3
				c0.1,0.1,0.1,0.2,0.1,0.3c0.1,0.1,0.1,0.2,0.1,0.3s0,0.2,0,0.3v0.3l-0.1-0.3c0-0.1-0.1-0.2-0.1-0.3s-0.1-0.2-0.1-0.3
				s-0.1-0.2-0.2-0.3c-0.1-0.2-0.3-0.3-0.5-0.4c-0.1-0.1-0.2-0.1-0.3-0.1s-0.2-0.1-0.3-0.1h-0.3c-0.1,0-0.2,0-0.3,0.1
				c-0.1,0-0.2,0.1-0.2,0.2c-0.1,0-0.1,0.1-0.2,0.2c0,0.1-0.1,0.2-0.1,0.3s-0.1,0.2-0.1,0.3c0,0.2,0,0.4,0,0.5h-0.5
				c0-0.2,0-0.4-0.1-0.6l-0.1-0.3l-0.1-0.3c0-0.1-0.1-0.2-0.1-0.2c0-0.1-0.1-0.1-0.2-0.2c0-0.1-0.1-0.1-0.2-0.1c-0.1,0-0.1,0-0.2,0
				c-0.1,0-0.2,0-0.2,0.1c-0.1,0-0.1,0.1-0.2,0.2l-0.2,0.2l-0.1,0.3l-0.1,0.3c0,0.1-0.1,0.2-0.1,0.3c0,0.2,0,0.4,0,0.6l0,0
				c0,0.1-0.2,0.2-0.3,0.2s-0.2-0.1-0.3-0.1c-0.2-0.5-0.6-0.9-1.1-1.2c-0.5-0.3-1.1-0.5-1.7-0.5c-0.3,0-0.6,0.1-0.8,0.3
				c-0.2,0.1-0.3,0.4-0.3,0.6c0,0.3,0,0.5,0.2,0.8C478.9,259.1,479,259.4,479.3,259.6z"/>
			<path class="st11" d="M536.1,212.7l-0.3-0.3c-0.1-0.1-0.2-0.2-0.2-0.3c-0.1-0.1-0.1-0.2-0.1-0.4c0-0.1,0-0.2,0-0.4v-0.2l0.1-0.2
				c0.1-0.1,0.2-0.2,0.3-0.3s0.3-0.2,0.4-0.2c0.2,0,0.3-0.1,0.5-0.1s0.3,0,0.5-0.1c0.2,0,0.3,0,0.5,0s0.3,0.1,0.5,0.1l0.2,0.1
				l0.2,0.1l0.2,0.1l0.2,0.2l0.2,0.2c0,0.1,0.1,0.1,0.1,0.2c0.1,0.1,0.1,0.2,0.2,0.4l0.1,0.4h-0.6c0-0.4,0-0.8,0.1-1.1
				c0-0.2,0.1-0.4,0.2-0.6c0.1-0.1,0.2-0.2,0.3-0.3s0.3-0.2,0.4-0.2h0.3c0.1,0,0.2,0,0.2,0c0.1,0,0.3,0.1,0.4,0.2
				c0.1,0.1,0.2,0.1,0.3,0.2c0.1,0.1,0.2,0.1,0.2,0.2c0.1,0.1,0.3,0.3,0.4,0.5c0.1,0.2,0.2,0.3,0.3,0.5l-0.5,0.1
				c0-0.2,0.1-0.4,0.2-0.6c0-0.1,0.1-0.2,0.2-0.3c0.1-0.1,0.1-0.2,0.2-0.3c0.1-0.1,0.2-0.2,0.3-0.3s0.2-0.2,0.3-0.2
				c0.1-0.1,0.3-0.1,0.4-0.1c0.1,0,0.3,0,0.4-0.1c0.1,0,0.3,0,0.4,0.1l0.2,0.1l0.2,0.1c0.1,0.1,0.2,0.1,0.3,0.2
				c0.1,0.1,0.1,0.2,0.2,0.3c0.1,0.1,0.1,0.2,0.1,0.3s0.1,0.2,0.1,0.3c0,0.2,0,0.4,0,0.6c0-0.2-0.1-0.4-0.2-0.6
				c0-0.1-0.1-0.2-0.1-0.3s-0.1-0.2-0.2-0.3c-0.1-0.1-0.1-0.2-0.2-0.2c-0.1-0.1-0.2-0.1-0.3-0.2l-0.2-0.1h-0.2c-0.1,0-0.2,0-0.3,0
				s-0.2,0-0.3,0s-0.2,0.1-0.3,0.1s-0.2,0.1-0.3,0.2c-0.1,0.1-0.1,0.1-0.2,0.2c-0.1,0.1-0.1,0.2-0.2,0.3c-0.1,0.1-0.1,0.2-0.1,0.3
				c-0.1,0.2-0.1,0.4-0.1,0.6c-0.1,0.1-0.2,0.2-0.3,0.2s-0.2-0.1-0.2-0.1c-0.1-0.2-0.2-0.3-0.3-0.5s-0.2-0.3-0.3-0.4l-0.2-0.2
				c-0.1-0.1-0.2-0.1-0.2-0.1c-0.1,0-0.1-0.1-0.2-0.1H540c-0.1,0-0.1,0.1-0.2,0.1l-0.1,0.1c-0.1,0.1-0.1,0.3-0.2,0.4
				c0,0.2-0.1,0.3-0.1,0.5s0,0.3,0,0.5c0,0.1-0.2,0.2-0.3,0.2l0,0c-0.1,0-0.2-0.1-0.3-0.2l-0.1-0.3c0-0.1-0.1-0.2-0.1-0.3l-0.1-0.1
				l-0.1-0.1l-0.1-0.1l-0.2-0.1l-0.1-0.1l-0.2-0.1c-0.1,0-0.2-0.1-0.3-0.1s-0.3,0-0.4-0.1c-0.1,0-0.3,0-0.4,0
				c-0.1,0-0.3,0.1-0.4,0.1c-0.1,0.1-0.2,0.1-0.3,0.2c-0.1,0.1-0.2,0.1-0.3,0.2l-0.1,0.1v0.2c0,0.1,0,0.2,0,0.3s0,0.2,0.1,0.3
				c0,0.1,0.1,0.2,0.1,0.3L536.1,212.7z"/>
			<path class="st11" d="M343.4,261.1c-0.1-0.2-0.3-0.5-0.4-0.7c-0.1-0.2-0.2-0.5-0.3-0.7c-0.1-0.3-0.1-0.5-0.1-0.8
				c0-0.2,0.1-0.3,0.2-0.4c0-0.1,0.1-0.1,0.2-0.1l0.3-0.1c0.2,0,0.4-0.1,0.6-0.1c0.2,0,0.4,0.1,0.5,0.1c0.2,0.1,0.3,0.1,0.5,0.2
				c0.1,0.1,0.3,0.2,0.4,0.2c0.2,0.2,0.5,0.4,0.7,0.6c0.2,0.2,0.4,0.5,0.5,0.8l-0.6,0.1c0-0.2,0-0.4,0-0.5c0-0.2,0-0.4,0.1-0.5
				c0.1-0.2,0.2-0.4,0.3-0.5s0.2-0.2,0.3-0.2l0.2-0.1l0.2-0.1c0.2,0,0.3,0,0.5,0c0.1,0,0.3,0.1,0.4,0.2c0.2,0.1,0.3,0.3,0.4,0.5
				c0.1,0.2,0.2,0.3,0.2,0.5c0,0.2,0.1,0.4,0.1,0.5H348c0.1-0.3,0.1-0.5,0.3-0.8c0.1-0.2,0.2-0.5,0.4-0.7c0.1-0.1,0.2-0.2,0.3-0.3
				s0.2-0.2,0.3-0.3s0.3-0.2,0.4-0.2c0.1,0,0.2,0,0.3,0s0.2,0,0.3,0s0.2,0,0.3,0.1h0.1c0,0,0.1,0,0.1,0.1c0.1,0,0.1,0.1,0.2,0.2
				c0,0.1,0.1,0.1,0.1,0.2c0.1,0.2,0.1,0.5,0.1,0.8c0,0.2,0,0.5-0.1,0.7c0,0.1-0.1,0.2-0.1,0.4c0,0.1-0.1,0.2-0.2,0.3
				c0.1-0.1,0.1-0.2,0.1-0.3s0-0.2,0-0.4c0-0.2,0-0.5,0-0.7c0-0.2-0.1-0.5-0.2-0.7l-0.1-0.1c0,0,0-0.1-0.1-0.1h-0.1h-0.1
				c-0.1,0-0.1,0-0.2,0c-0.1,0-0.1,0-0.2,0c-0.1,0-0.1,0-0.2,0c-0.1,0-0.2,0.1-0.3,0.2c-0.1,0.1-0.2,0.2-0.3,0.3s-0.2,0.2-0.2,0.3
				c-0.1,0.2-0.2,0.4-0.3,0.6s-0.2,0.4-0.2,0.6c0,0.1-0.2,0.2-0.3,0.2s-0.2-0.1-0.3-0.2l0,0c0-0.1-0.1-0.3-0.1-0.5
				c0-0.2-0.1-0.3-0.2-0.4c0-0.1-0.1-0.1-0.1-0.2l-0.2-0.1c0,0-0.1-0.1-0.2-0.1h-0.1h-0.1h-0.1c-0.1,0-0.1,0.1-0.1,0.1
				c-0.1,0.1-0.2,0.3-0.2,0.4s-0.1,0.3-0.1,0.5c0,0.2,0,0.3,0,0.5l0,0c0,0.1-0.2,0.2-0.3,0.2s-0.2-0.1-0.3-0.2
				c-0.1-0.2-0.2-0.4-0.3-0.6c-0.2-0.2-0.4-0.4-0.6-0.5c-0.1-0.1-0.2-0.2-0.3-0.2c-0.1-0.1-0.2-0.1-0.3-0.2
				c-0.1-0.1-0.2-0.1-0.4-0.1c-0.1,0-0.2,0-0.4,0h-0.2l-0.2,0.1c-0.1,0.1-0.1,0.2-0.1,0.3c0,0.2,0,0.5,0,0.7
				c0.1,0.2,0.1,0.5,0.2,0.7C343.2,260.7,343.3,260.9,343.4,261.1z"/>
			<path class="st12" d="M498.6,206.9c-0.3-0.4,0.1-1.9,1-2.1c2-0.4,0.5,1.8,0.2,2.4c0.9-1,2.3-1.3,3.5-0.9c1.1,0.7-2,1.3-3,1.4
				c0.9,0.1,3.5,0,2.9,0.8c-0.8,1.1-3,0.4-3.6-0.2c0.3,0.6-0.6,2.2-1.8,1.9c-0.8-0.2-0.6-1.9-0.1-2.3c-0.4,0.4-3.5,1.6-3.4,0.1
				c0-0.5,1.4-0.9,2.8-0.9l-0.3-0.1c-0.6-0.2-2.8-0.5-1.8-1.2C495.8,205.3,498.6,206.1,498.6,206.9"/>
			<path class="st13" d="M497.8,207.8c0.4,0.4,2.4,0.3,2.3-0.4c-0.1-0.7-1.5-0.7-2.1-0.5S497.5,207.3,497.8,207.8z"/>
			<path class="st12" d="M505.2,259.4c-0.3-0.4,0.1-2.4,1.3-2.6c2.6-0.5,0.7,2.2,0.3,3c0.5-0.9,2.4-1.7,4.4-1.1
				c1.4,0.8-2.6,1.6-3.9,1.8c1.2,0.1,4.4,0,3.6,1c-1.1,1.4-3.8,0.5-4.5-0.3c0.3,0.8-0.8,2.8-2.2,2.4c-1-0.3-0.7-2.4-0.2-2.9
				c-0.5,0.5-4.5,2-4.3,0.1c0-0.6,1.7-1.1,3.6-1.1l-0.3-0.1c-0.8-0.3-3.5-0.6-2.3-1.5C501.6,257.3,505.2,258.4,505.2,259.4"/>
			<path class="st13" d="M504.3,260.5c0.5,0.6,3,0.4,2.8-0.5c-0.1-0.8-2-0.9-2.6-0.6S503.8,259.9,504.3,260.5z"/>
			<path class="st12" d="M346.3,218c-0.3-0.4,0.1-2.4,1.3-2.6c2.6-0.5,0.7,2.3,0.3,3c0.5-0.9,2.5-1.7,4.5-1.2
				c1.5,0.9-2.6,1.6-3.9,1.8c1.2,0.1,4.4,0,3.7,1.1c-1.1,1.4-3.8,0.6-4.6-0.3c0.4,0.8-0.8,2.9-2.3,2.5c-1-0.3-0.8-2.4-0.2-2.9
				c-0.5,0.5-4.5,2-4.3,0.1c0.1-0.6,1.8-1.1,3.6-1.1l-0.3-0.1c-0.8-0.3-3.6-0.6-2.3-1.6C342.7,215.9,346.4,217,346.3,218"/>
			<path class="st13" d="M345.4,219.1c0.5,0.6,3,0.4,2.9-0.5s-2-0.9-2.6-0.6C345.1,218.2,344.9,218.5,345.4,219.1z"/>
			<path class="st12" d="M518.8,223.4c-0.3-0.4,0.1-2,1-2.2c2.2-0.4,0.6,1.9,0.3,2.5c0.4-0.7,2-1.4,3.7-1c1.2,0.7-2.2,1.3-3.2,1.5
				c1,0.1,3.7,0,3,0.9c-0.9,1.2-3.2,0.5-3.8-0.3c0.3,0.6-0.7,2.4-1.9,2c-0.8-0.2-0.6-2-0.2-2.4c-0.4,0.4-3.8,1.7-3.6,0.1
				c0-0.5,1.5-0.9,3-0.9l-0.3-0.1c-0.7-0.2-3-0.5-1.9-1.3C515.9,221.6,518.9,222.5,518.8,223.4"/>
			<path class="st13" d="M518,224.4c0.4,0.5,2.5,0.3,2.4-0.4s-1.6-0.7-2.2-0.5S517.6,223.9,518,224.4z"/>
			<path class="st12" d="M498.1,219.9c0.7,0.3,3.7-0.7,2.8-1.4c-0.8-0.6-3.6,0.7-3.5,1.4c0.7-0.2,3.6,0.4,3.7,1.2
				c0.1,1.4-3.2-0.2-3.6-0.6c0.4,0.4,0.5,2.4-0.3,2.6c-1.1,0.3-0.6-1.5-0.3-1.9c-0.8,0.3-4,1.6-4.1,0.2c-0.1-0.9,1.9-0.8,2.8-0.8
				c-1-0.2-2.4-1.2-2.1-2.1c1-0.2,2.2,0.9,2.5,1.6c-0.3-0.6-0.9-2.8,0.8-2.3c0.9,0.3,0.7,1.6,0.4,2"/>
			<path class="st14" d="M497.8,220.6c-0.4,0.4-2.3,0.3-2.2-0.4s1.5-0.7,2-0.5C498,219.9,498.2,220.2,497.8,220.6z"/>
			<path class="st12" d="M548.5,202c-1,0.4-5.2-1-3.8-2c1.1-0.8,5,0.9,4.9,2c-1-0.3-5,0.6-5.1,1.6c-0.2,2,4.4-0.3,4.9-0.9
				c-0.6,0.5-0.7,3.3,0.4,3.6c1.5,0.4,0.9-2.1,0.5-2.6c1.1,0.5,5.5,2.3,5.7,0.3c0.1-1.3-2.6-1-3.9-1.1c1.4-0.3,3.3-1.7,2.9-2.9
				c-1.4-0.3-3,1.3-3.5,2.2c0.4-0.8,1.3-3.8-1.1-3.1c-1.2,0.4-0.9,2.3-0.6,2.7"/>
			<path class="st13" d="M549,203c0.5,0.6,3.2,0.4,3.1-0.5s-2.1-0.9-2.8-0.7C548.7,202,548.5,202.4,549,203z"/>
			<path class="st15" d="M239.7,390.5c0,0.4-1.8,0.8-4.1,0.8c-2.3,0-4.1-0.4-4.1-0.8s1.8-0.8,4.1-0.8S239.7,390.1,239.7,390.5z"/>
			<path class="st15" d="M246.7,399.1c0,0.4-1.1,0.8-2.4,0.8s-2.4-0.4-2.4-0.8s1.1-0.8,2.4-0.8S246.7,398.7,246.7,399.1z"/>
			<path class="st15" d="M326.2,342.5c0,0.5-2.2,0.9-5,0.9s-5-0.4-5-0.9s2.2-0.9,5-0.9C323.9,341.7,326.2,342.1,326.2,342.5z"/>
			<path class="st15" d="M285.7,439.3c0,0.3-1,0.5-2.3,0.5s-2.3-0.2-2.3-0.5s1-0.5,2.3-0.5S285.7,439.1,285.7,439.3z"/>
			<path class="st15" d="M188,396.3c0,0.3-1.8,0.5-4,0.5s-4-0.2-4-0.5s1.8-0.5,4-0.5S188,396,188,396.3z"/>
			<path class="st15" d="M194.4,399.1c0,0.4-1,0.8-2.4,0.8c-1.3,0-2.3-0.4-2.3-0.8s1-0.8,2.3-0.8S194.4,398.7,194.4,399.1z"/>
			<path class="st15" d="M186,410.3c-2,0.3-4.1,0.3-6.1,0C181.9,410,184,410,186,410.3z"/>
			<path class="st15" d="M16.1,458.6c0,0.3-1.4,0.5-3.2,0.5s-3.3-0.2-3.3-0.5s1.4-0.5,3.2-0.5C14.7,458.1,16.1,458.4,16.1,458.6z"/>
			<path class="st15" d="M39.5,437.8c0,0.5-1.4,1-3.2,1c-1.8,0-3.2-0.4-3.2-1s1.4-1,3.2-1S39.5,437.3,39.5,437.8z"/>
			<path class="st15" d="M77.3,458.1c0,0.2-1.2,0.4-2.7,0.4s-2.7-0.2-2.7-0.4s1.2-0.4,2.7-0.4C76.1,457.8,77.3,457.9,77.3,458.1z"/>
			<rect x="134.5" y="256.5" class="st16" width="3.7" height="27.3"/>
			<rect x="134.5" y="156" class="st16" width="3.7" height="27.3"/>
			<rect x="103.5" y="170.1" class="st17" width="65" height="97.5"/>
			<polygon class="st18" points="168.5,170.1 168.5,172.6 103.5,245.2 103.5,224.6 155.4,170.1 			"/>
			<polygon class="st18" points="168.5,185.6 168.5,198.4 106.6,267.6 103.5,267.6 103.5,257.7 			"/>
			<rect x="210.6" y="256.5" class="st16" width="3.7" height="27.3"/>
			<rect x="210.6" y="156" class="st16" width="3.7" height="27.3"/>
			<rect x="179.6" y="170.1" class="st17" width="65" height="97.5"/>
			<polygon class="st18" points="244.6,170.1 244.6,172.6 179.6,245.2 179.6,224.6 231.5,170.1 			"/>
			<polygon class="st18" points="244.6,185.6 244.6,198.4 182.7,267.6 179.6,267.6 179.6,257.7 			"/>
			<rect x="286.7" y="256.5" class="st16" width="3.7" height="27.3"/>
			<rect x="286.7" y="156" class="st16" width="3.7" height="27.3"/>
			<rect x="255.7" y="170.1" class="st17" width="65" height="97.5"/>
			<polygon class="st18" points="320.7,170.1 320.7,172.6 255.7,245.2 255.7,224.6 307.6,170.1 			"/>
			<polygon class="st18" points="320.7,185.6 320.7,198.4 258.8,267.6 255.7,267.6 255.7,257.7 			"/>
			<rect x="91.7" y="156" class="st16" width="5.9" height="198.8"/>
			<rect x="326.7" y="156" class="st16" width="5.2" height="198.8"/>
			<path class="st19" d="M360.5,158.2V158c0-7.1-5.7-12.8-12.8-12.8l0,0H77c-7.1,0-12.8,5.7-12.8,12.8v0.2H360.5z"/>
			<rect x="64.3" y="156.8" class="st16" width="295.6" height="5.9"/>
			<rect x="93.9" y="278" class="st16" width="235.7" height="6.6"/>
			<path class="st20" d="M405.5,185.3v218.8c0,0.7,1.3,1.3,2.8,1.3s2.8-0.6,2.8-1.3V185.3H405.5z"/>
			<path class="st12" d="M388.7,163.7h41.9c1.9,0,3.3,1.5,3.3,3.3l0,0v42c0,1.8-1.5,3.3-3.3,3.3h-41.9c-1.8,0-3.3-1.5-3.3-3.3v-42
				C385.3,165.3,386.8,163.8,388.7,163.7z"/>
			<path class="st21" d="M390.6,166.1h37.9c1.7,0,3,1.4,3,3v38.1c0,1.7-1.4,3-3,3h-37.9c-1.7,0-3-1.4-3-3v-38.1
				C387.6,167.4,389,166.1,390.6,166.1z"/>
			<path class="st12" d="M400.9,171.2c0.6-0.1,1.2-0.2,1.8-0.2h13.8c0.6,0,1.2,0.1,1.8,0.3c0.4,0.1,0.7,0.2,1.1,0.4
				c1,0.5,1.9,1.2,2.6,2.1c0.1,0.1,0.2,0.3,0.3,0.4v0.1c0.2,0.2,0.3,0.4,0.4,0.7c0.1,0.2,0.2,0.5,0.3,0.7c0.1,0.3,0.2,0.7,0.3,1.1
				c0.1,0.4,0.1,0.8,0.1,1.2c0,6.3,0,12.6,0,18.9c0,0.7,0,1.4,0,2.1l0,0c0,0.1,0,0.1,0,0.2c0,0.2-0.1,0.4-0.2,0.5
				c-0.3,0.4-0.6,0.7-1.1,0.9c-0.3,0.1-0.6,0.2-0.9,0.2c0,0.8,0,1.6,0,2.5c0,0.6-0.3,1.1-0.8,1.5c-0.2,0.1-0.3,0.2-0.5,0.3
				c-0.5,0.2-1,0.3-1.5,0.2c-0.7,0-1.4,0-2.2,0c-0.5-0.1-0.9-0.3-1.2-0.6l-0.2-0.3l-0.1-0.2c-0.1-0.2-0.2-0.4-0.3-0.6
				c0-0.2-0.1-0.4-0.1-0.6v-2.2H405c0,0.9,0,1.7,0,2.6l0,0c0,0.1,0,0.2,0,0.3c-0.1,0.4-0.3,0.7-0.6,1c-0.2,0.2-0.4,0.3-0.7,0.5
				c-0.5,0.1-0.9,0.2-1.4,0.2c-0.7,0-1.3,0-2,0c-0.7-0.1-1.4-0.5-1.8-1.1c-0.1-0.2-0.2-0.3-0.2-0.5c0-0.1,0-0.1,0-0.2
				c0-0.1,0-0.3,0-0.4v-2.4c-0.3,0-0.6-0.1-0.9-0.2c-0.4-0.2-0.8-0.5-1-0.9c-0.1-0.2-0.2-0.4-0.2-0.6l-0.1-0.2c0-0.2,0-0.4,0-0.6
				v-18c0-1,0-2.1,0-3.1c0.1-0.6,0.2-1.1,0.3-1.6c0.1-0.2,0.1-0.4,0.2-0.6c0.1-0.3,0.3-0.6,0.5-0.9c0.5-0.7,1.1-1.4,1.8-1.9
				c0.2-0.2,0.4-0.2,0.6-0.4s0.4-0.2,0.5-0.3c0.3-0.1,0.5-0.2,0.8-0.3c0.1,0,0.2,0,0.3,0H400.9z M405,173.2c0,0.8,0,1.5,0,2.3h9.2
				v-2.3H405z M398.1,177.8v13.8H421c0-4.6,0-9.2,0-13.8H398.1z M400.3,193.8c-0.4,0-0.7,0.1-1,0.3c-0.5,0.3-1,0.8-1.1,1.4l-0.1,0.2
				c0,0.2,0,0.4,0,0.7c0,0.1,0,0.2,0.1,0.3c0.2,0.7,0.7,1.2,1.3,1.5c0.6,0.2,1.3,0.2,1.8-0.1c0.6-0.3,1.1-0.8,1.2-1.5
				c0-0.1,0-0.1,0.1-0.2c0-0.3,0-0.6,0-0.8l-0.1-0.2c-0.2-0.7-0.7-1.3-1.5-1.6C400.9,193.8,400.6,193.8,400.3,193.8L400.3,193.8z
				 M417.6,194.1c-0.5,0.3-0.9,0.8-1.1,1.4c0,0.1,0,0.1-0.1,0.2c0,0.3,0,0.5,0,0.8c0.1,0.4,0.2,0.7,0.5,1c0.2,0.3,0.5,0.6,0.9,0.7
				l0.2,0.1c0.5,0.2,1.1,0.1,1.7-0.1c0.2-0.1,0.4-0.2,0.5-0.4c0.3-0.3,0.6-0.7,0.7-1.1c0-0.1,0-0.2,0.1-0.3c0-0.2,0-0.4,0-0.7
				l-0.1-0.2c-0.2-0.7-0.7-1.3-1.4-1.6c-0.3-0.1-0.6-0.1-0.9-0.1C418.3,193.8,418,193.9,417.6,194.1L417.6,194.1z"/>
			<path class="st12" d="M391.3,181.1c0-0.6,0.5-1,1.1-1h1.2v6.9c-0.4,0-0.9,0-1.3,0c-0.6-0.1-1-0.5-1-1.1v-5V181.1z"/>
			<path class="st12" d="M425.6,180.1h1.2c0.6,0,1.1,0.5,1.1,1.1v4.7c0,0.3-0.2,0.6-0.4,0.9c-0.2,0.2-0.5,0.3-0.8,0.2h-1.1V180.1z"
				/>
			<path class="st2" d="M622.5,275.1c3.6-0.1,7.8,0.8,10.8-2.5c2.8-3,2.1-7.5-0.5-10.4c1.5-1.3,1.7-3.2,1.5-5.1
				c-0.2-1.3-0.6-2.5-1.2-3.6c-0.4-0.5-1.8-1.2-1.9-1.8c-0.3-1,1-3.5,1-4.9c-0.2-2.1-1.2-4.1-2.8-5.5c2.8-3,0.4-7.3-2.1-9.7
				c1.1-1.8,0.3-5.2,0-7.1c-0.4-2.1-1.4-7.8-3.4-9c-3-1.8-4.5,5.3-4.8,7.2c-0.3,1.7-0.5,3.4-0.8,5c-0.3,1.8-1,2.3-2.1,3.5
				c-1.5,1.8-2,4.3-1.2,6.5c0.1,0.7,0.7,1.5,0.5,2.2c-0.2,0.9-1.9,2-2.3,2.9c-1.7,2.7-1.3,6.2,1.1,8.3c-2.3,0.6-4.2,2.3-5.2,4.5
				c-1.2,2.9,0,5,1.8,7.1c-2.7,2-3.4,5.8-1.4,8.5c0.4,0.6,0.9,1,1.4,1.4c2.5,2.1,6.6,2.3,9.6,2.4L622.5,275.1z"/>
			<path class="st3" d="M616.3,270.2c-0.2,0.3-0.5,0.6-0.8,0.9c-0.3,0.2-0.7,0.4-1.1,0.5c-0.2,0.1-0.4,0.1-0.7,0.1
				c-0.1,0-0.3-0.1-0.4-0.1c-0.1-0.1-0.3-0.2-0.3-0.3c-0.1-0.2-0.1-0.5,0-0.8c0.1-0.2,0.2-0.4,0.3-0.6l0.4,0.4l-0.3,0.1
				c-0.1,0-0.2,0.1-0.3,0.1s-0.2,0-0.3,0s-0.2,0-0.4,0c-0.1,0-0.2-0.1-0.3-0.1c-0.1-0.1-0.2-0.1-0.3-0.2s-0.2-0.2-0.3-0.3
				s-0.1-0.2-0.2-0.3c0-0.1-0.1-0.2-0.1-0.3s0-0.2,0-0.3s0-0.2,0-0.3s0.1-0.2,0.1-0.3s0.1-0.2,0.2-0.3c0.1-0.1,0.1-0.2,0.2-0.2
				c0.1-0.1,0.2-0.1,0.2-0.2l0.3-0.1l-0.2,0.2c-0.1,0.1-0.1,0.1-0.2,0.2c-0.1,0.1-0.1,0.2-0.1,0.3s-0.1,0.2-0.1,0.3s0,0.2,0,0.3
				s0,0.2,0,0.3s0,0.2,0,0.3s0.1,0.2,0.1,0.2c0.1,0.1,0.2,0.3,0.3,0.4c0.1,0,0.1,0.1,0.2,0.1c0.1,0,0.2,0,0.2,0c0.1,0,0.2,0,0.2,0
				c0.1,0,0.2,0,0.2,0c0.1,0,0.2,0,0.2-0.1l0.2-0.1l0,0c0.1-0.1,0.3,0,0.4,0.2l0,0c0,0.1,0,0.2,0,0.3c-0.1,0.1-0.2,0.3-0.2,0.5
				c-0.1,0.1-0.1,0.3-0.1,0.4c0,0,0,0.1,0.1,0.1s0.1,0.1,0.2,0.1c0.2,0,0.3,0,0.5,0c0.3-0.1,0.7-0.2,1-0.3
				C615.7,270.8,616,270.5,616.3,270.2z"/>
			<path class="st3" d="M616.9,254.3h-0.6l-0.5,0.1l-0.3,0.1c-0.1,0-0.2,0.1-0.3,0.1s-0.1,0.1-0.2,0.1c-0.1,0-0.1,0.1-0.1,0.2
				c0,0.1-0.1,0.1-0.1,0.2c0,0.1,0,0.2,0,0.2c0,0.1,0,0.1,0,0.2c0,0.1,0,0.1,0,0.2v0.2l-0.1-0.1c-0.1-0.1-0.2-0.2-0.3-0.4
				c0-0.1-0.1-0.2-0.1-0.3s0-0.3,0-0.4c0-0.1,0.1-0.3,0.2-0.4c0.1-0.1,0.2-0.2,0.3-0.3c0.2-0.1,0.5-0.2,0.7-0.2s0.4,0,0.6,0.1
				c0.1,0,0.3,0.1,0.4,0.2L616.9,254.3z"/>
			<path class="st3" d="M624.5,245c0.1,0.1,0.1,0.3,0.2,0.4c0,0.1,0.1,0.3,0.1,0.4c0,0.1,0,0.3,0,0.5s-0.1,0.3-0.1,0.4
				c0,0.1-0.1,0.1-0.1,0.2c-0.1,0.1-0.1,0.1-0.2,0.2c-0.1,0-0.2,0-0.3,0s-0.2-0.1-0.3-0.2c-0.1-0.1-0.2-0.3-0.3-0.4
				c-0.1-0.1-0.1-0.3-0.1-0.4l0.5,0.1c-0.1,0.1-0.2,0.3-0.3,0.4c0,0.1-0.1,0.1-0.2,0.2c-0.1,0.1-0.1,0.1-0.2,0.1
				c-0.1,0.1-0.3,0.1-0.5,0.2c-0.2,0-0.4,0-0.5,0c-0.2,0-0.3-0.1-0.5-0.2c-0.1-0.1-0.1-0.1-0.2-0.2c-0.1-0.1-0.1-0.1-0.2-0.2
				c-0.1-0.2-0.1-0.3-0.2-0.5c0-0.1,0-0.2,0-0.3v-0.3l0.3,0.3h-0.3h-0.3c-0.2,0-0.4-0.1-0.6-0.1c-0.1,0-0.2-0.1-0.3-0.1
				c-0.1-0.1-0.2-0.1-0.2-0.2c-0.1-0.1-0.1-0.1-0.2-0.2c-0.1-0.2-0.2-0.4-0.2-0.6c0-0.1,0-0.2,0-0.3c0-0.2,0.1-0.4,0.3-0.5
				c0.1-0.1,0.1-0.1,0.2-0.2c0.1-0.1,0.2-0.1,0.2-0.1c0.2-0.1,0.3-0.1,0.5-0.1c-0.2,0.1-0.3,0.1-0.4,0.2c-0.1,0-0.1,0.1-0.2,0.1
				c-0.1,0-0.1,0.1-0.1,0.2c0,0.1-0.1,0.1-0.1,0.2c0,0.1,0,0.1,0,0.2c0,0.1,0,0.1,0,0.2c0,0.1,0,0.1,0.1,0.2c0,0.1,0.1,0.1,0.1,0.2
				c0,0.1,0.1,0.1,0.1,0.1s0.1,0.1,0.2,0.1c0.1,0,0.1,0.1,0.2,0.1c0.1,0,0.1,0,0.2,0c0.1,0,0.1,0,0.2,0c0.1,0,0.1,0,0.2,0h0.2
				c0.2,0,0.3,0.1,0.3,0.2l0,0v0.2c0,0.1,0,0.1,0,0.2c0,0.1,0.1,0.2,0.1,0.3l0.1,0.1l0.1,0.1c0.1,0.1,0.2,0.1,0.3,0.1s0.2,0,0.3,0
				s0.2-0.1,0.3-0.1l0.2-0.1l0.1-0.1c0.1-0.1,0.2-0.2,0.2-0.3l0,0c0.1-0.1,0.2-0.1,0.4-0.1l0.1,0.1c0,0.1,0.1,0.3,0.1,0.4
				c0,0.1,0.1,0.2,0.1,0.3l0.1,0.1l0,0l0,0c0,0,0.1,0,0.1-0.1l0.1-0.1c0.1-0.1,0.1-0.2,0.2-0.4c0-0.1,0.1-0.3,0.1-0.4
				C624.5,245.4,624.5,245.2,624.5,245c0,0,0,0,0-0.1L624.5,245z"/>
			<path class="st3" d="M622.9,235.3c-0.1,0.2-0.2,0.3-0.3,0.4c-0.1,0.1-0.3,0.2-0.4,0.3c-0.2,0.1-0.4,0.1-0.6,0.1
				c-0.1,0-0.2,0-0.3-0.1c-0.1,0-0.2-0.1-0.3-0.2c-0.2-0.1-0.3-0.3-0.3-0.5c0-0.1-0.1-0.2-0.1-0.4v-0.1l0.1,0.1
				c0.1,0.1,0.2,0.2,0.2,0.2c0.2,0.2,0.5,0.3,0.7,0.3c0.3,0,0.6,0,0.9-0.1l0.3-0.1L622.9,235.3z"/>
			<path class="st3" d="M625.7,226.2l0.1,0.2c0,0.1,0,0.2,0,0.2c0,0.2,0,0.3,0,0.5s-0.1,0.3-0.1,0.5c-0.1,0.2-0.1,0.3-0.2,0.5
				c-0.1,0.1-0.1,0.2-0.2,0.2c-0.1,0.1-0.2,0.1-0.3,0.2c-0.1,0-0.2,0-0.4,0c-0.1,0-0.1,0-0.2-0.1l-0.1-0.1c-0.1-0.1-0.1-0.2-0.2-0.3
				c0-0.1-0.1-0.2-0.1-0.3c-0.1-0.2-0.1-0.3-0.1-0.5l0.5,0.1c-0.1,0.2-0.2,0.3-0.4,0.5c-0.1,0.1-0.2,0.1-0.3,0.2c-0.1,0-0.3,0-0.4,0
				c-0.1,0-0.3-0.1-0.4-0.2c-0.1-0.1-0.1-0.2-0.2-0.3c-0.1-0.2-0.1-0.4-0.2-0.5l0.3,0.2h-0.3c-0.1,0-0.2,0-0.3-0.1
				c-0.1,0-0.2-0.1-0.3-0.2c-0.1-0.1-0.2-0.2-0.3-0.3c0-0.1-0.1-0.2-0.1-0.4c0-0.1,0-0.2,0-0.3s0.1-0.2,0.1-0.3l0.2-0.3l-0.1,0.3
				c0,0.1,0,0.2,0,0.3s0,0.2,0,0.3s0.1,0.1,0.1,0.2l0.1,0.1c0,0,0,0,0.1,0.1s0.1,0.1,0.2,0.1s0.2,0,0.3,0h0.3c0.1,0,0.2,0.1,0.3,0.2
				l0,0c0,0.1,0.1,0.3,0.2,0.4c0,0.1,0.1,0.2,0.2,0.2c0.1,0,0.2,0,0.2-0.1c0.1-0.1,0.2-0.2,0.3-0.3s0.3-0.2,0.4-0.1
				c0.1,0,0.1,0.1,0.1,0.2l0,0c0,0.1,0,0.3,0.1,0.4c0,0.1,0,0.1,0.1,0.2c0,0,0,0.1,0.1,0.1l0,0l0,0h0.1c0.1,0,0.1,0,0.1-0.1l0.1-0.1
				c0.2-0.2,0.3-0.5,0.4-0.7c0-0.1,0.1-0.3,0.1-0.4C625.6,226.4,625.6,226.3,625.7,226.2z"/>
			<path class="st3" d="M628.4,260.9c0.1,0.2,0.1,0.3,0.1,0.5c0,0.2,0,0.3,0,0.5c0,0.4-0.2,0.7-0.4,1c-0.1,0.1-0.1,0.2-0.2,0.2
				c-0.1,0.1-0.2,0.1-0.2,0.2c-0.2,0.1-0.4,0.1-0.7,0.1c-0.1,0-0.2-0.1-0.3-0.1s-0.2-0.1-0.3-0.2s-0.3-0.3-0.4-0.4l0.5-0.2
				c0.1,0.3,0.1,0.6,0,0.9c0,0.2-0.1,0.3-0.2,0.5c-0.1,0.1-0.3,0.3-0.5,0.3c-0.1,0-0.2,0-0.3,0s-0.2,0-0.3-0.1s-0.3-0.2-0.4-0.3
				c0-0.1-0.1-0.1-0.1-0.2s-0.1-0.1-0.1-0.2c-0.1-0.1-0.1-0.3-0.1-0.4c0.1,0.1,0.2,0.2,0.3,0.3c0,0.1,0.1,0.1,0.1,0.1l0.2,0.1
				l0.2,0.1c0.1,0,0.2,0.1,0.3,0.1h0.1c0.1,0,0.1-0.1,0.2-0.2c0.1-0.1,0.1-0.2,0.1-0.3c0-0.2,0-0.5,0-0.7c0-0.1,0.1-0.3,0.2-0.3l0,0
				c0.1,0,0.2,0,0.3,0.1l0,0c0.1,0.1,0.2,0.2,0.3,0.3c0,0,0.1,0.1,0.2,0.1l0.1,0.1h0.1h0.2c0.1,0,0.1-0.1,0.2-0.1
				c0.1,0,0.1-0.1,0.1-0.1c0.1-0.1,0.2-0.2,0.3-0.3s0.1-0.3,0.2-0.4C628.3,261.5,628.4,261.2,628.4,260.9z"/>
		</g>
	</g>
</g>
</svg>
