<svg xmlns="http://www.w3.org/2000/svg" xmlns:xlink="http://www.w3.org/1999/xlink" viewBox="0 0 440 264"><defs><style>.cls-1{fill:#ff6760;}.cls-2{isolation:isolate;}.cls-3{fill:#3c4142;opacity:0.62;}.cls-4{fill:#754114;}.cls-5{fill:#9c571a;}.cls-6{fill:#d48b4d;}.cls-7{fill:#f3a5a7;}.cls-8{fill:#ffe2d1;}.cls-9{fill:#402a2a;}.cls-10{fill:none;stroke:#11201c;stroke-miterlimit:10;stroke-width:4px;}.cls-11{fill:#3395b9;}.cls-12{fill:#6dcec5;}.cls-13{fill:#22bdd5;}.cls-14{fill:#454c53;}.cls-15{fill:#fff;}.cls-16{fill:#cbcdcf;}.cls-17{fill:#ff7000;}.cls-18{fill:#ffb900;}.cls-19{fill:#ffdbc5;}.cls-20{fill:#f2b797;}.cls-21{fill:#453434;mix-blend-mode:soft-light;}.cls-22{clip-path:url(#clip-path);}.cls-23{fill:#d07422;}.cls-24{fill:#daf4ed;}.cls-25{fill:#ff3e3b;}.cls-26{clip-path:url(#clip-path-2);}</style><clipPath id="clip-path"><path class="cls-1" d="M196.13,64.09a8.49,8.49,0,0,1-16.88-1.75Z"/></clipPath><clipPath id="clip-path-2"><path class="cls-1" d="M268.81,68.62a8.5,8.5,0,0,0,16.31,4.7Z"/></clipPath></defs><g class="cls-2"><g id="OBJECTS"><ellipse class="cls-3" cx="219" cy="248.47" rx="183.95" ry="4.13"/><path class="cls-4" d="M350.69,70.48c15,10.12,2,21.07,2,21.07l-20,25.84L314.5,103.58c-9.24-7.14-8.72-11.57-3.78-18C317.43,76.92,335.7,60.35,350.69,70.48Z"/><path class="cls-5" d="M332.56,113.73a3.38,3.38,0,0,1,.3-.43l20.82-27a7.66,7.66,0,0,0-12.36-9L324.83,98.65c-1.8,2.32-3.28,4.18-4.49,5.64l-10.93-8.44,28.43-36.8c6.06-7.85,20-10.32,27.88-4.25l-1.17-.9a25.12,25.12,0,0,1,4.56,35.23l-25.56,33.09Z"/><path class="cls-6" d="M332,117.26a1.58,1.58,0,0,1,0-2.53,7.57,7.57,0,0,1,11.48,8.87,1.58,1.58,0,0,1-2.44.67Z"/><path class="cls-6" d="M307.85,98.6a1.16,1.16,0,0,1,0-1.81,7.57,7.57,0,0,1,11.73,9.07,1.16,1.16,0,0,1-1.75.43Z"/><path class="cls-6" d="M362.57,68.37l10.92-.07,10.92-.06a12.9,12.9,0,0,0,12.8-12.94l-.13-23.13a12.9,12.9,0,0,0-12.94-12.8l-21.84.12a12.91,12.91,0,0,0-12.8,13l.12,23.12A12.93,12.93,0,0,0,362.57,68.37Z"/><path class="cls-7" d="M378.29,63.2l-.08,11a5,5,0,0,1-5,4.89h-.15A5,5,0,0,1,368.23,74l.07-10.74Z"/><path class="cls-5" d="M388.3,20s1.35-1.08,11.38,1.07C408.5,23,419.12,32,422,37c1.86,3.26,2.77,8.63-1.07,12.27h0c-2.58,2.57-7.4,3.24-11.08,2.23A10.51,10.51,0,0,1,402.21,43l-1-6.21a22,22,0,0,0-6.6-12.47Z"/><path class="cls-8" d="M359.74,54.64l4.85-6c3-3.49,4.35-5.36,4.32-10l-.11-19.56,8-.05.11,19.56c0,4.59,1.61,6.45,4.63,9.9l4.93,6A7.08,7.08,0,0,1,388,59.28l0,3.79A7.29,7.29,0,0,1,381,70.6a7.51,7.51,0,0,1-6.23-3.51l-3.07,0a7.77,7.77,0,0,1-6.31,3.58,7.44,7.44,0,0,1-7.32-7.45l0-3.8A7.3,7.3,0,0,1,359.74,54.64Z"/><path class="cls-5" d="M357.52,20.45s-4.26,1.34-10.36,6.93-9.31,12.82-10,21.15l-.27,3.6A9.61,9.61,0,0,0,344,62.21h0a9.57,9.57,0,0,0,9.69-3l1.58-1.82a9.83,9.83,0,0,0,1.76-10l-2.24-5.88a22,22,0,0,1-.53-14.1Z"/><path class="cls-9" d="M373,50.21h0c-4,.12-7.39,2.54-5,6.61,4.41,7.49,7.94,3.71,10.66-.06S378,50.28,373,50.21Z"/><path class="cls-9" d="M382.58,39.83a2.09,2.09,0,1,0,2.09-2.08A2.1,2.1,0,0,0,382.58,39.83Z"/><path class="cls-9" d="M364.08,39.83A2.08,2.08,0,1,1,362,37.75,2.09,2.09,0,0,1,364.08,39.83Z"/><rect x="374" y="175" width="12.5" height="13.5" transform="translate(760.5 363.5) rotate(-180)"/><polyline class="cls-10" points="329 31 329 19 196 19 196 32"/><line class="cls-10" x1="293" y1="20" x2="293" y2="34"/><line class="cls-10" x1="232" y1="18" x2="232" y2="32"/><rect class="cls-11" x="267.42" y="159.32" width="90" height="44" transform="translate(624.84 362.64) rotate(-180)"/><rect class="cls-11" x="35.42" y="161.32" width="90" height="44" transform="translate(160.84 366.64) rotate(-180)"/><path class="cls-12" d="M11.54,153l.65-14.79s90.23-22.66,90.49-23.21l79.46-86H341.59l43,89-2.5,35Z"/><path class="cls-13" d="M382.57,146.32l-3.65,51-23.68,12c2.68-25.46-19.84-43.46-42.24-43.46-22.69,0-45.58,18-42.28,43.5H120.23c1.19-24.5-18.62-43-41.31-43-26.5,0-45.5,20.5-43.25,43l-26.25-8,2.41-55Z"/><path d="M274.92,210.4A38.08,38.08,0,1,0,313,172.32,38.13,38.13,0,0,0,274.92,210.4Z"/><path class="cls-14" d="M292.64,210.4A20.37,20.37,0,1,0,313,190,20.39,20.39,0,0,0,292.64,210.4Z"/><path class="cls-15" d="M298.54,210.4A14.46,14.46,0,1,0,313,195.94,14.48,14.48,0,0,0,298.54,210.4Z"/><path class="cls-16" d="M303.37,210.4a9.63,9.63,0,1,0,9.63-9.62A9.64,9.64,0,0,0,303.37,210.4Z"/><path class="cls-15" d="M308.21,210.4a4.79,4.79,0,1,0,4.79-4.79A4.8,4.8,0,0,0,308.21,210.4Z"/><path d="M39.58,210.4a38.09,38.09,0,1,0,38.09-38.08A38.14,38.14,0,0,0,39.58,210.4Z"/><path class="cls-14" d="M57.3,210.4A20.37,20.37,0,1,0,77.67,190,20.4,20.4,0,0,0,57.3,210.4Z"/><path class="cls-15" d="M63.21,210.4a14.46,14.46,0,1,0,14.46-14.46A14.48,14.48,0,0,0,63.21,210.4Z"/><path class="cls-16" d="M68,210.4a9.63,9.63,0,1,0,9.63-9.62A9.64,9.64,0,0,0,68,210.4Z"/><path class="cls-15" d="M72.87,210.4a4.8,4.8,0,1,0,4.8-4.79A4.8,4.8,0,0,0,72.87,210.4Z"/><path class="cls-11" d="M350.33,186.57c2.32,0,22.67-6.76,30.25-9.3v21.59L355,209.24C355.6,203.11,353.64,192.58,350.33,186.57Z"/><path class="cls-11" d="M10.08,203.17v-21.7l27.34,12.6s-2.5,9.92-1.67,19.25Z"/><polygon class="cls-17" points="382.33 152.99 380.75 168.49 354.42 168.32 354.42 152.99 382.33 152.99"/><polygon class="cls-18" points="11.38 152.66 10.75 171 20.42 171 27.42 153.08 11.38 152.66"/><rect class="cls-11" x="196.42" y="125.32" width="32" height="7" transform="translate(424.84 257.64) rotate(-180)"/><rect class="cls-11" x="267.42" y="125.32" width="32" height="7" transform="translate(566.84 257.64) rotate(-180)"/><path class="cls-11" d="M101.33,176V143.59h8.84v40A109.71,109.71,0,0,0,101.33,176Z"/><path class="cls-11" d="M300.5,171.91V140.59h8.83v28.25A57.58,57.58,0,0,0,300.5,171.91Z"/><polygon class="cls-11" points="11.55 146.32 12.01 138.32 382.85 138.32 382.1 146.32 11.55 146.32"/><rect class="cls-11" x="118.92" y="196.32" width="153" height="17.23" transform="translate(390.84 409.87) rotate(-180)"/><polygon points="138.64 91.5 184.99 37.82 229.42 37.82 229.42 91.5 138.64 91.5"/><path class="cls-18" d="M184.54,89.28c-3,.17-5.88.3-8.82.42s-5.86.24-8.8.32-5.9.16-8.88.17-6,0-9.18-.29c-.81-.07-1.63-.14-2.54-.28a15.81,15.81,0,0,1-3.13-.72A19.74,19.74,0,0,1,138.11,86a52.31,52.31,0,0,1-7-6.58c-2.06-2.25-4-4.57-5.79-6.92s-3.59-4.69-5.33-7.19a3.88,3.88,0,0,1,6.19-4.67l0,.07c1.73,2.11,3.61,4.28,5.5,6.33s3.89,4,5.91,5.86a40.24,40.24,0,0,0,6.16,4.71,8.66,8.66,0,0,0,2.57,1.13,24.14,24.14,0,0,0,2.9.13c2.57,0,5.37-.26,8.14-.53s5.61-.6,8.42-1,5.64-.81,8.46-1.26,5.66-1,8.41-1.47a7.4,7.4,0,1,1,2.72,14.54C185.17,89.22,184.83,89.26,184.54,89.28Z"/><path class="cls-19" d="M120.73,66.36l6.6-4.52a15.8,15.8,0,0,1-1.06-6.28c.08-3.74.49-6.54-1.13-4.77S123.69,56,123.69,56s-3-7.69-4.46-8.1,1.39,7.22,1.39,7.22-4.42-7.73-5.72-7.18,3.41,8.22,3.41,8.22-4.83-6.27-5.9-5.18,4.26,7,4.26,7-3.69-2.66-4.24-2S120.73,66.36,120.73,66.36Z"/><ellipse class="cls-18" cx="188.7" cy="93.81" rx="16.62" ry="21.11" transform="translate(30.95 233.54) rotate(-67.97)"/><path class="cls-20" d="M194.23,79.51a7.3,7.3,0,0,1-8,6.51l-.32,0a7.31,7.31,0,0,1-6.55-8l.45-4.33a7.35,7.35,0,0,1,8.06-6.57l.32,0a7.37,7.37,0,0,1,6.54,8.09Z"/><path class="cls-19" d="M220.68,52.51c-1.78,17.12-19.28,29.33-34.21,27.78S156.91,63.2,158.69,46.08a31.16,31.16,0,1,1,62,6.43Z"/><path class="cls-21" d="M186.32,76.46a41.64,41.64,0,0,1-20.43-8c5.32,6.5,12.91,11,20.58,11.79,8.4.87,17.62-2.62,24.39-8.88A41.78,41.78,0,0,1,186.32,76.46Z"/><path class="cls-9" d="M176.06,50A2.18,2.18,0,1,1,178,52.37,2.17,2.17,0,0,1,176.06,50Z"/><path class="cls-9" d="M198.53,52.31a2.19,2.19,0,1,1,1.95,2.39A2.19,2.19,0,0,1,198.53,52.31Z"/><path class="cls-19" d="M224.35,57.49a4.57,4.57,0,1,1-4.08-5A4.57,4.57,0,0,1,224.35,57.49Z"/><path class="cls-19" d="M162.5,51.07a4.57,4.57,0,1,1-4.08-5A4.57,4.57,0,0,1,162.5,51.07Z"/><path class="cls-1" d="M196.13,64.09a8.49,8.49,0,0,1-16.88-1.75Z"/><g class="cls-22"><path class="cls-7" d="M175.55,73a8.24,8.24,0,1,0,9-7.35A8.24,8.24,0,0,0,175.55,73Z"/></g><path class="cls-23" d="M220.27,52.47S214,41.12,204,42.75c-8.39,1.36-25.5-2-27-14.25,0,0-4.4,14.86-18.58,17.55,0,0-2.42-19,22.33-31L183,9.75l1.75,4s20.19.3,30.75,12.75C225.25,38,220.27,52.47,220.27,52.47Z"/><path class="cls-23" d="M221.37,41.25c.25,1,1.5,17.5-6,29.87,0,0,5.13-20.49-2.37-26.5Z"/><path class="cls-23" d="M160.05,35.72c-.49.91-6.09,15.88-2.06,27.81,0,0,1.38-17.17,6.44-24.16Z"/><polygon class="cls-24" points="141.66 88 229.42 88 229.42 115.82 117.64 115.82 141.66 88"/><path class="cls-15" d="M220,100c-1.51-.17-3-.37-4.51-.59s-3-.42-4.49-.67L206.52,98c-1.49-.24-3-.53-4.46-.79l1.92-.76q-3.14,5.73-6.41,11.38l-1.16,2-2.22-1.23c-3.29-1.82-6.54-3.68-9.74-5.62S178.06,99,174.91,97l4.15-1q-4,6.72-8.29,13.32l-1.53,2.37-2.17-1.49c-3.42-2.37-6.8-4.81-10.17-7.27-1.67-1.24-3.35-2.48-5-3.75s-3.3-2.56-5-3.84l1.51-.52c-.62,1.37-1.29,2.73-1.93,4.1s-1.33,2.71-2,4.06c.3-1.49.63-3,1-4.44s.69-2.94,1.07-4.4l.3-1.16,1.21.64c1.85,1,3.72,1.92,5.55,2.91s3.67,2,5.49,3c3.64,2,7.26,4.1,10.83,6.23l-3.69.88Q170,99.76,173.94,93l1.53-2.62L178.09,92c3.18,2,6.35,4,9.46,6.06s6.21,4.2,9.26,6.38l-3.38.76c2.47-3.57,5-7.11,7.59-10.62l.82-1.14,1.1.38c1.43.49,2.86,1,4.29,1.46l4.27,1.5c1.43.5,2.84,1,4.26,1.58S218.59,99.42,220,100Z"/><polygon class="cls-24" points="336.66 37.82 364.92 96.82 309.42 115.32 296.52 37.82 336.66 37.82"/><polygon points="238.96 99.82 237.43 37.82 288.48 37.82 297.52 99.82 238.96 99.82"/><ellipse class="cls-25" cx="264.56" cy="98.96" rx="21.11" ry="16.62"/><polygon class="cls-24" points="297.23 97.82 299.85 115.82 239.36 115.82 238.91 97.82 297.23 97.82"/><path class="cls-15" d="M274.5,109c-1.19-.27-2.34-.58-3.48-1s-2.26-.73-3.37-1.15q-3.33-1.25-6.52-2.73l2.75-1.55q-.08,4-.43,8l-.26,2.95-2.54-1.31c-2.39-1.23-4.73-2.55-7-4-1.14-.72-2.27-1.46-3.38-2.26s-2.2-1.61-3.25-2.52c1.37.26,2.69.6,4,1s2.6.8,3.88,1.24q3.81,1.35,7.48,3l-2.8,1.64c.1-2.67.28-5.34.57-8l.32-2.95,2.43,1.4c2,1.18,4,2.43,6,3.77q1.45,1,2.88,2.1C272.68,107.42,273.6,108.18,274.5,109Z"/><path class="cls-25" d="M275.41,82.65c2.36,1.51,4.82,3,7.24,4.52s4.91,2.93,7.37,4.34,5,2.78,7.43,4.09,5,2.55,7.35,3.54a21.26,21.26,0,0,0,2.73,1,9.12,9.12,0,0,0,2.81-.08A40.32,40.32,0,0,0,317.82,98c2.56-.94,5.13-2,7.67-3.21s5.09-2.5,7.48-3.81l.06,0a3.88,3.88,0,0,1,4,6.64c-2.55,1.68-5,3.18-7.64,4.67s-5.2,2.93-8,4.25a53.11,53.11,0,0,1-8.92,3.49,19.52,19.52,0,0,1-5.78.76,16.09,16.09,0,0,1-3.18-.5c-.89-.22-1.68-.46-2.45-.7-3.08-1-5.85-2-8.62-3.18s-5.47-2.3-8.17-3.48-5.37-2.38-8-3.6-5.32-2.41-8-3.69a7.4,7.4,0,0,1,6.33-13.38A8.2,8.2,0,0,1,275.41,82.65Z"/><path class="cls-19" d="M336,98.25l-4.42-6.67a15.84,15.84,0,0,0,3.34-5.41c1.33-3.5,2-6.25,2.83-4s-.58,5.33-.58,5.33,5.66-6,7.16-5.83-4,6.16-4,6.16,7-5.5,8-4.5-6.25,6.34-6.25,6.34,6.84-4,7.42-2.59S342.92,92,342.92,92s4.41-1.08,4.66-.25S336,98.25,336,98.25Z"/><rect class="cls-20" x="263.09" y="76.15" width="19" height="15" rx="7.34" transform="translate(116.59 322.32) rotate(-73.89)"/><path class="cls-19" d="M250.4,48.67c-4.77,16.54,6.87,34.42,21.3,38.59S305.5,82.5,310.28,66a31.16,31.16,0,0,0-59.88-17.3Z"/><path class="cls-21" d="M273.27,83.76a41.54,41.54,0,0,0,21.92.29c-7.37,4-16.09,5.35-23.49,3.21-8.12-2.35-15.36-9-19.28-17.38A41.82,41.82,0,0,0,273.27,83.76Z"/><path class="cls-9" d="M292.71,63.06a2.18,2.18,0,1,0-2.7,1.49A2.17,2.17,0,0,0,292.71,63.06Z"/><path class="cls-9" d="M271,56.79a2.18,2.18,0,1,0-2.7,1.49A2.17,2.17,0,0,0,271,56.79Z"/><path class="cls-19" d="M245.13,51.91a4.57,4.57,0,1,0,5.66-3.12A4.57,4.57,0,0,0,245.13,51.91Z"/><path class="cls-19" d="M304.87,69.16A4.57,4.57,0,1,0,310.53,66,4.57,4.57,0,0,0,304.87,69.16Z"/><path class="cls-1" d="M268.81,68.62a8.5,8.5,0,0,0,16.31,4.7Z"/><g class="cls-26"><path class="cls-7" d="M284.54,84.63a8.24,8.24,0,1,1-5.64-10.2A8.25,8.25,0,0,1,284.54,84.63Z"/></g><path class="cls-18" d="M249.3,42.85a32.86,32.86,0,0,1,1.72-4,6.89,6.89,0,0,1,.29-2.7l0-.16.76-1.54A5.05,5.05,0,0,1,254,32.64a3.34,3.34,0,0,1,1.56-.75,5.17,5.17,0,0,1,.63-.21,6.72,6.72,0,0,1,.85-3.36,12.66,12.66,0,0,1,8.24-6.13,11.67,11.67,0,0,1,6.42.51A7.64,7.64,0,0,1,274,19.55l2-1.3a8.86,8.86,0,0,1,4.42-.84,6.51,6.51,0,0,1,3.23.95,6.64,6.64,0,0,1,2.81,2.06,7.11,7.11,0,0,1,.85,1.15A12.59,12.59,0,0,1,294,19.65c5.81,0,10.37,5.91,10.09,11.43a8.79,8.79,0,0,1,1.26,0,6.61,6.61,0,0,1,3.2.93A6.55,6.55,0,0,1,311.32,34a6.55,6.55,0,0,1,1.64,3,6.61,6.61,0,0,1,.48,3.3,11,11,0,0,1-.77,3,5.3,5.3,0,0,1,1.5.32A4.94,4.94,0,0,1,316.43,45a5.1,5.1,0,0,1,1.69,2.12,6.76,6.76,0,0,1,.64,3.4c0,.45-.05.89-.08,1.34a6.85,6.85,0,0,1-2.29,4.59l-1.09.72A8.4,8.4,0,0,1,315,60c-.68,2.4-2.85,5.87-5.27,6.72a5.33,5.33,0,0,1-5-.35,5,5,0,0,1-2.27-4.61,7.71,7.71,0,0,1,.57-2c-3.61-.06-7.24-2.72-9.64-5.38a21.23,21.23,0,0,1-3.63-5.57,7.72,7.72,0,0,1-3.74-.2,18.81,18.81,0,0,1-4.82-2.27,15,15,0,0,1-3-2.69c-.17-.16-.34-.33-.5-.5l-.12-.13a6.55,6.55,0,0,1-1.14-1.79A15.86,15.86,0,0,1,275,38.5a3.48,3.48,0,0,1-.28.39c-3,3.54-7.83,4.46-12.25,3.64-.18.19-.35.39-.52.59a6.7,6.7,0,0,1-3.12,1.51l-.14,0a5.54,5.54,0,0,1-.57.07c-.23.49-.47,1-.69,1.47-.9,2-1.69,3.59-3.67,4.67-2.3,1.26-4.77-.5-5.37-2.72C247.91,46.33,248.63,44.54,249.3,42.85Z"/></g></g></svg>