<svg id="mailbox" xmlns="http://www.w3.org/2000/svg" viewBox="0 0 300 300"><defs><style>.cls-1{fill:#00a69c;}.cls-2{fill:#24bcbf;}.cls-3{fill:#e6e7e8;}.cls-4{fill:#929497;}.cls-5{fill:#818385;}.cls-6{fill:#716558;}.cls-7{fill:#544b41;}.cls-8{fill:#8d7e6f;}</style></defs><path class="cls-1" d="M215.4,29.72H93V142.91H258.86V91.06C258.86,51.32,237.13,29.72,215.4,29.72Z"/><path class="cls-2" d="M242.62,42.39H99.79V64.13H254.93A57.41,57.41,0,0,0,242.62,42.39Z"/><path class="cls-2" d="M257.23,73.18H107.49V85.41h151.2A90,90,0,0,0,257.23,73.18Z"/><path class="cls-3" d="M93,29.72c-21.73,0-43.46,21.6-43.46,61.34v51.85h86.93V91.06C136.47,51.32,114.73,29.72,93,29.72Z"/><path class="cls-4" d="M54.07,142.91V91.06c0-37.3,19.58-56.82,38.93-56.82s38.94,19.52,38.94,56.82v51.85Z"/><path class="cls-5" d="M107.54,38.05C94,45.39,83.15,63.29,83.15,91.06v51.85h48.79V91.06C131.94,63.29,121.08,45.39,107.54,38.05Z"/><path class="cls-6" d="M40.48,142.91A4.54,4.54,0,0,0,36,147.43v1.81a4.55,4.55,0,0,0,4.53,4.53h96V142.91Z"/><path class="cls-7" d="M271.09,142.91H136.47v10.86H271.09a4.54,4.54,0,0,0,4.52-4.53v-1.81A4.53,4.53,0,0,0,271.09,142.91Z"/><rect class="cls-3" x="157.73" y="22.17" width="6.58" height="73.92" rx="2.83"/><circle class="cls-3" cx="161.02" cy="91.84" r="9.87"/><circle class="cls-6" cx="161.02" cy="91.84" r="4.26"/><polygon class="cls-6" points="181.91 27.84 164.31 27.84 164.31 36.87 164.31 45.91 181.91 45.91 173.12 36.87 181.91 27.84"/><rect class="cls-6" x="146.43" y="153.77" width="30.93" height="124.05"/><rect class="cls-8" x="146.43" y="153.77" width="15.61" height="124.05"/><path class="cls-1" d="M49.54,142.91H29.31c-6,0-4.82-13.89-4.82-13.89H131.94v13.89Z"/></svg>