<?xml version="1.0" encoding="utf-8"?>
<!-- Generator: Adobe Illustrator 25.3.1, SVG Export Plug-In . SVG Version: 6.00 Build 0)  -->
<svg version="1.1" xmlns="http://www.w3.org/2000/svg" xmlns:xlink="http://www.w3.org/1999/xlink" x="0px" y="0px"
	 viewBox="0 0 50 32.1" style="enable-background:new 0 0 50 32.1;" xml:space="preserve">
<style type="text/css">
	.st0{fill:url(#SVGID_1_);}
	.st1{opacity:0;fill:#FFFFFF;}
	.st2{opacity:1.754400e-02;fill:#FEFEFE;}
	.st3{opacity:3.508800e-02;fill:#FDFDFD;}
	.st4{opacity:5.263200e-02;fill:#FCFCFC;}
	.st5{opacity:7.017500e-02;fill:#FBFBFB;}
	.st6{opacity:8.771900e-02;fill:#FAFAFA;}
	.st7{opacity:0.1053;fill:#F9F9F9;}
	.st8{opacity:0.1228;fill:#F8F8F8;}
	.st9{opacity:0.1404;fill:#F7F7F7;}
	.st10{opacity:0.1579;fill:#F6F6F6;}
	.st11{opacity:0.1754;fill:#F5F5F5;}
	.st12{opacity:0.193;fill:#F4F4F4;}
	.st13{opacity:0.2105;fill:#F3F3F3;}
	.st14{opacity:0.2281;fill:#F2F2F3;}
	.st15{opacity:0.2456;fill:#F1F1F2;}
	.st16{opacity:0.2632;fill:#F0F0F1;}
	.st17{opacity:0.2807;fill:#EFEFF0;}
	.st18{opacity:0.2982;fill:#EEEFEF;}
	.st19{opacity:0.3158;fill:#EDEEEE;}
	.st20{opacity:0.3333;fill:#ECEDED;}
	.st21{opacity:0.3509;fill:#EBECEC;}
	.st22{opacity:0.3684;fill:#EAEBEB;}
	.st23{opacity:0.386;fill:#E9EAEA;}
	.st24{opacity:0.4035;fill:#E8E9E9;}
	.st25{opacity:0.4211;fill:#E7E8E8;}
	.st26{opacity:0.4386;fill:#E6E7E7;}
	.st27{opacity:0.4561;fill:#E5E6E6;}
	.st28{opacity:0.4737;fill:#E5E5E5;}
	.st29{opacity:0.4912;fill:#E4E4E4;}
	.st30{opacity:0.5088;fill:#E3E3E3;}
	.st31{opacity:0.5263;fill:#E2E2E2;}
	.st32{opacity:0.5439;fill:#E1E1E1;}
	.st33{opacity:0.5614;fill:#E0E0E0;}
	.st34{opacity:0.5789;fill:#DFDFDF;}
	.st35{opacity:0.5965;fill:#DEDEDE;}
	.st36{opacity:0.614;fill:#DDDDDD;}
	.st37{opacity:0.6316;fill:#DCDCDC;}
	.st38{opacity:0.6491;fill:#DBDBDB;}
	.st39{opacity:0.6667;fill:#DADADA;}
	.st40{opacity:0.6842;fill:#D9D9DA;}
	.st41{opacity:0.7018;fill:#D8D8D9;}
	.st42{opacity:0.7193;fill:#D7D7D8;}
	.st43{opacity:0.7368;fill:#D6D6D7;}
	.st44{opacity:0.7544;fill:#D5D5D6;}
	.st45{opacity:0.7719;fill:#D4D4D5;}
	.st46{opacity:0.7895;fill:#D3D3D4;}
	.st47{opacity:0.807;fill:#D2D2D3;}
	.st48{opacity:0.8246;fill:#D1D1D2;}
	.st49{opacity:0.8421;fill:#D0D0D1;}
	.st50{opacity:0.8596;fill:#CFCFD0;}
	.st51{opacity:0.8772;fill:#CECFCF;}
	.st52{opacity:0.8947;fill:#CDCECE;}
	.st53{opacity:0.9123;fill:#CCCDCD;}
	.st54{opacity:0.9298;fill:#CBCCCC;}
	.st55{opacity:0.9474;fill:#CACBCB;}
	.st56{opacity:0.9649;fill:#C9CACA;}
	.st57{opacity:0.9825;fill:#C8C9C9;}
	.st58{fill:#B0B0B0;}
	.st59{fill:url(#SVGID_2_);}
	.st60{fill:url(#SVGID_3_);}
	.st61{fill:#DDDDDD;}
	.st62{opacity:4.761900e-02;fill:#FAFAFA;}
	.st63{opacity:9.523800e-02;fill:#F6F6F6;}
	.st64{opacity:0.1429;fill:#F1F1F1;}
	.st65{opacity:0.1905;fill:#ECECEC;}
	.st66{opacity:0.2381;fill:#E7E7E7;}
	.st67{opacity:0.2857;fill:#E3E3E3;}
	.st68{opacity:0.3333;fill:#DEDEDE;}
	.st69{opacity:0.381;fill:#D9D9D9;}
	.st70{opacity:0.4286;fill:#D4D4D4;}
	.st71{opacity:0.4762;fill:#D0D0D0;}
	.st72{opacity:0.5238;fill:#CBCBCB;}
	.st73{opacity:0.5714;fill:#C6C6C6;}
	.st74{opacity:0.619;fill:#C1C1C1;}
	.st75{opacity:0.6667;fill:#BDBDBD;}
	.st76{opacity:0.7143;fill:#B8B8B8;}
	.st77{opacity:0.7619;fill:#B3B3B3;}
	.st78{opacity:0.8095;fill:#AEAEAE;}
	.st79{opacity:0.8571;fill:#AAAAAA;}
	.st80{opacity:0.9048;fill:#A5A5A5;}
	.st81{opacity:0.9524;fill:#A0A0A0;}
	.st82{fill:#9C9C9C;}
	.st83{fill:#FFFFFF;}
	.st84{fill:#C1272D;}
	.st85{fill:#FFA700;}
	.st86{fill:#0000FF;stroke:#1B024C;stroke-width:0.25;stroke-miterlimit:10;}
	.st87{fill:#603813;}
	.st88{fill:#FFE652;}
	.st89{fill:#451493;stroke:#451493;stroke-width:0.25;stroke-miterlimit:10;}
	.st90{fill:#D3D2BE;}
</style>
<g id="Objects">
	<g>
		<g>
			
				<linearGradient id="SVGID_1_" gradientUnits="userSpaceOnUse" x1="-1724.8868" y1="-327.2431" x2="-1724.8868" y2="-358.3203" gradientTransform="matrix(-1 0 0 -1 -1699.9391 -326.7517)">
				<stop  offset="0" style="stop-color:#D5D5D0"/>
				<stop  offset="0.1161" style="stop-color:#E0E0DA"/>
				<stop  offset="0.3441" style="stop-color:#EFEFE7"/>
				<stop  offset="0.6097" style="stop-color:#F8F8EF"/>
				<stop  offset="1" style="stop-color:#FBFBF1"/>
			</linearGradient>
			<rect x="0.6" y="0.5" class="st0" width="48.7" height="31.1"/>
			<g>
				<g>
					<path class="st1" d="M0.5,30.5c0,0,0-1.9,1.9-3.4c1.9-1.5,19.1-12.3,19.8-12.7c0.6-0.4,2.2-0.9,2.6-0.9c0.4,0,1.9,0.6,2.6,0.9
						c0.8,0.4,17.9,11.2,19.8,12.7c1.9,1.5,1.9,3.4,1.9,3.4H0.5z"/>
					<path class="st2" d="M0.5,30.5c0,0,0-1.9,1.9-3.4c1.9-1.5,19.1-12.3,19.8-12.7c0.6-0.4,2.2-0.9,2.6-0.9c0.4,0,1.9,0.6,2.6,0.9
						c0.8,0.4,17.9,11.2,19.8,12.7c1.9,1.5,1.9,3.4,1.9,3.4H0.5z"/>
					<path class="st3" d="M0.5,30.6c0,0,0-1.9,1.9-3.4c1.9-1.5,19.1-12.3,19.8-12.7c0.6-0.4,2.2-0.9,2.6-0.9c0.4,0,1.9,0.6,2.6,0.9
						c0.8,0.4,17.9,11.2,19.8,12.7c1.9,1.5,1.9,3.4,1.9,3.4H0.5z"/>
					<path class="st4" d="M0.5,30.6c0,0,0-1.9,1.9-3.4c1.9-1.5,19.1-12.3,19.8-12.7c0.6-0.4,2.2-0.9,2.6-0.9c0.4,0,1.9,0.6,2.6,0.9
						c0.8,0.4,17.9,11.2,19.8,12.7c1.9,1.5,1.9,3.4,1.9,3.4H0.5z"/>
					<path class="st5" d="M0.5,30.6c0,0,0-1.9,1.9-3.4c1.9-1.5,19.1-12.3,19.8-12.7c0.6-0.4,2.2-0.9,2.6-0.9c0.4,0,1.9,0.6,2.6,0.9
						c0.8,0.4,17.9,11.2,19.8,12.7c1.9,1.5,1.9,3.4,1.9,3.4H0.5z"/>
					<path class="st6" d="M0.5,30.6c0,0,0-1.9,1.9-3.4c1.9-1.5,19.1-12.3,19.8-12.7c0.6-0.4,2.2-0.9,2.6-0.9c0.4,0,1.9,0.6,2.6,0.9
						c0.8,0.4,17.9,11.2,19.8,12.7c1.9,1.5,1.9,3.4,1.9,3.4H0.5z"/>
					<path class="st7" d="M0.5,30.6c0,0,0-1.9,1.9-3.4c1.9-1.5,19.1-12.3,19.8-12.7c0.6-0.4,2.2-0.9,2.6-0.9c0.4,0,1.9,0.6,2.6,0.9
						c0.8,0.4,17.9,11.2,19.8,12.7c1.9,1.5,1.9,3.4,1.9,3.4H0.5z"/>
					<path class="st8" d="M0.5,30.7c0,0,0-1.9,1.9-3.4c1.9-1.5,19.1-12.3,19.8-12.7c0.6-0.4,2.2-0.9,2.6-0.9c0.4,0,1.9,0.6,2.6,0.9
						c0.8,0.4,17.9,11.2,19.8,12.7c1.9,1.5,1.9,3.4,1.9,3.4H0.5z"/>
					<path class="st9" d="M0.5,30.7c0,0,0-1.9,1.9-3.4c1.9-1.5,19.1-12.3,19.8-12.7c0.6-0.4,2.2-0.9,2.6-0.9c0.4,0,1.9,0.6,2.6,0.9
						c0.8,0.4,17.9,11.2,19.8,12.7c1.9,1.5,1.9,3.4,1.9,3.4H0.5z"/>
					<path class="st10" d="M0.5,30.7c0,0,0-1.9,1.9-3.4C4.4,25.7,21.6,15,22.3,14.5c0.6-0.4,2.2-0.9,2.6-0.9s1.9,0.6,2.6,0.9
						c0.8,0.4,17.9,11.2,19.8,12.7c1.9,1.5,1.9,3.4,1.9,3.4H0.5z"/>
					<path class="st11" d="M0.5,30.7c0,0,0-1.9,1.9-3.4C4.4,25.7,21.6,15,22.3,14.6c0.6-0.4,2.2-0.9,2.6-0.9c0.4,0,1.9,0.6,2.6,0.9
						c0.8,0.4,17.9,11.2,19.8,12.7c1.9,1.5,1.9,3.4,1.9,3.4H0.5z"/>
					<path class="st12" d="M0.5,30.7c0,0,0-1.9,1.9-3.4C4.4,25.8,21.6,15,22.3,14.6c0.6-0.4,2.2-0.9,2.6-0.9c0.4,0,1.9,0.6,2.6,0.9
						c0.8,0.4,17.9,11.2,19.8,12.7c1.9,1.5,1.9,3.4,1.9,3.4H0.5z"/>
					<path class="st13" d="M0.5,30.7c0,0,0-1.9,1.9-3.4C4.4,25.8,21.6,15,22.3,14.6c0.6-0.4,2.2-0.9,2.6-0.9c0.4,0,1.9,0.6,2.6,0.9
						c0.8,0.4,17.9,11.2,19.8,12.7c1.9,1.5,1.9,3.4,1.9,3.4H0.5z"/>
					<path class="st14" d="M0.5,30.8c0,0,0-1.9,1.9-3.4C4.4,25.8,21.6,15,22.3,14.6c0.6-0.4,2.2-0.9,2.6-0.9c0.4,0,1.9,0.6,2.6,0.9
						c0.8,0.4,17.9,11.2,19.8,12.7c1.9,1.5,1.9,3.4,1.9,3.4H0.5z"/>
					<path class="st15" d="M0.6,30.8c0,0,0-1.9,1.9-3.4c1.9-1.5,19.1-12.3,19.8-12.7c0.6-0.3,2.2-0.9,2.6-0.9c0.4,0,1.9,0.6,2.6,0.9
						c0.8,0.4,17.9,11.2,19.8,12.7c1.9,1.5,1.9,3.4,1.9,3.4H0.6z"/>
					<path class="st16" d="M0.6,30.8c0,0,0-1.9,1.9-3.4c1.9-1.5,19.1-12.3,19.8-12.7c0.6-0.3,2.2-0.9,2.6-0.9c0.4,0,1.9,0.6,2.6,0.9
						c0.8,0.4,17.9,11.2,19.8,12.7c1.9,1.5,1.9,3.4,1.9,3.4H0.6z"/>
					<path class="st17" d="M0.6,30.8c0,0,0-1.9,1.9-3.4c1.9-1.5,19.1-12.3,19.8-12.7c0.6-0.4,2.2-0.9,2.6-0.9c0.4,0,1.9,0.6,2.6,0.9
						c0.8,0.4,17.9,11.2,19.8,12.7c1.9,1.5,1.9,3.4,1.9,3.4H0.6z"/>
					<path class="st18" d="M0.6,30.8c0,0,0-1.9,1.9-3.4c1.9-1.5,19.1-12.3,19.8-12.7c0.6-0.3,2.2-0.9,2.6-0.9c0.4,0,1.9,0.6,2.6,0.9
						c0.8,0.4,17.9,11.2,19.8,12.7c1.9,1.5,1.9,3.4,1.9,3.4H0.6z"/>
					<path class="st19" d="M0.6,30.9c0,0,0-1.9,1.9-3.4c1.9-1.5,19.1-12.3,19.8-12.7c0.6-0.3,2.2-0.9,2.6-0.9c0.4,0,1.9,0.6,2.6,0.9
						c0.8,0.4,17.9,11.2,19.8,12.7c1.9,1.5,1.9,3.4,1.9,3.4H0.6z"/>
					<path class="st20" d="M0.6,30.9c0,0,0-1.9,1.9-3.4c1.9-1.5,19.1-12.3,19.8-12.7c0.6-0.3,2.2-0.9,2.6-0.9c0.4,0,1.9,0.6,2.6,0.9
						c0.8,0.4,17.9,11.2,19.8,12.7c1.9,1.5,1.9,3.4,1.9,3.4H0.6z"/>
					<path class="st21" d="M0.6,30.9c0,0,0-1.9,1.9-3.4c1.9-1.5,19.1-12.3,19.8-12.7c0.6-0.3,2.2-0.9,2.6-0.9c0.4,0,1.9,0.6,2.6,0.9
						c0.8,0.4,17.9,11.2,19.8,12.7c1.9,1.5,1.9,3.4,1.9,3.4H0.6z"/>
					<path class="st22" d="M0.6,30.9c0,0,0-1.9,1.9-3.4c1.9-1.5,19.1-12.3,19.8-12.7c0.6-0.3,2.2-0.9,2.6-0.9c0.4,0,1.9,0.6,2.6,0.9
						c0.8,0.4,17.9,11.2,19.8,12.7c1.9,1.5,1.9,3.4,1.9,3.4H0.6z"/>
					<path class="st23" d="M0.6,30.9c0,0,0-1.9,1.9-3.4C4.4,26,21.6,15.2,22.4,14.8c0.6-0.3,2.2-0.9,2.6-0.9c0.4,0,1.9,0.6,2.6,0.9
						c0.8,0.4,17.9,11.2,19.8,12.7c1.9,1.5,1.9,3.4,1.9,3.4H0.6z"/>
					<path class="st24" d="M0.6,30.9c0,0,0-1.9,1.9-3.4C4.5,26,21.6,15.2,22.4,14.8c0.6-0.3,2.2-0.9,2.6-0.9c0.4,0,1.9,0.6,2.6,0.9
						c0.8,0.4,17.9,11.2,19.8,12.7c1.9,1.5,1.9,3.4,1.9,3.4H0.6z"/>
					<path class="st25" d="M0.6,31c0,0,0-1.9,1.9-3.4C4.5,26,21.6,15.2,22.4,14.8c0.6-0.3,2.2-0.9,2.6-0.9c0.4,0,1.9,0.6,2.6,0.9
						c0.8,0.4,17.9,11.2,19.8,12.7c1.9,1.5,1.9,3.4,1.9,3.4H0.6z"/>
					<path class="st26" d="M0.6,31c0,0,0-1.9,1.9-3.4C4.5,26,21.6,15.3,22.4,14.8c0.6-0.3,2.2-0.9,2.6-0.9c0.4,0,1.9,0.6,2.6,0.9
						c0.8,0.4,17.9,11.2,19.8,12.7c1.9,1.5,1.9,3.4,1.9,3.4H0.6z"/>
					<path class="st27" d="M0.6,31c0,0,0-1.9,1.9-3.4C4.5,26,21.6,15.3,22.4,14.9c0.6-0.4,2.2-0.9,2.6-0.9c0.4,0,1.9,0.6,2.6,0.9
						c0.8,0.4,17.9,11.2,19.8,12.7c1.9,1.5,1.9,3.4,1.9,3.4H0.6z"/>
					<path class="st28" d="M0.6,31c0,0,0-1.9,1.9-3.4c1.9-1.5,19.1-12.3,19.8-12.7c0.6-0.4,2.2-0.9,2.6-0.9c0.4,0,1.9,0.6,2.6,0.9
						c0.8,0.4,17.9,11.2,19.8,12.7c1.9,1.5,1.9,3.4,1.9,3.4H0.6z"/>
					<path class="st29" d="M0.6,31c0,0,0-1.9,1.9-3.4c1.9-1.5,19.1-12.3,19.8-12.7c0.6-0.4,2.2-0.9,2.6-0.9c0.4,0,1.9,0.6,2.6,0.9
						c0.8,0.4,17.9,11.2,19.8,12.7c1.9,1.5,1.9,3.4,1.9,3.4H0.6z"/>
					<path class="st30" d="M0.6,31.1c0,0,0-1.9,1.9-3.4c1.9-1.5,19.1-12.3,19.8-12.7c0.6-0.4,2.2-0.9,2.6-0.9c0.4,0,1.9,0.6,2.6,0.9
						c0.8,0.4,17.9,11.2,19.8,12.7c1.9,1.5,1.9,3.4,1.9,3.4H0.6z"/>
					<path class="st31" d="M0.6,31.1c0,0,0-1.9,1.9-3.4c1.9-1.5,19.1-12.3,19.8-12.7C23,14.6,24.6,14,25,14c0.4,0,1.9,0.6,2.6,0.9
						c0.8,0.4,17.9,11.2,19.8,12.7c1.9,1.5,1.9,3.4,1.9,3.4H0.6z"/>
					<path class="st32" d="M0.6,31.1c0,0,0-1.9,1.9-3.4c1.9-1.5,19.1-12.3,19.8-12.7C23,14.6,24.6,14,25,14c0.4,0,1.9,0.6,2.6,0.9
						c0.8,0.4,17.9,11.2,19.8,12.7c1.9,1.5,1.9,3.4,1.9,3.4H0.6z"/>
					<path class="st33" d="M0.6,31.1c0,0,0-1.9,1.9-3.4C4.5,26.2,21.6,15.4,22.4,15C23,14.6,24.6,14,25,14c0.4,0,1.9,0.6,2.6,0.9
						c0.8,0.4,17.9,11.2,19.8,12.7c1.9,1.5,1.9,3.4,1.9,3.4H0.6z"/>
					<path class="st34" d="M0.6,31.1c0,0,0-1.9,1.9-3.4C4.5,26.2,21.6,15.4,22.4,15c0.6-0.3,2.2-0.9,2.6-0.9c0.4,0,1.9,0.6,2.6,0.9
						c0.8,0.4,17.9,11.2,19.8,12.7c1.9,1.5,1.9,3.4,1.9,3.4H0.6z"/>
					<path class="st35" d="M0.6,31.1c0,0,0-1.9,1.9-3.4C4.5,26.2,21.6,15.4,22.4,15c0.6-0.4,2.2-0.9,2.6-0.9c0.4,0,1.9,0.6,2.6,0.9
						c0.8,0.4,17.9,11.2,19.8,12.7c1.9,1.5,1.9,3.4,1.9,3.4H0.6z"/>
					<path class="st36" d="M0.6,31.2c0,0,0-1.9,1.9-3.4C4.5,26.2,21.7,15.4,22.4,15c0.6-0.4,2.2-0.9,2.6-0.9c0.4,0,1.9,0.6,2.6,0.9
						c0.8,0.4,17.9,11.2,19.8,12.7c1.9,1.5,1.9,3.4,1.9,3.4H0.6z"/>
					<path class="st37" d="M0.6,31.2c0,0,0-1.9,1.9-3.4C4.5,26.2,21.7,15.5,22.4,15c0.6-0.4,2.2-0.9,2.6-0.9c0.4,0,1.9,0.6,2.6,0.9
						c0.8,0.4,17.9,11.2,19.8,12.7c1.9,1.5,1.9,3.4,1.9,3.4H0.6z"/>
					<path class="st38" d="M0.6,31.2c0,0,0-1.9,1.9-3.4c1.9-1.5,19.1-12.3,19.8-12.7c0.6-0.4,2.2-0.9,2.6-0.9c0.4,0,1.9,0.6,2.6,0.9
						c0.8,0.4,17.9,11.2,19.8,12.7c1.9,1.5,1.9,3.4,1.9,3.4H0.6z"/>
					<path class="st39" d="M0.6,31.2c0,0,0-1.9,1.9-3.4c1.9-1.5,19.1-12.3,19.8-12.7c0.6-0.4,2.2-0.9,2.6-0.9c0.4,0,1.9,0.6,2.6,0.9
						c0.8,0.4,17.9,11.2,19.8,12.7c1.9,1.5,1.9,3.4,1.9,3.4H0.6z"/>
					<path class="st40" d="M0.6,31.2c0,0,0-1.9,1.9-3.4c1.9-1.5,19.1-12.3,19.8-12.7c0.6-0.3,2.2-0.9,2.6-0.9c0.4,0,1.9,0.6,2.6,0.9
						c0.8,0.4,17.9,11.2,19.8,12.7c1.9,1.5,1.9,3.4,1.9,3.4H0.6z"/>
					<path class="st41" d="M0.6,31.3c0,0,0-1.9,1.9-3.4c1.9-1.5,19.1-12.3,19.8-12.7c0.6-0.4,2.2-0.9,2.6-0.9c0.4,0,1.9,0.6,2.6,0.9
						c0.8,0.4,17.9,11.2,19.8,12.7c1.9,1.5,1.9,3.4,1.9,3.4H0.6z"/>
					<path class="st42" d="M0.6,31.3c0,0,0-1.9,1.9-3.4c1.9-1.5,19.1-12.3,19.8-12.7c0.6-0.4,2.2-0.9,2.6-0.9c0.4,0,1.9,0.6,2.6,0.9
						c0.8,0.4,17.9,11.2,19.8,12.7c1.9,1.5,1.9,3.4,1.9,3.4H0.6z"/>
					<path class="st43" d="M0.7,31.3c0,0,0-1.9,1.9-3.4c1.9-1.5,19.1-12.3,19.8-12.7c0.6-0.4,2.2-0.9,2.6-0.9c0.4,0,1.9,0.6,2.6,0.9
						c0.8,0.4,17.9,11.2,19.8,12.7c1.9,1.5,1.9,3.4,1.9,3.4H0.7z"/>
					<path class="st44" d="M0.7,31.3c0,0,0-1.9,1.9-3.4c1.9-1.5,19.1-12.3,19.8-12.7c0.6-0.3,2.2-0.9,2.6-0.9c0.4,0,1.9,0.6,2.6,0.9
						c0.8,0.4,17.9,11.2,19.8,12.7c1.9,1.5,1.9,3.4,1.9,3.4H0.7z"/>
					<path class="st45" d="M0.7,31.3c0,0,0-1.9,1.9-3.4c1.9-1.5,19.1-12.3,19.8-12.7c0.6-0.3,2.2-0.9,2.6-0.9c0.4,0,1.9,0.6,2.6,0.9
						c0.8,0.4,17.9,11.2,19.8,12.7c1.9,1.5,1.9,3.4,1.9,3.4H0.7z"/>
					<path class="st46" d="M0.7,31.3c0,0,0-1.9,1.9-3.4c1.9-1.5,19.1-12.3,19.8-12.7c0.6-0.3,2.2-0.9,2.6-0.9c0.4,0,1.9,0.6,2.6,0.9
						c0.8,0.4,17.9,11.2,19.8,12.7c1.9,1.5,1.9,3.4,1.9,3.4H0.7z"/>
					<path class="st47" d="M0.7,31.4c0,0,0-1.9,1.9-3.4c1.9-1.5,19.1-12.3,19.8-12.7c0.6-0.3,2.2-0.9,2.6-0.9c0.4,0,1.9,0.6,2.6,0.9
						c0.8,0.4,17.9,11.2,19.8,12.7c1.9,1.5,1.9,3.4,1.9,3.4H0.7z"/>
					<path class="st48" d="M0.7,31.4c0,0,0-1.9,1.9-3.4c1.9-1.5,19.1-12.3,19.8-12.7c0.6-0.3,2.2-0.9,2.6-0.9c0.4,0,1.9,0.6,2.6,0.9
						c0.8,0.4,17.9,11.2,19.8,12.7c1.9,1.5,1.9,3.4,1.9,3.4H0.7z"/>
					<path class="st49" d="M0.7,31.4c0,0,0-1.9,1.9-3.4c1.9-1.5,19.1-12.3,19.8-12.7c0.6-0.3,2.2-0.9,2.6-0.9c0.4,0,1.9,0.6,2.6,0.9
						c0.8,0.4,17.9,11.2,19.8,12.7c1.9,1.5,1.9,3.4,1.9,3.4H0.7z"/>
					<path class="st50" d="M0.7,31.4c0,0,0-1.9,1.9-3.4c1.9-1.5,19.1-12.3,19.8-12.7c0.6-0.3,2.2-0.9,2.6-0.9c0.4,0,1.9,0.6,2.6,0.9
						c0.8,0.4,17.9,11.2,19.8,12.7c1.9,1.5,1.9,3.4,1.9,3.4H0.7z"/>
					<path class="st51" d="M0.7,31.4c0,0,0-1.9,1.9-3.4c1.9-1.5,19.1-12.3,19.8-12.7c0.6-0.3,2.2-0.9,2.6-0.9c0.4,0,1.9,0.6,2.6,0.9
						c0.8,0.4,17.9,11.2,19.8,12.7c1.9,1.5,1.9,3.4,1.9,3.4H0.7z"/>
					<path class="st52" d="M0.7,31.5c0,0,0-1.9,1.9-3.4c1.9-1.5,19.1-12.3,19.8-12.7c0.6-0.3,2.2-0.9,2.6-0.9c0.4,0,1.9,0.6,2.6,0.9
						c0.8,0.4,17.9,11.2,19.8,12.7c1.9,1.5,1.9,3.4,1.9,3.4H0.7z"/>
					<path class="st53" d="M0.7,31.5c0,0,0-1.9,1.9-3.4c1.9-1.5,19.1-12.3,19.8-12.7c0.6-0.3,2.2-0.9,2.6-0.9c0.4,0,1.9,0.6,2.6,0.9
						c0.8,0.4,17.9,11.2,19.8,12.7c1.9,1.5,1.9,3.4,1.9,3.4H0.7z"/>
					<path class="st54" d="M0.7,31.5c0,0,0-1.9,1.9-3.4c1.9-1.5,19.1-12.3,19.8-12.7c0.6-0.3,2.2-0.9,2.6-0.9c0.4,0,1.9,0.6,2.6,0.9
						c0.8,0.4,17.9,11.2,19.8,12.7c1.9,1.5,1.9,3.4,1.9,3.4H0.7z"/>
					<path class="st55" d="M0.7,31.5c0,0,0-1.9,1.9-3.4c1.9-1.5,19.1-12.3,19.8-12.7c0.6-0.3,2.2-0.9,2.6-0.9c0.4,0,1.9,0.6,2.6,0.9
						c0.8,0.4,17.9,11.2,19.8,12.7c1.9,1.5,1.9,3.4,1.9,3.4H0.7z"/>
					<path class="st56" d="M0.7,31.5c0,0,0-1.9,1.9-3.4c1.9-1.5,19.1-12.3,19.8-12.7c0.6-0.4,2.2-0.9,2.6-0.9c0.4,0,1.9,0.6,2.6,0.9
						c0.8,0.4,17.9,11.2,19.8,12.7c1.9,1.5,1.9,3.4,1.9,3.4H0.7z"/>
					<path class="st57" d="M0.7,31.6c0,0,0-1.9,1.9-3.4c1.9-1.5,19.1-12.3,19.8-12.7c0.6-0.4,2.2-0.9,2.6-0.9c0.4,0,1.9,0.6,2.6,0.9
						c0.8,0.4,17.9,11.2,19.8,12.7c1.9,1.5,1.9,3.4,1.9,3.4H0.7z"/>
					<path class="st58" d="M0.7,31.6c0,0,0-1.9,1.9-3.4c1.9-1.5,19.1-12.3,19.8-12.7c0.6-0.3,2.2-0.9,2.6-0.9c0.4,0,1.9,0.6,2.6,0.9
						c0.8,0.4,17.9,11.2,19.8,12.7c1.9,1.5,1.9,3.4,1.9,3.4H0.7z"/>
				</g>
				
					<linearGradient id="SVGID_2_" gradientUnits="userSpaceOnUse" x1="14.9132" y1="-197.4928" x2="14.9132" y2="-241.99" gradientTransform="matrix(1 0 0 -1 10.1387 -210.4216)">
					<stop  offset="0" style="stop-color:#D5D5D0"/>
					<stop  offset="0.1161" style="stop-color:#E0E0DA"/>
					<stop  offset="0.3441" style="stop-color:#EFEFE7"/>
					<stop  offset="0.6097" style="stop-color:#F8F8EF"/>
					<stop  offset="1" style="stop-color:#FBFBF1"/>
				</linearGradient>
				<path class="st59" d="M0.7,31.6c0,0,0-1.9,1.9-3.4c1.9-1.5,19.1-12.3,19.8-12.7c0.6-0.3,1.7-0.9,2.6-0.9s1.9,0.6,2.6,0.9
					c0.8,0.4,17.9,11.2,19.8,12.7c1.9,1.5,1.9,3.4,1.9,3.4H0.7z"/>
			</g>
			<g>
				<g>
					<path class="st1" d="M49.5,1.5c0,0,0,3.4-1.9,5c-1.9,1.6-19.1,12.5-19.8,13c-0.6,0.4-2.2,1-2.6,1c-0.4,0-1.9-0.6-2.6-1
						C21.8,19,4.7,8.2,2.7,6.5c-1.9-1.6-1.9-5-1.9-5H49.5z"/>
					<path class="st2" d="M49.5,1.5c0,0,0,3.3-1.9,5c-1.9,1.6-19.1,12.5-19.8,13c-0.6,0.4-2.2,1-2.6,1c-0.4,0-1.9-0.6-2.6-1
						C21.8,19,4.7,8.1,2.7,6.5c-1.9-1.6-1.9-5-1.9-5H49.5z"/>
					<path class="st3" d="M49.5,1.5c0,0,0,3.3-1.9,4.9c-1.9,1.6-19.1,12.5-19.8,13c-0.6,0.4-2.2,1-2.6,1c-0.4,0-1.9-0.6-2.6-1
						C21.8,18.9,4.7,8.1,2.7,6.4C0.8,4.8,0.8,1.5,0.8,1.5H49.5z"/>
					<path class="st4" d="M49.5,1.5c0,0,0,3.3-1.9,4.9C45.6,8,28.5,18.9,27.7,19.3c-0.6,0.4-2.2,1-2.6,1c-0.4,0-1.9-0.6-2.6-1
						C21.8,18.9,4.7,8,2.7,6.4C0.8,4.8,0.8,1.5,0.8,1.5H49.5z"/>
					<path class="st5" d="M49.5,1.5c0,0,0,3.3-1.9,4.9C45.6,8,28.5,18.8,27.7,19.3c-0.6,0.4-2.2,1-2.6,1c-0.4,0-1.9-0.6-2.6-1
						C21.8,18.8,4.7,8,2.7,6.3C0.8,4.7,0.8,1.5,0.8,1.5H49.5z"/>
					<path class="st6" d="M49.5,1.4c0,0,0,3.2-1.9,4.9c-1.9,1.6-19.1,12.5-19.8,12.9c-0.6,0.4-2.2,1-2.6,1c-0.4,0-1.9-0.6-2.6-1
						C21.8,18.8,4.7,7.9,2.7,6.3C0.8,4.7,0.8,1.4,0.8,1.4H49.5z"/>
					<path class="st7" d="M49.5,1.4c0,0,0,3.2-1.9,4.8c-1.9,1.6-19.1,12.5-19.8,12.9c-0.6,0.4-2.2,1-2.6,1c-0.4,0-1.9-0.6-2.6-1
						C21.8,18.7,4.7,7.9,2.7,6.3C0.8,4.6,0.8,1.4,0.8,1.4H49.5z"/>
					<path class="st8" d="M49.5,1.4c0,0,0,3.2-1.9,4.8c-1.9,1.6-19.1,12.5-19.8,12.9c-0.6,0.4-2.2,1-2.6,1c-0.4,0-1.9-0.6-2.6-1
						C21.8,18.7,4.7,7.8,2.7,6.2C0.8,4.6,0.8,1.4,0.8,1.4H49.5z"/>
					<path class="st9" d="M49.5,1.4c0,0,0,3.2-1.9,4.8c-1.9,1.6-19.1,12.5-19.8,12.9c-0.6,0.4-2.2,1-2.6,1c-0.4,0-1.9-0.6-2.6-1
						C21.8,18.6,4.7,7.8,2.7,6.2C0.8,4.5,0.8,1.4,0.8,1.4H49.5z"/>
					<path class="st10" d="M49.5,1.4c0,0,0,3.1-1.9,4.8C45.6,7.7,28.4,18.6,27.7,19c-0.6,0.4-2.2,1-2.6,1c-0.4,0-1.9-0.6-2.6-1
						C21.8,18.6,4.6,7.7,2.7,6.1C0.8,4.5,0.8,1.4,0.8,1.4H49.5z"/>
					<path class="st11" d="M49.5,1.4c0,0,0,3.1-1.9,4.7C45.6,7.7,28.4,18.5,27.7,19c-0.6,0.4-2.2,1-2.6,1c-0.4,0-1.9-0.6-2.6-1
						C21.8,18.5,4.6,7.7,2.7,6.1C0.8,4.5,0.8,1.4,0.8,1.4H49.5z"/>
					<path class="st12" d="M49.5,1.3c0,0,0,3.1-1.9,4.7c-1.9,1.6-19.1,12.5-19.8,12.9c-0.6,0.4-2.2,1-2.6,1c-0.4,0-1.9-0.6-2.6-1
						C21.8,18.5,4.6,7.6,2.7,6C0.8,4.4,0.8,1.3,0.8,1.3H49.5z"/>
					<path class="st13" d="M49.5,1.3c0,0,0,3.1-1.9,4.7c-1.9,1.6-19.1,12.5-19.8,12.9c-0.6,0.4-2.2,1-2.6,1c-0.4,0-1.9-0.6-2.6-1
						C21.8,18.4,4.6,7.6,2.7,6C0.8,4.4,0.8,1.3,0.8,1.3H49.5z"/>
					<path class="st14" d="M49.5,1.3c0,0,0,3-1.9,4.6c-1.9,1.6-19.1,12.5-19.8,12.9c-0.6,0.4-2.2,1-2.6,1c-0.4,0-1.9-0.6-2.6-1
						C21.8,18.4,4.6,7.6,2.7,5.9C0.8,4.3,0.8,1.3,0.8,1.3H49.5z"/>
					<path class="st15" d="M49.4,1.3c0,0,0,3-1.9,4.6c-1.9,1.6-19.1,12.4-19.8,12.9c-0.6,0.4-2.2,1-2.6,1c-0.4,0-1.9-0.6-2.6-1
						C21.8,18.3,4.6,7.5,2.7,5.9C0.8,4.3,0.8,1.3,0.8,1.3H49.4z"/>
					<path class="st16" d="M49.4,1.3c0,0,0,3-1.9,4.6c-1.9,1.6-19.1,12.4-19.8,12.9c-0.6,0.4-2.2,1-2.6,1c-0.4,0-1.9-0.6-2.6-1
						C21.8,18.3,4.6,7.5,2.7,5.8C0.8,4.2,0.8,1.3,0.8,1.3H49.4z"/>
					<path class="st17" d="M49.4,1.2c0,0,0,3-1.9,4.6c-1.9,1.6-19.1,12.4-19.8,12.9c-0.6,0.4-2.2,1-2.6,1c-0.4,0-1.9-0.6-2.6-1
						C21.8,18.2,4.6,7.4,2.7,5.8C0.8,4.2,0.8,1.2,0.8,1.2H49.4z"/>
					<path class="st18" d="M49.4,1.2c0,0,0,2.9-1.9,4.5c-1.9,1.6-19.1,12.4-19.8,12.9c-0.6,0.4-2.2,1-2.6,1c-0.4,0-1.9-0.6-2.6-1
						C21.8,18.2,4.6,7.4,2.7,5.8C0.8,4.2,0.8,1.2,0.8,1.2H49.4z"/>
					<path class="st19" d="M49.4,1.2c0,0,0,2.9-1.9,4.5c-1.9,1.6-19.1,12.4-19.8,12.9c-0.6,0.4-2.2,1-2.6,1c-0.4,0-1.9-0.6-2.6-1
						C21.8,18.1,4.6,7.3,2.7,5.7C0.7,4.1,0.7,1.2,0.7,1.2H49.4z"/>
					<path class="st20" d="M49.4,1.2c0,0,0,2.9-1.9,4.5c-1.9,1.6-19.1,12.4-19.8,12.9c-0.6,0.4-2.2,1-2.6,1c-0.4,0-1.9-0.6-2.6-1
						C21.8,18.1,4.6,7.3,2.7,5.7C0.7,4.1,0.7,1.2,0.7,1.2H49.4z"/>
					<path class="st21" d="M49.4,1.2c0,0,0,2.9-1.9,4.5C45.6,7.2,28.4,18,27.6,18.5c-0.6,0.4-2.2,1-2.6,1c-0.4,0-1.9-0.6-2.6-1
						C21.8,18,4.6,7.2,2.7,5.6C0.7,4,0.7,1.2,0.7,1.2H49.4z"/>
					<path class="st22" d="M49.4,1.1c0,0,0,2.8-1.9,4.4C45.6,7.2,28.4,18,27.6,18.4c-0.6,0.4-2.2,1-2.6,1c-0.4,0-1.9-0.6-2.6-1
						C21.8,18,4.6,7.2,2.7,5.6C0.7,4,0.7,1.1,0.7,1.1H49.4z"/>
					<path class="st23" d="M49.4,1.1c0,0,0,2.8-1.9,4.4c-1.9,1.6-19.1,12.4-19.8,12.9c-0.6,0.4-2.2,1-2.6,1c-0.4,0-1.9-0.6-2.6-1
						C21.8,17.9,4.6,7.1,2.7,5.5C0.7,3.9,0.7,1.1,0.7,1.1H49.4z"/>
					<path class="st24" d="M49.4,1.1c0,0,0,2.8-1.9,4.4c-1.9,1.6-19.1,12.4-19.8,12.9c-0.6,0.4-2.2,1-2.6,1c-0.4,0-1.9-0.6-2.6-1
						C21.8,17.9,4.6,7.1,2.7,5.5C0.7,3.9,0.7,1.1,0.7,1.1H49.4z"/>
					<path class="st25" d="M49.4,1.1c0,0,0,2.8-1.9,4.3C45.5,7,28.4,17.8,27.6,18.3c-0.6,0.4-2.2,1-2.6,1c-0.4,0-1.9-0.6-2.6-1
						C21.7,17.8,4.6,7,2.7,5.4C0.7,3.8,0.7,1.1,0.7,1.1H49.4z"/>
					<path class="st26" d="M49.4,1.1c0,0,0,2.7-1.9,4.3C45.5,7,28.4,17.8,27.6,18.2c-0.6,0.4-2.2,1-2.6,1c-0.4,0-1.9-0.6-2.6-1
						C21.7,17.8,4.6,7,2.7,5.4C0.7,3.8,0.7,1.1,0.7,1.1H49.4z"/>
					<path class="st27" d="M49.4,1.1c0,0,0,2.7-1.9,4.3c-1.9,1.6-19.1,12.4-19.8,12.8c-0.6,0.4-2.2,1-2.6,1c-0.4,0-1.9-0.6-2.6-1
						C21.7,17.7,4.6,6.9,2.7,5.3C0.7,3.8,0.7,1.1,0.7,1.1H49.4z"/>
					<path class="st28" d="M49.4,1c0,0,0,2.7-1.9,4.3c-1.9,1.6-19.1,12.4-19.8,12.8c-0.6,0.4-2.2,1-2.6,1c-0.4,0-1.9-0.6-2.6-1
						C21.7,17.7,4.6,6.9,2.6,5.3C0.7,3.7,0.7,1,0.7,1H49.4z"/>
					<path class="st29" d="M49.4,1c0,0,0,2.7-1.9,4.2c-1.9,1.6-19.1,12.4-19.8,12.8c-0.6,0.4-2.2,1-2.6,1c-0.4,0-1.9-0.6-2.6-1
						C21.7,17.7,4.6,6.8,2.6,5.3C0.7,3.7,0.7,1,0.7,1H49.4z"/>
					<path class="st30" d="M49.4,1c0,0,0,2.6-1.9,4.2C45.5,6.8,28.4,17.6,27.6,18c-0.6,0.4-2.2,1-2.6,1c-0.4,0-1.9-0.6-2.6-1
						C21.7,17.6,4.6,6.8,2.6,5.2C0.7,3.6,0.7,1,0.7,1H49.4z"/>
					<path class="st31" d="M49.4,1c0,0,0,2.6-1.9,4.2C45.5,6.7,28.4,17.6,27.6,18c-0.6,0.4-2.2,1-2.6,1c-0.4,0-1.9-0.6-2.6-1
						C21.7,17.6,4.6,6.7,2.6,5.2C0.7,3.6,0.7,1,0.7,1H49.4z"/>
					<path class="st32" d="M49.4,1c0,0,0,2.6-1.9,4.2c-1.9,1.6-19.1,12.4-19.8,12.8c-0.6,0.4-2.2,1-2.6,1c-0.4,0-1.9-0.6-2.6-1
						C21.7,17.5,4.6,6.7,2.6,5.1C0.7,3.5,0.7,1,0.7,1H49.4z"/>
					<path class="st33" d="M49.4,0.9c0,0,0,2.6-1.9,4.1c-1.9,1.6-19.1,12.4-19.8,12.8c-0.6,0.4-2.2,1-2.6,1c-0.4,0-1.9-0.6-2.6-1
						C21.7,17.5,4.6,6.6,2.6,5.1C0.7,3.5,0.7,0.9,0.7,0.9H49.4z"/>
					<path class="st34" d="M49.4,0.9c0,0,0,2.5-1.9,4.1c-1.9,1.6-19.1,12.4-19.8,12.8c-0.6,0.4-2.2,1-2.6,1c-0.4,0-1.9-0.6-2.6-1
						C21.7,17.4,4.6,6.6,2.6,5C0.7,3.5,0.7,0.9,0.7,0.9H49.4z"/>
					<path class="st35" d="M49.4,0.9c0,0,0,2.5-1.9,4.1c-1.9,1.6-19.1,12.4-19.8,12.8c-0.6,0.4-2.2,1-2.6,1c-0.4,0-1.9-0.6-2.6-1
						C21.7,17.4,4.6,6.6,2.6,5C0.7,3.4,0.7,0.9,0.7,0.9H49.4z"/>
					<path class="st36" d="M49.4,0.9c0,0,0,2.5-1.9,4c-1.9,1.6-19.1,12.4-19.8,12.8c-0.6,0.4-2.2,0.9-2.6,0.9
						c-0.4,0-1.9-0.6-2.6-0.9C21.7,17.3,4.6,6.5,2.6,4.9c-1.9-1.6-1.9-4-1.9-4H49.4z"/>
					<path class="st37" d="M49.4,0.9c0,0,0,2.5-1.9,4c-1.9,1.6-19.1,12.4-19.8,12.8C27,18,25.4,18.6,25,18.6c-0.4,0-1.9-0.6-2.6-0.9
						C21.7,17.3,4.5,6.5,2.6,4.9c-1.9-1.6-1.9-4-1.9-4H49.4z"/>
					<path class="st38" d="M49.4,0.9c0,0,0,2.4-1.9,4c-1.9,1.6-19.1,12.4-19.8,12.8C27,18,25.4,18.6,25,18.6c-0.4,0-1.9-0.6-2.6-0.9
						C21.7,17.2,4.5,6.4,2.6,4.8c-1.9-1.6-1.9-4-1.9-4H49.4z"/>
					<path class="st39" d="M49.4,0.8c0,0,0,2.4-1.9,4c-1.9,1.6-19.1,12.4-19.8,12.8c-0.6,0.4-2.2,0.9-2.6,0.9
						c-0.4,0-1.9-0.6-2.6-0.9C21.7,17.2,4.5,6.4,2.6,4.8c-1.9-1.6-1.9-4-1.9-4H49.4z"/>
					<path class="st40" d="M49.4,0.8c0,0,0,2.4-1.9,3.9c-1.9,1.6-19.1,12.3-19.8,12.8c-0.6,0.4-2.2,0.9-2.6,0.9
						c-0.4,0-1.9-0.6-2.6-0.9C21.7,17.1,4.5,6.3,2.6,4.8C0.7,3.2,0.7,0.8,0.7,0.8H49.4z"/>
					<path class="st41" d="M49.4,0.8c0,0,0,2.4-1.9,3.9c-1.9,1.6-19.1,12.3-19.8,12.8c-0.6,0.4-2.2,0.9-2.6,0.9
						c-0.4,0-1.9-0.6-2.6-0.9C21.7,17.1,4.5,6.3,2.6,4.7C0.7,3.2,0.7,0.8,0.7,0.8H49.4z"/>
					<path class="st42" d="M49.3,0.8c0,0,0,2.3-1.9,3.9C45.5,6.2,28.3,17,27.6,17.4c-0.6,0.4-2.2,0.9-2.6,0.9
						c-0.4,0-1.9-0.6-2.6-0.9C21.7,17,4.5,6.2,2.6,4.7C0.7,3.1,0.7,0.8,0.7,0.8H49.3z"/>
					<path class="st43" d="M49.3,0.8c0,0,0,2.3-1.9,3.9C45.5,6.2,28.3,17,27.6,17.4c-0.6,0.4-2.2,0.9-2.6,0.9
						c-0.4,0-1.9-0.6-2.6-0.9C21.7,17,4.5,6.2,2.6,4.6C0.7,3.1,0.7,0.8,0.7,0.8H49.3z"/>
					<path class="st44" d="M49.3,0.7c0,0,0,2.3-1.9,3.8c-1.9,1.5-19.1,12.3-19.8,12.8c-0.6,0.4-2.2,0.9-2.6,0.9
						c-0.4,0-1.9-0.6-2.6-0.9C21.7,16.9,4.5,6.1,2.6,4.6C0.7,3,0.7,0.7,0.7,0.7H49.3z"/>
					<path class="st45" d="M49.3,0.7c0,0,0,2.3-1.9,3.8c-1.9,1.5-19.1,12.3-19.8,12.8c-0.6,0.4-2.2,0.9-2.6,0.9
						c-0.4,0-1.9-0.6-2.6-0.9C21.7,16.9,4.5,6.1,2.6,4.5C0.7,3,0.7,0.7,0.7,0.7H49.3z"/>
					<path class="st46" d="M49.3,0.7c0,0,0,2.2-1.9,3.8C45.5,6,28.3,16.8,27.6,17.2c-0.6,0.4-2.2,0.9-2.6,0.9
						c-0.4,0-1.9-0.6-2.6-0.9C21.7,16.8,4.5,6,2.6,4.5C0.6,2.9,0.6,0.7,0.6,0.7H49.3z"/>
					<path class="st47" d="M49.3,0.7c0,0,0,2.2-1.9,3.7C45.5,6,28.3,16.8,27.6,17.2c-0.6,0.4-2.2,0.9-2.6,0.9
						c-0.4,0-1.9-0.6-2.6-0.9C21.7,16.8,4.5,6,2.6,4.4C0.6,2.9,0.6,0.7,0.6,0.7H49.3z"/>
					<path class="st48" d="M49.3,0.7c0,0,0,2.2-1.9,3.7c-1.9,1.5-19.1,12.3-19.8,12.7c-0.6,0.4-2.2,0.9-2.6,0.9
						c-0.4,0-1.9-0.6-2.6-0.9C21.7,16.7,4.5,5.9,2.6,4.4C0.6,2.9,0.6,0.7,0.6,0.7H49.3z"/>
					<path class="st49" d="M49.3,0.7c0,0,0,2.2-1.9,3.7c-1.9,1.5-19.1,12.3-19.8,12.7C26.9,17.4,25.4,18,25,18
						c-0.4,0-1.9-0.6-2.6-0.9C21.7,16.7,4.5,5.9,2.6,4.3C0.6,2.8,0.6,0.7,0.6,0.7H49.3z"/>
					<path class="st50" d="M49.3,0.6c0,0,0,2.1-1.9,3.7C45.5,5.8,28.3,16.6,27.5,17C26.9,17.4,25.4,18,25,18c-0.4,0-1.9-0.6-2.6-0.9
						C21.7,16.6,4.5,5.8,2.6,4.3C0.6,2.8,0.6,0.6,0.6,0.6H49.3z"/>
					<path class="st51" d="M49.3,0.6c0,0,0,2.1-1.9,3.6C45.4,5.8,28.3,16.6,27.5,17c-0.6,0.4-2.2,0.9-2.6,0.9
						c-0.4,0-1.9-0.6-2.6-0.9C21.7,16.6,4.5,5.8,2.6,4.3C0.6,2.7,0.6,0.6,0.6,0.6H49.3z"/>
					<path class="st52" d="M49.3,0.6c0,0,0,2.1-1.9,3.6c-1.9,1.5-19.1,12.3-19.8,12.7c-0.6,0.4-2.2,0.9-2.6,0.9
						c-0.4,0-1.9-0.6-2.6-0.9C21.6,16.5,4.5,5.7,2.6,4.2C0.6,2.7,0.6,0.6,0.6,0.6H49.3z"/>
					<path class="st53" d="M49.3,0.6c0,0,0,2.1-1.9,3.6c-1.9,1.5-19.1,12.3-19.8,12.7c-0.6,0.4-2.2,0.9-2.6,0.9
						c-0.4,0-1.9-0.6-2.6-0.9C21.6,16.5,4.5,5.7,2.6,4.2C0.6,2.6,0.6,0.6,0.6,0.6H49.3z"/>
					<path class="st54" d="M49.3,0.6c0,0,0,2-1.9,3.6c-1.9,1.5-19.1,12.3-19.8,12.7c-0.6,0.4-2.2,0.9-2.6,0.9
						c-0.4,0-1.9-0.6-2.6-0.9C21.6,16.4,4.5,5.6,2.6,4.1C0.6,2.6,0.6,0.6,0.6,0.6H49.3z"/>
					<path class="st55" d="M49.3,0.5c0,0,0,2-1.9,3.5c-1.9,1.5-19.1,12.3-19.8,12.7c-0.6,0.4-2.2,0.9-2.6,0.9
						c-0.4,0-1.9-0.6-2.6-0.9C21.6,16.4,4.5,5.6,2.5,4.1C0.6,2.6,0.6,0.5,0.6,0.5H49.3z"/>
					<path class="st56" d="M49.3,0.5c0,0,0,2-1.9,3.5c-1.9,1.5-19.1,12.3-19.8,12.7c-0.6,0.4-2.2,0.9-2.6,0.9
						c-0.4,0-1.9-0.6-2.6-0.9C21.6,16.3,4.5,5.5,2.5,4C0.6,2.5,0.6,0.5,0.6,0.5H49.3z"/>
					<path class="st57" d="M49.3,0.5c0,0,0,2-1.9,3.5c-1.9,1.5-19.1,12.3-19.8,12.7c-0.6,0.4-2.2,0.9-2.6,0.9
						c-0.4,0-1.9-0.6-2.6-0.9C21.6,16.3,4.5,5.5,2.5,4C0.6,2.5,0.6,0.5,0.6,0.5H49.3z"/>
					<path class="st58" d="M49.3,0.5c0,0,0,1.9-1.9,3.4c-1.9,1.5-19.1,12.3-19.8,12.7c-0.6,0.4-2.2,0.9-2.6,0.9
						c-0.4,0-1.9-0.6-2.6-0.9C21.6,16.2,4.5,5.5,2.5,3.9C0.6,2.4,0.6,0.5,0.6,0.5H49.3z"/>
				</g>
				
					<linearGradient id="SVGID_3_" gradientUnits="userSpaceOnUse" x1="-1724.8868" y1="102.2283" x2="-1724.8868" y2="57.7309" gradientTransform="matrix(-1 0 0 1 -1699.9391 -57.2393)">
					<stop  offset="0" style="stop-color:#D5D5D0"/>
					<stop  offset="0.1161" style="stop-color:#E0E0DA"/>
					<stop  offset="0.3441" style="stop-color:#EFEFE7"/>
					<stop  offset="0.6097" style="stop-color:#F8F8EF"/>
					<stop  offset="1" style="stop-color:#FBFBF1"/>
				</linearGradient>
				<path class="st60" d="M49.3,0.5c0,0,0,1.9-1.9,3.4c-1.9,1.5-19.1,12.3-19.8,12.7c-0.6,0.4-1.7,0.9-2.6,0.9
					c-0.8,0-1.9-0.6-2.6-0.9C21.6,16.2,4.5,5.5,2.5,3.9C0.6,2.4,0.6,0.5,0.6,0.5H49.3z"/>
			</g>
		</g>
	</g>
</g>
<g id="圖層_2">
</g>
<g id="圖層_3">
</g>
<g id="圖層_4">
</g>
</svg>
