<?xml version="1.0" encoding="utf-8"?>
<!-- Generator: Adobe Illustrator 25.3.1, SVG Export Plug-In . SVG Version: 6.00 Build 0)  -->
<svg version="1.1" id="mailbox" xmlns="http://www.w3.org/2000/svg" xmlns:xlink="http://www.w3.org/1999/xlink" x="0px" y="0px"
	 viewBox="0 0 257.6 282" style="enable-background:new 0 0 257.6 282;" xml:space="preserve">
<style type="text/css">
	.st0{fill:#6B00C9;}
	.st1{fill:#E6D2FC;}
	.st2{opacity:0.41;fill:#6B00C9;}
	.st3{opacity:0.33;fill:#6B00C9;}
	.st4{fill:#ECBE3E;}
	.st5{fill:#B38E18;}
	.st6{fill:#C4C4C4;}
	.st7{fill:#FFFFFF;}
	.st8{fill:#73D600;}
	.st9{fill:#D09D00;}
	.st10{fill:#EA6B3F;}
</style>
<path class="st0" d="M197.4,29.7H75v113.2h165.9V91.1C240.9,51.3,219.1,29.7,197.4,29.7z"/>
<path class="st1" d="M75,29.7c-21.7,0-43.5,21.6-43.5,61.3v51.9h86.9V91.1C118.5,51.3,96.7,29.7,75,29.7z"/>
<path class="st2" d="M36.1,142.9V91.1c0-37.3,19.6-56.8,38.9-56.8s38.9,19.5,38.9,56.8v51.9H36.1z"/>
<path class="st3" d="M89.5,38c-13.5,7.3-24.4,25.2-24.4,53v51.9h48.8V91.1C113.9,63.3,103.1,45.4,89.5,38z"/>
<path class="st4" d="M22.5,142.9c-2.5,0-4.5,2-4.5,4.5v1.8c0,2.5,2,4.5,4.5,4.5h96v-10.9H22.5z"/>
<path class="st5" d="M253.1,142.9H118.5v10.9h134.6c2.5,0,4.5-2,4.5-4.5v-1.8C257.6,144.9,255.6,142.9,253.1,142.9z"/>
<g>
	<path class="st6" d="M135.6,5h0.9c1.6,0,2.8,1.6,2.8,3.5v84.1c0,1.9-1.3,3.5-2.8,3.5h-0.9c-1.6,0-2.8-1.6-2.8-3.5V8.5
		C132.7,6.6,134,5,135.6,5z"/>
	<circle class="st6" cx="136" cy="91.8" r="9.9"/>
	<circle class="st7" cx="136" cy="91.8" r="4.3"/>
	<polygon class="st8" points="166.3,5 138.4,5 138.4,14 138.4,23.1 166.3,23.1 152.4,14 	"/>
</g>
<path class="st0" d="M31.5,142.9H11.3c-6,0-4.8-13.9-4.8-13.9h107.5v13.9H31.5z"/>
<g>
	<polygon class="st9" points="159.4,153.8 144,153.8 144,276 146.2,276.7 145.8,277.8 159.4,277.8 	"/>
	<polygon class="st4" points="144,153.8 128.4,153.8 128.4,272.6 144,277.8 	"/>
	<polygon class="st10" points="144,276 144,277.8 145.8,277.8 146.2,276.7 	"/>
</g>
<g>
	<path class="st7" d="M153.7,61.8v2.6h-7.5V53.8h3.3v8H153.7z"/>
	<path class="st7" d="M160.7,64.4l-0.6-2.1h-2.9l-0.6,2.1h-2.7l3.3-10.7h3.5l3.3,10.7H160.7z M157.8,60h1.7l-0.9-3.1L157.8,60z"/>
	<path class="st7" d="M173.6,53.8l-3.3,10.7H167l-3.5-10.7h3.4l1.7,5.8c0.1,0.3,0.2,0.7,0.3,1l2-6.8H173.6z"/>
	<path class="st7" d="M182.6,61.9v2.5h-8V53.8h8v2.5h-4.8v1.5h3.9v2.4h-3.9v1.7H182.6z"/>
	<path class="st7" d="M193,64.4h-2.7l-2.9-4.7c-0.4-0.6-0.8-1.3-1.1-2.2c0.2,0.7,0.3,1.3,0.3,1.8v5.2h-2.7V53.8h3.1l2.5,3.9
		c0.5,0.8,0.9,1.5,1.1,2c-0.2-0.9-0.2-1.8-0.2-2.8v-3.2h2.7V64.4z"/>
	<path class="st7" d="M194.9,64.4V53.8h4.1c1.8,0,3.1,0.5,4,1.6s1.3,2.3,1.3,3.7c0,1.6-0.5,2.9-1.4,3.9c-1,1-2.2,1.5-3.7,1.5H194.9z
		 M198.2,62h0.9c0.5,0,1-0.3,1.4-0.8c0.4-0.5,0.6-1.2,0.6-2.1c0-0.8-0.2-1.4-0.5-2s-0.8-0.8-1.4-0.8h-0.9V62z"/>
	<path class="st7" d="M213.8,61.9v2.5h-8V53.8h8v2.5H209v1.5h3.9v2.4H209v1.7H213.8z"/>
	<path class="st7" d="M224.6,64.4h-3.6l-1.6-4.1h-1v4.1h-3.3V53.8h5.6c1.2,0,2.2,0.3,2.9,0.9c0.7,0.6,1,1.3,1,2.3
		c0,0.6-0.1,1.2-0.4,1.6c-0.2,0.5-0.8,0.9-1.5,1.2L224.6,64.4z M218.4,58.1h1.4c0.4,0,0.7-0.1,1-0.3s0.4-0.4,0.4-0.8
		c0-0.7-0.4-1-1.3-1h-1.5V58.1z"/>
	<path class="st7" d="M172.9,79.7h-3.5v4h-3.2V73h7.7v2.5h-4.5v1.7h3.5V79.7z"/>
	<path class="st7" d="M179.5,83.8c-1.5,0-2.7-0.5-3.7-1.5c-0.9-1-1.4-2.3-1.4-4c0-1.6,0.5-2.9,1.4-3.9s2.2-1.6,3.8-1.6
		c1.5,0,2.7,0.5,3.6,1.5c0.9,1,1.4,2.3,1.4,3.9c0,1.7-0.5,3-1.4,4.1C182.2,83.3,181,83.8,179.5,83.8z M179.5,81.4
		c0.6,0,0.9-0.2,1.2-0.7c0.2-0.5,0.4-1.4,0.4-2.6c0-1.9-0.5-2.8-1.5-2.8c-1.1,0-1.6,1.1-1.6,3.2C177.9,80.4,178.4,81.4,179.5,81.4z"
		/>
	<path class="st7" d="M195.4,83.6h-3.6l-1.6-4.1h-1v4.1h-3.3V73h5.6c1.2,0,2.2,0.3,2.9,0.9c0.7,0.6,1,1.3,1,2.3
		c0,0.6-0.1,1.2-0.4,1.6c-0.2,0.5-0.8,0.9-1.5,1.2L195.4,83.6z M189.2,77.3h1.4c0.4,0,0.7-0.1,1-0.3s0.4-0.4,0.4-0.8
		c0-0.7-0.4-1-1.3-1h-1.5V77.3z"/>
	<path class="st7" d="M205,81.1v2.5h-8V73h8v2.5h-4.8V77h3.9v2.4h-3.9v1.7H205z"/>
	<path class="st7" d="M205.2,80.6l3-0.5c0.3,0.9,0.9,1.3,2,1.3c0.8,0,1.2-0.2,1.2-0.7c0-0.2-0.1-0.4-0.3-0.5c-0.2-0.1-0.5-0.2-1-0.3
		c-1.9-0.4-3.1-0.8-3.6-1.4c-0.5-0.6-0.8-1.3-0.8-2c0-1,0.4-1.8,1.1-2.5c0.8-0.7,1.9-1,3.3-1c2.2,0,3.6,0.9,4.3,2.6l-2.7,0.8
		c-0.3-0.7-0.9-1.1-1.7-1.1c-0.7,0-1.1,0.2-1.1,0.7c0,0.2,0.1,0.4,0.2,0.5s0.5,0.2,0.9,0.3c1.3,0.3,2.2,0.5,2.7,0.7
		c0.5,0.2,1,0.6,1.3,1.1c0.4,0.5,0.5,1.1,0.5,1.8c0,1.1-0.4,2-1.3,2.6c-0.9,0.7-2,1-3.4,1C207.4,83.8,205.8,82.7,205.2,80.6z"/>
	<path class="st7" d="M225.5,83.6h-3.6l-1.6-4.1h-1v4.1H216V73h5.6c1.2,0,2.2,0.3,2.9,0.9c0.7,0.6,1,1.3,1,2.3
		c0,0.6-0.1,1.2-0.4,1.6c-0.2,0.5-0.8,0.9-1.5,1.2L225.5,83.6z M219.3,77.3h1.4c0.4,0,0.7-0.1,1-0.3s0.4-0.4,0.4-0.8
		c0-0.7-0.4-1-1.3-1h-1.5V77.3z"/>
	<path class="st7" d="M231.5,75.5v8.1h-3.1v-8.1h-2.2V73h7.5v2.6H231.5z"/>
	<path class="st7" d="M157.8,111.4V122h-3v-7.6l-2,7.6h-2.1l-2.1-7.6v7.6h-2.5v-10.7h4.3l1.5,5.7l1.5-5.7H157.8z"/>
	<path class="st7" d="M165.5,122l-0.6-2.1h-2.9l-0.6,2.1h-2.7l3.3-10.7h3.5l3.3,10.7H165.5z M162.6,117.6h1.7l-0.9-3.1L162.6,117.6z
		"/>
	<path class="st7" d="M173.1,111.4V122h-3.3v-10.7H173.1z"/>
	<path class="st7" d="M182.5,119.4v2.6H175v-10.7h3.3v8H182.5z"/>
	<path class="st7" d="M183.6,122v-10.7h5.4c1.1,0,1.9,0.3,2.5,0.9c0.5,0.6,0.8,1.2,0.8,1.9c0,0.5-0.1,1-0.4,1.4s-0.7,0.7-1.3,0.9
		c1.4,0.3,2.1,1.2,2.1,2.5c0,0.8-0.2,1.5-0.7,2.1c-0.5,0.6-1.5,0.9-3.1,0.9H183.6z M186.6,115.5h1.5c0.4,0,0.6-0.1,0.8-0.3
		c0.2-0.2,0.2-0.4,0.2-0.6c0-0.6-0.4-0.9-1.1-0.9h-1.5V115.5z M186.6,119.7h1.6c0.4,0,0.7-0.1,0.9-0.3s0.3-0.4,0.3-0.7
		c0-0.2-0.1-0.5-0.3-0.7c-0.2-0.2-0.5-0.3-1-0.3h-1.5V119.7z"/>
	<path class="st7" d="M198.5,122.2c-1.5,0-2.7-0.5-3.7-1.5c-0.9-1-1.4-2.3-1.4-4c0-1.6,0.5-2.9,1.4-3.9s2.2-1.6,3.8-1.6
		c1.5,0,2.7,0.5,3.6,1.5c0.9,1,1.4,2.3,1.4,3.9c0,1.7-0.5,3-1.4,4.1C201.2,121.7,200,122.2,198.5,122.2z M198.5,119.8
		c0.6,0,0.9-0.2,1.2-0.7c0.2-0.5,0.4-1.4,0.4-2.6c0-1.9-0.5-2.8-1.5-2.8c-1.1,0-1.6,1.1-1.6,3.2
		C196.9,118.8,197.5,119.8,198.5,119.8z"/>
	<path class="st7" d="M213.7,111.4l-3.1,4.9l3.6,5.7h-3.8l-2-3.4l-2,3.4h-3l3.4-5.5l-3.3-5.2h3.8l1.7,2.9l1.7-2.9H213.7z"/>
</g>
</svg>
