<?xml version="1.0" encoding="utf-8"?>
<!-- Generator: Adobe Illustrator 25.2.1, SVG Export Plug-In . SVG Version: 6.00 Build 0)  -->
<svg version="1.1" id="圖層_1" xmlns="http://www.w3.org/2000/svg" xmlns:xlink="http://www.w3.org/1999/xlink" x="0px" y="0px"
	 viewBox="0 0 1920 1080" style="enable-background:new 0 0 1920 1080;" xml:space="preserve">
<style type="text/css">
	.st0{fill:none;}
</style>
<path class="st0" d="M195.5,241.1c0,0,214.8-182.7,324.7-40.7s13.6,287.7-88.9,274.1c-102.5-13.6-88.9-134.6-27.2-150.6
	s102.5,0,117.3,38.3c14.8,38.3-1.2,144.4-1.2,144.4s-76.5,285.2,67.9,338.3S944.9,858.4,877,669.5s-259.3,0-195.1,66.7
	s253.1,44.4,313.6-24.7S960.9,496.6,1198,462.1s391.4,206.2,323.5,329.6s-142,119.8-165.4,116c-23.5-3.7-137-67.9-61.7-163
	s198.8,0,198.8,0s86.4,69.1,88.9,185.2s163,111.1,163,111.1"/>
</svg>
