<svg id="圖層_1" data-name="圖層 1" xmlns="http://www.w3.org/2000/svg" viewBox="0 0 53.04 10.52"><defs><style>.cls-1{fill:#fff;}</style></defs><path class="cls-1" d="M4.13,10.17A29.57,29.57,0,0,1,.78,11.65l-.28-1a13.4,13.4,0,0,0,1.31-.5V5.72H.66v-1H1.81V2H2.88V4.72H4v1H2.88V9.64A10.3,10.3,0,0,0,4,9.08Zm6.93-.05a3.72,3.72,0,0,1-.31,1.62,1.19,1.19,0,0,1-.92.51c-.44.05-1.23.08-2.35.08-.88,0-1.49,0-1.81-.05a1.08,1.08,0,0,1-.75-.36A1.35,1.35,0,0,1,4.65,11V7.18l-.83.33L3.69,6.43l1-.39V3.35h1V5.59L7.1,5V2H8.15V4.61l2.49-1a29.12,29.12,0,0,1-.51,5.24l-1-.31a22.06,22.06,0,0,0,.44-3.36l-1.4.56v4.5H7.1V6.16l-1.4.57V10.9c0,.23.08.36.25.39s.73,0,1.65,0,1.57,0,1.86,0a.48.48,0,0,0,.5-.42A9.45,9.45,0,0,0,10,9.73Z" transform="translate(-0.5 -1.94)"/><path class="cls-1" d="M25,12.46H23.91v-.63H16.4v.6h-1V2.14H25Zm-1.06-1.57V3.07H16.4v7.82Zm-.38-4.53H16.79V5.62h2.87v-.4H17.27V3.46h5.78V5.22H20.67v.4h2.86Zm-.34,4.14H17.13V6.76h6.06Zm-1-.71V7.48h-4V9.79ZM22,4.58V4.1H18.3v.48Zm-.46,4.84H18.78V7.85h2.77Zm-.9-.58V8.42h-1v.42Z" transform="translate(-0.5 -1.94)"/><path class="cls-1" d="M33.23,7.18l-1.41.63v3.55c0,.69-.48,1-1.43,1l-.63,0-.31-1.06,1,0a.33.33,0,0,0,.22-.09.24.24,0,0,0,.11-.2V8.26c-.48.19-.91.34-1.27.46l-.28-1c.77-.27,1.29-.46,1.55-.57V4.87H29.33v-1H30.8V1.94h1V3.85h1.24v1H31.82V6.7c.38-.15.8-.33,1.25-.55Zm6.55-1h-5.1a1,1,0,0,1-.82-.33,1.38,1.38,0,0,1-.29-.91V2h1v.92h4.67v1H34.61v.81a.38.38,0,0,0,.43.43h4.74ZM39.2,12.4h-1v-.58l-3.46,0v.61H33.65V7H39.2Zm-1-3.48V8H34.7v.92Zm0,1.93v-1H34.7v1Z" transform="translate(-0.5 -1.94)"/><path class="cls-1" d="M50,7.37Q49.83,9,49.68,10.1a5.24,5.24,0,0,1-.31,1.4,1.44,1.44,0,0,1-.5.55,2.07,2.07,0,0,1-.67.3,11.78,11.78,0,0,1-1.75.07q-.87,0-1.47,0l-.38-1.08,2.89.09a.91.91,0,0,0,.94-.54,11.93,11.93,0,0,0,.37-2.58H44.12l.56-3.55h4.21V3.09H44V2.14h5.94V5.7H45.6l-.27,1.67Zm3.59,5.09H52.48V2h1.06Z" transform="translate(-0.5 -1.94)"/></svg>