<?xml version="1.0" encoding="utf-8"?>
<!-- Generator: Adobe Illustrator 25.2.1, SVG Export Plug-In . SVG Version: 6.00 Build 0)  -->
<svg version="1.1" id="圖層_1" xmlns="http://www.w3.org/2000/svg" xmlns:xlink="http://www.w3.org/1999/xlink" x="0px" y="0px"
	 viewBox="0 0 400 400" style="enable-background:new 0 0 400 400;" xml:space="preserve">
<style type="text/css">
	.st0{fill:#DCC5EF;}
</style>
<g>
	<g>
		<path class="st0" d="M184.5,387.5c-3.8,0-7.3-1.5-10-4.2L162,370.9c-5.5-5.5-5.5-14.5,0-20L312.9,200L162,49.2
			c-2.7-2.7-4.2-6.2-4.2-10s1.5-7.3,4.2-10l12.5-12.5c2.7-2.7,6.2-4.2,10-4.2c3.8,0,7.3,1.5,10,4.2l150.9,150.8l0.2-0.2l32.5,32.5
			l-0.2,0.2l0.2,0.2l-32.5,32.5l-0.2-0.2L194.6,383.4C191.9,386,188.4,387.5,184.5,387.5z"/>
		<path class="st0" d="M184.6,14.6c3.1,0,6.2,1.1,8.5,3.5l152.3,152.3l0.2-0.2l29.6,29.6l-0.2,0.2l0.2,0.2l-29.6,29.6l-0.2-0.2
			L193.1,381.9c-2.4,2.4-5.5,3.5-8.5,3.5s-6.2-1.1-8.5-3.5l-12.5-12.5c-4.8-4.8-4.8-12.4,0-17.2L315.8,200L163.5,47.7
			c-4.8-4.8-4.8-12.4,0-17.2L176,18.1C178.4,15.7,181.5,14.6,184.6,14.6 M184.6,10.4c-4.3,0-8.4,1.7-11.5,4.8l-12.5,12.5
			c-3,3-4.8,7.1-4.8,11.5s1.7,8.4,4.8,11.5L310,200L160.6,349.4c-3,3-4.8,7.1-4.8,11.5c0,4.3,1.7,8.4,4.8,11.5l12.5,12.5
			c3,3,7.1,4.8,11.5,4.8c4.3,0,8.4-1.7,11.5-4.8l149.4-149.4l0.2,0.2l2.9-2.9l29.6-29.6l2.9-2.9l-0.2-0.2l0.2-0.2l-2.9-2.9
			l-29.6-29.6l-2.9-2.9l-0.2,0.2L196,15.2C193,12.1,188.9,10.4,184.6,10.4L184.6,10.4z"/>
	</g>
	<g>
		<path class="st0" d="M49.7,387.5c-3.8,0-7.3-1.5-10-4.2l-12.5-12.5c-5.5-5.5-5.5-14.5,0-20L178.1,200L27.2,49.2
			c-2.7-2.7-4.2-6.2-4.2-10s1.5-7.3,4.2-10l12.5-12.5c2.7-2.7,6.2-4.2,10-4.2s7.3,1.5,10,4.2l150.8,150.8l0.2-0.2l32.5,32.5L243,200
			l0.2,0.2l-32.4,32.5l-0.2-0.2L59.8,383.4C57.1,386,53.5,387.5,49.7,387.5z"/>
		<path class="st0" d="M49.8,14.6c3.1,0,6.2,1.1,8.5,3.5l152.3,152.3l0.2-0.2l29.6,29.6l-0.2,0.2l0.2,0.2l-29.6,29.6l-0.2-0.2
			L58.3,381.9c-2.4,2.4-5.5,3.5-8.5,3.5s-6.2-1.1-8.6-3.5l-12.5-12.5c-4.8-4.8-4.8-12.4,0-17.2L181,200L28.7,47.7
			c-4.8-4.8-4.8-12.4,0-17.2l12.5-12.5C43.5,15.7,46.7,14.6,49.8,14.6 M49.8,10.4c-4.3,0-8.4,1.7-11.5,4.8L25.8,27.7
			c-3,3-4.8,7.1-4.8,11.5s1.7,8.4,4.8,11.5L175.2,200L25.8,349.4c-3,3-4.8,7.1-4.8,11.5c0,4.3,1.7,8.4,4.8,11.5l12.5,12.5
			c3,3,7.1,4.8,11.5,4.8s8.4-1.7,11.5-4.8l149.4-149.4l0.2,0.2l2.9-2.9l29.6-29.6l2.9-2.9l-0.2-0.2l0.2-0.2l-2.9-2.9l-29.6-29.6
			l-2.9-2.9l-0.2,0.2L61.2,15.2C58.1,12.1,54,10.4,49.8,10.4L49.8,10.4z"/>
	</g>
</g>
</svg>
