<?xml version="1.0" encoding="utf-8"?>
<!-- Generator: Adobe Illustrator 25.2.3, SVG Export Plug-In . SVG Version: 6.00 Build 0)  -->
<svg version="1.1" id="圖層_1" xmlns="http://www.w3.org/2000/svg" xmlns:xlink="http://www.w3.org/1999/xlink" x="0px" y="0px"
	 viewBox="0 0 80 80" style="enable-background:new 0 0 80 80;" xml:space="preserve">
<style type="text/css">
	.st0{fill:url(#SVGID_1_);}
	.st1{opacity:0.8;}
	.st2{fill:#C4F3F7;}
	.st3{fill:#98D3D2;}
	.st4{fill:#CEFFFC;}
	.st5{fill:#4D3729;}
	.st6{fill:#FAAF1E;}
	.st7{fill:#F395A0;}
	.st8{fill:#FFC947;}
	.st9{fill:#221E1F;}
</style>
<radialGradient id="SVGID_1_" cx="40" cy="40" r="38.7246" gradientUnits="userSpaceOnUse">
	<stop  offset="2.290666e-02" style="stop-color:#DCC5EF"/>
	<stop  offset="0.3583" style="stop-color:#DBC8ED"/>
	<stop  offset="0.5949" style="stop-color:#DAD1E8"/>
	<stop  offset="0.8004" style="stop-color:#D7E1DF"/>
	<stop  offset="0.9882" style="stop-color:#D2F6D2"/>
	<stop  offset="1" style="stop-color:#D2F8D1"/>
</radialGradient>
<circle class="st0" cx="40" cy="40" r="38.7"/>
<g id="圖層_15">
	<g class="st1">
		<path class="st2" d="M35.2,33.7c-4.8-1.5-9.4-10.2-7.5-15.2s7.1-7.3,12.1-5.1c6.4,2.5,3,13.5,0.9,18L35.2,33.7z"/>
	</g>
</g>
<g id="圖層_14">
	<path class="st3" d="M38.6,33.9c0,0-0.1-0.2-0.2-0.5c-0.1-0.3-0.3-0.8-0.5-1.3l-0.3-0.9c-0.1-0.3-0.2-0.7-0.2-1
		c-0.2-0.7-0.3-1.5-0.5-2.3c-0.2-1.5-0.5-3.1-0.5-4.3c0-0.6-0.1-1.1-0.1-1.4s0-0.5,0-0.5s0.1,0.2,0.1,0.5c0.1,0.3,0.2,0.8,0.3,1.4
		c0.1,0.6,0.2,1.2,0.4,2c0.1,0.8,0.3,1.5,0.4,2.3c0.1,0.8,0.3,1.5,0.4,2.2c0.1,0.4,0.1,0.7,0.2,1s0.1,0.6,0.2,0.9
		c0.1,0.6,0.2,1,0.3,1.4S38.6,33.9,38.6,33.9z"/>
</g>
<g id="圖層_13">
	<g class="st1">
		<path class="st4" d="M33.8,37.5c-1.9,1.3-8.2-0.5-9.8-1.7c-3.4-2.6-4.2-9.6-2.1-13.1c2.7-4.4,8-5.4,11-1.4c1.6,2.1,3.3,4.1,4,6.8
			c0.6,2.2,1.8,5.2,0.7,7.5L33.8,37.5z"/>
	</g>
</g>
<g id="圖層_12">
	<path class="st3" d="M26.4,29.8L27,30c0.3,0.1,0.8,0.3,1.4,0.6c1.1,0.5,2.6,1.2,4,2c1.4,0.8,2.9,1.6,3.9,2.2c0.5,0.3,1,0.6,1.3,0.8
		l0.5,0.3l-0.5-0.2c-0.3-0.1-0.8-0.3-1.4-0.6c-1.1-0.5-2.6-1.2-4-2c-1.4-0.8-2.9-1.6-3.9-2.2c-0.5-0.3-1-0.6-1.3-0.8L26.4,29.8z"/>
</g>
<g id="圖層_11">
	<path class="st5" d="M26.2,54.8c-3.5,3.7-6.5,7.8-11,12.6l0,0c1.7-1.7,11.2-8.3,13.8-10L26.2,54.8z"/>
</g>
<g id="圖層_10">
	<path class="st5" d="M24.2,45.1l-0.1,0.2c-0.9,2.6-1,5.4-0.5,8.1c0.2,1.2,0.7,2.4,1.4,3.5c2.3,3.7,6.3,5.1,10.3,4.6
		C28.8,58.4,24.3,52,24.2,45.1z"/>
	<path class="st6" d="M27.4,39.7c-1.3,1.6-2.4,3.4-3.2,5.4c0.1,6.9,4.7,13.4,11,16.4c0.9-0.1,1.7-0.3,2.5-0.5c0.9-0.3,1.8-0.6,2.7-1
		C32.4,57.5,27.3,48.2,27.4,39.7z"/>
	<path class="st5" d="M40.5,44.1C38,36.7,38.9,33.4,40,29.4c-1.3,0.8-2.5,1.7-3.8,2.6c-0.1,1.7-0.3,3.8-0.4,6.2
		c-0.3,8.4,5.1,15,12.2,17.8c2-1.1,3.9-2.3,5.7-3.6C47.9,52.1,42.4,49.7,40.5,44.1z"/>
	<path class="st5" d="M33.9,49.8c-2.1-4.2-3.3-8.8-3.4-13.4c-1.1,1-2.2,2.1-3.1,3.3c-0.1,8.5,5,17.8,13,20.3
		c1.3-0.6,2.5-1.2,3.8-1.9C39.8,56.8,36.1,53.8,33.9,49.8z"/>
	<path class="st6" d="M35.9,38.2c0.1-2.4,0.3-4.6,0.4-6.2l-1.7,1.2c-1.4,1-2.7,2.1-4,3.2c0.1,4.7,1.3,9.3,3.3,13.5
		c2.2,4,5.9,7,10.3,8.3l2.6-1.4l1.3-0.7C41,53.3,35.6,46.6,35.9,38.2z"/>
</g>
<g id="圖層_9">
	<path class="st7" d="M64.7,34.5c-1.5-0.1-2.9,0.8-3.3,2.2c-0.7,2.1-0.1,4.3,1.4,5.8c0.4-0.8,0.7-1.5,1-2.3
		C64.5,38.3,64.8,36.4,64.7,34.5z"/>
	<path class="st8" d="M61.4,36.7c0.5-1.4,1.9-2.3,3.3-2.2c-0.1-3.5-1.7-6.8-4.5-8.9c-3.1-2.1-7-2.6-10.5-1.4c-3.3,1.1-6.2,3-9.1,4.9
		L40,29.4c-1.1,4-2,7.2,0.5,14.7c1.9,5.6,7.4,8,13.3,8.4c3.8-2.6,6.9-6,9.1-10C61.3,41,60.7,38.7,61.4,36.7z"/>
</g>
<g id="圖層_8">
	<path class="st7" d="M42.8,33.1c1.7-1,4.7,1.3,4.8,3.1c0,0.8-0.3,1.6-0.8,2.2c-1.1,1.2-2.8,1.4-4.2,0.7c-0.8-0.5-1.4-1.3-1.5-2.3
		C40.8,35.4,41.5,33.9,42.8,33.1z"/>
</g>
<g id="圖層_7">
	<path class="st5" d="M50.2,39.4l0.1,0.5c0.1,0.2,0.2,0.3,0.2,0.6s0.3,0.4,0.4,0.7c0.2,0.3,0.4,0.5,0.6,0.7c0.2,0.3,0.5,0.5,0.7,0.7
		l0.4,0.3c0.2,0.1,0.3,0.1,0.5,0.2c0.3,0.1,0.7,0.2,1.1,0.3c0.4,0.1,0.7,0.1,1.1,0.1c0.4,0,0.7-0.1,1.1-0.1c0.3-0.1,0.6-0.2,0.9-0.3
		c0.1-0.1,0.3-0.1,0.4-0.2c0.1-0.1,0.2-0.2,0.3-0.3c0.2-0.2,0.4-0.4,0.5-0.6c0.1-0.2,0.2-0.4,0.3-0.5c0.1-0.3,0.2-0.5,0.2-0.5
		s0,0.2-0.1,0.5c-0.1,0.2-0.1,0.4-0.2,0.6c-0.1,0.3-0.3,0.5-0.4,0.7c-0.1,0.1-0.2,0.2-0.3,0.3c-0.1,0.1-0.3,0.2-0.4,0.3
		c-0.3,0.2-0.6,0.4-1,0.5c-0.4,0.1-0.8,0.2-1.2,0.2c-0.4,0-0.8,0-1.2,0c-0.4-0.1-0.8-0.2-1.2-0.3c-0.2-0.1-0.4-0.2-0.6-0.3l-0.6-0.4
		c-0.3-0.3-0.5-0.5-0.7-0.8c-0.2-0.3-0.4-0.5-0.5-0.8c-0.1-0.3-0.2-0.5-0.3-0.8c-0.1-0.2-0.1-0.4-0.2-0.6
		C50.2,39.6,50.2,39.4,50.2,39.4z"/>
</g>
<g id="圖層_6">
	<path class="st9" d="M52.8,23c-0.5-0.1-0.9-0.1-1.3,0.1c-0.5,0.3-0.9,0.8-1.2,1.3c-0.5,1,0.1,1,0.9,0.6c0.7-0.3,1.3-0.7,1.8-1.2
		C53.2,23.4,53.1,23.1,52.8,23z"/>
</g>
<g id="圖層_5">
	<path class="st9" d="M59.3,23.9c-0.6-0.1-0.5,0.6-0.4,0.9c0.1,0.5,1.4,2.6,2.1,1.8s-0.8-2.5-1.5-2.7C59.5,23.9,59.4,23.9,59.3,23.9
		z"/>
</g>
<g id="圖層_4">
	<path class="st9" d="M53.1,31.9c-0.1,0-0.2,0-0.3,0c-1,0.1-0.8,1.8-0.8,2.5c0.1,0.7,0.7,1.4,1.3,0.5C53.7,34.5,54.4,32,53.1,31.9z"
		/>
</g>
<g id="圖層_3">
	<path class="st9" d="M58.9,32.3c0.1,0,0.2,0,0.3,0c0.6,0.2,0.6,1.9,0.4,2.6c-0.2,0.7-0.9,1.2-1.4,0.3
		C57.9,34.8,57.9,32.4,58.9,32.3z"/>
</g>
</svg>
