<?xml version="1.0" encoding="utf-8"?>
<!-- Generator: Adobe Illustrator 25.4.1, SVG Export Plug-In . SVG Version: 6.00 Build 0)  -->
<svg version="1.1" id="圖層_1" xmlns="http://www.w3.org/2000/svg" xmlns:xlink="http://www.w3.org/1999/xlink" x="0px" y="0px"
	 viewBox="0 0 60 60" style="enable-background:new 0 0 60 60;" xml:space="preserve">
<style type="text/css">
	.st0{fill:#DCC5EF;}
</style>
<g id="圖層_4">
	<path class="st0" d="M30,5C16.2,5,5,16.2,5,30s11.2,25,25,25s25-11.2,25-25S43.8,5,30,5z M30,14.7c4.9,0,8.9,4,8.9,8.9
		s-4,8.9-8.9,8.9s-8.9-4-8.9-8.9l0,0C21.1,18.7,25.1,14.7,30,14.7z M30,49.3c-5.7,0-11.1-2.5-14.8-6.9c1.9-3.7,5.8-6,9.9-6
		c0.2,0,0.5,0,0.7,0.1c2.7,0.9,5.6,0.9,8.2,0c0.2-0.1,0.5-0.1,0.7-0.1c4.2,0,8,2.3,9.9,6C41.1,46.8,35.7,49.3,30,49.3z"/>
</g>
</svg>
