<?xml version="1.0" encoding="utf-8"?>
<!-- Generator: Adobe Illustrator 25.2.3, SVG Export Plug-In . SVG Version: 6.00 Build 0)  -->
<svg version="1.1" id="圖層_1" focusable="false" xmlns="http://www.w3.org/2000/svg" xmlns:xlink="http://www.w3.org/1999/xlink"
	 x="0px" y="0px" viewBox="0 0 50 50" style="enable-background:new 0 0 50 50;" xml:space="preserve">
<style type="text/css">
	.st0{fill:#FFFFFF;}
</style>
<path class="st0" d="M25,9.7c4.9,0,8.9,4,8.9,8.9s-4,8.9-8.9,8.9s-8.9-4-8.9-8.9S20.1,9.7,25,9.7z M25,44.4
	c-5.9,0-11.2-2.7-14.8-6.9c1.9-3.6,5.6-6,9.9-6c0.2,0,0.5,0,0.7,0.1c1.3,0.4,2.7,0.7,4.1,0.7s2.8-0.3,4.1-0.7
	c0.2-0.1,0.5-0.1,0.7-0.1c4.3,0,8,2.5,9.9,6C36.2,41.7,30.9,44.4,25,44.4z"/>
</svg>
