<?xml version="1.0" encoding="utf-8"?>
<!-- Generator: Adobe Illustrator 25.3.1, SVG Export Plug-In . SVG Version: 6.00 Build 0)  -->
<svg version="1.1" id="圖層_1" xmlns="http://www.w3.org/2000/svg" xmlns:xlink="http://www.w3.org/1999/xlink" x="0px" y="0px"
	 viewBox="0 0 353.3 353.3" style="enable-background:new 0 0 353.3 353.3;" xml:space="preserve">
<style type="text/css">
	.st0{fill:#B8FCAE;}
	.st1{fill:none;stroke:#9AFF02;stroke-width:10;stroke-linecap:round;stroke-miterlimit:10;}
	.st2{fill:#DCFFA6;}
	.st3{fill:#9AFF02;}
	.st4{fill:#C2FF67;}
	.st5{fill:#CDFF81;}
	.st6{fill:#E6FFC0;}
	.st7{display:none;}
	.st8{display:inline;}
	.st9{fill:#FFCE00;}
	.st10{fill:#04C2FF;stroke:#FFCE00;stroke-width:6;stroke-miterlimit:10;}
</style>
<g>
	<path class="st0" d="M178.6,50.8c33.3,0,64.6,13,88.1,36.5s36.5,54.8,36.5,88.1s-13,64.6-36.5,88.1C243.2,287,211.9,300,178.6,300
		s-64.6-13-88.1-36.5C67,240,54,208.7,54,175.4s13-64.6,36.5-88.1S145.3,50.8,178.6,50.8 M178.6,45.8C107,45.8,49,103.8,49,175.4
		S107,305,178.6,305s129.6-58,129.6-129.6S250.2,45.8,178.6,45.8L178.6,45.8z"/>
</g>
<g>
	<g>
		<path class="st1" d="M315.2,196c-10,66.5-67.3,117.5-136.6,117.5c-76.3,0-138.2-61.9-138.2-138.1S102.3,37.2,178.6,37.2
			c67,0,122.9,47.8,135.5,111.1"/>
		<g>
			<g>
				<path class="st2" d="M313.2,194.2c6-6,13.3-10.6,21.1-13.8l-6.2,32.9c-8.3,3-15.5,8.8-21.4,15.2L313.2,194.2z"/>
				<path class="st2" d="M306.7,228.5c-3.1-8.2-7.9-16-14.4-22l6.2-32.8c6.2,6,11.3,12.7,14.7,20.5L306.7,228.5z"/>
				<path class="st3" d="M327.8,215.2c-8.3,3-15.5,8.8-21.4,15.2c-3.1-8.2-7.9-16-14.4-22l0.8-4.4c6.2,6,11.3,12.7,14.7,20.5
					c6-6,13.3-10.6,21.1-13.8L327.8,215.2z"/>
				<path class="st4" d="M329.8,204.5c-8.3,3-15.5,8.8-21.4,15.2c-3.1-8.2-7.9-16-14.4-22l0.8-4.4c6.2,6,11.3,12.7,14.7,20.5
					c6-6,13.3-10.6,21.1-13.8L329.8,204.5z"/>
				<path class="st5" d="M331.8,193.9c-8.3,3-15.5,8.8-21.4,15.2c-3.1-8.2-7.9-16-14.4-22l0.8-4.4c6.2,6,11.3,12.7,14.7,20.5
					c6-6,13.3-10.6,21.1-13.8L331.8,193.9z"/>
				<path class="st6" d="M333.8,183.2c-8.3,3-15.5,8.8-21.4,15.2c-3.1-8.2-7.9-16-14.4-22l0.8-4.4c6.2,6,11.3,12.7,14.7,20.5
					c6-6,13.3-10.6,21.1-13.8L333.8,183.2z"/>
			</g>
		</g>
		<g>
			<path class="st3" d="M316.8,175.4c-6.1-12.2-15.8-27.1-25.4-35.9l22.1,5.4l20.4-10C326.5,145.5,320.1,162.2,316.8,175.4z"/>
		</g>
	</g>
</g>
<g class="st7">
	<g class="st8">
		<polygon class="st9" points="171.9,347.4 176.9,289.5 181.9,347.4 		"/>
	</g>
	<g class="st8">
		<polygon class="st9" points="243.1,334.6 223.5,279.9 252.2,330.4 		"/>
	</g>
	<g class="st8">
		<polygon class="st9" points="293.9,301.1 256.5,256.7 301,294 		"/>
	</g>
	<g class="st8">
		<polygon class="st9" points="330.6,251.9 280,223.6 334.8,242.8 		"/>
	</g>
	<g class="st8">
		<polygon class="st9" points="347.6,181.6 289.8,176.6 347.6,171.6 		"/>
	</g>
	<g class="st8">
		<polygon class="st9" points="334.4,109.9 279.9,129.8 330.2,100.8 		"/>
	</g>
	<g class="st8">
		<polygon class="st9" points="302.9,57.2 258.4,94.6 295.8,50.2 		"/>
	</g>
	<g class="st8">
		<polygon class="st9" points="251,22.2 222.6,72.9 241.9,18.1 		"/>
	</g>
	<g class="st8">
		<polygon class="st9" points="181.6,5.1 176.6,62.9 171.6,5.1 		"/>
	</g>
	<g class="st8">
		<polygon class="st9" points="100,330.4 128.8,279.9 109.1,334.6 		"/>
	</g>
	<g class="st8">
		<polygon class="st9" points="51.3,294 95.7,256.7 58.3,301.1 		"/>
	</g>
	<g class="st8">
		<polygon class="st9" points="17.5,242.8 72.3,223.6 21.6,251.9 		"/>
	</g>
	<g class="st8">
		<polygon class="st9" points="4.6,171.6 62.5,176.6 4.6,181.6 		"/>
	</g>
	<g class="st8">
		<polygon class="st9" points="22,100.8 72.4,129.8 17.8,109.9 		"/>
	</g>
	<g class="st8">
		<polygon class="st9" points="56.4,50.2 93.8,94.6 49.4,57.2 		"/>
	</g>
	<g class="st8">
		<polygon class="st9" points="110.3,18.1 129.6,72.9 101.2,22.2 		"/>
	</g>
</g>
<path class="st10" d="M114.3,128.1l-0.2-1.1 M114.1,127l-0.5-2.7c-0.1-0.6-0.6-0.9-1.1-0.9H90.1c-3.6,0-6.5-2.9-6.5-6.5v-5.1
	c0-3.6,2.9-6.5,6.5-6.5h32.8c3.1,0,5.8,2.2,6.4,5.2l3,14.3c0.1,0.6,0.6,0.9,1.1,0.9h125.8c2,0,3.8,0.9,5.1,2.4
	c1.3,1.5,1.7,3.6,1.3,5.5l-15.1,66.6c-0.7,3-3.3,5.1-6.4,5.1h-93.9c-0.4,0-0.7,0.1-0.9,0.4s-0.3,0.6-0.2,1l2.1,10.3
	c0.1,0.6,0.6,0.9,1.1,0.9h86c2,0,3.8,0.9,5.1,2.4s1.7,3.6,1.3,5.5l-1.8,7.8c-0.1,0.5,0.1,1.1,0.6,1.3c5.9,2.8,9.5,8.6,9.5,15.1
	c0,9.2-7.5,16.8-16.8,16.8H236c-8.9-0.1-16.2-7.4-16.5-16.3c-0.1-4.7,1.6-9.1,5-12.5c0.3-0.3,0.4-0.8,0.3-1.3
	c-0.1-0.4-0.6-0.7-1.1-0.7h-67.1c-0.5,0-0.9,0.3-1.1,0.7c-0.2,0.4-0.1,0.9,0.3,1.3c3.2,3.2,5.1,7.4,5.1,12c0,9.3-7.5,16.8-16.8,16.8
	c-0.3,0-0.5,0-0.8,0c-8.5-0.4-15.5-7.4-15.9-15.8c-0.3-6.4,2.9-12.3,8.4-15.5c0.4-0.2,0.7-0.7,0.6-1.3L114.7,128 M181.1,186.1
	c0,3.5,2.8,6.3,6.3,6.3h5.1c3.5,0,6.3-2.8,6.3-6.3v-11.7H213c3.5,0,6.3-2.8,6.3-6.3V163c0-3.5-2.8-6.3-6.3-6.3h-14.3V145
	c0-3.5-2.8-6.3-6.3-6.3h-5.1c-3.5,0-6.3,2.8-6.3,6.3v11.7h-14.2c-3.5,0-6.3,2.8-6.3,6.3v5.1c0,3.5,2.8,6.3,6.3,6.3H181v11.7H181.1z"
	/>
</svg>
