<?xml version="1.0" encoding="utf-8"?>
<!-- Generator: Adobe Illustrator 25.2.3, SVG Export Plug-In . SVG Version: 6.00 Build 0)  -->
<svg version="1.1" id="圖層_1" xmlns="http://www.w3.org/2000/svg" xmlns:xlink="http://www.w3.org/1999/xlink" x="0px" y="0px"
	 viewBox="0 0 36 36" style="enable-background:new 0 0 36 36;" xml:space="preserve">
<style type="text/css">
	.st0{fill:none;stroke:#00B401;stroke-width:2;stroke-linejoin:round;stroke-miterlimit:10;}
	.st1{fill:none;stroke:#00B401;stroke-width:3;stroke-linecap:square;stroke-miterlimit:10;}
	.st2{fill:#00B401;}
	.st3{fill:#EFEFEF;stroke:#231815;stroke-linecap:round;stroke-miterlimit:10;}
</style>
<path class="st0" d="M33.7,11.4C31.1,5.3,25,1,18,1C8.6,1,1,8.6,1,18c0,9.4,7.6,17,17,17s17-7.6,17-17C35,15.7,34.5,13.4,33.7,11.4"
	/>
<polyline class="st1" points="7,22.2 15.5,27.8 29,12.2 "/>
<g>
	<path class="st2" d="M-62.5-32c5.8,0,10.5,4.5,10.5,10s-4.7,10-10.5,10S-73-16.5-73-22S-68.3-32-62.5-32 M-62.5-34
		C-69.4-34-75-28.6-75-22s5.6,12,12.5,12S-50-15.4-50-22S-55.6-34-62.5-34L-62.5-34z"/>
</g>
<circle class="st3" cx="-49.5" cy="41.9" r="12.3"/>
</svg>
