<svg id="圖層_1" data-name="圖層 1" xmlns="http://www.w3.org/2000/svg" viewBox="0 0 60 60"><defs><style>.cls-1{fill:#ffa300;}</style></defs><path class="cls-1" d="M30,5C14.22,5,1.43,15.39,1.43,28.21a20.65,20.65,0,0,0,6.36,14.6c-1.4,5.61-6.06,10.62-6.12,10.68a.89.89,0,0,0,0,1.26.86.86,0,0,0,.61.25A25.49,25.49,0,0,0,18,49.27a34.1,34.1,0,0,0,12,2.16c15.78,0,28.57-10.39,28.57-23.22S45.78,5,30,5Zm2.68,33.75v2a1.79,1.79,0,0,1-1.79,1.79H29.11a1.79,1.79,0,0,1-1.79-1.79v-2a8.3,8.3,0,0,1-3.55-1.28,1.34,1.34,0,0,1-.17-2.05l2-2a1.38,1.38,0,0,1,1.57-.23,2.68,2.68,0,0,0,1.15.25h3.66a.94.94,0,0,0,.25-1.84L26.61,30a6.53,6.53,0,0,1-4.79-5.32,6.28,6.28,0,0,1,5.5-7v-2a1.79,1.79,0,0,1,1.79-1.78h1.78a1.79,1.79,0,0,1,1.79,1.78v2A8.17,8.17,0,0,1,36.23,19,1.34,1.34,0,0,1,36.4,21l-2,2a1.38,1.38,0,0,1-1.57.23A2.68,2.68,0,0,0,31.72,23H28.06a.94.94,0,0,0-.25,1.84l5.58,1.6a6.53,6.53,0,0,1,4.79,5.32,6.26,6.26,0,0,1-5.5,7Z"/></svg>