<svg id="Layer_1" data-name="Layer 1" xmlns="http://www.w3.org/2000/svg" viewBox="0 0 390.92 394.97"><defs><style>.cls-1{fill:none;}.cls-2,.cls-3,.cls-4{fill:#fff;}.cls-3{stroke:#fff;}.cls-3,.cls-4{stroke-miterlimit:10;stroke-width:10px;}.cls-4{stroke:#fefffd;}</style></defs><path class="cls-1" d="M236.83,358.64a76.71,76.71,0,0,0,76.71-76.72H160.11A76.72,76.72,0,0,0,236.83,358.64Z" transform="translate(-43.32 -43.39)"/><path class="cls-1" d="M237.4,73.07c-71.48,0-133.31,52.05-163.1,115.76l0,0A31,31,0,0,1,90.73,184c.79,0,1.55,0,2.3.1a152.88,152.88,0,0,1,286.72,0c.64,0,1.31-.07,2-.07a32.07,32.07,0,0,1,19.89,7.27C372.27,126.44,309.79,73.07,237.4,73.07Z" transform="translate(-43.32 -43.39)"/><circle class="cls-1" cx="281.31" cy="225.06" r="18.32" transform="translate(-77.59 355.44) rotate(-67.5)"/><circle class="cls-1" cx="190.57" cy="225.06" r="18.32" transform="translate(-133.61 271.61) rotate(-67.5)"/><path class="cls-2" d="M359.19,243.38c0-31.82-.31-57.79,20.56-59.33a152.88,152.88,0,0,0-286.72,0c20.55,1.76,20.25,27.64,20.25,59.3,0,29,.25,53.05-15.41,58.32a152.87,152.87,0,0,0,277,.09C358.94,296.7,359.19,272.5,359.19,243.38Zm-77.88-36.64A18.32,18.32,0,1,1,263,225.06,18.32,18.32,0,0,1,281.31,206.74Zm-90.74,0a18.32,18.32,0,1,1-18.32,18.32A18.32,18.32,0,0,1,190.57,206.74Zm46.26,151.9a76.72,76.72,0,0,1-76.72-76.72H313.54A76.71,76.71,0,0,1,236.83,358.64Z" transform="translate(-43.32 -43.39)"/><path class="cls-3" d="M82.94,191.33c-.58-.05-1.18-.08-1.82-.08a24.49,24.49,0,0,0-13,3.86l-15,29c0-3.75.16-7.5.45-11.24a62.48,62.48,0,0,0-5.2,25.4c0,26,14.69,47,32.8,47a17.53,17.53,0,0,0,5.66-.86,121.31,121.31,0,0,1-3.84-93.11Z" transform="translate(-43.32 -43.39)"/><path class="cls-4" d="M97.87,238.28c0-25.07.23-45.55-16-46.95a121.37,121.37,0,0,0,3.83,93.11C98.06,280.27,97.87,261.2,97.87,238.28Z" transform="translate(-43.32 -43.39)"/><path class="cls-3" d="M422.24,223c.08,1.92.13,3.85.13,5.77A144.89,144.89,0,0,1,421.16,247a164.1,164.1,0,0,0-13.43-46.3,26.16,26.16,0,0,0-16.27-6c-.56,0-1.11,0-1.64.06a125.41,125.41,0,0,1-4,96.36,18.26,18.26,0,0,0,5.62.82c18.74,0,33.92-21.76,33.92-48.62A66.44,66.44,0,0,0,422.24,223Z" transform="translate(-43.32 -43.39)"/><path class="cls-3" d="M389.82,194.82C372.75,196.08,373,217.34,373,243.38c0,23.83-.2,43.64,12.84,47.8a125.41,125.41,0,0,0,4-96.36Z" transform="translate(-43.32 -43.39)"/><path class="cls-2" d="M74.28,188.85l0,0c29.79-63.71,91.62-115.76,163.1-115.76,72.39,0,134.87,53.37,164.23,118.18,7.75,6.09,14,15.64,17.73,27.19-3.8-95.28-84.38-175-182.53-175-95.7,0-173.59,75.09-181,167.91C60.29,201.43,66.69,193.56,74.28,188.85Z" transform="translate(-43.32 -43.39)"/><path class="cls-2" d="M74.28,188.85c-7.59,4.71-14,12.58-18.42,22.45q-.57,7.09-.57,14.19Z" transform="translate(-43.32 -43.39)"/><path class="cls-2" d="M401.63,191.25A200.57,200.57,0,0,1,418,247.82a176.55,176.55,0,0,0,1.48-22.33c0-2.35-.06-4.7-.15-7.05C415.62,206.89,409.38,197.34,401.63,191.25Z" transform="translate(-43.32 -43.39)"/><path class="cls-2" d="M434.24,245.23h-1v-.57a11.35,11.35,0,0,0-22.7,0V260.1a11.28,11.28,0,0,0,5.3,9.56c-12,70.17-56.14,116-110.75,139.53,0-.08,0-.17,0-.25-2.82-9.18-19.71-12.12-37.71-6.58S237,419.82,239.81,429s19.7,12.11,37.71,6.57a54.9,54.9,0,0,0,20.82-11.34C378.88,408.51,434.24,334.36,434.24,245.23Z" transform="translate(-43.32 -43.39)"/></svg>