<svg id="Layer_1" data-name="Layer 1" xmlns="http://www.w3.org/2000/svg" viewBox="0 0 473.65 473.65"><defs><style>.cls-1{fill:none;}.cls-2,.cls-3,.cls-4{fill:#fff;}.cls-3{stroke:#fff;}.cls-3,.cls-4{stroke-miterlimit:10;stroke-width:10px;}.cls-4{stroke:#fefffd;}</style></defs><path class="cls-1" d="M236.45,368.49a83.13,83.13,0,0,0,83.14-83.13H153.32A83.13,83.13,0,0,0,236.45,368.49Z"/><path class="cls-1" d="M237.08,59C159.61,59,92.61,115.43,60.32,184.47l0,0a33.59,33.59,0,0,1,17.82-5.27c.87,0,1.69,0,2.49.11a165.68,165.68,0,0,1,310.73,0c.7-.06,1.42-.08,2.16-.08a34.61,34.61,0,0,1,21.55,7.88C383.24,116.86,315.52,59,237.08,59Z"/><path class="cls-2" d="M369.06,243.59c0-34.48-.33-62.63,22.28-64.29a165.68,165.68,0,0,0-310.73,0c22.28,1.9,22,29.95,22,64.26,0,31.38.27,57.49-16.7,63.2a165.66,165.66,0,0,0,300.2.1C368.8,301.37,369.06,275.15,369.06,243.59Zm-84.4-39.71a19.86,19.86,0,1,1-19.85,19.86A19.86,19.86,0,0,1,284.66,203.88Zm-98.33,0a19.86,19.86,0,1,1-19.86,19.86A19.86,19.86,0,0,1,186.33,203.88Zm50.12,164.61a83.13,83.13,0,0,1-83.13-83.13H319.59A83.13,83.13,0,0,1,236.45,368.49Z"/><path class="cls-3" d="M69.69,187.19c-.64-.06-1.29-.09-2-.09a26.53,26.53,0,0,0-14.11,4.18l-16.3,31.43q0-6.09.5-12.18a67.51,67.51,0,0,0-5.64,27.53c0,28.15,15.91,51,35.55,51a19.1,19.1,0,0,0,6.12-.93,131.47,131.47,0,0,1-4.15-100.9Z"/><path class="cls-4" d="M85.86,238.06c0-27.16.26-49.36-17.38-50.87a131.42,131.42,0,0,0,4.16,100.9C86.07,283.57,85.86,262.9,85.86,238.06Z"/><path class="cls-3" d="M437.39,221.47c.09,2.09.14,4.17.14,6.26a157.51,157.51,0,0,1-1.31,19.8,178.09,178.09,0,0,0-14.55-50.17A28.38,28.38,0,0,0,404,190.9c-.61,0-1.2,0-1.77.07a136,136,0,0,1-4.32,104.42,19.66,19.66,0,0,0,6.09.89c20.31,0,36.76-23.58,36.76-52.69A72,72,0,0,0,437.39,221.47Z"/><path class="cls-3" d="M402.26,191c-18.51,1.36-18.23,24.4-18.23,52.62,0,25.83-.22,47.29,13.91,51.8A136,136,0,0,0,402.26,191Z"/><path class="cls-2" d="M60.3,184.49l0,0C92.61,115.43,159.61,59,237.08,59c78.44,0,146.16,57.84,178,128.08,8.4,6.6,15.17,16.94,19.22,29.46-4.12-103.25-91.44-189.7-197.82-189.7-103.71,0-188.11,81.38-196.11,182C45.14,198.12,52.08,189.6,60.3,184.49Z"/><path class="cls-2" d="M60.3,184.49c-8.22,5.11-15.16,13.63-20,24.33q-.62,7.69-.62,15.39Z"/><path class="cls-2" d="M415.05,187.1a217.47,217.47,0,0,1,17.78,61.31,193,193,0,0,0,1.6-24.2c0-2.55-.06-5.1-.16-7.65C430.22,204,423.45,193.7,415.05,187.1Z"/><path class="cls-2" d="M450.39,245.59h-1.13V245a12.3,12.3,0,0,0-24.59,0v16.73a12.25,12.25,0,0,0,5.74,10.36c-13,76-60.84,125.77-120,151.21,0-.09,0-.18,0-.28-3.06-9.93-21.36-13.13-40.88-7.12s-32.85,18.92-29.79,28.86,21.34,13.12,40.87,7.11c9.33-2.86,17.16-7.33,22.56-12.28C390.4,422.54,450.39,342.19,450.39,245.59Z"/></svg>