<?xml version="1.0" encoding="utf-8"?>
<!-- Generator: Adobe Illustrator 25.3.1, SVG Export Plug-In . SVG Version: 6.00 Build 0)  -->
<svg version="1.1" id="layer" xmlns="http://www.w3.org/2000/svg" xmlns:xlink="http://www.w3.org/1999/xlink" x="0px" y="0px"
	 viewBox="0 0 37.1 40" style="enable-background:new 0 0 37.1 40;" xml:space="preserve">
<style type="text/css">
	.st0{fill:#0079C4;}
	.st1{fill-rule:evenodd;clip-rule:evenodd;fill:#0079C4;}
	.st2{fill:#1EAA39;}
</style>
<g>
	<rect x="0.5" y="26.6" class="st0" width="36.1" height="12.9"/>
	<path class="st1" d="M19.7,19.4l-0.8-1.9h-1.1c0,0,1.4,3.3,1.3,3.3c0,0-0.5,1.2-0.5,1.2c0,0,1.1,0,1.1,0c0-0.1,1.7-4.5,1.7-4.5
		h-1.1L19.7,19.4z"/>
	<path class="st1" d="M15.3,15.8c-0.4,0-0.6,0.3-0.6,0.6s0.3,0.6,0.6,0.6c0.4,0,0.6-0.3,0.6-0.6C15.9,16.1,15.6,15.8,15.3,15.8"/>
	<path class="st1" d="M8.6,20.6c0-0.1,0-0.2,0-0.3c0-0.6,0-1.2,0-1.8c0,0,0,0,0,0c0-0.2-0.1-1-1.1-1.1c0,0-0.3,0-0.3,0
		c-1,0-1.2,0.2-1.2,0.2v0.8c0,0,0.3-0.2,0.8-0.3c0.4,0,0.6,0.1,0.7,0.2c0,0,0,0.1,0.1,0.1c0,0.1,0.1,0.1,0.1,0.2c0,0,0,0,0,0.1
		c0,0,0,0,0,0c0,0,0,0,0,0c0,0-0.2-0.1-0.7-0.1c-0.4,0-0.8,0.3-0.8,0.4c-0.1,0.1-0.3,0.3-0.3,0.9c0,0.2,0.1,0.5,0.2,0.7
		C6,21,6.6,21.1,6.6,21.1c0.3,0,0.6,0,0.7,0c0.1,0,0.3-0.1,0.3-0.2c0,0,0.1,0,0.1,0c0,0.1,0,0.1,0,0.2c0,0,0,0,0,0s1,0,1,0
		c0,0-0.1-0.1-0.1-0.1C8.7,20.9,8.6,20.7,8.6,20.6 M7.5,20.2c-0.1,0.1-0.2,0.1-0.6,0.1c-0.1,0-0.3-0.1-0.3-0.4
		c0-0.6,0.6-0.5,0.7-0.5c0.2,0,0.3,0.1,0.3,0.2c0,0.1,0,0.3,0,0.5C7.6,20.1,7.6,20.2,7.5,20.2"/>
	<path class="st1" d="M30,20.6c0-0.1,0-0.2,0-0.3v-1.8c0,0,0,0,0,0c0-0.2-0.1-1-1.1-1.1c0,0-0.3,0-0.3,0c-1.1,0-1.2,0.2-1.2,0.2v0.8
		c0,0,0.3-0.2,0.8-0.3c0.4,0,0.6,0.1,0.7,0.2c0,0,0,0.1,0.1,0.1c0,0.1,0.1,0.1,0.1,0.2c0,0,0,0,0,0.1c0,0,0,0,0,0c0,0,0,0,0,0
		c0,0-0.2-0.1-0.7-0.1c-0.4,0-0.8,0.3-0.9,0.4C27.2,19.2,27,19.4,27,20c0,0.2,0.1,0.5,0.2,0.7c0.2,0.3,0.7,0.4,0.7,0.4
		c0.3,0,0.6,0,0.7,0c0.1,0,0.3-0.1,0.3-0.2c0,0,0.1,0,0.1,0c0,0.1,0,0.1,0,0.2c0,0,0,0,0,0s1,0,1,0c0,0-0.1-0.1-0.1-0.1
		C30.1,20.9,30,20.7,30,20.6 M28.9,20.2c-0.1,0.1-0.2,0.1-0.6,0.1c-0.1,0-0.3-0.1-0.3-0.4c0-0.6,0.6-0.5,0.7-0.5
		c0.2,0,0.3,0.1,0.3,0.2c0,0.1,0,0.3,0,0.5C29,20.1,29,20.2,28.9,20.2"/>
	<path class="st1" d="M13,17.4c-0.6,0-1,0.2-1,0.4l0,0c0-0.2-0.4-0.4-1-0.4c-0.4,0-0.7,0.1-0.9,0.3c0-0.1,0-0.1,0-0.2c0,0,0,0,0,0
		c-0.3,0-0.6,0-0.8,0c0,0,0,0,0,0v0.3V21v0.1h1v-2.4c0-0.2,0.2-0.4,0.5-0.4s0.5,0.2,0.5,0.4v2.4h1v-2.4c0-0.2,0.2-0.4,0.5-0.4
		s0.5,0.2,0.5,0.4v2.4h1v-2.5v0v-0.1c0,0,0,0,0,0C14.1,17.7,13.5,17.4,13,17.4"/>
	<path class="st1" d="M31.5,17.8v-0.3h-1v3.6h1v-2.3c0.1-0.1,0.4-0.3,0.7-0.3c0.4,0,0.6,0.1,0.6,0.1v-1.1c0,0-0.2-0.1-0.5-0.1
		C32,17.4,31.7,17.6,31.5,17.8"/>
	<rect x="14.8" y="17.5" class="st1" width="1" height="3.6"/>
	<rect x="16.5" y="15.9" class="st1" width="1" height="5.2"/>
	<polygon class="st1" points="3.3,16.9 5.6,16.9 5.6,15.9 3.3,15.9 2.3,15.9 2.3,16.9 2.3,21.1 3.3,21.1 3.3,18.8 5.5,18.8 
		5.5,17.8 3.3,17.8 	"/>
	<path class="st1" d="M35.3,18.4v-0.9h-0.8v-1.4l-1,0.4v0.9H33v0.9h0.5V20l0,0c0,0,0,0,0,0.1v0h0c0.1,0.9,0.8,1,1.2,1
		c0.4,0,0.5-0.1,0.5-0.1v-0.9c0,0-0.1,0.1-0.4,0.1c-0.4,0-0.4-0.5-0.4-0.5v-1.3L35.3,18.4L35.3,18.4z"/>
	<path class="st1" d="M24.1,17.5c-0.1-0.1-1.3-1.6-1.3-1.6h-1v5.2h1v-3.6c0,0,1.1,1.4,1.3,1.7c0.2-0.2,1.3-1.6,1.3-1.7v3.6h1.1v-5.2
		h-1.1C25.4,15.9,24.2,17.4,24.1,17.5"/>
	<rect x="0.5" y="0.5" class="st2" width="36.1" height="11.5"/>
</g>
</svg>
