<?xml version="1.0" encoding="utf-8"?>
<!-- Generator: Adobe Illustrator 25.2.1, SVG Export Plug-In . SVG Version: 6.00 Build 0)  -->
<svg version="1.1" id="Capa_1" xmlns="http://www.w3.org/2000/svg" xmlns:xlink="http://www.w3.org/1999/xlink" x="0px" y="0px"
	 viewBox="0 0 400 400" style="enable-background:new 0 0 400 400;" xml:space="preserve">
<style type="text/css">
	.st0{fill:#FFFFFF;}
</style>
<g>
	<g>
		<polygon class="st0" points="258.6,201.8 380,275.2 380,125.3 		"/>
	</g>
</g>
<g>
	<g>
		<polygon class="st0" points="20,125.3 20,275.2 141.4,201.8 		"/>
	</g>
</g>
<g>
	<g>
		<path class="st0" d="M357.5,81.6h-315c-11.2,0-20.2,8-21.9,18.3L200,213l179.3-113C377.6,89.6,368.7,81.6,357.5,81.6z"/>
	</g>
</g>
<g>
	<g>
		<path class="st0" d="M238,214.8l-31.8,20.1c-1.9,1.2-4.1,1.8-6.2,1.8s-4.3-0.6-6.2-1.8L162,214.8L20.7,300.3
			c1.7,10.2,10.6,18.2,21.8,18.2h315c11.1,0,20-8,21.8-18.2L238,214.8z"/>
	</g>
</g>
</svg>
