<?xml version="1.0" encoding="utf-8"?>
<!-- Generator: Adobe Illustrator 25.3.1, SVG Export Plug-In . SVG Version: 6.00 Build 0)  -->
<svg version="1.1" id="圖層_1" xmlns="http://www.w3.org/2000/svg" xmlns:xlink="http://www.w3.org/1999/xlink" x="0px" y="0px"
	 viewBox="0 0 50 50" style="enable-background:new 0 0 50 50;" xml:space="preserve">
<style type="text/css">
	.st0{fill:none;stroke:#D8008B;stroke-width:4;stroke-linecap:round;stroke-linejoin:round;stroke-miterlimit:10;}
	.st1{fill:#FF94DE;}
	.st2{fill:none;stroke:#FF43CE;stroke-width:1.5;stroke-linecap:round;stroke-linejoin:round;stroke-miterlimit:10;}
	.st3{fill:#FFBDEE;}
	.st4{fill:#FF43CE;}
	.st5{fill:#FF8EE2;}
	.st6{fill:#FFA1E7;}
	.st7{fill:#FFD0F3;}
</style>
<line class="st0" x1="12.8" y1="14.1" x2="35.4" y2="36.8"/>
<line class="st0" x1="35.4" y1="14.1" x2="12.8" y2="36.8"/>
<g>
	<path class="st1" d="M23.5,4.6c5.5,0,10.6,2.1,14.5,6c3.9,3.9,6,9,6,14.5s-2.1,10.6-6,14.5c-3.9,3.9-9,6-14.5,6s-10.6-2.1-14.5-6
		c-3.9-3.9-6-9-6-14.5s2.1-10.6,6-14.5C12.9,6.7,18.1,4.6,23.5,4.6 M23.5,3.8c-11.8,0-21.3,9.5-21.3,21.3s9.5,21.3,21.3,21.3
		S44.8,36.8,44.8,25S35.3,3.8,23.5,3.8L23.5,3.8z"/>
</g>
<g>
	<g>
		<path class="st2" d="M45.9,28.4c-1.6,10.9-11,19.2-22.3,19.2C11.1,47.6,1,37.5,1,25.1S11.1,2.5,23.5,2.5
			c10.9,0,20.1,7.8,22.1,18.1"/>
		<g>
			<g>
				<path class="st3" d="M45.5,28.1c1-1,2.2-1.7,3.4-2.3l-1,5.4c-1.4,0.5-2.5,1.4-3.5,2.5L45.5,28.1z"/>
				<path class="st3" d="M44.5,33.7c-0.5-1.3-1.3-2.6-2.4-3.6l1-5.4c1,1,1.8,2.1,2.4,3.3L44.5,33.7z"/>
				<path class="st4" d="M47.9,31.6C46.5,32,45.4,33,44.4,34c-0.5-1.3-1.3-2.6-2.4-3.6l0.1-0.7c1,1,1.8,2.1,2.4,3.3
					c1-1,2.2-1.7,3.4-2.3L47.9,31.6z"/>
				<path class="st5" d="M48.2,29.8c-1.4,0.5-2.5,1.4-3.5,2.5c-0.5-1.3-1.3-2.6-2.4-3.6l0.1-0.7c1,1,1.8,2.1,2.4,3.3
					c1-1,2.2-1.7,3.4-2.3L48.2,29.8z"/>
				<path class="st6" d="M48.5,28.1c-1.4,0.5-2.5,1.4-3.5,2.5c-0.5-1.3-1.3-2.6-2.4-3.6l0.1-0.7c1,1,1.8,2.1,2.4,3.3
					c1-1,2.2-1.7,3.4-2.3L48.5,28.1z"/>
				<path class="st7" d="M48.9,26.3c-1.4,0.5-2.5,1.4-3.5,2.5c-0.5-1.3-1.3-2.6-2.4-3.6l0.1-0.7c1,1,1.8,2.1,2.4,3.3
					c1-1,2.2-1.7,3.4-2.3L48.9,26.3z"/>
			</g>
		</g>
		<g>
			<path class="st4" d="M46.1,25c-1-2-2.6-4.4-4.1-5.9l3.6,0.9l3.3-1.6C47.7,20.2,46.6,22.9,46.1,25z"/>
		</g>
	</g>
</g>
</svg>
