<?xml version="1.0" encoding="utf-8"?>
<!-- Generator: Adobe Illustrator 25.2.1, SVG Export Plug-In . SVG Version: 6.00 Build 0)  -->
<svg version="1.1" id="圖層_1" xmlns="http://www.w3.org/2000/svg" xmlns:xlink="http://www.w3.org/1999/xlink" x="0px" y="0px"
	 viewBox="0 0 48 48" style="enable-background:new 0 0 48 48;" xml:space="preserve">
<style type="text/css">
	.st0{fill:#FFFFFF;}
	.st1{fill:#44619D;}
</style>
<rect x="16.3" y="2" class="st0" width="24.5" height="43.9"/>
<path class="st1" d="M0,44c0,2.2,1.8,4,4,4h40c2.2,0,4-1.8,4-4V4c0-2.2-1.8-4-4-4H4C1.8,0,0,1.8,0,4V44z M25,42V26h-4v-6h4
	C25,9.7,25.4,9,38,9v6c-6.6,0-6,0.4-6,5h6v6h-6v16H25z"/>
</svg>
