<?xml version="1.0" encoding="utf-8"?>
<!-- Generator: Adobe Illustrator 25.3.1, SVG Export Plug-In . SVG Version: 6.00 Build 0)  -->
<svg version="1.1" id="Layer_1" xmlns="http://www.w3.org/2000/svg" xmlns:xlink="http://www.w3.org/1999/xlink" x="0px" y="0px"
	 viewBox="0 0 37.5 37.5" style="enable-background:new 0 0 37.5 37.5;" xml:space="preserve">
<style type="text/css">
	.st0{fill:#1DA1F2;}
	.st1{fill:#FFFFFF;}
	.st2{fill:#3E5C9A;}
	.st3{fill:url(#XMLID_5_);}
	.st4{fill:#CD2129;}
</style>
<g id="XMLID_1419_">
	<path id="XMLID_1421_" class="st2" d="M18.7,37.3L18.7,37.3C8.5,37.3,0.2,29,0.2,18.7l0,0C0.2,8.5,8.5,0.2,18.7,0.2l0,0
		c10.2,0,18.5,8.3,18.5,18.5l0,0C37.2,29,29,37.3,18.7,37.3z"/>
	<path id="XMLID_1420_" class="st1" d="M15.9,29.9h4.5V18.7h3.1l0.3-3.8h-3.5c0,0,0-1.4,0-2.2c0-0.9,0.2-1.2,1-1.2
		c0.7,0,2.4,0,2.4,0V7.6c0,0-2.6,0-3.1,0c-3.4,0-4.9,1.5-4.9,4.3c0,2.5,0,3,0,3h-2.3v3.8h2.3V29.9z"/>
</g>
</svg>
