<?xml version="1.0" encoding="utf-8"?>
<!-- Generator: Adobe Illustrator 25.2.3, SVG Export Plug-In . SVG Version: 6.00 Build 0)  -->
<svg version="1.1" id="圖層_1" xmlns="http://www.w3.org/2000/svg" xmlns:xlink="http://www.w3.org/1999/xlink" x="0px" y="0px"
	 viewBox="0 0 40 40.3" style="enable-background:new 0 0 40 40.3;" xml:space="preserve">
<style type="text/css">
	.st0{fill:url(#SVGID_1_);}
	.st1{fill:#FFFFFF;}
</style>
<radialGradient id="SVGID_1_" cx="-518.0142" cy="-277.6271" r="1.677648e-02" gradientTransform="matrix(2479.8511 0 0 2479.8464 1284606.375 688511.625)" gradientUnits="userSpaceOnUse">
	<stop  offset="0" style="stop-color:#0099FF"/>
	<stop  offset="0.61" style="stop-color:#A033FF"/>
	<stop  offset="0.935" style="stop-color:#FF5280"/>
	<stop  offset="1" style="stop-color:#FF7061"/>
</radialGradient>
<path class="st0" d="M20,1.1C9.3,1.1,0.9,9,0.9,19.6c0,5.6,2.3,10.4,6,13.7c0.3,0.3,0.5,0.7,0.5,1.1l0.1,3.4c0,1.1,1.1,1.8,2.1,1.4
	l3.8-1.7c0.3-0.1,0.7-0.2,1-0.1c1.7,0.5,3.6,0.7,5.5,0.7c10.7,0,19.1-7.9,19.1-18.5S30.7,1.1,20,1.1z"/>
<path class="st1" d="M8.5,25l5.6-8.9c0.9-1.4,2.8-1.8,4.1-0.8l4.5,3.3c0.4,0.3,1,0.3,1.4,0l6-4.6c0.8-0.6,1.9,0.4,1.3,1.2l-5.6,8.9
	C25,25.6,23.1,26,21.7,25l-4.5-3.3c-0.4-0.3-1-0.3-1.4,0l-6,4.6C9,26.8,8,25.9,8.5,25L8.5,25z"/>
</svg>
