<?xml version="1.0" encoding="utf-8"?>
<!-- Generator: Adobe Illustrator 25.3.1, SVG Export Plug-In . SVG Version: 6.00 Build 0)  -->
<svg version="1.1" id="圖層_1" xmlns="http://www.w3.org/2000/svg" xmlns:xlink="http://www.w3.org/1999/xlink" x="0px" y="0px"
	 viewBox="0 0 353.3 353.3" style="enable-background:new 0 0 353.3 353.3;" xml:space="preserve">
<style type="text/css">
	.st0{fill:#FF008C;stroke:#F79AD1;stroke-width:5;stroke-miterlimit:10;}
	.st1{display:none;}
	.st2{display:inline;fill:#FFCE00;}
	.st3{fill:#FF94DE;}
	.st4{fill:none;stroke:#FF43CE;stroke-width:10;stroke-linecap:round;stroke-miterlimit:10;}
	.st5{fill:#FFBDEE;}
	.st6{fill:#FF43CE;}
	.st7{fill:#FF8EE2;}
	.st8{fill:#FFA1E7;}
	.st9{fill:#FFD0F3;}
</style>
<path class="st0" d="M258.2,108.3c-21.7-18.9-53.9-15.5-73.8,5.5l-7.8,8.2l-7.8-8.2c-19.9-21-52.1-24.4-73.8-5.5
	c-24.8,21.7-26.2,60.6-3.9,84.1l76.6,80.8c5,5.2,13,5.2,17.9,0l76.6-80.8C284.4,168.9,283.1,130,258.2,108.3L258.2,108.3z"/>
<g class="st1">
	<polygon class="st2" points="171.9,347.4 176.9,289.5 181.9,347.4 	"/>
	<polygon class="st2" points="243.1,334.6 223.5,279.9 252.2,330.4 	"/>
	<polygon class="st2" points="293.9,301.1 256.5,256.7 301,294 	"/>
	<polygon class="st2" points="330.6,251.9 280,223.6 334.8,242.8 	"/>
	<polygon class="st2" points="347.6,181.6 289.8,176.6 347.6,171.6 	"/>
	<polygon class="st2" points="334.4,109.9 279.9,129.8 330.2,100.8 	"/>
	<polygon class="st2" points="302.9,57.2 258.4,94.6 295.8,50.2 	"/>
	<polygon class="st2" points="251,22.2 222.6,72.9 241.9,18.1 	"/>
	<polygon class="st2" points="181.6,5.1 176.6,62.9 171.6,5.1 	"/>
	<polygon class="st2" points="100,330.4 128.8,279.9 109.1,334.6 	"/>
	<polygon class="st2" points="51.3,294 95.7,256.7 58.3,301.1 	"/>
	<polygon class="st2" points="17.5,242.8 72.3,223.6 21.6,251.9 	"/>
	<polygon class="st2" points="4.6,171.6 62.5,176.6 4.6,181.6 	"/>
	<polygon class="st2" points="22,100.8 72.4,129.8 17.8,109.9 	"/>
	<polygon class="st2" points="56.4,50.2 93.8,94.6 49.4,57.2 	"/>
	<polygon class="st2" points="110.3,18.1 129.6,72.9 101.2,22.2 	"/>
</g>
<g>
	<path class="st3" d="M176.6,51.3c33.5,0,65,13,88.6,36.7c23.7,23.7,36.7,55.2,36.7,88.6s-13,65-36.7,88.6
		C241.6,289,210.1,302,176.6,302s-65-13-88.6-36.7c-23.7-23.7-36.7-55.2-36.7-88.6s13-65,36.7-88.6
		C111.7,64.3,143.2,51.3,176.6,51.3 M176.6,46.3c-72,0-130.4,58.4-130.4,130.4S104.7,307,176.6,307S307,248.6,307,176.6
		S248.6,46.3,176.6,46.3L176.6,46.3z"/>
</g>
<g>
	<g>
		<path class="st4" d="M313.3,197.3c-10,66.5-67.3,117.5-136.6,117.5c-76.3,0-138.2-61.9-138.2-138.1S100.4,38.5,176.6,38.5
			c67,0,122.9,47.8,135.5,111.1"/>
		<g>
			<g>
				<path class="st5" d="M311.2,195.4c6-6,13.3-10.6,21.1-13.8l-6.2,32.9c-8.3,3-15.5,8.8-21.4,15.2L311.2,195.4z"/>
				<path class="st5" d="M304.8,229.8c-3.1-8.2-7.9-16-14.4-22l6.2-32.8c6.2,6,11.3,12.7,14.7,20.5L304.8,229.8z"/>
				<path class="st6" d="M325.8,216.5c-8.3,3-15.5,8.8-21.4,15.2c-3.1-8.2-7.9-16-14.4-22l0.8-4.4c6.2,6,11.3,12.7,14.7,20.5
					c6-6,13.3-10.6,21.1-13.8L325.8,216.5z"/>
				<path class="st7" d="M327.8,205.8c-8.3,3-15.5,8.8-21.4,15.2c-3.1-8.2-7.9-16-14.4-22l0.8-4.4c6.2,6,11.3,12.7,14.7,20.5
					c6-6,13.3-10.6,21.1-13.8L327.8,205.8z"/>
				<path class="st8" d="M329.8,195.2c-8.3,3-15.5,8.8-21.4,15.2c-3.1-8.2-7.9-16-14.4-22l0.8-4.4c6.2,6,11.3,12.7,14.7,20.5
					c6-6,13.3-10.6,21.1-13.8L329.8,195.2z"/>
				<path class="st9" d="M331.8,184.5c-8.3,3-15.5,8.8-21.4,15.2c-3.1-8.2-7.9-16-14.4-22l0.8-4.4c6.2,6,11.3,12.7,14.7,20.5
					c6-6,13.3-10.6,21.1-13.8L331.8,184.5z"/>
			</g>
		</g>
		<g>
			<path class="st6" d="M314.8,176.6c-6.1-12.2-15.8-27.1-25.4-35.9l22.1,5.4l20.4-10C324.5,146.8,318.1,163.4,314.8,176.6z"/>
		</g>
	</g>
</g>
</svg>
