<?xml version="1.0" encoding="utf-8"?>
<!-- Generator: Adobe Illustrator 25.2.1, SVG Export Plug-In . SVG Version: 6.00 Build 0)  -->
<svg version="1.1" id="Capa_1" xmlns="http://www.w3.org/2000/svg" xmlns:xlink="http://www.w3.org/1999/xlink" x="0px" y="0px"
	 viewBox="0 0 400 400" style="enable-background:new 0 0 400 400;" xml:space="preserve">
<style type="text/css">
	.st0{fill:#FFFFFF;}
</style>
<g>
	<g>
		<path class="st0" d="M200,107L71.7,222.2c0,0.2,0,0.4-0.1,0.7c-0.1,0.4-0.1,0.5-0.1,0.7v116.7c0,4.3,1.4,7.9,4.2,10.9
			c2.8,3.1,6.1,4.6,10.1,4.6h85.8v-93.3h57.1V356h85.8c4,0,7.2-1.6,10.1-4.7c2.9-3.1,4.2-6.7,4.2-10.9V223.8c0-0.6-0.1-1.2-0.2-1.4
			L200,107z"/>
		<path class="st0" d="M377.4,195.9l-49-44.2V52.5c0-2.3-0.7-4.2-2-5.6c-1.3-1.4-3.1-2.2-5.2-2.2h-42.8c-2,0-3.8,0.7-5.2,2.2
			c-1.3,1.4-2,3.4-2,5.6v47.4l-54.5-49.6c-4.6-4.3-10.2-6.4-16.8-6.4s-12.2,2-16.9,6.4L22.6,195.9c-1.4,1.2-2.3,3-2.5,5.2
			c-0.1,2.2,0.4,4.1,1.6,5.8L35.5,225c1.2,1.4,2.8,2.4,4.7,2.8c1.8,0.2,3.6-0.4,5.4-1.7L200,85.7l154.4,140.3
			c1.2,1.2,2.8,1.7,4.7,1.7h0.7c1.9-0.4,3.5-1.2,4.7-2.8l13.9-18c1.2-1.7,1.8-3.5,1.6-5.8C379.7,199,378.9,197.2,377.4,195.9z"/>
	</g>
</g>
</svg>
