<?xml version="1.0" encoding="utf-8"?>
<!-- Generator: Adobe Illustrator 25.2.1, SVG Export Plug-In . SVG Version: 6.00 Build 0)  -->
<svg version="1.1" id="圖層_1" xmlns="http://www.w3.org/2000/svg" xmlns:xlink="http://www.w3.org/1999/xlink" x="0px" y="0px"
	 viewBox="0 0 400 400" style="enable-background:new 0 0 400 400;" xml:space="preserve">
<style type="text/css">
	.st0{fill:#FFFFFF;}
</style>
<path class="st0" d="M200,20C125.8,20.1,65.6,80.5,65.5,155c0,95.2,118.9,215.5,123.9,220.7c5.9,5.7,15.3,5.7,21.2,0
	c5-5.2,123.9-125.5,123.9-220.7C334.4,80.5,274.2,20.1,200,20z M200,245c-49.5,0-89.6-40.3-89.6-90s40.1-90,89.6-90
	s89.6,40.3,89.6,90S249.5,245,200,245z"/>
<path class="st0" d="M265.5,131l-62-31c-2.2-1.1-4.7-1.1-6.9,0l-62,31l6.9,13.9l19.8-9.9v49.5c0,4.3,3.5,7.8,7.8,7.8h62
	c4.3,0,7.8-3.5,7.8-7.8V135l19.8,9.9L265.5,131z"/>
</svg>
