<?xml version="1.0" encoding="utf-8"?>
<!-- Generator: Adobe Illustrator 25.3.1, SVG Export Plug-In . SVG Version: 6.00 Build 0)  -->
<svg version="1.1" id="Layer_1" xmlns="http://www.w3.org/2000/svg" xmlns:xlink="http://www.w3.org/1999/xlink" x="0px" y="0px"
	 viewBox="0 0 37.5 37.5" style="enable-background:new 0 0 37.5 37.5;" xml:space="preserve">
<style type="text/css">
	.st0{fill:#1DA1F2;}
	.st1{fill:#FFFFFF;}
	.st2{fill:#3E5C9A;}
	.st3{fill:url(#XMLID_5_);}
	.st4{fill:#CD2129;}
</style>
<g id="XMLID_1346_">
	
		<radialGradient id="XMLID_5_" cx="-157.3148" cy="150.3458" r="326.8109" gradientTransform="matrix(0.2093 0 0 0.2093 32.254 5.9018)" gradientUnits="userSpaceOnUse">
		<stop  offset="0" style="stop-color:#F5EC53"/>
		<stop  offset="0.2412" style="stop-color:#E48244"/>
		<stop  offset="0.3974" style="stop-color:#D15767"/>
		<stop  offset="0.4888" style="stop-color:#C84278"/>
		<stop  offset="1" style="stop-color:#192CFA"/>
	</radialGradient>
	<path id="XMLID_1418_" class="st3" d="M18.8,37.2L18.8,37.2C8.5,37.2,0.3,29,0.3,18.7l0,0C0.3,8.5,8.5,0.2,18.7,0.2h0
		c10.2,0,18.5,8.3,18.5,18.5l0,0C37.3,29,29,37.2,18.8,37.2z"/>
	<g id="XMLID_1347_">
		<path id="XMLID_1352_" class="st1" d="M18.8,10.4c2.7,0,3,0,4.1,0.1c1,0,1.5,0.2,1.9,0.3c0.5,0.2,0.8,0.4,1.2,0.8
			c0.4,0.4,0.6,0.7,0.8,1.2c0.1,0.4,0.3,0.9,0.3,1.9c0,1.1,0.1,1.4,0.1,4.1c0,2.7,0,3-0.1,4.1c0,1-0.2,1.5-0.3,1.9
			c-0.2,0.5-0.4,0.8-0.8,1.2c-0.4,0.4-0.7,0.6-1.2,0.8c-0.4,0.1-0.9,0.3-1.9,0.3c-1.1,0-1.4,0.1-4.1,0.1c-2.7,0-3,0-4.1-0.1
			c-1,0-1.5-0.2-1.9-0.3c-0.5-0.2-0.8-0.4-1.2-0.8c-0.4-0.4-0.6-0.7-0.8-1.2c-0.1-0.4-0.3-0.9-0.3-1.9c0-1.1-0.1-1.4-0.1-4.1
			c0-2.7,0-3,0.1-4.1c0-1,0.2-1.5,0.3-1.9c0.2-0.5,0.4-0.8,0.8-1.2c0.4-0.4,0.7-0.6,1.2-0.8c0.4-0.1,0.9-0.3,1.9-0.3
			C15.7,10.4,16,10.4,18.8,10.4 M18.8,8.6c-2.8,0-3.1,0-4.2,0.1c-1.1,0-1.8,0.2-2.5,0.5c-0.7,0.3-1.2,0.6-1.8,1.2
			c-0.6,0.6-0.9,1.1-1.2,1.8c-0.3,0.6-0.4,1.4-0.5,2.5c0,1.1-0.1,1.4-0.1,4.2c0,2.8,0,3.1,0.1,4.2c0,1.1,0.2,1.8,0.5,2.5
			c0.3,0.7,0.6,1.2,1.2,1.8c0.6,0.6,1.1,0.9,1.8,1.2c0.6,0.3,1.4,0.4,2.5,0.5c1.1,0,1.4,0.1,4.2,0.1c2.8,0,3.1,0,4.2-0.1
			c1.1,0,1.8-0.2,2.5-0.5c0.7-0.3,1.2-0.6,1.8-1.2c0.6-0.6,0.9-1.1,1.2-1.8c0.3-0.6,0.4-1.4,0.5-2.5c0-1.1,0.1-1.4,0.1-4.2
			c0-2.8,0-3.1-0.1-4.2c0-1.1-0.2-1.8-0.5-2.5c-0.3-0.7-0.6-1.2-1.2-1.8c-0.6-0.6-1.1-0.9-1.8-1.2c-0.6-0.3-1.4-0.4-2.5-0.5
			C21.9,8.6,21.5,8.6,18.8,8.6"/>
		<path id="XMLID_1349_" class="st1" d="M18.8,13.5c-2.9,0-5.2,2.3-5.2,5.2c0,2.9,2.3,5.2,5.2,5.2c2.9,0,5.2-2.3,5.2-5.2
			C24,15.9,21.6,13.5,18.8,13.5 M18.8,22.1c-1.9,0-3.4-1.5-3.4-3.4c0-1.9,1.5-3.4,3.4-3.4c1.9,0,3.4,1.5,3.4,3.4
			C22.1,20.6,20.6,22.1,18.8,22.1"/>
		<path id="XMLID_1348_" class="st1" d="M25.4,13.3c0,0.7-0.5,1.2-1.2,1.2c-0.7,0-1.2-0.5-1.2-1.2c0-0.7,0.5-1.2,1.2-1.2
			C24.8,12.1,25.4,12.7,25.4,13.3"/>
	</g>
</g>
</svg>
