<?xml version="1.0" encoding="utf-8"?>
<!-- Generator: Adobe Illustrator 25.2.3, SVG Export Plug-In . SVG Version: 6.00 Build 0)  -->
<svg version="1.1" id="圖層_1" focusable="false" xmlns="http://www.w3.org/2000/svg" xmlns:xlink="http://www.w3.org/1999/xlink"
	 x="0px" y="0px" viewBox="0 0 384 512" style="enable-background:new 0 0 384 512;" xml:space="preserve">
<style type="text/css">
	.st0{fill:#FFFFFF;}
</style>
<path class="st0" d="M172,332.7c-8.8-24.1-15.6-50.1-20-77.5c0,0-137.7,27.6-141.9-106.4c91.2-31.5,136.4,57.5,136.4,57.5
	c-0.5-9.6-0.5-31.8,0-33.4c0,0-63.2-119.4,61.4-162.4c68.2,91.5-38.1,165.2-38.1,165.2c0,0.8,1.7,36.7,3.3,53.4
	c0,0,33.5-124.6,152.6-76.7c-9.8,120-149.5,98.1-149.5,98.1c4.6,28.8,11.7,55.3,21.6,79.7c19.2-34.3,69.3-90.4,178.3-45.5
	c-43,110.1-120.5,98.1-161.6,82.2c36.7,67.4,92.8,109.8,157.2,110.1c16.6,0,16.1,24.4,0,24.4c-77.2-0.3-144.1-52.9-184.6-134.7
	c0,0-132,82.7-187.1-54C89,240.9,172,332.7,172,332.7z"/>
</svg>
