<?xml version="1.0" encoding="utf-8"?>
<!-- Generator: Adobe Illustrator 25.2.3, SVG Export Plug-In . SVG Version: 6.00 Build 0)  -->
<svg version="1.1" id="圖層_1" focusable="false" xmlns="http://www.w3.org/2000/svg" xmlns:xlink="http://www.w3.org/1999/xlink"
	 x="0px" y="0px" viewBox="0 0 384 512" style="enable-background:new 0 0 384 512;" xml:space="preserve">
<style type="text/css">
	.st0{fill:#FFFFFF;}
</style>
<path class="st0" d="M384,312.7c-55.1,136.7-187.1,54-187.1,54C156.4,448.5,89.5,501.1,12.3,501.4c-16.1,0-16.6-24.4,0-24.4
	c64.4-0.3,120.5-42.7,157.2-110.1c-41.1,15.9-118.6,27.9-161.6-82.2c109-44.9,159.1,11.2,178.3,45.5c9.9-24.4,17-50.9,21.6-79.7
	c0,0-139.7,21.9-149.5-98.1c119.1-47.9,152.6,76.7,152.6,76.7c1.6-16.7,3.3-52.6,3.3-53.4c0,0-106.3-73.7-38.1-165.2
	c124.6,43,61.4,162.4,61.4,162.4c0.5,1.6,0.5,23.8,0,33.4c0,0,45.2-89,136.4-57.5C369.7,282.8,232,255.2,232,255.2
	c-4.4,27.4-11.2,53.4-20,77.5C212,332.7,295,240.9,384,312.7z"/>
</svg>
