<?xml version="1.0" encoding="utf-8"?>
<!-- Generator: Adobe Illustrator 25.2.3, SVG Export Plug-In . SVG Version: 6.00 Build 0)  -->
<svg version="1.1" id="圖層_1" focusable="false" xmlns="http://www.w3.org/2000/svg" xmlns:xlink="http://www.w3.org/1999/xlink"
	 x="0px" y="0px" viewBox="0 0 40 50" style="enable-background:new 0 0 40 50;" xml:space="preserve">
<style type="text/css">
	.st0{fill:#FFFFFF;}
</style>
<path class="st0" d="M17.9,32.8c-0.9-2.5-1.6-5.1-2.1-7.9c0,0-14.3,2.8-14.8-10.8c9.5-3.2,14.2,5.9,14.2,5.9c-0.1-1-0.1-3.2,0-3.4
	c0,0-6.6-12.2,6.4-16.5c7.1,9.3-4,16.8-4,16.8c0,0.1,0.2,3.7,0.3,5.4c0,0,3.5-12.7,15.9-7.8c-1,12.2-15.6,10-15.6,10
	c0.5,2.9,1.2,5.6,2.3,8.1c2-3.5,7.2-9.2,18.6-4.6c-4.5,11.2-12.6,10-16.8,8.4c3.8,6.9,9.7,11.2,16.4,11.2c1.7,0,1.7,2.5,0,2.5
	c-8,0-15-5.4-19.2-13.7c0,0-13.8,8.4-19.5-5.5C9.3,23.4,17.9,32.8,17.9,32.8z"/>
</svg>
