<?xml version="1.0" encoding="utf-8"?>
<!-- Generator: Adobe Illustrator 25.2.3, SVG Export Plug-In . SVG Version: 6.00 Build 0)  -->
<svg version="1.1" id="圖層_1" focusable="false" xmlns="http://www.w3.org/2000/svg" xmlns:xlink="http://www.w3.org/1999/xlink"
	 x="0px" y="0px" viewBox="0 0 40 50" style="enable-background:new 0 0 40 50;" xml:space="preserve">
<style type="text/css">
	.st0{fill:#FFFFFF;}
</style>
<path class="st0" d="M40,30.7c-5.7,13.9-19.5,5.5-19.5,5.5C16.3,44.6,9.3,49.9,1.3,50c-1.7,0-1.7-2.5,0-2.5
	c6.7,0,12.6-4.3,16.4-11.2c-4.3,1.6-12.4,2.8-16.8-8.4c11.4-4.6,16.6,1.1,18.6,4.6c1-2.5,1.8-5.2,2.3-8.1c0,0-14.6,2.2-15.6-10
	C18.5,9.5,22,22.2,22,22.2c0.2-1.7,0.3-5.4,0.3-5.4c0,0-11.1-7.5-4-16.8c13,4.4,6.4,16.5,6.4,16.5c0.1,0.2,0.1,2.4,0,3.4
	c0,0,4.7-9.1,14.2-5.9c-0.4,13.6-14.8,10.8-14.8,10.8c-0.5,2.8-1.2,5.4-2.1,7.9C22.1,32.8,30.7,23.4,40,30.7z"/>
</svg>
