<?xml version="1.0" encoding="utf-8"?>
<!-- Generator: Adobe Illustrator 25.3.1, SVG Export Plug-In . SVG Version: 6.00 Build 0)  -->
<svg version="1.1" id="圖層_1" focusable="false" xmlns="http://www.w3.org/2000/svg" xmlns:xlink="http://www.w3.org/1999/xlink"
	 x="0px" y="0px" viewBox="0 0 40 40" style="enable-background:new 0 0 40 40;" xml:space="preserve">
<style type="text/css">
	.st0{fill:#07B53B;}
	.st1{fill:#FFFFFF;}
</style>
<g>
	<path class="st0" d="M39.5,17.2c0-8.7-8.7-15.9-19.5-15.9S0.5,8.5,0.5,17.2c0,7.8,6.9,14.4,16.3,15.6c2.3,0.5,2,1.3,1.5,4.4
		c-0.1,0.5-0.4,1.9,1.7,1.1c2-0.9,11.2-6.6,15.3-11.3C38.2,23.8,39.5,20.7,39.5,17.2z"/>
	<path class="st1" d="M25.8,13.4v8.5c0,0.2-0.2,0.4-0.4,0.4h-1.3c-0.1,0-0.3-0.1-0.3-0.2l-3.9-5.2v5c0,0.2-0.2,0.4-0.4,0.4h-1.3
		c-0.2,0-0.4-0.2-0.4-0.4v-8.5c0-0.2,0.2-0.4,0.4-0.4h1.3c0.1,0,0.3,0.1,0.3,0.2l3.9,5.2v-5c0-0.2,0.2-0.4,0.4-0.4h1.3
		C25.7,13,25.8,13.2,25.8,13.4L25.8,13.4z"/>
	<path class="st1" d="M16,13h-1.3c-0.2,0-0.4,0.2-0.4,0.4v8.5c0,0.2,0.2,0.4,0.4,0.4H16c0.2,0,0.4-0.2,0.4-0.4v-8.5
		C16.4,13.2,16.2,13,16,13L16,13z"/>
	<path class="st1" d="M12.8,20.1H9.1v-6.8c0-0.2-0.2-0.4-0.4-0.4H7.4C7.1,13,7,13.2,7,13.4v8.5C7,22,7,22.1,7.1,22.2
		c0.1,0.1,0.2,0.1,0.3,0.1h5.5c0.2,0,0.4-0.2,0.4-0.4v-1.3C13.1,20.3,13,20.1,12.8,20.1L12.8,20.1z"/>
	<path class="st1" d="M33,13h-5.5c-0.2,0-0.4,0.2-0.4,0.4v8.5c0,0.2,0.2,0.4,0.4,0.4H33c0.2,0,0.4-0.2,0.4-0.4v-1.3
		c0-0.2-0.2-0.4-0.4-0.4h-3.7v-1.4H33c0.2,0,0.4-0.2,0.4-0.4V17c0-0.2-0.2-0.4-0.4-0.4h-3.7v-1.4H33c0.2,0,0.4-0.2,0.4-0.4v-1.3
		C33.4,13.2,33.2,13,33,13L33,13z"/>
</g>
</svg>
