<?xml version="1.0" encoding="utf-8"?>
<!-- Generator: Adobe Illustrator 25.2.3, SVG Export Plug-In . SVG Version: 6.00 Build 0)  -->
<svg version="1.1" id="圖層_1" focusable="false" xmlns="http://www.w3.org/2000/svg" xmlns:xlink="http://www.w3.org/1999/xlink"
	 x="0px" y="0px" viewBox="0 0 284 100" style="enable-background:new 0 0 284 100;" xml:space="preserve">
<style type="text/css">
	.st0{fill:#07B53B;}
	.st1{fill:#FFFFFF;}
	.st2{display:none;fill:#07B53B;}
	.st3{fill:none;}
	.st4{fill:#FFFFFF;stroke:#FFFFFF;stroke-miterlimit:10;}
	.st5{font-family:'MicrosoftJhengHeiBold';}
	.st6{font-size:36px;}
	.st7{letter-spacing:2;}
</style>
<path class="st0" d="M234,100H50C22.4,100,0,77.6,0,50v0C0,22.4,22.4,0,50,0h184c27.6,0,50,22.4,50,50v0C284,77.6,261.6,100,234,100
	z"/>
<path class="st1" d="M86.2,46.4c0-16.3-16.3-29.6-36.4-29.6S13.4,30.1,13.4,46.4c0,14.6,12.9,26.8,30.4,29.2
	c4.3,0.9,3.8,2.5,2.8,8.2c-0.2,0.9-0.7,3.6,3.1,2s21-12.3,28.6-21.1C83.7,58.7,86.2,52.9,86.2,46.4z"/>
<path class="st0" d="M60.7,39.2v15.9c0,0.4-0.3,0.7-0.7,0.7h-2.5c-0.2,0-0.5-0.1-0.6-0.3l-7.3-9.8v9.4c0,0.4-0.3,0.7-0.7,0.7h-2.5
	c-0.4,0-0.7-0.3-0.7-0.7V39.2c0-0.4,0.3-0.7,0.7-0.7h2.5c0.2,0,0.5,0.1,0.6,0.3l7.3,9.8v-9.4c0-0.4,0.3-0.7,0.7-0.7H60
	C60.4,38.5,60.7,38.8,60.7,39.2L60.7,39.2z"/>
<path class="st0" d="M42.4,38.5h-2.5c-0.4,0-0.7,0.3-0.7,0.7v15.9c0,0.4,0.3,0.7,0.7,0.7h2.5c0.4,0,0.7-0.3,0.7-0.7V39.2
	C43.1,38.8,42.8,38.5,42.4,38.5L42.4,38.5z"/>
<path class="st0" d="M36.3,51.8h-6.9V39.2c0-0.4-0.3-0.7-0.7-0.7h-2.5c-0.4,0-0.7,0.3-0.7,0.7v15.9c0,0.2,0.1,0.4,0.2,0.5
	c0.1,0.1,0.3,0.2,0.5,0.2h10.2c0.4,0,0.7-0.3,0.7-0.7v-2.5C37,52.1,36.7,51.8,36.3,51.8L36.3,51.8z"/>
<path class="st0" d="M74.1,38.5H63.9c-0.4,0-0.7,0.3-0.7,0.7v15.9c0,0.4,0.3,0.7,0.7,0.7h10.2c0.4,0,0.7-0.3,0.7-0.7v-2.5
	c0-0.4-0.3-0.7-0.7-0.7h-6.9v-2.7h6.9c0.4,0,0.7-0.3,0.7-0.7v-2.6c0-0.4-0.3-0.7-0.7-0.7h-6.9v-2.7h6.9c0.4,0,0.7-0.3,0.7-0.7v-2.5
	C74.8,38.8,74.5,38.5,74.1,38.5L74.1,38.5z"/>
<path class="st2" d="M100,19v63.7c0,10-8.2,18.1-18.2,18.1H18.1C8.1,100.7,0,92.5,0,82.5V18.8C0,8.8,8.2,0.7,18.2,0.7h63.7
	C91.9,0.8,100,9,100,19z"/>
<rect x="102" y="17" class="st3" width="155" height="66"/>
<text transform="matrix(1 0 0 1 103.457 66.0225)" class="st4 st5 st6 st7">加入好友</text>
</svg>
