<?xml version="1.0" encoding="utf-8"?>
<!-- Generator: Adobe Illustrator 25.2.3, SVG Export Plug-In . SVG Version: 6.00 Build 0)  -->
<svg version="1.1" id="圖層_1" focusable="false" xmlns="http://www.w3.org/2000/svg" xmlns:xlink="http://www.w3.org/1999/xlink"
	 x="0px" y="0px" viewBox="0 0 50 50" style="enable-background:new 0 0 50 50;" xml:space="preserve">
<style type="text/css">
	.st0{fill:#FFFFFF;}
</style>
<path class="st0" d="M43.6,50H6.4c-2.4,0-4.3-2.4-4.3-5.4V5.4C2.1,2.4,4,0,6.4,0h37.3c2.4,0,4.3,2.4,4.3,5.4v39.3
	C47.9,47.6,46,50,43.6,50z M13.5,9.8c-2,0-3.6,2-3.6,4.5s1.6,4.5,3.6,4.5s3.6-2,3.6-4.5S15.5,9.8,13.5,9.8z M13.5,20.5
	c-2,0-3.6,2-3.6,4.5s1.6,4.5,3.6,4.5s3.6-2,3.6-4.5S15.5,20.5,13.5,20.5z M13.5,31.2c-2,0-3.6,2-3.6,4.5c0,2.5,1.6,4.5,3.6,4.5
	s3.6-2,3.6-4.5C17.1,33.2,15.5,31.2,13.5,31.2z M39.3,16.1v-3.6c0-0.7-0.5-1.3-1.1-1.3H20.3c-0.6,0-1.1,0.6-1.1,1.3v3.6
	c0,0.7,0.5,1.3,1.1,1.3h17.9C38.9,17.4,39.3,16.8,39.3,16.1z M39.3,26.8v-3.6c0-0.7-0.5-1.3-1.1-1.3H20.3c-0.6,0-1.1,0.6-1.1,1.3
	v3.6c0,0.7,0.5,1.3,1.1,1.3h17.9C38.9,28.1,39.3,27.5,39.3,26.8z M39.3,37.5v-3.6c0-0.7-0.5-1.3-1.1-1.3H20.3
	c-0.6,0-1.1,0.6-1.1,1.3v3.6c0,0.7,0.5,1.3,1.1,1.3h17.9C38.9,38.8,39.3,38.2,39.3,37.5z"/>
</svg>
