<?xml version="1.0" encoding="utf-8"?>
<!-- Generator: Adobe Illustrator 25.3.1, SVG Export Plug-In . SVG Version: 6.00 Build 0)  -->
<svg version="1.1" id="圖層_1" xmlns="http://www.w3.org/2000/svg" xmlns:xlink="http://www.w3.org/1999/xlink" x="0px" y="0px"
	 viewBox="0 0 104.6 100" style="enable-background:new 0 0 104.6 100;" xml:space="preserve">
<style type="text/css">
	.st0{fill:none;stroke:#1DE500;stroke-width:7;stroke-linecap:round;stroke-miterlimit:10;}
	.st1{fill:none;stroke:#9AFF02;stroke-width:3;stroke-linecap:round;stroke-miterlimit:10;}
	.st2{fill:#9AFF02;}
	.st3{fill:none;stroke:#1DE500;stroke-width:4;stroke-linecap:round;stroke-miterlimit:10;}
	.st4{fill:#B0F6A6;}
	.st5{fill:#77EF66;}
	.st6{fill:#1DE500;}
</style>
<path class="st0" d="M25.5,61.9c0.3-0.3,16.9,20.9,19.5,18.4c13-12.7,34.1-50.6,34.1-50.6"/>
<g>
	<g>
		<path class="st1" d="M91.3,66.9c-6.5,15.1-21.5,25.6-39,25.6c-23.5,0-42.5-19-42.5-42.5s19-42.5,42.5-42.5
			c20.6,0,37.7,14.6,41.6,34.1"/>
		<g>
			<polygon class="st2" points="94.8,50 88.6,38.7 93.8,41 98.3,37.6 			"/>
		</g>
	</g>
</g>
<g>
	<g>
		<path class="st3" d="M94.6,70.9c-7.7,15.6-23.8,26.3-42.3,26.3C26.2,97.2,5.1,76.1,5.1,50S26.2,2.8,52.3,2.8
			c22.8,0,41.8,16.1,46.2,37.6"/>
		<g>
			<g>
				<path class="st4" d="M94,69.9c3-1.5,6.4-2.4,9.7-2.6L97.2,79c-3.5,0.1-7,1.4-10,3.1L94,69.9z"/>
				<path class="st5" d="M87.2,82.1c-0.1-3.5-1-7.1-2.7-10.2l6.5-11.7c1.6,3,2.7,6.2,3,9.6L87.2,82.1z"/>
				<path class="st6" d="M96.9,79.7c-3.5,0.1-7,1.4-10,3.1c-0.1-3.5-1-7.1-2.7-10.2l0.9-1.6c1.6,3,2.7,6.2,3,9.6
					c3-1.5,6.4-2.4,9.7-2.6L96.9,79.7z"/>
				<path class="st6" d="M99,75.9c-3.5,0.1-7,1.4-10,3.1c-0.1-3.5-1-7.1-2.7-10.1l0.9-1.6c1.6,3,2.7,6.2,3,9.6
					c3-1.5,6.4-2.4,9.7-2.6L99,75.9z"/>
				<path class="st6" d="M101,72.1c-3.5,0.1-7,1.4-10,3.1c-0.1-3.5-1-7.1-2.7-10.1l0.9-1.6c1.6,3,2.7,6.2,3,9.6
					c3-1.5,6.4-2.4,9.7-2.6L101,72.1z"/>
				<path class="st6" d="M103.1,68.3c-3.5,0.1-7,1.4-10,3.1c-0.1-3.5-1-7.1-2.7-10.1l0.9-1.6c1.6,3,2.7,6.2,3,9.6
					c3-1.5,6.4-2.4,9.7-2.6L103.1,68.3z"/>
			</g>
		</g>
		<g>
			<path class="st6" d="M99.5,50c-2.2-4.3-5.7-9.6-9.1-12.7l7.9,1.9l7.2-3.6C102.9,39.4,100.7,45.3,99.5,50z"/>
		</g>
	</g>
</g>
</svg>
