<?xml version="1.0" encoding="utf-8"?>
<!-- Generator: Adobe Illustrator 25.2.3, SVG Export Plug-In . SVG Version: 6.00 Build 0)  -->
<svg version="1.1" id="圖層_1" xmlns="http://www.w3.org/2000/svg" xmlns:xlink="http://www.w3.org/1999/xlink" x="0px" y="0px"
	 viewBox="0 0 400 400" style="enable-background:new 0 0 400 400;" xml:space="preserve">
<style type="text/css">
	.st0{fill:#FFFFFF;}
</style>
<path class="st0" d="M200,10c104.9,0,190,85.1,190,190c0,104.4-84.7,190-190,190C94.9,390,10,304.4,10,200C10,95.1,95.1,10,200,10z
	 M331.2,296.6c19.7-27.1,31.6-60.4,31.6-96.6c0-89.6-73.3-162.9-162.9-162.9S37.1,110.4,37.1,200c0,36.2,11.9,69.4,31.6,96.6
	c7.6-38,26.1-69.4,64.8-69.4c17.2,16.8,40.5,27.1,66.4,27.1s49.2-10.3,66.4-27.1C305.1,227.1,323.6,258.6,331.2,296.6z M281.5,159.4
	c0-45-36.4-81.5-81.5-81.5s-81.5,36.4-81.5,81.5s36.4,81.5,81.5,81.5S281.5,204.2,281.5,159.4z"/>
</svg>
