<?xml version="1.0" encoding="utf-8"?>
<!-- Generator: Adobe Illustrator 25.2.1, SVG Export Plug-In . SVG Version: 6.00 Build 0)  -->
<svg version="1.1" id="圖層_1" xmlns="http://www.w3.org/2000/svg" xmlns:xlink="http://www.w3.org/1999/xlink" x="0px" y="0px"
	 viewBox="0 0 400 400" style="enable-background:new 0 0 400 400;" xml:space="preserve">
<style type="text/css">
	.st0{fill:#DCC5EF;}
</style>
<path class="st0" d="M200,20c99.4,0,180,80.6,180,180c0,98.9-80.2,180-180,180c-99.6,0-180-81.1-180-180C20,100.6,100.6,20,200,20z
	 M324.3,291.5c18.7-25.7,29.9-57.2,29.9-91.5c0-84.9-69.4-154.3-154.3-154.3S45.7,115.1,45.7,200c0,34.3,11.3,65.7,29.9,91.5
	c7.2-36,24.7-65.7,61.4-65.7c16.3,15.9,38.4,25.7,62.9,25.7s46.6-9.8,62.9-25.7C299.6,225.7,317.1,255.5,324.3,291.5z M277.2,161.5
	c0-42.6-34.5-77.2-77.2-77.2s-77.2,34.5-77.2,77.2s34.5,77.2,77.2,77.2S277.2,204,277.2,161.5z"/>
</svg>
