<?xml version="1.0" encoding="utf-8"?>
<!-- Generator: Adobe Illustrator 25.3.1, SVG Export Plug-In . SVG Version: 6.00 Build 0)  -->
<svg version="1.1" id="Layer_1" xmlns="http://www.w3.org/2000/svg" xmlns:xlink="http://www.w3.org/1999/xlink" x="0px" y="0px"
	 viewBox="0 0 37.5 37.5" style="enable-background:new 0 0 37.5 37.5;" xml:space="preserve">
<style type="text/css">
	.st0{fill:#1DA1F2;}
	.st1{fill:#FFFFFF;}
	.st2{fill:#3E5C9A;}
	.st3{fill:url(#XMLID_5_);}
	.st4{fill:#CD2129;}
</style>
<g id="XMLID_1341_">
	<path id="XMLID_1343_" class="st4" d="M18.8,37.2L18.8,37.2C8.5,37.2,0.2,29,0.2,18.8l0,0C0.2,8.5,8.5,0.2,18.7,0.2h0
		c10.2,0,18.5,8.3,18.5,18.5l0,0C37.2,29,29,37.2,18.8,37.2z"/>
	<path id="XMLID_1342_" class="st1" d="M12.8,20.5c0.3,0.1,0.5,0,0.6-0.3c0.1-0.2,0.2-0.8,0.3-1c0.1-0.3,0.1-0.4-0.2-0.7
		c-0.5-0.6-0.8-1.4-0.8-2.5c0-3.2,2.4-6,6.2-6c3.4,0,5.3,2.1,5.3,4.8c0,3.6-1.6,6.7-4,6.7c-1.3,0-2.3-1.1-2-2.4
		c0.4-1.6,1.1-3.3,1.1-4.5c0-1-0.6-1.9-1.7-1.9c-1.4,0-2.4,1.4-2.4,3.3c0,1.2,0.4,2,0.4,2s-1.4,5.9-1.6,6.9c-0.5,2-0.1,4.5,0,4.8
		c0,0.2,0.2,0.2,0.3,0.1c0.1-0.2,1.7-2.1,2.3-4.1c0.2-0.6,0.9-3.5,0.9-3.5c0.4,0.8,1.7,1.6,3.1,1.6c4.1,0,6.8-3.7,6.8-8.6
		c0-3.7-3.2-7.2-8-7.2c-6,0-9,4.3-9,7.9C10.2,17.8,11.1,19.8,12.8,20.5z"/>
</g>
</svg>
