<?xml version="1.0" encoding="utf-8"?>
<!-- Generator: Adobe Illustrator 25.2.1, SVG Export Plug-In . SVG Version: 6.00 Build 0)  -->
<svg version="1.1" id="圖層_1" xmlns="http://www.w3.org/2000/svg" xmlns:xlink="http://www.w3.org/1999/xlink" x="0px" y="0px"
	 viewBox="0 0 400 400" style="enable-background:new 0 0 400 400;" xml:space="preserve">
<style type="text/css">
	.st0{fill:#FFFFFF;}
</style>
<g id="Page-1">
	<g id="_x30_03---Call" transform="translate(-1)">
		<path id="Shape" class="st0" d="M170,231c-34.4-34.4-42.1-68.7-43.9-82.5c-0.5-3.8,0.9-7.6,3.5-10.3l27.8-27.8
			c4.1-4.1,4.8-10.5,1.7-15.3l-44.3-68.8c-3.4-5.4-10.3-7.4-16.1-4.5L27.9,55.1c-4.7,2.2-7.4,7.2-6.8,12.3
			c3.7,35.3,19.1,122.4,104.7,207.9s172.5,100.9,207.9,104.7c5.1,0.5,10.1-2.2,12.3-6.8l33.5-71.1c2.9-5.7,0.9-12.6-4.5-16
			L306,241.7c-5-3.1-11.3-2.3-15.3,1.7l-27.9,27.7c-2.7,2.7-6.5,4-10.3,3.5C238.9,273,204.4,265.4,170,231L170,231z"/>
		<path id="Shape_1_" class="st0" d="M306.6,212.4c-6.9,0-12.4-5.5-12.4-12.4c-0.1-51.4-41.7-93-93.1-93.1
			c-6.9,0-12.4-5.5-12.4-12.4s5.5-12.4,12.4-12.4C266.2,82.1,318.9,134.9,319,200C318.9,206.9,313.4,212.4,306.6,212.4z"/>
		<path id="Shape_2_" class="st0" d="M368.6,212.4c-6.9,0-12.4-5.5-12.4-12.4c0-85.7-69.5-155.1-155.1-155.2
			c-6.9,0-12.4-5.5-12.4-12.4S194.1,20,201,20c99.3,0.1,179.9,80.7,180,180c0,3.3-1.4,6.5-3.7,8.8
			C375,211.1,371.9,212.4,368.6,212.4z"/>
	</g>
</g>
</svg>
