<?xml version="1.0" encoding="utf-8"?>
<!-- Generator: Adobe Illustrator 25.2.3, SVG Export Plug-In . SVG Version: 6.00 Build 0)  -->
<svg version="1.1" id="圖層_1" focusable="false" xmlns="http://www.w3.org/2000/svg" xmlns:xlink="http://www.w3.org/1999/xlink"
	 x="0px" y="0px" viewBox="0 0 50 50" style="enable-background:new 0 0 50 50;" xml:space="preserve">
<style type="text/css">
	.st0{fill:#FFFFFF;}
</style>
<path class="st0" d="M49.3,43.3l-9.7-9.7c-0.4-0.4-1-0.7-1.7-0.7h-1.6l-0.1,0.1c2.7-3.4,4.3-7.7,4.3-12.3c0-11.1-9-20.1-20.1-20.1
	S0.3,9.5,0.3,20.6c0,11.1,9,20.1,20.1,20.1c4.7,0,9-1.6,12.4-4.3v1.6c0,0.6,0.2,1.2,0.7,1.7l9.7,9.7c0.9,0.9,2.4,0.9,3.3,0l2.8-2.8
	C50.2,45.7,50.2,44.2,49.3,43.3z M20.4,36.7c-8.9,0-16.1-7.2-16.1-16.1S11.5,4.5,20.4,4.5c8.9,0,16.1,7.2,16.1,16.1
	S29.3,36.7,20.4,36.7z"/>
<g>
	<circle class="st0" cx="20.4" cy="11.2" r="3.2"/>
</g>
<g>
	<path class="st0" d="M18.9,34.6h3.1c0.9,0,1.7-0.8,1.7-1.7V17.5c0-0.9-0.8-1.7-1.7-1.7h-3.1c-0.9,0-1.7,0.8-1.7,1.7v15.4
		C17.2,33.8,17.9,34.6,18.9,34.6z"/>
</g>
</svg>
