<?xml version="1.0" encoding="utf-8"?>
<!-- Generator: Adobe Illustrator 25.2.3, SVG Export Plug-In . SVG Version: 6.00 Build 0)  -->
<svg version="1.1" id="圖層_1" xmlns="http://www.w3.org/2000/svg" xmlns:xlink="http://www.w3.org/1999/xlink" x="0px" y="0px"
	 viewBox="0 0 400 400" style="enable-background:new 0 0 400 400;" xml:space="preserve">
<style type="text/css">
	.st0{fill:#FFFFFF;stroke:#FFFFFF;stroke-width:3.4814;stroke-miterlimit:10;}
</style>
<path class="st0" d="M31,35.2l16.7-0.1l13.6,56.3l0,0L99.6,251c-5.9,2.4-11.3,6.3-15.7,11.7c-7.4,9.1-11.4,21.1-11.4,33.6
	c0.1,26,18,47,39.7,47c0.1,0,0.2,0,0.3,0l11.2-0.1c-0.1,1.6-0.1,2.9-0.1,4.3c0.1,11.9,4,23,11.2,31.2c7,8.3,16.2,12.8,26.2,12.8
	c0.1,0,0.2,0,0.3,0c20.6-0.1,37.1-20.3,36.8-44.8c0-1.6-0.1-2.9-0.2-4.3l59.2-0.6c-0.1,1.6-0.1,2.9-0.1,4.3c0.1,11.9,4,23,11.2,31.2
	c7,8.3,16.2,12.8,26.2,12.8c0.1,0,0.2,0,0.3,0c20.6-0.1,37.1-20.3,36.8-44.8c0-1.6-0.1-2.9-0.2-4.3l32.1-0.2c5.4,0,9.8-5.2,9.7-11.7
	c0-6.6-4.4-11.6-9.9-11.5l-178.6,1.8l0,0l-48.1,0.4l0,0l-23.9,0.2c-11.3,0.1-20.2-10.7-20.5-23.7c0-6.6,2-12.6,5.9-17.1
	c3.8-4.7,8.9-7.2,14.3-7.3l230.5-2.5l0,0l19.9-0.1c5.4,0,9.8-5.2,9.7-11.7c0-6.3-4.4-11.5-9.8-11.5c0,0,0,0-0.1,0h-7l33.4-137
	c2-9.1,0.6-18-3.8-25.2C380.7,77,374,73,366.6,73c-0.1,0-0.1,0-0.2,0L78.2,76.1L64.5,20c-1.3-4.9-5.1-8.5-9.6-8.5l-34,0.6
	c-14,0.1-15.4,23.7,0,23.4 M349.2,128.3c-5.4,23.4-16.9,69.9-22.7,93c-1.3,5.1-5.2,8.5-9.3,8.5c-0.8,0-1.7-0.1-2.8-0.4
	c-5.2-1.8-8.2-8.3-6.8-14.4c5.8-23.3,16.9-69.9,22.7-93c1.5-6.2,7-9.8,12.1-7.9C347.7,115.7,350.7,121.8,349.2,128.3z"/>
</svg>
