<?xml version="1.0" encoding="utf-8"?>
<!-- Generator: Adobe Illustrator 25.2.3, SVG Export Plug-In . SVG Version: 6.00 Build 0)  -->
<svg version="1.1" id="圖層_1" xmlns="http://www.w3.org/2000/svg" xmlns:xlink="http://www.w3.org/1999/xlink" x="0px" y="0px"
	 viewBox="0 0 400 400" style="enable-background:new 0 0 400 400;" xml:space="preserve">
<style type="text/css">
	.st0{fill:#FFFFFF;stroke:#FFFFFF;stroke-width:3.4814;stroke-miterlimit:10;}
</style>
<path class="st0" d="M31,43.2l16.7-0.1l13.6,53.1l0,0l38.3,150.5c-5.9,2.3-11.3,5.9-15.7,11c-7.4,8.6-11.4,19.9-11.4,31.7
	c0.1,24.5,18,44.3,39.7,44.3c0.1,0,0.2,0,0.3,0l11.2-0.1c-0.1,1.5-0.1,2.7-0.1,4.1c0.1,11.2,4,21.7,11.2,29.4
	c7,7.8,16.2,12.1,26.2,12.1c0.1,0,0.2,0,0.3,0c20.6-0.1,37.1-19.1,36.8-42.2c0-1.5-0.1-2.7-0.2-4.1l59.2-0.6
	c-0.1,1.5-0.1,2.7-0.1,4.1c0.1,11.2,4,21.7,11.2,29.4c7,7.8,16.2,12.1,26.2,12.1c0.1,0,0.2,0,0.3,0c20.6-0.1,37.1-19.1,36.8-42.2
	c0-1.5-0.1-2.7-0.2-4.1l32.1-0.2c5.4,0,9.8-4.9,9.7-11c0-6.2-4.4-10.9-9.9-10.8l-178.6,1.7l0,0l-48.1,0.4l0,0l-23.9,0.2
	c-11.3,0.1-20.2-10.1-20.5-22.3c0-6.2,2-11.9,5.9-16.1c3.8-4.4,8.9-6.8,14.3-6.9l230.5-2.4l0,0l19.9-0.1c5.4,0,9.8-4.9,9.7-11
	c0-5.9-4.4-10.8-9.8-10.8c0,0,0,0-0.1,0h-7l33.4-129.2c2-8.6,0.6-17-3.8-23.8c-4.4-6.5-11.1-10.3-18.5-10.3c-0.1,0-0.1,0-0.2,0
	L78.2,81.8L64.5,28.9c-1.3-4.6-5.1-8-9.6-8l-34,0.6c-14,0.1-15.4,22.3,0,22.1 M349.2,131c-5.4,22.1-16.9,65.9-22.7,87.7
	c-1.3,4.8-5.2,8-9.3,8c-0.8,0-1.7-0.1-2.8-0.4c-5.2-1.7-8.2-7.8-6.8-13.6c5.8-22,16.9-65.9,22.7-87.7c1.5-5.8,7-9.2,12.1-7.4
	C347.7,119.1,350.7,124.9,349.2,131z"/>
</svg>
