<?xml version="1.0" encoding="utf-8"?>
<!-- Generator: Adobe Illustrator 25.2.1, SVG Export Plug-In . SVG Version: 6.00 Build 0)  -->
<svg version="1.1" id="圖層_1" xmlns="http://www.w3.org/2000/svg" xmlns:xlink="http://www.w3.org/1999/xlink" x="0px" y="0px"
	 viewBox="0 0 400 400" style="enable-background:new 0 0 400 400;" xml:space="preserve">
<style type="text/css">
	.st0{fill:#DCC5EF;stroke:#FFFFFF;stroke-width:3.4814;stroke-miterlimit:10;}
</style>
<path class="st0" d="M39.9,68.1l15.8-0.1l12.9,44.7l0,0l36.2,126.8c-5.6,1.9-10.7,5-14.9,9.3c-7,7.2-10.8,16.8-10.8,26.7
	c0.1,20.7,17.1,37.3,37.6,37.3c0.1,0,0.2,0,0.3,0l10.6-0.1c-0.1,1.2-0.1,2.3-0.1,3.4c0.1,9.5,3.8,18.3,10.6,24.8
	c6.6,6.6,15.4,10.1,24.8,10.1c0.1,0,0.2,0,0.3,0c19.5-0.1,35.2-16.1,34.9-35.6c0-1.2-0.1-2.3-0.2-3.4l56.1-0.5
	c-0.1,1.2-0.1,2.3-0.1,3.4c0.1,9.5,3.8,18.3,10.6,24.8c6.6,6.6,15.4,10.1,24.8,10.1c0.1,0,0.2,0,0.3,0c19.5-0.1,35.2-16.1,34.9-35.6
	c0-1.2-0.1-2.3-0.2-3.4l30.4-0.2c5.1,0,9.3-4.2,9.2-9.3c0-5.2-4.2-9.2-9.4-9.1l-169,1.6l0,0l-45.6,0.3l0,0l-22.7,0.2
	c-10.7,0.1-19.1-8.5-19.4-18.9c0-5.2,1.9-10,5.6-13.6c3.6-3.7,8.4-5.7,13.6-5.8l218.4-2l0,0l18.9-0.1c5.1,0,9.3-4.2,9.2-9.3
	c0-5-4.2-9.1-9.3-9.1c0,0,0,0-0.1,0h-6.6l31.7-108.9c1.9-7.2,0.6-14.3-3.6-20C371.3,101.1,365,98,358,98c-0.1,0-0.1,0-0.2,0
	l-273.2,2.6L71.7,55.9c-1.2-3.9-4.8-6.7-9.1-6.7l-32.3,0.5c-13.2,0.1-14.6,18.8,0,18.6 M341.3,142c-5.1,18.6-16,55.5-21.5,73.9
	c-1.2,4.1-4.9,6.7-8.8,6.7c-0.8,0-1.6-0.1-2.7-0.3c-4.9-1.4-7.8-6.6-6.4-11.5c5.5-18.5,16-55.5,21.5-73.9c1.4-4.9,6.6-7.8,11.5-6.3
	C339.9,132,342.7,136.9,341.3,142z"/>
</svg>
