<?xml version="1.0" encoding="utf-8"?>
<!-- Generator: Adobe Illustrator 25.2.3, SVG Export Plug-In . SVG Version: 6.00 Build 0)  -->
<svg version="1.1" id="color" xmlns="http://www.w3.org/2000/svg" xmlns:xlink="http://www.w3.org/1999/xlink" x="0px" y="0px"
	 viewBox="0 0 100 100" style="enable-background:new 0 0 100 100;" xml:space="preserve">
<style type="text/css">
	.st0{fill:#FFD54F;}
	.st1{fill:#6D4C41;}
</style>
<circle class="st0" cx="50" cy="50" r="49.5"/>
<g>
	<path class="st1" d="M38.6,46.9c-1.7,0-3.1-1.4-3.1-3.1c0-2.3-1.9-4.1-4.1-4.1s-4.1,1.9-4.1,4.1c0,1.7-1.4,3.1-3.1,3.1
		s-3.1-1.4-3.1-3.1c0-5.7,4.6-10.3,10.3-10.3s10.3,4.6,10.3,10.3C41.7,45.5,40.4,46.9,38.6,46.9z"/>
	<path class="st1" d="M75.8,46.9c-1.7,0-3.1-1.4-3.1-3.1c0-2.3-1.9-4.1-4.1-4.1c-2.3,0-4.1,1.9-4.1,4.1c0,1.7-1.4,3.1-3.1,3.1
		c-1.7,0-3.1-1.4-3.1-3.1c0-5.7,4.6-10.3,10.3-10.3c5.7,0,10.3,4.6,10.3,10.3C78.9,45.5,77.5,46.9,75.8,46.9z"/>
	<path class="st1" d="M50,74.8c-9,0-17.5-3.5-23.9-9.9c-1.2-1.2-1.2-3.2,0-4.4c1.2-1.2,3.2-1.2,4.4,0c5.2,5.2,12.1,8.1,19.5,8.1
		s14.3-2.9,19.5-8.1c1.2-1.2,3.2-1.2,4.4,0c1.2,1.2,1.2,3.2,0,4.4C67.5,71.3,59,74.8,50,74.8z"/>
</g>
</svg>
