<?xml version="1.0" encoding="utf-8"?>
<!-- Generator: Adobe Illustrator 25.2.3, SVG Export Plug-In . SVG Version: 6.00 Build 0)  -->
<svg version="1.1" id="color" xmlns="http://www.w3.org/2000/svg" xmlns:xlink="http://www.w3.org/1999/xlink" x="0px" y="0px"
	 viewBox="0 0 512 512" style="enable-background:new 0 0 512 512;" xml:space="preserve">
<style type="text/css">
	.st0{fill:#FFD54F;}
	.st1{fill:#E53935;}
	.st2{fill:#6D4C41;}
</style>
<circle class="st0" cx="256" cy="256" r="256"/>
<path class="st1" d="M464.4,3.6c-10.6,0-20.6,3.6-28.4,9.7c-7.9-6.1-17.9-9.7-28.4-9.7c-24.7,0-44.7,19.2-44.7,42.7
	c0,36.7,54.4,76.6,65.3,84.2c2.4,1.6,5.1,2.5,7.9,2.5s5.5-0.8,7.9-2.5c10.9-7.6,65.3-47.4,65.3-84.2C509.2,22.7,489.1,3.6,464.4,3.6
	z"/>
<path class="st1" d="M104.3,378.6c-10.6,0-20.6,3.6-28.4,9.7c-7.9-6.1-17.9-9.7-28.4-9.7c-24.7,0-44.7,19.2-44.7,42.7
	c0,36.7,54.4,76.6,65.3,84.2c2.4,1.6,5.1,2.5,7.9,2.5s5.5-0.8,7.9-2.5c10.9-7.6,65.3-47.4,65.3-84.2
	C149,397.8,128.9,378.6,104.3,378.6L104.3,378.6z"/>
<g>
	<path class="st2" d="M197.3,240c-8.8,0-16-7.2-16-16c0-11.8-9.6-21.3-21.3-21.3s-21.3,9.6-21.3,21.3c0,8.8-7.2,16-16,16
		s-16-7.2-16-16c0-29.4,23.9-53.3,53.3-53.3s53.3,23.9,53.3,53.3C213.3,232.8,206.2,240,197.3,240z"/>
	<path class="st2" d="M389.3,240c-8.8,0-16-7.2-16-16c0-11.8-9.6-21.3-21.3-21.3s-21.3,9.6-21.3,21.3c0,8.8-7.2,16-16,16
		c-8.8,0-16-7.2-16-16c0-29.4,23.9-53.3,53.3-53.3c29.4,0,53.3,23.9,53.3,53.3C405.3,232.8,398.2,240,389.3,240z"/>
	<path class="st2" d="M256,384c-46.6,0-90.4-18.1-123.3-51.1c-6.3-6.3-6.3-16.4,0-22.6s16.4-6.3,22.6,0C182.2,337.2,218,352,256,352
		s73.8-14.8,100.7-41.7c6.3-6.3,16.4-6.3,22.6,0c6.3,6.3,6.3,16.4,0,22.6C346.4,365.9,302.6,384,256,384z"/>
</g>
</svg>
