<?xml version="1.0" encoding="utf-8"?>
<!-- Generator: Adobe Illustrator 25.3.1, SVG Export Plug-In . SVG Version: 6.00 Build 0)  -->
<svg version="1.1" id="Layer_1" xmlns="http://www.w3.org/2000/svg" xmlns:xlink="http://www.w3.org/1999/xlink" x="0px" y="0px"
	 viewBox="0 0 37.5 37.5" style="enable-background:new 0 0 37.5 37.5;" xml:space="preserve">
<style type="text/css">
	.st0{fill:#1DA1F2;}
	.st1{fill:#FFFFFF;}
	.st2{fill:#3E5C9A;}
	.st3{fill:url(#XMLID_5_);}
	.st4{fill:#CD2129;}
</style>
<circle id="XMLID_3_" class="st0" cx="18.8" cy="18.8" r="18.5"/>
<path id="XMLID_2_" class="st1" d="M14.7,27.6c8.2,0,12.7-6.8,12.7-12.7c0-0.2,0-0.4,0-0.6c0.9-0.6,1.6-1.4,2.2-2.3
	c-0.8,0.4-1.7,0.6-2.6,0.7c0.9-0.6,1.6-1.4,2-2.5c-0.9,0.5-1.8,0.9-2.8,1.1c-0.8-0.9-2-1.4-3.3-1.4c-2.5,0-4.5,2-4.5,4.5
	c0,0.4,0,0.7,0.1,1c-3.7-0.2-7-2-9.2-4.7C9,11.4,8.8,12.2,8.8,13c0,1.5,0.8,2.9,2,3.7c-0.7,0-1.4-0.2-2-0.6c0,0,0,0,0,0.1
	c0,2.2,1.5,4,3.6,4.4c-0.4,0.1-0.8,0.2-1.2,0.2c-0.3,0-0.6,0-0.8-0.1c0.6,1.8,2.2,3.1,4.2,3.1c-1.5,1.2-3.4,1.9-5.5,1.9
	c-0.4,0-0.7,0-1.1-0.1C9.9,26.8,12.2,27.6,14.7,27.6"/>
</svg>
