<?xml version="1.0" encoding="utf-8"?>
<!-- Generator: Adobe Illustrator 25.1.0, SVG Export Plug-In . SVG Version: 6.00 Build 0)  -->
<svg version="1.1" id="圖層_1" xmlns="http://www.w3.org/2000/svg" xmlns:xlink="http://www.w3.org/1999/xlink" x="0px" y="0px"
	 viewBox="0 0 60 60" style="enable-background:new 0 0 60 60;" xml:space="preserve">
<style type="text/css">
	.st0{opacity:0.8;}
	.st1{fill:#F5F9F2;}
	.st2{fill:#98D3D2;}
	.st3{fill:#4D3729;}
	.st4{fill:#FAAF1E;}
	.st5{fill:#F395A0;}
	.st6{fill:#FFC947;}
	.st7{fill:#221E1F;}
</style>
<g>
	<g class="st0">
		<path class="st1" d="M25.3,23.8c-4.8-1.5-9.4-10.2-7.5-15.2c2-5.1,7.1-7.3,12.1-5.1c6.4,2.5,3,13.5,0.9,18L25.3,23.8z"/>
	</g>
	<path class="st2" d="M28.6,24.1c0,0-0.1-0.2-0.2-0.5c-0.1-0.3-0.3-0.8-0.5-1.3c-0.1-0.3-0.2-0.6-0.3-0.9c-0.1-0.3-0.2-0.7-0.2-1
		c-0.2-0.7-0.3-1.5-0.5-2.3c-0.2-1.5-0.4-3.1-0.5-4.3c0-0.6-0.1-1.1-0.1-1.4c0-0.3,0-0.5,0-0.5s0.1,0.2,0.1,0.5
		c0.1,0.3,0.2,0.8,0.3,1.4c0.1,0.6,0.2,1.2,0.4,2c0.1,0.7,0.3,1.5,0.4,2.2c0.1,0.8,0.3,1.5,0.4,2.2c0.1,0.4,0.1,0.7,0.2,1
		c0.1,0.3,0.1,0.6,0.2,0.9c0.1,0.6,0.2,1.1,0.3,1.4C28.6,23.9,28.6,24.1,28.6,24.1z"/>
	<g class="st0">
		<path class="st1" d="M23.9,27.7C22,29,15.7,27.2,14.1,26c-3.4-2.6-4.2-9.6-2.1-13.2c2.7-4.4,8-5.4,11-1.4c1.6,2.1,3.3,4.1,4,6.8
			c0.6,2.2,1.8,5.2,0.6,7.5L23.9,27.7z"/>
	</g>
	<path class="st2" d="M16.5,19.9c0,0,0.2,0.1,0.5,0.2c0.3,0.1,0.8,0.3,1.4,0.6c1.1,0.5,2.6,1.2,4,2c1.4,0.8,2.9,1.6,3.9,2.2
		c0.5,0.3,1,0.6,1.3,0.8c0.3,0.2,0.5,0.3,0.5,0.3s-0.2-0.1-0.5-0.2c-0.3-0.1-0.8-0.3-1.4-0.6c-1.1-0.5-2.6-1.2-4-2
		c-1.4-0.8-2.9-1.6-3.9-2.2c-0.5-0.3-1-0.6-1.3-0.8C16.7,20,16.5,19.9,16.5,19.9z"/>
	<path class="st3" d="M16.3,45c-3.5,3.7-6.4,7.8-11,12.6l0,0c1.7-1.7,11.2-8.3,13.8-10L16.3,45z"/>
	<g>
		<path class="st3" d="M14.3,35.2c0,0.1-0.1,0.2-0.1,0.2c-1,2.4-0.9,5.6-0.5,8.1c0.2,1.2,0.7,2.4,1.3,3.5c2.3,3.7,6.3,5.1,10.3,4.6
			C18.9,48.6,14.4,42.2,14.3,35.2z"/>
		<path class="st4" d="M17.5,29.9c-1.3,1.6-2.4,3.4-3.2,5.4c0.1,6.9,4.7,13.4,11,16.4c0.8-0.1,1.7-0.3,2.5-0.5
			c0.9-0.3,1.8-0.6,2.7-1C22.5,47.7,17.4,38.3,17.5,29.9z"/>
		<path class="st3" d="M30.6,34.2c-2.5-7.4-1.6-10.7-0.5-14.7c-1.3,0.8-2.5,1.7-3.8,2.6c-0.1,1.7-0.3,3.8-0.4,6.3
			c-0.3,8.4,5.1,15,12.2,17.8c2-1.1,3.9-2.3,5.7-3.6C38,42.2,32.5,39.8,30.6,34.2z"/>
		<path class="st3" d="M24,40c-1.7-3.4-3.5-9-3.4-13.4c-1.1,1-2.2,2.1-3.1,3.3c-0.1,8.5,5,17.8,13,20.3c1.3-0.5,2.5-1.2,3.8-1.8
			C29.7,46.7,26.1,44,24,40z"/>
		<path class="st4" d="M25.9,28.4c0.1-2.4,0.3-4.6,0.4-6.3c-0.6,0.4-1.1,0.8-1.7,1.2c-1.4,1-2.8,2.1-4,3.2C20.5,31,22.3,36.6,24,40
			c2.1,4,5.7,6.8,10.3,8.3c0.9-0.5,1.8-0.9,2.6-1.4c0.4-0.2,0.8-0.4,1.3-0.7C31.1,43.4,25.6,36.8,25.9,28.4z"/>
	</g>
	<g>
		<path class="st5" d="M54.8,24.6c-1.4-0.1-2.7,0.6-3.3,2.2c-0.8,1.9,0,4.3,1.4,5.8c0.4-0.7,0.7-1.5,1-2.3
			C54.6,28.5,54.9,26.5,54.8,24.6z"/>
		<path class="st6" d="M51.5,26.8c0.7-1.6,1.9-2.3,3.3-2.2c-0.2-3.5-1.6-6.8-4.5-8.9c-3-2.2-7.1-2.5-10.5-1.4c-3.3,1-6.2,3-9.1,4.8
			c-0.2,0.1-0.4,0.3-0.6,0.4c-1.1,4-2,7.2,0.5,14.7c1.9,5.6,7.4,8,13.3,8.4c3.7-2.7,7-6,9.1-10C51.5,31.1,50.6,28.8,51.5,26.8z"/>
	</g>
	<path class="st5" d="M32.9,23.3c1.7-1,4.7,1.3,4.8,3.1c0,0.7-0.4,1.7-0.8,2.2c-0.9,1.1-3,1.5-4.2,0.7c-1-0.6-1.2-1.3-1.5-2.3
		C30.8,25.6,31.7,24,32.9,23.3z"/>
	<path class="st3" d="M40.3,29.6c0,0,0.1,0.2,0.1,0.5c0.1,0.2,0.1,0.4,0.2,0.6c0.1,0.2,0.3,0.4,0.4,0.7c0.2,0.2,0.3,0.5,0.6,0.7
		c0.2,0.3,0.5,0.5,0.7,0.7c0.1,0.1,0.3,0.2,0.4,0.3c0.1,0.1,0.3,0.1,0.5,0.2c0.4,0.1,0.7,0.2,1.1,0.3c0.4,0.1,0.8,0.1,1.1,0.1
		c0.4,0,0.7-0.1,1.1-0.1c0.3-0.1,0.7-0.2,0.9-0.3c0.1-0.1,0.3-0.2,0.4-0.2c0.1-0.1,0.2-0.2,0.3-0.3c0.2-0.2,0.4-0.4,0.5-0.6
		c0.1-0.2,0.2-0.4,0.3-0.5c0.1-0.3,0.2-0.5,0.2-0.5s0,0.2-0.1,0.5c0,0.2-0.1,0.4-0.2,0.6c-0.1,0.2-0.2,0.5-0.4,0.7
		c-0.1,0.1-0.2,0.2-0.3,0.4c-0.1,0.1-0.3,0.2-0.4,0.3c-0.3,0.2-0.7,0.4-1,0.5c-0.4,0.1-0.8,0.2-1.2,0.2c-0.4,0-0.8,0-1.2,0
		c-0.4-0.1-0.8-0.2-1.2-0.3c-0.2-0.1-0.4-0.2-0.6-0.3c-0.2-0.1-0.3-0.2-0.5-0.4c-0.3-0.3-0.5-0.5-0.7-0.8c-0.2-0.3-0.4-0.6-0.5-0.8
		c-0.1-0.3-0.2-0.5-0.3-0.8c-0.1-0.2-0.1-0.5-0.1-0.6C40.3,29.8,40.3,29.6,40.3,29.6z"/>
	<path class="st7" d="M42.9,13.2c-0.4-0.1-1-0.1-1.4,0.2c-0.5,0.3-0.9,0.8-1.2,1.3c-0.5,1,0.1,1,0.9,0.6c0.6-0.3,1.4-0.7,1.7-1.3
		C43.3,13.5,43.1,13.3,42.9,13.2z"/>
	<path class="st7" d="M49.4,14c-0.6-0.1-0.5,0.6-0.4,0.9c0.1,0.5,1.4,2.6,2.1,1.8c0.8-0.7-0.8-2.5-1.5-2.7C49.5,14,49.5,14,49.4,14z
		"/>
	<path class="st7" d="M43.2,22c-0.1,0-0.2,0-0.3,0c-1,0.1-0.8,1.8-0.8,2.5c0.1,0.8,0.7,1.4,1.3,0.5C43.7,24.7,44.5,22.2,43.2,22z"/>
	<path class="st7" d="M48.9,22.4c0.1,0,0.2,0,0.3,0c0.6,0.2,0.6,1.9,0.4,2.6c-0.2,0.8-0.9,1.3-1.4,0.3C48,25,48,22.6,48.9,22.4z"/>
</g>
</svg>
