<svg id="圖層_1" data-name="圖層 1" xmlns="http://www.w3.org/2000/svg" viewBox="0 0 141.27 133.95"><defs><style>.cls-1{fill:#d19e39;}.cls-2{fill:#fdcca4;}.cls-3{fill:#ccaa7d;opacity:0.5;isolation:isolate;}.cls-4{fill:#ffca53;}.cls-5{fill:#ffd88a;}.cls-6{fill:#e45133;}.cls-7{fill:#b93722;}.cls-8{fill:#f1f4c5;}.cls-9{fill:#232628;}</style></defs><path class="cls-1" d="M119.67,63.62c-.2,16.6-9.6,29.5-21,28.7s-20.4-14.9-20.2-31.5,9.6-29.5,21-28.7S120,46.92,119.67,63.62Z"/><path class="cls-2" d="M25.27,109.92c6.9-.5,12-7.5,11.3-15.7l-.2-3c-.7-8.2-6.8-14.5-13.7-14l-2.1.2c-6.9.5-12,7.5-11.3,15.7l.2,3c.7,8.2,6.8,14.5,13.7,14Z"/><path class="cls-3" d="M25.27,109.92c6.9-.5,12-7.5,11.3-15.7l-.2-3c-.7-8.2-6.8-14.5-13.7-14l-2.1.2c-6.9.5-12,7.5-11.3,15.7l.2,3c.7,8.2,6.8,14.5,13.7,14Z"/><path class="cls-3" d="M24.17,104.52s-13.5-1.8-10.7-14.3c0,0,.6-7.7,8.6-9,0,0,4.2-.2,4.2,2.8,0,0-.6,3.3-5.6,2C20.57,85.92,9.17,95.72,24.17,104.52Z"/><path class="cls-2" d="M117.67,86.72c-.5,23.1-22.3,41.6-48.6,41.3h0c-26.3-.3-47.3-19.4-46.7-42.5l.3-12.4c.5-23.1,22.3-41.6,48.6-41.3h0c26.3.3,47.3,19.4,46.7,42.5Z"/><path class="cls-3" d="M90.07,120.12c-26.3-.3-47.3-19.4-46.7-42.5l.3-12.4c.3-13.5,7.9-25.3,19.3-32.8-22.4,3.2-39.8,20.1-40.3,40.7l-.3,12.4c-.5,23.1,20.4,42.1,46.7,42.5a52.54,52.54,0,0,0,29.4-8.4A59.19,59.19,0,0,1,90.07,120.12Z"/><path class="cls-4" d="M97.47,5.92A11.18,11.18,0,0,1,99,7.22c1,.8,2.3,2.1,3.8,3.6a29.92,29.92,0,0,1,2.2,2.6,24.44,24.44,0,0,1,2.2,3.1,39,39,0,0,1,1.9,3.5c.4,1.3,1.2,2.5,1.5,3.8.2.7.4,1.3.6,1.9l.4,2a25.79,25.79,0,0,1,.4,3.9,24.2,24.2,0,0,1-.2,3.8,11.38,11.38,0,0,1-.7,3.3,18.7,18.7,0,0,1-.8,2.8,22,22,0,0,1-.9,2.1,19.35,19.35,0,0,0-.7,1.9s.4-.6,1.1-1.7c.3-.5.7-1.2,1.2-2a22.92,22.92,0,0,0,1.3-2.7,15,15,0,0,0,1.2-3.4c.2-1.3.8-2.6.7-4a16.2,16.2,0,0,0,0-4.4c-.1-.7-.2-1.5-.3-2.3s-.4-1.5-.6-2.2a22.14,22.14,0,0,0-1.8-4.2A29,29,0,0,0,109,15q-1.35-1.65-2.7-3a29.11,29.11,0,0,0-2.7-2.4,24.63,24.63,0,0,0-4.4-3C98.17,6.22,97.47,5.92,97.47,5.92Z"/><path class="cls-4" d="M22.67,77.12a46.59,46.59,0,0,1,4.1,19.8s17.9-3.3,14.3-31.1c0,0,65.2,12.6,70.9-29.1,0,0,0-17.2-23.6-18.5,0,0-54.1-3.6-65.9,31.1,0,0-20.8,2-7.9,30.4A24.88,24.88,0,0,1,22.67,77.12Z"/><path class="cls-4" d="M112.57,34.32a24,24,0,1,1-23.1-24.8A23.94,23.94,0,0,1,112.57,34.32Z"/><path class="cls-5" d="M105.77,22.32c-.8,3.7-6.2,5.6-12,4.3s-9.9-5.3-9-9,6.2-5.6,12-4.3S106.57,18.62,105.77,22.32Z"/><g id="P2-mouth"><path class="cls-6" d="M99.07,98.92s-20.8,1.8-30.7,0c0,0-6.8-.4-6.7,5.8,0,0,0,9.2,14.5,15.6,0,0,10,4.3,21.9-4.9,0,0,8.2-8.1,6.1-14.5C104.37,101.12,104.47,97.82,99.07,98.92Z"/><path class="cls-7" d="M95.27,117.62c-2.4-2.9-7.2-5.3-12.9-6.1-6.6-1-12.5.3-15.4,2.9a30.5,30.5,0,0,0,9.4,6.1C76.27,120.42,84.67,124,95.27,117.62Z"/><path class="cls-8" d="M99.57,99.22l-28.7-.3a3.12,3.12,0,0,0-3.1,3.1,3.27,3.27,0,0,0,3.1,3.2h11.7c1-2.9,3.2-4.9,5.7-4.9s4.8,2.1,5.8,5.1l5.4.1a3.27,3.27,0,0,0,3.2-3.1A3.14,3.14,0,0,0,99.57,99.22Z"/></g><path class="cls-9" d="M69.57,85.32a3.3,3.3,0,1,1-3.3-3.3A3.33,3.33,0,0,1,69.57,85.32Z"/><path class="cls-9" d="M111.47,85.32a3.3,3.3,0,1,1-3.3-3.3A3.33,3.33,0,0,1,111.47,85.32Z"/></svg>