<svg id="圖層_1" data-name="圖層 1" xmlns="http://www.w3.org/2000/svg" viewBox="0 0 91.72 106.15"><defs><style>.cls-1{fill:#5e6000;}.cls-2{fill:#878708;}.cls-3{fill:#ffc107;}.cls-4{fill:#e2a307;}.cls-5{fill:#f4af14;}.cls-6{fill:#e07500;}.cls-7{fill:#ccaa7d;opacity:0.5;isolation:isolate;}.cls-8{fill:#ffa348;}</style></defs><g id="P2-L_feet" data-name="P2-L feet"><g id="P2-l_feet-2" data-name="P2-l feet"><path class="cls-1" d="M28.68,74c3,6,10.7,8.3,17.3,5.1l1.1-.6c6.6-3.2,9.5-10.8,6.6-16.8L31,13.16c-3-6-10.7-8.3-17.3-5l-1.1.6C6,12,3.08,19.56,6,25.56Z"/><path class="cls-2" d="M48,55.16a2.27,2.27,0,0,1-1.2,3h0a2.27,2.27,0,0,1-3-1.2l-17.3-39.8a2.27,2.27,0,0,1,1.2-3h0a2.27,2.27,0,0,1,3,1.2Z"/><path class="cls-3" d="M81.38,68.36a2.05,2.05,0,0,1,.5.7l-1.1.7-13.9,6-.4-1Z"/><path class="cls-4" d="M64,68.46h0c-.4.1-3.5.7-9.5-3.5L45,38.66l-28.9,12.5,15.4,32.9,2.5,5.7,32.8-14h0l.1-.1h0l13.9-6,1.1-.7C81.88,69.06,78.28,61.56,64,68.46Z"/><path class="cls-5" d="M28.88,78.76l.5,1A11.34,11.34,0,0,1,42.88,86l1-.4A12.47,12.47,0,0,0,28.88,78.76Z"/><path class="cls-5" d="M50.48,67.06a.75.75,0,0,0,.9.6h0a.7.7,0,0,0,.4-1l-7.5-24.4a.75.75,0,0,0-.9-.6h0a.7.7,0,0,0-.4,1Z"/><path class="cls-5" d="M80.38,71.56a.52.52,0,0,1-.7-.3c-2.7-5.6-10.5-2.3-10.5-2.2-4.4,2.9-7.1,2.1-7.2,2.1a.57.57,0,1,1,.3-1.1c.1,0,2.4.6,6.4-2,.2-.1,8.9-3.8,12.1,2.8a.87.87,0,0,1-.4.7Z"/><polygon class="cls-6" points="33.88 89.86 36.78 96.56 51.38 90.16 52.08 88.36 69.18 80.96 71.48 81.56 84.78 75.76 81.88 69.06 33.88 89.86"/><rect class="cls-7" x="35.21" y="88.75" width="4" height="7.3" transform="translate(-33.65 22.39) rotate(-23.41)"/><polygon class="cls-7" points="70.48 74.16 70.48 74.16 70.38 74.26 70.38 74.26 37.58 88.26 34.98 82.56 19.58 49.66 15.98 51.26 31.38 84.06 33.88 89.86 66.68 75.86 66.68 75.76 66.88 75.76 66.88 75.76 80.78 69.76 80.88 69.76 70.48 74.16"/><path class="cls-8" d="M75.58,72.86a.48.48,0,0,1-.2.6l-22.3,9.7a.48.48,0,0,1-.6-.2h0a.48.48,0,0,1,.2-.6L75,72.66a.48.48,0,0,1,.6.2Z"/><path class="cls-8" d="M81,70.56a.48.48,0,0,1-.2.6l-3.5,1.5a.48.48,0,0,1-.6-.2h0a.48.48,0,0,1,.2-.6l3.5-1.5c.2-.2.5,0,.6.2Z"/></g></g></svg>