<svg id="圖層_1" data-name="圖層 1" xmlns="http://www.w3.org/2000/svg" viewBox="0 0 100.04 178.71"><defs><style>.cls-1{fill:#707900;}.cls-2{fill:#edebdd;}.cls-3{fill:#d89c6f;}</style></defs><g id="P2-body"><g id="P2-body-2" data-name="P2-body"><path class="cls-1" d="M87.41,148.45c0,21.6-17.5,23.4-39.2,23.4h0c-21.6,0-39.2-1.8-39.2-23.4V125a39.2,39.2,0,0,1,39.2-39.2h0A39.2,39.2,0,0,1,87.41,125Z"/><path class="cls-2" d="M87.41,138c0,21.6-17.5,23.4-39.2,23.4h0c-21.6,0-39.2-1.8-39.2-23.4v-23.5a39.2,39.2,0,0,1,39.2-39.2h0a39.2,39.2,0,0,1,39.2,39.2Z"/></g></g><path class="cls-3" d="M69.71,85.35c-1.9,11.7-12.5,19.8-23.5,17.9h0c-11.1-1.8-18.5-12.8-16.6-24.5l7.8-47.5c1.9-11.7,12.5-19.8,23.5-18h0c11.1,1.8,18.5,12.8,16.6,24.5Z"/></svg>