<svg id="圖層_1" data-name="圖層 1" xmlns="http://www.w3.org/2000/svg" viewBox="0 0 59.81 78.24"><defs><style>.cls-1{fill:#fdcca4;}.cls-2{fill:#ffe4cf;}</style></defs><path class="cls-1" d="M46.07,60.13c-.9,6.7-7.5,11.3-14.7,10.4l-1.3-.2c-7.3-.9-12.5-7.1-11.7-13.8l2.9-17.2c.9-6.7,7.5-11.3,14.7-10.4l1.3.2c7.3.9,12.5,7.1,11.7,13.8Z"/><path class="cls-1" d="M37.87,15.33a16.09,16.09,0,1,1-19.7,11.4A16.08,16.08,0,0,1,37.87,15.33Z"/><path class="cls-2" d="M38.57,17.73a6.62,6.62,0,1,1-8.1,4.7A6.68,6.68,0,0,1,38.57,17.73Z"/></svg>