<svg id="圖層_1" data-name="圖層 1" xmlns="http://www.w3.org/2000/svg" viewBox="0 0 72.31 112.15"><defs><style>.cls-1{fill:#707900;}.cls-2{fill:#b8bc15;}.cls-3{fill:#ffc107;}.cls-4{fill:#ffda69;}.cls-5{fill:#f98800;}.cls-6{fill:#ccaa7d;opacity:0.5;isolation:isolate;}.cls-7{fill:#ffa348;}</style></defs><g id="P2-R_feet" data-name="P2-R feet"><g id="P2-r_feet-2" data-name="P2-r feet"><path class="cls-1" d="M9.58,74.86c.3,6.7,6.5,11.9,13.9,11.5l1.3-.1c7.3-.4,13-6.1,12.7-12.8L35.88,20c-.3-6.7-6.5-11.9-13.9-11.5l-1.3.1c-7.3.4-13,6.1-12.7,12.8Z"/><path class="cls-2" d="M34.68,65.26a2.22,2.22,0,0,1-2.2,2.2h0a2.22,2.22,0,0,1-2.2-2.2V21.86a2.22,2.22,0,0,1,2.2-2.2h0a2.22,2.22,0,0,1,2.2,2.2Z"/><path class="cls-3" d="M60.18,90.66a2.68,2.68,0,0,1,.2.9l-1.3.2H43.88v-1.1Z"/><path class="cls-3" d="M44.08,83.86h0c-.4-.1-3.5-.7-7.4-7L38.38,49H6.88L8,85.26v6.3l35.7.2H59l1.3-.2S60,83.16,44.08,83.86Z"/><path class="cls-4" d="M7.78,79.36v1.1a11.3,11.3,0,0,1,9.9,11h1.1A12.31,12.31,0,0,0,7.78,79.36Z"/><path class="cls-4" d="M32.28,77.16a.69.69,0,0,0,.6.9h0c.4,0,.7-.3.8-.8L36.58,52a.69.69,0,0,0-.6-.9h0c-.4,0-.7.3-.8.8Z"/><path class="cls-4" d="M58,93.16a.56.56,0,0,1-.6-.5c-.3-6.2-8.7-6.2-8.8-6.2-5.2.9-7.4-.9-7.4-1a.57.57,0,0,1,.7-.9s1.9,1.5,6.6.7c.2,0,9.7.1,10,7.3a.5.5,0,0,1-.5.6Z"/><polygon class="cls-5" points="8.08 91.56 8.08 98.76 23.98 98.76 25.38 97.36 43.88 97.36 45.78 98.76 60.28 98.76 60.28 91.56 8.08 91.56"/><rect class="cls-6" x="8.08" y="91.56" width="4" height="7.3"/><polygon class="cls-6" points="47.78 91.66 47.78 91.66 47.68 91.66 47.68 91.66 11.98 91.56 11.98 85.26 10.88 48.96 6.88 48.96 7.98 85.26 8.08 91.56 43.68 91.66 43.68 91.66 43.88 91.66 43.88 91.66 58.98 91.76 59.08 91.76 47.78 91.66"/><path class="cls-7" d="M53,92.56a.47.47,0,0,1-.5.5H28.18a.47.47,0,0,1-.5-.5h0a.47.47,0,0,1,.5-.5h24.3a.47.47,0,0,1,.5.5Z"/><path class="cls-7" d="M58.88,92.56a.47.47,0,0,1-.5.5h-3.9a.47.47,0,0,1-.5-.5h0a.47.47,0,0,1,.5-.5h3.9a.47.47,0,0,1,.5.5Z"/></g></g></svg>