<svg id="圖層_1" data-name="圖層 1" xmlns="http://www.w3.org/2000/svg" viewBox="0 0 85.12 112.15"><defs><style>.cls-1{fill:#fdcca4;}.cls-2{fill:#822d25;}.cls-3{fill:#ccaa7d;opacity:0.5;isolation:isolate;}.cls-4{fill:#232628;}.cls-5{fill:#3e4244;}.cls-6{fill:#af4f4a;}.cls-7{fill:#ffe4cf;}</style></defs><path class="cls-1" d="M26,104.24c-6.7.9-12.9-4.3-13.9-11.5l-.2-1.3c-1-7.3,3.6-13.9,10.3-14.8L39.46,75c6.7-.9,12.9,4.3,13.8,11.5l.2,1.3c1,7.3-3.6,13.9-10.3,14.8Z"/><g id="P3-R_hand" data-name="P3-R hand"><g id="P4-_r_hand" data-name="P4- r hand"><path class="cls-2" d="M62.73,94.35a4,4,0,0,1-4,4H53a4,4,0,0,1-4-4V66.25a4,4,0,0,1,4-4h5.7a4,4,0,0,1,4,4Z"/><path class="cls-3" d="M57.33,90.45a4,4,0,0,1-4-4V62.15h-.4a4,4,0,0,0-4,4v28.1a4,4,0,0,0,4,4h5.7a4,4,0,0,0,4-4v-3.9h-5.3Z"/><path class="cls-4" d="M43.63,38a64,64,0,0,0,.3-6.4c0-9.3-2-16.8-4.5-16.8s-4.5,7.5-4.5,16.8a64,64,0,0,0,.3,6.4Z"/><path class="cls-4" d="M74.23,38a64,64,0,0,0,.3-6.4c0-9.3-2-16.8-4.5-16.8s-4.6,7.6-4.6,16.9a40.24,40.24,0,0,0,.5,6.3Z"/><path class="cls-4" d="M58.63,38c.2-2.4.3-5,.3-7.7,0-11.2-1.9-20.2-4.3-20.2s-4.3,9-4.3,20.2c0,2.7.1,5.3.3,7.7Z"/><path class="cls-4" d="M60.43,64.45a4.69,4.69,0,0,1-4.7,4.7h0a4.69,4.69,0,0,1-4.7-4.7V45.05a4.69,4.69,0,0,1,4.7-4.7h0a4.69,4.69,0,0,1,4.7,4.7Z"/><path class="cls-4" d="M65.43,31.65a2.2,2.2,0,0,1,.1.8,3.35,3.35,0,0,1-3.4,3.3,3.26,3.26,0,0,1-3.3-2.8,26,26,0,0,1-4,.3,22.82,22.82,0,0,1-4.5-.4,3.37,3.37,0,0,1-6.7-.4,2.92,2.92,0,0,1,.2-.9c-5.2-1.2-8.6-1.5-8.6,4.8,0,10.1,8.8,18.2,19.6,18.2s19.6-8.2,19.6-18.2C74.63,29.85,70.93,30.45,65.43,31.65Z"/><path class="cls-5" d="M73.43,35.85a1.11,1.11,0,0,1-1.1,1.1h0a1.11,1.11,0,0,1-1.1-1.1v-8.5a1.11,1.11,0,0,1,1.1-1.1h0a1.11,1.11,0,0,1,1.1,1.1Z"/><path class="cls-5" d="M73.43,24a1.11,1.11,0,0,1-1.1,1.1h0a1.11,1.11,0,0,1-1.1-1.1v-2.1a1.11,1.11,0,0,1,1.1-1.1h0a1.11,1.11,0,0,1,1.1,1.1Z"/><path class="cls-5" d="M56.93,31.35a1.11,1.11,0,0,1-1.1,1.1h0a1.11,1.11,0,0,1-1.1-1.1v-8.5a1.11,1.11,0,0,1,1.1-1.1h0a1.11,1.11,0,0,1,1.1,1.1Z"/><path class="cls-5" d="M56.93,19.35a1.11,1.11,0,0,1-1.1,1.1h0a1.11,1.11,0,0,1-1.1-1.1v-2.1a1.11,1.11,0,0,1,1.1-1.1h0a1.11,1.11,0,0,1,1.1,1.1Z"/><path class="cls-5" d="M41.63,34.45a1.11,1.11,0,0,1-1.1,1.1h0a1.11,1.11,0,0,1-1.1-1.1V26a1.11,1.11,0,0,1,1.1-1.1h0a1.11,1.11,0,0,1,1.1,1.1Z"/><path class="cls-5" d="M41.63,22.55a1.11,1.11,0,0,1-1.1,1.1h0a1.11,1.11,0,0,1-1.1-1.1v-2.1a1.11,1.11,0,0,1,1.1-1.1h0a1.11,1.11,0,0,1,1.1,1.1Z"/><path class="cls-6" d="M61.83,85.15a.79.79,0,0,1-.8.8h0a.79.79,0,0,1-.8-.8V72.85a.79.79,0,0,1,.8-.8h0a.79.79,0,0,1,.8.8Z"/><path class="cls-6" d="M61.83,70.25a.79.79,0,0,1-.8.8h0a.79.79,0,0,1-.8-.8v-1.6a.79.79,0,0,1,.8-.8h0a.79.79,0,0,1,.8.8Z"/></g></g><path class="cls-1" d="M67.16,84.64a16.1,16.1,0,1,1-16.1-16.1A16.09,16.09,0,0,1,67.16,84.64Z"/><path class="cls-7" d="M62.56,78.24a6.6,6.6,0,1,1-6.6-6.6A6.59,6.59,0,0,1,62.56,78.24Z"/></svg>