<?xml version="1.0" encoding="utf-8"?>
<!-- Generator: Adobe Illustrator 25.2.1, SVG Export Plug-In . SVG Version: 6.00 Build 0)  -->
<svg version="1.1" xmlns="http://www.w3.org/2000/svg" xmlns:xlink="http://www.w3.org/1999/xlink" x="0px" y="0px"
	 viewBox="0 0 176.9 164" style="enable-background:new 0 0 176.9 164;" xml:space="preserve">
<style type="text/css">
	.st0{fill:#AF7F20;}
	.st1{fill:#7A2741;}
	.st2{fill:#FDCCA4;}
	.st3{fill:#FFE4CF;}
	.st4{fill:#FFC107;}
	.st5{fill:#F1573F;}
	.st6{fill:#FC6D5E;}
	.st7{fill:#F2DF30;}
	.st8{opacity:0.5;fill:#CCAA7D;}
	.st9{fill:#DDCB22;}
	.st10{fill:#305068;}
	.st11{fill:#491729;}
	.st12{fill:#D89C6F;}
	.st13{fill:#E45133;}
	.st14{fill:#B93722;}
	.st15{fill:#232628;}
	.st16{fill:#618200;}
	.st17{fill:#3D5601;}
	.st18{fill:#83A30F;}
	.st19{fill:#557009;}
	.st20{fill:#933D5C;}
	.st21{fill:#FFCA53;}
	.st22{fill:#FFD98D;}
</style>
<g id="圖層_30">
	<path class="st0" d="M172.3,104.5c-3.9,13-41.3,13.3-83.6,0.6C46.3,92.5,15.2,71.7,19.1,58.7c3.9-13,41.3-13.3,83.6-0.6
		C145,70.7,176.2,91.5,172.3,104.5z"/>
</g>
<g id="圖層_29">
	<path class="st1" d="M122.8,38.4l12.1-0.7c0,0,27.4,20.1,15.9,79.4c0,0,0.5,35.7,26.1,37.4c0,0-28.1,7.5-39.5-10.2
		c0,0-3,8.2,11.3,17.7c0,0-18.6,0-27.4-17.6c0,0-1.2,8,6.1,15.8c0,0-25.1-3.2-34-34.4C84.5,94.6,122.8,38.4,122.8,38.4z"/>
</g>
<g id="圖層_28">
	<path class="st1" d="M152.9,76.4c0,30-26.2,54.3-58.6,54.3c-32.3,0-58.6-24.3-58.6-54.3c0-30,26.2-54.3,58.6-54.3
		C126.7,22.1,152.9,46.4,152.9,76.4z"/>
</g>
<g id="圖層_27">
</g>
<g id="圖層_26">
</g>
<g id="圖層_25">
</g>
<g id="圖層_24">
</g>
<g id="圖層_23">
</g>
<g id="圖層_22">
</g>
<g id="圖層_21">
</g>
<g id="圖層_20">
	<path class="st11" d="M34.5,75.1c-1.4,16.6,6.8,30.3,18.2,30.6C64,106,74.4,92.8,75.7,76.3c1.4-16.6-6.8-30.3-18.2-30.6
		C46.2,45.3,35.8,58.5,34.5,75.1z"/>
</g>
<g id="圖層_19">
	<g>
		<path class="st2" d="M124.1,130.1c-6.8-1.1-11.2-8.6-9.8-16.7l0.5-3c1.4-8.1,8.1-13.8,14.9-12.7l2.1,0.4
			c6.8,1.1,11.2,8.6,9.8,16.7l-0.5,3c-1.4,8.1-8.1,13.8-15,12.7L124.1,130.1z"/>
		<path class="st8" d="M124.1,130.1c-6.8-1.1-11.2-8.6-9.8-16.7l0.5-3c1.4-8.1,8.1-13.8,14.9-12.7l2.1,0.4
			c6.8,1.1,11.2,8.6,9.8,16.7l-0.5,3c-1.4,8.1-8.1,13.8-15,12.7L124.1,130.1z"/>
		<path class="st8" d="M125.7,124.9c0,0,13.6-0.6,12-13.3c0,0,0.1-7.7-7.7-9.8c0,0-4.1-0.6-4.4,2.4c0,0,0.3,3.4,5.4,2.5
			C131.1,106.7,141.4,117.5,125.7,124.9z"/>
	</g>
</g>
<g id="圖層_18">
</g>
<g id="圖層_17">
	<path class="st2" d="M34.3,98.3c-1.7,23.1,18.3,43.5,44.5,45.7l0,0c26.3,2.1,48.9-14.8,50.5-37.9l0.9-12.4
		c1.7-23.1-18.3-43.5-44.5-45.7l0,0C59.5,46,36.8,62.9,35.2,86L34.3,98.3z"/>
</g>
<g id="圖層_16">
	<path class="st8" d="M58.7,134.2c26.3,2.1,48.9-14.8,50.5-37.9l0.9-12.4c1-13.4-5.4-26-16.1-34.5c22,5.3,37.8,23.7,36.3,44.3
		l-0.9,12.4c-1.7,23.1-24.3,40-50.5,37.9c-11-0.9-20.8-5-28.4-11.1C53.1,133.5,55.8,134,58.7,134.2z"/>
</g>
<g id="圖層_15">
	<g>
		<path class="st13" d="M58.4,104.8c0,0,13.4,4.3,20.2,4.5c0,0,4.5,0.7,3.5,4.8c0,0-1.4,6.1-11.9,8.2c0,0-7.2,1.3-13.7-6.4
			c0,0-4.2-6.5-1.9-10.4C54.6,105.4,55,103.2,58.4,104.8z"/>
		<path class="st14" d="M76.1,109c-1.8,1.6-4.6,3.2-9,4.1c0,0-6.8,1.2-13.1-5.7c0.1-0.7,0.3-1.4,0.6-2c0,0,0.4-2.2,3.8-0.6
			C58.4,104.8,69,108.1,76.1,109z"/>
	</g>
</g>
<g id="圖層_14">
	<path class="st15" d="M84,104.2c0.6,0.1,1.2-0.4,1.2-1c0.2-2.3,2.2-4,4.5-3.7c2.3,0.2,4,2.2,3.7,4.5c-0.1,0.6,0.4,1.2,1,1.2
		c0.6,0.1,1.2-0.4,1.2-1c0.3-3.5-2.3-6.7-5.8-7c-3.5-0.3-6.7,2.3-7,5.8C82.9,103.6,83.4,104.1,84,104.2z"/>
</g>
<g id="圖層_13_1_">
	<path class="st15" d="M43.8,96.6c0.6,0.1,1.2-0.4,1.2-1c0.2-2.3,2.2-4,4.5-3.7c2.3,0.2,4,2.2,3.7,4.5c-0.1,0.6,0.4,1.2,1,1.2
		c0.6,0.1,1.2-0.4,1.2-1c0.3-3.5-2.3-6.7-5.8-7c-3.5-0.3-6.7,2.3-7,5.8C42.7,96,43.2,96.5,43.8,96.6z"/>
</g>
<g id="圖層_12">
</g>
<g id="圖層_11">
</g>
<g id="圖層_10">
</g>
<g id="圖層_9">
	<path class="st1" d="M35.8,74.7c0,0,35.6-17,39-32.8c0,0,0-6.2-13.9-6.2C61,35.7,36.5,35.7,35.8,74.7z"/>
</g>
<g id="圖層_8">
	<path class="st1" d="M133.8,100.7c0,0-3.5,6.3-4.3,16.4c0,0-12.8-4.2-8.3-27.4c0,0-55.8,3.3-57.1-32.4c0,0-2.8-24.3,24.4-22.2
		c0,0,51.9-1.3,51.8,33.7c0,0,10.6,11.7-0.8,34.7C139.6,103.5,137.6,101.9,133.8,100.7z"/>
</g>
<g id="圖層_7">
	<path class="st20" d="M69,50.3c-0.3,5.4,3.3,10.1,8,10.4c4.7,0.3,8.7-3.8,9-9.2c0.3-5.4-3.3-10.1-8-10.4
		C73.3,40.7,69.3,44.9,69,50.3z"/>
</g>
<g id="圖層_6_1_">
	<path class="st21" d="M113.4,60.5c18.1,7.7,33.4,18.3,44.8,30.2c7.9-25.5-2.8-54.9-27.7-70.9c-29.6-19-68.1-11.9-86,15.9
		c-3.3,5.1-5.6,10.5-7.1,16.1C58.6,46.4,86.2,49,113.4,60.5z"/>
</g>
<g id="圖層_5_1_">
	<path class="st21" d="M101.2,66c36.2,10.8,64.1,27.6,69.1,40.4c1-1.1,1.8-2.2,2.2-3.5c3.9-13-27.2-33.8-69.5-46.5
		C60.6,43.7,23.2,44,19.3,57c-0.6,1.9-0.4,3.9,0.5,6.1C29.1,53.7,63.2,54.7,101.2,66z"/>
</g>
<g id="圖層_4_1_">
	<path class="st22" d="M149.1,55.2c-3.8,4-13.1,1.2-20.6-6.1c-7.5-7.3-10.5-16.5-6.7-20.4c3.8-4,13.1-1.2,20.6,6.1
		C149.9,42.1,152.9,51.2,149.1,55.2z"/>
</g>
</svg>
