<?xml version="1.0" encoding="utf-8"?>
<!-- Generator: Adobe Illustrator 25.2.1, SVG Export Plug-In . SVG Version: 6.00 Build 0)  -->
<svg version="1.1" xmlns="http://www.w3.org/2000/svg" xmlns:xlink="http://www.w3.org/1999/xlink" x="0px" y="0px"
	 viewBox="0 0 108.9 71.8" style="enable-background:new 0 0 108.9 71.8;" xml:space="preserve">
<style type="text/css">
	.st0{fill:#AF7F20;}
	.st1{fill:#7A2741;}
	.st2{fill:#FDCCA4;}
	.st3{fill:#FFE4CF;}
	.st4{fill:#FFC107;}
	.st5{fill:#F1573F;}
	.st6{fill:#FC6D5E;}
	.st7{fill:#F2DF30;}
	.st8{opacity:0.5;fill:#CCAA7D;}
	.st9{fill:#DDCB22;}
	.st10{fill:#305068;}
	.st11{fill:#491729;}
	.st12{fill:#D89C6F;}
	.st13{fill:#E45133;}
	.st14{fill:#B93722;}
	.st15{fill:#232628;}
	.st16{fill:#618200;}
	.st17{fill:#3D5601;}
	.st18{fill:#83A30F;}
	.st19{fill:#557009;}
	.st20{fill:#933D5C;}
	.st21{fill:#FFCA53;}
	.st22{fill:#FFD98D;}
</style>
<g id="圖層_30">
</g>
<g id="圖層_29">
</g>
<g id="圖層_28">
</g>
<g id="圖層_27">
</g>
<g id="圖層_26">
</g>
<g id="圖層_25">
</g>
<g id="圖層_24">
</g>
<g id="圖層_23">
</g>
<g id="圖層_22">
</g>
<g id="圖層_21">
</g>
<g id="圖層_20">
</g>
<g id="圖層_19">
</g>
<g id="圖層_18">
</g>
<g id="圖層_17">
</g>
<g id="圖層_16">
</g>
<g id="圖層_15">
</g>
<g id="圖層_14">
</g>
<g id="圖層_13_1_">
</g>
<g id="圖層_12">
</g>
<g id="圖層_11">
	<g>
		<path class="st5" d="M67.9,49.6c-5.8,3.4-13.5,1-17.2-5.3l-0.6-1.1C46.3,36.9,48,29,53.8,25.6l29-17.1c5.8-3.4,13.5-1,17.2,5.3
			l0.6,1.1c3.7,6.3,2.1,14.2-3.7,17.6L67.9,49.6z"/>
		<path class="st2" d="M42.2,60.3c-6,3-13.5,0-16.8-6.6l-0.6-1.1c-3.2-6.6-1-14.3,5.1-17.3l15.9-7c6-3,13.5,0,16.8,6.6l0.6,1.1
			c3.2,6.6,1,14.3-5.1,17.3L42.2,60.3z"/>
		<path class="st2" d="M44,55c-3.7,8.1-13.3,11.6-21.4,7.9c-8.1-3.7-11.6-13.3-7.9-21.4c3.7-8.1,13.3-11.6,21.4-7.9
			C44.2,37.4,47.7,47,44,55z"/>
		<path class="st3" d="M35.4,39.1c2.8,2.3,3.2,6.5,0.8,9.3c-2.3,2.8-6.5,3.2-9.3,0.8c-2.8-2.3-3.2-6.5-0.8-9.3
			C28.4,37.1,32.6,36.7,35.4,39.1z"/>
	</g>
</g>
<g id="圖層_10">
</g>
<g id="圖層_9">
</g>
<g id="圖層_8">
</g>
<g id="圖層_7">
</g>
<g id="圖層_6_1_">
</g>
<g id="圖層_5_1_">
</g>
<g id="圖層_4_1_">
</g>
</svg>
