<?xml version="1.0" encoding="utf-8"?>
<!-- Generator: Adobe Illustrator 25.2.1, SVG Export Plug-In . SVG Version: 6.00 Build 0)  -->
<svg version="1.1" xmlns="http://www.w3.org/2000/svg" xmlns:xlink="http://www.w3.org/1999/xlink" x="0px" y="0px"
	 viewBox="0 0 133 294.7" style="enable-background:new 0 0 133 294.7;" xml:space="preserve">
<style type="text/css">
	.st0{fill:#AF7F20;}
	.st1{fill:#7A2741;}
	.st2{fill:#FDCCA4;}
	.st3{fill:#FFE4CF;}
	.st4{fill:#FFC107;}
	.st5{fill:#F1573F;}
	.st6{fill:#FC6D5E;}
	.st7{fill:#F2DF30;}
	.st8{opacity:0.5;fill:#CCAA7D;}
	.st9{fill:#DDCB22;}
	.st10{fill:#305068;}
	.st11{fill:#491729;}
	.st12{fill:#D89C6F;}
	.st13{fill:#E45133;}
	.st14{fill:#B93722;}
	.st15{fill:#232628;}
	.st16{fill:#618200;}
	.st17{fill:#3D5601;}
	.st18{fill:#83A30F;}
	.st19{fill:#557009;}
	.st20{fill:#933D5C;}
	.st21{fill:#FFCA53;}
	.st22{fill:#FFD98D;}
</style>
<g id="圖層_30">
</g>
<g id="圖層_29">
</g>
<g id="圖層_28">
</g>
<g id="圖層_27">
	<g>
		<g>
			<path class="st2" d="M98.1,209.3c-0.1,6.7-6.2,12.1-13.5,11.9l-1.3,0c-7.3-0.1-13.2-5.7-13.1-12.4l5-33.5
				c0.1-6.7,6.2-12.1,13.5-11.9l1.3,0c7.3,0.1,13.2,5.7,13.1,12.4L98.1,209.3z"/>
			<path class="st3" d="M72.7,200.5c0,1.2,1.1,2.2,2.3,2.2l0,0c1.2,0,2.2-1.1,2.2-2.3l3.7-23.4c0-1.2-1.1-2.2-2.3-2.2l0,0
				c-1.2,0-2.2,1.1-2.2,2.3L72.7,200.5z"/>
		</g>
		<g>
			<path class="st2" d="M106.6,234.1c2.6,6.2-0.7,13.5-7.5,16.4l-1.2,0.5c-6.8,2.9-14.4,0.2-17-6l-9.1-32.7
				c-2.6-6.2,0.7-13.5,7.5-16.4l1.2-0.5c6.8-2.9,14.4-0.2,17,6L106.6,234.1z"/>
			<path class="st3" d="M79.8,236.3c0.5,1.1,1.9,1.6,3,1l0,0c1.1-0.5,1.6-1.9,1-3l-6.2-22.9c-0.5-1.1-1.9-1.6-3-1l0,0
				c-1.1,0.5-1.6,1.9-1,3L79.8,236.3z"/>
		</g>
		<g>
			<path class="st4" d="M61.5,263.8c0,0.6,0.1,0.9,0.1,0.9l1.3-0.1l14.6-4.1l-0.3-1L61.5,263.8z"/>
			<path class="st5" d="M75.3,253C75.3,253,75.3,253,75.3,253c0.4-0.2,3.2-1.6,5.3-8.7l-9-26.5l30.4-8.3l8.5,35.3l1.6,6l-34.4,9.6
				l0,0l-0.1,0l0,0l-14.6,4.1l-1.3,0.1C61.6,264.7,59.8,256.6,75.3,253z"/>
			<path class="st6" d="M109.1,239.2l0.3,1.1c-5.2,2.1-8.1,7.7-6.7,13.2l-1.1,0.3C100,247.7,103.3,241.4,109.1,239.2z"/>
			<path class="st6" d="M84.9,243.5c0.2,0.5,0,0.9-0.3,1.1l0,0c-0.4,0.1-0.8-0.1-1-0.5l-9.4-23.7c-0.2-0.4,0-0.9,0.3-1.1l0,0
				c0.4-0.1,0.8,0.1,1,0.5L84.9,243.5z"/>
			<path class="st6" d="M64.3,265.7c0.3-0.1,0.5-0.4,0.4-0.7c-1.4-6,6.7-8.3,6.8-8.3c5.2-0.5,6.8-2.8,6.9-2.9
				c0.2-0.3,0.1-0.6-0.2-0.8c-0.3-0.2-0.6-0.1-0.8,0.1c0,0-1.5,2-6.2,2.4c-0.2,0-9.3,2.6-7.7,9.7C63.7,265.6,64,265.8,64.3,265.7
				C64.3,265.7,64.3,265.7,64.3,265.7z"/>
			<polygon class="st7" points="112,250.9 114,257.9 98.6,262.1 96.9,261.1 79,266 77.5,267.9 63.5,271.7 61.6,264.7 			"/>
			
				<rect x="109.1" y="251.3" transform="matrix(0.9645 -0.2641 0.2641 0.9645 -63.3908 38.3879)" class="st8" width="4" height="7.3"/>
			<polygon class="st8" points="73.7,261.6 73.7,261.6 73.9,261.5 73.9,261.5 108.2,252 106.6,245.9 98.1,210.6 101.9,209.6 
				110.4,244.9 112,250.9 77.7,260.5 77.7,260.5 77.5,260.5 77.6,260.5 62.9,264.6 62.9,264.6 			"/>
			<path class="st9" d="M69,263.7c0.1,0.3,0.3,0.4,0.6,0.3l23.5-6.4c0.3-0.1,0.4-0.3,0.3-0.6l0,0c-0.1-0.3-0.3-0.4-0.6-0.3
				l-23.5,6.4C69.1,263.2,68.9,263.5,69,263.7L69,263.7z"/>
			<path class="st9" d="M63.3,265.3c0.1,0.3,0.3,0.4,0.6,0.3l3.7-1c0.3-0.1,0.4-0.3,0.3-0.6l0,0c-0.1-0.3-0.3-0.4-0.6-0.3l-3.7,1
				C63.3,264.8,63.2,265.1,63.3,265.3L63.3,265.3z"/>
		</g>
	</g>
</g>
<g id="圖層_26">
</g>
<g id="圖層_25">
</g>
<g id="圖層_24">
</g>
<g id="圖層_23">
	<path class="st10" d="M29.2,158.4c-2,21.5,15.2,25,36.8,27l0,0c21.5,2,39.2,1.9,41.2-19.6l2.2-23.4c2-21.5-13.8-40.6-35.3-42.7l0,0
		c-21.5-2-40.6,13.8-42.7,35.3L29.2,158.4z"/>
</g>
<g id="圖層_22">
	<path class="st5" d="M30.2,147.9c-2,21.5,15.2,25,36.8,27l0,0c21.5,2,39.2,1.9,41.2-19.6l2.2-23.4c2-21.5-13.8-40.6-35.3-42.7l0,0
		c-21.5-2-40.6,13.8-42.7,35.3L30.2,147.9z"/>
</g>
<g id="圖層_21">
	<path class="st5" d="M22.4,190c0,0,47,27.2,96.7,1.1l-11-35.8L29.6,147L22.4,190z"/>
</g>
<g id="圖層_20">
</g>
<g id="圖層_19">
</g>
<g id="圖層_18">
	<path class="st12" d="M52.5,88.1c0.8,11.9,10.5,20.8,21.7,20.1l0,0c11.2-0.8,19.6-11,18.8-22.8l-3.3-48
		C89,25.4,79.3,16.5,68.1,17.2l0,0c-11.2,0.8-19.6,11-18.8,22.8L52.5,88.1z"/>
</g>
<g id="圖層_17">
</g>
<g id="圖層_16">
</g>
<g id="圖層_15">
</g>
<g id="圖層_14">
</g>
<g id="圖層_13_1_">
</g>
<g id="圖層_12">
</g>
<g id="圖層_11">
</g>
<g id="圖層_10">
</g>
<g id="圖層_9">
</g>
<g id="圖層_8">
</g>
<g id="圖層_7">
</g>
<g id="圖層_6_1_">
</g>
<g id="圖層_5_1_">
</g>
<g id="圖層_4_1_">
</g>
</svg>
