<svg xmlns="http://www.w3.org/2000/svg" xmlns:xlink="http://www.w3.org/1999/xlink" viewBox="0 0 1937.18 1252.72"><defs><style>.cls-1{fill:none;}.cls-2{isolation:isolate;}.cls-3{clip-path:url(#clip-path);}.cls-4{fill:#6be8e4;}.cls-5{fill:#767c40;}.cls-6{fill:#646633;}.cls-7{fill:#8ba328;}.cls-8{fill:#b2d33a;}.cls-9{fill:#ccaa7d;opacity:0.5;mix-blend-mode:multiply;}.cls-10{fill:#779b31;}.cls-11{opacity:0.6;}.cls-12{fill:#97af3f;}.cls-13{fill:#5a5b2d;}.cls-14{fill:#7d933a;}</style><clipPath id="clip-path" transform="translate(16.68 3.58)"><rect class="cls-1" x="1.26" width="1920" height="1080"/></clipPath></defs><g class="cls-2"><g id="圖層_2" data-name="圖層 2"><g class="cls-3"><rect id="sky" class="cls-4" x="19.14" width="1917.04" height="611.49"/><g id="moutain"><path class="cls-5" d="M0,1064.79c28,4.17,56,10,84,15.78H1920V413.63C1753.12,342.52,1392.56,460,1205.32,468c-262.17,16.38-433.59-65.51-675.61-155.6C348.9,249.46,182.79,264.14,0,274.87Z" transform="translate(16.68 3.58)"/><path class="cls-6" d="M1633.93,546.59C1064.51,609,576.74,884,0,868.28v215.79H1920V530.67C1805.37,531.78,1699.16,540.73,1633.93,546.59Z" transform="translate(16.68 3.58)"/></g><g id="ground"><path class="cls-7" d="M213.66,191.7c-74.2,0-146.35,2.77-215.47,8v565.6c69.13,5.23,141.26,8,215.47,8,509.16,0,921.92-130.2,921.92-290.8S722.82,191.7,213.66,191.7Z" transform="translate(16.68 3.58)"/><path class="cls-8" d="M1920.5,337.29c-177.38-69.86-402.23-111.63-646.88-111.63-573,0-1037.5,229.11-1037.5,511.74s464.51,511.74,1037.5,511.74c244.65,0,469.5-41.77,646.88-111.64Z" transform="translate(16.68 3.58)"/><path class="cls-9" d="M499.45,783.32c0-282.63,464.5-511.74,1037.5-511.74a2083.78,2083.78,0,0,1,211.11,10.61c-142.19-36.12-303.47-56.53-474.44-56.53-573,0-1037.5,229.11-1037.5,511.74,0,246.94,354.63,453,826.4,501.12C728.14,1153.57,499.45,981.62,499.45,783.32Z" transform="translate(16.68 3.58)"/><path class="cls-8" d="M442.15,225.66c-164.73,0-320.49,18.94-458.83,52.64v918.19c138.34,33.71,294.1,52.65,458.83,52.65,573,0,1037.5-229.12,1037.5-511.74S1015.15,225.66,442.15,225.66Z" transform="translate(16.68 3.58)"/><path class="cls-9" d="M-16.68,1196.47c77.6,18.9,160.66,33.18,247.73,42-91.3-23.19-174.69-52.89-247.73-87.82Z" transform="translate(16.68 3.58)"/><path class="cls-9" d="M442.15,225.66c-164.73,0-320.49,18.94-458.83,52.64V415.91C170.1,326.57,424.77,271.58,705.48,271.58A2083.83,2083.83,0,0,1,916.6,282.19C774.4,246.07,613.12,225.66,442.15,225.66Z" transform="translate(16.68 3.58)"/><g id="圖層_10" data-name="圖層 10"><path class="cls-10" d="M1777.15,587.94c-8,7-8.15,19.88-8.15,19.88s.33,0,.89.08h0a37.23,37.23,0,0,0,5,0h0l1.4-.13.2,0c.45-.05.91-.11,1.37-.19l.22,0q.78-.12,1.59-.3h0a29.32,29.32,0,0,0,3.33-.94l.42-.16c.4-.15.8-.31,1.19-.48l.53-.24c.37-.17.72-.35,1.08-.54l.54-.3c.36-.21.72-.44,1.07-.67.16-.1.32-.2.47-.31a17.14,17.14,0,0,0,1.45-1.13,17.61,17.61,0,0,0,1.31-1.28c.14-.15.27-.31.41-.47s.51-.59.75-.9.29-.39.43-.58.41-.57.59-.86.28-.43.4-.64.34-.58.5-.88.24-.43.35-.65.3-.61.45-.92.2-.43.29-.65c.2-.46.39-.93.56-1.39.1-.28.19-.55.28-.82s.15-.45.22-.67.18-.58.26-.86.11-.38.16-.57.15-.59.22-.88.07-.3.11-.45c.07-.31.13-.61.19-.91a1.7,1.7,0,0,0,0-.22,32.76,32.76,0,0,0,.63-5.27S1785.14,581,1777.15,587.94Z" transform="translate(16.68 3.58)"/><path class="cls-10" d="M1768.91,606.34h0c0-.32-.1-.72-.18-1.17,0,0,0-.06,0-.09-.11-.63-.26-1.38-.46-2.22,0-.09,0-.18-.07-.28-.08-.31-.16-.63-.25-1l-.14-.47c-.08-.29-.17-.58-.27-.88l-.18-.55c-.1-.29-.2-.58-.31-.88l-.21-.58c-.13-.33-.27-.66-.41-1l-.21-.49c-.22-.49-.45-1-.7-1.46-.07-.14-.15-.26-.22-.4-.2-.36-.4-.72-.61-1.08-.11-.19-.24-.37-.35-.56s-.39-.6-.6-.9l-.42-.57c-.22-.29-.44-.57-.67-.85l-.46-.54c-.26-.29-.54-.57-.82-.85s-.29-.3-.44-.44c-.44-.41-.9-.81-1.39-1.19s-1-.7-1.51-1l-.56-.31c-.34-.19-.67-.38-1-.55l-.67-.31c-.32-.14-.63-.28-1-.4l-.72-.27-.95-.31-.7-.21-1-.25-.6-.15-1.54-.27-.71-.09-.88-.11-.73-.06-.8,0-.69,0-.79,0h-1.87l-1.16.06h-.1l-1,.08h-.14l-.77.09h-.05l-.32,0h0c-.55.07-.88.14-.88.14s1,12.85,9.49,19.27,21.11,4,21.11,4S1769,606.89,1768.91,606.34Z" transform="translate(16.68 3.58)"/><path class="cls-10" d="M87.79,562.83c-8,7-8.15,19.87-8.15,19.87l.89.08h0a37.65,37.65,0,0,0,5,0h0c.45,0,.92-.07,1.4-.13l.2,0c.45-.05.9-.11,1.37-.19l.22,0,1.59-.3h0a27.1,27.1,0,0,0,3.34-1l.41-.15,1.2-.48.53-.25c.36-.17.72-.34,1.08-.54l.54-.29c.36-.21.71-.44,1.07-.67.15-.11.31-.2.47-.31.49-.35,1-.73,1.45-1.13s.89-.84,1.3-1.28c.15-.15.28-.31.42-.47s.51-.59.75-.9.29-.39.43-.58l.59-.87c.14-.21.27-.42.4-.63l.5-.88c.12-.22.24-.43.35-.65s.3-.62.44-.93.21-.43.3-.64c.2-.47.38-.93.56-1.39.1-.28.19-.55.28-.82s.15-.45.22-.67.18-.58.26-.87.1-.38.16-.56.15-.59.22-.88.07-.31.1-.46c.07-.3.14-.61.2-.9a2.07,2.07,0,0,0,0-.22,34.29,34.29,0,0,0,.63-5.28S95.79,555.85,87.79,562.83Z" transform="translate(16.68 3.58)"/><path class="cls-10" d="M79.55,581.23h0c0-.31-.11-.71-.19-1.16a.28.28,0,0,0,0-.09c-.11-.64-.26-1.38-.46-2.22,0-.09-.05-.18-.07-.28-.08-.31-.16-.63-.26-1,0-.15-.09-.3-.13-.46s-.17-.58-.27-.88l-.18-.55c-.1-.29-.2-.59-.31-.88s-.14-.39-.22-.58-.26-.66-.41-1c-.07-.17-.13-.33-.21-.5-.21-.48-.45-1-.7-1.46l-.21-.39c-.2-.36-.4-.73-.61-1.09l-.36-.55q-.28-.45-.6-.9L74,566.7l-.67-.84-.46-.54c-.27-.29-.54-.58-.82-.86l-.44-.43a17.75,17.75,0,0,0-1.39-1.19,18.18,18.18,0,0,0-1.51-1l-.56-.32q-.51-.29-1-.54l-.67-.31c-.32-.14-.64-.28-1-.4s-.48-.19-.72-.27l-.95-.31c-.24-.07-.47-.15-.71-.21s-.69-.18-1-.26l-.6-.14c-.52-.11-1-.2-1.54-.27l-.72-.1-.87-.1-.73-.06-.81-.06-.68,0-.8,0H53.43c-.41,0-.8,0-1.17.06h-.09l-1,.08h-.13l-.77.09h0l-.32,0h0c-.55.07-.88.13-.88.13s1,12.86,9.49,19.27,21.11,4,21.11,4S79.63,581.77,79.55,581.23Z" transform="translate(16.68 3.58)"/><g class="cls-11"><path class="cls-10" d="M182,444.48c-8,7-8.15,19.87-8.15,19.87l.89.08h0a35.58,35.58,0,0,0,5,0h0c.45,0,.92-.08,1.4-.13l.2,0c.45-.05.9-.12,1.37-.19l.22,0,1.59-.3h0a27.1,27.1,0,0,0,3.34-1l.41-.15q.6-.22,1.2-.48l.53-.25q.54-.25,1.08-.54c.18-.1.36-.19.54-.3.36-.2.71-.43,1.07-.67l.47-.3c.49-.35,1-.73,1.45-1.13s.89-.84,1.3-1.28c.15-.15.28-.32.42-.47s.51-.59.75-.9.29-.39.43-.59.4-.57.59-.86.27-.42.4-.63l.5-.88c.12-.22.24-.43.35-.65s.3-.62.44-.93.21-.43.3-.64c.2-.47.38-.93.56-1.4.1-.27.19-.54.28-.82s.15-.44.22-.67.18-.57.26-.86.11-.38.16-.57.15-.58.22-.87.07-.31.1-.46c.07-.31.14-.61.2-.9a1.85,1.85,0,0,0,0-.23,34.1,34.1,0,0,0,.63-5.27S190,437.5,182,444.48Z" transform="translate(16.68 3.58)"/><path class="cls-10" d="M173.8,462.88h0c0-.31-.11-.71-.19-1.17,0,0,0,0,0-.09-.11-.63-.26-1.37-.46-2.21,0-.09-.05-.19-.07-.28-.08-.31-.16-.63-.26-1l-.13-.46c-.09-.29-.17-.58-.27-.88l-.18-.55c-.1-.29-.2-.59-.31-.89s-.14-.38-.22-.58-.26-.65-.41-1c-.07-.17-.13-.33-.21-.5-.21-.48-.45-1-.7-1.46l-.21-.39c-.2-.36-.4-.73-.61-1.09l-.36-.55c-.19-.3-.39-.61-.6-.9s-.27-.39-.41-.58-.44-.57-.67-.84l-.46-.55c-.26-.29-.54-.57-.82-.85l-.44-.44a17.64,17.64,0,0,0-1.39-1.18,18.18,18.18,0,0,0-1.51-1c-.19-.12-.38-.21-.56-.32l-1-.54-.67-.32-.95-.39-.72-.27-1-.31c-.24-.08-.47-.15-.71-.21s-.69-.18-1-.26l-.6-.14c-.52-.11-1-.2-1.54-.28l-.72-.09-.87-.1-.73-.06-.8-.06-.69,0-.8,0H149l-.85,0h-.42q-.62,0-1.17.06h-.09l-1,.08-.13,0-.77.09h-.05l-.32,0h0l-.88.14s1,12.85,9.49,19.27,21.11,4,21.11,4S173.88,463.42,173.8,462.88Z" transform="translate(16.68 3.58)"/></g><g class="cls-11"><path class="cls-10" d="M500.27,395.6c-8,7-8.15,19.87-8.15,19.87l.89.08h0a37.25,37.25,0,0,0,5,0h0c.45,0,.91-.08,1.4-.13l.19,0,1.38-.18.22,0c.52-.08,1.05-.18,1.58-.3h0a25.26,25.26,0,0,0,3.33-.94l.42-.16,1.2-.48.53-.24c.36-.17.72-.35,1.07-.54l.55-.3c.36-.21.71-.43,1.07-.67l.46-.31a15.68,15.68,0,0,0,1.45-1.13,14.41,14.41,0,0,0,1.31-1.28c.14-.15.28-.31.41-.47s.51-.59.76-.89l.43-.59c.2-.29.4-.57.59-.86s.27-.42.4-.64.34-.58.5-.88l.35-.64c.15-.31.3-.62.44-.93s.21-.43.3-.65c.2-.46.38-.93.55-1.39.11-.28.19-.55.28-.82s.16-.45.23-.67.17-.58.26-.86l.15-.57c.08-.3.16-.59.23-.88s.07-.3.1-.45c.07-.31.14-.61.2-.91a1.7,1.7,0,0,1,0-.22,34.23,34.23,0,0,0,.63-5.27S508.27,388.62,500.27,395.6Z" transform="translate(16.68 3.58)"/><path class="cls-10" d="M492,414h0c-.05-.32-.11-.72-.19-1.17,0,0,0-.06,0-.09-.11-.63-.26-1.38-.46-2.22,0-.09-.05-.18-.07-.27-.07-.32-.16-.64-.25-1,0-.15-.09-.31-.14-.47s-.17-.58-.26-.88l-.18-.55c-.1-.29-.21-.58-.32-.88s-.13-.38-.21-.58-.27-.66-.41-1c-.07-.16-.13-.33-.21-.49-.21-.49-.45-1-.7-1.46-.07-.13-.15-.26-.22-.4-.19-.36-.39-.72-.61-1.08-.11-.19-.23-.37-.35-.56s-.39-.6-.6-.9-.27-.38-.42-.57-.43-.57-.67-.85l-.46-.54c-.26-.29-.53-.57-.81-.85l-.44-.44a16.15,16.15,0,0,0-1.4-1.18c-.49-.37-1-.71-1.51-1-.18-.11-.37-.21-.56-.31s-.67-.38-1-.54-.45-.22-.68-.32l-.95-.4-.71-.26c-.32-.12-.64-.22-1-.32l-.71-.21-1-.25-.6-.15-1.55-.27-.71-.09-.87-.11-.73-.06-.81-.05-.68,0H465.9l-1.16.06h-.1l-1,.08h-.13l-.77.09h0l-.32,0h0l-.88.14s1,12.85,9.5,19.27,21.1,4,21.1,4S492.11,414.54,492,414Z" transform="translate(16.68 3.58)"/></g><g class="cls-11"><path class="cls-10" d="M1409.13,378c-8,7-8.15,19.87-8.15,19.87l.89.08h0a37.22,37.22,0,0,0,5,0h0c.45,0,.92-.08,1.4-.13l.2,0,1.37-.18.22,0q.78-.12,1.59-.3h0a27.1,27.1,0,0,0,3.34-.95l.41-.16,1.2-.48.53-.24q.54-.26,1.08-.54l.54-.3c.36-.21.71-.43,1.07-.67l.47-.31c.49-.35,1-.72,1.45-1.13a15.7,15.7,0,0,0,1.3-1.28c.15-.15.28-.31.42-.47s.51-.59.75-.89l.43-.59c.2-.29.4-.57.59-.86s.27-.42.4-.64.34-.58.5-.88l.35-.64c.16-.31.3-.62.44-.93s.21-.43.3-.65c.2-.46.38-.93.56-1.39.1-.28.18-.55.28-.82l.22-.67c.09-.29.18-.58.26-.86s.1-.38.16-.57.15-.58.22-.88c0-.15.07-.3.1-.45.07-.31.14-.61.2-.9,0-.08,0-.15,0-.23a34.23,34.23,0,0,0,.63-5.27S1417.13,371,1409.13,378Z" transform="translate(16.68 3.58)"/><path class="cls-10" d="M1400.89,396.4h0c-.05-.32-.11-.72-.19-1.17,0,0,0-.06,0-.09-.11-.63-.26-1.38-.46-2.22,0-.09,0-.18-.07-.27-.08-.32-.16-.64-.26-1,0-.15-.09-.31-.13-.47s-.17-.58-.27-.88l-.18-.55c-.1-.29-.21-.58-.31-.88s-.14-.38-.22-.58-.27-.65-.41-1c-.07-.16-.13-.33-.21-.49-.21-.49-.45-1-.7-1.46-.07-.13-.15-.26-.21-.4-.2-.36-.4-.72-.62-1.08-.11-.19-.23-.37-.35-.56s-.39-.6-.6-.9l-.41-.57c-.22-.29-.44-.57-.67-.85l-.46-.54c-.27-.29-.54-.57-.82-.85l-.44-.44a17.64,17.64,0,0,0-1.39-1.18c-.49-.37-1-.71-1.51-1l-.56-.31c-.34-.19-.68-.38-1-.54s-.45-.22-.67-.32l-1-.4-.72-.26c-.32-.12-.63-.22-.95-.32l-.71-.21-1-.25-.6-.15-1.54-.27-.72-.09-.87-.11-.73-.06-.81-.05-.68,0-.8,0h-1.44l-.42,0-1.17.05h-.09l-1,.08h-.13l-.77.09h-.05l-.32,0h0l-.88.14s1,12.85,9.49,19.27,21.11,4,21.11,4S1401,397,1400.89,396.4Z" transform="translate(16.68 3.58)"/></g><g class="cls-11"><path class="cls-10" d="M893.61,373c-6,5.23-6.11,14.91-6.11,14.91s.25,0,.67.05h0a27.35,27.35,0,0,0,3.74,0h0c.34,0,.69-.06,1.05-.1h.15l1-.15.17,0c.39-.06.78-.14,1.18-.23h0a20.49,20.49,0,0,0,2.5-.71l.32-.12.89-.36.4-.18c.27-.13.54-.26.81-.41l.4-.22c.28-.16.54-.33.81-.5l.35-.23c.37-.27.73-.55,1.08-.85a12.74,12.74,0,0,0,1-1c.11-.11.21-.24.31-.35s.39-.44.57-.68l.32-.43.45-.65.3-.48c.13-.22.25-.44.37-.66s.18-.32.26-.48l.34-.7.22-.48c.15-.35.29-.7.41-1.05s.15-.41.21-.61.12-.34.17-.5.13-.44.19-.65.08-.29.12-.43.12-.44.17-.65,0-.23.08-.35.1-.46.15-.67l0-.17a25.84,25.84,0,0,0,.47-4S899.61,367.73,893.61,373Z" transform="translate(16.68 3.58)"/><path class="cls-10" d="M887.43,386.76h0c0-.23-.08-.53-.14-.87a.15.15,0,0,1,0-.07c-.09-.47-.2-1-.35-1.66,0-.07,0-.14-.05-.21-.06-.24-.12-.48-.19-.73s-.07-.23-.11-.34-.12-.44-.2-.66-.08-.28-.13-.42-.15-.44-.23-.66-.11-.29-.16-.43-.21-.5-.31-.74-.1-.25-.16-.38c-.16-.36-.34-.73-.53-1.09l-.16-.3c-.14-.27-.3-.54-.46-.81s-.17-.28-.26-.42-.29-.45-.45-.67-.21-.29-.31-.43-.33-.43-.51-.64l-.34-.41c-.2-.21-.4-.43-.61-.64l-.33-.32a13,13,0,0,0-1.05-.89c-.37-.28-.74-.53-1.13-.77l-.42-.23a8,8,0,0,0-.76-.41l-.51-.24-.71-.3-.54-.2-.71-.23-.53-.16-.78-.19-.45-.11c-.39-.08-.78-.14-1.16-.2l-.53-.07-.66-.08-.55,0-.6,0-.52,0-.59,0h-1.4l-.87,0h-.08l-.72.06h-.1l-.58.06h0l-.24,0h0l-.66.1s.78,9.64,7.12,14.46,15.83,3,15.83,3S887.49,387.17,887.43,386.76Z" transform="translate(16.68 3.58)"/></g><g class="cls-11"><path class="cls-10" d="M1831.53,444.05c-6,5.23-6.12,14.9-6.12,14.9l.67.06h0a27.21,27.21,0,0,0,3.73,0h0l1.05-.09.15,0c.33,0,.67-.08,1-.14l.17,0c.39-.06.79-.13,1.19-.22h0a20.13,20.13,0,0,0,2.51-.71l.31-.11.9-.36.39-.19c.28-.12.54-.26.81-.4l.41-.22c.27-.16.53-.33.8-.51l.35-.23a12.32,12.32,0,0,0,1.09-.85,12.58,12.58,0,0,0,1-.95l.31-.36c.19-.22.38-.44.56-.67s.22-.29.32-.44.31-.43.45-.65l.3-.47c.13-.22.26-.44.37-.66l.27-.49.33-.7.22-.48c.15-.35.29-.69.42-1s.14-.41.21-.62.11-.33.17-.5.13-.43.19-.65l.12-.42c.06-.22.11-.44.16-.66s.06-.23.08-.34.11-.46.15-.68l0-.17a24.32,24.32,0,0,0,.47-3.95S1837.52,438.81,1831.53,444.05Z" transform="translate(16.68 3.58)"/><path class="cls-10" d="M1825.35,457.85h0c0-.24-.08-.54-.14-.88,0,0,0,0,0-.07-.08-.47-.2-1-.35-1.66a1.6,1.6,0,0,0,0-.21c-.06-.23-.12-.47-.19-.72s-.07-.23-.1-.35-.13-.44-.2-.66l-.14-.41c-.07-.22-.15-.44-.23-.66s-.1-.29-.16-.44-.2-.49-.31-.74l-.15-.37c-.17-.37-.34-.73-.53-1.1l-.16-.29c-.15-.27-.3-.55-.46-.82s-.18-.27-.26-.41l-.45-.68-.32-.43c-.16-.22-.33-.43-.5-.63s-.23-.28-.35-.41-.4-.43-.61-.64l-.33-.33a12.81,12.81,0,0,0-1-.89c-.37-.27-.75-.53-1.14-.76-.13-.09-.28-.16-.42-.24s-.5-.28-.76-.41l-.51-.23c-.23-.11-.47-.21-.71-.3l-.53-.2-.72-.23-.52-.16c-.27-.08-.53-.13-.79-.2l-.45-.1c-.39-.08-.77-.15-1.16-.21l-.53-.07-.66-.08-.54,0-.61,0-.51,0h-2l-.87.05h-.07l-.73.06h-.1l-.57.07h0l-.24,0h0l-.66.11s.78,9.64,7.12,14.45,15.84,3,15.84,3S1825.4,458.25,1825.35,457.85Z" transform="translate(16.68 3.58)"/></g></g></g><g id="tree-2" data-name="tree"><path class="cls-12" d="M88.86,130a33,33,0,1,1-33-33A33,33,0,0,1,88.86,130Z" transform="translate(16.68 3.58)"/><path class="cls-12" d="M80.31,97.05A24.43,24.43,0,1,1,55.89,72.63,24.42,24.42,0,0,1,80.31,97.05Z" transform="translate(16.68 3.58)"/><path class="cls-13" d="M53.45,144.07c-9.77,0-17.71-9.59-17.71-21.37a3.05,3.05,0,0,1,6.1,0c0,8.42,5.21,15.26,11.61,15.26a3.06,3.06,0,0,1,0,6.11Z" transform="translate(16.68 3.58)"/><path class="cls-13" d="M53.82,202.69a3,3,0,0,1-3-3.05V87.89a3,3,0,0,1,6.1,0V199.64A3,3,0,0,1,53.82,202.69Z" transform="translate(16.68 3.58)"/><path class="cls-13" d="M55.89,130.64a3.06,3.06,0,1,1,0-6.11c9,0,13.43-4.59,13.43-14a3.06,3.06,0,0,1,6.11,0C75.43,123.29,68.31,130.64,55.89,130.64Z" transform="translate(16.68 3.58)"/><path class="cls-12" d="M383.86,164.09a29.24,29.24,0,1,1-29.24-29.24A29.24,29.24,0,0,1,383.86,164.09Z" transform="translate(16.68 3.58)"/><path class="cls-12" d="M376.27,134.85a21.65,21.65,0,1,1-21.65-21.65A21.65,21.65,0,0,1,376.27,134.85Z" transform="translate(16.68 3.58)"/><path class="cls-13" d="M352.45,176.54c-8.65,0-15.69-8.5-15.69-18.95a2.71,2.71,0,1,1,5.41,0c0,7.46,4.61,13.53,10.28,13.53a2.71,2.71,0,1,1,0,5.42Z" transform="translate(16.68 3.58)"/><path class="cls-13" d="M352.79,228.51a2.71,2.71,0,0,1-2.71-2.71V126.73a2.71,2.71,0,0,1,5.41,0V225.8A2.7,2.7,0,0,1,352.79,228.51Z" transform="translate(16.68 3.58)"/><path class="cls-13" d="M354.62,164.63a2.71,2.71,0,1,1,0-5.41c8,0,11.91-4.08,11.91-12.46a2.71,2.71,0,0,1,5.41,0C371.94,158.12,365.63,164.63,354.62,164.63Z" transform="translate(16.68 3.58)"/><polygon class="cls-14" points="176.61 101.14 187.06 119.22 197.5 137.31 176.61 137.31 155.73 137.31 166.18 119.22 176.61 101.14"/><polygon class="cls-14" points="176.61 118.24 191.66 144.29 206.7 170.34 176.61 170.34 146.53 170.34 161.57 144.29 176.61 118.24"/><polygon class="cls-14" points="176.61 138.26 196.74 173.12 216.86 207.98 176.61 207.98 136.37 207.97 156.49 173.12 176.61 138.26"/><path class="cls-13" d="M158.69,265.33a4.52,4.52,0,0,1-4.52-4.53V136.71a4.52,4.52,0,1,1,9,0V260.8A4.53,4.53,0,0,1,158.69,265.33Z" transform="translate(16.68 3.58)"/><polygon class="cls-14" points="1603.89 156.46 1614.33 174.54 1624.77 192.63 1603.89 192.63 1583 192.63 1593.45 174.54 1603.89 156.46"/><polygon class="cls-14" points="1603.89 173.56 1618.93 199.61 1633.97 225.66 1603.89 225.66 1573.81 225.66 1588.85 199.61 1603.89 173.56"/><polygon class="cls-14" points="1603.89 193.58 1624.01 228.44 1644.14 263.3 1603.89 263.3 1563.64 263.29 1583.77 228.44 1603.89 193.58"/><path class="cls-13" d="M1586,320.65a4.52,4.52,0,0,1-4.52-4.53V192a4.52,4.52,0,1,1,9,0V316.12A4.53,4.53,0,0,1,1586,320.65Z" transform="translate(16.68 3.58)"/><polygon class="cls-14" points="1802.94 115.84 1814.76 136.31 1826.58 156.78 1802.94 156.78 1779.31 156.78 1791.13 136.31 1802.94 115.84"/><polygon class="cls-14" points="1802.94 135.2 1819.97 164.69 1837 194.18 1802.94 194.18 1768.89 194.18 1785.92 164.69 1802.94 135.2"/><polygon class="cls-14" points="1802.94 157.87 1825.72 197.32 1848.5 236.78 1802.94 236.78 1757.39 236.77 1780.17 197.32 1802.94 157.87"/><path class="cls-13" d="M1784.85,302.17a5.13,5.13,0,0,1-5.12-5.13V156.58a5.12,5.12,0,0,1,10.24,0V297A5.13,5.13,0,0,1,1784.85,302.17Z" transform="translate(16.68 3.58)"/><polygon class="cls-14" points="1843.72 167.48 1855.54 187.95 1867.36 208.42 1843.72 208.42 1820.08 208.42 1831.9 187.95 1843.72 167.48"/><polygon class="cls-14" points="1843.72 186.84 1860.75 216.32 1877.77 245.81 1843.72 245.81 1809.67 245.81 1826.7 216.32 1843.72 186.84"/><polygon class="cls-14" points="1843.72 209.5 1866.5 248.96 1889.28 288.41 1843.72 288.41 1798.16 288.4 1820.94 248.96 1843.72 209.5"/><path class="cls-13" d="M1825.62,353.8a5.12,5.12,0,0,1-5.11-5.13V208.22a5.12,5.12,0,1,1,10.23,0V348.67A5.13,5.13,0,0,1,1825.62,353.8Z" transform="translate(16.68 3.58)"/><polygon class="cls-14" points="87.67 174.84 98.11 192.93 108.56 211.01 87.67 211.01 66.79 211.01 77.23 192.93 87.67 174.84"/><polygon class="cls-14" points="87.67 191.95 102.72 218 117.76 244.05 87.67 244.05 57.59 244.05 72.63 218 87.67 191.95"/><polygon class="cls-14" points="87.67 211.97 107.8 246.83 127.92 281.69 87.67 281.69 47.43 281.68 67.55 246.83 87.67 211.97"/><path class="cls-13" d="M69.74,339a4.52,4.52,0,0,1-4.51-4.53V210.42a4.52,4.52,0,1,1,9,0V334.51A4.52,4.52,0,0,1,69.74,339Z" transform="translate(16.68 3.58)"/><polygon class="cls-14" points="183.89 230.17 194.33 248.26 204.77 266.34 183.89 266.34 163.01 266.34 173.45 248.26 183.89 230.17"/><polygon class="cls-14" points="183.89 247.28 198.94 273.33 213.98 299.38 183.89 299.38 153.81 299.38 168.85 273.33 183.89 247.28"/><polygon class="cls-14" points="183.89 267.3 204.02 302.16 224.14 337.01 183.89 337.01 143.65 337.01 163.77 302.16 183.89 267.3"/><path class="cls-13" d="M166,394.37a4.52,4.52,0,0,1-4.52-4.53V265.75a4.52,4.52,0,1,1,9,0V389.84A4.52,4.52,0,0,1,166,394.37Z" transform="translate(16.68 3.58)"/><polygon class="cls-14" points="419.93 249.24 428.45 264 436.98 278.78 419.93 278.78 402.87 278.78 411.4 264 419.93 249.24"/><polygon class="cls-14" points="419.93 263.2 432.21 284.48 444.5 305.76 419.93 305.76 395.36 305.76 407.64 284.48 419.93 263.2"/><polygon class="cls-14" points="419.93 279.56 436.36 308.03 452.8 336.5 419.93 336.5 387.06 336.49 403.49 308.03 419.93 279.56"/><path class="cls-13" d="M402.23,382.68a3.69,3.69,0,0,1-3.69-3.7V277.63a3.69,3.69,0,0,1,7.38,0V379A3.7,3.7,0,0,1,402.23,382.68Z" transform="translate(16.68 3.58)"/><path class="cls-12" d="M292.69,249a33,33,0,1,1-33-33A33,33,0,0,1,292.69,249Z" transform="translate(16.68 3.58)"/><path class="cls-12" d="M284.14,216a24.43,24.43,0,1,1-24.43-24.42A24.43,24.43,0,0,1,284.14,216Z" transform="translate(16.68 3.58)"/><path class="cls-13" d="M257.27,263c-9.76,0-17.71-9.59-17.71-21.37a3.06,3.06,0,0,1,6.11,0c0,8.42,5.2,15.26,11.6,15.26a3.06,3.06,0,1,1,0,6.11Z" transform="translate(16.68 3.58)"/><path class="cls-13" d="M257.65,321.63a3.06,3.06,0,0,1-3.06-3.05V206.83a3.06,3.06,0,0,1,6.11,0V318.58A3.06,3.06,0,0,1,257.65,321.63Z" transform="translate(16.68 3.58)"/><path class="cls-13" d="M259.71,249.58a3.06,3.06,0,0,1,0-6.11c9.05,0,13.44-4.59,13.44-14a3.05,3.05,0,1,1,6.1,0C279.25,242.23,272.13,249.58,259.71,249.58Z" transform="translate(16.68 3.58)"/><path class="cls-12" d="M1510.5,297.33a33,33,0,1,1-33-33A33,33,0,0,1,1510.5,297.33Z" transform="translate(16.68 3.58)"/><path class="cls-12" d="M1502,264.36a24.43,24.43,0,1,1-24.43-24.43A24.43,24.43,0,0,1,1502,264.36Z" transform="translate(16.68 3.58)"/><path class="cls-13" d="M1475.08,311.38c-9.77,0-17.71-9.59-17.71-21.37a3.06,3.06,0,1,1,6.11,0c0,8.41,5.2,15.26,11.6,15.26a3.06,3.06,0,0,1,0,6.11Z" transform="translate(16.68 3.58)"/><path class="cls-13" d="M1475.45,370a3.06,3.06,0,0,1-3-3.05V255.2a3.06,3.06,0,0,1,6.11,0V367A3.06,3.06,0,0,1,1475.45,370Z" transform="translate(16.68 3.58)"/><path class="cls-13" d="M1477.52,297.94a3.05,3.05,0,1,1,0-6.1c9,0,13.44-4.6,13.44-14a3,3,0,1,1,6.1,0C1497.06,290.6,1489.94,297.94,1477.52,297.94Z" transform="translate(16.68 3.58)"/><path class="cls-12" d="M1720.71,249.39a33,33,0,1,1-33-33A33,33,0,0,1,1720.71,249.39Z" transform="translate(16.68 3.58)"/><path class="cls-12" d="M1712.16,216.41A24.42,24.42,0,1,1,1687.74,192,24.42,24.42,0,0,1,1712.16,216.41Z" transform="translate(16.68 3.58)"/><path class="cls-13" d="M1685.3,263.43c-9.77,0-17.71-9.59-17.71-21.37a3.05,3.05,0,1,1,6.1,0c0,8.42,5.21,15.27,11.61,15.27a3.05,3.05,0,0,1,0,6.1Z" transform="translate(16.68 3.58)"/><path class="cls-13" d="M1685.67,322.05a3,3,0,0,1-3.05-3.05V207.25a3.05,3.05,0,1,1,6.1,0V319A3,3,0,0,1,1685.67,322.05Z" transform="translate(16.68 3.58)"/><path class="cls-13" d="M1687.74,250a3.06,3.06,0,1,1,0-6.11c9,0,13.43-4.59,13.43-14a3.06,3.06,0,0,1,6.11,0C1707.28,242.65,1700.16,250,1687.74,250Z" transform="translate(16.68 3.58)"/></g></g></g></g></svg>