<?xml version="1.0" encoding="utf-8"?>
<!-- Generator: Adobe Illustrator 25.2.1, SVG Export Plug-In . SVG Version: 6.00 Build 0)  -->
<svg version="1.1" xmlns="http://www.w3.org/2000/svg" xmlns:xlink="http://www.w3.org/1999/xlink" x="0px" y="0px"
	 viewBox="0 0 88.6 54" style="enable-background:new 0 0 88.6 54;" xml:space="preserve">
<style type="text/css">
	.st0{fill:#AF7F20;}
	.st1{fill:#7A2741;}
	.st2{fill:#FDCCA4;}
	.st3{fill:#FFE4CF;}
	.st4{fill:#FFC107;}
	.st5{fill:#F1573F;}
	.st6{fill:#FC6D5E;}
	.st7{fill:#F2DF30;}
	.st8{opacity:0.5;fill:#CCAA7D;}
	.st9{fill:#DDCB22;}
	.st10{fill:#305068;}
	.st11{fill:#491729;}
	.st12{fill:#D89C6F;}
	.st13{fill:#E45133;}
	.st14{fill:#B93722;}
	.st15{fill:#232628;}
	.st16{fill:#618200;}
	.st17{fill:#3D5601;}
	.st18{fill:#83A30F;}
	.st19{fill:#557009;}
	.st20{fill:#933D5C;}
	.st21{fill:#FFCA53;}
	.st22{fill:#FFD98D;}
</style>
<g id="圖層_30">
</g>
<g id="圖層_29">
</g>
<g id="圖層_28">
</g>
<g id="圖層_27">
</g>
<g id="圖層_26">
	<g>
		<path class="st5" d="M39.7,17.1c-5.9,3.2-8,11-4.5,17.5l0.6,1.1c3.4,6.5,11.1,9.2,17,6.1l29.7-15.8c5.9-3.2,8-11,4.5-17.5
			l-0.6-1.1c-3.4-6.5-11-9.2-17-6L39.7,17.1z"/>
		<path class="st2" d="M28.3,50.6c-6.2,2.6-13.5-0.7-16.4-7.4L11.3,42c-2.9-6.8-0.2-14.4,5.9-17l16.3-6.2c6.2-2.6,13.5,0.7,16.4,7.4
			l0.5,1.2c2.9,6.8,0.2,14.4-5.9,17L28.3,50.6z"/>
		<path class="st2" d="M30.4,45.4c-4.1,7.9-13.9,10.9-21.7,6.8C0.7,48-2.3,38.3,1.8,30.4c4.1-7.9,13.9-10.9,21.7-6.8
			C31.5,27.8,34.5,37.5,30.4,45.4z"/>
		<path class="st3" d="M13.3,24c-3.6-0.4-6.9,2.2-7.3,5.8c-0.4,3.6,2.2,6.9,5.8,7.3c3.6,0.4,6.9-2.2,7.3-5.8
			C19.5,27.8,16.9,24.5,13.3,24z"/>
	</g>
</g>
<g id="圖層_25">
</g>
<g id="圖層_24">
</g>
<g id="圖層_23">
</g>
<g id="圖層_22">
</g>
<g id="圖層_21">
</g>
<g id="圖層_20">
</g>
<g id="圖層_19">
</g>
<g id="圖層_18">
</g>
<g id="圖層_17">
</g>
<g id="圖層_16">
</g>
<g id="圖層_15">
</g>
<g id="圖層_14">
</g>
<g id="圖層_13_1_">
</g>
<g id="圖層_12">
</g>
<g id="圖層_11">
</g>
<g id="圖層_10">
</g>
<g id="圖層_9">
</g>
<g id="圖層_8">
</g>
<g id="圖層_7">
</g>
<g id="圖層_6_1_">
</g>
<g id="圖層_5_1_">
</g>
<g id="圖層_4_1_">
</g>
</svg>
