<?xml version="1.0" encoding="utf-8"?>
<!-- Generator: Adobe Illustrator 25.2.1, SVG Export Plug-In . SVG Version: 6.00 Build 0)  -->
<svg version="1.1" xmlns="http://www.w3.org/2000/svg" xmlns:xlink="http://www.w3.org/1999/xlink" x="0px" y="0px"
	 viewBox="0 0 89.8 122.1" style="enable-background:new 0 0 89.8 122.1;" xml:space="preserve">
<style type="text/css">
	.st0{fill:#AF7F20;}
	.st1{fill:#7A2741;}
	.st2{fill:#FDCCA4;}
	.st3{fill:#FFE4CF;}
	.st4{fill:#FFC107;}
	.st5{fill:#F1573F;}
	.st6{fill:#FC6D5E;}
	.st7{fill:#F2DF30;}
	.st8{opacity:0.5;fill:#CCAA7D;}
	.st9{fill:#DDCB22;}
	.st10{fill:#305068;}
	.st11{fill:#491729;}
	.st12{fill:#D89C6F;}
	.st13{fill:#E45133;}
	.st14{fill:#B93722;}
	.st15{fill:#232628;}
	.st16{fill:#618200;}
	.st17{fill:#3D5601;}
	.st18{fill:#83A30F;}
	.st19{fill:#557009;}
	.st20{fill:#933D5C;}
	.st21{fill:#FFCA53;}
	.st22{fill:#FFD98D;}
</style>
<g id="圖層_30">
</g>
<g id="圖層_29">
</g>
<g id="圖層_28">
</g>
<g id="圖層_27">
</g>
<g id="圖層_26">
</g>
<g id="圖層_25">
	<g>
		<path class="st2" d="M68.2,58.1c-1,6.7-7.6,11.2-14.9,10.2L52,68.1c-7.3-1-12.4-7.3-11.4-13.9l9.1-32.6c1-6.6,7.6-11.2,14.9-10.1
			l1.3,0.2c7.3,1,12.4,7.3,11.4,13.9L68.2,58.1z"/>
		<path class="st3" d="M44.1,46.2c-0.1,1.2,0.8,2.3,2,2.5l0,0c1.2,0.1,2.3-0.8,2.4-2l6.5-22.7c0.1-1.2-0.8-2.3-2-2.4l0,0
			c-1.2-0.1-2.3,0.8-2.4,2L44.1,46.2z"/>
	</g>
</g>
<g id="圖層_24">
	<g>
		<path class="st2" d="M66.2,87.7c0.3,6.7-5.4,12.4-12.7,12.8l-1.3,0.1c-7.3,0.4-13.6-4.8-13.9-11.5l2.8-33.8
			c-0.3-6.7,5.4-12.4,12.7-12.8l1.3-0.1c7.3-0.4,13.6,4.8,13.9,11.5L66.2,87.7z"/>
		<path class="st3" d="M40.3,80.6c0.1,1.2,1.2,2.1,2.4,2l0,0c1.2-0.1,2.1-1.2,2-2.5l2.1-23.6c-0.1-1.2-1.2-2.1-2.5-2l0,0
			c-1.2,0.1-2.1,1.2-2,2.5L40.3,80.6z"/>
	</g>
</g>
<g id="圖層_23">
</g>
<g id="圖層_22">
</g>
<g id="圖層_21">
</g>
<g id="圖層_20">
</g>
<g id="圖層_19">
</g>
<g id="圖層_18">
</g>
<g id="圖層_17">
</g>
<g id="圖層_16">
</g>
<g id="圖層_15">
</g>
<g id="圖層_14">
</g>
<g id="圖層_13_1_">
</g>
<g id="圖層_12">
</g>
<g id="圖層_11">
</g>
<g id="圖層_10">
	<g>
		<path class="st4" d="M13.7,100c-0.2,0.5-0.2,0.9-0.2,0.9l1.3,0.3l15.1,1.3l0.1-1.1L13.7,100z"/>
		<path class="st5" d="M30.2,94.7C30.2,94.7,30.3,94.7,30.2,94.7c0.5,0,3.5-0.4,7.9-6.3l0.7-28l31.4,2.7l-4.2,36.1l-0.6,6.2
			l-35.6-2.9l0,0l-0.1,0l0,0l-15.1-1.3l-1.3-0.3C13.4,100.9,14.5,92.6,30.2,94.7z"/>
		<path class="st6" d="M66.8,93.4l-0.1,1.1c-5.6,0.2-10.3,4.5-10.8,10.1l-1.1-0.1C55.3,98.2,60.6,93.5,66.8,93.4z"/>
		<path class="st6" d="M42.6,89c0,0.5-0.3,0.9-0.7,0.9l0,0c-0.4,0-0.7-0.4-0.7-0.9l-0.7-25.5c0-0.5,0.3-0.9,0.7-0.9l0,0
			c0.4,0,0.7,0.4,0.7,0.9L42.6,89z"/>
		<path class="st6" d="M15.6,102.8c0.3,0,0.6-0.2,0.6-0.5c0.8-6.1,9.2-5.5,9.3-5.5c5.1,1.3,7.4-0.3,7.5-0.3c0.3-0.2,0.3-0.5,0.1-0.8
			c-0.2-0.3-0.5-0.3-0.8-0.1c0,0-2.1,1.3-6.7,0.2c-0.2,0-9.7-0.8-10.6,6.4C15.1,102.4,15.3,102.7,15.6,102.8
			C15.6,102.8,15.6,102.8,15.6,102.8z"/>
		<polygon class="st7" points="65.5,105.4 64.9,112.7 49,111.3 47.8,109.8 29.3,108.2 27.2,109.4 12.8,108.2 13.4,100.9 		"/>
		
			<rect x="59.5" y="106.9" transform="matrix(8.633326e-02 -0.9963 0.9963 8.633326e-02 -50.7247 162.4175)" class="st8" width="7.3" height="4"/>
		<polygon class="st8" points="25.9,102.2 25.9,102.1 26,102.2 26,102.2 61.6,105.1 62.1,98.8 66.4,62.8 70.3,63.1 66.1,99.2 
			65.5,105.4 29.9,102.5 29.9,102.5 29.8,102.5 29.8,102.5 14.7,101.2 14.6,101.2 		"/>
		<path class="st9" d="M20.7,102.5c0,0.3,0.2,0.5,0.4,0.5l24.2,2.1c0.3,0,0.5-0.2,0.5-0.4l0,0c0-0.3-0.2-0.5-0.4-0.5l-24.2-2.1
			C20.9,102.1,20.7,102.3,20.7,102.5L20.7,102.5z"/>
		<path class="st9" d="M14.7,102c0,0.3,0.2,0.5,0.4,0.5l3.9,0.3c0.3,0,0.5-0.2,0.5-0.4l0,0c0-0.3-0.2-0.5-0.4-0.5l-3.9-0.3
			C15,101.6,14.8,101.8,14.7,102L14.7,102z"/>
	</g>
</g>
<g id="圖層_9">
</g>
<g id="圖層_8">
</g>
<g id="圖層_7">
</g>
<g id="圖層_6_1_">
</g>
<g id="圖層_5_1_">
</g>
<g id="圖層_4_1_">
</g>
</svg>
