<svg xmlns="http://www.w3.org/2000/svg" viewBox="0 0 49.97 43.29"><defs><style>.cls-1{isolation:isolate;}.cls-2{fill:#97e2ff;}.cls-3{fill:#ccaa7d;opacity:0.5;mix-blend-mode:multiply;}.cls-4{fill:#ccf3ff;}</style></defs><g class="cls-1"><g id="圖層_8" data-name="圖層 8"><path class="cls-2" d="M13.34,10.93c9.75-7,31.08-3,31.08-3S40.33,30,31.73,36.49c-9.6,7.23-17.56,3.95-22.64-3.1S3.59,18,13.34,10.93Z"/><path class="cls-3" d="M25.75,30.21c-10.1,4.19-16.7.28-20.2-6.56a17,17,0,0,0,3.54,9.74c5.08,7,13,10.33,22.64,3.1C40.33,30,44.42,8,44.42,8l-.33-.06C41.36,13.25,33.71,26.92,25.75,30.21Z"/><path class="cls-4" d="M22.47,12.58c1.12,1.54-.85,4.9-4.42,7.5s-7.37,3.44-8.5,1.9.85-4.92,4.41-7.52S21.34,11,22.47,12.58Z"/></g></g></svg>