<svg xmlns="http://www.w3.org/2000/svg" viewBox="0 0 40.6 39.66"><defs><style>.cls-1{isolation:isolate;}.cls-2{fill:#97e2ff;}.cls-3{fill:#ccaa7d;opacity:0.5;mix-blend-mode:multiply;}.cls-4{fill:#ccf3ff;}</style></defs><g class="cls-1"><g id="圖層_8" data-name="圖層 8"><path class="cls-2" d="M15.4,11.73c7.85-2.42,20.78,4.86,20.78,4.86S28.71,30,21.74,32.3C13.93,34.89,9.5,31,7.75,25.35S7.56,14.14,15.4,11.73Z"/><path class="cls-3" d="M19.24,26.92c-7.46.51-10.88-3.47-11.65-8.65a11.47,11.47,0,0,0,.16,7.08c1.75,5.66,6.18,9.54,14,6.95,7-2.32,14.44-15.71,14.44-15.71l-.19-.1C33,19.35,25.1,26.53,19.24,26.92Z"/><path class="cls-4" d="M21,14.78c.39,1.25-1.63,3-4.51,3.9s-5.52.61-5.91-.63,1.62-3,4.5-3.9S20.56,13.54,21,14.78Z"/></g></g></svg>