<svg xmlns="http://www.w3.org/2000/svg" viewBox="0 0 60 60"><defs><style>.cls-1{isolation:isolate;}.cls-2{fill:#97e2ff;}.cls-3{fill:#ccaa7d;opacity:0.5;mix-blend-mode:multiply;}.cls-4{fill:#ccf3ff;}</style></defs><g class="cls-1"><g id="圖層_8" data-name="圖層 8"><path class="cls-2" d="M26.39,12.63c13.33,1.58,27.83,21,27.83,21s-20,15.07-32,13.91C8.9,46.24,4.83,37.53,6,27.9S13.08,11,26.39,12.63Z"/><path class="cls-3" d="M22.07,37.84C10.61,33.67,8.13,25.49,10.4,17.23A19,19,0,0,0,6,27.9C4.83,37.53,8.9,46.24,22.25,47.53c12,1.16,32-13.91,32-13.91L54,33.33C47.7,35.66,31.11,41.14,22.07,37.84Z"/><path class="cls-4" d="M32.67,20.86c-.25,2.13-4.4,3.4-9.3,2.85S14.72,21,15,18.85s4.41-3.41,9.3-2.86S32.9,18.73,32.67,20.86Z"/></g></g></svg>