<svg xmlns="http://www.w3.org/2000/svg" xmlns:xlink="http://www.w3.org/1999/xlink" viewBox="0 0 180 240"><defs><style>.cls-1{fill:none;}.cls-2{clip-path:url(#clip-path);}.cls-3{fill:url(#未命名漸層_6);}.cls-4{fill:url(#未命名漸層_6-2);}.cls-5{fill:#89c955;}.cls-6{fill:#2a7032;}.cls-7{fill:#a0db70;}.cls-8{fill:#46a652;}.cls-9{fill:#67c272;}.cls-10{fill:#58b865;}.cls-11{fill:#9ed472;}.cls-12{fill:#ff7878;}.cls-13{fill:#ffa3a3;}.cls-14{fill:#ed5f5f;}.cls-15{fill:#f6ff9e;}.cls-16{fill:#ff85e5;}.cls-17{fill:#ffb5ef;}.cls-18{fill:#ed5fce;}.cls-19{fill:#ffa6a6;}.cls-20{fill:#35b4bd;}.cls-21{fill:#2781a8;}.cls-22{fill:#1f6585;}</style><clipPath id="clip-path"><rect class="cls-1" width="180" height="240"/></clipPath><radialGradient id="未命名漸層_6" cx="90" cy="120" r="103.73" gradientTransform="translate(0 -33.94) scale(1 1.28)" gradientUnits="userSpaceOnUse"><stop offset="0" stop-color="#fff"/><stop offset="1" stop-color="#157274"/></radialGradient><radialGradient id="未命名漸層_6-2" r="93.57" gradientTransform="translate(0 -47.55) scale(1 1.4)" xlink:href="#未命名漸層_6"/></defs><g id="DESIGNED_BY_FREEPIK" data-name="DESIGNED BY FREEPIK"><g class="cls-2"><rect class="cls-3" width="180" height="240"/><ellipse class="cls-4" cx="90" cy="120" rx="82.77" ry="112.25"/><path class="cls-5" d="M10.2,154.9A88.2,88.2,0,0,1-24,159.62,88,88,0,0,1,5.39,141.54a87.92,87.92,0,0,1,34.15-4.72A88,88,0,0,1,10.2,154.9Z"/><polygon class="cls-6" points="-27.07 159.38 38.84 137.07 -26.11 162.06 -27.07 159.38"/><polygon class="cls-6" points="-8.19 153.96 0.72 143.39 -5.46 153.14 -8.19 153.96"/><polygon class="cls-6" points="3.5 149.76 12.41 139.2 6.22 148.94 3.5 149.76"/><polygon class="cls-6" points="15.2 145.6 21.7 137.9 17.18 145 15.2 145.6"/><polygon class="cls-6" points="-8.21 153.9 5.4 156.38 -5.58 152.8 -8.21 153.9"/><polygon class="cls-6" points="3.48 149.71 17.08 152.19 6.1 148.61 3.48 149.71"/><polygon class="cls-6" points="15.15 145.47 25.08 147.28 17.07 144.67 15.15 145.47"/><path class="cls-5" d="M176.1,178.78c17.54,11.77,34.16,8.82,34.16,8.82s-11.81-22-29.35-33.8S146.75,145,146.75,145,158.57,167,176.1,178.78Z"/><path class="cls-7" d="M180.91,158.84c12.46,8.36,22,21.9,26.52,29a26.46,26.46,0,0,0,2.83-.28s-11.81-22-29.35-33.8S146.75,145,146.75,145s1,1.85,2.83,4.76A52.13,52.13,0,0,1,180.91,158.84Z"/><polygon class="cls-6" points="213.36 187.16 147.46 145.45 212.4 192.16 213.36 187.16"/><polygon class="cls-6" points="182.8 169.17 173.89 149.43 180.07 167.64 182.8 169.17"/><polygon class="cls-6" points="171.1 161.4 164.6 146.99 169.11 160.28 171.1 161.4"/><polygon class="cls-6" points="182.82 169.07 169.21 173.71 180.2 167.01 182.82 169.07"/><polygon class="cls-6" points="171.15 161.16 161.22 164.54 169.23 159.66 171.15 161.16"/><path class="cls-8" d="M0,240.48a84.61,84.61,0,0,0,14.68-14.4,87.76,87.76,0,0,0,15.27-30.87A83.1,83.1,0,0,0-9.34,240.48Z"/><polygon class="cls-6" points="-4.11 240.48 29.48 195.79 -7.06 240.48 -4.11 240.48"/><polygon class="cls-6" points="-1.42 235.02 0.53 221.35 0.46 232.88 -1.42 235.02"/><polygon class="cls-6" points="6.26 225.28 8.2 211.6 8.14 223.14 6.26 225.28"/><polygon class="cls-6" points="13.97 215.55 15.39 205.58 15.34 213.99 13.97 215.55"/><polygon class="cls-6" points="-1.46 234.99 11.39 229.88 0.18 232.66 -1.46 234.99"/><polygon class="cls-6" points="6.22 225.24 19.07 220.13 7.86 222.92 6.22 225.24"/><polygon class="cls-6" points="13.86 215.47 23.24 211.74 15.06 213.77 13.86 215.47"/><path class="cls-8" d="M-4.57,92.29C-23.11,88.39-37.4,70.88-37.4,70.88s15.76-11.2,34.29-7.31S29.72,85,29.72,85,14,96.19-4.57,92.29Z"/><path class="cls-9" d="M-7.07,67.53C8.64,70.83,21.29,83.9,24.8,87.82A41,41,0,0,0,29.72,85S15.43,67.47-3.11,63.57-37.4,70.88-37.4,70.88s.33.41,1,1.12C-30.36,69-19.32,65-7.07,67.53Z"/><polygon class="cls-6" points="-40.1 67.72 28.98 84.83 -40.39 73.46 -40.1 67.72"/><polygon class="cls-6" points="-8.38 76.98 4.24 65.46 -5.57 77.88 -8.38 76.98"/><polygon class="cls-6" points="3.97 79.66 13.17 71.25 6.02 80.31 3.97 79.66"/><polygon class="cls-6" points="-8.37 76.86 2.81 93.38 -5.53 77.16 -8.37 76.86"/><polygon class="cls-6" points="3.99 79.38 12.15 91.43 6.06 79.59 3.99 79.38"/><path class="cls-5" d="M-2.28,21.91A70.42,70.42,0,0,1-19.43.29,70.52,70.52,0,0,1,5,13.16,70.42,70.42,0,0,1,22.15,34.78,70.52,70.52,0,0,1-2.28,21.91Z"/><polygon class="cls-6" points="-20.53 -1.95 21.68 34.4 -21.98 -0.2 -20.53 -1.95"/><polygon class="cls-6" points="-9.1 8.86 1.82 10.7 -7.43 10.4 -9.1 8.86"/><polygon class="cls-6" points="-1.45 15.2 9.47 17.05 0.22 16.75 -1.45 15.2"/><polygon class="cls-6" points="6.18 21.58 14.15 22.92 7.4 22.7 6.18 21.58"/><polygon class="cls-6" points="-1.42 15.17 2.4 25.55 0.41 16.53 -1.42 15.17"/><polygon class="cls-6" points="6.25 21.49 9.03 29.07 7.58 22.48 6.25 21.49"/><path class="cls-8" d="M178.91,240.48h9.37A83.14,83.14,0,0,0,149,195.25a87.76,87.76,0,0,0,15.27,30.88A85.09,85.09,0,0,0,178.91,240.48Z"/><polygon class="cls-6" points="185.98 240.48 149.48 195.84 183.04 240.48 185.98 240.48"/><polygon class="cls-6" points="180.38 235.07 178.44 221.39 178.5 232.93 180.38 235.07"/><polygon class="cls-6" points="172.7 225.32 170.76 211.65 170.82 223.18 172.7 225.32"/><polygon class="cls-6" points="164.99 215.6 163.57 205.62 163.62 214.04 164.99 215.6"/><polygon class="cls-6" points="180.42 235.03 167.57 229.93 178.78 232.71 180.42 235.03"/><polygon class="cls-6" points="172.74 225.29 159.89 220.18 171.1 222.96 172.74 225.29"/><polygon class="cls-6" points="165.1 215.51 155.72 211.79 163.9 213.82 165.1 215.51"/><path class="cls-8" d="M174.31,103.75c18.53-3.39,32.83-18.64,32.83-18.64s-15.76-9.74-34.3-6.35S140,97.39,140,97.39,155.77,107.14,174.31,103.75Z"/><path class="cls-10" d="M176.08,82c12.7-2.32,24.09,1.52,30,4.17.68-.66,1-1,1-1s-15.76-9.74-34.3-6.35S140,97.39,140,97.39a40.49,40.49,0,0,0,4.29,2.19C147.91,96.07,160.5,84.84,176.08,82Z"/><polygon class="cls-6" points="209.84 82.36 140.76 97.25 210.13 87.36 209.84 82.36"/><polygon class="cls-6" points="190.47 88.16 177.85 78.14 187.66 88.94 190.47 88.16"/><polygon class="cls-6" points="178.12 90.42 165.5 80.4 175.3 91.2 178.12 90.42"/><polygon class="cls-6" points="165.77 92.75 156.56 85.44 163.71 93.32 165.77 92.75"/><polygon class="cls-6" points="190.46 88.06 179.28 102.44 187.62 88.32 190.46 88.06"/><polygon class="cls-6" points="178.11 90.32 166.92 104.7 175.27 90.58 178.11 90.32"/><polygon class="cls-6" points="165.75 92.51 157.59 103 163.68 92.7 165.75 92.51"/><path class="cls-5" d="M173.14,28A87.83,87.83,0,0,0,194.55,1a88.18,88.18,0,0,0-30.5,16.08,87.86,87.86,0,0,0-21.41,27A88,88,0,0,0,173.14,28Z"/><polygon class="cls-6" points="195.92 -1.82 143.22 43.56 197.74 0.37 195.92 -1.82"/><polygon class="cls-6" points="181.66 11.67 168.02 13.97 179.57 13.6 181.66 11.67"/><polygon class="cls-6" points="172.1 19.6 158.47 21.9 170.01 21.53 172.1 19.6"/><polygon class="cls-6" points="162.58 27.55 152.63 29.23 161.05 28.96 162.58 27.55"/><polygon class="cls-6" points="181.62 11.63 176.85 24.59 179.34 13.33 181.62 11.63"/><polygon class="cls-6" points="172.07 19.55 167.3 32.52 169.79 21.25 172.07 19.55"/><polygon class="cls-6" points="162.49 27.45 159.01 36.91 160.82 28.69 162.49 27.45"/><path class="cls-8" d="M30.89.09C31.24,1,31.62,2,32,3c8,18.15,28.08,31.31,28.08,31.31A46.25,46.25,0,0,0,59.25.09Z"/><polygon class="cls-6" points="43.45 0.09 59.8 33.54 46.27 0.09 43.45 0.09"/><polygon class="cls-6" points="45.38 0.09 62.01 7.08 49.33 0.09 45.38 0.09"/><polygon class="cls-6" points="48.9 9.06 62.3 16.45 49.58 11.1 48.9 9.06"/><polygon class="cls-6" points="41.8 0.09 35.66 10.12 44.86 0.09 41.8 0.09"/><polygon class="cls-6" points="49.16 9.03 43.27 18.64 50.26 11.02 49.16 9.03"/><path class="cls-8" d="M104.69.09a88.11,88.11,0,0,0,3.86,30,87.94,87.94,0,0,0,10.26-30Z"/><polygon class="cls-6" points="111.05 0.09 108.63 29.38 112.26 0.09 111.05 0.09"/><polygon class="cls-6" points="115.36 0.09 118.21 4.69 116.16 0.09 115.36 0.09"/><polygon class="cls-6" points="111.22 4.41 115.34 13.61 110.9 6.46 111.22 4.41"/><polygon class="cls-6" points="106.77 0.09 104.47 3.24 107.5 0.09 106.77 0.09"/><polygon class="cls-6" points="111.36 4.42 105.41 12.56 111.25 6.5 111.36 4.42"/><path class="cls-5" d="M123.21,240.48c.59-19.11-9.94-38.15-9.94-38.15a49,49,0,0,0-14.34,31.32,50.2,50.2,0,0,0,0,6.83Z"/><path class="cls-11" d="M123.21,240.48c.59-19.11-9.94-38.15-9.94-38.15a36.61,36.61,0,0,0-3.81,4.22c1.17,2.21,9,17.56,9.76,33.93Z"/><polygon class="cls-6" points="112.25 240.48 113.22 203.11 109.73 240.48 112.25 240.48"/><polygon class="cls-6" points="100.09 240.48 98.88 239.03 99.84 240.48 100.09 240.48"/><polygon class="cls-6" points="111.06 240.48 111.18 239.73 99.7 225.96 109.31 240.48 111.06 240.48"/><polygon class="cls-6" points="111.62 229.59 103.58 217.43 111.95 227.47 111.62 229.59"/><polygon class="cls-6" points="113.78 240.48 123.25 234.09 110.57 239.52 110.59 240.48 113.78 240.48"/><polygon class="cls-6" points="111.39 229.51 120.59 223.3 111.34 227.26 111.39 229.51"/><path class="cls-12" d="M46.84,212.44a29.37,29.37,0,0,0,3.62-1.28,9,9,0,0,0,2.33-1.24A2.94,2.94,0,0,0,54,207.63a2.88,2.88,0,0,0-2.55-2.46,6.59,6.59,0,0,0-3.69.82,7.88,7.88,0,0,0,2.51-2.18,2.69,2.69,0,0,0,0-3.13c-1-1.16-2.86-.82-4.23-.14a13.37,13.37,0,0,0-4.41,3.62,29,29,0,0,0-.1-3.84,8.78,8.78,0,0,0-.47-2.6,2.89,2.89,0,0,0-1.81-1.8,2.87,2.87,0,0,0-3.13,1.66,6.61,6.61,0,0,0-.36,3.77,7.93,7.93,0,0,0-1.3-3.07,2.7,2.7,0,0,0-3-1c-1.41.58-1.66,2.47-1.44,4a13.56,13.56,0,0,0,2.08,5.32,28.84,28.84,0,0,0-3.68-1.09,8.64,8.64,0,0,0-2.62-.36,2.91,2.91,0,0,0-2.27,1.16,2.86,2.86,0,0,0,.61,3.49,6.5,6.5,0,0,0,3.47,1.51,7.83,7.83,0,0,0-3.31.29,2.68,2.68,0,0,0-1.86,2.52c.11,1.52,1.83,2.34,3.34,2.6a13.56,13.56,0,0,0,5.7-.34,26.49,26.49,0,0,0-2.17,3.17,8.56,8.56,0,0,0-1.16,2.37,2.9,2.9,0,0,0,.41,2.53,2.86,2.86,0,0,0,3.5.49,6.51,6.51,0,0,0,2.51-2.83,7.68,7.68,0,0,0-.75,3.24,2.7,2.7,0,0,0,1.82,2.55c1.48.36,2.8-1,3.5-2.38A13.51,13.51,0,0,0,40.59,220a29.51,29.51,0,0,0,2.33,3,9,9,0,0,0,1.91,1.84,2.93,2.93,0,0,0,2.53.39,2.87,2.87,0,0,0,1.55-3.18A6.53,6.53,0,0,0,47,218.82a8,8,0,0,0,2.85,1.71,2.69,2.69,0,0,0,3-.94c.81-1.3-.1-3-1.17-4.07A13.54,13.54,0,0,0,46.84,212.44Zm-11.1,1.2A3.87,3.87,0,0,0,36,209.8a3.83,3.83,0,0,0,3.73-.92,3.88,3.88,0,0,0,2,3.27,3.81,3.81,0,0,0-2.47,2.94A3.84,3.84,0,0,0,35.74,213.64Z"/><path class="cls-13" d="M32.69,224.52c.1-.29.21-.58.32-.87a9,9,0,0,1-.68,1.12A3.9,3.9,0,0,0,32.69,224.52Z"/><path class="cls-13" d="M37.75,216.64a3.89,3.89,0,0,1,1.08-2,3.8,3.8,0,0,0-3.09-1,3.81,3.81,0,0,0,.66-2.23,4,4,0,0,1-1.94,0,3.8,3.8,0,0,1-.28,3.83A3.88,3.88,0,0,1,37.75,216.64Z"/><path class="cls-13" d="M46.15,207.55a6.44,6.44,0,0,1,3.69-.82,2.87,2.87,0,0,1,2.55,2.46,2.41,2.41,0,0,1-.28,1.2,5.46,5.46,0,0,0,.68-.47A2.94,2.94,0,0,0,54,207.63a2.88,2.88,0,0,0-2.55-2.46,5.71,5.71,0,0,0-2.95.49A8.81,8.81,0,0,1,46.15,207.55Z"/><path class="cls-13" d="M26.05,212.86a8.33,8.33,0,0,1-2.54-.83,2.8,2.8,0,0,0-.93,1.18l.16-.07A7.84,7.84,0,0,1,26.05,212.86Z"/><path class="cls-13" d="M40,213.54a3.34,3.34,0,0,0-.25.4,4.12,4.12,0,0,1,.52-.24A1.75,1.75,0,0,1,40,213.54Z"/><path class="cls-13" d="M44.46,202.1c1.36-.68,3.24-1,4.23.14a2.69,2.69,0,0,1,0,3.09,5.71,5.71,0,0,0,1.54-1.52,2.69,2.69,0,0,0,0-3.13c-1-1.16-2.86-.82-4.23-.14a13.42,13.42,0,0,0-4.13,3.28A12.74,12.74,0,0,1,44.46,202.1Z"/><path class="cls-13" d="M24.25,206.69a8.58,8.58,0,0,1,2.61.37,27.44,27.44,0,0,1,3.69,1.09,13.19,13.19,0,0,1-1.28-2.44l-.85-.21a8.64,8.64,0,0,0-2.62-.36,2.91,2.91,0,0,0-2.27,1.16,2,2,0,0,0-.27.6A3.37,3.37,0,0,1,24.25,206.69Z"/><path class="cls-13" d="M48.16,213a24.41,24.41,0,0,1-2.88,1,13.4,13.4,0,0,1,4.81,3.08,4.15,4.15,0,0,1,1.43,3.45,2.26,2.26,0,0,0,1.3-.94c.81-1.3-.1-3-1.17-4.07A13.19,13.19,0,0,0,48.16,213Z"/><path class="cls-13" d="M48.28,222.09a7.84,7.84,0,0,1-2.85-1.72,6.47,6.47,0,0,1,1.92,3.26,3.31,3.31,0,0,1-.15,1.68l.16-.05a2.84,2.84,0,0,0,1.56-3.07A2.84,2.84,0,0,1,48.28,222.09Z"/><path class="cls-13" d="M32.88,199.84a7.87,7.87,0,0,1,1.29,3.06,6.49,6.49,0,0,1,.37-3.76,3,3,0,0,1,.22-.39,3.63,3.63,0,0,0-.33-.47,2.7,2.7,0,0,0-3-1,2.28,2.28,0,0,0-1.27,1.47A2.84,2.84,0,0,1,32.88,199.84Z"/><path class="cls-13" d="M39,221.54a13.67,13.67,0,0,1-1.44,5.53l-.32.55a5.19,5.19,0,0,0,1.87-2.11,12.69,12.69,0,0,0,1-2.47A17.71,17.71,0,0,1,39,221.54Z"/><path class="cls-13" d="M37.66,197.47a3,3,0,0,1,1.82,1.81,8.77,8.77,0,0,1,.46,2.6,29,29,0,0,1,.1,3.84,14.39,14.39,0,0,1,1.56-1.66,29.25,29.25,0,0,0-.1-3.74,8.78,8.78,0,0,0-.47-2.6,2.89,2.89,0,0,0-1.81-1.8,2.87,2.87,0,0,0-3.13,1.66s0,0,0,.06A2.3,2.3,0,0,1,37.66,197.47Z"/><path class="cls-14" d="M41.88,209.85c-1.64,1.68-4,1.47-4.75-.88a7.66,7.66,0,0,1,.45-5.16c.39-.83,1.16-1.71,2.06-1.53a1.65,1.65,0,0,1,1.18,1.49,4.78,4.78,0,0,1-.37,2A4,4,0,0,1,41.89,204a1.74,1.74,0,0,1,2.14.2,1.81,1.81,0,0,1,.32,1.52,5.47,5.47,0,0,1-.64,1.47A12.4,12.4,0,0,1,41.88,209.85Z"/><path class="cls-14" d="M37.36,208c1.09,2.08.17,4.22-2.31,4.24a7.52,7.52,0,0,1-4.76-2c-.68-.63-1.28-1.62-.83-2.43a1.66,1.66,0,0,1,1.79-.65,4.64,4.64,0,0,1,1.77,1,3.93,3.93,0,0,1-1.25-1.92,1.72,1.72,0,0,1,.85-2,1.79,1.79,0,0,1,1.54.16,5.28,5.28,0,0,1,1.2,1.06A12.48,12.48,0,0,1,37.36,208Z"/><path class="cls-14" d="M34.2,211.72c2.31-.39,4.07,1.15,3.32,3.51a7.59,7.59,0,0,1-3.4,3.9c-.81.45-1.94.71-2.57,0a1.64,1.64,0,0,1-.07-1.89,4.73,4.73,0,0,1,1.46-1.39,4,4,0,0,1-2.21.6,1.75,1.75,0,0,1-1.61-1.42,1.78,1.78,0,0,1,.63-1.42,5.66,5.66,0,0,1,1.38-.82A12.94,12.94,0,0,1,34.2,211.72Z"/><path class="cls-14" d="M36.76,215.88c.35-2.32,2.35-3.52,4.36-2.07a7.58,7.58,0,0,1,2.67,4.43c.17.91.07,2.06-.77,2.45a1.63,1.63,0,0,1-1.82-.51,4.87,4.87,0,0,1-.87-1.82,4,4,0,0,1-.12,2.29,1.56,1.56,0,0,1-3,0,5.21,5.21,0,0,1-.36-1.56A12.72,12.72,0,0,1,36.76,215.88Z"/><path class="cls-14" d="M41.51,214.73c-2.1-1-2.62-3.32-.62-4.79a7.63,7.63,0,0,1,5-1.17c.92.12,2,.57,2.09,1.49A1.62,1.62,0,0,1,47,211.83a4.65,4.65,0,0,1-2,.27,3.89,3.89,0,0,1,2.14.82,1.73,1.73,0,0,1,.47,2.09,1.76,1.76,0,0,1-1.35.77,5.33,5.33,0,0,1-1.59-.14A12.94,12.94,0,0,1,41.51,214.73Z"/><path class="cls-15" d="M39,215a3.35,3.35,0,1,0-.43,0"/><path class="cls-16" d="M67.5,217.64a4.22,4.22,0,0,0-2.41-.38,5.15,5.15,0,0,0,2-.72,1.75,1.75,0,0,0,.75-1.88c-.32-.93-1.53-1.16-2.51-1.08a8.83,8.83,0,0,0-3.51,1.14,18.48,18.48,0,0,0,.85-2.33,6,6,0,0,0,.33-1.67,1.87,1.87,0,0,0-.67-1.51,1.84,1.84,0,0,0-2.27.26,4.2,4.2,0,0,0-1.1,2.18,5.18,5.18,0,0,0-.06-2.15,1.74,1.74,0,0,0-1.55-1.29c-1,0-1.58,1.09-1.81,2a8.83,8.83,0,0,0,0,3.69,19,19,0,0,0-2-1.52,5.49,5.49,0,0,0-1.49-.84,1.89,1.89,0,0,0-1.64.17A1.83,1.83,0,0,0,50,214a4.16,4.16,0,0,0,1.73,1.72,5.27,5.27,0,0,0-2.06-.61A1.77,1.77,0,0,0,48,216.19c-.28.94.56,1.84,1.4,2.35a8.65,8.65,0,0,0,3.51,1.14,18.93,18.93,0,0,0-2,1.39,5.36,5.36,0,0,0-1.26,1.16,1.88,1.88,0,0,0-.35,1.61,1.85,1.85,0,0,0,2,1.12,4.22,4.22,0,0,0,2.18-1.11,5.2,5.2,0,0,0-1.22,1.77,1.76,1.76,0,0,0,.5,2c.8.57,1.92,0,2.66-.6a8.7,8.7,0,0,0,2.17-3,18,18,0,0,0,.69,2.38,5.45,5.45,0,0,0,.71,1.55,1.9,1.9,0,0,0,1.43.83A1.85,1.85,0,0,0,62,227.21a4.15,4.15,0,0,0-.39-2.41,5.13,5.13,0,0,0,1.31,1.7,1.75,1.75,0,0,0,2,.14c.79-.59.64-1.82.25-2.72a8.68,8.68,0,0,0-2.16-3,17,17,0,0,0,2.47.08,5.39,5.39,0,0,0,1.7-.19,1.88,1.88,0,0,0,1.23-1.1A1.84,1.84,0,0,0,67.5,217.64Zm-9.61,3.11a2.45,2.45,0,0,0-1.8-1.71,2.46,2.46,0,0,0,1.07-2.24,2.49,2.49,0,0,0,2.47.32,2.49,2.49,0,0,0,.45,2.45A2.47,2.47,0,0,0,57.89,220.75Z"/><path class="cls-17" d="M56.19,209.38a1.75,1.75,0,0,1,1.55,1.3,5.18,5.18,0,0,1,.06,2.15,4.22,4.22,0,0,1,1.11-2.18l.15-.13a3.18,3.18,0,0,0-.14-1,1.74,1.74,0,0,0-1.55-1.29,1.82,1.82,0,0,0-1.52,1.23A1.28,1.28,0,0,1,56.19,209.38Z"/><path class="cls-17" d="M56.72,221.93a2.47,2.47,0,0,1,2.18-1.19,2.48,2.48,0,0,1-.4-.66,2.8,2.8,0,0,0-.61.67,2.45,2.45,0,0,0-1.8-1.71,2.47,2.47,0,0,0,.66-.67A2.5,2.5,0,0,1,56,218a2.51,2.51,0,0,1-1.07,2.24A2.49,2.49,0,0,1,56.72,221.93Z"/><path class="cls-17" d="M50.94,212.77a5.74,5.74,0,0,1,1.49.83,19.34,19.34,0,0,1,2,1.52,8.68,8.68,0,0,1-.19-2.27l-.59-.42a5.49,5.49,0,0,0-1.49-.84,1.89,1.89,0,0,0-1.64.17,1.48,1.48,0,0,0-.59.93A2.08,2.08,0,0,1,50.94,212.77Z"/><path class="cls-17" d="M61.18,210.38a1.92,1.92,0,0,1,.66,1.52,5.39,5.39,0,0,1-.33,1.67,20.83,20.83,0,0,1-.84,2.33,8.63,8.63,0,0,1,3.5-1.14c1-.09,2.19.15,2.51,1.08a1.41,1.41,0,0,1,0,1,2.48,2.48,0,0,0,.47-.27,1.75,1.75,0,0,0,.75-1.88c-.32-.93-1.53-1.16-2.51-1.08a8.83,8.83,0,0,0-3.51,1.14,18.48,18.48,0,0,0,.85-2.33,6,6,0,0,0,.33-1.67,1.87,1.87,0,0,0-.67-1.51,1.84,1.84,0,0,0-2.27.26,3,3,0,0,0-.61.81A1.71,1.71,0,0,1,61.18,210.38Z"/><path class="cls-17" d="M49.66,222.25a17.58,17.58,0,0,1,2.05-1.39l-.5-.07-.37.28a5.36,5.36,0,0,0-1.26,1.16l-.1.15Z"/><path class="cls-17" d="M64.2,222.19a16.45,16.45,0,0,1-2.33-.08,8.91,8.91,0,0,1,2.17,3,3.44,3.44,0,0,1,.28,1.8,1.37,1.37,0,0,0,.64-.25c.79-.59.64-1.82.25-2.72A8.11,8.11,0,0,0,64.2,222.19Z"/><path class="cls-17" d="M67.5,217.64a3,3,0,0,0-1.12-.36,2.08,2.08,0,0,1-.45.44,5.2,5.2,0,0,1-2,.72,4.31,4.31,0,0,1,2.41.37,1.88,1.88,0,0,1,1,2,1.66,1.66,0,0,0,.2-3.14Z"/><path class="cls-17" d="M56.33,225.18a8.9,8.9,0,0,1-1.21,2l.22-.18a7.81,7.81,0,0,0,1.13-1.22C56.42,225.57,56.37,225.37,56.33,225.18Z"/><path class="cls-17" d="M48.52,216.29a5.11,5.11,0,0,1,2.06.61,4.39,4.39,0,0,1-1.68-1.63,1.52,1.52,0,0,0-.92.92c0,.06,0,.12,0,.18A2.32,2.32,0,0,1,48.52,216.29Z"/><path class="cls-17" d="M61.77,227.68a4.88,4.88,0,0,1-1.31-1.7,4.21,4.21,0,0,1,.38,2.41,1.81,1.81,0,0,1-.09.31,1.85,1.85,0,0,0,1.09-1Z"/><path class="cls-18" d="M60.67,218.21c-1.38.62-2.73-.05-2.64-1.65a4.91,4.91,0,0,1,1.48-3c.44-.41,1.1-.76,1.6-.44a1.07,1.07,0,0,1,.36,1.17,3.14,3.14,0,0,1-.69,1.11,2.51,2.51,0,0,1,1.29-.73,1.11,1.11,0,0,1,1.23.62,1.16,1.16,0,0,1-.16,1,3.37,3.37,0,0,1-.73.73A7.89,7.89,0,0,1,60.67,218.21Z"/><path class="cls-18" d="M58.39,216c.17,1.51-.89,2.58-2.38,2a4.94,4.94,0,0,1-2.39-2.34c-.26-.54-.38-1.28.08-1.66a1.07,1.07,0,0,1,1.22,0,3,3,0,0,1,.84,1,2.54,2.54,0,0,1-.3-1.45,1.14,1.14,0,0,1,1-1,1.19,1.19,0,0,1,.89.46,3.8,3.8,0,0,1,.47.92A7.66,7.66,0,0,1,58.39,216Z"/><path class="cls-18" d="M55.61,217.53c1.49.3,2.18,1.64,1.18,2.88a4.93,4.93,0,0,1-3,1.55c-.6.08-1.34,0-1.55-.58a1,1,0,0,1,.4-1.16,3,3,0,0,1,1.2-.49,2.63,2.63,0,0,1-1.47-.16,1.13,1.13,0,0,1-.63-1.24,1.15,1.15,0,0,1,.71-.7,3.56,3.56,0,0,1,1-.16A7.36,7.36,0,0,1,55.61,217.53Z"/><path class="cls-18" d="M56.18,220.63c.75-1.32,2.24-1.56,3.11-.22a5,5,0,0,1,.56,3.29c-.11.59-.44,1.26-1,1.3a1.08,1.08,0,0,1-1-.74,3.16,3.16,0,0,1-.09-1.3,2.57,2.57,0,0,1-.61,1.35,1.13,1.13,0,0,1-1.37.22,1.17,1.17,0,0,1-.44-.9,3.55,3.55,0,0,1,.15-1A8.07,8.07,0,0,1,56.18,220.63Z"/><path class="cls-18" d="M59.31,221.05c-1-1.12-.8-2.61.75-3a4.86,4.86,0,0,1,3.3.48c.53.29,1.06.81.91,1.39a1.07,1.07,0,0,1-1,.7,3.16,3.16,0,0,1-1.27-.31,2.58,2.58,0,0,1,1.1,1,1,1,0,0,1-1.21,1.52,3.6,3.6,0,0,1-.92-.46A8,8,0,0,1,59.31,221.05Z"/><path class="cls-15" d="M57.7,220.64a2.15,2.15,0,1,0-.27-.09"/><path class="cls-6" d="M180,198.5c-.84-1-1.69-2.06-2.55-3.08-3.58-4.3-7.22-8.78-11.44-12.48-.67-.59-1.79.16-1.28,1,2.89,4.81,6.65,9.18,10.25,13.47,1.66,2,3.34,3.93,5,5.88Z"/><path class="cls-6" d="M35.43,240.29c.07-.29.14-.58.22-.87l1.68-6.56c.57-2.22,1.53-4.66,1.44-7a1.25,1.25,0,0,0-2.31-.63c-1.12,1.91-1.41,4.33-1.93,6.46l-1.68,6.93c-.14.55-.27,1.1-.4,1.64Z"/><path class="cls-6" d="M134.06,219.3c.88,3.84,1.74,7.69,2.51,11.56.63,3.14,1.21,6.28,1.76,9.43H141q-.68-4.93-1.57-9.86c-.16-.92-.34-1.85-.51-2.78,1-2.58,2-5.16,3.15-7.69,1.19-2.71,2.73-5.33,3.59-8.16.26-.88-1-1.71-1.61-.94a32.54,32.54,0,0,0-4.25,8.14c-.62,1.49-1.18,3-1.7,4.5-.32-1.56-.65-3.12-1-4.68-.44-1.92-.88-3.84-1.37-5.75a17.94,17.94,0,0,0-2-5.5,1,1,0,0,0-1.9.51,19.2,19.2,0,0,0,.85,5.46C133.13,215.47,133.61,217.38,134.06,219.3Z"/><path class="cls-16" d="M136.15,206.1v0a5.81,5.81,0,0,0-.36-.86l-.17-.39a4,4,0,0,0-1.37-1.5,5.42,5.42,0,0,0-2.53-1.05,4,4,0,0,0-2.12.1l-1.28.54-1.08.83a4,4,0,0,0-1.1,1.72,5.36,5.36,0,0,0-.36,2.76,3.92,3.92,0,0,0,.63,2l.83,1.08,1.08.84,1.28.53a3.93,3.93,0,0,0,2.12.1,4,4,0,0,0,2-.63l0,0a5.06,5.06,0,0,0,1.16-.86,3.94,3.94,0,0,0,1.06-1.65,3.83,3.83,0,0,0,.44-2A5,5,0,0,0,136.15,206.1Z"/><path class="cls-16" d="M144.29,207.1c-5.21,0-5.22,8.09,0,8.09S149.5,207.1,144.29,207.1Z"/><path class="cls-17" d="M134.93,203.61a3,3,0,0,0-4.29,0,2.21,2.21,0,0,0-.63,1,2.24,2.24,0,0,0-.26,1.17,3,3,0,0,0,.89,2.15,3.05,3.05,0,0,0,4.29,0,2.43,2.43,0,0,0,.63-1,2.34,2.34,0,0,0,.26-1.17A3.1,3.1,0,0,0,134.93,203.61Z"/><path class="cls-17" d="M147.45,209.29l0-.27-.29-.69a2.08,2.08,0,0,0-.73-.8,1.42,1.42,0,0,0-.63-.36,2.1,2.1,0,0,0-1.1-.25l-.76.1-.69.29a2.11,2.11,0,0,0-.8.74,2.16,2.16,0,0,0-.51,1l0,.27a3.13,3.13,0,0,0,0,1.55,2.92,2.92,0,0,0,.75,1.28,3,3,0,0,0,2.06.85,3,3,0,0,0,2-.85,2.9,2.9,0,0,0,.75-2.83Z"/><path class="cls-6" d="M86.3,13.06C85.66,10.28,85,7.5,84.48,4.7c-.33-1.63-.63-3.26-.93-4.9h-2c.26,1.74.53,3.48.85,5.21.12.67.24,1.34.37,2-.73,1.87-1.47,3.73-2.28,5.57a53.29,53.29,0,0,0-2.59,5.9c-.19.63.72,1.23,1.16.68a23.59,23.59,0,0,0,3.07-5.89c.45-1.08.86-2.16,1.23-3.26q.34,1.7.72,3.39c.32,1.39.64,2.78,1,4.16a13,13,0,0,0,1.43,4,.75.75,0,0,0,1.38-.38,13.74,13.74,0,0,0-.62-4C87,15.83,86.62,14.45,86.3,13.06Z"/><path class="cls-16" d="M84.78,22.46v0h0a3.42,3.42,0,0,0,.27.62l.12.29a2.86,2.86,0,0,0,1,1.08A1.89,1.89,0,0,0,87,25a1.93,1.93,0,0,0,1,.26,3,3,0,0,0,1.54-.07l.92-.39.78-.6a2.8,2.8,0,0,0,.8-1.24,1.87,1.87,0,0,0,.26-1,1.77,1.77,0,0,0,0-1,2.9,2.9,0,0,0-.45-1.44l-.61-.78-.78-.6-.92-.39A3,3,0,0,0,88,17.66a3,3,0,0,0-1.43.46h0a4.19,4.19,0,0,0-.84.63A2.74,2.74,0,0,0,84.94,20a2.8,2.8,0,0,0-.32,1.42A3.88,3.88,0,0,0,84.78,22.46Z"/><path class="cls-16" d="M78.85,21.74a2.94,2.94,0,1,0,0-5.85A2.94,2.94,0,1,0,78.85,21.74Z"/><path class="cls-17" d="M85.67,24.27a2.3,2.3,0,0,0,1.55.64,2.26,2.26,0,0,0,1.55-.64,1.54,1.54,0,0,0,.45-.71,1.53,1.53,0,0,0,.19-.84,2.18,2.18,0,0,0-.64-1.55,2.17,2.17,0,0,0-3.1,0,1.46,1.46,0,0,0-.45.7,1.56,1.56,0,0,0-.19.85A2.21,2.21,0,0,0,85.67,24.27Z"/><path class="cls-17" d="M76.61,20.16l0,.19.21.5a1.55,1.55,0,0,0,.53.58,1,1,0,0,0,.45.26,1.59,1.59,0,0,0,.8.18l.55-.07.49-.21a1.56,1.56,0,0,0,.58-.53,1.47,1.47,0,0,0,.37-.71l0-.19a2.13,2.13,0,0,0,0-1.12,2.08,2.08,0,0,0-.54-.93,2.12,2.12,0,0,0-3,0,2.08,2.08,0,0,0-.54.93A2.13,2.13,0,0,0,76.61,20.16Z"/><path class="cls-6" d="M166.5,115.88c2.78-.64,5.56-1.26,8.36-1.82,1.67-.33,3.34-.64,5-1v-2c-1.78.27-3.56.55-5.33.87l-2,.37c-1.87-.73-3.73-1.47-5.57-2.28a53.29,53.29,0,0,0-5.9-2.59c-.63-.19-1.23.72-.67,1.16a23.72,23.72,0,0,0,5.88,3.08c1.08.44,2.16.85,3.26,1.22-1.13.23-2.26.47-3.38.73-1.39.31-2.79.63-4.17,1a13,13,0,0,0-4,1.43.75.75,0,0,0,.38,1.38,13.74,13.74,0,0,0,4-.62C163.73,116.55,165.11,116.2,166.5,115.88Z"/><path class="cls-16" d="M157.1,114.37h0a3.76,3.76,0,0,0-.62.27l-.29.12a2.86,2.86,0,0,0-1.08,1,2,2,0,0,0-.5.85,2,2,0,0,0-.26,1,3,3,0,0,0,.07,1.54l.39.92.6.78a2.86,2.86,0,0,0,1.24.8,3.8,3.8,0,0,0,2,.27,3,3,0,0,0,1.44-.46l.78-.61.6-.78.39-.92a3,3,0,0,0,.07-1.54,2.85,2.85,0,0,0-.46-1.43v0a3.85,3.85,0,0,0-.63-.84,2.74,2.74,0,0,0-1.19-.76,2.77,2.77,0,0,0-1.42-.32A3.6,3.6,0,0,0,157.1,114.37Z"/><path class="cls-16" d="M157.82,108.44a2.94,2.94,0,1,0,5.85,0A2.94,2.94,0,1,0,157.82,108.44Z"/><path class="cls-17" d="M155.29,115.25a2.2,2.2,0,0,0,0,3.1,1.65,1.65,0,0,0,.71.46,1.62,1.62,0,0,0,.84.18,2.22,2.22,0,0,0,1.56-.64,2.2,2.2,0,0,0,0-3.1,2.49,2.49,0,0,0-1.56-.64A2.21,2.21,0,0,0,155.29,115.25Z"/><path class="cls-17" d="M159.41,106.19l-.2,0-.5.21a1.55,1.55,0,0,0-.58.53,1.13,1.13,0,0,0-.26.45,1.59,1.59,0,0,0-.18.8l.07.55.21.49a2.28,2.28,0,0,0,1.24.95l.2,0a2.1,2.1,0,0,0,2-.54,2.1,2.1,0,0,0,0-3,2.1,2.1,0,0,0-2-.54Z"/><path class="cls-6" d="M13.5,103.27c-2.78.64-5.56,1.26-8.36,1.82-1.67.33-3.34.64-5,1v2c1.78-.27,3.56-.55,5.33-.87l2-.37c1.87.73,3.73,1.47,5.57,2.28a52.48,52.48,0,0,0,5.9,2.59c.63.19,1.23-.72.67-1.16a23.36,23.36,0,0,0-5.88-3.07c-1.08-.45-2.16-.86-3.26-1.23,1.13-.23,2.26-.47,3.38-.72,1.39-.32,2.79-.64,4.17-1A13,13,0,0,0,22,103a.75.75,0,0,0-.38-1.38,13.74,13.74,0,0,0-3.95.62C16.27,102.6,14.89,103,13.5,103.27Z"/><path class="cls-16" d="M22.9,104.79h0a3.76,3.76,0,0,0,.62-.27l.29-.12a2.86,2.86,0,0,0,1.08-1,2,2,0,0,0,.5-.85,2,2,0,0,0,.26-1,3,3,0,0,0-.07-1.54l-.39-.92-.6-.78a2.86,2.86,0,0,0-1.24-.8,1.87,1.87,0,0,0-1-.26,1.77,1.77,0,0,0-1,0,2.87,2.87,0,0,0-1.44.45l-.78.61-.6.78-.39.92a3,3,0,0,0-.07,1.54,2.85,2.85,0,0,0,.46,1.43v0a3.85,3.85,0,0,0,.63.84,2.74,2.74,0,0,0,1.19.76,2.77,2.77,0,0,0,1.42.32A3.94,3.94,0,0,0,22.9,104.79Z"/><path class="cls-16" d="M22.18,110.6a2.94,2.94,0,1,0-5.85,0A2.94,2.94,0,1,0,22.18,110.6Z"/><path class="cls-17" d="M24.71,103.9a2.2,2.2,0,0,0,0-3.1,1.65,1.65,0,0,0-.71-.46,1.62,1.62,0,0,0-.84-.18,2.22,2.22,0,0,0-1.56.64,2.2,2.2,0,0,0,0,3.1,1.63,1.63,0,0,0,.71.45,1.64,1.64,0,0,0,.85.19A2.21,2.21,0,0,0,24.71,103.9Z"/><path class="cls-17" d="M20.59,113l.2,0,.5-.21a1.55,1.55,0,0,0,.58-.53,1.13,1.13,0,0,0,.26-.45,1.59,1.59,0,0,0,.18-.8l-.07-.55-.21-.49a1.56,1.56,0,0,0-.53-.58,1.47,1.47,0,0,0-.71-.37l-.2,0a2.1,2.1,0,0,0-2,.54,2.1,2.1,0,0,0,0,3,2.1,2.1,0,0,0,2,.54Z"/><path class="cls-6" d="M31.62,21.25l-.78-1.48a9.21,9.21,0,0,0,2.29,1.49c.7.29,1.65-.37,1.15-1.15-1.45-2.24-4-3.89-6.18-5.53l-1.28-2.43Q23.53,6,20.18-.2H17.56q3.09,6.33,6.24,12.65A25.8,25.8,0,0,1,22.43,18c-.69,1.9-2.26,3.78-2.55,5.77-.12.87.71,1.77,1.59,1.22,1.92-1.19,2.8-3.94,3.46-6a21.41,21.41,0,0,0,.71-2.92q1.66,3.33,3.36,6.66c1.52,3,2.93,6.24,5.14,8.78.71.81,1.93-.06,1.71-1C35.07,27.29,33.17,24.21,31.62,21.25Z"/><path class="cls-16" d="M18.81,24c-3.95,0-3.95,6.49,0,6.49C23.13,30.53,23.13,24,18.81,24Z"/><path class="cls-16" d="M39.36,30.76a4.55,4.55,0,0,0-1.17-2l-.91-.71A4.6,4.6,0,0,0,35,27.43a3.47,3.47,0,0,0-1.74.39,3.5,3.5,0,0,0-1.46.94,3.39,3.39,0,0,0-.93,1.46A3.28,3.28,0,0,0,30.47,32l.16,1.2a4.59,4.59,0,0,0,1.16,2l.92.71a4.48,4.48,0,0,0,2.28.61,3.29,3.29,0,0,0,1.75-.39,3.36,3.36,0,0,0,1.45-.93,3.41,3.41,0,0,0,.94-1.46A3.47,3.47,0,0,0,39.52,32Z"/><path class="cls-16" d="M35,16.28c-4.91,0-4.92,7.63,0,7.63S39.91,16.28,35,16.28Z"/><path class="cls-17" d="M38.84,30.43a2.28,2.28,0,0,0-.62-1,2.24,2.24,0,0,0-1-.63,2.24,2.24,0,0,0-1.17-.26,3,3,0,0,0-2.14.89A3,3,0,0,0,33,31.6l0,.29a2.32,2.32,0,0,0,.26,1.16,2.68,2.68,0,0,0,1.59,1.59,2.32,2.32,0,0,0,1.16.26A3.06,3.06,0,0,0,38.2,34l.47-.61a3,3,0,0,0,.41-1.52l0-.29A2.35,2.35,0,0,0,38.84,30.43Z"/><path class="cls-17" d="M38.38,18.5A1.82,1.82,0,0,0,37.15,18a1.8,1.8,0,0,0-1.23.51,1.71,1.71,0,0,0-.45,1.7l.07.2a1.74,1.74,0,0,0,.6.86,1.54,1.54,0,0,0,1,.36A2,2,0,0,0,38,21.4a1.78,1.78,0,0,0,.77-1l.07-.2A1.71,1.71,0,0,0,38.38,18.5Z"/><path class="cls-17" d="M21.16,27.45a1.28,1.28,0,0,0-.56-.33,1.34,1.34,0,0,0-.69,0,2,2,0,0,0-.49.11,1.25,1.25,0,0,0-.77,1.13,1.29,1.29,0,0,0,.62,1.07,1.31,1.31,0,0,0,.64.18,1.34,1.34,0,0,0,.69,0,1.28,1.28,0,0,0,.56-.33,1.34,1.34,0,0,0,.38-.92A1.31,1.31,0,0,0,21.16,27.45Z"/><path class="cls-6" d="M160.57-.5a88.26,88.26,0,0,0-13.49,10.65,1.16,1.16,0,0,0-1.22-.23,45,45,0,0,1-8.68,2.29,45.18,45.18,0,0,1-4.65.46c-1.34.07-2.71-.09-3.86.68a1.31,1.31,0,0,0,0,2.22c1.26.93,3,.7,4.5.6a37.5,37.5,0,0,0,4.61-.6A34.6,34.6,0,0,0,143.29,14c-1.9,2-3.72,4.17-5.43,6.38-1.16,1.5-2.26,3.05-3.29,4.63a17.63,17.63,0,0,0-2.78,5.46,1,1,0,0,0,1.59.92A23.38,23.38,0,0,0,136.83,27c1.14-1.6,2.3-3.17,3.5-4.72q2-2.59,4.16-5.05c-.31,1.48-.54,3-.73,4.36a48.34,48.34,0,0,0-.46,6c0,1.84-.1,4.07,1,5.6a.85.85,0,0,0,1.45,0c.76-1.55.56-3.26.55-5a51.49,51.49,0,0,1,.24-5.82c.33-3.24,1.29-6.33,1.92-9.48A106.22,106.22,0,0,1,165-.5Z"/><circle class="cls-12" cx="128.96" cy="14.04" r="5.16" transform="translate(-0.1 27.1) rotate(-11.99)"/><path class="cls-12" d="M132.91,26.56c-5.17,0-5.18,8,0,8S138.1,26.56,132.91,26.56Z"/><path class="cls-12" d="M145.5,29.85c-5.11,0-5.12,7.94,0,7.94S150.61,29.85,145.5,29.85Z"/><path class="cls-19" d="M125.72,10.92c-2.87,0-2.87,4.81,0,4.81A2.41,2.41,0,1,0,125.72,10.92Z"/><path class="cls-19" d="M131.84,27.67c-3.29,0-3.3,5.1,0,5.1S135.13,27.67,131.84,27.67Z"/><path class="cls-19" d="M143.34,32.13c-2.63,0-2.64,4.09,0,4.09S146,32.13,143.34,32.13Z"/><path class="cls-12" d="M14.49,161.6a2.81,2.81,0,0,0-.79-1.22,3.76,3.76,0,0,0-1.68-1l-.58-.08a2.91,2.91,0,0,0-1.52.07l-.19,0-.4.07a3.47,3.47,0,0,0-1.51.89,3.39,3.39,0,0,0-.88,1.51,3.51,3.51,0,0,0,0,1.82,3.45,3.45,0,0,0,.88,1.51,4.67,4.67,0,0,0,1.27,1.14,3.94,3.94,0,0,0,2.93.38,3.67,3.67,0,0,0,1.68-1,2.81,2.81,0,0,0,.79-1.22,3.44,3.44,0,0,0,0-2.94Z"/><path class="cls-12" d="M33.48,159.86l-.09-.27-.41-1a3.17,3.17,0,0,0-1.07-1.17,2.15,2.15,0,0,0-.91-.53,3.09,3.09,0,0,0-1.59-.35l-1.1.14-1,.42a3.14,3.14,0,0,0-1.16,1.07,3.06,3.06,0,0,0-.74,1.4l-.08.27A4.15,4.15,0,0,0,26.42,164l.86.66a4.15,4.15,0,0,0,2.13.57,3.21,3.21,0,0,0,1.62-.36,3.12,3.12,0,0,0,1.36-.87A4.23,4.23,0,0,0,33.48,159.86Z"/><path class="cls-12" d="M29.41,171.14c-5.44,0-5.45,8.44,0,8.44S34.85,171.14,29.41,171.14Z"/><path class="cls-6" d="M26.73,168.26c1.69-1.59,3.74-3.08,4.77-5.2a1,1,0,0,0-1.39-1.4c-2.08.87-3.6,2.73-5.21,4.26l-5.19,4.93L12.2,178a23.25,23.25,0,0,0,1.36-6.09c.31-2.68.91-7.32-1-9.49a1.05,1.05,0,0,0-1.74.46c-.54,1.28-.13,2.79-.07,4.15a33.06,33.06,0,0,1-.07,4.56c-.24,2.9-1.37,5.93-1.25,8.83a.43.43,0,0,0,0,.19l-.37.35Q4.79,185,.53,189.08V193l10.6-10,3.28-3.1c2.25-.29,4.49-.66,6.73-1,3.11-.51,6.63-.81,9.51-2.13,1-.44.39-1.78-.49-1.84-3.07-.19-6.37.81-9.36,1.43l-3.36.71,4.09-3.87Q24.14,170.73,26.73,168.26Z"/><path class="cls-19" d="M29.41,157.79c-3.65,0-3.65,5.66,0,5.66S33.06,157.79,29.41,157.79Z"/><path class="cls-19" d="M13.61,161.5l-.15-.2a2.41,2.41,0,0,0-.84-.84,2.37,2.37,0,0,0-1.19-.33,2.38,2.38,0,0,0-2,1.17l-.15.2a2.51,2.51,0,0,0-.35,1.28,2.48,2.48,0,0,0,.35,1.27,2.52,2.52,0,0,0,4.36,0,2.48,2.48,0,0,0,.35-1.27A2.51,2.51,0,0,0,13.61,161.5Z"/><path class="cls-19" d="M30.13,172.33c-4.36,0-4.37,6.78,0,6.78S34.49,172.33,30.13,172.33Z"/><path class="cls-20" d="M157.83,57.61c-3.81-2.63-9.65-2.79-13.32.31s-4.71,9.68-3,14.06c.75,2,2.66,3,4.64,2a6.21,6.21,0,0,0,2.63-3.22,11.39,11.39,0,0,0-1.51-11.1A21.16,21.16,0,0,0,157.43,59c.42-.14.92-.42.85-.85A.89.89,0,0,0,157.83,57.61Z"/><path class="cls-21" d="M149.58,56.36c-5.06-1.52-7.43,5.3-6.84,9.1a4.76,4.76,0,0,0,.85,2.25,2.4,2.4,0,0,0,2.1,1,2.42,2.42,0,0,0,1.83-1.48,5.1,5.1,0,0,0,.33-2.42,12,12,0,0,0-1.62-5.32,8.35,8.35,0,0,0,3.33-.41c.61-.21,1.29-.59,1.36-1.23S150.27,56.57,149.58,56.36Z"/><path class="cls-20" d="M148,44.67c1.47,4.38,0,10-4,12.72s-10.6,1.87-14.36-.93c-1.7-1.26-2.17-3.38-.61-5a6.24,6.24,0,0,1,3.82-1.64,11.36,11.36,0,0,1,10.25,4.5,21.3,21.3,0,0,1,3.41-9.65c.24-.36.65-.77,1-.58A.91.91,0,0,1,148,44.67Z"/><path class="cls-21" d="M147,53c.08,5.28-7.13,5.68-10.62,4.08a4.93,4.93,0,0,1-1.93-1.44,2.19,2.19,0,0,1,1.53-3.65,5,5,0,0,1,2.42.35,12.09,12.09,0,0,1,4.67,3,8.37,8.37,0,0,1,1.31-3.09c.36-.53.92-1.07,1.56-1S146.94,52.22,147,53Z"/><path class="cls-22" d="M146.18,54.87a38.58,38.58,0,0,0-3.62,3.5l-.15,0a1,1,0,0,0-1,1.1c-.23.32-.54.73-1,.74a.4.4,0,0,1-.45-.27c-.07-.24.11-.32.27-.43a.11.11,0,0,0,0-.19c-.56-.27-.74.72-.36,1a.89.89,0,0,0,.85.08,1.46,1.46,0,0,0,.68-.62,1,1,0,0,0,.38.65c-.51.33-1.09.73-.81,1.37a.55.55,0,0,0,.68.34.51.51,0,0,0,.33-.62.17.17,0,0,0-.16-.13h0a.13.13,0,0,0-.12.09c-.06.14,0,.42-.25.32s-.19-.43-.09-.6a3.12,3.12,0,0,1,.71-.64,1,1,0,0,0,.4.05.91.91,0,0,0,.82-1c2-1,4.67-3,5.08-4.73C148.9,52.74,146.67,54.44,146.18,54.87Z"/></g></g></svg>