<?xml version="1.0" encoding="utf-8"?>
<!-- Generator: Adobe Illustrator 25.2.1, SVG Export Plug-In . SVG Version: 6.00 Build 0)  -->
<svg version="1.1" id="圖層_1" xmlns="http://www.w3.org/2000/svg" xmlns:xlink="http://www.w3.org/1999/xlink" x="0px" y="0px"
	 viewBox="0 0 180 240" style="enable-background:new 0 0 180 240;" xml:space="preserve">
<style type="text/css">
	.st0{clip-path:url(#SVGID_2_);}
	.st1{fill:#84EEF4;}
	.st2{opacity:0.7;}
	.st3{fill:#76AE43;}
	.st4{fill:#5D9441;}
	.st5{clip-path:url(#SVGID_4_);}
	.st6{opacity:0.6;fill:url(#SVGID_5_);enable-background:new    ;}
	.st7{fill:#FCE171;}
	.st8{opacity:0.6;}
	.st9{fill:#FFFFFF;}
	.st10{opacity:0.8;}
	.st11{fill:#D8E384;}
	.st12{clip-path:url(#SVGID_7_);}
	.st13{fill:#FCCA24;}
	.st14{fill:#C6DA5E;}
	.st15{fill:#B0D25C;}
	.st16{fill:#C7DC74;}
	.st17{clip-path:url(#SVGID_9_);}
	.st18{fill:#92B93F;}
	.st19{fill:#F5F9F2;}
	.st20{fill:#98D3D2;}
	.st21{fill:#FAAF1E;}
	.st22{fill:#4D3729;}
	.st23{fill:#FFC947;}
	.st24{fill:#221E1F;}
	.st25{fill:#F395A0;}
	.st26{fill:#FBE5E4;}
	.st27{fill:#4E7B38;}
	.st28{fill:#FCF6F8;}
	.st29{fill:#FFCD45;}
	.st30{fill:#2ECC56;}
	.st31{fill:#FFF0BA;}
	.st32{fill:#FDD944;}
</style>
<g>
	<defs>
		<rect id="SVGID_1_" x="-0.2" y="-0.1" width="180.3" height="240.2"/>
	</defs>
	<clipPath id="SVGID_2_">
		<use xlink:href="#SVGID_1_"  style="overflow:visible;"/>
	</clipPath>
	<g class="st0">
		<rect x="0.2" y="0.1" class="st1" width="180" height="240"/>
		<g class="st2">
			<path class="st3" d="M83.3,62.2c-1.7-0.1-3.8,0.2-5.1-1.4c-1.1-1.5-0.9-3.6,0.5-4.8c-0.6-0.6-0.8-1.5-0.6-2.4
				c0.1-0.6,0.3-1.2,0.7-1.7c0.2-0.3,0.9-0.5,0.9-0.8c0.2-0.5-0.4-1.7-0.4-2.3c0.2-1,0.7-1.9,1.5-2.5c-1.3-1.4,0-3.4,1.2-4.4
				c-0.5-0.8,0-2.4,0.2-3.3s0.9-3.6,1.8-4.1c1.5-0.7,2,2.5,2.2,3.4s0.1,1.6,0.3,2.3c0.1,0.7,0.4,1.2,0.9,1.7c0.7,0.9,0.8,2,0.4,3
				c-0.1,0.3-0.3,0.7-0.3,1s0.8,1,1,1.4c0.8,1.3,0.5,2.9-0.7,3.8c1.1,0.3,2,1.2,2.4,2.2c0.5,1.3-0.1,2.3-1,3.2
				c1.2,0.9,1.5,2.6,0.6,3.9c-0.2,0.3-0.5,0.5-0.8,0.7c-1.3,0.9-3.2,0.9-4.7,0.9L83.3,62.2z"/>
			<path class="st4" d="M81,57.4c0-0.1,0-0.2,0-0.4c0-0.1,0-0.3,0-0.4c0-0.1,0.1-0.3,0.2-0.4c0.1-0.1,0.2-0.2,0.3-0.3
				c0.1-0.1,0.3-0.1,0.4-0.2c0.1,0,0.3,0,0.4,0c0.1,0,0.3,0.1,0.4,0.1c0.1,0.1,0.3,0.1,0.4,0.2l-0.3,0.2c0-0.2,0-0.3,0-0.5
				c0-0.2,0.1-0.3,0.1-0.5c0.1-0.3,0.3-0.6,0.6-0.8c0.1-0.1,0.3-0.2,0.5-0.2c0.1,0,0.2,0,0.3,0h0.3c0.1,0,0.2,0,0.3,0l0.2,0.1
				c0.1,0.1,0.3,0.1,0.4,0.2c-0.1,0-0.3-0.1-0.4-0.1c-0.1,0-0.3,0-0.4,0c-0.1,0-0.1,0-0.2,0c-0.1,0-0.1,0-0.2,0.1
				c-0.1,0.1-0.2,0.1-0.3,0.2c-0.1,0.1-0.2,0.2-0.3,0.3l-0.1,0.2c0,0.1-0.1,0.1-0.1,0.2c0,0.1-0.1,0.3-0.1,0.4c0,0.1,0,0.3,0,0.4
				l0,0c0,0.1-0.1,0.2-0.2,0.2l0,0c0,0-0.1,0-0.1,0c-0.1-0.1-0.2-0.1-0.3-0.2c-0.1-0.1-0.2-0.1-0.3-0.1c-0.1,0-0.2,0-0.3,0
				c-0.1,0-0.2,0-0.3,0.1c-0.1,0-0.2,0.1-0.3,0.2c-0.1,0.1-0.1,0.2-0.2,0.3c-0.1,0.1-0.1,0.2-0.1,0.3C81.1,57.1,81,57.3,81,57.4z"/>
		</g>
		<g class="st2">
			<path class="st3" d="M96.7,69.6c-1.7-0.1-3.8,0.2-5.1-1.4c-1.1-1.5-0.9-3.6,0.5-4.8c-0.6-0.6-0.8-1.5-0.6-2.4
				c0.1-0.6,0.3-1.2,0.7-1.7c0.2-0.3,0.9-0.5,0.9-0.8c0.2-0.5-0.4-1.7-0.4-2.3c0.2-1,0.7-1.9,1.4-2.5c-1.3-1.4,0-3.4,1.2-4.4
				c-0.5-0.8,0-2.4,0.2-3.3s0.9-3.6,1.8-4.1c1.5-0.7,2,2.5,2.2,3.4s0.1,1.6,0.3,2.3c0.1,0.6,0.4,1.2,0.9,1.7c0.7,0.9,0.8,2,0.4,3
				c-0.1,0.3-0.3,0.7-0.3,1s0.8,1,1,1.4c0.8,1.3,0.5,2.9-0.7,3.8c1.1,0.3,2,1.1,2.4,2.2c0.5,1.3-0.1,2.3-1,3.2
				c1.2,0.9,1.5,2.6,0.6,3.9c-0.2,0.3-0.5,0.5-0.8,0.7c-1.3,0.9-3.2,0.9-4.7,0.9L96.7,69.6z"/>
			<path class="st4" d="M94.4,64.9c0-0.1,0-0.2,0-0.4c0-0.1,0-0.3,0-0.4c0-0.1,0.1-0.3,0.2-0.4c0.1-0.1,0.2-0.2,0.3-0.3
				c0.1-0.1,0.3-0.1,0.4-0.2c0.1,0,0.3,0,0.4,0c0.1,0,0.3,0.1,0.4,0.1l0.4,0.2l-0.3,0.2c0-0.2,0-0.3,0-0.5c0-0.2,0.1-0.3,0.1-0.5
				c0.1-0.3,0.3-0.6,0.6-0.8c0.1-0.1,0.3-0.2,0.5-0.2h0.3c0.1,0,0.2,0,0.3,0c0.1,0,0.2,0,0.3,0c0.1,0,0.2,0,0.2,0.1
				c0.1,0.1,0.3,0.1,0.4,0.2c-0.2,0-0.3-0.1-0.5-0.1c-0.1,0-0.3,0-0.4,0c-0.1,0-0.3,0.1-0.4,0.1c-0.1,0.1-0.2,0.1-0.3,0.2
				c-0.1,0.1-0.2,0.2-0.3,0.3l-0.1,0.2c0,0.1-0.1,0.1-0.1,0.2c-0.1,0.1-0.1,0.3-0.1,0.4c0,0.1,0,0.3,0,0.4l0,0
				c0,0.1-0.1,0.2-0.2,0.2l0,0c0,0-0.1,0-0.1,0l-0.3-0.2l-0.3-0.1c-0.1,0-0.2,0-0.3,0c-0.1,0-0.2,0-0.3,0.1c-0.1,0-0.2,0.1-0.2,0.2
				c-0.1,0.1-0.1,0.2-0.2,0.3c-0.1,0.1-0.1,0.2-0.1,0.3C94.4,64.7,94.4,64.8,94.4,64.9z"/>
		</g>
		<g>
			<defs>
				<rect id="SVGID_3_" x="0.2" y="-2.9" width="180" height="240"/>
			</defs>
			<clipPath id="SVGID_4_">
				<use xlink:href="#SVGID_3_"  style="overflow:visible;"/>
			</clipPath>
			<g class="st5">
				
					<radialGradient id="SVGID_5_" cx="-41.9521" cy="312.8484" r="39.06" gradientTransform="matrix(0.56 0 0 -0.51 46.0368 177.6443)" gradientUnits="userSpaceOnUse">
					<stop  offset="0" style="stop-color:#FCE171"/>
					<stop  offset="0.99" style="stop-color:#FFDA8F;stop-opacity:0"/>
				</radialGradient>
				<ellipse class="st6" cx="22.6" cy="17.9" rx="22" ry="19.8"/>
				<path class="st7" d="M29.8,17.9c0,3.7-3.2,6.6-7.2,6.6s-7.2-3-7.2-6.6s3.2-6.6,7.2-6.6S29.8,14.3,29.8,17.9z"/>
				<g class="st8">
					<path class="st9" d="M-13.5,59.7c0-4.3,5-9.4,9.9-7.6c-1.1-9.4,18.8-19.9,21.1-7c6.3-1,9,3.5,9,8.5c2.5,0.2,5.8,0.5,5.6,3.5
						c3.4-1.5,3.4,0.8,6.3,1.5c3.2,0.6,6.5,0.9,9.7,1L-13.5,59.7z"/>
				</g>
				<path class="st3" d="M5.3,58.1c2.5-0.1,5.5,0.5,7.5-1.6c1.9-1.9,1.5-4.8-0.4-6.6c0.9-0.8,1.3-2.1,1.1-3.3
					c-0.1-0.8-0.4-1.6-0.9-2.3c-0.3-0.3-1.2-0.8-1.3-1.1c-0.2-0.6,0.7-2.3,0.7-3.1c-0.2-1.4-0.9-2.6-1.9-3.5
					c1.9-1.9,0.3-4.6-1.4-6.2c0.8-1.1,0.2-3.3,0-4.5s-1-5-2.4-5.8c-2-1.2-3.1,3.4-3.4,4.6s-0.3,2.2-0.5,3.2C2.2,28.7,1.7,29.5,1,30
					c-1.1,1.1-1.4,2.7-0.9,4.2c0.1,0.4,0.5,1,0.4,1.4s-1.3,1.3-1.6,1.8c-1.2,1.7-0.9,4,0.8,5.3c-1.6,0.4-2.9,1.4-3.6,2.9
					c-0.8,1.8,0,3.2,1.2,4.5C-4.5,51.2-5,53.5-4,55.2c0.3,0.5,0.7,0.9,1.2,1.2C-1,57.8,1.9,57.9,4,58L5.3,58.1z"/>
				<path class="st4" d="M1.1,55c-0.1,0.2-0.3,0.4-0.6,0.6c-0.2,0.2-0.5,0.3-0.8,0.4c-0.2,0-0.3,0-0.5,0c-0.1,0-0.2,0-0.3,0
					c-0.1,0-0.2-0.1-0.2-0.2c-0.1-0.2-0.1-0.3,0-0.5c0.1-0.1,0.1-0.2,0.2-0.4l0.3,0.3l-0.2,0.1c-0.1,0-0.2,0-0.2,0.1
					c-0.1,0-0.2,0-0.2,0c-0.1,0-0.2,0-0.3,0c-0.1,0-0.2,0-0.2-0.1C-2,55.1-2,55.1-2.1,55l-0.2-0.1c0-0.1-0.1-0.1-0.1-0.2
					c0-0.1-0.1-0.1-0.1-0.2c0-0.1,0-0.1,0-0.2c0-0.1,0-0.1,0-0.2c0-0.1,0-0.1,0.1-0.2c0-0.1,0.1-0.1,0.1-0.2c0-0.1,0.1-0.1,0.2-0.2
					l0.2-0.1l0.2-0.1l-0.1,0.1c0,0-0.1,0.1-0.1,0.1c0,0-0.1,0.1-0.1,0.2c0,0,0,0.1-0.1,0.1c0,0.1,0,0.1,0,0.2c0,0.1,0,0.1,0,0.2
					c0,0.1,0,0.1,0,0.2c0,0.1,0,0.1,0.1,0.2c0.1,0.1,0.1,0.2,0.2,0.2c0,0,0.1,0.1,0.1,0.1c0,0,0.1,0,0.1,0c0.1,0,0.1,0,0.2,0
					c0.1,0,0.1,0,0.2,0c0.1,0,0.1,0,0.2,0l0.2-0.1l0,0c0.1,0,0.2,0,0.3,0.1c0,0,0,0.1,0,0.2c-0.1,0.1-0.1,0.2-0.2,0.3
					c0,0.1,0,0.2,0,0.2l0,0c0,0,0.1,0,0.1,0c0.1,0,0.2,0,0.3,0c0.2,0,0.5-0.1,0.7-0.2C0.6,55.2,0.8,55.1,1.1,55z"/>
				<path class="st4" d="M1.4,44.8H1c-0.1,0-0.2,0-0.4,0l-0.2,0.1L0.3,45c0,0-0.1,0-0.1,0.1c0,0-0.1,0.1-0.1,0.1c0,0,0,0.1,0,0.1
					c0,0,0,0.1,0,0.2s0,0.1,0,0.1c0,0,0,0.1,0,0.1c0,0,0,0.1,0,0.1l0-0.1c-0.1-0.1-0.1-0.1-0.2-0.2c0-0.1-0.1-0.1-0.1-0.2
					c0-0.1,0-0.2,0-0.3c0-0.1,0.1-0.2,0.1-0.2C0,44.7,0,44.6,0.1,44.6c0.2-0.1,0.3-0.1,0.5-0.1c0.1,0,0.3,0,0.4,0.1
					C1.2,44.6,1.2,44.7,1.4,44.8L1.4,44.8z"/>
				<path class="st4" d="M6.7,38.9c0,0.1,0.1,0.2,0.1,0.3c0,0.1,0,0.2,0,0.3c0,0.1,0,0.2,0,0.3c0,0.1-0.1,0.2-0.1,0.3
					c0,0.1-0.1,0.1-0.1,0.1c0,0-0.1,0.1-0.2,0.1c-0.1,0-0.2,0-0.2,0c-0.1,0-0.1-0.1-0.2-0.1C6,40.1,5.9,40,5.9,39.9
					c0-0.1-0.1-0.2-0.1-0.3l0.3,0c-0.1,0.1-0.1,0.2-0.2,0.3L5.8,40l-0.2,0.1c-0.1,0.1-0.2,0.1-0.3,0.1c-0.1,0-0.2,0-0.4,0
					c-0.1,0-0.2-0.1-0.3-0.1c0,0-0.1-0.1-0.2-0.1c0,0-0.1-0.1-0.1-0.1c-0.1-0.1-0.1-0.2-0.1-0.3c0-0.1,0-0.1,0-0.2v-0.2l0.2,0.2H4.3
					c-0.1,0-0.1,0-0.2,0c-0.1,0-0.1,0-0.2,0l-0.2,0l-0.2-0.1c-0.1,0-0.1-0.1-0.2-0.1c-0.1,0-0.1-0.1-0.1-0.2
					c-0.1-0.1-0.1-0.2-0.1-0.3c0-0.1,0-0.1,0-0.2c0-0.1,0.1-0.2,0.2-0.3c0,0,0.1-0.1,0.2-0.1c0,0,0.1-0.1,0.2-0.1
					c0.1,0,0.2-0.1,0.3-0.1c-0.1,0-0.2,0.1-0.3,0.1l-0.1,0.1c0,0-0.1,0.1-0.1,0.1c0,0-0.1,0.1-0.1,0.1c0,0,0,0.1,0,0.1
					c0,0,0,0.1,0,0.1v0.1c0,0,0,0.1,0.1,0.1c0,0,0.1,0.1,0.1,0.1L3.6,39h0.1c0,0,0.1,0,0.1,0c0,0,0.1,0,0.2,0h0.1h0.2
					c0.1,0,0.2,0,0.2,0.2v0.2c0,0,0,0.1,0,0.1c0,0.1,0,0.1,0.1,0.2c0,0,0,0,0.1,0.1l0.1,0.1c0.1,0,0.1,0.1,0.2,0.1
					c0.1,0,0.1,0,0.2,0l0.2-0.1c0,0,0.1,0,0.1-0.1c0,0,0.1,0,0.1-0.1c0.1,0,0.1-0.1,0.2-0.1l0,0c0.1-0.1,0.2-0.1,0.3,0
					c0,0,0.1,0.1,0.1,0.1c0,0.1,0,0.2,0.1,0.2c0,0.1,0.1,0.1,0.1,0.2l0,0l0,0c0,0,0.1,0,0.1,0l0.2-0.2l0.1-0.2c0-0.1,0-0.2,0.1-0.3
					c0-0.1,0-0.2,0-0.3c0,0,0-0.1,0-0.1L6.7,38.9z"/>
				<path class="st4" d="M5.6,32.7c-0.1,0.1-0.1,0.2-0.2,0.3C5.3,33,5.2,33,5.1,33.1c-0.1,0.1-0.3,0.1-0.4,0.1c-0.1,0-0.2,0-0.2,0
					c-0.1,0-0.1-0.1-0.2-0.1C4.1,33,4,32.9,4,32.8c0-0.1,0-0.2-0.1-0.2c0,0,0-0.1,0-0.1L4,32.5l0.2,0.1c0.1,0.1,0.3,0.2,0.5,0.2
					c0.2,0,0.4,0,0.6-0.1h0.2L5.6,32.7z"/>
				<path class="st4" d="M7.6,26.9V27c0,0,0,0.1,0,0.1c0,0.1,0,0.2,0,0.3c0,0.1,0,0.2-0.1,0.3c0,0.1-0.1,0.2-0.2,0.3
					c0,0.1-0.1,0.1-0.1,0.1c-0.1,0-0.1,0.1-0.2,0.1c-0.1,0-0.2,0-0.3,0l-0.1,0l-0.1-0.1c-0.1,0-0.1-0.1-0.1-0.2c0-0.1,0-0.1,0-0.2
					c0-0.1-0.1-0.2-0.1-0.3l0.4,0.1c-0.1,0.1-0.2,0.2-0.3,0.3C6.4,28,6.3,28,6.2,28c-0.1,0-0.2,0-0.3,0c-0.1,0-0.2-0.1-0.2-0.1
					c-0.1-0.1-0.1-0.1-0.1-0.2c-0.1-0.1-0.1-0.2-0.1-0.4l0.2,0.1H5.4c-0.1,0-0.2,0-0.2,0c-0.1,0-0.2,0-0.2-0.1
					c-0.1,0-0.1-0.1-0.2-0.2c0-0.1,0-0.2-0.1-0.2c0-0.1,0-0.1,0-0.2c0-0.1,0.1-0.1,0.1-0.2L5,26.4v0.2c0,0.1,0,0.1,0,0.2
					c0,0.1,0,0.1,0,0.2C5,27,5,27.1,5,27.1l0.1,0h0.1c0.1,0,0.1,0,0.2,0c0.1,0,0.1,0,0.2,0h0.2c0.1,0,0.2,0,0.2,0.1h0
					c0,0.1,0.1,0.2,0.1,0.3c0,0.1,0.1,0.1,0.1,0.1s0.1,0,0.2-0.1c0.1-0.1,0.1-0.1,0.2-0.2c0.1-0.1,0.2-0.1,0.3,0
					c0,0,0.1,0.1,0.1,0.1l0,0c0,0.1,0,0.2,0,0.3c0,0.1,0,0.1,0,0.1c0,0,0,0.1,0,0.1l0,0l0,0c0,0,0,0,0.1,0H7l0.2-0.1
					c0.1-0.1,0.2-0.3,0.3-0.5c0-0.1,0.1-0.2,0.1-0.3C7.6,27.1,7.6,27,7.6,26.9z"/>
				<path class="st4" d="M9.4,49c0,0.1,0.1,0.2,0.1,0.3c0,0.1,0,0.2,0,0.3c0,0.2-0.1,0.4-0.3,0.6c0,0-0.1,0.1-0.1,0.1
					c-0.1,0-0.1,0.1-0.2,0.1c-0.1,0.1-0.3,0.1-0.4,0.1c-0.1,0-0.1,0-0.2-0.1c-0.1,0-0.1-0.1-0.2-0.1c-0.1-0.1-0.2-0.2-0.3-0.3
					L8.2,50c0,0.2,0,0.4,0,0.6c0,0.1-0.1,0.2-0.2,0.3c-0.1,0.1-0.2,0.2-0.3,0.2H7.5c-0.1,0-0.1,0-0.2,0c-0.1,0-0.2-0.1-0.3-0.2
					c0,0-0.1-0.1-0.1-0.1c0,0-0.1-0.1-0.1-0.1c0-0.1-0.1-0.2-0.1-0.3L7,50.6l0.1,0.1l0.1,0.1c0,0,0.1,0,0.1,0.1c0,0,0.1,0,0.1,0h0.1
					h0.1c0.1,0,0.1-0.1,0.1-0.1c0-0.1,0.1-0.1,0.1-0.2c0-0.2,0-0.3,0-0.5c0-0.1,0.1-0.2,0.2-0.2c0.1,0,0.1,0,0.2,0.1l0,0
					c0.1,0.1,0.1,0.2,0.2,0.2c0,0,0.1,0.1,0.1,0.1h0.1h0.1h0.1c0,0,0.1,0,0.1-0.1c0,0,0.1,0,0.1-0.1c0.1-0.1,0.2-0.3,0.3-0.5
					C9.4,49.4,9.4,49.2,9.4,49z"/>
				<g class="st10">
					<path class="st9" d="M132.6,66.9c3.6,0.3,11-1.5,13.9-1.4c5.2,0.2,4.8-3.7,10.6-2.8c-0.8-3,3.9-6.6,10.5-4.8
						c1.6-7.2,9.6-10.9,19.5-8.6c6,1.2,14.8,6.1,14.6,10.6l0,0c7.4,0,9.4,4.1,9.1,7l2.4,5L132.6,66.9z"/>
				</g>
				<g class="st10">
					<path class="st9" d="M194.5,24.9c0.1-2.4-2.8-2.8-4.7-2.8l0,0c0.2-2,0.6-3.5-0.2-5.5c-1-2.8-3.3-4.9-6.1-5.7
						c-2.6-0.7-5.4-0.3-7.7,1.1c-2.7,1.9-2.4,4.1-3.3,6.7c-0.1-1.7-2.9-1.9-4.2-1.2c-1.6,0.6-2.7,2.2-2.7,3.9c-1.4-1-2.8,0-3,1.5
						c-1.7-1-3.8-1.3-5.7-0.6c-1.5,0.5-3.1,2.9-4,3.2L194.5,24.9z"/>
				</g>
				<path class="st3" d="M172.2,76c1.5,0,3.1,0.3,4.4-0.9c1-1.1,0.9-2.8-0.2-3.8c0,0,0,0-0.1-0.1c0.5-0.5,0.8-1.2,0.6-1.9
					c-0.1-0.5-0.2-0.9-0.5-1.3c-0.2-0.2-0.7-0.4-0.8-0.7c-0.1-0.4,0.4-1.3,0.4-1.8c-0.1-0.8-0.5-1.5-1.1-2c1.1-1.1,0.2-2.7-0.8-3.6
					c0.4-0.7,0.1-1.9,0-2.6s-0.6-2.9-1.4-3.3c-1.2-0.7-1.8,2-1.9,2.7s-0.2,1.3-0.3,1.8c-0.1,0.5-0.4,1-0.8,1.3
					c-0.6,0.6-0.8,1.6-0.5,2.4c0,0.2,0.3,0.6,0.2,0.8s-0.8,0.7-0.9,1.1c-0.7,1-0.5,2.3,0.4,3c-0.9,0.2-1.7,0.8-2.1,1.7
					c-0.5,1.1,0,1.8,0.7,2.6c-1,0.6-1.3,1.9-0.7,2.9c0.2,0.3,0.4,0.6,0.7,0.7c1.2,0.7,2.5,1,3.9,0.9L172.2,76z"/>
				<path class="st4" d="M169.7,74.2c-0.1,0.1-0.2,0.2-0.3,0.3c-0.1,0.1-0.3,0.2-0.4,0.2c-0.1,0-0.2,0-0.3,0h-0.1
					c-0.1,0-0.1-0.1-0.1-0.1c0-0.1,0-0.2,0-0.3c0-0.1,0.1-0.1,0.1-0.2l0.1,0.2l-0.1,0.1h-0.1h-0.1c0,0-0.1,0-0.1,0c0,0-0.1,0-0.1,0
					l-0.1-0.1c0,0-0.1-0.1-0.1-0.1l-0.1-0.1c0,0,0-0.1,0-0.1s0-0.1,0-0.1c0,0,0-0.1,0-0.1c0,0,0-0.1,0.1-0.1c0-0.1,0.1-0.1,0.1-0.2
					l0.1-0.1l0.1-0.1l-0.1,0.1c0,0,0,0.1-0.1,0.1c0,0,0,0.1-0.1,0.1c0,0,0,0.1,0,0.1c0,0,0,0.1,0,0.1c0,0,0,0.1,0,0.1
					c0,0,0,0.1,0,0.1c0,0,0,0.1,0,0.1c0,0.1,0.1,0.1,0.1,0.1c0,0,0.1,0,0.1,0h0.1h0.1h0.1h0.1h0.1l0,0c0,0,0.1,0,0.1,0
					c0,0,0,0.1,0,0.1c0,0.1-0.1,0.1-0.1,0.2c0,0,0,0.1,0,0.1l0,0h0.1c0.1,0,0.1,0,0.2,0c0.1,0,0.3-0.1,0.4-0.1
					C169.4,74.3,169.6,74.3,169.7,74.2z"/>
				<path class="st4" d="M169.9,68.3h-0.2h-0.2h-0.1h-0.1h-0.1c0,0,0,0-0.1,0.1s0,0,0,0.1c0,0,0,0.1,0,0.1c0,0,0,0.1,0,0.1
					c0,0,0,0,0,0.1c0,0,0,0,0,0.1l0,0c0,0-0.1-0.1-0.1-0.1c0,0,0-0.1,0-0.1c0,0,0-0.1,0-0.1c0-0.1,0-0.1,0.1-0.1l0.1-0.1
					c0.1,0,0.2-0.1,0.3-0.1c0.1,0,0.2,0,0.3,0c0.1,0,0.1,0,0.1,0.1L169.9,68.3z"/>
				<path class="st4" d="M173,64.9c0,0,0.1,0.1,0.1,0.1c0,0.1,0,0.1,0,0.2c0,0.1,0,0.1,0,0.2c0,0.1,0,0.1-0.1,0.2
					c0,0.1-0.1,0.1-0.1,0.2c0,0-0.1,0-0.1,0c0,0-0.1,0-0.1-0.1c0,0-0.1-0.1-0.1-0.2c0-0.1,0-0.1-0.1-0.2h0.2l-0.1,0.2l-0.1,0.1h-0.1
					l-0.2,0.1h-0.2c-0.1,0-0.1,0-0.2-0.1c-0.1,0-0.1-0.1-0.1-0.2c0-0.1-0.1-0.1-0.1-0.2c0,0,0-0.1,0-0.1V65l0.1,0.1h-0.1
					c0,0-0.1,0-0.1,0h-0.1h-0.1c0,0-0.1,0-0.1,0c0,0-0.1,0-0.1-0.1l-0.1-0.1v-0.1c0,0,0-0.1,0-0.1c0,0,0-0.1,0-0.1
					c0-0.1,0.1-0.1,0.1-0.2l0.1-0.1c0,0,0.1,0,0.1,0c0.1,0,0.1,0,0.2,0l-0.2,0.1l-0.1,0.1c0,0,0,0-0.1,0.1c0,0,0,0,0,0.1
					c0,0,0,0.1,0,0.1s0,0,0,0.1s0,0.1,0,0.1v0.1l0.1,0.1h0.1h0.1h0.1h0.3c0.1,0,0.1,0,0.1,0.1l0,0l0,0v0.1c0,0,0,0,0,0.1
					c0,0,0,0.1,0,0.1l0,0c0,0,0,0,0.1,0h0.1c0,0,0.1,0,0.1,0h0.1h0.1c0,0,0,0,0.1,0c0,0,0.1-0.1,0.1-0.1l0,0c0,0,0.1,0,0.1,0l0,0
					c0,0,0,0.1,0,0.1c0,0,0,0.1,0.1,0.1l0,0l0,0l0,0c0,0,0,0,0.1,0c0,0,0.1-0.1,0.1-0.1c0,0,0-0.1,0-0.2c0,0,0-0.1,0-0.2V65
					L173,64.9z"/>
				<path class="st4" d="M172.3,61.3c0,0.1-0.1,0.1-0.1,0.1c-0.1,0-0.1,0.1-0.2,0.1c-0.1,0-0.2,0-0.3,0h-0.1c0,0-0.1,0-0.1-0.1
					c-0.1,0-0.1-0.1-0.1-0.2c0,0,0-0.1,0-0.1v0l0,0l0.1,0.1c0.1,0.1,0.2,0.1,0.3,0.1c0.1,0,0.2,0,0.4,0L172.3,61.3L172.3,61.3z"/>
				<path class="st4" d="M173.5,57.9L173.5,57.9c0,0.1,0,0.1,0,0.2c0,0.1,0,0.1,0,0.2c0,0.1,0,0.1,0,0.2c0,0.1-0.1,0.1-0.1,0.2
					c0,0,0,0.1-0.1,0.1c0,0-0.1,0-0.1,0.1c0,0-0.1,0-0.1,0H173l0,0c0,0-0.1-0.1-0.1-0.1c0,0,0-0.1,0-0.1c0-0.1,0-0.1-0.1-0.2h0.2
					c0,0.1-0.1,0.1-0.1,0.2l-0.1,0.1c-0.1,0-0.1,0-0.2,0c-0.1,0-0.1,0-0.1-0.1c0,0-0.1-0.1-0.1-0.1c0-0.1-0.1-0.1-0.1-0.2l0.1,0.1
					h-0.1h-0.1c0,0-0.1,0-0.1-0.1c0,0-0.1-0.1-0.1-0.1c0,0,0-0.1,0-0.1c0,0,0-0.1,0-0.1c0,0,0-0.1,0.1-0.1l0.1-0.1v0.1
					c0,0,0,0.1,0,0.1s0,0.1,0,0.1s0,0,0,0.1l0,0l0,0h0.1h0.2c0,0,0.1,0,0.1,0.1l0,0c0,0.1,0,0.1,0.1,0.2c0,0,0,0.1,0.1,0.1
					c0,0,0,0,0.1,0l0.1-0.1c0,0,0.1,0,0.2,0c0,0,0,0,0.1,0.1l0,0c0,0,0,0.1,0,0.2c0,0,0,0,0,0.1s0,0,0,0h0.1l0,0c0,0,0,0,0.1,0
					c0.1-0.1,0.1-0.2,0.2-0.3c0-0.1,0-0.1,0-0.2C173.4,58.1,173.4,58,173.5,57.9z"/>
				<path class="st4" d="M174.5,70.7c0,0.1,0,0.1,0.1,0.2c0,0.1,0,0.1,0,0.2c0,0.1-0.1,0.3-0.1,0.4l-0.1,0.1l-0.1,0.1
					c-0.1,0-0.2,0-0.3,0h-0.1c0,0-0.1,0-0.1-0.1c-0.1,0-0.1-0.1-0.1-0.2l0.2-0.1c0,0.1,0,0.2,0,0.3c0,0.1-0.1,0.1-0.1,0.2
					c-0.1,0.1-0.1,0.1-0.2,0.1h-0.1c0,0-0.1,0-0.1,0c-0.1,0-0.1-0.1-0.1-0.1v-0.1l-0.1-0.1c0,0,0-0.1-0.1-0.2l0.1,0.1h0.1h0.1h0.1
					h0.1h0.1c0,0,0.1,0,0.1-0.1c0,0,0-0.1,0-0.1c0-0.1,0-0.2,0-0.3c0-0.1,0-0.1,0.1-0.1c0,0,0,0,0,0c0,0,0.1,0,0.1,0l0,0
					c0,0,0.1,0.1,0.1,0.1l0.1,0.1h0.1h0.1h0.1h0.1c0,0,0.1-0.1,0.1-0.1c0,0,0.1-0.1,0.1-0.2C174.5,70.9,174.5,70.8,174.5,70.7z"/>
			</g>
		</g>
		<path class="st11" d="M0.2,53.8v188.5h180V70C101.3,59.1,22.1,54.9,0.2,53.8z"/>
		<g>
			<defs>
				<path id="SVGID_6_" d="M0.2,53.8v188.5h180V70C101.3,59.1,22.1,54.9,0.2,53.8z"/>
			</defs>
			<clipPath id="SVGID_7_">
				<use xlink:href="#SVGID_6_"  style="overflow:visible;"/>
			</clipPath>
			<g class="st12">
				<path class="st9" d="M13.2,66c-0.4,0.1-1.8-0.3-1.4-0.6s1.8,0.3,1.8,0.6c-0.4-0.1-1.8,0.2-1.8,0.5c-0.1,0.6,1.6-0.1,1.8-0.3
					c-0.2,0.2-0.2,1,0.2,1c0.6,0.1,0.3-0.6,0.2-0.7c0.4,0.1,2,0.7,2,0.1c0-0.4-0.9-0.3-1.4-0.3c0.5-0.1,1.2-0.5,1-0.8
					c-0.5,0-1,0.2-1.3,0.6c0.1-0.2,0.4-1.1-0.4-0.9c-0.4,0.1-0.3,0.7-0.2,0.8"/>
				<path class="st13" d="M13.4,66.3c0.2,0.2,1.1,0.1,1.1-0.1s-0.8-0.3-1-0.2S13.2,66.1,13.4,66.3z"/>
				<path class="st9" d="M123.3,66.9c0.4,0.1,2-0.3,1.5-0.6s-1.9,0.3-1.9,0.6c0.4-0.1,1.9,0.2,2,0.5c0.1,0.6-1.7-0.1-1.9-0.3
					c0.2,0.2,0.3,1-0.2,1.1c-0.6,0.1-0.3-0.7-0.2-0.8c-0.4,0.1-2.1,0.7-2.2,0.1c-0.1-0.4,1-0.3,1.5-0.3c-0.5-0.1-1.3-0.5-1.1-0.9
					c0.5,0,1,0.3,1.3,0.7c-0.2-0.3-0.5-1.2,0.4-1c0.5,0.1,0.3,0.7,0.2,0.9"/>
				<path class="st13" d="M123.1,67.3c-0.2,0.2-1.2,0.1-1.2-0.2s0.8-0.3,1.1-0.2S123.3,67.1,123.1,67.3z"/>
				<path class="st9" d="M59.8,66.8c0.4,0.1,2-0.3,1.5-0.6s-1.9,0.3-1.9,0.6c0.4-0.1,1.9,0.2,2,0.5c0.1,0.6-1.7-0.1-1.9-0.3
					c0.2,0.2,0.3,1-0.2,1.1c-0.6,0.1-0.3-0.7-0.2-0.8c-0.4,0.1-2.1,0.7-2.2,0.1c-0.1-0.4,1-0.3,1.5-0.3c-0.5-0.1-1.3-0.5-1.1-0.9
					c0.5,0,1,0.3,1.3,0.7c-0.2-0.3-0.5-1.2,0.4-1c0.5,0.1,0.3,0.7,0.2,0.9"/>
				<path class="st13" d="M59.6,67.1c-0.2,0.2-1.2,0.1-1.2-0.2s0.8-0.3,1.1-0.2S59.8,66.9,59.6,67.1z"/>
				<path class="st14" d="M42.7,69.4c0-0.1,0.1-0.1,0.1-0.2c0.1-0.2,0.1-0.3,0.1-0.5c0-0.2-0.1-0.3-0.2-0.5c0-0.1-0.1-0.1-0.2-0.2
					c0,0.1-0.1,0.2-0.1,0.2c0,0.2,0,0.3,0,0.5c0,0.2,0,0.3,0.1,0.5C42.6,69.3,42.7,69.3,42.7,69.4z"/>
				<path class="st14" d="M44.3,70.4c0.1,0,0.1,0,0.2-0.1c0.2-0.1,0.4-0.3,0.5-0.5c0-0.1,0-0.1,0-0.2c-0.1,0-0.1,0-0.2,0
					c-0.1,0-0.2,0.1-0.3,0.2C44.3,70,44.3,70.2,44.3,70.4L44.3,70.4z"/>
				<path class="st14" d="M46.2,70.5c0.1,0,0.2,0,0.3-0.1c0.1,0,0.2-0.1,0.2-0.1c0.1-0.1,0.1-0.1,0.2-0.2c0.1-0.1,0.2-0.3,0.2-0.4
					c0-0.1,0-0.2,0-0.2c-0.1,0-0.2,0.1-0.2,0.1c-0.1,0.1-0.2,0.2-0.3,0.3l-0.1,0.2c0,0,0,0.1-0.1,0.1c0,0,0,0.1-0.1,0.1
					C46.2,70.4,46.2,70.5,46.2,70.5z"/>
				<path class="st14" d="M-2.4,69.9c0-0.1,0-0.2,0-0.3c0-0.2-0.1-0.3-0.2-0.5c-0.1-0.1-0.2-0.3-0.4-0.4c-0.1-0.1-0.1-0.1-0.2-0.1
					c0,0.1,0,0.2,0,0.3c0,0.2,0.1,0.3,0.2,0.5c0.1,0.1,0.2,0.3,0.3,0.4C-2.5,69.8-2.5,69.9-2.4,69.9z"/>
				<path class="st14" d="M-3.3,70.9c0-0.1-0.1-0.2-0.2-0.2c-0.1-0.1-0.3-0.3-0.5-0.3c-0.2-0.1-0.4-0.1-0.6-0.2c-0.1,0-0.2,0-0.3,0
					c0,0.1,0.1,0.1,0.2,0.2c0.1,0.1,0.3,0.2,0.5,0.3l0.3,0.1c0.1,0,0.2,0.1,0.3,0.1C-3.5,70.9-3.4,70.9-3.3,70.9z"/>
				<path class="st14" d="M108.3,68.6c0-0.1,0-0.2,0.1-0.3c0-0.1,0-0.2,0-0.3c0-0.1,0-0.2,0-0.3c0-0.2,0-0.4-0.1-0.6
					c0-0.1-0.1-0.2-0.1-0.3c-0.1,0.1-0.1,0.2-0.1,0.3c-0.1,0.2-0.1,0.4-0.1,0.6c0,0.2,0.1,0.4,0.2,0.6
					C108.1,68.5,108.2,68.6,108.3,68.6z"/>
				<path class="st14" d="M111.1,69.3c0.1,0,0.1,0,0.2-0.1c0.1-0.1,0.3-0.2,0.3-0.3c0.1-0.1,0.1-0.3,0.1-0.4c0-0.1,0-0.1,0-0.2
					c-0.1,0-0.1,0.1-0.2,0.1c-0.1,0.1-0.2,0.2-0.3,0.3l-0.1,0.2l-0.1,0.2C111.1,69.1,111.1,69.2,111.1,69.3z"/>
				<path class="st14" d="M169.2,78c0-0.1,0-0.2,0-0.3c0-0.1,0-0.2,0-0.2c0-0.1,0-0.2,0-0.3c0-0.2-0.1-0.3-0.2-0.5
					c0-0.1-0.1-0.1-0.2-0.2c0,0.1,0,0.2,0,0.3c0,0.2,0,0.3,0,0.5c0,0.1,0.1,0.2,0.1,0.3c0,0.1,0.1,0.1,0.1,0.2
					C169.1,77.9,169.1,78,169.2,78z"/>
				<path class="st14" d="M171.2,78.6L171.2,78.6L171.2,78.6l0.2-0.1c0.1-0.1,0.2-0.2,0.3-0.3c0.1-0.1,0.1-0.2,0.2-0.3
					c0-0.1,0-0.2,0-0.2c-0.1,0-0.2,0-0.2,0.1c-0.1,0.1-0.2,0.2-0.3,0.3c-0.1,0.1-0.1,0.3-0.1,0.4C171.2,78.6,171.2,78.6,171.2,78.6
					L171.2,78.6L171.2,78.6z"/>
				<path class="st14" d="M172.7,79.1c0.1,0,0.2,0,0.2,0c0.1,0,0.2,0,0.2-0.1c0.1,0,0.2-0.1,0.3-0.1c0.1-0.1,0.1-0.1,0.2-0.2
					c0.1-0.1,0.1-0.1,0.1-0.2c0-0.1,0-0.2,0.1-0.2c-0.1,0-0.1,0.1-0.2,0.1l-0.2,0.1c-0.1,0-0.1,0.1-0.2,0.1c-0.1,0-0.1,0.1-0.2,0.1
					l-0.2,0.1C172.7,79,172.7,79.1,172.7,79.1z"/>
				<path class="st9" d="M124.1,77c-0.4,0.1-1.8-0.3-1.4-0.6s1.8,0.3,1.8,0.6c-0.4-0.1-1.8,0.2-1.8,0.5c-0.1,0.6,1.6-0.1,1.8-0.3
					c-0.2,0.2-0.2,1,0.2,1c0.6,0.1,0.3-0.6,0.2-0.8c0.4,0.1,2,0.7,2,0.1c0-0.4-0.9-0.3-1.4-0.3c0.5-0.1,1.2-0.5,1-0.9
					c-0.5,0-1,0.2-1.3,0.7c0.2-0.3,0.4-1.1-0.4-0.9c-0.4,0.1-0.3,0.7-0.2,0.8"/>
				<path class="st13" d="M124.2,77.3c0.2,0.2,1.1,0.1,1.1-0.2s-0.8-0.3-1-0.2S124,77.1,124.2,77.3z"/>
				<path class="st9" d="M12.8,83.4c-0.4,0.1-1.9-0.3-1.4-0.6s1.8,0.3,1.8,0.6c-0.4-0.1-1.8,0.2-1.8,0.5c-0.1,0.6,1.6-0.1,1.8-0.3
					c-0.2,0.2-0.2,1,0.2,1c0.6,0.1,0.3-0.6,0.2-0.8c0.4,0.1,2,0.7,2,0.1c0-0.4-0.9-0.3-1.4-0.3c0.5-0.1,1.2-0.5,1-0.9
					c-0.5,0-1,0.2-1.3,0.7c0.1-0.2,0.4-1.1-0.4-0.9c-0.4,0.1-0.3,0.7-0.2,0.8"/>
				<path class="st13" d="M13,83.7c0.2,0.2,1.1,0.1,1.1-0.1s-0.8-0.3-1-0.2S12.8,83.6,13,83.7z"/>
				<path class="st9" d="M38.1,75.5c-0.4,0.1-1.8-0.3-1.4-0.6s1.8,0.3,1.8,0.6c-0.3-0.1-1.8,0.2-1.8,0.5c-0.1,0.6,1.6-0.1,1.8-0.3
					c-0.2,0.2-0.2,1,0.2,1c0.5,0.1,0.3-0.6,0.2-0.8c0.4,0.1,2,0.7,2,0.1c0-0.4-0.9-0.3-1.4-0.3c0.5-0.1,1.2-0.5,1-0.8
					c-0.5,0-1,0.2-1.3,0.6c0.2-0.2,0.5-1.1-0.4-0.9c-0.4,0.1-0.3,0.7-0.2,0.8"/>
				<path class="st13" d="M38.3,75.8c0.2,0.2,1.1,0.1,1.1-0.2s-0.8-0.3-1-0.2S38.1,75.6,38.3,75.8z"/>
				<path class="st9" d="M148.9,74.3c-0.4,0.1-1.9-0.3-1.4-0.6s1.8,0.3,1.8,0.6c-0.4-0.1-1.8,0.2-1.8,0.5c-0.1,0.6,1.6-0.1,1.8-0.3
					c-0.2,0.2-0.2,1,0.2,1c0.6,0.1,0.3-0.6,0.2-0.8c0.4,0.1,2,0.7,2,0.1c0.1-0.4-0.9-0.3-1.4-0.3c0.5-0.1,1.2-0.5,1-0.8
					c-0.5,0-1,0.2-1.3,0.6c0.1-0.2,0.4-1.1-0.4-0.9c-0.4,0.1-0.3,0.7-0.2,0.8"/>
				<path class="st13" d="M149.1,74.6c0.2,0.2,1.1,0.1,1.1-0.2s-0.8-0.3-1-0.2S148.9,74.4,149.1,74.6z"/>
				<path class="st14" d="M70.7,75.5c0-0.2,0-0.3-0.1-0.5c0-0.2-0.1-0.3-0.1-0.5c-0.1-0.2-0.1-0.3-0.2-0.5c-0.1-0.3-0.3-0.6-0.4-0.9
					c-0.1-0.1-0.2-0.3-0.3-0.4c0,0.2,0,0.3,0,0.5c0.1,0.3,0.2,0.7,0.3,1c0.1,0.3,0.3,0.6,0.5,0.9C70.4,75.2,70.5,75.4,70.7,75.5z"/>
				<path class="st14" d="M72.1,75c0-0.1,0.1-0.2,0.1-0.3c0.1-0.2,0.1-0.4,0.1-0.5c0-0.2,0-0.4-0.1-0.5c0-0.1-0.1-0.2-0.1-0.3
					c-0.1,0.1-0.1,0.2-0.1,0.3c-0.1,0.2-0.1,0.4-0.1,0.5c0,0.2,0,0.4,0.1,0.5C72,74.8,72,74.9,72.1,75z"/>
				<path class="st14" d="M59.6,66.6c0-0.1,0-0.2,0-0.3c0-0.2-0.1-0.4-0.1-0.6c0-0.1-0.1-0.2-0.1-0.3c0-0.1-0.1-0.2-0.1-0.2
					c-0.1-0.1-0.1-0.2-0.2-0.2c0,0.1,0,0.2,0,0.3c0,0.2,0,0.4,0.1,0.6c0.1,0.2,0.2,0.3,0.3,0.5C59.5,66.5,59.5,66.5,59.6,66.6z"/>
				<path class="st14" d="M62.1,67.3c0,0,0.1-0.1,0.1-0.1c0.1-0.1,0.1-0.2,0.1-0.3c0-0.1,0-0.2-0.1-0.3c0-0.1-0.1-0.1-0.1-0.1
					c-0.1,0.1-0.2,0.3-0.2,0.5c0,0.1,0,0.2,0.1,0.3C62,67.2,62,67.2,62.1,67.3z"/>
				<path class="st14" d="M12.1,80c0,0,0.1-0.1,0.1-0.1c0.1-0.1,0.1-0.1,0.1-0.2c0-0.1,0-0.2-0.1-0.2c0,0-0.1-0.1-0.1-0.1
					c0,0-0.1,0.1-0.1,0.1c-0.1,0.1-0.1,0.1-0.1,0.2c0,0.1,0,0.2,0.1,0.2C12,80,12,80,12.1,80z"/>
				<path class="st14" d="M31.1,74c0-0.1,0-0.2,0-0.2c0-0.2-0.1-0.3-0.2-0.4c-0.1-0.1-0.2-0.3-0.3-0.4c-0.1-0.1-0.1-0.1-0.2-0.1
					c0,0.1,0,0.2,0,0.2c0,0.2,0.1,0.3,0.2,0.4c0.1,0.1,0.2,0.3,0.3,0.4C30.9,73.9,31,73.9,31.1,74z"/>
				<path class="st14" d="M32.5,73.6c0.1-0.1,0.1-0.2,0.2-0.3c0-0.1,0.1-0.2,0.1-0.3s0.1-0.2,0.1-0.3c0.1-0.2,0.1-0.4,0.1-0.6
					c0-0.1,0-0.2,0-0.3c-0.1,0.1-0.2,0.1-0.2,0.2c-0.1,0.1-0.1,0.2-0.2,0.3c-0.1,0.1-0.1,0.2-0.2,0.3c0,0.1-0.1,0.2-0.1,0.3
					c0,0.1,0,0.2,0,0.3C32.4,73.4,32.4,73.5,32.5,73.6z"/>
				<path class="st14" d="M27.2,60.8c0-0.1,0-0.2,0-0.2c0-0.2,0-0.3-0.1-0.5c-0.1-0.2-0.1-0.3-0.2-0.4c0-0.1-0.1-0.1-0.2-0.2
					c0,0.1,0,0.2,0,0.2c0,0.2,0,0.3,0.1,0.5c0,0.2,0.1,0.3,0.2,0.4C27.1,60.7,27.1,60.8,27.2,60.8z"/>
				<path class="st14" d="M21.5,61.1c-0.1-0.1-0.1-0.2-0.2-0.2l-0.2-0.2l-0.3-0.2c-0.1-0.1-0.2-0.1-0.3-0.2l-0.3-0.1L20,60
					c0,0.1,0.1,0.2,0.1,0.3c0.1,0.2,0.3,0.3,0.5,0.5c0.2,0.1,0.4,0.2,0.6,0.3C21.3,61.1,21.4,61.1,21.5,61.1z"/>
				<path class="st14" d="M21.4,74v-0.2c0-0.1,0-0.1,0-0.2c0-0.1-0.1-0.3-0.2-0.4c-0.1-0.1-0.2-0.3-0.3-0.3c-0.1,0-0.1-0.1-0.2-0.1
					c-0.1,0-0.1,0-0.2-0.1c-0.1,0-0.2,0-0.3,0c-0.1,0-0.2,0-0.2,0.1c-0.1,0-0.1,0.1-0.2,0.1l-0.1,0.2c0,0.1-0.1,0.1-0.1,0.2
					s0,0.1-0.1,0.2c0,0.1-0.1,0.3-0.1,0.4h0.4c-0.1-0.2-0.2-0.4-0.3-0.6c-0.1-0.1-0.2-0.2-0.3-0.3c-0.1-0.1-0.2-0.2-0.4-0.2
					c-0.2,0-0.3,0-0.4,0.1c-0.1,0.1-0.2,0.2-0.3,0.3c-0.1,0.2-0.3,0.4-0.3,0.6H18c0-0.1-0.1-0.2-0.2-0.2l-0.2-0.2l-0.2-0.1
					c-0.1,0-0.1-0.1-0.1-0.1L17.2,73h-0.1c-0.1,0-0.2,0.1-0.3,0.2c-0.1,0.1-0.1,0.2-0.2,0.3c0,0.1,0,0.2,0,0.3v0.3
					c0-0.1,0.1-0.2,0.1-0.3c0-0.1,0-0.2,0.1-0.3c0,0,0-0.1,0.1-0.1c0,0,0.1-0.1,0.1-0.1c0.1-0.1,0.2-0.1,0.2-0.1h-0.1
					c0,0.1,0.1,0.2,0.2,0.2l0.2,0.2l0.2,0.1c0,0,0.1,0.1,0.1,0.2l0.1,0.3l0.2-0.3c0.1-0.2,0.2-0.3,0.3-0.5c0.1-0.1,0.1-0.1,0.2-0.2
					c0,0,0.1,0,0.1,0c0,0,0.1,0,0.1,0c0.1,0,0.1,0,0.2,0.1c0.1,0.1,0.1,0.1,0.2,0.2c0.1,0.2,0.2,0.3,0.3,0.5l0.3,0.6l0.1-0.7
					c0-0.1,0-0.2,0.1-0.3c0-0.1,0-0.1,0-0.2c0,0,0-0.1,0.1-0.2c0,0,0.1-0.1,0.1-0.1c0,0,0.1-0.1,0.1-0.1c0,0,0.1,0,0.1-0.1
					c0,0,0.1,0,0.1,0s0.1,0,0.2,0l0.2,0.1c0.1,0.1,0.2,0.1,0.3,0.2c0.1,0.1,0.2,0.2,0.2,0.3C21.3,73.8,21.3,73.9,21.4,74z"/>
				<path class="st14" d="M135.8,69.4c0-0.1-0.1-0.2-0.1-0.3c-0.1-0.1-0.1-0.2-0.2-0.3c-0.1-0.1-0.2-0.1-0.3-0.2
					c-0.1-0.1-0.2-0.1-0.4-0.1c-0.1,0-0.3,0-0.4,0h-0.2l-0.2,0.1c-0.1,0-0.2,0.1-0.4,0.2c-0.1,0.1-0.2,0.1-0.3,0.2l0.3,0.1
					c0-0.2-0.1-0.3-0.1-0.4c0-0.1-0.1-0.2-0.1-0.2c0,0-0.1-0.1-0.1-0.1c0,0-0.1-0.1-0.2-0.1c-0.1,0-0.2,0-0.4,0l-0.3,0.1l-0.4,0.2
					h0.2l-0.2-0.2l-0.3-0.1c-0.1,0-0.2,0-0.3,0c0,0-0.1,0-0.1,0c0,0-0.1,0-0.1,0c-0.1,0-0.2,0.1-0.3,0.2c-0.1,0.1-0.1,0.1-0.2,0.2
					c-0.1,0.1-0.1,0.1-0.1,0.2l-0.1,0.2l0.2-0.2c0.1-0.1,0.1-0.1,0.2-0.2c0.1-0.1,0.1-0.1,0.2-0.1c0.1,0,0.1-0.1,0.2-0.1
					c0,0,0.1,0,0.1,0c0,0,0.1,0,0.1,0c0.1,0,0.1,0,0.2,0.1c0.1,0,0.1,0.1,0.2,0.1l0.2,0.1l0.1,0.1h0.1l0.4-0.2l0.2-0.1
					c0.1,0,0.1,0,0.1,0s0.1,0.1,0.1,0.3s0.1,0.3,0.1,0.4l0.1,0.3l0.3-0.2c0.1-0.1,0.1-0.1,0.2-0.2c0.1-0.1,0.2-0.1,0.3-0.2l0.3-0.1
					c0.1,0,0.2,0,0.3,0c0.1,0,0.2,0,0.3,0c0.1,0,0.2,0.1,0.3,0.1C135.5,69,135.7,69.2,135.8,69.4z"/>
				<path class="st14" d="M43.7,61.5c0-0.1,0-0.2,0-0.3c0-0.1,0-0.2-0.1-0.3c-0.1-0.1-0.1-0.2-0.2-0.3c-0.1-0.1-0.2-0.1-0.4-0.2
					c-0.1,0-0.3,0-0.4,0.1l-0.2,0.1c-0.1,0-0.1,0.1-0.2,0.1c0,0-0.1,0.1-0.1,0.1L42,61c-0.1,0.1-0.1,0.2-0.2,0.3h0.4l-0.1-0.1
					c0,0-0.1-0.1-0.1-0.1c-0.1-0.1-0.2-0.1-0.3-0.2l-0.3-0.2l-0.1-0.1c0,0,0,0-0.1-0.1L41,60.4l-0.1,0.2c0,0,0,0.1,0,0.1v0.1
					l-0.1,0.3h0.1L40.7,61c0,0-0.1-0.1-0.1-0.1c0,0-0.1-0.1-0.1-0.1c0,0-0.1,0-0.2,0c-0.2,0-0.3,0-0.5,0.1c0.2,0,0.3,0,0.5,0.1
					l0.1,0c0,0,0.1,0,0.1,0.1c0,0,0.1,0,0.1,0.1l0.1,0.1l0.1,0.1l0.1-0.1c0.1-0.1,0.1-0.2,0.2-0.3l0.1-0.1c0-0.1,0.1-0.1,0.1-0.2
					l-0.3,0.1c0,0.1,0.1,0.1,0.1,0.2l0.1,0.1c0.1,0.1,0.2,0.1,0.3,0.2l0.2,0.2l0.1,0.1l0.1,0.1l0.2,0.3l0.1-0.3
					c0-0.1,0.1-0.2,0.1-0.3c0,0,0-0.1,0.1-0.1c0,0,0.1-0.1,0.1-0.1l0.1-0.1c0,0,0.1-0.1,0.1-0.1c0.1,0,0.2-0.1,0.2-0.1
					c0.1,0,0.2,0,0.3,0.1c0.1,0,0.2,0.1,0.2,0.2c0.1,0.1,0.1,0.2,0.2,0.3C43.6,61.3,43.7,61.4,43.7,61.5z"/>
				<path class="st14" d="M167.8,74l0.1-0.2c0-0.1,0-0.1,0-0.2c0-0.1,0-0.1,0-0.2c0-0.1,0-0.1-0.1-0.2c0-0.1-0.1-0.1-0.1-0.2
					c-0.1-0.1-0.1-0.1-0.2-0.1c-0.1,0-0.1-0.1-0.2-0.1c-0.1,0-0.2,0-0.2,0c-0.1,0-0.2,0-0.3,0.1c-0.1,0-0.1,0.1-0.2,0.1
					c-0.1,0-0.1,0.1-0.1,0.1c0,0.1-0.1,0.1-0.1,0.2c-0.1,0.1-0.1,0.2-0.2,0.3c0,0.1-0.1,0.2-0.1,0.4h0.4l-0.1-0.2l-0.1-0.2
					c-0.1-0.1-0.2-0.2-0.3-0.4c-0.2-0.2-0.4-0.4-0.5-0.6l-0.2-0.3l-0.2,0.4v0.1c0,0,0,0.1,0,0.1c0,0.1-0.1,0.1-0.1,0.2l-0.2,0.5h0.3
					c-0.1-0.2-0.2-0.3-0.4-0.4c-0.1-0.2-0.3-0.3-0.6-0.3c-0.1,0-0.2,0-0.3,0.1c-0.1,0.1-0.2,0.1-0.2,0.2c-0.1,0.1-0.2,0.3-0.2,0.5
					c0-0.1,0.1-0.2,0.1-0.2c0.1-0.1,0.1-0.1,0.2-0.2c0.1-0.1,0.1-0.1,0.2-0.1h0.1c0,0,0.1,0,0.1,0h0.1c0,0,0.1,0,0.1,0.1
					c0.1,0,0.1,0.1,0.2,0.2c0.1,0.1,0.2,0.3,0.3,0.4l0.1,0.3l0.2-0.3l0.2-0.4c0.1-0.1,0.1-0.2,0.1-0.2c0,0,0-0.1,0.1-0.1
					c0-0.1,0-0.1,0-0.2l-0.4,0.1c0.2,0.2,0.4,0.4,0.6,0.6c0.1,0.1,0.2,0.2,0.2,0.3L166,74l0.1,0.2l0.2,0.5l0.1-0.5
					c0-0.1,0.1-0.2,0.1-0.3c0-0.1,0.1-0.2,0.1-0.3c0,0,0-0.1,0.1-0.1c0,0,0.1-0.1,0.1-0.1c0,0,0.1-0.1,0.1-0.1c0,0,0.1-0.1,0.1-0.1
					c0,0,0.1,0,0.1,0s0.1,0,0.1,0c0,0,0.1,0,0.1,0.1l0.1,0.1c0,0,0.1,0.1,0.1,0.2c0,0.1,0,0.1,0,0.2C167.8,73.7,167.8,73.8,167.8,74
					z"/>
				<path class="st14" d="M110.2,77.9c0-0.2-0.1-0.4-0.2-0.5c-0.1-0.1-0.2-0.1-0.3-0.2c-0.1,0-0.1,0-0.2,0h-0.2
					c-0.2,0.1-0.4,0.2-0.5,0.4c-0.1,0.2-0.2,0.3-0.3,0.5h0.3c0-0.1-0.1-0.2-0.2-0.3c-0.1-0.1-0.1-0.2-0.2-0.3
					c-0.1-0.1-0.2-0.2-0.3-0.2c-0.1-0.1-0.3-0.1-0.4-0.1c-0.1,0-0.3,0-0.4,0l-0.2,0.1c-0.1,0-0.1,0.1-0.2,0.1
					c-0.1,0.1-0.2,0.2-0.3,0.3c0,0-0.1,0.1-0.1,0.2l-0.1,0.2h0.3c-0.1-0.2-0.2-0.3-0.3-0.4l-0.1-0.1c0,0-0.1-0.1-0.1-0.1
					c-0.1,0-0.2,0-0.3,0c-0.1,0-0.2,0.1-0.2,0.2c0,0.1-0.1,0.1-0.1,0.2c-0.1,0.1-0.1,0.3-0.2,0.4c0.1-0.1,0.2-0.3,0.3-0.4
					c0.1-0.1,0.2-0.2,0.3-0.2c0.1,0,0.2,0,0.3,0.2c0.1,0.1,0.1,0.2,0.2,0.4l0.1,0.3L107,78l0.1-0.1l0.1-0.1c0.1-0.1,0.1-0.1,0.2-0.2
					c0,0,0.1-0.1,0.1-0.1h0.1c0.1,0,0.2,0,0.3,0c0.1,0,0.2,0,0.3,0.1c0.1,0,0.2,0.1,0.2,0.2c0.1,0.1,0.3,0.3,0.3,0.5l0.2,0.4
					l0.2-0.4c0.1-0.2,0.1-0.3,0.2-0.4c0-0.1,0.1-0.1,0.2-0.2c0.1-0.1,0.1-0.1,0.2-0.2c0.1,0,0.1,0,0.2,0c0.1,0,0.2,0,0.2,0.1
					l0.1,0.1c0,0,0,0.1,0.1,0.1C110.1,77.7,110.1,77.8,110.2,77.9z"/>
				<path class="st14" d="M76.5,61.1l-0.1-0.2c0,0-0.1-0.1-0.1-0.1c-0.1-0.1-0.1-0.1-0.2-0.1c0,0-0.1,0-0.1,0h-0.1l-0.2,0.1
					l-0.2,0.1c-0.1,0.1-0.2,0.2-0.3,0.2h0.3c-0.1-0.1-0.2-0.3-0.3-0.4c-0.1-0.1-0.1-0.1-0.2-0.2c-0.1-0.1-0.2-0.1-0.3-0.1
					c-0.1,0-0.2,0-0.3,0.1c-0.1,0.1-0.1,0.1-0.2,0.2L73.7,61H74c-0.1-0.2-0.3-0.3-0.5-0.4c-0.2-0.1-0.4-0.2-0.7-0.2
					c-0.1,0-0.2,0-0.3,0.1c-0.1,0.1-0.2,0.1-0.3,0.2c-0.1,0.2-0.2,0.3-0.3,0.5c0.1-0.2,0.2-0.3,0.4-0.4c0.1-0.1,0.1-0.1,0.2-0.1
					c0.1,0,0.2,0,0.2,0c0.1,0,0.2,0,0.2,0.1c0.1,0,0.2,0.1,0.2,0.1c0.1,0.1,0.3,0.2,0.4,0.4l0.2,0.2l0.2-0.2l0.3-0.3l0.1-0.1
					c0,0,0.1,0,0.1,0c0,0,0.2,0.1,0.3,0.2s0.2,0.2,0.3,0.3l0.1,0.1l0.1-0.1c0.1-0.1,0.2-0.2,0.3-0.3l0.1-0.1l0.1,0H76c0,0,0,0,0.1,0
					c0,0,0.1,0,0.2,0c0.1,0,0.1,0.1,0.2,0.1L76.5,61.1z"/>
				<path class="st14" d="M3.7,58.1l-0.3-0.1l-0.3,0c-0.1,0-0.2,0-0.3,0H2.7c-0.1,0-0.1,0-0.1,0.1L2.4,58l-0.1,0.1l-0.1,0.1
					l-0.1,0.1l-0.1,0.1c0,0,0,0.1,0,0.1C2,58.8,2,58.8,2,58.9l0.3-0.1l-0.3-0.3l-0.2-0.1l-0.1-0.1c-0.1,0-0.1,0-0.2,0
					c-0.1,0-0.1,0-0.2,0l-0.1,0l-0.1,0.1c-0.1,0-0.2,0-0.3,0H1c-0.1-0.1-0.2-0.2-0.4-0.3l-0.1,0c0,0-0.1,0-0.1,0c0,0-0.1,0-0.1,0
					H0.1c0,0-0.1,0-0.1,0.1l-0.1,0.1l-0.2,0.2l-0.3,0.3l0.3-0.2L0,58.5h0.1c0,0,0.1,0,0.1,0h0.1h0.1h0.1l0.1,0
					c0.1,0,0.1,0.1,0.1,0.1l0.1,0.2l0,0h0.1c0.1,0,0.3,0,0.4,0l0.2-0.1h0.1l0,0h0l0.1,0.1L2,59.1l0.3,0.2L2.3,59c0-0.1,0-0.2,0-0.2
					s0-0.1,0-0.1v-0.1v-0.1c0,0,0-0.1,0.1-0.1l0.1-0.1l0.1-0.1c0,0,0-0.1,0.1-0.1l0.1,0c0.1,0,0.2,0,0.2,0h0.3L3.7,58.1z"/>
				<path class="st15" d="M30.3,83c0-0.1,0-0.2-0.1-0.3c-0.1-0.2-0.2-0.5-0.3-0.7c-0.1-0.2-0.3-0.4-0.4-0.6
					c-0.1-0.1-0.2-0.2-0.3-0.2c0,0.1,0,0.2,0.1,0.3c0.1,0.2,0.2,0.5,0.3,0.7c0.1,0.2,0.3,0.4,0.5,0.6C30.1,82.8,30.2,82.9,30.3,83z"
					/>
				<path class="st15" d="M31.1,83.1c0.1-0.1,0.1-0.1,0.2-0.2c0.1-0.1,0.1-0.1,0.1-0.2c0-0.1,0.1-0.2,0.1-0.3
					c0.1-0.2,0.1-0.3,0.1-0.5c0-0.1,0-0.2,0-0.3c-0.1,0-0.1,0.1-0.2,0.2c-0.1,0.1-0.2,0.3-0.3,0.5c-0.1,0.2-0.1,0.3-0.1,0.5
					C31.1,83,31.1,83,31.1,83.1z"/>
				<path class="st15" d="M32.8,84c0.1,0,0.2-0.1,0.3-0.1c0.2-0.1,0.3-0.2,0.4-0.4c0.1-0.2,0.2-0.3,0.3-0.5c0-0.1,0.1-0.2,0.1-0.3
					c-0.1,0-0.2,0.1-0.3,0.1c-0.2,0.1-0.3,0.2-0.4,0.4c-0.1,0.1-0.2,0.3-0.3,0.5C32.9,83.8,32.8,83.9,32.8,84z"/>
				<path class="st15" d="M88.4,78.8c0-0.2,0-0.3,0-0.5c0-0.2-0.1-0.3-0.1-0.5c-0.1-0.2-0.2-0.3-0.2-0.5s-0.1-0.2-0.2-0.2
					s-0.1-0.1-0.2-0.2c-0.1-0.1-0.2-0.2-0.3-0.3c-0.1-0.1-0.3-0.2-0.4-0.3c0.1,0.1,0.1,0.3,0.2,0.4l0.1,0.2c0,0.1,0.1,0.1,0.1,0.2
					l0.1,0.2c0,0.1,0.1,0.1,0.1,0.2s0.2,0.3,0.3,0.5c0,0.1,0.1,0.1,0.1,0.2c0,0.1,0.1,0.1,0.1,0.2C88.2,78.5,88.3,78.6,88.4,78.8z"
					/>
				<path class="st15" d="M86.5,78.3c0-0.1-0.1-0.2-0.2-0.3c-0.2-0.2-0.4-0.4-0.6-0.6c-0.1-0.1-0.2-0.2-0.4-0.2
					C85.3,77.1,85.2,77,85,77c-0.1,0-0.2-0.1-0.4-0.1c0.1,0.1,0.2,0.2,0.2,0.3l0.3,0.3l0.3,0.3c0.1,0.1,0.2,0.2,0.3,0.2l0.3,0.2
					C86.3,78.2,86.4,78.2,86.5,78.3z"/>
			</g>
		</g>
		<path class="st16" d="M0.2,90.6v151.7h180V79C114.4,76.9,27.2,87.3,0.2,90.6z"/>
		<g>
			<defs>
				<path id="SVGID_8_" d="M0.2,90.6v151.7h180V79C114.4,76.9,27.2,87.3,0.2,90.6z"/>
			</defs>
			<clipPath id="SVGID_9_">
				<use xlink:href="#SVGID_8_"  style="overflow:visible;"/>
			</clipPath>
			<g class="st17">
				<path class="st15" d="M62.7,91.5c0-0.1,0-0.2,0-0.3c0.1-0.5,0.3-0.9,0.5-1.3c0.1-0.1,0.1-0.2,0.2-0.3c0,0.1,0,0.2,0,0.3
					c0,0.2-0.1,0.5-0.2,0.7c-0.1,0.2-0.2,0.4-0.4,0.6C62.8,91.3,62.8,91.4,62.7,91.5z"/>
				<path class="st15" d="M59.5,90.2c-0.1-0.1-0.1-0.2-0.1-0.3c-0.1-0.2-0.1-0.4-0.1-0.6c0-0.2,0-0.4,0.1-0.6c0-0.1,0.1-0.2,0.1-0.3
					c0,0.1,0.1,0.2,0.1,0.3c0.1,0.2,0.1,0.4,0.1,0.6c0,0.2,0,0.4-0.1,0.6C59.6,90,59.5,90.1,59.5,90.2z"/>
				<path class="st15" d="M96.6,98v-0.1c0-0.1,0-0.2,0-0.3s0-0.3,0-0.5s0-0.4,0-0.6c0-0.4,0-0.8,0-1c0-0.2,0-0.3,0-0.5
					c0,0,0,0.1,0.1,0.1c0.1,0.1,0.1,0.2,0.1,0.3c0.1,0.2,0.1,0.3,0.1,0.5c0,0.2,0,0.4,0,0.6c0,0.3,0,0.7-0.1,1
					c0,0.1-0.1,0.2-0.1,0.3C96.7,97.9,96.6,97.9,96.6,98z"/>
				<path class="st15" d="M94.4,98.3c-0.1-0.1-0.1-0.2-0.1-0.3c0,0,0-0.1,0-0.1l-0.1-0.1c0,0,0-0.1,0-0.2c0,0,0-0.1,0-0.1
					c0-0.1-0.1-0.2-0.1-0.3c0-0.1-0.1-0.2-0.1-0.3c0-0.1,0-0.2,0-0.3c0.1,0.1,0.2,0.1,0.3,0.2c0.1,0.1,0.2,0.1,0.2,0.2
					c0.1,0.1,0.1,0.2,0.2,0.3c0,0.1,0,0.1,0.1,0.2c0,0.1,0,0.1,0,0.2c0,0.1,0,0.2,0,0.3C94.6,98.2,94.5,98.3,94.4,98.3z"/>
				<path class="st15" d="M92,99.1c-0.1,0-0.1,0-0.2-0.1c-0.1-0.1-0.3-0.2-0.4-0.3c-0.1-0.1-0.1-0.1-0.1-0.2c0-0.1-0.1-0.1-0.1-0.2
					c0-0.1,0-0.1,0-0.2c0.1,0,0.1,0.1,0.2,0.1l0.2,0.1c0.1,0,0.1,0.1,0.2,0.2c0,0.1,0.1,0.1,0.1,0.2c0,0.1,0.1,0.1,0.1,0.2
					C92,99,92,99,92,99.1z"/>
				<path class="st15" d="M161.8,99.3c0-0.1,0-0.3,0-0.4c0-0.1,0-0.3,0.1-0.4c0.1-0.1,0.1-0.3,0.2-0.4s0.2-0.3,0.3-0.4
					c0-0.1,0.1-0.1,0.1-0.2l0.2-0.1c0.1-0.1,0.2-0.2,0.4-0.2c0,0.1-0.1,0.2-0.2,0.4l-0.1,0.2c0,0-0.1,0.1-0.1,0.2
					c-0.1,0.1-0.1,0.3-0.2,0.4c-0.1,0.1-0.1,0.3-0.2,0.4s-0.1,0.1-0.1,0.2l-0.1,0.2C162,99.1,161.9,99.2,161.8,99.3z"/>
				<path class="st15" d="M163.6,99.9c0.1-0.1,0.1-0.2,0.2-0.3c0.2-0.2,0.4-0.4,0.6-0.5l0.4-0.2c0.1-0.1,0.2-0.1,0.3-0.1
					c0.1,0,0.2,0,0.3,0h0.1l-0.1,0.1c-0.1,0.1-0.1,0.1-0.2,0.2c-0.1,0.1-0.2,0.2-0.3,0.2c-0.1,0.1-0.2,0.1-0.3,0.2
					c-0.2,0.1-0.4,0.3-0.6,0.4C163.9,99.8,163.8,99.9,163.6,99.9z"/>
				<path class="st15" d="M132.9,83.1c0.1,0.1,0.2,0.3,0.2,0.5c0.1,0.2,0.1,0.3,0.2,0.5c0.1,0.2,0.1,0.4,0.2,0.6
					c0.1,0.3,0.2,0.7,0.3,1c0,0.2,0.1,0.3,0.1,0.5c-0.1-0.1-0.2-0.3-0.3-0.4c-0.2-0.3-0.3-0.7-0.5-1c-0.1-0.4-0.2-0.7-0.2-1.1
					C132.9,83.5,132.9,83.3,132.9,83.1z"/>
				<path class="st15" d="M135.5,85.4c0-0.1,0-0.2,0-0.3c0-0.2,0.1-0.5,0.1-0.7c0.1-0.2,0.2-0.4,0.3-0.6c0.1-0.1,0.1-0.2,0.2-0.3
					c0,0.1,0,0.2,0,0.3c0,0.2-0.1,0.5-0.1,0.7c-0.1,0.2-0.2,0.4-0.3,0.6C135.7,85.3,135.6,85.3,135.5,85.4z"/>
				<path class="st15" d="M137.9,86.8c0-0.1,0-0.2,0-0.3c0-0.1,0-0.2,0.1-0.2c0-0.1,0.1-0.2,0.1-0.3c0.1-0.1,0.1-0.2,0.2-0.2
					c0-0.1,0.1-0.1,0.2-0.2c0.1-0.1,0.1-0.1,0.2-0.2c0,0.1,0,0.2,0,0.3c0,0.1,0,0.2-0.1,0.3c0,0.1-0.1,0.2-0.1,0.3
					c-0.1,0.1-0.2,0.3-0.4,0.4C138.1,86.7,138,86.7,137.9,86.8z"/>
				<path class="st9" d="M156.2,92.6c-0.4,0.1-2-0.3-1.5-0.6s1.9,0.3,1.9,0.6c-0.4-0.1-1.9,0.2-2,0.5c-0.1,0.6,1.7-0.1,1.9-0.3
					c-0.2,0.2-0.3,1,0.2,1.1c0.6,0.1,0.4-0.7,0.2-0.8c0.4,0.1,2.1,0.7,2.2,0.1c0-0.4-1-0.3-1.5-0.3c0.5-0.1,1.3-0.5,1.1-0.9
					c-0.5,0-1,0.3-1.4,0.7c0.2-0.3,0.5-1.2-0.4-1c-0.5,0.1-0.4,0.7-0.2,0.9"/>
				<path class="st13" d="M156.4,92.9c0.2,0.2,1.2,0.1,1.2-0.2s-0.8-0.3-1.1-0.2S156.2,92.7,156.4,92.9z"/>
				<path class="st9" d="M44.3,92.2c0.4,0.1,1.8-0.3,1.4-0.6s-1.8,0.3-1.8,0.6c0.3-0.1,1.8,0.2,1.8,0.5c0.1,0.6-1.6-0.1-1.8-0.3
					c0.2,0.2,0.2,1-0.2,1c-0.5,0.1-0.3-0.6-0.2-0.8c-0.4,0.1-2,0.7-2,0.1c0-0.4,0.9-0.3,1.4-0.3c-0.5-0.1-1.2-0.5-1-0.8
					c0.5,0,1,0.2,1.3,0.6c-0.2-0.2-0.5-1.1,0.4-0.9c0.4,0.1,0.3,0.7,0.2,0.8"/>
				<path class="st13" d="M44.1,92.5c-0.2,0.2-1.1,0.1-1.1-0.1s0.8-0.3,1-0.2S44.3,92.3,44.1,92.5z"/>
				<path class="st9" d="M152.1,87.8c-0.1-0.2,0-0.8,0.5-0.9c1.1-0.2,0.3,0.8,0.1,1c0.5-0.4,1.2-0.6,1.8-0.4
					c0.6,0.3-1.1,0.5-1.6,0.6c0.5,0,1.8,0,1.5,0.3c-0.4,0.5-1.6,0.2-1.9-0.1c0.1,0.3-0.3,1-0.9,0.8c-0.4-0.1-0.3-0.8-0.1-1
					c-0.2,0.2-1.9,0.7-1.8,0.1c0-0.2,0.7-0.4,1.5-0.4h-0.1c-0.3-0.1-1.5-0.2-1-0.5S152.1,87.5,152.1,87.8"/>
				<path class="st13" d="M151.8,88.2c0.2,0.2,1.2,0.1,1.2-0.2s-0.8-0.3-1.1-0.2S151.5,88,151.8,88.2z"/>
				<path class="st9" d="M126.5,99c-0.1-0.2,0-0.8,0.5-0.9c1.1-0.2,0.3,0.8,0.1,1c0.5-0.4,1.2-0.6,1.8-0.4c0.6,0.3-1.1,0.5-1.6,0.6
					c0.5,0,1.8,0,1.5,0.3s-1.6,0.2-1.9-0.1c0.1,0.3-0.3,1-0.9,0.8c-0.4-0.1-0.3-0.8-0.1-1c-0.2,0.2-1.9,0.7-1.8,0
					c0-0.2,0.7-0.4,1.5-0.4h-0.1c-0.3-0.1-1.5-0.2-1-0.5S126.5,98.6,126.5,99"/>
				<path class="st13" d="M126.1,99.4c0.2,0.2,1.2,0.1,1.2-0.2s-0.8-0.3-1.1-0.2S125.9,99.2,126.1,99.4z"/>
				<path class="st9" d="M150.6,92.3c0.4,0.1,1.9-0.3,1.4-0.6s-1.8,0.3-1.8,0.6c0.4-0.1,1.8,0.2,1.8,0.5c0.1,0.6-1.6-0.1-1.8-0.3
					c0.2,0.2,0.2,1-0.2,1c-0.6,0.1-0.3-0.6-0.2-0.7c-0.4,0.1-2,0.7-2,0.1c-0.1-0.4,0.9-0.3,1.4-0.3c-0.5-0.1-1.2-0.5-1-0.8
					c0.5,0,1,0.2,1.3,0.6c-0.1-0.2-0.4-1.1,0.4-0.9c0.4,0.1,0.3,0.7,0.2,0.8"/>
				<path class="st13" d="M150.4,92.6c-0.2,0.2-1.1,0.1-1.1-0.1s0.8-0.3,1-0.2S150.6,92.4,150.4,92.6z"/>
				<path class="st9" d="M81.1,86.2c-0.4,0.1-2-0.3-1.5-0.6s1.9,0.3,1.9,0.6c-0.4-0.1-1.9,0.2-1.9,0.5c-0.1,0.6,1.7-0.1,1.9-0.3
					c-0.2,0.2-0.3,1,0.2,1.1c0.6,0.1,0.3-0.7,0.2-0.8c0.4,0.1,2.1,0.7,2.2,0.1c0-0.4-1-0.3-1.5-0.3c0.5-0.1,1.3-0.5,1.1-0.9
					c-0.5,0-1,0.3-1.3,0.7c0.2-0.3,0.5-1.2-0.4-1c-0.5,0.1-0.4,0.7-0.2,0.9"/>
				<path class="st13" d="M81.3,86.5c0.2,0.2,1.2,0.1,1.2-0.2s-0.8-0.3-1.1-0.2S81.1,86.3,81.3,86.5z"/>
				<path class="st9" d="M46.1,88.9c-0.1-0.1,0-0.8,0.5-0.9c1.1-0.2,0.3,0.8,0.1,1c0.5-0.4,1.2-0.6,1.8-0.4c0.6,0.3-1.1,0.5-1.6,0.6
					c0.5,0,1.8,0,1.5,0.3c-0.5,0.5-1.6,0.2-1.9-0.1c0.2,0.3-0.3,1-0.9,0.8c-0.4-0.1-0.3-0.8-0.1-1c-0.2,0.2-1.9,0.7-1.8,0
					c0-0.2,0.7-0.4,1.5-0.4h-0.1c-0.3-0.1-1.5-0.2-1-0.5S46.1,88.6,46.1,88.9"/>
				<path class="st13" d="M45.8,89.3c0.2,0.2,1.2,0.1,1.2-0.2s-0.8-0.3-1.1-0.2S45.6,89.1,45.8,89.3z"/>
				<path class="st9" d="M51,92.3c0.3,0.1,1.8-0.3,1.3-0.6s-1.8,0.3-1.8,0.6c0.4-0.1,1.8,0.2,1.8,0.5c0.1,0.6-1.6-0.1-1.8-0.3
					c0.2,0.2,0.2,1-0.2,1c-0.5,0.1-0.3-0.6-0.2-0.7c-0.4,0.1-2,0.7-2,0.1c0-0.4,0.9-0.3,1.4-0.3c-0.5-0.1-1.2-0.5-1-0.8
					c0.5,0,1,0.2,1.3,0.6c-0.2-0.2-0.5-1.1,0.4-0.9c0.4,0.1,0.3,0.7,0.2,0.8"/>
				<path class="st13" d="M50.8,92.6c-0.2,0.2-1.1,0.1-1.1-0.1s0.8-0.3,1-0.2S51,92.4,50.8,92.6z"/>
				<path class="st15" d="M138.1,105.3c0-0.1,0-0.2-0.1-0.4c0-0.3,0-0.5,0.1-0.8c0-0.3,0.1-0.5,0.2-0.7c0.1-0.1,0.1-0.2,0.2-0.3
					c0,0.1,0,0.2,0,0.4c0,0.2,0,0.5,0,0.8c0,0.3-0.1,0.5-0.2,0.7C138.2,105,138.1,105.2,138.1,105.3z"/>
				<path class="st15" d="M136.2,104.9c-0.1,0-0.2-0.1-0.3-0.2c-0.2-0.1-0.3-0.3-0.4-0.5c-0.1-0.1-0.1-0.2-0.1-0.3
					c0-0.1-0.1-0.2-0.1-0.3c0-0.1,0-0.2,0-0.3c0.1,0.1,0.2,0.1,0.2,0.2c0.1,0.1,0.3,0.3,0.4,0.5c0.1,0.2,0.2,0.3,0.3,0.5
					C136.2,104.7,136.2,104.8,136.2,104.9z"/>
				<path class="st15" d="M133.5,105.5c-0.1,0-0.2,0-0.3-0.1c-0.4-0.1-0.6-0.4-0.8-0.7c0-0.1,0-0.2-0.1-0.2c0.1,0,0.2,0.1,0.2,0.1
					c0.1,0.1,0.3,0.2,0.4,0.3c0.1,0.1,0.1,0.1,0.2,0.2l0.1,0.2C133.5,105.4,133.5,105.4,133.5,105.5z"/>
				<path class="st15" d="M32.3,89.8v-0.2c0-0.1,0-0.1,0-0.2c0-0.1,0-0.1,0-0.2c0-0.1,0-0.1,0.1-0.2c0.1-0.1,0.1-0.2,0.3-0.3
					c0.1,0,0.1-0.1,0.2-0.1c0.1,0,0.1,0,0.2-0.1c0.1,0,0.2,0,0.2,0c0.1,0,0.1,0,0.2,0.1c0.1,0,0.1,0.1,0.2,0.1l0.2,0.1L34,89
					c0,0.1,0.1,0.1,0.1,0.2c0.1,0.1,0.1,0.2,0.2,0.3L34,89.6c0-0.2,0-0.4,0.1-0.5c0.1-0.2,0.2-0.3,0.4-0.4c0.1,0,0.2,0,0.3,0
					c0.1,0,0.1,0,0.2,0l0.1,0.1c0,0,0.1,0.1,0.1,0.1c0,0,0,0.1,0.1,0.1c0,0.1,0.1,0.2,0.1,0.2l-0.3-0.1l0.2-0.1l0.2-0.1
					c0.1,0,0.1,0,0.2,0c0.1,0,0.2,0,0.3,0c0.1,0,0.2,0,0.3,0c0.1,0,0.2,0,0.2,0.1l0.2,0.1l0.1,0.2l-0.2-0.1c-0.1,0-0.1-0.1-0.2-0.1
					c-0.1,0-0.1,0-0.2,0c-0.1,0-0.1,0-0.2,0c-0.1,0-0.1,0-0.2,0.1l-0.2,0.1l-0.2,0.1l-0.2,0.1l-0.2,0.1l-0.1-0.2
					c0-0.1-0.1-0.1-0.1-0.2v-0.1c0,0,0,0-0.1-0.1s0,0-0.1,0h-0.1c0,0-0.1,0-0.1,0c-0.1,0.1-0.2,0.1-0.2,0.2c0,0.1-0.1,0.2-0.1,0.3
					v0.7l-0.4-0.6c-0.1-0.1-0.1-0.3-0.2-0.4v-0.1l-0.1-0.1L33.6,89L33.5,89h-0.2c0,0-0.1,0-0.2,0H33c0,0-0.1,0-0.2,0
					c-0.1,0.1-0.2,0.1-0.2,0.2c0,0-0.1,0.1-0.1,0.1c0,0-0.1,0.1-0.1,0.2C32.4,89.6,32.4,89.7,32.3,89.8z"/>
				<path class="st15" d="M170.6,83.5c0-0.1,0-0.2,0-0.3c0-0.1,0-0.1,0-0.2c0-0.1,0-0.1,0.1-0.2c0-0.1,0.1-0.1,0.1-0.2
					c0.1,0,0.1-0.1,0.2-0.1c0.1,0,0.1,0,0.2,0h0.2c0.1,0,0.3,0.1,0.4,0.1c0.1,0.1,0.2,0.1,0.3,0.2c0.1,0,0.1,0.1,0.1,0.1
					c0.1,0,0.1,0.1,0.1,0.1c0.1,0.1,0.2,0.2,0.2,0.3h-0.4c0-0.2,0.1-0.3,0.2-0.5c0.1-0.2,0.3-0.3,0.5-0.3c0.1,0,0.2,0,0.3,0
					c0.1,0,0.2,0.1,0.3,0.2c0.1,0.1,0.2,0.3,0.3,0.4l-0.3-0.1c0.1-0.1,0.2-0.2,0.3-0.3c0.1-0.1,0.2-0.1,0.4-0.2
					c0.1-0.1,0.3-0.1,0.4-0.1c0.1,0,0.3-0.1,0.4-0.1h0.2h0.2c0.1,0,0.3,0.1,0.4,0.2c0,0,0.1,0.1,0.1,0.1c0,0,0.1,0.1,0.1,0.2
					c0,0.1,0.1,0.1,0.1,0.2v0.2l-0.1-0.2l-0.1-0.2c0,0-0.1-0.1-0.1-0.1c0,0-0.1-0.1-0.1-0.1c-0.1,0-0.2-0.1-0.3-0.1h-0.3
					c-0.1,0-0.2,0.1-0.3,0.1l-0.3,0.1c-0.1,0.1-0.2,0.1-0.3,0.2c-0.1,0.1-0.2,0.2-0.2,0.2l-0.2,0.3l-0.1-0.3c0-0.1-0.1-0.2-0.2-0.3
					C173.1,83,173,83,173,83c-0.1,0-0.2,0.1-0.2,0.2c-0.1,0.1-0.1,0.2-0.1,0.3l-0.1,0.5l-0.2-0.5c-0.1-0.1-0.1-0.2-0.2-0.3l-0.1-0.1
					c0,0-0.1-0.1-0.1-0.1c-0.1-0.1-0.2-0.1-0.3-0.2c-0.1-0.1-0.2-0.1-0.3-0.2c0,0-0.1,0-0.1,0c0,0-0.1,0-0.1,0h-0.1
					c0,0.1-0.1,0.1-0.1,0.2c0,0-0.1,0.1-0.1,0.1c0,0,0,0.1-0.1,0.2C170.6,83.3,170.6,83.4,170.6,83.5z"/>
				<path class="st15" d="M114.9,85.7c0-0.1,0-0.2,0.1-0.3c0-0.1,0.1-0.2,0.2-0.3c0.1-0.1,0.2-0.2,0.3-0.2c0.1-0.1,0.2-0.1,0.4-0.1
					c0.1,0,0.3,0,0.4,0.1c0.1,0.1,0.2,0.1,0.3,0.3c0,0.1,0.1,0.1,0.1,0.2c0,0.1,0.1,0.1,0.1,0.2c0,0.1,0.1,0.2,0.1,0.3l-0.4-0.1
					c0.1-0.1,0.2-0.3,0.3-0.4c0.1-0.1,0.3-0.2,0.5-0.2c0.1,0,0.2,0,0.3,0c0.1,0,0.2,0.1,0.2,0.2c0.1,0.1,0.2,0.3,0.2,0.4h-0.3
					c0.1-0.1,0.1-0.2,0.2-0.3l0.1-0.1l0.2-0.1c0.1-0.1,0.2-0.1,0.4-0.1c0.1,0,0.1,0,0.2,0h0.2c0.1,0,0.2,0.1,0.3,0.2
					c0.1,0.1,0.2,0.2,0.2,0.3c0,0,0.1,0.1,0.1,0.2c0,0,0,0.1,0,0.2c0,0.1,0,0.2,0,0.3c0-0.1-0.1-0.2-0.1-0.3c0,0,0-0.1-0.1-0.1
					c0,0,0-0.1-0.1-0.1c-0.1-0.1-0.1-0.1-0.2-0.2c-0.1-0.1-0.3-0.1-0.5-0.1c-0.1,0-0.2,0-0.2,0.1c-0.1,0-0.1,0.1-0.2,0.2
					c0,0.1-0.1,0.2-0.1,0.3l-0.2,0.4l-0.1-0.4c0-0.1-0.1-0.2-0.1-0.3c0-0.1-0.1-0.1-0.2-0.1c-0.2,0-0.3,0.2-0.4,0.4l-0.2,0.5
					l-0.1-0.5c0-0.1,0-0.2,0-0.3c0,0,0-0.1-0.1-0.1l-0.1-0.1c0-0.1-0.1-0.1-0.2-0.2c-0.1,0-0.2-0.1-0.2-0.1c-0.1,0-0.2,0-0.3,0
					c-0.1,0-0.2,0.1-0.3,0.1c-0.1,0.1-0.2,0.1-0.2,0.2C115,85.5,115,85.6,114.9,85.7z"/>
				<path class="st15" d="M111.7,104c0-0.1,0-0.3,0-0.4c0-0.1,0-0.1,0-0.2c0-0.1,0-0.1,0-0.2c0-0.1,0.1-0.1,0.1-0.2l0.1-0.1l0.1-0.1
					c0.1-0.1,0.1-0.1,0.2-0.1c0.1,0,0.2,0,0.3,0c0.1,0,0.2,0,0.2,0c0.1,0,0.2,0,0.2,0.1c0.1,0.1,0.3,0.1,0.4,0.2
					c0.2,0.2,0.4,0.4,0.6,0.6l-0.3,0.1c0-0.2,0.1-0.3,0.2-0.5c0.1-0.2,0.3-0.3,0.5-0.3c0.2,0,0.4,0,0.6,0.1c0.1,0.1,0.3,0.2,0.3,0.4
					h-0.3c0.2-0.1,0.3-0.2,0.5-0.3c0.2-0.1,0.4-0.1,0.6-0.2c0.1,0,0.2,0,0.3,0c0.1,0,0.2,0.1,0.3,0.1c0,0,0.1,0.1,0.1,0.1
					c0,0,0,0.1,0,0.1c0,0.1,0,0.2,0,0.3c0-0.1,0-0.2-0.1-0.3l-0.1-0.1c0,0-0.1-0.1-0.1-0.1c-0.1,0-0.1-0.1-0.2-0.1
					c-0.1,0-0.2,0-0.3,0c-0.2,0.1-0.3,0.1-0.5,0.2c-0.2,0.1-0.3,0.2-0.4,0.3l-0.2,0.1l-0.1-0.2c-0.1-0.1-0.1-0.2-0.2-0.3
					c-0.1-0.1-0.2-0.1-0.3-0.1c-0.2,0-0.3,0.2-0.3,0.5l-0.1,0.5l-0.3-0.4c-0.1-0.1-0.2-0.2-0.2-0.3c-0.1-0.1-0.2-0.2-0.3-0.3
					c-0.1-0.1-0.2-0.2-0.3-0.2c0,0-0.1-0.1-0.2-0.1h-0.2c-0.1,0-0.1,0-0.2,0c0,0-0.1,0-0.1,0H112l-0.1,0.1c0,0-0.1,0.1-0.1,0.1
					s0,0.1-0.1,0.2c0,0.1,0,0.1,0,0.2C111.8,103.8,111.8,103.9,111.7,104z"/>
				<path class="st15" d="M171.4,92.6c0.1-0.1,0.2-0.2,0.3-0.4c0-0.1,0.1-0.1,0.1-0.2c0.1-0.1,0.1-0.1,0.2-0.1
					c0.1,0,0.1-0.1,0.2-0.1c0.1,0,0.2,0,0.2,0c0.1,0,0.2,0,0.3,0c0.1,0,0.2,0.1,0.2,0.1c0.1,0,0.1,0.1,0.2,0.1
					c0.2,0.2,0.3,0.3,0.4,0.6c0,0.1,0.1,0.1,0.1,0.2c0,0.1,0.1,0.2,0.1,0.2c0,0.1,0.1,0.3,0.1,0.5h-0.4l0,0c0.1-0.2,0.1-0.3,0.3-0.4
					c0.1-0.1,0.3-0.2,0.5-0.2c0.1,0,0.2,0,0.3,0.1c0.1,0,0.2,0.1,0.2,0.2c0,0.1,0.1,0.1,0.1,0.2c0,0.1,0,0.2,0,0.2l-0.2-0.1
					c0.1,0,0.1-0.1,0.2-0.2l0.1-0.1h0.1c0.1,0,0.2,0,0.3,0c0.1,0,0.2,0,0.2,0.1c0.1,0.1,0.2,0.3,0.2,0.4c0,0.1,0,0.3,0,0.4
					c0-0.1,0-0.3,0-0.4c0-0.1-0.1-0.3-0.2-0.3c-0.1-0.1-0.3-0.1-0.4,0H175l-0.1,0.1c-0.1,0-0.1,0.1-0.1,0.2l-0.1,0.2v-0.2
					c0-0.1,0-0.1,0-0.2c0-0.1,0-0.1-0.1-0.2c0-0.1-0.1-0.1-0.2-0.1c-0.1,0-0.2,0.1-0.3,0.2c-0.1,0.1-0.1,0.2-0.1,0.3l0,0l-0.4,0.8
					v-0.8c0-0.1,0-0.3,0-0.4c0-0.1,0-0.1-0.1-0.2s0-0.1-0.1-0.2c-0.1-0.1-0.1-0.2-0.2-0.4c0-0.1-0.1-0.1-0.1-0.2
					c0,0-0.1-0.1-0.2-0.1l-0.2-0.1c-0.1,0-0.1,0-0.2,0c-0.1,0-0.1,0-0.2,0c-0.1,0-0.1,0-0.2,0.1c-0.1,0-0.1,0.1-0.2,0.1l-0.2,0.1
					C171.6,92.4,171.5,92.5,171.4,92.6z"/>
				<path class="st15" d="M168.3,107.8l-0.1-0.2c0-0.1,0-0.2,0-0.3c0-0.1,0-0.2,0.1-0.2c0-0.1,0.1-0.2,0.1-0.2
					c0.1-0.1,0.1-0.1,0.2-0.2c0.1,0,0.2-0.1,0.3-0.1c0.1,0,0.2,0,0.3,0c0.1,0,0.2,0,0.3,0c0.1,0,0.2,0,0.3,0.1
					c0.1,0,0.2,0.1,0.3,0.1c0.1,0,0.2,0.1,0.2,0.1c0.1,0,0.1,0.1,0.2,0.2c0.1,0.1,0.1,0.1,0.2,0.2c0.1,0.1,0.1,0.2,0.1,0.2
					c0,0.1,0.1,0.2,0.1,0.3v0.3l-0.4-0.1c0.1-0.2,0.2-0.3,0.3-0.4c0.1-0.1,0.1-0.1,0.2-0.2c0.1-0.1,0.2-0.1,0.3-0.1
					c0.1,0,0.2,0,0.3,0c0.1,0,0.2,0.1,0.3,0.2c0.1,0.1,0.1,0.2,0.1,0.3c0,0.1,0.1,0.2,0.1,0.3l-0.3-0.1c0.1-0.1,0.2-0.2,0.3-0.3
					c0.1-0.1,0.2-0.1,0.3-0.2c0.1-0.1,0.2-0.1,0.4-0.1c0.1,0,0.1,0,0.2,0h0.2l0.2,0.1c0.1,0,0.1,0.1,0.2,0.1
					c0.1,0.1,0.2,0.3,0.3,0.5c0,0.1,0,0.1,0,0.2c0,0.1,0,0.2,0,0.3c0-0.1,0-0.2-0.1-0.3c0,0,0-0.1,0-0.2c0,0,0-0.1-0.1-0.1
					c-0.1-0.1-0.1-0.2-0.2-0.2c0,0-0.1-0.1-0.1-0.1h-0.1c0,0-0.1,0-0.1,0c0,0-0.1,0-0.1,0c-0.1,0-0.2,0.1-0.3,0.1
					c-0.1,0-0.2,0.1-0.2,0.2c-0.1,0.1-0.1,0.1-0.2,0.2l-0.2,0.3l-0.1-0.3c0-0.1,0-0.1-0.1-0.2c0-0.1-0.1-0.1-0.1-0.2
					c0,0-0.1-0.1-0.1-0.1c0,0-0.1,0-0.1,0c-0.1,0-0.2,0.1-0.3,0.2c-0.1,0.1-0.2,0.2-0.2,0.3l-0.3,0.6l-0.1-0.7v-0.2
					c0-0.1,0-0.1-0.1-0.2c0-0.1-0.1-0.1-0.1-0.2c0-0.1-0.1-0.1-0.1-0.2c-0.1-0.1-0.2-0.2-0.3-0.3c-0.1,0-0.1-0.1-0.2-0.1
					c-0.1,0-0.1-0.1-0.2-0.1c-0.1,0-0.1,0-0.2,0c-0.1,0-0.1,0-0.2,0c-0.1,0-0.1,0-0.2,0.1c-0.1,0-0.3,0.1-0.3,0.3
					c0,0.1-0.1,0.1-0.1,0.2c0,0.1,0,0.1,0,0.2L168.3,107.8z"/>
				<path class="st15" d="M141.5,92.9c0-0.1-0.1-0.2-0.1-0.3c0-0.1,0-0.2,0-0.3c0-0.1,0-0.1,0-0.2c0-0.1,0-0.1,0.1-0.2
					c0-0.1,0.1-0.1,0.1-0.2c0.1,0,0.1-0.1,0.2-0.1c0.1,0,0.1,0,0.2,0c0.1,0,0.1,0.1,0.2,0.1c0.1,0.1,0.2,0.2,0.3,0.3
					c0.1,0.2,0.2,0.4,0.3,0.6h-0.4c0-0.2,0.1-0.4,0.2-0.6c0.1-0.2,0.3-0.4,0.5-0.4c0.1-0.1,0.3-0.1,0.4-0.1c0.1,0,0.2,0.1,0.3,0.2
					c0,0,0.1,0.1,0.1,0.1c0,0,0.1,0.1,0.1,0.1c0.1,0.1,0.1,0.2,0.1,0.3h-0.3c0-0.1,0.1-0.2,0.1-0.2c0.1-0.1,0.1-0.2,0.2-0.2
					c0.1-0.1,0.2-0.1,0.3-0.1c0.1,0,0.2,0,0.3,0c0.1,0,0.2,0.1,0.2,0.2c0.1,0.1,0.1,0.1,0.1,0.2c0.1,0.2,0.1,0.3,0.1,0.5
					c0-0.1-0.1-0.2-0.1-0.2c0-0.1-0.1-0.1-0.1-0.2c-0.1-0.1-0.2-0.2-0.4-0.3c-0.1,0-0.1,0-0.2,0c-0.1,0-0.1,0.1-0.2,0.1
					c-0.1,0-0.1,0.1-0.1,0.2c0,0.1-0.1,0.1-0.1,0.2l-0.1,0.3l-0.2-0.3c-0.1-0.1-0.1-0.1-0.1-0.2c0,0-0.1-0.1-0.1-0.1l-0.1-0.1
					c0,0-0.1-0.1-0.2-0.1c-0.1,0-0.1,0-0.2,0c-0.1,0-0.1,0.1-0.2,0.1c-0.1,0.1-0.1,0.1-0.1,0.2c-0.1,0.1-0.1,0.3-0.2,0.4l-0.1,0.6
					l-0.2-0.6c0-0.1-0.1-0.2-0.1-0.3c0-0.1-0.1-0.2-0.1-0.3c0-0.1-0.1-0.1-0.2-0.2l-0.1-0.1h-0.1c0,0-0.1,0-0.1,0c0,0-0.1,0-0.1,0.1
					c0,0,0,0.1-0.1,0.1s0,0.1-0.1,0.1C141.5,92.4,141.5,92.6,141.5,92.9z"/>
				<path class="st15" d="M101.3,83.5c0-0.1,0.1-0.2,0.1-0.3c0.1-0.1,0.1-0.2,0.2-0.3c0.1-0.1,0.2-0.2,0.3-0.3
					c0.1-0.1,0.2-0.1,0.3-0.2c0.1-0.1,0.2-0.1,0.3-0.1c0.1,0,0.2,0,0.3,0c-0.1,0.1-0.1,0.2-0.2,0.2c-0.1,0.1-0.2,0.1-0.2,0.2
					c-0.1,0.1-0.2,0.1-0.3,0.2c-0.1,0.1-0.2,0.1-0.3,0.2l-0.3,0.2C101.5,83.4,101.4,83.4,101.3,83.5z"/>
				<path class="st15" d="M19.9,91.7c0.1,0.1,0.2,0.2,0.3,0.3c0.1,0.2,0.3,0.4,0.4,0.6c0.1,0.1,0.1,0.2,0.2,0.3l0.1,0.3
					c0,0.1,0.1,0.2,0.1,0.3c-0.1-0.1-0.2-0.1-0.3-0.2c-0.2-0.2-0.4-0.4-0.5-0.6C20.1,92.5,20,92.3,20,92
					C19.9,91.9,19.9,91.8,19.9,91.7z"/>
				<path class="st15" d="M22.1,93.1c0-0.1,0-0.2,0-0.3c0-0.2,0-0.4,0.1-0.6c0.1-0.2,0.2-0.4,0.3-0.6c0.1-0.1,0.1-0.2,0.2-0.2
					c0,0.1,0,0.2,0,0.3c0,0.1,0,0.2,0,0.3c0,0.1,0,0.2-0.1,0.3c-0.1,0.2-0.1,0.4-0.2,0.6C22.2,92.9,22.1,93,22.1,93.1z"/>
				<path class="st9" d="M109.6,90c-0.4,0.1-2-0.3-1.5-0.6s1.9,0.3,1.9,0.6c-0.4-0.1-1.9,0.2-2,0.5c-0.1,0.6,1.7-0.1,1.9-0.3
					c-0.2,0.2-0.3,1,0.2,1.1c0.6,0.1,0.3-0.7,0.2-0.8c0.4,0.1,2.1,0.7,2.2,0.1c0.1-0.4-1-0.3-1.5-0.3c0.5-0.1,1.3-0.5,1.1-0.9
					c-0.5,0-1,0.3-1.3,0.7c0.2-0.3,0.5-1.2-0.4-1c-0.5,0.1-0.3,0.7-0.2,0.9"/>
				<path class="st13" d="M109.8,90.3c0.2,0.2,1.2,0.1,1.2-0.2s-0.8-0.3-1.1-0.2S109.6,90.1,109.8,90.3z"/>
				<path class="st9" d="M114.3,92.5c-0.3,0.1-1.8-0.3-1.3-0.6s1.7,0.3,1.7,0.6c-0.3-0.1-1.7,0.2-1.7,0.4c-0.1,0.6,1.5-0.1,1.7-0.2
					c-0.2,0.1-0.2,0.9,0.1,1s0.3-0.6,0.2-0.7c0.4,0.1,1.9,0.6,1.9,0.1c0-0.3-0.9-0.3-1.3-0.3c0.5-0.1,1.1-0.5,1-0.8
					c-0.5,0-0.9,0.2-1.2,0.6c0.2-0.2,0.4-1.1-0.4-0.9c-0.4,0.1-0.3,0.6-0.2,0.8"/>
				<path class="st13" d="M114.4,92.8c0.2,0.2,1.1,0.1,1-0.1s-0.7-0.3-1-0.2S114.2,92.6,114.4,92.8z"/>
				<path class="st9" d="M152.2,108.6c-0.4,0.1-2-0.3-1.5-0.6s1.9,0.3,1.9,0.6c-0.4-0.1-1.9,0.2-1.9,0.5c-0.1,0.6,1.7-0.1,1.9-0.3
					c-0.2,0.2-0.3,1,0.2,1.1c0.6,0.1,0.3-0.7,0.2-0.8c0.4,0.1,2.1,0.7,2.2,0.1c0.1-0.4-1-0.3-1.5-0.3c0.5-0.1,1.3-0.5,1.1-0.9
					c-0.5,0-1,0.3-1.4,0.7c0.2-0.3,0.5-1.2-0.4-1c-0.5,0.1-0.4,0.7-0.2,0.9"/>
				<path class="st13" d="M152.4,108.9c0.2,0.2,1.2,0.1,1.2-0.2s-0.8-0.3-1.1-0.2S152.2,108.7,152.4,108.9z"/>
				<path class="st9" d="M181.1,90.3c-0.4,0.1-2-0.4-1.4-0.7s1.9,0.4,1.9,0.7c-0.4-0.1-1.9,0.1-2,0.4c-0.1,0.6,1.7,0,1.9-0.2
					c-0.2,0.2-0.3,1,0.1,1.1c0.6,0.2,0.4-0.6,0.2-0.8c0.4,0.2,2.1,0.8,2.2,0.2c0.1-0.4-1-0.4-1.5-0.4c0.5,0,1.3-0.5,1.2-0.9
					c-0.5,0-1,0.2-1.4,0.6c0.2-0.3,0.6-1.2-0.4-1c-0.5,0.1-0.4,0.7-0.3,0.8"/>
				<path class="st13" d="M181.3,90.6c0.2,0.2,1.2,0.2,1.2-0.1s-0.8-0.3-1.1-0.3S181.1,90.4,181.3,90.6z"/>
			</g>
		</g>
		<path class="st15" d="M0.2,92.5v149.8h180V119.9C85.7,94.3,20.5,92.3,0.2,92.5z"/>
		<path class="st18" d="M16.3,177.1c-0.1-0.2-0.1-0.4-0.1-0.6c0-0.2-0.1-0.4-0.1-0.6c0-0.1,0-0.2,0-0.3c0-0.1,0-0.2,0.1-0.3l0.1-0.2
			c0,0,0.1-0.1,0.1-0.1c0.1-0.1,0.1-0.2,0.2-0.2c0.1-0.1,0.2-0.2,0.3-0.2c0.1,0,0.3,0,0.4,0c0.1,0,0.2,0.1,0.3,0.2
			c0.1,0.1,0.2,0.2,0.2,0.3c0.1,0.2,0.2,0.4,0.3,0.6c0.1,0.2,0.2,0.4,0.2,0.6l0,0c0,0.1,0,0.2-0.1,0.2c0,0,0,0,0,0
			c-0.1,0-0.2,0-0.2-0.1v-0.2c0-0.1,0-0.1,0-0.2c0-0.1,0-0.2,0-0.2c0-0.1,0-0.2,0.1-0.2c0-0.1,0.1-0.1,0.2-0.2
			c0.1-0.1,0.1-0.1,0.2-0.1c0.1,0,0.2-0.1,0.3-0.1c0.1,0,0.2,0,0.3,0l0.2,0.1c0.1,0,0.1,0.1,0.2,0.1c0.1,0.1,0.1,0.1,0.2,0.2
			c0,0.1,0.1,0.1,0.1,0.2l0.1,0.2c0,0.1,0,0.1,0,0.2c0,0.1,0,0.3,0,0.4c0,0.1-0.1,0.2-0.1,0.2c0,0,0,0,0,0c-0.1,0-0.2-0.1-0.2-0.1
			c0,0,0,0,0,0l0,0c0-0.2,0-0.3,0-0.5c0-0.1,0-0.2,0-0.3c0-0.1,0-0.2,0.1-0.2c0-0.1,0.1-0.2,0.1-0.2c0-0.1,0.1-0.1,0.1-0.2
			c0.1-0.1,0.1-0.1,0.2-0.2c0.1-0.1,0.1-0.1,0.2-0.1c0.1,0,0.2-0.1,0.3-0.1c0.1,0,0.2,0,0.3,0c0.1,0,0.2,0.1,0.2,0.1
			c0.1,0.1,0.1,0.1,0.2,0.2c0,0.1,0.1,0.1,0.1,0.2c0,0.1,0.1,0.2,0.1,0.2c0,0.2,0.1,0.3,0.1,0.5c0-0.2-0.1-0.3-0.2-0.4
			c0-0.1-0.1-0.1-0.1-0.2c0-0.1-0.1-0.1-0.1-0.2c0-0.1-0.1-0.1-0.2-0.1c-0.1,0-0.1-0.1-0.2-0.1c-0.1,0-0.1,0-0.2,0
			c-0.1,0-0.1,0-0.2,0.1c-0.1,0.1-0.2,0.2-0.3,0.3c0,0.1-0.1,0.1-0.1,0.2c0,0.1-0.1,0.1-0.1,0.2c0,0.1,0,0.1-0.1,0.2
			c0,0.1,0,0.1,0,0.2c0,0.1,0,0.3,0,0.4h-0.4c0-0.1,0-0.2,0-0.3v-0.2l-0.1-0.1c0,0,0-0.1-0.1-0.1c0,0-0.1-0.1-0.1-0.1l-0.1-0.1h-0.1
			c0,0-0.1,0-0.1,0c0,0-0.1,0-0.1,0c0,0-0.1,0-0.1,0.1s-0.1,0.1-0.1,0.1s0,0.1,0,0.1c0,0,0,0.1,0,0.1c0,0.1,0,0.1,0,0.2v0.2
			l-0.4,0.1c-0.1-0.4-0.2-0.7-0.4-1.1c0-0.1-0.1-0.1-0.2-0.2c-0.1-0.1-0.1-0.1-0.2-0.1c-0.1,0-0.1,0-0.2,0c-0.1,0-0.2,0.1-0.2,0.1
			c-0.1,0.1-0.2,0.1-0.2,0.2c0,0-0.1,0.1-0.1,0.1l-0.1,0.1c0,0.1-0.1,0.2-0.1,0.3c0,0.1,0,0.2,0,0.3c0,0.2,0,0.4,0,0.6L16.3,177.1z"
			/>
		<path class="st18" d="M21.5,153.3c0-0.2-0.1-0.3-0.1-0.5c0-0.2,0-0.3,0-0.5c0-0.2,0-0.3,0-0.5c0-0.1,0-0.2,0.1-0.3
			c0-0.1,0.1-0.2,0.2-0.3l0,0l0.2-0.1c0.1,0,0.1-0.1,0.2-0.1c0.1,0,0.1-0.1,0.2-0.1c0.1,0,0.2,0,0.2,0l0.2,0.1l0.2,0.1
			c0.1,0.1,0.2,0.1,0.3,0.2c0.4,0.4,0.7,0.8,0.9,1.3l-0.4,0.1c-0.1-0.2-0.1-0.4-0.1-0.6c0-0.2,0-0.4,0-0.6c0-0.2,0.1-0.4,0.3-0.6
			c0.1-0.1,0.2-0.2,0.3-0.2c0.1,0,0.1,0,0.2,0c0,0,0.1,0,0.1,0h0.1c0.1,0,0.1,0,0.2,0.1c0.1,0,0.1,0.1,0.2,0.1
			c0.1,0.1,0.2,0.2,0.2,0.2c0.1,0.2,0.2,0.3,0.2,0.5c0.1,0.3,0.2,0.7,0.3,1h-0.3c0-0.1,0-0.3,0.1-0.4c0-0.1,0-0.1,0.1-0.2
			c0-0.1,0.1-0.1,0.1-0.2c0.1-0.1,0.1-0.2,0.2-0.3c0-0.1,0.1-0.1,0.1-0.1c0-0.1,0.1-0.1,0.1-0.1c0.1-0.1,0.2-0.2,0.4-0.2
			c0.1,0,0.1,0,0.2,0c0.1,0,0.1,0,0.2,0.1c0,0.1,0.1,0.1,0.1,0.2c0,0.1,0.1,0.1,0.1,0.2c0,0.1,0,0.3,0,0.4c0-0.1-0.1-0.2-0.1-0.4
			c0-0.1,0-0.1-0.1-0.2c0-0.1-0.1-0.1-0.1-0.1c0,0-0.1,0-0.1-0.1h-0.2c-0.1,0-0.2,0.1-0.3,0.2c0,0-0.1,0.1-0.1,0.1
			c0,0.1,0,0.2,0,0.2c-0.1,0.1-0.1,0.2-0.2,0.3c0,0.1,0,0.1-0.1,0.2c0,0.1,0,0.1,0,0.2c0,0.1,0,0.2,0,0.3c0,0.1-0.1,0.1-0.1,0.1
			c-0.1,0-0.1,0-0.1-0.1c-0.1-0.3-0.2-0.7-0.3-1c-0.1-0.1-0.1-0.3-0.2-0.4l-0.1-0.1h-0.1c0,0,0,0-0.1,0h-0.1l0,0c0,0-0.1,0-0.1,0
			c-0.1,0-0.1,0-0.1,0.1c-0.1,0.1-0.1,0.2-0.2,0.4c-0.1,0.3-0.1,0.6,0,0.9l0,0c0,0.1-0.1,0.2-0.2,0.2c-0.1,0-0.2,0-0.2-0.1
			c-0.2-0.4-0.4-0.9-0.7-1.2c-0.1-0.1-0.2-0.2-0.3-0.2l-0.1-0.1c0,0-0.1,0-0.1,0c0,0-0.1,0-0.1,0H22l-0.1,0.1l-0.1,0.1l0,0
			c-0.1,0-0.1,0.1-0.1,0.2c0,0.1,0,0.1-0.1,0.2c0,0.2-0.1,0.3-0.1,0.5C21.4,152.6,21.5,152.9,21.5,153.3z"/>
		<path class="st18" d="M40.6,189c-0.1-0.2-0.2-0.4-0.2-0.5c-0.1-0.2-0.1-0.4-0.2-0.6c0-0.2,0-0.4,0-0.6c0-0.2,0-0.3,0.1-0.5
			c0-0.1,0.1-0.1,0.1-0.1c0.1-0.1,0.2-0.1,0.3-0.1c0.1,0,0.3,0,0.4,0.1c0.2,0.1,0.3,0.3,0.5,0.4c0.2,0.3,0.4,0.6,0.6,1l-0.4,0.1
			c0-0.2,0-0.3,0-0.5c0-0.2,0-0.3,0.1-0.5c0-0.1,0-0.2,0.1-0.2c0-0.1,0.1-0.2,0.1-0.2c0.1-0.1,0.1-0.2,0.2-0.2c0,0,0.1-0.1,0.1-0.1
			h0.2h0.2l0.1,0.1c0.1,0.1,0.1,0.1,0.2,0.2c0,0.1,0.1,0.1,0.1,0.2c0,0.1,0.1,0.1,0.1,0.2c0,0.2,0.1,0.3,0.1,0.5
			c0,0.1,0,0.3,0.1,0.5h-0.3c0-0.3,0.1-0.6,0.2-0.9c0-0.1,0.1-0.1,0.2-0.2c0.1-0.1,0.2-0.1,0.3-0.1c0.2,0,0.3,0.1,0.4,0.2
			c0.2,0.2,0.4,0.4,0.5,0.7c0.1,0.2,0.2,0.5,0.3,0.8c-0.1-0.3-0.2-0.5-0.4-0.7c-0.2-0.2-0.3-0.4-0.6-0.6c-0.1-0.1-0.2-0.1-0.3-0.1
			c-0.1,0-0.2,0.1-0.2,0.1c-0.1,0.2-0.1,0.5-0.1,0.8c0,0.1-0.1,0.2-0.2,0.2c-0.1,0-0.1-0.1-0.2-0.1l0,0c0-0.1,0-0.3-0.1-0.4
			c0-0.1-0.1-0.3-0.1-0.4c0-0.1-0.1-0.1-0.1-0.2c0-0.1-0.1-0.1-0.1-0.2c0,0-0.1-0.1-0.1-0.1l0,0l0,0l0,0h0c0,0-0.1,0.1-0.1,0.1
			c0,0.1-0.1,0.1-0.1,0.2c0,0.1,0,0.1-0.1,0.2c0,0.1-0.1,0.3-0.1,0.4c0,0.1,0,0.3,0,0.4l0,0c0,0.1-0.1,0.2-0.2,0.2
			c-0.1,0-0.1,0-0.2-0.1c-0.2-0.3-0.3-0.7-0.6-1c-0.1-0.2-0.2-0.3-0.3-0.4c-0.1,0-0.2,0-0.3,0h-0.1l0,0c0,0-0.1,0-0.1,0
			c0,0-0.1,0-0.1,0.1c0,0,0,0.1,0,0.1c0,0.1-0.1,0.2-0.1,0.3c0,0.2,0,0.4,0,0.6c0,0.2,0,0.4,0.1,0.6C40.5,188.6,40.6,188.8,40.6,189
			z"/>
		<path class="st18" d="M162.3,236.7c-0.1-0.2-0.3-0.3-0.3-0.5c-0.1-0.2-0.2-0.4-0.2-0.6c0-0.2,0.1-0.5,0.2-0.6
			c0.2-0.2,0.4-0.3,0.6-0.3c0.5,0,0.9,0.1,1.3,0.3c0.4,0.2,0.7,0.6,0.8,1l-0.4,0.1c0-0.2,0-0.3,0-0.5c0-0.1,0-0.2,0-0.2l0.1-0.3
			l0.1-0.2c0-0.1,0.1-0.1,0.1-0.2c0.1-0.1,0.1-0.1,0.2-0.2c0.1-0.1,0.2-0.1,0.3-0.1c0.1,0,0.2,0,0.3,0c0.1,0,0.2,0.1,0.3,0.2
			c0.1,0.1,0.1,0.1,0.2,0.2c0,0.1,0.1,0.2,0.1,0.2l0.1,0.3v0.2c0,0.2,0,0.3,0,0.5l0,0c0,0.1-0.1,0.2-0.2,0.2c-0.1,0-0.2,0-0.2-0.1
			c0,0,0,0,0,0l0,0c0-0.2,0-0.3,0-0.5c0-0.1,0-0.2,0.1-0.3c0-0.1,0.1-0.2,0.1-0.2c0-0.1,0.1-0.2,0.2-0.2c0.1-0.1,0.1-0.1,0.2-0.1
			c0.1,0,0.2-0.1,0.3-0.1c0.1,0,0.2,0,0.3,0c0.1,0,0.2,0.1,0.3,0.1c0.1,0,0.1,0.1,0.2,0.1c0.1,0.1,0.1,0.1,0.2,0.2
			c0.1,0.1,0.1,0.1,0.1,0.2c0,0.1,0.1,0.1,0.1,0.2c0,0.1,0,0.2,0.1,0.2c0,0.1,0,0.2,0,0.2v0.2v-0.2c0-0.1,0-0.1-0.1-0.2
			c0-0.1,0-0.1-0.1-0.2c0-0.1-0.1-0.1-0.1-0.2c0-0.1-0.1-0.1-0.1-0.2c0-0.1-0.1-0.1-0.2-0.1c-0.1,0-0.1-0.1-0.2-0.1
			c-0.1,0-0.1-0.1-0.2-0.1h-0.1c-0.1,0-0.1,0-0.2,0.1c-0.1,0-0.1,0.1-0.1,0.1c0,0-0.1,0.1-0.1,0.2c0,0.1-0.1,0.1-0.1,0.2
			c0,0.1,0,0.1,0,0.2c0,0.1,0,0.3,0,0.4H166c0-0.1,0-0.3,0-0.4v-0.2l-0.1-0.2c0-0.1-0.1-0.1-0.1-0.2c0-0.1-0.1-0.1-0.1-0.1
			c0,0-0.1-0.1-0.1-0.1c0,0-0.1,0-0.1,0c0,0-0.1,0-0.1,0.1c0,0-0.1,0.1-0.1,0.1l-0.1,0.2l-0.1,0.2v0.2c0,0.1,0,0.1,0,0.2
			c0,0.1,0,0.3,0,0.4l0,0c0,0.1-0.1,0.2-0.2,0.2c-0.1,0-0.1-0.1-0.2-0.1c-0.1-0.4-0.4-0.7-0.7-0.9c-0.3-0.2-0.7-0.4-1.1-0.3
			c-0.2,0-0.4,0.1-0.5,0.2c-0.1,0.1-0.2,0.3-0.2,0.5c0,0.2,0,0.4,0.1,0.6C162.2,236.3,162.3,236.5,162.3,236.7z"/>
		<path class="st18" d="M43.5,231.1l-0.2-0.2c-0.1-0.1-0.1-0.2-0.1-0.3c0-0.1-0.1-0.2-0.1-0.3c0-0.1,0-0.2,0-0.3v-0.1l0.1-0.1
			c0-0.1,0.1-0.2,0.2-0.2c0.1-0.1,0.2-0.1,0.3-0.2c0.1,0,0.2-0.1,0.3-0.1c0.1,0,0.2,0,0.3,0c0.1,0,0.2,0,0.3,0c0.1,0,0.2,0,0.3,0.1
			l0.1,0.1l0.1,0.1l0.1,0.1l0.1,0.1l0.1,0.1c0,0,0,0.1,0.1,0.1c0,0.1,0.1,0.2,0.1,0.3l0.1,0.3h-0.4c0-0.3,0-0.6,0-0.9
			c0-0.2,0.1-0.3,0.2-0.5c0-0.1,0.1-0.1,0.2-0.2c0.1-0.1,0.2-0.1,0.3-0.2H46h0.2c0.1,0,0.2,0.1,0.3,0.1c0.1,0,0.1,0.1,0.2,0.2
			c0.1,0.1,0.1,0.1,0.2,0.2c0.1,0.1,0.2,0.2,0.3,0.4c0.1,0.1,0.1,0.3,0.2,0.4h-0.3c0-0.2,0.1-0.3,0.1-0.5c0-0.1,0.1-0.2,0.1-0.2
			c0-0.1,0.1-0.2,0.1-0.2c0-0.1,0.1-0.1,0.2-0.2c0.1-0.1,0.1-0.1,0.2-0.2c0.1-0.1,0.2-0.1,0.3-0.1c0.1,0,0.2,0,0.3,0
			c0.1,0,0.2,0,0.3,0.1l0.1,0.1l0.1,0.1c0.1,0.1,0.1,0.1,0.2,0.2c0.1,0.1,0.1,0.1,0.1,0.2c0,0.1,0.1,0.2,0.1,0.2
			c0,0.1,0,0.2,0.1,0.2c0,0.2,0,0.3,0,0.5c0-0.2-0.1-0.3-0.1-0.5c0-0.1,0-0.1-0.1-0.2c0-0.1-0.1-0.1-0.1-0.2c0-0.1-0.1-0.1-0.1-0.2
			c-0.1-0.1-0.1-0.1-0.2-0.1l-0.1,0h-0.1c-0.1,0-0.1,0-0.2,0c-0.1,0-0.1,0-0.2,0c-0.1,0-0.1,0.1-0.2,0.1c-0.1,0-0.1,0.1-0.2,0.1
			c-0.1,0-0.1,0.1-0.1,0.2c0,0.1-0.1,0.1-0.1,0.2c0,0.1-0.1,0.1-0.1,0.2c-0.1,0.1-0.1,0.3-0.1,0.4c0,0.1-0.1,0.2-0.2,0.1
			c-0.1,0-0.1,0-0.1-0.1c-0.1-0.1-0.1-0.3-0.2-0.4c-0.1-0.1-0.1-0.2-0.2-0.3l-0.1-0.1l-0.1-0.1c0,0-0.1-0.1-0.1-0.1H46h0
			c0,0-0.1,0-0.1,0.1s-0.1,0.1-0.1,0.1c-0.1,0.1-0.1,0.2-0.1,0.4c0,0.1,0,0.3,0,0.4c0,0.1,0,0.3,0,0.4c0,0.1-0.1,0.2-0.2,0.2
			c0,0,0,0,0,0c-0.1,0-0.2-0.1-0.2-0.1v-0.2c0-0.1,0-0.2-0.1-0.2c0,0,0-0.1,0-0.1l-0.1-0.1l-0.1-0.1l-0.1-0.1l-0.1-0.1l-0.1-0.1
			c-0.1,0-0.1-0.1-0.2-0.1c-0.1,0-0.2,0-0.2,0c-0.1,0-0.2,0-0.3,0c-0.1,0-0.2,0-0.2,0.1c-0.1,0-0.1,0.1-0.2,0.1
			c-0.1,0-0.1,0.1-0.2,0.2l-0.1,0.1v0.1c0,0.1,0,0.2,0,0.3c0,0.1,0,0.2,0,0.3c0,0.1,0.1,0.2,0.1,0.3L43.5,231.1z"/>
		<path class="st18" d="M65.2,173c0-0.2,0-0.3,0-0.5c0-0.2,0.1-0.3,0.1-0.5c0-0.1,0-0.1,0.1-0.2c0-0.1,0.1-0.2,0.1-0.2
			c0.1-0.1,0.1-0.1,0.2-0.2c0,0,0.1-0.1,0.1-0.1c0,0,0.1,0,0.1,0c0.1,0,0.2,0,0.3,0c0.1,0,0.2,0.1,0.2,0.1c0.1,0.1,0.2,0.2,0.3,0.4
			c0.1,0.1,0.2,0.3,0.2,0.4c0.1,0.1,0.1,0.3,0.2,0.5l-0.3,0.1c0-0.3,0-0.6,0.1-0.8c0.1-0.3,0.2-0.5,0.4-0.7c0.1-0.1,0.3-0.2,0.4-0.3
			c0.1,0,0.2,0,0.3,0c0.1,0,0.2,0.1,0.3,0.2c0.1,0.1,0.1,0.3,0.2,0.5c0,0.1,0,0.3,0,0.4l-0.3-0.1c0.1-0.1,0.2-0.3,0.3-0.4
			c0.1-0.1,0.2-0.2,0.4-0.3l0.2-0.1l0.3-0.1c0.1,0,0.2,0,0.3,0c0.1,0,0.2,0,0.3,0.1c0.1,0,0.2,0.1,0.2,0.2c0.1,0.1,0.1,0.1,0.2,0.2
			c0,0.1,0.1,0.2,0.1,0.2c0,0.1,0,0.2,0,0.2c0,0.2,0,0.3,0,0.5c0,0.1,0,0.2,0,0.2l-0.1,0.2v-0.2c0-0.1,0-0.2,0-0.2
			c0-0.1,0-0.2,0-0.2c0-0.1,0-0.1,0-0.2c0-0.1,0-0.2-0.1-0.2c0-0.1-0.1-0.1-0.1-0.2c0-0.1-0.1-0.1-0.1-0.1l-0.2-0.1
			c-0.1,0-0.1,0-0.2,0c-0.1,0-0.1,0-0.2,0c-0.1,0-0.1,0-0.2,0.1l-0.2,0.1l-0.2,0.1c0,0-0.1,0.1-0.2,0.2c-0.1,0-0.2,0.3-0.3,0.4l0,0
			c-0.1,0.1-0.2,0.1-0.3,0c0,0-0.1-0.1-0.1-0.1c0-0.1,0-0.2,0-0.4c0-0.1,0-0.2-0.1-0.3c-0.1,0-0.1,0-0.2,0c-0.1,0-0.2,0.1-0.2,0.2
			c-0.3,0.3-0.5,0.8-0.5,1.2c0,0.1-0.1,0.2-0.2,0.2c-0.1,0-0.1,0-0.2-0.1c0-0.1-0.1-0.3-0.1-0.4c-0.1-0.1-0.1-0.3-0.2-0.4
			c-0.1-0.1-0.1-0.2-0.2-0.3c0-0.1-0.1-0.1-0.2-0.1h-0.1H66c0,0-0.1,0-0.1,0c0,0-0.1,0-0.1,0c-0.1,0-0.1,0.1-0.1,0.1
			c-0.1,0.1-0.2,0.2-0.2,0.4c-0.1,0.1-0.1,0.3-0.2,0.4C65.3,172.7,65.3,172.9,65.2,173z"/>
		<path class="st18" d="M151.3,138.3c-0.2-0.3-0.3-0.6-0.3-1c0-0.1,0-0.2,0.1-0.3c0-0.1,0.1-0.2,0.2-0.2c0.1,0,0.2-0.1,0.3-0.1
			c0.1,0,0.2,0,0.3,0.1c0.1,0,0.2,0.1,0.2,0.2c0.1,0.1,0.1,0.1,0.2,0.2c0.1,0.1,0.2,0.3,0.3,0.5c0.2,0.3,0.3,0.6,0.4,0.9l-0.3,0.1
			c0-0.2,0-0.4,0-0.5c0-0.2,0.1-0.4,0.1-0.5c0.1-0.2,0.1-0.3,0.2-0.5c0.1-0.1,0.1-0.2,0.2-0.2c0.1-0.1,0.2-0.1,0.3-0.2
			c0.1-0.1,0.2-0.1,0.3-0.1c0.1,0,0.1,0,0.2,0l0.2,0.1c0.1,0.1,0.2,0.2,0.2,0.2c0,0.1,0.1,0.2,0.1,0.3c0,0.1,0.1,0.2,0.1,0.3v0.3
			c0,0.2,0,0.4,0,0.5h-0.4c0.1-0.3,0.2-0.6,0.4-0.9c0.1-0.2,0.3-0.3,0.5-0.3c0.2,0,0.4,0.1,0.5,0.3c0.2,0.3,0.3,0.6,0.3,0.9
			c0,0.3-0.1,0.6-0.2,0.9c0.1-0.3,0.1-0.6,0.1-0.9c0-0.3-0.1-0.6-0.3-0.8c-0.1-0.1-0.2-0.2-0.3-0.2c-0.1,0-0.2,0.1-0.3,0.2
			c-0.1,0.3-0.2,0.5-0.3,0.8c0,0.1-0.1,0.1-0.2,0.1c-0.1,0-0.1-0.1-0.1-0.1l0,0c0-0.2,0-0.3-0.1-0.5l-0.1-0.2l-0.1-0.2
			c0-0.1-0.1-0.1-0.1-0.2c0-0.1-0.1-0.1-0.1-0.1h-0.1h0c-0.1,0-0.1,0-0.1,0.1c-0.1,0-0.1,0.1-0.2,0.1c0,0.1-0.1,0.1-0.1,0.2
			c-0.1,0.1-0.2,0.3-0.2,0.4c0,0.1-0.1,0.2-0.1,0.2c0,0.1,0,0.2,0,0.2c0,0.2,0,0.3-0.1,0.5l0,0c0,0.1-0.1,0.2-0.2,0.2c0,0,0,0,0,0
			c-0.1,0-0.1,0-0.1-0.1c-0.1-0.3-0.2-0.6-0.4-0.9c-0.1-0.1-0.1-0.3-0.2-0.4c0-0.1-0.1-0.1-0.1-0.2c-0.1-0.1-0.1-0.1-0.2-0.1
			c-0.1,0-0.1-0.1-0.2-0.1c0,0,0,0-0.1,0h-0.1c-0.1,0-0.1,0.1-0.2,0.1c0,0.1-0.1,0.1-0.1,0.2c0,0.2,0,0.3,0,0.5
			C151.2,137.9,151.2,138.1,151.3,138.3z"/>
		<path class="st18" d="M95.3,187.9c-0.1-0.2-0.2-0.4-0.2-0.5c-0.1-0.2-0.1-0.4-0.2-0.5c-0.1-0.2-0.1-0.4-0.1-0.6
			c0-0.1,0.1-0.2,0.1-0.3l0.1-0.1l0.2-0.1c0.1,0,0.2-0.1,0.4-0.1c0.1,0,0.2,0,0.3,0.1c0.1,0,0.2,0.1,0.3,0.2
			c0.1,0.1,0.2,0.1,0.3,0.2c0.2,0.1,0.3,0.3,0.4,0.5c0.1,0.2,0.2,0.4,0.3,0.6h-0.4c0-0.1,0-0.3,0-0.4c0-0.1,0-0.3,0.1-0.4
			c0-0.1,0.1-0.3,0.2-0.4c0.1-0.1,0.1-0.1,0.2-0.2l0.1-0.1l0.1-0.1c0.1,0,0.2,0,0.3,0c0.1,0,0.2,0.1,0.2,0.1
			c0.1,0.1,0.2,0.2,0.3,0.4c0.1,0.1,0.1,0.3,0.1,0.4c0,0.1,0,0.3,0.1,0.4h-0.4c0-0.2,0.1-0.4,0.2-0.6c0.1-0.2,0.2-0.4,0.3-0.5
			l0.2-0.2c0.1-0.1,0.1-0.2,0.2-0.2c0.1-0.1,0.2-0.1,0.3-0.2c0.1,0,0.1,0,0.2,0c0.1,0,0.1,0,0.2,0c0.1,0,0.1,0,0.2,0.1h0.1
			c0,0,0.1,0,0.1,0.1c0,0,0.1,0.1,0.1,0.1c0,0,0.1,0.1,0.1,0.1c0.1,0.2,0.1,0.4,0.1,0.6c0,0.2,0,0.4,0,0.6c0,0.1,0,0.2-0.1,0.3
			c0,0.1,0,0.2-0.1,0.3c0-0.1,0.1-0.2,0.1-0.3c0-0.1,0-0.2,0-0.3c0-0.2,0-0.4,0-0.5c0-0.2-0.1-0.4-0.1-0.5l-0.1-0.1c0,0,0,0-0.1-0.1
			h-0.1l0,0c0,0-0.1,0-0.1,0h-0.1c0,0-0.1,0-0.1,0c-0.1,0-0.1,0.1-0.2,0.1c-0.1,0.1-0.1,0.1-0.2,0.2l-0.1,0.2
			c-0.1,0.2-0.2,0.3-0.2,0.5c-0.1,0.2-0.1,0.3-0.1,0.5c0,0.1-0.1,0.2-0.2,0.2c-0.1,0-0.1-0.1-0.2-0.1l0,0c0-0.1,0-0.2-0.1-0.4
			c0-0.1-0.1-0.2-0.1-0.3c0-0.1-0.1-0.1-0.1-0.1l-0.1-0.1c0,0-0.1-0.1-0.1-0.1s-0.1,0-0.1,0l0,0l0,0c0,0-0.1,0.1-0.1,0.1
			c-0.1,0.1-0.1,0.2-0.1,0.3c0,0.1-0.1,0.2-0.1,0.3c0,0.1,0,0.3,0,0.4l0,0c0,0.1-0.1,0.2-0.2,0.2c0,0,0,0,0,0
			c-0.1,0-0.2-0.1-0.2-0.1c0-0.2-0.1-0.3-0.2-0.5c-0.1-0.2-0.2-0.3-0.4-0.4c-0.1-0.1-0.1-0.1-0.2-0.2c-0.1-0.1-0.1-0.1-0.2-0.1
			l-0.2-0.1c-0.1,0-0.2,0-0.2,0h-0.1l-0.1,0.1c0,0.1-0.1,0.1-0.1,0.2c0,0.2,0,0.4,0,0.5c0,0.2,0.1,0.4,0.1,0.6
			C95.4,187.4,95.4,187.7,95.3,187.9z"/>
		<path class="st18" d="M120.3,137.7c-0.2-0.5-0.3-0.9-0.4-1.4c-0.1-0.3-0.1-0.5,0-0.8c0-0.1,0-0.1,0.1-0.2c0-0.1,0.1-0.1,0.1-0.2
			c0.1-0.1,0.3-0.1,0.4-0.2c0.2,0,0.3,0,0.4,0.1c0.1,0.1,0.3,0.1,0.4,0.2c0.2,0.2,0.4,0.4,0.5,0.6c0.3,0.4,0.5,0.9,0.7,1.4l-0.4,0.1
			l-0.1-0.3c0-0.1,0-0.2,0-0.3c0-0.1,0-0.2,0-0.3c0-0.1,0-0.2,0.1-0.3c0-0.1,0.1-0.2,0.2-0.3c0.1-0.1,0.1-0.2,0.2-0.3
			c0.1-0.1,0.2-0.1,0.3-0.2c0.1,0,0.2-0.1,0.4,0h0.2l0.2,0.1c0.1,0,0.2,0.1,0.3,0.2l0.2,0.3l0.2,0.3l0.1,0.3c0,0.1,0,0.2,0.1,0.3
			c0,0.1,0,0.2,0,0.3v0.3h-0.3c0-0.2,0-0.3,0.1-0.5l0.1-0.2l0.1-0.2c0-0.1,0.1-0.1,0.2-0.2c0.1-0.1,0.2-0.1,0.3-0.1
			c0.1,0,0.2,0,0.3,0c0.1,0,0.2,0.1,0.2,0.1c0.1,0,0.1,0.1,0.2,0.2c0.1,0.1,0.1,0.1,0.2,0.2c0,0.1,0.1,0.1,0.1,0.2
			c0,0.1,0.1,0.1,0.1,0.2c0,0.1,0,0.2,0,0.2c0,0.1,0,0.2,0,0.2c0,0.1,0,0.1,0,0.2v0.2v-0.2c0-0.1,0-0.1,0-0.2c0-0.1,0-0.1,0-0.2
			c0-0.1,0-0.2,0-0.3c0-0.1-0.1-0.1-0.1-0.2c0-0.1-0.1-0.1-0.1-0.2c0-0.1-0.1-0.1-0.1-0.1c0-0.1-0.1-0.1-0.2-0.1
			c-0.1,0-0.1-0.1-0.2-0.1c-0.1,0-0.1,0-0.2,0c-0.1,0-0.1,0.1-0.2,0.1c0,0-0.1,0.1-0.1,0.2l-0.1,0.2v0.2c0,0.1,0,0.3,0,0.4
			c0,0.1-0.1,0.1-0.2,0.1c-0.1,0-0.1-0.1-0.1-0.1l0,0c0-0.2,0-0.4-0.1-0.6c0-0.1,0-0.2-0.1-0.3l-0.1-0.2L124,136
			c-0.1-0.1-0.1-0.1-0.2-0.2c-0.1,0-0.1-0.1-0.2-0.1h-0.1h-0.2h-0.1c-0.1,0-0.1,0.1-0.2,0.1c-0.1,0.1-0.1,0.1-0.2,0.2
			c0,0.1-0.1,0.1-0.1,0.2c0,0.1-0.1,0.2-0.1,0.3c0,0.1,0,0.2,0,0.3c0,0.1,0,0.2,0,0.3v0.3l0,0c0,0.1,0,0.2-0.1,0.2c0,0,0,0,0,0
			c-0.1,0-0.2,0-0.2-0.1c-0.1-0.4-0.3-0.9-0.6-1.3c-0.1-0.2-0.3-0.4-0.4-0.5c-0.1-0.1-0.2-0.1-0.3-0.2c0,0-0.1,0-0.1-0.1
			c0,0-0.1,0-0.1,0c-0.1,0-0.2,0-0.3,0.1c0,0-0.1,0.1-0.1,0.1c0,0-0.1,0.1-0.1,0.1c-0.1,0.2-0.1,0.4-0.1,0.7
			C120.1,136.8,120.2,137.3,120.3,137.7z"/>
		<path class="st18" d="M107.6,227.3c0-0.2-0.1-0.3-0.1-0.5c0-0.4,0-0.7,0-1.1c0-0.4,0.1-0.7,0.2-1.1c0-0.2,0.1-0.3,0.2-0.5
			c0,0,0,0.2,0.1,0.5c0,0.4,0,0.7,0,1.1c0,0.4-0.1,0.7-0.2,1.1C107.7,227,107.7,227.1,107.6,227.3z"/>
		<path class="st18" d="M108.5,228.9c0-0.2,0-0.4,0-0.5c0-0.2,0.1-0.4,0.1-0.5c0.1-0.2,0.1-0.4,0.2-0.6c0.2-0.4,0.4-0.7,0.6-1
			c0.2-0.3,0.3-0.4,0.3-0.4c0,0.2-0.1,0.3-0.2,0.5c0,0.1-0.1,0.3-0.2,0.5s-0.2,0.4-0.2,0.5s-0.2,0.4-0.3,0.5c0,0.1-0.1,0.2-0.1,0.3
			c0,0.1-0.1,0.2-0.1,0.2C108.7,228.6,108.6,228.8,108.5,228.9z"/>
		<path class="st18" d="M111.1,232.1c0-0.1,0-0.2,0-0.3c0-0.2,0.1-0.4,0.2-0.5c0.1-0.2,0.3-0.3,0.5-0.4c0.1-0.1,0.2-0.1,0.3-0.1
			c0,0.1,0,0.2-0.1,0.3l-0.1,0.2c0,0.1-0.1,0.2-0.1,0.3c-0.1,0.2-0.2,0.3-0.3,0.5C111.3,232,111.2,232.1,111.1,232.1z"/>
		<path class="st18" d="M131.3,153.9c-0.1-0.1-0.1-0.2-0.2-0.3c-0.1-0.2-0.2-0.4-0.2-0.7c0-0.2-0.1-0.5-0.1-0.7c0-0.1,0-0.2,0.1-0.3
			c0.1,0.1,0.1,0.2,0.2,0.3c0.1,0.2,0.2,0.4,0.2,0.7c0,0.2,0.1,0.5,0.1,0.7C131.3,153.7,131.3,153.8,131.3,153.9z"/>
		<path class="st18" d="M128.4,153.4L128.4,153.4c-0.1-0.1-0.1-0.1-0.2-0.2c-0.1-0.1-0.2-0.3-0.3-0.5c-0.1-0.2-0.1-0.4-0.1-0.6
			c0-0.1,0-0.2,0-0.3c0.1,0.1,0.1,0.1,0.2,0.2c0.1,0.1,0.2,0.3,0.3,0.5c0,0.1,0.1,0.2,0.1,0.3c0,0.1,0,0.2,0,0.3
			C128.4,153.2,128.4,153.3,128.4,153.4C128.4,153.4,128.4,153.4,128.4,153.4z"/>
		<path class="st18" d="M127.7,155.6c-0.1,0-0.2-0.1-0.3-0.1c-0.2-0.1-0.4-0.2-0.6-0.4c-0.1-0.2-0.3-0.4-0.4-0.6
			c0-0.1-0.1-0.2-0.1-0.3c0.1,0,0.2,0.1,0.3,0.2c0.2,0.1,0.3,0.3,0.5,0.4c0.1,0.1,0.2,0.2,0.2,0.3s0.1,0.1,0.1,0.1l0.1,0.1
			C127.6,155.4,127.7,155.5,127.7,155.6z"/>
		<path class="st18" d="M9.2,131.7c0-0.1,0-0.1,0-0.2c0-0.1,0-0.3,0.1-0.4c0.1-0.2,0.1-0.4,0.2-0.5c0.1-0.2,0.2-0.4,0.4-0.6l0.2-0.3
			c0.1-0.1,0.1-0.2,0.2-0.2c0.1-0.1,0.3-0.3,0.4-0.4c0.2-0.1,0.3-0.2,0.5-0.3c-0.1,0.2-0.2,0.3-0.3,0.5c-0.2,0.3-0.5,0.6-0.8,1
			l-0.4,0.5l-0.2,0.2c0,0.1-0.1,0.1-0.1,0.2c-0.1,0.1-0.2,0.3-0.2,0.4L9.2,131.7z"/>
		<path class="st18" d="M7.9,131.4c-0.1-0.1-0.1-0.2-0.1-0.4c0-0.1,0-0.1,0-0.2c0-0.1,0-0.1-0.1-0.2s-0.1-0.3-0.1-0.4
			c0-0.1-0.1-0.3-0.1-0.4c0-0.1,0-0.1,0-0.2c0-0.1,0-0.1,0-0.2c0-0.1,0-0.3,0-0.4c0.1,0.1,0.2,0.2,0.3,0.3c0.1,0.1,0.1,0.2,0.2,0.3
			c0.1,0.1,0.1,0.3,0.1,0.4c0,0.1,0,0.3,0,0.4c0,0.1,0,0.3,0,0.4C8.1,131.1,8,131.3,7.9,131.4z"/>
		<path class="st18" d="M6.8,132.1c-0.1-0.1-0.2-0.1-0.3-0.2c-0.2-0.2-0.3-0.4-0.4-0.6c-0.1-0.2-0.2-0.4-0.3-0.7c0-0.1,0-0.2,0-0.3
			c0.1,0.1,0.2,0.2,0.2,0.2l0.2,0.3c0.1,0.1,0.1,0.2,0.2,0.3c0.1,0.2,0.2,0.4,0.3,0.6C6.8,131.9,6.8,132,6.8,132.1z"/>
		<path class="st18" d="M17.5,196.1c0.2,0.2,0.3,0.3,0.5,0.5c0.3,0.4,0.6,0.8,0.9,1.2c0.3,0.4,0.6,0.8,0.8,1.3
			c0.2,0.4,0.3,0.6,0.3,0.6c-0.2-0.2-0.3-0.3-0.5-0.5c-0.4-0.4-0.7-0.8-1-1.2c-0.3-0.4-0.5-0.9-0.7-1.3
			C17.6,196.5,17.6,196.3,17.5,196.1z"/>
		<path class="st18" d="M20.5,199.3c0-0.2,0-0.3,0-0.5c0-0.3,0-0.7,0-1c0-0.3,0.1-0.7,0.2-1c0-0.2,0.1-0.3,0.2-0.4
			c0,0.2,0,0.3,0,0.5c0,0.3,0,0.7,0,1c0,0.3-0.1,0.7-0.2,1C20.6,199,20.6,199.1,20.5,199.3z"/>
		<path class="st18" d="M39.7,159.1c0.1,0.1,0.2,0.1,0.4,0.2c0.1,0.1,0.2,0.2,0.3,0.3l0.3,0.4c0.2,0.3,0.3,0.5,0.4,0.8
			c0,0.1,0.1,0.3,0.1,0.4c-0.1-0.1-0.2-0.2-0.3-0.3l-0.3-0.3c-0.1-0.1-0.2-0.3-0.3-0.4c-0.1-0.1-0.2-0.2-0.2-0.4l-0.1-0.2l-0.1-0.2
			C39.8,159.4,39.7,159.2,39.7,159.1z"/>
		<path class="st18" d="M34.7,156.6c0.1,0.1,0.3,0.2,0.4,0.3c0.3,0.2,0.5,0.4,0.8,0.7c0.2,0.2,0.5,0.5,0.7,0.8
			c0.1,0.1,0.2,0.3,0.3,0.4c-0.1-0.1-0.3-0.2-0.4-0.3c-0.3-0.2-0.5-0.4-0.8-0.7c-0.2-0.2-0.5-0.5-0.7-0.8
			C34.8,156.9,34.7,156.7,34.7,156.6z"/>
		<path class="st18" d="M30.8,158.3c0.2,0.1,0.3,0.2,0.5,0.3c0.3,0.2,0.6,0.5,0.9,0.7c0.3,0.3,0.6,0.5,0.8,0.8
			c0.1,0.1,0.2,0.3,0.3,0.4c-0.2-0.1-0.3-0.2-0.5-0.3c-0.3-0.2-0.6-0.5-0.9-0.7c-0.3-0.3-0.6-0.5-0.8-0.8
			C31,158.6,30.9,158.5,30.8,158.3z"/>
		<path class="st18" d="M40.1,150.6c0-0.2,0-0.3,0-0.5c0-0.2,0-0.3,0.1-0.5c0-0.2,0.1-0.3,0.1-0.5c0.1-0.3,0.2-0.6,0.3-0.9
			c0-0.1,0.1-0.3,0.2-0.4c0,0.1,0,0.3,0,0.5c0,0.3,0,0.7-0.1,1c-0.1,0.3-0.2,0.6-0.3,0.9C40.2,150.4,40.1,150.5,40.1,150.6z"/>
		<path class="st18" d="M37.7,147.7c-0.1-0.1-0.1-0.2-0.1-0.3c0-0.1,0-0.1,0-0.2c0,0,6977.9-2052.7-0.1-0.3c0-0.1,0-0.1,0-0.2
			c0-0.1-0.1-0.2-0.1-0.4c0-0.1,0-0.1,0-0.2V146c0-0.1,0-0.2,0-0.4c0.1,0.1,0.2,0.2,0.3,0.3c0.1,0.1,0.1,0.2,0.2,0.3
			c0.1,0.1,0.1,0.3,0.1,0.4c0,0.1,0,0.3,0,0.4c0,0.1,0,0.2,0,0.3C37.9,147.5,37.8,147.6,37.7,147.7z"/>
		<path class="st18" d="M9.6,146.3c0.1,0.1,0.2,0.2,0.3,0.3c0.2,0.2,0.4,0.5,0.6,0.8c0.2,0.3,0.3,0.6,0.4,0.9
			c0.1,0.1,0.1,0.3,0.1,0.4c-0.1-0.1-0.2-0.2-0.3-0.3c-0.1-0.1-0.2-0.2-0.3-0.4c-0.1-0.1-0.2-0.3-0.3-0.4c-0.2-0.3-0.3-0.6-0.4-0.9
			C9.7,146.6,9.7,146.5,9.6,146.3z"/>
		<path class="st18" d="M6.5,147.5c0.1,0,0.2,0.1,0.3,0.2c0.2,0.1,0.4,0.3,0.6,0.5c0.2,0.2,0.3,0.4,0.5,0.6c0.1,0.1,0.1,0.2,0.2,0.3
			c-0.1,0-0.2-0.1-0.3-0.2c-0.2-0.1-0.4-0.3-0.6-0.5c-0.2-0.2-0.3-0.4-0.5-0.6C6.6,147.7,6.5,147.6,6.5,147.5z"/>
		<path class="st18" d="M6.3,174.2c0-0.1,0-0.3,0-0.4c0-0.3,0.1-0.6,0.1-0.9c0.1-0.3,0.2-0.6,0.3-0.9c0.1-0.1,0.1-0.3,0.2-0.4
			c0,0.1,0,0.3,0,0.4c0,0.3-0.1,0.6-0.1,0.9c-0.1,0.3-0.2,0.6-0.3,0.9C6.5,174,6.4,174.1,6.3,174.2z"/>
		<path class="st18" d="M5.2,173.9c-0.1-0.1-0.1-0.2-0.2-0.3c-0.1-0.2-0.2-0.4-0.2-0.6c0-0.2-0.1-0.4-0.1-0.7c0-0.1,0-0.2,0.1-0.3
			c0.1,0.1,0.1,0.2,0.2,0.3c0.1,0.2,0.2,0.4,0.2,0.6c0,0.2,0,0.4,0,0.7C5.2,173.7,5.2,173.8,5.2,173.9z"/>
		<path class="st18" d="M3.3,175.6c-0.1-0.1-0.3-0.1-0.4-0.2c-0.1-0.1-0.2-0.2-0.3-0.3c-0.1-0.1-0.2-0.3-0.3-0.4l-0.2-0.2
			c0-0.1-0.1-0.2-0.1-0.2c-0.1-0.1-0.1-0.3-0.2-0.4c0-0.1,0-0.2,0-0.3v-0.1l0.1,0.1c0,0.1,0.1,0.2,0.2,0.3l0.1,0.2
			c0,0.1,0.1,0.1,0.1,0.2l0.3,0.4l0.5,0.8C3.2,175.3,3.3,175.5,3.3,175.6z"/>
		<path class="st9" d="M69.1,182.3c-0.6,0.3-3.3-0.8-2.4-1.6c0.7-0.6,3.2,0.7,3.1,1.5c-0.6-0.2-3.2,0.4-3.2,1.2
			c-0.1,1.5,2.8-0.3,3.2-0.7c-0.4,0.4-0.4,2.5,0.3,2.8c1,0.3,0.6-1.6,0.3-2c0.7,0.4,3.5,1.8,3.7,0.2c0.1-1-1.7-0.8-2.5-0.9
			c0.9-0.2,2.1-1.3,1.8-2.3c-0.9-0.2-1.9,1-2.3,1.7c0.3-0.6,0.8-2.9-0.7-2.4c-0.8,0.3-0.6,1.7-0.4,2.1"/>
		<path class="st13" d="M69.3,183.1c0.3,0.5,2,0.3,2-0.4c0-0.7-1.3-0.7-1.8-0.5C69.1,182.3,69,182.6,69.3,183.1z"/>
		<path class="st9" d="M90.2,215.5c-0.6,0.3-3.3-0.8-2.4-1.5c0.7-0.6,3.2,0.7,3.1,1.5c-0.6-0.2-3.2,0.4-3.2,1.2
			c-0.1,1.5,2.8-0.3,3.1-0.7c-0.4,0.4-0.4,2.5,0.3,2.8c1,0.3,0.6-1.6,0.3-2c0.7,0.4,3.5,1.7,3.6,0.2c0.1-1-1.7-0.8-2.5-0.9
			c0.9-0.2,2.1-1.3,1.8-2.3c-0.9-0.2-1.9,1-2.2,1.7c0.3-0.6,0.8-2.9-0.7-2.4c-0.8,0.3-0.6,1.7-0.4,2.1"/>
		<path class="st13" d="M90.4,216.3c0.3,0.5,2,0.3,2-0.4s-1.3-0.7-1.8-0.5C90.2,215.5,90.1,215.8,90.4,216.3z"/>
		<path class="st9" d="M8.8,163.2c0.6,0.3,3-0.7,2.2-1.4c-0.6-0.6-2.9,0.6-2.8,1.4c0.6-0.2,2.8,0.4,2.9,1.1c0.1,1.4-2.5-0.2-2.8-0.6
			c0.3,0.4,0.4,2.3-0.3,2.5c-0.9,0.3-0.5-1.4-0.3-1.8c-0.6,0.3-3.1,1.6-3.3,0.2c-0.1-0.9,1.5-0.7,2.2-0.8c-0.8-0.2-1.9-1.1-1.7-2
			c0.8-0.2,1.7,0.9,2,1.5c-0.2-0.6-0.7-2.6,0.6-2.1c0.7,0.2,0.5,1.5,0.3,1.9"/>
		<path class="st13" d="M8.6,163.9c-0.3,0.4-1.8,0.3-1.8-0.3s1.2-0.6,1.6-0.5C8.9,163.2,8.9,163.4,8.6,163.9z"/>
		<path class="st9" d="M134.8,184.6c-0.2-0.3,0-1.6,0.7-1.7c1.4-0.3,0.4,1.5,0.2,2c0.5-0.8,1.6-1.1,2.4-0.8c0.8,0.5-1.4,1-2.1,1.2
			c0.7,0,2.4,0,2,0.7c-0.6,0.9-2.1,0.4-2.5-0.2c0.2,0.5-0.4,1.9-1.2,1.6c-0.6-0.2-0.4-1.6-0.1-1.9c-0.3,0.4-2.5,1.3-2.4,0.1
			c0-0.4,1-0.7,2-0.7l-0.2-0.1c-0.4-0.2-2-0.4-1.3-1S134.9,184,134.8,184.6"/>
		<path class="st13" d="M134.4,185.4c0.3,0.4,1.6,0.3,1.6-0.3s-1.1-0.6-1.4-0.4S134.1,185,134.4,185.4z"/>
		<path class="st9" d="M16.7,98.6c-0.1-0.2,0-1.1,0.5-1.2c1-0.2,0.3,1,0.1,1.3c0.4-0.5,1-0.7,1.6-0.5c0.5,0.4-1,0.7-1.4,0.8
			c0.4,0,1.6,0,1.3,0.5c-0.4,0.6-1.4,0.2-1.7-0.1c0.1,0.3-0.3,1.3-0.8,1.1c-0.4-0.1-0.3-1.1-0.1-1.3c-0.2,0.2-1.7,0.9-1.6,0.1
			c0-0.3,0.6-0.5,1.3-0.5l-0.1-0.1c-0.3-0.1-1.3-0.3-0.8-0.7S16.8,98.2,16.7,98.6"/>
		<path class="st13" d="M16.4,99.1c0.2,0.3,1.1,0.2,1-0.2s-0.7-0.4-1-0.3S16.2,98.9,16.4,99.1z"/>
		<path class="st9" d="M123.2,178.5c-0.2-0.4,0-1.9,0.8-2.1c1.8-0.4,0.5,1.8,0.2,2.4c0.7-1,1.9-1.3,3-0.9c1,0.7-1.7,1.3-2.6,1.5
			c0.8,0,3,0,2.4,0.8c-0.7,1.1-2.5,0.4-3-0.2c0.2,0.6-0.5,2.3-1.5,2c-0.7-0.2-0.5-1.9-0.1-2.3c-0.3,0.4-3,1.6-2.9,0.1
			c0-0.5,1.2-0.9,2.4-0.9l-0.2-0.1c-0.5-0.2-2.4-0.5-1.5-1.3C120.9,176.9,123.3,177.8,123.2,178.5"/>
		<path class="st13" d="M122.6,179.5c0.3,0.5,2,0.3,1.9-0.4s-1.3-0.7-1.8-0.5C122.4,178.7,122.3,179,122.6,179.5z"/>
		<path class="st9" d="M4.7,117.1c-0.2-0.3,0-1.4,0.6-1.6c1.3-0.3,0.3,1.3,0.2,1.8c0.5-0.7,1.4-1,2.2-0.7c0.7,0.5-1.3,0.9-1.9,1.1
			c0.6,0,2.2,0,1.8,0.6c-0.5,0.9-1.9,0.3-2.3-0.2c0.2,0.5-0.4,1.7-1.1,1.5c-0.5-0.2-0.4-1.4-0.1-1.7c-0.3,0.3-2.3,1.2-2.2,0.1
			c0-0.4,0.9-0.7,1.8-0.7l-0.2-0.1c-0.4-0.2-1.8-0.4-1.2-0.9S4.7,116.5,4.7,117.1"/>
		<path class="st13" d="M4.3,117.9c0.2,0.3,1.5,0.2,1.4-0.3s-1-0.5-1.3-0.4S4,117.5,4.3,117.9z"/>
		<path class="st9" d="M98.9,223.3c-0.2-0.3,0-1.5,0.6-1.6c1.3-0.3,0.4,1.4,0.2,1.8c0.5-0.7,1.4-1,2.2-0.7c0.7,0.5-1.3,1-2,1.1
			c0.6,0,2.2,0,1.8,0.6c-0.5,0.9-1.9,0.3-2.3-0.2c0.2,0.5-0.4,1.7-1.1,1.5c-0.5-0.2-0.4-1.4-0.1-1.8c-0.3,0.3-2.3,1.2-2.2,0.1
			c0-0.4,0.9-0.7,1.8-0.7l-0.2-0.1c-0.4-0.2-1.8-0.4-1.2-0.9S98.9,222.7,98.9,223.3"/>
		<path class="st13" d="M98.4,224c0.2,0.4,1.5,0.2,1.4-0.3c-0.1-0.5-1-0.5-1.3-0.4C98.2,223.4,98.2,223.6,98.4,224z"/>
		<path class="st9" d="M163.2,124.9c-0.2-0.3,0-1.4,0.9-1.5c1.8-0.3,0.5,1.3,0.2,1.8c0.9-0.7,2-1,3.1-0.7c1,0.5-1.8,0.9-2.7,1
			c0.8,0,3.1,0,2.5,0.6c-0.8,0.8-2.6,0.3-3.2-0.2c0.3,0.4-0.6,1.7-1.6,1.4c-0.7-0.2-0.5-1.4-0.1-1.7c-0.4,0.3-3.1,1.2-3,0.1
			c0-0.4,1.2-0.6,2.5-0.7l-0.2-0.1c-0.6-0.2-2.5-0.4-1.6-0.9C160.8,123.6,163.3,124.3,163.2,124.9"/>
		<path class="st13" d="M162.6,125.6c0.3,0.3,2.1,0.2,2-0.3s-1.4-0.5-1.8-0.4S162.3,125.2,162.6,125.6z"/>
		<path class="st9" d="M166.6,218.7c-0.3-0.4,0.1-2.3,1-2.5c2.1-0.4,0.6,2.1,0.2,2.9c0.8-1.1,2.3-1.6,3.6-1.1
			c1.1,0.8-2.1,1.5-3.1,1.7c0.9,0.1,3.5,0,2.9,1c-0.9,1.4-3,0.5-3.6-0.3c0.3,0.7-0.6,2.7-1.8,2.3c-0.8-0.3-0.6-2.3-0.1-2.8
			c-0.4,0.5-3.6,1.9-3.4,0.1c0-0.6,1.4-1,2.8-1.1l-0.2-0.1c-0.6-0.3-2.8-0.6-1.8-1.5C163.8,216.7,166.7,217.7,166.6,218.7"/>
		<path class="st13" d="M165.8,219.8c0.4,0.5,2.4,0.4,2.3-0.4s-1.6-0.8-2.1-0.6C165.5,218.9,165.5,219.2,165.8,219.8z"/>
		<path class="st9" d="M136,165.5c-0.1-0.3,0-1.4,0.6-1.5c1.2-0.3,0.3,1.2,0.1,1.7c0.5-0.7,1.3-0.9,2.1-0.6c0.7,0.5-1.2,0.9-1.8,1
			c0.6,0,2.1,0,1.7,0.6c-0.5,0.8-1.8,0.3-2.1-0.2c0.2,0.4-0.4,1.6-1,1.4c-0.5-0.2-0.3-1.3-0.1-1.6c-0.2,0.3-2.1,1.1-2,0.1
			c0-0.4,0.8-0.6,1.7-0.6l-0.1-0.1c-0.4-0.2-1.7-0.3-1.1-0.9S136.1,164.9,136,165.5"/>
		<path class="st13" d="M135.6,166.1c0.2,0.3,1.4,0.2,1.3-0.3c-0.1-0.5-0.9-0.5-1.2-0.4S135.3,165.8,135.6,166.1z"/>
		<path class="st9" d="M8.3,204.9c-0.2-0.3,0-1.9,0.8-2c1.7-0.4,0.4,1.7,0.2,2.3c0.6-0.9,1.8-1.3,2.9-0.9c0.9,0.7-1.7,1.2-2.5,1.4
			c0.8,0.1,2.8,0,2.3,0.8c-0.7,1.1-2.4,0.4-2.9-0.2c0.2,0.6-0.5,2.2-1.4,1.9C7,208,7.2,206.4,7.5,206c-0.3,0.4-2.9,1.5-2.8,0.1
			c0-0.5,1.1-0.9,2.3-0.9l-0.2-0.1c-0.5-0.2-2.3-0.5-1.5-1.2S8.4,204.2,8.3,204.9"/>
		<path class="st13" d="M7.7,205.9c0.3,0.4,1.9,0.3,1.9-0.4c-0.1-0.7-1.3-0.7-1.7-0.5S7.4,205.4,7.7,205.9z"/>
		<path class="st9" d="M100.6,173.4c-0.2-0.3,0-1.5,0.7-1.7c1.4-0.3,0.4,1.4,0.2,1.9c0.5-0.8,1.5-1.1,2.4-0.8c0.8,0.5-1.4,1-2.1,1.2
			c0.6,0,2.3,0,1.9,0.7c-0.6,0.9-2,0.4-2.4-0.2c0.2,0.5-0.4,1.8-1.2,1.6c-0.5-0.2-0.4-1.5-0.1-1.9c-0.3,0.3-2.4,1.3-2.3,0.1
			c0-0.4,0.9-0.7,1.9-0.7l-0.2-0.1c-0.4-0.2-1.9-0.4-1.2-1C98.9,171.9,100.7,172.7,100.6,173.4"/>
		<path class="st13" d="M100.1,174.2c0.3,0.4,1.6,0.3,1.5-0.3c-0.1-0.5-1-0.6-1.4-0.4S99.8,173.8,100.1,174.2z"/>
		<path class="st9" d="M59.1,225.7c-0.3-0.5,0.1-2.9,1.2-3.1c2.6-0.5,0.7,2.6,0.3,3.6c1-1.4,2.8-2,4.4-1.4c1.4,1-2.5,1.9-3.8,2.1
			c1.2,0.1,4.3,0,3.6,1.2c-1,1.7-3.7,0.6-4.5-0.4c0.3,0.9-0.8,3.4-2.2,2.9c-1-0.3-0.7-2.8-0.2-3.4c-0.5,0.6-4.4,2.4-4.3,0.2
			c0.1-0.7,1.7-1.3,3.5-1.3l-0.3-0.2c-0.8-0.3-3.5-0.7-2.3-1.9C55.7,223.2,59.2,224.5,59.1,225.7"/>
		<path class="st13" d="M58.2,227c0.5,0.7,2.9,0.4,2.8-0.6s-1.9-1-2.6-0.8C58,225.9,57.8,226.3,58.2,227z"/>
		<path class="st9" d="M19.2,138.5c-0.2-0.3,0-1.6,0.7-1.7c1.4-0.3,0.4,1.5,0.2,2c0.5-0.8,1.6-1.1,2.5-0.8c0.8,0.6-1.4,1-2.1,1.2
			c0.7,0,2.4,0,2,0.7c-0.6,0.9-2.1,0.4-2.5-0.2c0.2,0.5-0.4,1.9-1.2,1.6c-0.6-0.2-0.4-1.6-0.1-1.9c-0.3,0.4-2.5,1.3-2.4,0.1
			c0-0.4,1-0.7,2-0.7l-0.2-0.1c-0.5-0.2-2-0.4-1.3-1S19.3,137.9,19.2,138.5"/>
		<path class="st13" d="M18.7,139.3c0.3,0.4,1.6,0.3,1.6-0.3s-1.1-0.6-1.4-0.4S18.5,138.9,18.7,139.3z"/>
		<g class="st10">
			<path class="st19" d="M138.4,22.5c-0.6-1.7-0.2-6.8,2.8-7.2s2.4,3.1,1.7,4.7c1-0.4,2.1,0.1,2.5,1.1c0.1,0.4,0.2,0.8,0.1,1.2
				c-0.3,2.5-3.3,2.6-5.2,2.1L138.4,22.5z"/>
		</g>
		<path class="st20" d="M139.9,22.9c0-0.1,0-0.2,0-0.2c0-0.1,0-0.2,0-0.3c0-0.1,0-0.2,0-0.4c0-0.1,0-0.3,0-0.4l0.1-0.5
			c0-0.2,0.1-0.3,0.1-0.5c0-0.2,0.1-0.3,0.1-0.5l0.1-0.5c0.1-0.2,0.1-0.3,0.2-0.5c0.1-0.3,0.2-0.6,0.4-0.8s0.2-0.4,0.3-0.5l0.1-0.2
			c0,0,0,0.1-0.1,0.2s-0.1,0.4-0.2,0.6l-0.3,0.8l-0.3,1c-0.1,0.2-0.1,0.3-0.1,0.5s-0.1,0.3-0.1,0.5s-0.1,0.3-0.1,0.4s0,0.3-0.1,0.4
			s-0.1,0.2-0.1,0.3s0,0.2,0,0.3S139.9,22.9,139.9,22.9z"/>
		<path class="st20" d="M140.9,23.1h0.1c0.1,0,0.2,0,0.4-0.1l0.2,0l0.3-0.1c0.2,0,0.4-0.1,0.5-0.2c0.3-0.1,0.7-0.2,1.1-0.3
			c0.2,0,0.3-0.1,0.5-0.1l-0.4,0.2l-0.5,0.2c-0.1,0-0.2,0.1-0.3,0.1l-0.3,0.1c-0.2,0.1-0.4,0.1-0.6,0.1c-0.2,0-0.4,0-0.5,0
			c-0.1,0-0.2,0-0.4,0L140.9,23.1z"/>
		<path class="st21" d="M141.3,22.9c-0.2-0.4-0.4-0.7-0.7-1c-0.4,1.1-1,2.1-1.9,3c-1.7,1.9-4,3.2-6.4,3.8c-0.9,0.2-1.9,0.3-2.9,0.1
			c0.4,0.5,1,1.1,1.5,1.6c1.7-0.2,3.4-0.7,5-1.5C138.4,27.5,140.2,25.4,141.3,22.9z"/>
		<path class="st22" d="M132.4,28.6c2.5-0.6,4.8-1.9,6.5-3.8c0.8-0.9,1.5-1.9,1.9-3c-0.6-0.9-1.2-1.6-1.5-2.3
			c-0.2,0.5-0.3,1-0.6,1.5c-0.8,1.6-2,2.9-3.4,3.9c-1.4,0.9-3,1.4-4.6,1.6c-1,0.1-1.9,0.1-2.9-0.2c0.1,0.3,0.3,0.5,0.4,0.7
			c0.4,0.6,0.9,1.2,1.4,1.8C130.4,28.9,131.4,28.9,132.4,28.6z"/>
		<path class="st22" d="M142.2,24.4c-0.3-0.5-0.6-1-0.9-1.5c-1.1,2.5-3,4.6-5.4,5.9c-1.6,0.8-3.3,1.3-5,1.5c0.5,0.5,1,1,1.5,1.4
			c1.9-0.2,3.8-0.9,5.5-1.8C139.9,28.6,141.4,26.6,142.2,24.4z"/>
		<path class="st23" d="M130.6,26.4c1.6-0.1,3.2-0.6,4.6-1.5c1.4-1,2.6-2.3,3.4-3.8c0.2-0.5,0.4-1,0.6-1.5l-0.1-0.1
			c-1.3-2.4-2.8-4.3-5.7-4.9c-2.9-0.5-5.7,1.2-6.6,3.9c-0.8,2.3-0.3,5.3,1,7.6C128.6,26.5,129.6,26.6,130.6,26.4z"/>
		<path class="st22" d="M147.4,36.8l-4.5-5.6l0.1-0.2c-0.6,0.7-1.3,1.3-2,1.8l0.3-0.2C141.2,32.6,145.8,35.8,147.4,36.8z"/>
		<path class="st21" d="M143.1,26.6c-0.2-0.8-0.5-1.5-0.9-2.2c-0.8,2.3-2.3,4.2-4.3,5.5c-1.7,1-3.5,1.6-5.4,1.8
			c0.7,0.6,1.4,1.1,2.2,1.6c1.3-0.3,2.6-0.8,3.9-1.4C140.7,30.8,142.3,28.9,143.1,26.6z"/>
		<path class="st22" d="M142.9,30.9c0.5-1.4,0.5-2.9,0.1-4.4c-0.7,2.3-2.3,4.2-4.5,5.3c-1.2,0.7-2.5,1.1-3.9,1.5
			c0.2,0.1,0.4,0.2,0.6,0.3c2.3,0.9,4.9-0.3,5.7-0.8C141.7,32.2,142.3,31.6,142.9,30.9z"/>
		<path class="st22" d="M129.8,21.7l0.1,0.2c0,0.1,0.1,0.1,0.1,0.2c0.1,0.1,0.1,0.2,0.2,0.3c0.1,0.1,0.2,0.2,0.3,0.2
			c0.1,0,0.3,0,0.4,0c0.2,0,0.3,0,0.5-0.1c0.2,0,0.3-0.1,0.5-0.1c0.2-0.1,0.3-0.1,0.4-0.2c0.1-0.1,0.2-0.2,0.3-0.3
			c0.1-0.1,0.2-0.2,0.3-0.4c0.1-0.1,0.1-0.2,0.2-0.4c0-0.1,0.1-0.2,0.1-0.3c0-0.1,0-0.2,0.1-0.3s0-0.2,0-0.2s0,0.1,0,0.2v0.3
			c0,0.1,0,0.2-0.1,0.4c-0.1,0.3-0.2,0.6-0.4,0.9c-0.1,0.1-0.2,0.3-0.4,0.4c-0.2,0.1-0.3,0.2-0.5,0.3c-0.2,0.1-0.4,0.1-0.6,0.1
			c-0.2,0-0.4,0.1-0.6,0.1c-0.2,0-0.4,0-0.5-0.1c-0.2-0.1-0.3-0.2-0.4-0.3c-0.1-0.1-0.1-0.2-0.2-0.3c0-0.1-0.1-0.2-0.1-0.3
			C129.8,21.8,129.8,21.7,129.8,21.7z"/>
		<path class="st24" d="M129.7,18.7c-0.2,0.3-0.2,0.8,0.1,1.1c0.5,0.3,0.4-0.9,0.1-1S129.7,18.6,129.7,18.7z"/>
		<path class="st25" d="M126.5,20.9c0.1-0.8,0.7-1.6,1.5-1c0.6,0.7,0.6,1.8-0.1,2.5C127,23.3,126.4,22,126.5,20.9z"/>
		<path class="st25" d="M135.9,17.6c-0.5,0.2-0.9,0.6-1,1.1c-0.2,0.6,0.1,1.3,0.7,1.5c0.2,0.1,0.4,0.1,0.6,0
			c0.7-0.1,1.2-0.6,1.3-1.3c0.1-0.4,0-0.8-0.3-1.1C136.9,17.5,136.3,17.4,135.9,17.6z"/>
		<path class="st24" d="M132.2,18.1c-0.1,0.2-0.1,0.4-0.1,0.6c0,0.2,0.1,0.4,0.3,0.4s0.2-0.3,0.2-0.4c0-0.2-0.1-0.4-0.2-0.6
			C132.4,18,132.3,18,132.2,18.1C132.2,18.1,132.2,18.1,132.2,18.1z"/>
		<path class="st24" d="M131.7,13.8c-0.1,0-0.2,0-0.2,0.2c0,0.1,0.1,0.3,0.2,0.4c0.2,0.2,0.5,0.4,0.8,0.5c0.3,0.1,0.2-0.3,0.2-0.4
			C132.5,14.1,132.1,13.8,131.7,13.8z"/>
		<path class="st24" d="M128.8,14.5L128.8,14.5c-0.1,0.1-0.2,0.2-0.2,0.3c-0.1,0.2-0.2,0.4-0.2,0.7c0,0.2-0.1,0.6,0.3,0.5
			s0.4-0.6,0.5-0.9s0.2-0.4,0.1-0.5S129,14.4,128.8,14.5z"/>
		<path class="st26" d="M182.7,154.2c-0.9-3.5-2.3-9.9-3.9-11.3c-1-0.9-1.5-0.2-1.4,0.9S182.7,154.2,182.7,154.2z"/>
		<path class="st26" d="M199.9,189c-1,3-1.9,9.3-3.4,11.1c-1.2,1.5-2.2,0.6-1.9-0.8c0.5-3,2.9-5.5,4.2-8.2L199.9,189z"/>
		<path class="st26" d="M206.4,200.5c-1,1.1-9.5,5.5-11.3,4.7c-1.3-0.6-0.4-1.2,0.6-1.6C198.6,202.4,206.4,200.5,206.4,200.5z"/>
		<path class="st26" d="M168.8,162.8c-0.2-0.9-8.3-7.6-11.5-8.1c-2.1-0.4-0.9,1.1,0,1.9C159.7,158.7,168.8,162.8,168.8,162.8z"/>
		<path class="st27" d="M169.3,166.6c-0.3,0.2,0.7,3.9,0.9,4.8c0.5,3.2,0.8,7.4,1.1,10.6c0.6,7,0.9,12.7,0.9,19.8
			c-0.1,12.2-1.6,40.6-2.7,52.7c-0.4,3.9,0,3.9-0.9,7.8c3.2-0.2,3.4-1.1,3.7-4.5c0.9-8.5,1.6-22.2,1.9-31.5
			c0.7-21,1.2-38.5-2.3-61.5L169.3,166.6z"/>
		<path class="st28" d="M170.2,172.1c3.6,8.7,8.1,14.8,17.1,11.6c3.7-1.4,7.1-3.7,7.1-7.7c-0.4-3.9-1.7-7.7-3.9-10.9
			c6.3,6.9,18.7,7.5,22.1,1.1c5.8-10.8-2.3-17.4-10.4-19.1c6.9-0.5,8.9-1,11.7-3.4c1.4-1.2,2.5-2.7,3.1-4.4
			c1.3-3.2,0.8-7.5-2.3-12.1c-1.9-2.8-3.7-4-7.4-4.4c-7.6-0.9-12.2,7.4-14.4,9.9c9-12.8,3.8-20-4.3-21.3
			c-7.5-1.3-15.6,4.9-15.9,18.1c-0.8-4.7-0.8-10.6-4.6-13.9c-3.1-2.8-9.2-4.3-13.7-2.3c-4.1,1.8-7.2,7.4-6.8,11.3
			c0.3,2.6,0.7,4.8,2.4,7c1.2,1.3,3,3.8,4.4,5.1c-3-2.9-7.7-6.7-12.1-7.8c-3.5-0.9-7.7-1-11.1,3.4c-1.4,1.8-3.8,7.1,1.1,12.5
			c2.6,2.9,9.7,3.1,12.4,3.5c-3.8-0.6-10.3-0.9-13.8,0.6c-3.8,1.6-6.4,5.9-5.3,11.4c0.6,3,4.6,8.2,10.1,8.1
			c5.1-0.1,10.1-2.1,14.2-4.5c-3.9,3.5-6.6,8.2-4.9,12.7c0.9,2.6,3.3,4.7,5.7,6.1c4.5,2.8,10.2,0.5,14-2.4c1.8-1.3,3.2-3,4.2-4.9
			c0.6-1.3,1-2.4,1.5-3.2C170.3,172.1,170.3,172.3,170.2,172.1z"/>
		<path class="st26" d="M164.2,134.1c-0.5-0.9-2.7-3.4-3.8-5.1c-1.3-2-3.6-5.6-2.8-6.5c1-0.4,1.9,0.4,2.8,1.8
			C162.3,126.9,164.2,134.1,164.2,134.1z"/>
		<path class="st26" d="M150.8,143.9c-1.7-0.1-9.3-2.7-10.4-3.8c-0.9-0.8-1.4-2.3,0.3-2.2c1.2,0.1,2.5,1.2,3.5,1.8
			C146,140.7,150.8,143.9,150.8,143.9z"/>
		<path class="st26" d="M137.9,156.7c-1.4,0.9-1.4,1.9,0.5,2c3.4,0.2,8.5-3.3,11.4-4.9C149.8,153.8,140.2,155.2,137.9,156.7z"/>
		<path class="st26" d="M161.8,163.6c-1.8,2.1-6,7.2-5.9,9.3c0.1,1.2,0.8,1.8,1.8,0.7c0.6-0.8,1.1-1.7,1.4-2.7
			C159.6,169.4,161.8,163.6,161.8,163.6z"/>
		<path class="st29" d="M200.3,146.5c1.2,10.4-9.9,20-24.8,21.5c-14.9,1.5-27.9-5.7-29.1-16c-1.2-10.3,9.9-20,24.8-21.5
			S199.2,136.1,200.3,146.5z"/>
		<path class="st26" d="M3.1,234.7c0.8-3,2-8.5,3.3-9.7c0.8-0.8,1.3-0.1,1.2,0.8C7.5,226.7,3.1,234.7,3.1,234.7z"/>
		<path class="st26" d="M15.1,242c0.2-0.8,7.1-6.5,9.9-7c1.8-0.3,0.8,0.9,0,1.6C22.8,238.5,15.1,242,15.1,242z"/>
		<g class="st10">
			<path class="st19" d="M108.9,139.9c-3.1-0.9-6.2-6.4-4.9-9.6c1.1-3,4.5-4.5,7.5-3.4c0.1,0,0.2,0.1,0.3,0.1
				c4.2,1.6,2,8.5,0.6,11.3L108.9,139.9z"/>
		</g>
		<path class="st20" d="M111.1,140.1l-0.1-0.3c-0.1-0.2-0.2-0.5-0.3-0.8l-0.2-0.6c0-0.2-0.1-0.4-0.2-0.6c-0.1-0.4-0.2-0.9-0.3-1.4
			c-0.2-1-0.3-2-0.3-2.7c0-0.4,0-0.7,0-0.9c0-0.2,0-0.3,0-0.3s0,0.1,0.1,0.3c0.1,0.2,0.1,0.5,0.2,0.9c0.1,0.4,0.2,0.8,0.3,1.2
			c0.1,0.5,0.2,0.9,0.3,1.4c0.1,0.5,0.2,1,0.3,1.4c0,0.2,0.1,0.4,0.1,0.6s0.1,0.4,0.1,0.6c0.1,0.4,0.1,0.7,0.2,0.9
			C111.1,140,111.1,140.1,111.1,140.1z"/>
		<g class="st10">
			<path class="st19" d="M108,142.4c-1.2,0.8-5.4-0.3-6.4-1.1c-2.2-1.6-2.7-6-1.4-8.3c1.8-2.8,5.2-3.4,7.2-0.9
				c1.1,1.2,2,2.7,2.6,4.3c0.4,1.4,1.2,3.3,0.4,4.7L108,142.4z"/>
		</g>
		<path class="st20" d="M103.2,137.5l0.3,0.1l0.9,0.4c0.7,0.3,1.7,0.8,2.6,1.2s1.9,1,2.6,1.4l0.8,0.5l0.3,0.2l-0.3-0.1
			c-0.2-0.1-0.5-0.2-0.9-0.4c-0.7-0.3-1.7-0.8-2.6-1.3c-0.9-0.5-1.9-1-2.6-1.4l-0.8-0.5L103.2,137.5z"/>
		<path class="st22" d="M103.1,153.3c-2.3,2.3-4.2,4.9-7.2,8l0,0c1.1-1.1,7.3-5.3,9-6.3L103.1,153.3z"/>
		<path class="st22" d="M101.7,147.1l-0.1,0.2c-0.6,1.6-0.7,3.4-0.3,5.1c0.1,0.8,0.4,1.5,0.9,2.2c1.5,2.2,4.1,3.3,6.7,2.9
			C104.8,155.7,102,151.7,101.7,147.1z"/>
		<path class="st21" d="M103.8,143.7c-0.9,1-1.6,2.2-2.1,3.4c0.3,4.5,3.1,8.5,7.2,10.4c0.6-0.1,1.1-0.2,1.6-0.4
			c0.6-0.2,1.2-0.4,1.8-0.6C107.1,155,103.8,149.1,103.8,143.7z"/>
		<path class="st22" d="M112.4,146.5c-1.6-4.7-1-6.7-0.3-9.3c-0.8,0.5-1.7,1.1-2.5,1.6c-0.1,1-0.2,2.4-0.3,3.9
			c-0.2,5.3,3.3,9.5,8,11.3c1.3-0.7,2.5-1.4,3.7-2.3C117.3,151.5,113.6,150,112.4,146.5z"/>
		<path class="st22" d="M108.1,150.1c-1.4-2.6-2.1-5.5-2.2-8.5c-0.7,0.6-1.4,1.3-2,2.1c0,5.3,3.3,11.2,8.5,12.8
			c0.8-0.4,1.7-0.7,2.5-1.1C112,154.5,109.6,152.7,108.1,150.1z"/>
		<path class="st21" d="M109.3,142.8c0.1-1.6,0.2-2.9,0.3-3.9l-1.1,0.7c-0.9,0.6-1.8,1.3-2.6,2c0.1,3,0.9,5.8,2.2,8.5
			c1.5,2.5,3.9,4.4,6.7,5.3l1.7-0.9c0.3-0.1,0.6-0.3,0.8-0.4C112.7,152.3,109.2,148.1,109.3,142.8z"/>
		<path class="st25" d="M128.2,140.4c-1-0.1-1.9,0.5-2.2,1.4c-0.5,1.3-0.1,2.7,0.9,3.7c0.3-0.5,0.5-1,0.7-1.5
			C128.1,142.9,128.3,141.6,128.2,140.4z"/>
		<path class="st23" d="M126,141.8c0.3-0.9,1.2-1.5,2.2-1.4c-0.1-2.2-1.2-4.3-2.9-5.6c-2-1.3-4.6-1.6-6.9-0.9
			c-2.1,0.7-4.1,1.8-5.9,3.1c-0.1,0.1-0.3,0.2-0.4,0.2c-0.7,2.5-1.3,4.6,0.3,9.3c1.2,3.5,4.9,5,8.7,5.3c2.4-1.6,4.5-3.8,5.9-6.3
			C125.9,144.6,125.6,143.1,126,141.8z"/>
		<path class="st25" d="M113.8,139.6c1.1-0.6,3.1,0.8,3.2,2c0,1.2-1.1,2.2-2.3,2.1c-0.4,0-0.7-0.1-1-0.3c-0.5-0.3-0.9-0.9-1-1.5
			C112.5,141,113,140.1,113.8,139.6z"/>
		<path class="st22" d="M118.7,143.6c0,0,0,0.1,0.1,0.3c0,0.1,0.1,0.2,0.2,0.4c0.1,0.1,0.2,0.3,0.3,0.4c0.1,0.2,0.2,0.3,0.4,0.5
			c0.1,0.2,0.3,0.3,0.5,0.5l0.3,0.2c0.1,0.1,0.2,0.1,0.3,0.1c0.2,0.1,0.5,0.1,0.7,0.2c0.2,0,0.5,0,0.7,0c0.2,0,0.5,0,0.7-0.1
			c0.2-0.1,0.4-0.1,0.6-0.2c0.1,0,0.2-0.1,0.3-0.1c0.1,0,0.2-0.1,0.2-0.2c0.1-0.1,0.2-0.2,0.3-0.4c0.1-0.1,0.2-0.2,0.2-0.3
			c0-0.1,0.1-0.3,0.1-0.3s0,0.1,0,0.4c0,0.1-0.1,0.3-0.1,0.4c-0.1,0.2-0.2,0.3-0.3,0.5c-0.1,0.1-0.1,0.2-0.2,0.2
			c-0.1,0.1-0.2,0.1-0.3,0.2c-0.2,0.1-0.4,0.2-0.7,0.3c-0.3,0.1-0.5,0.1-0.8,0.1c-0.3,0-0.5,0-0.8,0c-0.3,0-0.5-0.1-0.8-0.2
			c-0.1-0.1-0.3-0.1-0.4-0.2l-0.4-0.2c-0.2-0.2-0.3-0.3-0.5-0.5c-0.2-0.3-0.4-0.6-0.5-1c0-0.2-0.1-0.3-0.1-0.4
			C118.7,143.8,118.7,143.6,118.7,143.6z"/>
		<path class="st24" d="M120.4,133.2c-0.3-0.1-0.6-0.1-0.9,0.1c-0.3,0.2-0.6,0.5-0.8,0.8c-0.3,0.6,0.1,0.6,0.6,0.4
			c0.4-0.2,0.8-0.5,1.1-0.8C120.7,133.4,120.6,133.3,120.4,133.2z"/>
		<path class="st24" d="M124.7,133.7c-0.4-0.1-0.3,0.4-0.3,0.6c0.1,0.2,0.9,1.6,1.4,1.1c0.5-0.5-0.5-1.6-1-1.7L124.7,133.7z"/>
		<path class="st24" d="M120.6,138.8c-0.1,0-0.1,0-0.2,0c-0.6,0.1-0.6,1.1-0.5,1.6s0.4,0.9,0.9,0.3
			C121,140.5,121.5,138.9,120.6,138.8z"/>
		<path class="st24" d="M124.4,139.1c0.1,0,0.1,0,0.2,0c0.4,0.1,0.4,1.2,0.3,1.6c-0.1,0.4-0.6,0.8-0.9,0.2
			C123.8,140.7,123.8,139.1,124.4,139.1z"/>
	</g>
</g>
<path class="st30" d="M126.6,32c0,14.2-16.5,25.7-36.9,25.7S52.8,46.2,52.8,32S69.3,6.3,89.7,6.3S126.6,17.8,126.6,32z"/>
<path class="st31" d="M61.4,25.2c0.9,0.1,1.5-0.2,2.5,0c0,0.8,0.1,1.5,0.3,2.3c0.1,0.5,0.7,0.8,1.1,0.6c0.2-0.1,0.3-0.2,0.5-0.3
	c1.4-1.5-0.5-2.8-1.5-3.7c-2.8-2.5-2-5.6-0.4-7.6c1.2-1.6,4.1-2.1,5.4-0.2c0.8,1.4,1.1,3.1,0.7,4.8c-0.7,0-2.7-0.5-2.6-0.2
	s0.3-2.1-0.5-2.5c-0.6-0.3-1.4-0.1-1.7,0.6c0,0,0,0.1,0,0.1c-0.6,1.1-0.4,2.5,0.4,3.4c0.8,1,2.4,1.5,3.1,2.5
	c0.6,1.1,0.7,2.4,0.3,3.6c-0.8,2-3,3-5,2.2c-0.2-0.1-0.3-0.1-0.5-0.2c-1.6-0.9-1.9-2.5-1.9-4.1L61.4,25.2z"/>
<path class="st31" d="M75.5,19.6c-0.1-0.5,0-1.3,0-2c-1.1,0-2.1,0.1-3.2,0.3c-0.1,5,0,9.7,0,15.5l3.5-0.2c0-1.2,0.2-1.8,0-4.8
	c3.6-1,4.3-1.8,4.7-4.7C80.7,21.6,78.8,18.5,75.5,19.6z M78.4,24.8c-0.3,0.5-0.6,0.6-1.1,0.9c-0.5,0.1-0.9,0.3-1.4,0.4
	c-0.1-0.8-0.1-4-0.1-4c0.4-0.1,0.9,0,1.3,0.1c0.6,0.2,0.9,0.2,1.2,0.8C78.6,23.4,78.6,24.1,78.4,24.8z"/>
<path class="st31" d="M81.2,17.1c0.8-0.3,1.7-0.5,2.6-0.6c0.2,1,0,2.1,0.2,3.1c0.5-1.1,1.6-1.7,2.8-1.7c1-0.1,2,0.4,2.6,1.3
	c-0.3,0.3-0.5,0.6-0.7,1c-0.2,0.3-0.3,0.7-0.5,1c-1.1-0.5-2.4-0.6-3.1,0.9c-0.6,1.4-0.4,2.9-0.3,4.3c0,1.1,0.1,2.1,0.3,3.2
	c-1.1,0.2-1.8,0.4-2.8,0.6L81.2,17.1z"/>
<path class="st31" d="M90.4,19.8c0,2.7,0.2,8.3,0.2,9.4l0,0c1-0.2,3-0.8,3.1-0.8s-0.9-7.4-1-9.8L90.4,19.8z"/>
<path class="st31" d="M94.8,17c0.1,2.4,0.4,11.1,0.5,12.5l0,0c0.8-0.1,1.6-0.4,2.4-0.6c0,0-0.2-3.5-0.2-5.3c0-0.9,0.3-3,1.6-2.4
	c1.6,0.7,1.3,5.8,1.3,7.8c0.8-0.2,1.6-0.2,2.4-0.2c0.1-2.7,0-5.5-0.3-8.2c-0.2-1.3-0.8-2.4-2.3-2.6c-1.1-0.2-2.2,0.4-2.7,1.5
	c0-1,0.1-1.9,0.1-2.9L94.8,17z"/>
<path class="st31" d="M113.1,15.8c-0.4,0-2.3,0.3-2.3,0.3c0.1,0.6,0.1,1.2,0,1.8c-1.1-0.6-2.4-0.7-3.7-0.3c-1.5,0.4-2.6,1.5-3.1,3
	c-0.2,0.7-0.2,1.4-0.2,2.1c0.1,1.5,0.9,2.9,2.2,3.7c1.5,0.7,3.3,0.6,4.7-0.3c0.3,1.2,0,4.1-1.8,4.7c-1.4,0.4-2.9-0.4-3.3-1.8
	c0-0.2-0.1-0.3-0.1-0.5c-0.8,0.1-1.5,0.3-2.2,0.5c0.2,1.5,1.1,2.8,2.4,3.5c1.9,0.9,4.1,0.5,5.6-1c1.5-1.6,1.5-4.2,1.6-6.2
	C113.2,23.7,113.2,17.3,113.1,15.8z M109.2,23.9c-0.7,0.5-1.7,0.4-2.3-0.2c-0.3-0.4-0.4-0.9-0.5-1.3c0-0.3,0-0.7,0.2-1
	c0.2-0.5,0.7-0.9,1.3-1c0.6-0.1,1.2,0.1,1.7,0.4c0.7,0.5,0.6,1.1,0.6,1.9C110.2,23.2,109.7,23.6,109.2,23.9z"/>
<path class="st9" d="M87.9,13.6c-0.8-0.3-0.5-2,0.4-2.3c0.8-0.3,1.7,0,2,0.8c0.2-1.2,1.5-1.5,2.5-0.7s0.2,1.6-0.3,2.4
	c1.6-0.2,1.7,1.4,1.5,2.1c-0.3,1.1-1.9,2-2.9,1.1c-0.4,1-1.5,1.4-2.4,1c0,0,0,0-0.1,0c-0.6-0.2-0.9-0.9-0.6-1.5
	c0.1-0.1,0.1-0.2,0.2-0.4c-1.7,0.6-2.9-1.7-1-2.3L87.9,13.6z"/>
<path class="st32" d="M89.7,13.2l-0.4,0.2c-0.3,0.2-0.4,0.5-0.5,0.8c-0.2,0.7,0.2,1.5,0.9,1.8c0,0,0.1,0,0.1,0
	c0.9,0.1,1.7-0.3,2.1-1.1c0.3-0.7-0.3-1.4-0.8-1.8C90.7,12.9,90.1,12.9,89.7,13.2z"/>
<path class="st31" d="M105.3,35c1-0.4,2-0.7,2.9-1.1c0.3,1.9,1.1,3.8,1.3,5.6c1-1.9,1.8-3.9,2.6-6c0.7,0.2,1.3,0.3,2,0.6
	c0.2,0.2-5.3,13.7-5.4,13.8c-1,0.1-2.1,0-3.1-0.2c0.6-1.4,2-5.7,2.4-6.5L105.3,35z"/>
<path class="st31" d="M92.6,33.6c0,1,0,1.9,0.1,3.6l0,0c1.2-0.1,2.4-0.1,3.6,0c0.2,1.1,0.6,9.9,0.8,12.3c1.2-0.1,1.7-0.3,2.6-0.4
	c0.1-0.7-1-12-0.9-12c1.5-0.1,3.6-0.2,3.7-0.2c0-0.8,0-2.5,0-3.3L92.6,33.6z"/>
<path class="st31" d="M90,42.6c0-0.2,0.1-0.2,0.4-0.5c0.7-0.9,1.1-2,1.1-3.1c0-1.3-0.7-2.6-1.8-3.3c-1.8-1.3-4.6-1-6.6-0.9l1.3,14.8
	c0.8,0.1,1.6,0.1,2.4,0c-0.1-2-0.3-4.6-0.5-6c0.5-0.1,1-0.2,1.4-0.3c0.8,2,1.5,3.9,2.4,5.8c0.7-0.4,1.5-0.6,2.3-0.8
	C91.8,46.7,90,42.7,90,42.6z M86.1,41.3l-0.6-4.2c0.6-0.1,1.2-0.1,1.8-0.1c0.7,0.3,1.3,0.9,1.4,1.7C88.9,40.2,87.6,40.9,86.1,41.3z"
	/>
<path class="st31" d="M72.1,38.1c-0.3-1.9-2.3-3-4-2.9s-3.2,0.6-4.6,0.7L66,50.4c0.8-0.1,1.7-0.3,2.5-0.6c-0.1-0.8-0.3-1.7-0.4-2.5
	c-0.2-1.2-0.2-1.8-0.7-3.7C71.7,42.1,72.5,41,72.1,38.1z M67.4,40.6l-0.6-2.9c0.8-0.2,2.3-0.1,2.5,0.8c0.1,1-0.6,1.9-1.6,2
	C67.5,40.6,67.4,40.6,67.4,40.6z"/>
<path class="st31" d="M78.1,34.7c-0.5,0.7-4.4,12.9-4.9,15.1l3,0.2c0.1-1.1,0.2-2.1,0.5-3.1c0.8-0.1,1.5-0.1,2.3-0.1
	c0,0,0.5,2.8,0.7,3.5c1-0.1,2-0.3,3-0.4C81.8,47,78.7,35.4,78.1,34.7z M76.8,44.2c0.2-1.5,0.6-3.1,1.1-4.5c0.1,0.9,0.6,4,0.7,4.5
	L76.8,44.2z"/>
</svg>
