<svg id="OBJECTS" xmlns="http://www.w3.org/2000/svg" viewBox="0 0 180 240"><defs><style>.cls-1{fill:#bde872;}.cls-2,.cls-5{fill:none;stroke-miterlimit:10;}.cls-2{stroke:#fff;stroke-width:1.22px;}.cls-3{fill:#3d931d;}.cls-4{fill:#187208;}.cls-5{stroke:#4450a0;stroke-width:0.61px;}.cls-6{fill:#ff9ffb;}.cls-7{fill:#6e4946;}.cls-8{fill:#484dcd;}.cls-9{fill:#5854ff;}.cls-10{fill:#908bff;}.cls-11{opacity:0.8;}.cls-12{fill:#f5f9f2;}.cls-13{fill:#98d3d2;}.cls-14{fill:#4d3729;}.cls-15{fill:#faaf1e;}.cls-16{fill:#f395a0;}.cls-17{fill:#ffc947;}.cls-18{fill:#221e1f;}.cls-19{fill:#fff;}.cls-20{fill:#fcca24;}</style></defs><rect class="cls-1" width="180" height="240"/><line class="cls-2" x1="9.77" y1="176.03" x2="9.77" y2="64.23"/><line class="cls-2" x1="114.05" y1="231.11" x2="65.49" y2="231.11"/><line class="cls-2" x1="170.53" y1="65.05" x2="170.53" y2="174.8"/><line class="cls-2" x1="68.2" y1="9.08" x2="113.56" y2="9.08"/><path class="cls-3" d="M128.05,12.33a6.37,6.37,0,0,1,4.14-.54,5.68,5.68,0,0,1-2.26,3.32,6.44,6.44,0,0,1-4.15.53A5.68,5.68,0,0,1,128.05,12.33Z"/><path class="cls-3" d="M135.42,13.56a7.18,7.18,0,0,1,4.45-1.46,6.27,6.27,0,0,1-1.72,4.14,7.13,7.13,0,0,1-4.45,1.45A6.23,6.23,0,0,1,135.42,13.56Z"/><path class="cls-3" d="M142.94,14.57c1.22-2.32,4.27-3.25,4.27-3.25a7.13,7.13,0,0,1-.16,5.17c-1.23,2.32-4.27,3.25-4.27,3.25A7.13,7.13,0,0,1,142.94,14.57Z"/><path class="cls-3" d="M152.07,14c.87-2.47,3.75-3.78,3.75-3.78a7.14,7.14,0,0,1,.6,5.14c-.87,2.46-3.75,3.77-3.75,3.77A7.11,7.11,0,0,1,152.07,14Z"/><path class="cls-4" d="M128.41,9.57a6.24,6.24,0,0,0,3.78,1.67,5.45,5.45,0,0,0-1.12-3.8,6.24,6.24,0,0,0-3.78-1.67A5.45,5.45,0,0,0,128.41,9.57Z"/><path class="cls-4" d="M136.81,10.35a7.11,7.11,0,0,0,4.43,1.5,6.22,6.22,0,0,0-1.68-4.15,7.11,7.11,0,0,0-4.43-1.5A6.22,6.22,0,0,0,136.81,10.35Z"/><path class="cls-4" d="M144.84,9.11a8.19,8.19,0,0,0,4.86,2.39,7.14,7.14,0,0,0-1.24-5,8.15,8.15,0,0,0-4.86-2.38A7.12,7.12,0,0,0,144.84,9.11Z"/><path class="cls-4" d="M153.79,8A8.31,8.31,0,0,0,159,9.7a7.24,7.24,0,0,0-2-4.82,8.35,8.35,0,0,0-5.17-1.74A7.26,7.26,0,0,0,153.79,8Z"/><path class="cls-4" d="M162.72,5.8a8.42,8.42,0,0,0,5.38,1,7.4,7.4,0,0,0-2.7-4.5,8.42,8.42,0,0,0-5.38-1A7.4,7.4,0,0,0,162.72,5.8Z"/><path class="cls-3" d="M121.64,7.83a6.76,6.76,0,0,1,3.81,2.6,7.16,7.16,0,0,1-4.58,1,6.84,6.84,0,0,1-3.81-2.61A7.11,7.11,0,0,1,121.64,7.83Z"/><path class="cls-3" d="M123.37,10a85.12,85.12,0,0,0,12.29,1.29A88.45,88.45,0,0,0,148,10.93a84.35,84.35,0,0,0,12.12-2A104.35,104.35,0,0,0,171.91,5.4c-.92.47-1.85.92-2.79,1.36A30.17,30.17,0,0,1,166.27,8l-2.92,1.1c-1,.39-2,.62-3,.93-2,.65-4,1-6.08,1.47-1,.21-2.06.32-3.09.48l-1.55.23-1.56.14c-1,.07-2.08.2-3.12.23l-3.13.09c-2.08,0-4.17-.08-6.24-.29A52.85,52.85,0,0,1,123.37,10Z"/><path class="cls-4" d="M166.93,48.75a5.44,5.44,0,0,0,.57-3.91A6.18,6.18,0,0,0,164,47a5.44,5.44,0,0,0-.56,3.9A6.13,6.13,0,0,0,166.93,48.75Z"/><path class="cls-4" d="M165.62,41.79a6.18,6.18,0,0,0,1.55-4.19,7.16,7.16,0,0,0-4.39,1.62,6.24,6.24,0,0,0-1.54,4.2A7.09,7.09,0,0,0,165.62,41.79Z"/><path class="cls-4" d="M164.55,34.71a7.55,7.55,0,0,0,3.45-4,8.39,8.39,0,0,0-5.49.15,7.57,7.57,0,0,0-3.44,4A8.44,8.44,0,0,0,164.55,34.71Z"/><path class="cls-4" d="M165.18,26.1a7.79,7.79,0,0,0,4-3.53,8.4,8.4,0,0,0-5.46-.57,7.74,7.74,0,0,0-4,3.53A8.38,8.38,0,0,0,165.18,26.1Z"/><path class="cls-3" d="M169.86,48.41a5.58,5.58,0,0,1-1.77-3.57,6.4,6.4,0,0,1,4,1,5.59,5.59,0,0,1,1.77,3.58A6.37,6.37,0,0,1,169.86,48.41Z"/><path class="cls-3" d="M169,40.49a6.17,6.17,0,0,1-1.59-4.18,7.12,7.12,0,0,1,4.4,1.58,6.23,6.23,0,0,1,1.59,4.18A7.11,7.11,0,0,1,169,40.49Z"/><path class="cls-3" d="M170.34,32.92a7.37,7.37,0,0,1-2.53-4.59,8.36,8.36,0,0,1,5.34,1.17,7.31,7.31,0,0,1,2.53,4.59A8.36,8.36,0,0,1,170.34,32.92Z"/><path class="cls-3" d="M171.55,24.48a7.24,7.24,0,0,1-1.84-4.87,8.32,8.32,0,0,1,5.12,1.85,7.24,7.24,0,0,1,1.84,4.87A8.25,8.25,0,0,1,171.55,24.48Z"/><path class="cls-3" d="M173.86,16.06A7.12,7.12,0,0,1,172.81,11s3.16.44,4.77,2.54a7.2,7.2,0,0,1,1,5.08S175.46,18.16,173.86,16.06Z"/><path class="cls-4" d="M171.71,54.79a6.53,6.53,0,0,0-2.77-3.59,6.17,6.17,0,0,0-1.1,4.31,6.57,6.57,0,0,0,2.77,3.6A6.2,6.2,0,0,0,171.71,54.79Z"/><path class="cls-3" d="M169.42,53.15a45.38,45.38,0,0,1-2.54-11.53,56,56,0,0,1,.05-11.86,26.79,26.79,0,0,1,.4-3c.17-1,.28-2,.51-2.92a53.27,53.27,0,0,1,1.57-5.73c.33-.94.56-1.9,1-2.8l1.16-2.73c.37-.92.86-1.77,1.32-2.65s.93-1.73,1.42-2.58a91,91,0,0,0-3.78,11.08,70.56,70.56,0,0,0-2.12,11.43A74,74,0,0,0,168,41.54,71.34,71.34,0,0,0,169.42,53.15Z"/><path class="cls-3" d="M52,12.33a6.4,6.4,0,0,0-4.15-.54,5.72,5.72,0,0,0,2.27,3.32,6.41,6.41,0,0,0,4.14.53A5.64,5.64,0,0,0,52,12.33Z"/><path class="cls-3" d="M44.62,13.56a7.17,7.17,0,0,0-4.45-1.46,6.27,6.27,0,0,0,1.72,4.14,7.15,7.15,0,0,0,4.45,1.45A6.23,6.23,0,0,0,44.62,13.56Z"/><path class="cls-3" d="M37.1,14.57c-1.22-2.32-4.26-3.25-4.26-3.25A7.08,7.08,0,0,0,33,16.49c1.22,2.32,4.26,3.25,4.26,3.25A7.08,7.08,0,0,0,37.1,14.57Z"/><path class="cls-3" d="M28,14c-.87-2.47-3.75-3.78-3.75-3.78a7.14,7.14,0,0,0-.6,5.14c.86,2.46,3.74,3.77,3.74,3.77A7.14,7.14,0,0,0,28,14Z"/><path class="cls-4" d="M51.64,9.57a6.28,6.28,0,0,1-3.79,1.67A5.45,5.45,0,0,1,49,7.44a6.26,6.26,0,0,1,3.79-1.67A5.51,5.51,0,0,1,51.64,9.57Z"/><path class="cls-4" d="M43.24,10.35a7.13,7.13,0,0,1-4.43,1.5A6.24,6.24,0,0,1,40.48,7.7a7.13,7.13,0,0,1,4.43-1.5A6.24,6.24,0,0,1,43.24,10.35Z"/><path class="cls-4" d="M35.2,9.11c-1.68,2.05-4.86,2.39-4.86,2.39a7.2,7.2,0,0,1,1.24-5c1.69-2,4.87-2.38,4.87-2.38A7.15,7.15,0,0,1,35.2,9.11Z"/><path class="cls-4" d="M26.25,8A8.27,8.27,0,0,1,21.09,9.7a7.21,7.21,0,0,1,2-4.82,8.35,8.35,0,0,1,5.17-1.74A7.26,7.26,0,0,1,26.25,8Z"/><path class="cls-4" d="M17.32,5.8a8.42,8.42,0,0,1-5.38,1,7.4,7.4,0,0,1,2.7-4.5A8.45,8.45,0,0,1,20,1.3,7.38,7.38,0,0,1,17.32,5.8Z"/><path class="cls-3" d="M58.4,7.83a6.8,6.8,0,0,0-3.81,2.6,7.16,7.16,0,0,0,4.58,1A6.8,6.8,0,0,0,63,8.86,7.11,7.11,0,0,0,58.4,7.83Z"/><path class="cls-3" d="M56.67,10a52.77,52.77,0,0,1-12.21,2.43c-2.08.21-4.16.25-6.25.29l-3.13-.09c-1,0-2.08-.16-3.12-.23l-1.56-.14L28.85,12c-1-.16-2.07-.27-3.09-.48-2-.45-4.09-.82-6.08-1.47-1-.31-2-.54-3-.93L13.78,8a30.17,30.17,0,0,1-2.85-1.27C10,6.32,9.06,5.87,8.13,5.4A105,105,0,0,0,20,9a84.48,84.48,0,0,0,12.13,2,88.37,88.37,0,0,0,12.29.34A84.83,84.83,0,0,0,56.67,10Z"/><path class="cls-4" d="M13.11,48.75a5.44,5.44,0,0,1-.57-3.91A6.18,6.18,0,0,1,16.06,47a5.41,5.41,0,0,1,.57,3.9A6.14,6.14,0,0,1,13.11,48.75Z"/><path class="cls-4" d="M14.42,41.79a6.15,6.15,0,0,1-1.54-4.19,7.14,7.14,0,0,1,4.38,1.62,6.18,6.18,0,0,1,1.54,4.2A7.11,7.11,0,0,1,14.42,41.79Z"/><path class="cls-4" d="M15.49,34.71a7.57,7.57,0,0,1-3.44-4,8.36,8.36,0,0,1,5.48.15,7.57,7.57,0,0,1,3.44,4A8.43,8.43,0,0,1,15.49,34.71Z"/><path class="cls-4" d="M14.86,26.1a7.74,7.74,0,0,1-4-3.53A8.38,8.38,0,0,1,16.31,22a7.74,7.74,0,0,1,4,3.53A8.38,8.38,0,0,1,14.86,26.1Z"/><path class="cls-3" d="M10.18,48.41A5.52,5.52,0,0,0,12,44.84a6.38,6.38,0,0,0-4,1,5.54,5.54,0,0,0-1.77,3.58A6.34,6.34,0,0,0,10.18,48.41Z"/><path class="cls-3" d="M11,40.49a6.23,6.23,0,0,0,1.59-4.18,7.11,7.11,0,0,0-4.4,1.58,6.17,6.17,0,0,0-1.59,4.18A7.12,7.12,0,0,0,11,40.49Z"/><path class="cls-3" d="M9.7,32.92a7.31,7.31,0,0,0,2.53-4.59A8.36,8.36,0,0,0,6.89,29.5a7.37,7.37,0,0,0-2.53,4.59A8.36,8.36,0,0,0,9.7,32.92Z"/><path class="cls-3" d="M8.49,24.48a7.24,7.24,0,0,0,1.84-4.87,8.32,8.32,0,0,0-5.12,1.85,7.24,7.24,0,0,0-1.84,4.87A8.25,8.25,0,0,0,8.49,24.48Z"/><path class="cls-3" d="M6.19,16.06a7.12,7.12,0,0,0,1-5.07s-3.17.44-4.77,2.54a7.14,7.14,0,0,0-1.05,5.08S4.58,18.16,6.19,16.06Z"/><path class="cls-4" d="M8.34,54.79A6.49,6.49,0,0,1,11.1,51.2a6.17,6.17,0,0,1,1.1,4.31,6.52,6.52,0,0,1-2.77,3.6A6.22,6.22,0,0,1,8.34,54.79Z"/><path class="cls-3" d="M10.63,53.15A70.24,70.24,0,0,0,12,41.54a72.83,72.83,0,0,0-.37-11.63A70.56,70.56,0,0,0,9.54,18.48,91,91,0,0,0,5.77,7.4Q6.49,8.68,7.18,10c.46.88,1,1.73,1.33,2.65l1.15,2.73c.41.9.65,1.86,1,2.8a53.23,53.23,0,0,1,1.56,5.73c.24,1,.34,1.95.52,2.92s.32,2,.4,3a56.65,56.65,0,0,1,.05,11.86A45.81,45.81,0,0,1,10.63,53.15Z"/><path class="cls-3" d="M128.05,227.67a6.37,6.37,0,0,0,4.14.54,5.68,5.68,0,0,0-2.26-3.32,6.44,6.44,0,0,0-4.15-.53A5.68,5.68,0,0,0,128.05,227.67Z"/><path class="cls-3" d="M135.42,226.44a7.18,7.18,0,0,0,4.45,1.46,6.27,6.27,0,0,0-1.72-4.14,7.13,7.13,0,0,0-4.45-1.45A6.23,6.23,0,0,0,135.42,226.44Z"/><path class="cls-3" d="M142.94,225.43c1.22,2.32,4.27,3.25,4.27,3.25a7.13,7.13,0,0,0-.16-5.17c-1.23-2.32-4.27-3.25-4.27-3.25A7.13,7.13,0,0,0,142.94,225.43Z"/><path class="cls-3" d="M152.07,226c.87,2.47,3.75,3.78,3.75,3.78a7.14,7.14,0,0,0,.6-5.14c-.87-2.46-3.75-3.77-3.75-3.77A7.11,7.11,0,0,0,152.07,226Z"/><path class="cls-4" d="M128.41,230.43a6.24,6.24,0,0,1,3.78-1.67,5.45,5.45,0,0,1-1.12,3.8,6.24,6.24,0,0,1-3.78,1.67A5.45,5.45,0,0,1,128.41,230.43Z"/><path class="cls-4" d="M136.81,229.65a7.11,7.11,0,0,1,4.43-1.5,6.22,6.22,0,0,1-1.68,4.15,7.11,7.11,0,0,1-4.43,1.5A6.22,6.22,0,0,1,136.81,229.65Z"/><path class="cls-4" d="M144.84,230.89a8.19,8.19,0,0,1,4.86-2.39,7.14,7.14,0,0,1-1.24,5,8.15,8.15,0,0,1-4.86,2.38A7.12,7.12,0,0,1,144.84,230.89Z"/><path class="cls-4" d="M153.79,232A8.31,8.31,0,0,1,159,230.3a7.24,7.24,0,0,1-2,4.82,8.35,8.35,0,0,1-5.17,1.74A7.26,7.26,0,0,1,153.79,232Z"/><path class="cls-4" d="M162.72,234.2a8.42,8.42,0,0,1,5.38-1,7.4,7.4,0,0,1-2.7,4.5,8.42,8.42,0,0,1-5.38,1A7.4,7.4,0,0,1,162.72,234.2Z"/><path class="cls-3" d="M121.64,232.17a6.76,6.76,0,0,0,3.81-2.6,7.16,7.16,0,0,0-4.58-1,6.84,6.84,0,0,0-3.81,2.61A7.11,7.11,0,0,0,121.64,232.17Z"/><path class="cls-3" d="M123.37,230a52.85,52.85,0,0,1,12.22-2.43c2.07-.21,4.16-.25,6.24-.29l3.13.09c1,0,2.08.16,3.12.23l1.56.14,1.55.23c1,.16,2.07.27,3.09.48,2,.45,4.1.82,6.08,1.47,1,.31,2,.54,3,.93l2.92,1.1a30.17,30.17,0,0,1,2.85,1.27c.94.44,1.87.89,2.79,1.36a104.35,104.35,0,0,0-11.84-3.55,84.35,84.35,0,0,0-12.12-2,88.45,88.45,0,0,0-12.29-.34A85.12,85.12,0,0,0,123.37,230Z"/><path class="cls-4" d="M166.93,191.25a5.44,5.44,0,0,1,.57,3.91A6.18,6.18,0,0,1,164,193a5.44,5.44,0,0,1-.56-3.9A6.13,6.13,0,0,1,166.93,191.25Z"/><path class="cls-4" d="M165.62,198.21a6.18,6.18,0,0,1,1.55,4.19,7.16,7.16,0,0,1-4.39-1.62,6.24,6.24,0,0,1-1.54-4.2A7.09,7.09,0,0,1,165.62,198.21Z"/><path class="cls-4" d="M164.55,205.29a7.55,7.55,0,0,1,3.45,4,8.39,8.39,0,0,1-5.49-.15,7.57,7.57,0,0,1-3.44-4A8.44,8.44,0,0,1,164.55,205.29Z"/><path class="cls-4" d="M165.18,213.9a7.79,7.79,0,0,1,4,3.53,8.4,8.4,0,0,1-5.46.57,7.74,7.74,0,0,1-4-3.53A8.38,8.38,0,0,1,165.18,213.9Z"/><path class="cls-3" d="M169.86,191.59a5.58,5.58,0,0,0-1.77,3.57,6.4,6.4,0,0,0,4-1,5.59,5.59,0,0,0,1.77-3.58A6.37,6.37,0,0,0,169.86,191.59Z"/><path class="cls-3" d="M169,199.51a6.17,6.17,0,0,0-1.59,4.18,7.12,7.12,0,0,0,4.4-1.58,6.23,6.23,0,0,0,1.59-4.18A7.11,7.11,0,0,0,169,199.51Z"/><path class="cls-3" d="M170.34,207.08a7.37,7.37,0,0,0-2.53,4.59,8.36,8.36,0,0,0,5.34-1.17,7.31,7.31,0,0,0,2.53-4.59A8.36,8.36,0,0,0,170.34,207.08Z"/><path class="cls-3" d="M171.55,215.52a7.24,7.24,0,0,0-1.84,4.87,8.32,8.32,0,0,0,5.12-1.85,7.24,7.24,0,0,0,1.84-4.87A8.25,8.25,0,0,0,171.55,215.52Z"/><path class="cls-3" d="M173.86,223.94a7.12,7.12,0,0,0-1.05,5.07s3.16-.44,4.77-2.54a7.2,7.2,0,0,0,1-5.08S175.46,221.84,173.86,223.94Z"/><path class="cls-4" d="M171.71,185.21a6.53,6.53,0,0,1-2.77,3.59,6.17,6.17,0,0,1-1.1-4.31,6.57,6.57,0,0,1,2.77-3.6A6.2,6.2,0,0,1,171.71,185.21Z"/><path class="cls-3" d="M169.42,186.85A71.34,71.34,0,0,0,168,198.46a74,74,0,0,0,.37,11.63,70.56,70.56,0,0,0,2.12,11.43,91,91,0,0,0,3.78,11.08c-.49-.85-1-1.71-1.42-2.58s-1-1.73-1.32-2.65l-1.16-2.73c-.41-.9-.64-1.86-1-2.8a53.27,53.27,0,0,1-1.57-5.73c-.23-1-.34-2-.51-2.92a26.79,26.79,0,0,1-.4-2.95,56,56,0,0,1-.05-11.86A45.38,45.38,0,0,1,169.42,186.85Z"/><path class="cls-3" d="M52,227.67a6.4,6.4,0,0,1-4.15.54,5.72,5.72,0,0,1,2.27-3.32,6.41,6.41,0,0,1,4.14-.53A5.64,5.64,0,0,1,52,227.67Z"/><path class="cls-3" d="M44.62,226.44a7.17,7.17,0,0,1-4.45,1.46,6.27,6.27,0,0,1,1.72-4.14,7.15,7.15,0,0,1,4.45-1.45A6.23,6.23,0,0,1,44.62,226.44Z"/><path class="cls-3" d="M37.1,225.43c-1.22,2.32-4.26,3.25-4.26,3.25a7.08,7.08,0,0,1,.16-5.17c1.22-2.32,4.26-3.25,4.26-3.25A7.08,7.08,0,0,1,37.1,225.43Z"/><path class="cls-3" d="M28,226c-.87,2.47-3.75,3.78-3.75,3.78a7.14,7.14,0,0,1-.6-5.14c.86-2.46,3.74-3.77,3.74-3.77A7.14,7.14,0,0,1,28,226Z"/><path class="cls-4" d="M51.64,230.43a6.28,6.28,0,0,0-3.79-1.67,5.45,5.45,0,0,0,1.12,3.8,6.26,6.26,0,0,0,3.79,1.67A5.51,5.51,0,0,0,51.64,230.43Z"/><path class="cls-4" d="M43.24,229.65a7.13,7.13,0,0,0-4.43-1.5,6.24,6.24,0,0,0,1.67,4.15,7.13,7.13,0,0,0,4.43,1.5A6.24,6.24,0,0,0,43.24,229.65Z"/><path class="cls-4" d="M35.2,230.89c-1.68-2-4.86-2.39-4.86-2.39a7.2,7.2,0,0,0,1.24,5c1.69,2.05,4.87,2.38,4.87,2.38A7.15,7.15,0,0,0,35.2,230.89Z"/><path class="cls-4" d="M26.25,232a8.27,8.27,0,0,0-5.16-1.73,7.21,7.21,0,0,0,2,4.82,8.35,8.35,0,0,0,5.17,1.74A7.26,7.26,0,0,0,26.25,232Z"/><path class="cls-4" d="M17.32,234.2a8.42,8.42,0,0,0-5.38-1,7.4,7.4,0,0,0,2.7,4.5,8.45,8.45,0,0,0,5.39,1A7.38,7.38,0,0,0,17.32,234.2Z"/><path class="cls-3" d="M58.4,232.17a6.8,6.8,0,0,1-3.81-2.6,7.16,7.16,0,0,1,4.58-1A6.8,6.8,0,0,1,63,231.14,7.11,7.11,0,0,1,58.4,232.17Z"/><path class="cls-3" d="M56.67,230a84.83,84.83,0,0,0-12.28-1.29,88.37,88.37,0,0,0-12.29.34,84.48,84.48,0,0,0-12.13,2A105,105,0,0,0,8.13,234.6c.93-.47,1.86-.92,2.8-1.36A30.17,30.17,0,0,1,13.78,232l2.92-1.1c1-.39,2-.62,3-.93,2-.65,4-1,6.08-1.47,1-.21,2.06-.32,3.09-.48l1.55-.23,1.56-.14c1-.07,2.08-.2,3.12-.23l3.13-.09c2.09,0,4.17.08,6.25.29A52.77,52.77,0,0,1,56.67,230Z"/><path class="cls-4" d="M13.11,191.25a5.44,5.44,0,0,0-.57,3.91A6.18,6.18,0,0,0,16.06,193a5.41,5.41,0,0,0,.57-3.9A6.14,6.14,0,0,0,13.11,191.25Z"/><path class="cls-4" d="M14.42,198.21a6.15,6.15,0,0,0-1.54,4.19,7.14,7.14,0,0,0,4.38-1.62,6.18,6.18,0,0,0,1.54-4.2A7.11,7.11,0,0,0,14.42,198.21Z"/><path class="cls-4" d="M15.49,205.29a7.57,7.57,0,0,0-3.44,4,8.36,8.36,0,0,0,5.48-.15,7.57,7.57,0,0,0,3.44-4A8.43,8.43,0,0,0,15.49,205.29Z"/><path class="cls-4" d="M14.86,213.9a7.74,7.74,0,0,0-4,3.53,8.38,8.38,0,0,0,5.45.57,7.74,7.74,0,0,0,4-3.53A8.38,8.38,0,0,0,14.86,213.9Z"/><path class="cls-3" d="M10.18,191.59A5.52,5.52,0,0,1,12,195.16a6.38,6.38,0,0,1-4-1,5.54,5.54,0,0,1-1.77-3.58A6.34,6.34,0,0,1,10.18,191.59Z"/><path class="cls-3" d="M11,199.51a6.23,6.23,0,0,1,1.59,4.18,7.11,7.11,0,0,1-4.4-1.58,6.17,6.17,0,0,1-1.59-4.18A7.12,7.12,0,0,1,11,199.51Z"/><path class="cls-3" d="M9.7,207.08a7.31,7.31,0,0,1,2.53,4.59,8.36,8.36,0,0,1-5.34-1.17,7.37,7.37,0,0,1-2.53-4.59A8.36,8.36,0,0,1,9.7,207.08Z"/><path class="cls-3" d="M8.49,215.52a7.24,7.24,0,0,1,1.84,4.87,8.32,8.32,0,0,1-5.12-1.85,7.24,7.24,0,0,1-1.84-4.87A8.25,8.25,0,0,1,8.49,215.52Z"/><path class="cls-3" d="M6.19,223.94a7.12,7.12,0,0,1,1,5.07s-3.17-.44-4.77-2.54a7.14,7.14,0,0,1-1.05-5.08S4.58,221.84,6.19,223.94Z"/><path class="cls-4" d="M8.34,185.21a6.49,6.49,0,0,0,2.76,3.59,6.17,6.17,0,0,0,1.1-4.31,6.52,6.52,0,0,0-2.77-3.6A6.22,6.22,0,0,0,8.34,185.21Z"/><path class="cls-3" d="M10.63,186.85a45.81,45.81,0,0,1,2.54,11.53,56.65,56.65,0,0,1-.05,11.86c-.08,1-.23,2-.4,2.95s-.28,2-.52,2.92a53.23,53.23,0,0,1-1.56,5.73c-.33.94-.57,1.9-1,2.8l-1.15,2.73c-.37.92-.87,1.77-1.33,2.65s-.93,1.73-1.41,2.58a91,91,0,0,0,3.77-11.08,70.56,70.56,0,0,0,2.12-11.43A72.83,72.83,0,0,0,12,198.46,70.24,70.24,0,0,0,10.63,186.85Z"/><path class="cls-5" d="M12,11.08s4.24,2.14,10.38,12.21"/><path class="cls-6" d="M23.39,22.94a1,1,0,0,1-.64,1.3,1.1,1.1,0,0,1-1.38-.6,1,1,0,0,1,.64-1.3A1.1,1.1,0,0,1,23.39,22.94Z"/><path class="cls-7" d="M9.73,12.56a2.46,2.46,0,0,1,0-3.63,2.83,2.83,0,0,1,3.85,0,2.47,2.47,0,0,1,0,3.63A2.85,2.85,0,0,1,9.73,12.56Z"/><path class="cls-8" d="M16.5,9c-2.36-.52-4.68.15-5.18,1.51s1,2.88,3.35,3.41,8.5.69,9-.67C19.78,13,18.85,9.52,16.5,9Z"/><path class="cls-5" d="M13.94,10.2s2.19,4,12.75,10"/><path class="cls-9" d="M12.05,15c-1.66-1.56-2.11-3.67-1-4.72s3.35-.63,5,.93c1.12,1.05,2.42,4,3.15,5.78a.76.76,0,0,1-1,.95C16.29,17.3,13.17,16.09,12.05,15Z"/><path class="cls-5" d="M13.57,13.72s3.19,3.39,5.23,14.84"/><path class="cls-10" d="M9.67,15.47c-.57-2.22.14-4.41,1.57-4.89s3.07.93,3.63,3.15.78,8-.66,8.49C13.94,18.54,10.23,17.69,9.67,15.47Z"/><path class="cls-7" d="M7.52,12.64c.56-1.46,1.83-2.45,2.84-2.22s-.51,1.31-1.07,2.77-.87,5.11-1.88,4.88C8.72,15.89,7,14.09,7.52,12.64Z"/><path class="cls-7" d="M13.41,7.05c-1.54.54-2.59,1.74-2.33,2.69s1.38-.49,2.93-1,5.42-.84,5.16-1.79C16.86,8.17,15,6.52,13.41,7.05Z"/><path class="cls-6" d="M28,20.13a1.08,1.08,0,1,1-1.08-1A1,1,0,0,1,28,20.13Z"/><ellipse class="cls-6" cx="18.8" cy="28.56" rx="1.07" ry="1.01"/><path class="cls-5" d="M168.2,11.47S164,13.61,157.83,23.68"/><path class="cls-6" d="M156.82,23.33a1,1,0,0,0,.64,1.3,1.1,1.1,0,0,0,1.38-.6,1,1,0,0,0-.64-1.3A1.1,1.1,0,0,0,156.82,23.33Z"/><path class="cls-7" d="M170.48,13a2.46,2.46,0,0,0,0-3.63,2.83,2.83,0,0,0-3.85,0,2.47,2.47,0,0,0,0,3.63A2.85,2.85,0,0,0,170.48,13Z"/><path class="cls-8" d="M163.71,9.39c2.36-.52,4.68.15,5.18,1.51s-1,2.88-3.35,3.4-8.5.7-9-.66C160.43,13.4,161.36,9.91,163.71,9.39Z"/><path class="cls-5" d="M166.27,10.59s-2.19,4-12.75,10"/><path class="cls-9" d="M168.16,15.43c1.66-1.56,2.11-3.67,1-4.72s-3.34-.63-5,.93c-1.13,1-2.42,4-3.15,5.78a.76.76,0,0,0,1,.95C163.92,17.69,167,16.48,168.16,15.43Z"/><path class="cls-5" d="M166.64,14.11S163.45,17.5,161.41,29"/><path class="cls-10" d="M170.54,15.86c.57-2.22-.14-4.41-1.58-4.89s-3.06.93-3.62,3.15-.78,8,.66,8.49C166.27,18.93,170,18.08,170.54,15.86Z"/><path class="cls-7" d="M172.69,13c-.56-1.46-1.83-2.45-2.84-2.22s.51,1.31,1.07,2.77.87,5.11,1.88,4.88C171.49,16.28,173.25,14.48,172.69,13Z"/><path class="cls-7" d="M166.8,7.44c1.54.54,2.59,1.74,2.33,2.69s-1.39-.49-2.93-1-5.42-.84-5.16-1.79C163.34,8.56,165.26,6.91,166.8,7.44Z"/><ellipse class="cls-6" cx="153.33" cy="20.52" rx="1.07" ry="1.01"/><ellipse class="cls-6" cx="161.41" cy="28.95" rx="1.07" ry="1.01"/><path class="cls-5" d="M12,228.62s4.24-2.14,10.38-12.21"/><path class="cls-6" d="M23.39,216.76a1,1,0,0,0-.64-1.3,1.11,1.11,0,0,0-1.38.6,1,1,0,0,0,.64,1.3A1.09,1.09,0,0,0,23.39,216.76Z"/><path class="cls-7" d="M9.73,227.15a2.45,2.45,0,0,0,0,3.62,2.83,2.83,0,0,0,3.85,0,2.47,2.47,0,0,0,0-3.63A2.85,2.85,0,0,0,9.73,227.15Z"/><path class="cls-8" d="M16.5,230.7c-2.36.53-4.68-.15-5.18-1.51s1-2.88,3.35-3.4,8.5-.7,9,.66C19.78,226.69,18.85,230.18,16.5,230.7Z"/><path class="cls-5" d="M13.94,229.5s2.19-4,12.75-10"/><path class="cls-9" d="M12.05,224.66c-1.66,1.56-2.11,3.67-1,4.72s3.35.63,5-.93c1.12-1,2.42-4,3.15-5.78a.75.75,0,0,0-1-.94C16.29,222.4,13.17,223.61,12.05,224.66Z"/><path class="cls-5" d="M13.57,226s3.19-3.4,5.23-14.85"/><path class="cls-10" d="M9.67,224.23c-.57,2.22.14,4.41,1.57,4.89s3.07-.92,3.63-3.14.78-8-.66-8.5C13.94,221.16,10.23,222,9.67,224.23Z"/><path class="cls-7" d="M7.52,227.07c.56,1.45,1.83,2.44,2.84,2.21s-.51-1.31-1.07-2.77-.87-5.11-1.88-4.88C8.72,223.82,7,225.61,7.52,227.07Z"/><path class="cls-7" d="M13.41,232.65c-1.54-.54-2.59-1.74-2.33-2.69s1.38.49,2.93,1,5.42.85,5.16,1.79C16.86,231.53,15,233.19,13.41,232.65Z"/><path class="cls-6" d="M28,219.58a1.08,1.08,0,0,0-2.15,0,1.08,1.08,0,0,0,2.15,0Z"/><ellipse class="cls-6" cx="18.8" cy="211.14" rx="1.07" ry="1.01"/><path class="cls-5" d="M168.2,228.23S164,226.09,157.83,216"/><path class="cls-6" d="M156.82,216.37a1,1,0,0,1,.64-1.3,1.11,1.11,0,0,1,1.38.6,1,1,0,0,1-.64,1.3A1.09,1.09,0,0,1,156.82,216.37Z"/><path class="cls-7" d="M170.48,226.76a2.45,2.45,0,0,1,0,3.62,2.83,2.83,0,0,1-3.85,0,2.46,2.46,0,0,1,0-3.62A2.83,2.83,0,0,1,170.48,226.76Z"/><path class="cls-8" d="M163.71,230.31c2.36.53,4.68-.15,5.18-1.51s-1-2.88-3.35-3.4-8.5-.7-9,.66C160.43,226.3,161.36,229.79,163.71,230.31Z"/><path class="cls-5" d="M166.27,229.11s-2.19-4-12.75-10"/><path class="cls-9" d="M168.16,224.27c1.66,1.56,2.11,3.67,1,4.72s-3.34.63-5-.93c-1.13-1.05-2.42-4-3.15-5.78a.75.75,0,0,1,1-.94C163.92,222,167,223.22,168.16,224.27Z"/><path class="cls-5" d="M166.64,225.6s-3.19-3.4-5.23-14.85"/><path class="cls-10" d="M170.54,223.84c.57,2.22-.14,4.41-1.58,4.89s-3.06-.92-3.62-3.14-.78-8,.66-8.5C166.27,220.77,170,221.62,170.54,223.84Z"/><path class="cls-7" d="M172.69,226.68c-.56,1.45-1.83,2.45-2.84,2.21s.51-1.31,1.07-2.77.87-5.11,1.88-4.88C171.49,223.43,173.25,225.22,172.69,226.68Z"/><path class="cls-7" d="M166.8,232.26c1.54-.54,2.59-1.74,2.33-2.69s-1.39.49-2.93,1-5.42.84-5.16,1.78C163.34,231.14,165.26,232.8,166.8,232.26Z"/><ellipse class="cls-6" cx="153.33" cy="219.19" rx="1.07" ry="1.01"/><ellipse class="cls-6" cx="161.41" cy="210.75" rx="1.07" ry="1.01"/><g class="cls-11"><path class="cls-12" d="M136.16,206c-1.89-.56-3.7-3.85-2.94-5.78a3.51,3.51,0,0,1,4.73-1.94c2.5,1,1.19,5.11.33,6.82Z"/></g><path class="cls-13" d="M137.48,206.12l-.08-.19c0-.12-.12-.3-.19-.51s-.08-.21-.12-.33-.07-.26-.1-.39-.13-.57-.19-.86c-.09-.59-.17-1.17-.2-1.62,0-.22,0-.4,0-.53s0-.21,0-.21l.05.2c0,.13.08.31.12.53s.1.47.15.74.11.56.16.85.11.57.15.85c0,.13.05.26.07.39s.05.24.08.35.08.4.11.53S137.48,206.12,137.48,206.12Z"/><g class="cls-11"><path class="cls-12" d="M135.62,207.5c-.73.47-3.23-.21-3.84-.65-1.33-1-1.64-3.63-.83-5,1.06-1.69,3.15-2,4.34-.55a7.59,7.59,0,0,1,1.56,2.57c.25.84.7,2,.26,2.83Z"/></g><path class="cls-13" d="M132.72,204.55l.21.08.53.22c.44.19,1,.46,1.58.75s1.13.59,1.54.84c.2.11.37.22.49.3l.19.12-.21-.08-.53-.23c-.44-.19-1-.46-1.58-.75s-1.13-.59-1.54-.83l-.49-.3Z"/><path class="cls-14" d="M132.64,214.06c-1.36,1.41-2.53,3-4.31,4.79h0c.67-.65,4.39-3.16,5.4-3.8Z"/><path class="cls-14" d="M131.84,210.35a1,1,0,0,0,0,.1,6.08,6.08,0,0,0-.21,3.08,3.54,3.54,0,0,0,.53,1.33,4,4,0,0,0,4,1.72A7.28,7.28,0,0,1,131.84,210.35Z"/><path class="cls-15" d="M133.1,208.31a8.57,8.57,0,0,0-1.26,2,7.28,7.28,0,0,0,4.33,6.23,5.88,5.88,0,0,0,1-.2c.35-.11.71-.24,1.06-.38C135.07,215.07,133.07,211.53,133.1,208.31Z"/><path class="cls-14" d="M138.25,210a7.56,7.56,0,0,1-.19-5.57c-.5.32-1,.65-1.48,1-.05.63-.12,1.44-.16,2.37a7.06,7.06,0,0,0,4.8,6.76,20.35,20.35,0,0,0,2.23-1.35C141.17,213,139,212.09,138.25,210Z"/><path class="cls-14" d="M135.67,212.14a11.81,11.81,0,0,1-1.34-5.08,12.1,12.1,0,0,0-1.23,1.25c0,3.22,2,6.76,5.11,7.69.5-.21,1-.45,1.48-.69A6.88,6.88,0,0,1,135.67,212.14Z"/><path class="cls-15" d="M136.42,207.76c0-.93.11-1.74.16-2.37l-.66.45a15.59,15.59,0,0,0-1.59,1.22,11.81,11.81,0,0,0,1.34,5.08,6.88,6.88,0,0,0,4,3.17l1-.53.5-.26A7.06,7.06,0,0,1,136.42,207.76Z"/><path class="cls-16" d="M147.76,206.32a1.29,1.29,0,0,0-1.31.84,2,2,0,0,0,.56,2.2,8.65,8.65,0,0,0,.41-.87A5.32,5.32,0,0,0,147.76,206.32Z"/><path class="cls-17" d="M146.45,207.16a1.29,1.29,0,0,1,1.31-.84,4.41,4.41,0,0,0-1.77-3.38,4.86,4.86,0,0,0-4.14-.51,15.48,15.48,0,0,0-3.57,1.84l-.22.14a7.56,7.56,0,0,0,.19,5.57c.74,2.11,2.92,3,5.2,3.19a11.08,11.08,0,0,0,3.56-3.81A2,2,0,0,1,146.45,207.16Z"/><path class="cls-16" d="M139.14,205.82c.65-.38,1.86.51,1.9,1.17a1.48,1.48,0,0,1-.33.83,1.45,1.45,0,0,1-1.66.28,1.19,1.19,0,0,1-.59-.88A1.38,1.38,0,0,1,139.14,205.82Z"/><path class="cls-14" d="M142.05,208.21a1.3,1.3,0,0,1,.06.2,1.38,1.38,0,0,0,.1.22c0,.08.1.16.15.25a2.83,2.83,0,0,0,.23.28,1.89,1.89,0,0,0,.29.27l.17.12.18.08a1.58,1.58,0,0,0,.43.1,3.15,3.15,0,0,0,.44,0,2.83,2.83,0,0,0,.42-.06,1.47,1.47,0,0,0,.37-.13l.15-.09.14-.11a1.86,1.86,0,0,0,.19-.22,2.21,2.21,0,0,0,.11-.21l.08-.19,0,.21-.08.23a1.69,1.69,0,0,1-.17.27.93.93,0,0,1-.14.14l-.16.12a1.7,1.7,0,0,1-.41.18,2.21,2.21,0,0,1-.46.08,4.1,4.1,0,0,1-.49,0,2.31,2.31,0,0,1-.47-.12,2.39,2.39,0,0,1-.22-.12l-.19-.13a2.8,2.8,0,0,1-.29-.32,1.87,1.87,0,0,1-.2-.32c-.05-.11-.1-.2-.13-.29s0-.18-.05-.24S142.05,208.21,142.05,208.21Z"/><path class="cls-18" d="M143.07,202a.75.75,0,0,0-.53.06,1.14,1.14,0,0,0-.46.49c-.18.37,0,.38.35.23a1.83,1.83,0,0,0,.68-.48C143.22,202.13,143.17,202,143.07,202Z"/><path class="cls-18" d="M145.63,202.29c-.22,0-.19.22-.16.36s.55,1,.84.69-.32-.94-.6-1Z"/><path class="cls-18" d="M143.21,205.35a.25.25,0,0,0-.12,0c-.39,0-.33.68-.3.94s.28.52.53.2C143.41,206.36,143.69,205.4,143.21,205.35Z"/><path class="cls-18" d="M145.45,205.5h.12c.22.08.22.72.15,1s-.35.47-.55.12C145.09,206.48,145.09,205.56,145.45,205.5Z"/><g class="cls-11"><path class="cls-12" d="M141.09,38.87c-.47-1.3-.15-5.26,2.13-5.56s1.82,2.36,1.34,3.58a1.49,1.49,0,0,1,2,1.75c-.24,1.91-2.53,2-4,1.6Z"/></g><path class="cls-13" d="M142.28,39.17l0-.18a1.91,1.91,0,0,0,0-.2,1.22,1.22,0,0,1,0-.27c0-.1,0-.21,0-.33s0-.23,0-.35a2.57,2.57,0,0,1,.08-.38c0-.12,0-.26.09-.38l.12-.38c0-.12.09-.24.14-.36s.18-.44.27-.62.17-.32.22-.42l.09-.16a1.08,1.08,0,0,1-.05.17c0,.11-.08.27-.13.46l-.21.64c-.07.23-.15.48-.22.73s-.07.25-.1.37a2.83,2.83,0,0,0-.09.37c0,.11-.06.23-.08.34s0,.21-.06.3,0,.19,0,.27,0,.15,0,.2S142.28,39.17,142.28,39.17Z"/><path class="cls-13" d="M143.07,39.33l.1,0c.07,0,.17,0,.28-.05l.17,0,.2,0,.42-.12a6.5,6.5,0,0,1,.81-.21,2.65,2.65,0,0,1,.38-.06s-.13.08-.34.18l-.36.16-.21.07-.21.08a4.47,4.47,0,0,1-.45.09,1.46,1.46,0,0,1-.41,0,1.55,1.55,0,0,1-.28,0Z"/><path class="cls-15" d="M143.37,39.17l-.52-.79a6.61,6.61,0,0,1-1.43,2.28,9.67,9.67,0,0,1-4.95,2.91,5.18,5.18,0,0,1-2.19.09c.35.41.74.83,1.15,1.24a10.43,10.43,0,0,0,3.82-1.16A10,10,0,0,0,143.37,39.17Z"/><path class="cls-14" d="M136.47,43.57a9.67,9.67,0,0,0,4.95-2.91,6.61,6.61,0,0,0,1.43-2.28c-.46-.67-.89-1.26-1.17-1.74a8.57,8.57,0,0,1-.43,1.12,7.66,7.66,0,0,1-2.6,2.92,7.44,7.44,0,0,1-3.54,1.2,5.6,5.6,0,0,1-2.21-.14q.16.3.33.57a16,16,0,0,0,1.05,1.35A5.18,5.18,0,0,0,136.47,43.57Z"/><path class="cls-14" d="M144,40.31a12.52,12.52,0,0,0-.65-1.14,10,10,0,0,1-4.12,4.57,10.43,10.43,0,0,1-3.82,1.16c.36.37.75.74,1.13,1.07a10.8,10.8,0,0,0,4.17-1.42A8.43,8.43,0,0,0,144,40.31Z"/><path class="cls-17" d="M135.11,41.88a7.44,7.44,0,0,0,3.54-1.2,7.66,7.66,0,0,0,2.6-2.92,8.57,8.57,0,0,0,.43-1.12l0-.06c-1-1.82-2.13-3.27-4.42-3.73a4.63,4.63,0,0,0-5.09,3,7.64,7.64,0,0,0,.76,5.87A5.6,5.6,0,0,0,135.11,41.88Z"/><path class="cls-14" d="M148,49.84l-3.47-4.34a1.21,1.21,0,0,0,.05-.14,12,12,0,0,1-1.52,1.4l.21-.13S146.77,49.08,148,49.84Z"/><path class="cls-15" d="M144.69,42a8.59,8.59,0,0,0-.67-1.7,8.43,8.43,0,0,1-3.29,4.24A10.8,10.8,0,0,1,136.56,46a10.4,10.4,0,0,0,1.72,1.22,11.81,11.81,0,0,0,3-1.12A7,7,0,0,0,144.69,42Z"/><path class="cls-14" d="M144.61,45.36a5.57,5.57,0,0,0,.08-3.35,7,7,0,0,1-3.44,4.06,11.81,11.81,0,0,1-3,1.12,3,3,0,0,0,.45.21,5.38,5.38,0,0,0,4.36-.64A12,12,0,0,0,144.61,45.36Z"/><path class="cls-14" d="M134.51,38.22l.08.17a1.3,1.3,0,0,0,.11.19,1.46,1.46,0,0,0,.16.21.6.6,0,0,0,.25.16.94.94,0,0,0,.34,0,2.79,2.79,0,0,0,.38-.07,1.74,1.74,0,0,0,.39-.11,1.35,1.35,0,0,0,.34-.17,1.61,1.61,0,0,0,.28-.24,1.68,1.68,0,0,0,.2-.29,2.38,2.38,0,0,0,.13-.29c0-.09.06-.18.08-.26s0-.15,0-.21l0-.18s0,.06,0,.18v.22c0,.09,0,.18,0,.28a1.39,1.39,0,0,1-.1.33,1.32,1.32,0,0,1-.2.34,1.27,1.27,0,0,1-.31.3,2.42,2.42,0,0,1-.39.21,3.74,3.74,0,0,1-.42.11,2,2,0,0,1-.42,0,.93.93,0,0,1-.41-.07.71.71,0,0,1-.29-.24.79.79,0,0,1-.14-.25,1.7,1.7,0,0,1-.07-.21C134.52,38.29,134.51,38.22,134.51,38.22Z"/><path class="cls-18" d="M134.42,35.94a.67.67,0,0,0,.09.81c.38.23.29-.66.11-.79S134.46,35.89,134.42,35.94Z"/><path class="cls-16" d="M132,37.61c0-.62.54-1.24,1.19-.74a1.38,1.38,0,0,1,0,1.89C132.37,39.45,131.93,38.47,132,37.61Z"/><path class="cls-16" d="M139.18,35.1a1.24,1.24,0,0,0-.79.87.88.88,0,0,0,1,1.15,1.25,1.25,0,0,0,1-1,.8.8,0,0,0-.23-.85A1,1,0,0,0,139.18,35.1Z"/><path class="cls-18" d="M136.34,35.5a.67.67,0,0,0-.06.48c0,.12.11.32.26.29s.18-.24.18-.34a.69.69,0,0,0-.18-.45A.13.13,0,0,0,136.34,35.5Z"/><path class="cls-18" d="M136,32.16a.12.12,0,0,0-.13.14.43.43,0,0,0,.14.3,1.69,1.69,0,0,0,.61.41c.25.08.19-.2.12-.32A1,1,0,0,0,136,32.16Z"/><path class="cls-18" d="M133.76,32.69h0a.65.65,0,0,0-.18.22,1.86,1.86,0,0,0-.15.51c0,.17-.07.47.2.4s.33-.46.39-.67.13-.27.09-.4S133.86,32.64,133.76,32.69Z"/><g class="cls-11"><path class="cls-12" d="M20.76,83.57c-.54-.6-.22-2.21.06-2.88a2.35,2.35,0,0,1,2.51-1.45,2.43,2.43,0,0,1,2.13,1.4c.53,1.58-1.52,3.38-2.83,3.91Z"/></g><g class="cls-11"><path class="cls-12" d="M19.41,84.23c-1.41-.16-4.25-1.71-3.61-3.7a3,3,0,0,1,3.3-1.59c2,.49,2.39,3.19,2.32,5Z"/></g><path class="cls-13" d="M22,83.57v-.13a1.85,1.85,0,0,1,0-.34c0-.06,0-.14.05-.22l.09-.24a1.36,1.36,0,0,1,.11-.25c0-.08.08-.17.13-.25s.19-.33.29-.47l.3-.38a4.13,4.13,0,0,1,.31-.36s-.07.18-.2.43-.31.57-.5.89l-.25.47c0,.08-.08.15-.11.22l-.09.2c-.06.12-.1.24-.13.31Z"/><path class="cls-13" d="M17.91,81,18,81l.15.06.18.1.21.14.21.17a2,2,0,0,1,.21.2l.21.22c.13.16.26.31.36.46s.22.29.3.41l.2.3.07.11a4.7,4.7,0,0,1-.38-.33c-.21-.21-.47-.5-.73-.8l-.2-.22-.19-.21-.18-.19-.17-.15-.15-.14L18,81.05Z"/><path class="cls-14" d="M5.56,86.27c2.28.44,4.47,1.47,6.71,1.91a4.06,4.06,0,0,0-.07-1.63Z"/><path class="cls-14" d="M17,85.91a7.06,7.06,0,0,1,1.26-3.1,12.45,12.45,0,0,0-1.61,0,4.94,4.94,0,0,0-1.16,2,7.91,7.91,0,0,0,2,7.79c.72.12,1.48.22,2.26.28A8.32,8.32,0,0,1,17,85.91Z"/><path class="cls-15" d="M15.47,84.83a4.94,4.94,0,0,1,1.16-2l-.36,0a7.5,7.5,0,0,0-2,.52,4.92,4.92,0,0,0-1,2.84A8.62,8.62,0,0,0,15.11,92a9.85,9.85,0,0,0,1.45.44l.94.19A7.91,7.91,0,0,1,15.47,84.83Z"/><path class="cls-14" d="M14.24,83.4a4.4,4.4,0,0,0-1.68,1.13,3.87,3.87,0,0,0-.88,3.13,4.64,4.64,0,0,0,.5,1.74A5.6,5.6,0,0,0,15.11,92a8.62,8.62,0,0,1-1.85-5.75A4.92,4.92,0,0,1,14.24,83.4Z"/><path class="cls-14" d="M20.76,89.18A5.65,5.65,0,0,1,20.57,86a5,5,0,0,1,2-3C22,83,21.42,83,20.8,82.93a5.71,5.71,0,0,0-1.66,2.82A7.12,7.12,0,0,0,21.77,93a17.12,17.12,0,0,0,2.09-.15l.11,0a5.34,5.34,0,0,1-1.64-1.25A6.91,6.91,0,0,1,20.76,89.18Z"/><path class="cls-15" d="M19.14,85.75a5.71,5.71,0,0,1,1.66-2.82l-.7,0-1.86-.09A7.06,7.06,0,0,0,17,85.91a8.32,8.32,0,0,0,2.78,7c.67,0,1.35.08,2,.07A7.12,7.12,0,0,1,19.14,85.75Z"/><path class="cls-16" d="M29.75,87.14c-.56-.12-1,.32-1.14.84a1.29,1.29,0,0,0,.77,1.52A3.44,3.44,0,0,0,29.75,87.14Z"/><path class="cls-17" d="M28.61,88c.18-.52.58-1,1.14-.84a4.17,4.17,0,0,0-.27-.85c-.91-2.14-3.21-2.61-5.35-3.08a14.44,14.44,0,0,0-1.52-.2,5,5,0,0,0-2,3,5.65,5.65,0,0,0,.19,3.21,6.91,6.91,0,0,0,1.57,2.37A5.34,5.34,0,0,0,24,92.8c2-.32,4.44-1.51,5.41-3.3A1.29,1.29,0,0,1,28.61,88Z"/><path class="cls-16" d="M21.33,87.69a.87.87,0,0,1,.77-.83,1.54,1.54,0,0,1,1.46.55c.67.84-.4,1.5-1.22,1.42A1.1,1.1,0,0,1,21.33,87.69Z"/><path class="cls-14" d="M25,88.64l.05.16s0,.11.05.18.07.14.1.22l.15.23a1.51,1.51,0,0,0,.23.21,1.28,1.28,0,0,0,.28.16l.16,0,.17,0a.49.49,0,0,0,.17,0,.5.5,0,0,0,.17,0,1.6,1.6,0,0,0,.31-.1,1.67,1.67,0,0,0,.26-.17l.12-.09.09-.1a1.15,1.15,0,0,0,.14-.19.56.56,0,0,0,.09-.17,1.15,1.15,0,0,1,.07-.15.91.91,0,0,1,0,.16.82.82,0,0,1-.06.19.8.8,0,0,1-.11.23l-.09.13-.11.12a1.57,1.57,0,0,1-.28.21,1.13,1.13,0,0,1-.36.14l-.2,0a1.33,1.33,0,0,1-.2,0,.75.75,0,0,1-.21,0L25.8,90a1.52,1.52,0,0,1-.33-.2,1.2,1.2,0,0,1-.24-.27,2.28,2.28,0,0,1-.13-.28A1.49,1.49,0,0,1,25,89a1.68,1.68,0,0,1,0-.2Z"/><path class="cls-18" d="M27.9,84c-.14-.05-.27-.05-.31.13s.3.7.56.78a.21.21,0,0,0,.28-.29,1.35,1.35,0,0,0-.45-.58Z"/><path class="cls-18" d="M25.82,83.36a1.79,1.79,0,0,0-.34.17c-.17.09-.84.45-.54.7s.62-.11.79-.27.41-.38.26-.55A.17.17,0,0,0,25.82,83.36Z"/><path class="cls-18" d="M25.33,87.32a2.17,2.17,0,0,1,0-.72c0-.12.1-.36.23-.42s.31.33.33.48.08,1.1-.37.94A.36.36,0,0,1,25.33,87.32Z"/><path class="cls-18" d="M27.53,87.37a2.13,2.13,0,0,0,0-.71c0-.12-.07-.32-.2-.37s-.34.31-.35.45-.09,1.12.29,1A.43.43,0,0,0,27.53,87.37Z"/><path class="cls-19" d="M67.79,16.73c-.32-.52.08-2.85,1.24-3.1,2.57-.54.69,2.64.3,3.56a3.73,3.73,0,0,1,4.38-1.36c1.42,1-2.53,1.87-3.81,2.15,1.17.08,4.33,0,3.57,1.23-1.06,1.69-3.74.65-4.46-.34.35.91-.78,3.35-2.19,2.88-1-.32-.73-2.81-.18-3.41-.5.63-4.43,2.36-4.25.15.06-.72,1.72-1.29,3.52-1.32L65.6,17c-.8-.34-3.51-.73-2.26-1.84,1-.9,4.54.4,4.45,1.56"/><path class="cls-20" d="M66.91,18.11c.46.68,2.93.45,2.82-.55s-1.93-1-2.58-.78S66.42,17.39,66.91,18.11Z"/><path class="cls-19" d="M90.47,16.73c-.32-.52.08-2.85,1.24-3.1,2.57-.54.69,2.64.3,3.56a3.75,3.75,0,0,1,4.39-1.36c1.41,1-2.54,1.87-3.82,2.15,1.17.08,4.33,0,3.57,1.23-1.06,1.69-3.74.65-4.45-.34.34.91-.79,3.35-2.2,2.88-1-.32-.73-2.81-.18-3.41-.5.63-4.42,2.36-4.25.15.06-.72,1.72-1.29,3.52-1.32L88.28,17c-.8-.34-3.51-.73-2.26-1.84,1-.9,4.54.4,4.45,1.56"/><path class="cls-20" d="M89.59,18.11c.46.68,2.93.45,2.82-.55s-1.93-1-2.58-.78C89.33,17,89.1,17.39,89.59,18.11Z"/><path class="cls-19" d="M113.15,16.73c-.32-.52.08-2.85,1.24-3.1,2.57-.54.69,2.64.3,3.56a3.75,3.75,0,0,1,4.39-1.36c1.42,1-2.54,1.87-3.82,2.15,1.17.08,4.33,0,3.57,1.23-1.06,1.69-3.74.65-4.45-.34.34.91-.78,3.35-2.2,2.88-1-.32-.72-2.81-.18-3.41-.5.63-4.42,2.36-4.25.15.06-.72,1.72-1.29,3.52-1.32L111,17c-.8-.34-3.51-.73-2.26-1.84,1-.9,4.54.4,4.45,1.56"/><path class="cls-20" d="M112.27,18.11c.46.68,2.93.45,2.82-.55s-1.93-1-2.58-.78C112,17,111.78,17.39,112.27,18.11Z"/><path class="cls-19" d="M65.94,223.14c-.33-.52.07-2.85,1.24-3.09,2.56-.55.69,2.63.3,3.55.46-1,2.4-2,4.38-1.36,1.42,1-2.53,1.87-3.81,2.15,1.17.08,4.33,0,3.57,1.24-1.06,1.68-3.74.64-4.46-.35.35.91-.78,3.35-2.19,2.89-1-.33-.73-2.82-.18-3.42-.5.63-4.43,2.36-4.25.16.05-.73,1.72-1.3,3.52-1.32l-.32-.17c-.79-.34-3.5-.73-2.26-1.84,1-.9,4.55.4,4.46,1.56"/><path class="cls-20" d="M65.06,224.52c.46.68,2.93.45,2.82-.55s-1.94-1-2.58-.77S64.57,223.8,65.06,224.52Z"/><path class="cls-19" d="M88.62,223.14c-.32-.52.08-2.85,1.24-3.09,2.57-.55.69,2.63.3,3.55.46-1,2.4-2,4.38-1.36,1.42,1-2.53,1.87-3.81,2.15,1.17.08,4.33,0,3.57,1.24-1.06,1.68-3.74.64-4.46-.35.35.91-.78,3.35-2.19,2.89-1-.33-.73-2.82-.18-3.42-.5.63-4.43,2.36-4.25.16.06-.73,1.72-1.3,3.52-1.32l-.31-.17c-.8-.34-3.51-.73-2.26-1.84,1-.9,4.54.4,4.45,1.56"/><path class="cls-20" d="M87.74,224.52c.46.68,2.93.45,2.82-.55s-1.93-1-2.58-.77S87.25,223.8,87.74,224.52Z"/><path class="cls-19" d="M111.3,223.14c-.32-.52.08-2.85,1.24-3.09,2.57-.55.69,2.63.3,3.55a3.76,3.76,0,0,1,4.39-1.36c1.41,1-2.54,1.87-3.82,2.15,1.17.08,4.33,0,3.57,1.24-1.06,1.68-3.74.64-4.45-.35.34.91-.79,3.35-2.2,2.89-1-.33-.73-2.82-.18-3.42-.5.63-4.42,2.36-4.25.16.06-.73,1.72-1.3,3.52-1.32l-.31-.17c-.8-.34-3.51-.73-2.26-1.84,1-.9,4.54.4,4.45,1.56"/><path class="cls-20" d="M110.42,224.52c.46.68,2.93.45,2.82-.55s-1.93-1-2.58-.77C110.16,223.38,109.93,223.8,110.42,224.52Z"/></svg>