<svg xmlns="http://www.w3.org/2000/svg" viewBox="0 0 60.7 40"><g><path d="M47.2 40H7.9C3.5 40 0 36.5 0 32.1c0-4.3 3.5-7.9 7.9-7.9h39.4c4.3 0 7.9 3.5 7.9 7.9-.1 4.4-3.6 7.9-8 7.9z" fill="#fff"/><circle cx="17.4" cy="22.8" r="9.3" fill="#fff"/><circle cx="34.5" cy="21.1" r="15.6" fill="#fff"/><animateTransform attributeName="transform" attributeType="XML" dur="6s" keyTimes="0;0.5;1" repeatCount="indefinite" type="translate" values="0;5;0" calcMode="linear"/></g><g><path d="M54.7 22.3H33.4c-3.3 0-6-2.7-6-6s2.7-6 6-6h21.3c3.3 0 6 2.7 6 6s-2.7 6-6 6z" fill="#c2c2c2"/><circle cx="45.7" cy="10.7" r="10.7" fill="#c2c2c2"/><animateTransform attributeName="transform" attributeType="XML" dur="6s" keyTimes="0;0.5;1" repeatCount="indefinite" type="translate" values="0;-3;0" calcMode="linear"/></g></svg>