<svg xmlns="http://www.w3.org/2000/svg" viewBox="0 0 60.7 44.4">
  <g>
    <path d="M47.2 44.4H7.9c-4.3 0-7.9-3.5-7.9-7.9 0-4.3 3.5-7.9 7.9-7.9h39.4c4.3 0 7.9 3.5 7.9 7.9-.1 4.4-3.6 7.9-8 7.9z" fill="#fff"/>
    <circle cx="17.4" cy="27.2" r="9.3" fill="#fff"/>
    <circle cx="34.5" cy="25.5" r="15.6" fill="#fff"/>
    <animateTransform attributeName="transform" attributeType="XML" dur="6s" keyTimes="0;0.5;1" repeatCount="indefinite" type="translate" values="0;5;0" calcMode="linear"/>
  </g>
  <path d="M33.6 17.9c-.2-7.7 4.9-14.4 12-16.4C43.3.5 40.7 0 38 0c-9.8.3-17.5 8.5-17.2 18.3.3 9.8 8.5 17.5 18.3 17.2 2.7-.1 5.2-.8 7.5-1.9-7.3-1.6-12.8-8-13-15.7z" fill="#ffeb3b"/>
  <g>
    <path d="M54.7 26.8H33.4c-3.3 0-6-2.7-6-6s2.7-6 6-6h21.3c3.3 0 6 2.7 6 6s-2.7 6-6 6z" fill="#c2c2c2"/>
    <circle cx="45.7" cy="15.1" r="10.7" fill="#c2c2c2"/>
    <animateTransform attributeName="transform" attributeType="XML" dur="6s" keyTimes="0;0.5;1" repeatCount="indefinite" type="translate" values="0;-3;0" calcMode="linear"/>
  </g>
</svg>
