<svg xmlns="http://www.w3.org/2000/svg" viewBox="0 0 60.7 80">
  <circle cx="20" cy="20" r="8" fill="#ffeb3b"/>
  <g>
    <path d="M22.6 8.1h-.3c-.3 0-.6-.3-.6-.6v-7c0-.3.3-.6.6-.6h.3c.3 0 .6.3.6.6v7c0 .3-.3.6-.6.6zM22.6 36.8h-.3c-.3 0-.6.3-.6.6v7c0 .3.3.6.6.6h.3c.3 0 .6-.3.6-.6v-7c0-.4-.3-.6-.6-.6zM8.1 22.3v.3c0 .3-.3.6-.6.6h-7c-.3 0-.6-.3-.6-.6v-.3c0-.3.3-.6.6-.6h7c.3 0 .6.2.6.6zM36.8 22.3v.3c0 .3.3.6.6.6h7c.3 0 .6-.3.6-.6v-.3c0-.3-.3-.6-.6-.6h-7c-.4 0-.6.2-.6.6zM11.4 31.6l.2.3c.2.2.2.6-.1.8l-5.3 4.5c-.2.2-.6.2-.8-.1l-.2-.3c-.2-.2-.2-.6.1-.8l5.3-4.5c.3-.1.6-.1.8.1zM33.2 13l.2.3c.2.2.6.3.8.1l5.3-4.5c.2-.2.3-.6.1-.8l-.2-.3c-.2-.2-.6-.3-.8-.1l-5.3 4.5c-.3.2-.3.5-.1.8zM11.4 13.2l.2-.3c.2-.2.2-.6-.1-.8L6.3 7.6c-.2-.2-.6-.1-.8.1l-.2.2c-.2.3-.2.6.1.8l5.3 4.5c.2.3.5.3.7 0zM33.2 31.9l.2-.3c.2-.2.6-.3.8-.1l5.3 4.5c.2.2.3.6.1.8l-.2.3c-.2.2-.6.3-.8.1l-5.3-4.5c-.3-.2-.3-.6-.1-.8z" fill="#ffeb3b"/>
    <animate attributeType="XML" attributeName="opacity" dur="0.5s" keyTimes="0;0.5;1" repeatCount="indefinite" values="1;0.6;1" calcMode="linear"/>
  </g>
  <g>
    <path d="M47.2 42.8H7.9c-4.3 0-7.9-3.5-7.9-7.9S3.5 27 7.9 27h39.4c4.3 0 7.9 3.5 7.9 7.9-.1 4.3-3.6 7.9-8 7.9z" fill="#fff"/>
    <animateTransform attributeName="transform" attributeType="XML" dur="6s" keyTimes="0;0.5;1" repeatCount="indefinite" type="translate" values="0;5;0" calcMode="linear"/>
  </g>
  <g>
    <path d="M54.7 22.3H33.4c-3.3 0-6-2.7-6-6s2.7-6 6-6h21.3c3.3 0 6 2.7 6 6s-2.7 6-6 6z" fill="#c2c2c2"/>
    <circle cx="45.7" cy="10.7" r="10.7" fill="#c2c2c2"/>
    <animateTransform attributeName="transform" attributeType="XML" dur="6s" keyTimes="0;0.5;1" repeatCount="indefinite" type="translate" values="0;-3;0" calcMode="linear"/>
  </g>
  <g>
    <path d="M43.6 22.7c-.2.6-.4 1.3-.6 1.9-.2.6-.4 1.2-.7 1.8-.4 1.2-.9 2.4-1.5 3.5-1 2.3-2.2 4.6-3.4 6.8l-1.7-2.9c3.2-.1 6.3-.1 9.5 0l3 .1-1.3 2.5c-1.1 2.1-2.2 4.2-3.5 6.2-.6 1-1.3 2-2 3s-1.4 2-2.2 2.9c.2-1.2.5-2.4.8-3.5.3-1.2.6-2.3 1-3.4.7-2.3 1.5-4.5 2.4-6.7l1.7 2.7c-3.2.1-6.3.2-9.5 0l-3.4-.1 1.8-2.8c1.4-2.1 2.8-4.2 4.3-6.2l2.4-3c.4-.5.8-1 1.3-1.5.7-.3 1.1-.8 1.6-1.3z" fill="#ffeb3b"/>
    <animate attributeType="XML" attributeName="opacity" dur="1.5s" keyTimes="0;0.5;1" repeatCount="indefinite" values="1;0;1" calcMode="linear"/>
  </g>
  <g>
    <path d="M36.3 51.9c0 1.7-1.4 3.1-3.1 3.1-1.7 0-3.1-1.4-3.1-3.1 0-1.7 3.1-7.8 3.1-7.8s3.1 6.1 3.1 7.8zM26.4 51.9c0 1.7-1.4 3.1-3.1 3.1-1.7 0-3.1-1.4-3.1-3.1 0-1.7 3.1-7.8 3.1-7.8s3.1 6.1 3.1 7.8zM15.7 51.9c0 1.7-1.4 3.1-3.1 3.1s-3.1-1.4-3.1-3.1c0-1.7 3.1-7.8 3.1-7.8s3.1 6.1 3.1 7.8z" fill="#78e4ff"/>
    <animateTransform attributeName="transform" attributeType="XML" dur="1s" keyTimes="0;1" repeatCount="indefinite" type="translate" values="0 0;0 10" calcMode="linear"/>
    <animate attributeType="XML" attributeName="opacity" dur="1s" keyTimes="0;1" repeatCount="indefinite" values="1;0" calcMode="linear"/>
  </g>
</svg>
