<svg xmlns="http://www.w3.org/2000/svg" viewBox="0 0 55.1 60"><g><path d="M20.7 46.4c0 1.7-1.4 3.1-3.1 3.1s-3.1-1.4-3.1-3.1c0-1.7 3.1-7.8 3.1-7.8s3.1 6.1 3.1 7.8zM31.4 46.4c0 1.7-1.4 3.1-3.1 3.1-1.7 0-3.1-1.4-3.1-3.1 0-1.7 3.1-7.8 3.1-7.8s3.1 6.1 3.1 7.8zM41.3 46.4c0 1.7-1.4 3.1-3.1 3.1-1.7 0-3.1-1.4-3.1-3.1 0-1.7 3.1-7.8 3.1-7.8s3.1 6.1 3.1 7.8z" fill="#78e4ff"/><animateTransform attributeName="transform" attributeType="XML" dur="1s" keyTimes="0;1" repeatCount="indefinite" type="translate" values="0 0;0 10" calcMode="linear"/><animate attributeType="XML" attributeName="opacity" dur="1s" keyTimes="0;1" repeatCount="indefinite" values="1;0" calcMode="linear"/></g><g fill="#fff"><path d="M47.2 34.5H7.9C3.6 34.5 0 31 0 26.6c0-4.3 3.5-7.9 7.9-7.9h39.4c4.3 0 7.9 3.5 7.9 7.9-.1 4.3-3.6 7.9-8 7.9z"/><circle cx="17.4" cy="17.3" r="9.3"/><circle cx="34.5" cy="15.6" r="15.6"/></g></svg>