<svg xmlns="http://www.w3.org/2000/svg" viewBox="0 0 44.9 44.9" height="40" width="40">
  <circle cx="22.4" cy="22.6" r="11" fill="#ffeb3b"/>
  <g>
    <path d="M22.6 8.1h-.3c-.3 0-.6-.3-.6-.6v-7c0-.3.3-.6.6-.6h.3c.3 0 .6.3.6.6v7c0 .3-.3.6-.6.6zM22.6 36.8h-.3c-.3 0-.6.3-.6.6v7c0 .3.3.6.6.6h.3c.3 0 .6-.3.6-.6v-7c0-.4-.3-.6-.6-.6zM8.1 22.3v.3c0 .3-.3.6-.6.6h-7c-.3 0-.6-.3-.6-.6v-.3c0-.3.3-.6.6-.6h7c.3 0 .6.2.6.6zM36.8 22.3v.3c0 .3.3.6.6.6h7c.3 0 .6-.3.6-.6v-.3c0-.3-.3-.6-.6-.6h-7c-.4 0-.6.2-.6.6zM11.4 31.6l.2.3c.2.2.2.6-.1.8l-5.3 4.5c-.2.2-.6.2-.8-.1l-.2-.3c-.2-.2-.2-.6.1-.8l5.3-4.5c.3-.1.6-.1.8.1zM33.2 13l.2.3c.2.2.6.3.8.1l5.3-4.5c.2-.2.3-.6.1-.8l-.2-.3c-.2-.2-.6-.3-.8-.1l-5.3 4.5c-.3.2-.3.5-.1.8zM11.4 13.2l.2-.3c.2-.2.2-.6-.1-.8L6.3 7.6c-.2-.2-.6-.1-.8.1l-.2.2c-.2.3-.2.6.1.8l5.3 4.5c.2.3.5.3.7 0zM33.2 31.9l.2-.3c.2-.2.6-.3.8-.1l5.3 4.5c.2.2.3.6.1.8l-.2.3c-.2.2-.6.3-.8.1l-5.3-4.5c-.3-.2-.3-.6-.1-.8z" fill="#ffeb3b"/>
    <animate attributeType="XML" attributeName="opacity" dur="0.5s" keyTimes="0;0.5;1" repeatCount="indefinite" values="1;0.6;1" calcMode="linear"/>
  </g>
</svg>
