<svg version="1.1" id="Layer_1" xmlns="http://www.w3.org/2000/svg" x="0" y="0" viewBox="0 0 45.1 47.6" xml:space="preserve" height="45" width="45">
  <style>
    .st1{fill:none;stroke:#fff;stroke-width:2;stroke-miterlimit:10}
  </style>
  <g id="Wind_Sun">
    <g id="Sun_1_">
      <circle id="XMLID_25_" cx="27.1" cy="18.1" r="8.9" fill="#ffeb3b"/>
      <g>
        <path id="XMLID_21_" d="M27.2 6.5c-.4 0-.6-.3-.6-.6V.6c0-.3.3-.6.6-.6h.1c.3 0 .6.3.6.6V6c-.2.2-.4.5-.7.5z" fill="#ffeb3b"/>
        <path id="XMLID_18_" d="M27.2 29.5c-.4 0-.6.3-.6.6v5.4c0 .3.3.6.6.6h.1c.3 0 .6-.3.6-.6v-5.4c-.2-.3-.4-.6-.7-.6z" fill="#ffeb3b"/>
        <path id="XMLID_17_" d="M15.6 18c0 .4-.3.6-.6.6H9.7c-.3 0-.6-.3-.6-.6s.3-.6.6-.6h5.4c.3 0 .5.3.5.6z" fill="#ffeb3b"/>
        <path id="XMLID_16_" d="M38.7 18c0 .4.3.6.6.6h5.4c.3 0 .6-.3.6-.6s-.3-.6-.6-.6h-5.4c-.4 0-.6.3-.6.6z" fill="#ffeb3b"/>
        <path id="XMLID_15_" d="M18.4 25.5c.2.3.2.6 0 .8l-4.1 3.5c-.2.2-.6.2-.8-.1-.2-.2-.2-.6.1-.8l4.1-3.5c.1-.2.5-.2.7.1z" fill="#ffeb3b"/>
        <path id="XMLID_12_" d="M35.9 10.5c.2.3.6.3.8.1l4.1-3.5c.2-.2.2-.6 0-.8-.2-.3-.6-.3-.8-.1l-4.1 3.5c-.2.2-.2.5 0 .8z" fill="#ffeb3b"/>
        <path id="XMLID_11_" d="M18.4 10.5c.2-.3.2-.6 0-.8l-4.1-3.5c-.2-.2-.6-.2-.8.1-.2.2-.2.6.1.8l4.1 3.5c.1.2.5.2.7-.1z" fill="#ffeb3b"/>
        <path id="XMLID_9_" d="M35.9 25.5c.2-.3.6-.3.8-.1l4.1 3.5c.2.2.3.6.1.8-.3.3-.7.3-.9.1l-4.1-3.5c-.2-.2-.2-.5 0-.8z" fill="#ffeb3b"/>
        <animate attributeType="XML" attributeName="opacity" dur="0.5s" keyTimes="0;0.5;1" repeatCount="indefinite" values="1;0.6;1" calcMode="linear"/>
      </g>
    </g>
    <g id="Wind">
      <path id="XMLID_27_" class="st1" d="M1.3 33.1h19.3c2.1 0 3.8-1.3 3.8-3s-1.7-3-3.8-3h-2.1"/>
      <path id="XMLID_40_" class="st1" d="M2.4 42.4h18.2c2 0 3.6.9 3.6 2.1 0 1.2-1.6 2.1-3.6 2.1h-2"/>
      <path id="XMLID_28_" class="st1" d="M5.3 36.3h20.2"/>
      <path id="XMLID_29_" class="st1" d="M0 39.3h27"/>
      <animateTransform attributeName="transform" attributeType="XML" dur="1.5s" keyTimes="0;1" repeatCount="indefinite" type="translate" values="0;3" calcMode="linear"/>
      <animate attributeType="XML" attributeName="opacity" dur="1.5s" keyTimes="0;1" repeatCount="indefinite" values="0.3;0.9" calcMode="linear"/>
    </g>
  </g>
</svg>
